<svg xmlns="http://www.w3.org/2000/svg" xmlns:xlink="http://www.w3.org/1999/xlink" width="110" height="110" viewBox="0 0 110 110">
  <defs>
    <filter id="Trazado_982547" x="0" y="0" width="110" height="110" filterUnits="userSpaceOnUse">
      <feOffset dy="3" input="SourceAlpha"/>
      <feGaussianBlur stdDeviation="3" result="blur"/>
      <feFlood flood-opacity="0.161"/>
      <feComposite operator="in" in2="blur"/>
      <feComposite in="SourceGraphic"/>
    </filter>
  </defs>
  <g id="Grupo_1185078" data-name="Grupo 1185078" transform="translate(2420 -3822.215)">
    <g id="Grupo_1183627" data-name="Grupo 1183627" transform="translate(-2411 3828.215)">
      <g id="Grupo_1179602" data-name="Grupo 1179602" transform="translate(0 0)">
        <g id="Grupo_1171898" data-name="Grupo 1171898">
          <g id="Grupo_1164700" data-name="Grupo 1164700">
            <g id="Grupo_1160931" data-name="Grupo 1160931" transform="translate(0 0)">
              <g id="Grupo_1160749" data-name="Grupo 1160749">
                <g id="Grupo_1158891" data-name="Grupo 1158891">
                  <g id="Grupo_1157406" data-name="Grupo 1157406">
                    <g id="Grupo_1155793" data-name="Grupo 1155793">
                      <g id="Grupo_1154704" data-name="Grupo 1154704">
                        <g id="Grupo_1150790" data-name="Grupo 1150790">
                          <g id="Grupo_1154214" data-name="Grupo 1154214">
                            <g id="Grupo_1152583" data-name="Grupo 1152583">
                              <g id="Grupo_1146973" data-name="Grupo 1146973">
                                <g id="Grupo_1146954" data-name="Grupo 1146954">
                                  <g transform="matrix(1, 0, 0, 1, -9, -6)" filter="url(#Trazado_982547)">
                                    <g id="Trazado_982547-2" data-name="Trazado 982547" transform="translate(9 6)" fill="#effbfe">
                                      <path d="M 46.00000381469727 90.49986267089844 C 39.99188232421875 90.49986267089844 34.16428375244141 89.32350158691406 28.67905807495117 87.00344848632812 C 23.38021659851074 84.76223754882812 18.62104415893555 81.55341339111328 14.53376388549805 77.46613311767578 C 10.44647026062012 73.37885284423828 7.237643718719482 68.61968994140625 4.996417045593262 63.32085037231445 C 2.676363706588745 57.83565139770508 1.500003814697266 52.00805282592773 1.500003814697266 45.99993133544922 C 1.500003814697266 39.99182510375977 2.676363706588745 34.16422653198242 4.996417045593262 28.67901039123535 C 7.237643718719482 23.38017082214355 10.44647026062012 18.62101173400879 14.53376388549805 14.53373146057129 C 18.62104415893555 10.44645118713379 23.38021659851074 7.237624645233154 28.67905807495117 4.996411323547363 C 34.16428375244141 2.676357984542847 39.99188232421875 1.499997973442078 46.00000381469727 1.499997973442078 C 52.00812530517578 1.499997973442078 57.83573532104492 2.676357984542847 63.32094955444336 4.996411323547363 C 68.61980438232422 7.237624645233154 73.37896728515625 10.44645118713379 77.46625518798828 14.53373146057129 C 81.55353546142578 18.62101173400879 84.76236724853516 23.38017082214355 87.00359344482422 28.67901039123535 C 89.32364654541016 34.16422653198242 90.5 39.99182510375977 90.5 45.99993133544922 C 90.5 52.00805282592773 89.32364654541016 57.83565139770508 87.00359344482422 63.32085037231445 C 84.76236724853516 68.61968994140625 81.55353546142578 73.37885284423828 77.46625518798828 77.46613311767578 C 73.37896728515625 81.55341339111328 68.61980438232422 84.76223754882812 63.32094955444336 87.00344848632812 C 57.83573532104492 89.32350158691406 52.00812530517578 90.49986267089844 46.00000381469727 90.49986267089844 Z" stroke="none"/>
                                      <path d="M 46.00000381469727 3 C 40.19371795654297 3 34.56270217895508 4.136505126953125 29.26338958740234 6.377914428710938 C 24.14333343505859 8.54351806640625 19.54443359375 11.64438629150391 15.59442138671875 15.59439086914062 C 11.64440155029297 19.54440307617188 8.543533325195312 24.14330291748047 6.3779296875 29.26334381103516 C 4.136505126953125 34.56266021728516 3.000007629394531 40.19366073608398 3.000007629394531 45.99993133544922 C 3.000007629394531 51.80620193481445 4.136505126953125 57.43720245361328 6.3779296875 62.73651885986328 C 8.543533325195312 67.85655975341797 11.64440155029297 72.45545959472656 15.59442138671875 76.40547180175781 C 19.54443359375 80.35547637939453 24.14333343505859 83.45634460449219 29.26338958740234 85.6219482421875 C 34.56270217895508 87.86335754394531 40.19371795654297 88.99986267089844 46.00000381469727 88.99986267089844 C 51.80628967285156 88.99986267089844 57.43730545043945 87.86335754394531 62.73663330078125 85.6219482421875 C 67.85667419433594 83.45634460449219 72.45558929443359 80.35547637939453 76.40560150146484 76.40547180175781 C 80.35560607910156 72.45545959472656 83.45648956298828 67.85655975341797 85.62208557128906 62.73651885986328 C 87.86350250244141 57.43720245361328 89 51.80620193481445 89 45.99993133544922 C 89 40.19366073608398 87.86350250244141 34.56266021728516 85.62208557128906 29.26334381103516 C 83.45648956298828 24.14330291748047 80.35560607910156 19.54440307617188 76.40560150146484 15.59439086914062 C 72.45558929443359 11.64438629150391 67.85667419433594 8.54351806640625 62.73663330078125 6.377914428710938 C 57.43730545043945 4.136505126953125 51.80628967285156 3 46.00000381469727 3 M 46.00000381469727 0 C 71.40510559082031 0 92 20.59487152099609 92 45.99993133544922 C 92 71.40499114990234 71.40510559082031 91.99986267089844 46.00000381469727 91.99986267089844 C 20.59491729736328 91.99986267089844 7.62939453125e-06 71.40499114990234 7.62939453125e-06 45.99993133544922 C 7.62939453125e-06 20.59487152099609 20.59491729736328 0 46.00000381469727 0 Z" stroke="none" fill="#397b86"/>
                                    </g>
                                  </g>
                                </g>
                              </g>
                            </g>
                          </g>
                        </g>
                      </g>
                    </g>
                  </g>
                </g>
              </g>
            </g>
          </g>
        </g>
      </g>
    </g>
    <g id="Page-1" transform="translate(-2394.999 3843.827)">
      <g id="_001---Paint-Splat" data-name="001---Paint-Splat" transform="translate(-1)">
        <g id="Icons" transform="translate(1 1)">
          <path id="Shape" d="M10.953,28.388a19.371,19.371,0,0,1,5.185.44c1.124.292,2.541.871,2.728,2.169a2.108,2.108,0,0,1,0,.561c-.008.068-.021.135-.035.2-.428,2.061-2.976,2.864-4.784,3.229a37.771,37.771,0,0,1-6.371.429c-2.071.062-4.736.231-6,2.112A4.244,4.244,0,0,0,1,39.957a2.509,2.509,0,0,0,.762,1.789,2.559,2.559,0,0,0,1.221.571,5.683,5.683,0,0,0,1.361.067c1.35-.061,2.682-.309,4.02-.484,1.446-.189,2.9-.316,4.349-.47,1.105-.117,2.246-.234,3.364-.252,1.2-.019,2.871.12,3.524,1.3a2.579,2.579,0,0,1-.011,2.155,11.933,11.933,0,0,1-2.252,3.385,9.79,9.79,0,0,0-2.062,2.828,3.038,3.038,0,0,0,1.666,3.908,5.122,5.122,0,0,0,3.805-.672,11.959,11.959,0,0,0,3.037-2.6c1.292-1.419,2.248-3.1,3.6-4.467a12.809,12.809,0,0,1,4.407-2.906,6.284,6.284,0,0,1,5.649.132,6.513,6.513,0,0,1,2.171,2.4C41.3,49.5,42.4,53.68,46.366,53.972A5.687,5.687,0,0,0,50.68,52.29c1.12-1.1,2.052-2.913,1.45-4.485-.592-1.546-2.322-2.333-3.763-2.9a20.671,20.671,0,0,1-5.155-2.536,6.263,6.263,0,0,1-2.223-3.1,2.615,2.615,0,0,1-.043-1.541c.373-1.182,1.687-1.352,2.753-1.219s2.123.35,3.19.5c1.419.2,3.087.371,3.975-1.02a2.567,2.567,0,0,0-1.111-3.67,4.249,4.249,0,0,0-2.039-.3c-.43.03-.858.1-1.288.092a1.765,1.765,0,0,1-1.871-1.36A2.921,2.921,0,0,1,45.08,28.8c1.089-1.6,3.19-1.631,4.938-1.732,2.048-.118,4.026-.414,5.147-2.356a4.8,4.8,0,0,0,.6-2.645c-.137-1.852-1.685-2.8-3.433-2.838a18.169,18.169,0,0,0-4.9.847c-1.531.393-3.42.95-5,.5-2.93-.838-.705-4.892.324-6.361,1.126-1.607,2.529-3.115,3.191-4.993A3.306,3.306,0,0,0,44.73,5.342a2.636,2.636,0,0,0-2.078-.261c-1.83.554-2.917,2.7-4.04,4.109-.861,1.082-3.048,3.775-4.707,2.858a1.9,1.9,0,0,1-.778-1.42C33,9.9,32.973,9.143,32.885,8.4a4.932,4.932,0,0,0-.473-1.74A2.29,2.29,0,0,0,31.081,5.49c-1-.288-1.685.426-2.122,1.228a31.729,31.729,0,0,0-1.688,4.938c-.411,1.184-1.018,2.8-2.187,3.449-1.518.837-2.567-1.034-3.078-2.165a43.033,43.033,0,0,0-1.755-4.046c-.825-1.42-2.157-2.827-3.907-2.928C14.293,5.848,12.71,7.566,12.2,9.4a6.99,6.99,0,0,0,.736,4.855c1.521,3.119,4.326,4.845,6.565,7.362,1.5,1.686-2.714,1.07-3.409.957-3.806-.623-8.426-2.586-11.2,1.212a3.006,3.006,0,0,0-.512,3,2.733,2.733,0,0,0,1.431,1.26c1.562.66,3.331.382,4.972.341Z" fill="#ef314c"/>
          <g id="Grupo_1185077" data-name="Grupo 1185077">
            <path id="Shape-2" data-name="Shape" d="M29.415,6.655a4.932,4.932,0,0,1,.473,1.74c.088.739.119,1.492.242,2.224a1.892,1.892,0,0,0,.778,1.42,2.32,2.32,0,0,0,2.492-.558,2.905,2.905,0,0,1-.27-.862c-.123-.732-.154-1.485-.242-2.224a4.932,4.932,0,0,0-.473-1.74A2.29,2.29,0,0,0,31.081,5.49a1.662,1.662,0,0,0-1.877.836,2.7,2.7,0,0,1,.211.329Z" fill="#bb193b"/>
            <path id="Shape-3" data-name="Shape" d="M17.251,8.893a43.167,43.167,0,0,1,1.755,4.047c.511,1.131,1.56,3,3.078,2.165a2.926,2.926,0,0,0,.8-.669,7.226,7.226,0,0,1-.874-1.5,43.166,43.166,0,0,0-1.755-4.047C19.43,7.47,18.1,6.063,16.348,5.962a3.412,3.412,0,0,0-1.677.348A6.289,6.289,0,0,1,17.251,8.893Z" fill="#bb193b"/>
            <path id="Shape-4" data-name="Shape" d="M7.953,28.388H7.788c-.181,0-.365.013-.55.021a16.635,16.635,0,0,0,2.91,0C9.408,28.38,8.668,28.373,7.953,28.388Z" fill="#bb193b"/>
            <path id="Shape-5" data-name="Shape" d="M42.95,9.211c-.662,1.878-2.065,3.386-3.191,4.993-1.029,1.469-3.254,5.523-.324,6.361a6.478,6.478,0,0,0,2.963-.014c-2.869-.864-.663-4.885.361-6.347,1.126-1.607,2.529-3.115,3.191-4.993a3.306,3.306,0,0,0-1.217-3.878,2.636,2.636,0,0,0-2.078-.261,3.429,3.429,0,0,0-.783.366A3.333,3.333,0,0,1,42.95,9.211Z" fill="#bb193b"/>
            <path id="Shape-6" data-name="Shape" d="M48.365,44.9a20.671,20.671,0,0,1-5.155-2.536,6.263,6.263,0,0,1-2.223-3.1,2.615,2.615,0,0,1-.043-1.541,1.627,1.627,0,0,1,.963-1.034c-.4-.066-.8-.134-1.21-.185-1.066-.133-2.38.037-2.753,1.219a2.615,2.615,0,0,0,.043,1.541,6.263,6.263,0,0,0,2.223,3.1A20.671,20.671,0,0,0,45.365,44.9c1.441.572,3.171,1.359,3.763,2.9.6,1.572-.33,3.382-1.45,4.485a6.02,6.02,0,0,1-2.453,1.463,5.181,5.181,0,0,0,1.139.219,5.687,5.687,0,0,0,4.314-1.682c1.12-1.1,2.052-2.913,1.45-4.485-.592-1.546-2.322-2.333-3.763-2.9Z" fill="#bb193b"/>
            <path id="Shape-7" data-name="Shape" d="M52.334,19.219a10.369,10.369,0,0,0-1.9.163,2.937,2.937,0,0,1,2.338,2.675,4.806,4.806,0,0,1-.6,2.645c-1.121,1.942-3.1,2.238-5.147,2.356-1.748.1-3.849.127-4.938,1.732a2.921,2.921,0,0,0-.525,1.953,1.765,1.765,0,0,0,1.871,1.36c.43.007.858-.062,1.288-.092a4.249,4.249,0,0,1,2.039.3,2.567,2.567,0,0,1,1.111,3.67,2.31,2.31,0,0,1-1.249.976c.092.014.182.031.274.044,1.419.2,3.087.371,3.975-1.02a2.567,2.567,0,0,0-1.111-3.67,4.249,4.249,0,0,0-2.039-.3c-.43.03-.858.1-1.288.092a1.765,1.765,0,0,1-1.871-1.36,2.921,2.921,0,0,1,.525-1.953c1.089-1.6,3.19-1.631,4.938-1.732,2.048-.118,4.026-.414,5.147-2.356a4.806,4.806,0,0,0,.6-2.645c-.137-1.852-1.685-2.8-3.433-2.838Z" fill="#bb193b"/>
            <path id="Shape-8" data-name="Shape" d="M13.093,22.578a9.332,9.332,0,0,0,3.364.054c-.156-.022-.285-.042-.364-.054-2.507-.411-5.364-1.393-7.816-.936C9.9,21.864,11.561,22.327,13.093,22.578Z" fill="#bb193b"/>
            <path id="Shape-9" data-name="Shape" d="M28.789,44.1a12.809,12.809,0,0,0-4.407,2.906c-1.348,1.363-2.3,3.048-3.6,4.467a11.959,11.959,0,0,1-3.037,2.6,7.67,7.67,0,0,1-1.155.51,2.323,2.323,0,0,0,.35.162,5.122,5.122,0,0,0,3.805-.672,11.959,11.959,0,0,0,3.037-2.6c1.292-1.419,2.248-3.1,3.6-4.467A12.809,12.809,0,0,1,31.789,44.1a9.245,9.245,0,0,1,1.345-.417,6.989,6.989,0,0,0-4.345.417Z" fill="#bb193b"/>
            <path id="Shape-10" data-name="Shape" d="M14.484,41.262a8.4,8.4,0,0,0-1.4-.084c-1.118.018-2.259.135-3.364.252-1.453.154-2.9.281-4.349.47-.86.113-1.717.251-2.579.355.067.017.13.048.2.062a5.683,5.683,0,0,0,1.361.067c1.35-.061,2.682-.309,4.02-.484,1.446-.189,2.9-.316,4.349-.47C13.3,41.369,13.89,41.309,14.484,41.262Z" fill="#bb193b"/>
          </g>
          <path id="Shape-11" data-name="Shape" d="M37.244,53.925a6.012,6.012,0,0,0-.887-3.358c-1.686-2.467-4.692-2.229-5.828.53a5.162,5.162,0,0,0,.444,5.33A4.12,4.12,0,0,0,33.259,57.9c2.734.647,3.953-1.625,3.985-3.975Z" fill="#e91e63"/>
          <circle id="Oval" cx="2.5" cy="2.5" r="2.5" transform="translate(21 0.764)" fill="#e91e63"/>
          <circle id="Oval-2" data-name="Oval" cx="3" cy="3" r="3" transform="translate(1 13)" fill="#e91e63"/>
          <circle id="Oval-3" data-name="Oval" cx="2.5" cy="2.5" r="2.5" transform="translate(54 37)" fill="#e91e63"/>
        </g>
        <g id="Icons_copy">
          <path id="Shape-12" data-name="Shape" d="M15.209,22.18c-3.323-.724-7.459-1.627-10.12,2.021a3.927,3.927,0,0,0-.6,4.027,3.728,3.728,0,0,0,1.942,1.745,9.835,9.835,0,0,0,4.419.461c.326-.017.649-.035.969-.042h.156a18.628,18.628,0,0,1,4.911.407c.851.222,1.888.635,1.99,1.345a1.084,1.084,0,0,1,0,.29,1.167,1.167,0,0,1-.022.126c-.3,1.418-2.339,2.116-4,2.451a27.264,27.264,0,0,1-4.913.382c-.43.008-.861.016-1.291.029-1.939.058-5.186.154-6.8,2.551A5.264,5.264,0,0,0,1,40.99a3.5,3.5,0,0,0,1.094,2.5,3.555,3.555,0,0,0,1.7.807,6.629,6.629,0,0,0,1.6.085,29.915,29.915,0,0,0,2.994-.335c.37-.053.74-.108,1.11-.156,1.007-.132,2.016-.233,3.026-.334l1.3-.133c1.018-.108,2.173-.23,3.276-.247,1.409-.024,2.336.248,2.633.785a1.625,1.625,0,0,1-.067,1.307,11.077,11.077,0,0,1-2.078,3.094c-.138.159-.28.318-.424.477a8.413,8.413,0,0,0-1.82,2.659,4.328,4.328,0,0,0,.188,3.333,3.568,3.568,0,0,0,2.114,1.874,4.274,4.274,0,0,0,1.3.194,7.175,7.175,0,0,0,3.29-.942,12.861,12.861,0,0,0,3.3-2.807,26.428,26.428,0,0,0,1.7-2.141,20.824,20.824,0,0,1,1.868-2.3,11.867,11.867,0,0,1,4.062-2.678,5.237,5.237,0,0,1,4.767.058,5.494,5.494,0,0,1,1.826,2.05c.329.558.636,1.174.962,1.825,1.274,2.55,2.859,5.722,6.581,5.995A6.732,6.732,0,0,0,52.38,54c1.276-1.257,2.482-3.466,1.682-5.555-.793-2.073-3.093-2.986-4.329-3.477l-.6-.236a17.153,17.153,0,0,1-4.315-2.164,5.229,5.229,0,0,1-1.875-2.6,1.679,1.679,0,0,1-.046-.948c.2-.641,1.238-.582,1.675-.527.586.073,1.165.172,1.744.269.476.081.952.161,1.431.229,1.289.182,3.685.523,4.958-1.471a3.5,3.5,0,0,0,.392-2.881A3.564,3.564,0,0,0,51.164,32.4a5.2,5.2,0,0,0-2.522-.385c-.156.01-.311.026-.467.042a7.089,7.089,0,0,1-.735.047c-.287-.005-.843-.115-.9-.5a1.946,1.946,0,0,1,.363-1.252c.751-1.107,2.339-1.194,3.875-1.278l.292-.016c2.157-.125,4.573-.459,5.956-2.856a5.832,5.832,0,0,0,.735-3.218c-.162-2.194-1.933-3.707-4.407-3.763a16.917,16.917,0,0,0-4.725.76l-.777.2a8.617,8.617,0,0,1-4.146.422c-.474-.136-.6-.351-.665-.522-.323-.912.549-2.9,1.535-4.3.281-.4.582-.8.883-1.2a15.145,15.145,0,0,0,2.432-4.038,4.275,4.275,0,0,0-1.651-5.07,3.651,3.651,0,0,0-2.877-.358c-1.74.527-2.83,2.07-3.791,3.431-.252.356-.5.7-.742,1.012-2.314,2.9-3.22,2.729-3.441,2.606-.018-.011-.176-.114-.276-.709-.071-.425-.109-.859-.147-1.291-.027-.3-.053-.593-.088-.887a5.925,5.925,0,0,0-.582-2.09,3.285,3.285,0,0,0-1.943-1.658c-.61-.175-2.148-.358-3.275,1.71a15.984,15.984,0,0,0-1.255,3.432c-.156.558-.311,1.115-.5,1.657-.292.843-.837,2.412-1.725,2.9a.418.418,0,0,1-.371.066c-.142-.047-.656-.314-1.313-1.768-.217-.481-.407-.973-.6-1.465a18.4,18.4,0,0,0-1.2-2.672c-1.221-2.1-2.9-3.318-4.714-3.424-2.589-.147-4.558,1.985-5.164,4.17a7.829,7.829,0,0,0,.8,5.56,18.133,18.133,0,0,0,4.4,5.3c.621.574,1.258,1.164,1.855,1.788a13.845,13.845,0,0,1-2.035-.191c-.663-.11-1.35-.26-2.047-.412Zm6.04-.223c-.788-.886-1.636-1.671-2.456-2.431a16.337,16.337,0,0,1-3.957-4.7,5.928,5.928,0,0,1-.671-4.151c.391-1.412,1.6-2.793,3.121-2.706s2.594,1.561,3.1,2.432a16.743,16.743,0,0,1,1.068,2.389c.2.527.408,1.052.641,1.566.718,1.591,1.538,2.521,2.5,2.843a2.41,2.41,0,0,0,1.967-.213c1.56-.86,2.269-2.9,2.649-4,.2-.581.37-1.177.537-1.775A14.313,14.313,0,0,1,30.836,8.2c.483-.884.825-.787.97-.744a1.31,1.31,0,0,1,.725.67A4.113,4.113,0,0,1,32.9,9.513c.033.275.057.551.082.827.043.484.086.968.166,1.445a2.789,2.789,0,0,0,1.281,2.129c2.426,1.342,5-1.892,5.973-3.11.27-.337.537-.715.811-1.1.814-1.152,1.655-2.343,2.737-2.671a1.633,1.633,0,0,1,1.278.164,2.325,2.325,0,0,1,.784,2.685,13.433,13.433,0,0,1-2.14,3.5c-.316.417-.631.833-.927,1.256-.438.625-2.582,3.859-1.781,6.119a2.8,2.8,0,0,0,2,1.776,10.13,10.13,0,0,0,5.2-.408l.779-.2a15.57,15.57,0,0,1,4.174-.7A2.233,2.233,0,0,1,55.77,23.13a3.815,3.815,0,0,1-.47,2.07c-.806,1.4-2.147,1.731-4.339,1.858l-.287.016c-1.833.1-4.114.226-5.42,2.153a3.864,3.864,0,0,0-.688,2.653,2.744,2.744,0,0,0,2.841,2.22,8.206,8.206,0,0,0,.968-.058c.135-.013.271-.027.4-.036a3.281,3.281,0,0,1,1.557.212,1.559,1.559,0,0,1,.842.986,1.48,1.48,0,0,1-.159,1.235c-.489.764-1.43.789-2.993.568-.461-.066-.919-.143-1.378-.22-.607-.1-1.214-.206-1.828-.283-1.942-.247-3.376.47-3.831,1.91a3.6,3.6,0,0,0,.04,2.132,7.2,7.2,0,0,0,2.571,3.6,18.959,18.959,0,0,0,4.8,2.44l.592.232c1.412.561,2.776,1.232,3.2,2.334s-.334,2.544-1.217,3.414a4.7,4.7,0,0,1-3.539,1.4c-2.588-.191-3.73-2.475-4.939-4.9-.326-.653-.664-1.328-1.028-1.947a7.514,7.514,0,0,0-2.518-2.748,7.205,7.205,0,0,0-6.531-.206A13.885,13.885,0,0,0,27.67,47.3a22.572,22.572,0,0,0-2.055,2.515A24.57,24.57,0,0,1,24.046,51.8a11.2,11.2,0,0,1-2.778,2.4,4.119,4.119,0,0,1-3.021.6,1.584,1.584,0,0,1-.924-.848,2.32,2.32,0,0,1-.108-1.762,6.709,6.709,0,0,1,1.429-2.011c.152-.169.3-.338.451-.508A12.939,12.939,0,0,0,21.524,46a3.51,3.51,0,0,0-.046-3c-.933-1.687-3.1-1.82-4.123-1.82h-.292c-1.192.019-2.394.146-3.454.258l-1.288.131c-1.029.1-2.058.208-3.085.342-.381.049-.76.1-1.14.16a28.136,28.136,0,0,1-2.8.316,4.843,4.843,0,0,1-1.122-.049A1.564,1.564,0,0,1,3.432,42,1.524,1.524,0,0,1,3,40.923a3.244,3.244,0,0,1,.5-1.835c.965-1.428,3.193-1.611,5.207-1.671.422-.013.845-.021,1.269-.028a29.228,29.228,0,0,0,5.27-.421c3.278-.661,5.15-2.009,5.561-3.987.022-.1.039-.2.053-.3a3.088,3.088,0,0,0,0-.827c-.208-1.442-1.374-2.45-3.465-2.994a20.545,20.545,0,0,0-5.458-.472h-.168c-.337.008-.679.025-1.023.044a8.071,8.071,0,0,1-3.535-.307,1.77,1.77,0,0,1-.922-.776,2.072,2.072,0,0,1,.422-1.975c1.892-2.594,4.9-1.939,8.077-1.245.732.16,1.453.317,2.149.43,3.986.654,4.524-.319,4.725-.686a1.592,1.592,0,0,0-.413-1.916Z"/>
          <path id="Shape-13" data-name="Shape" d="M34.029,59.875a4.883,4.883,0,0,0,1.129.138,3.65,3.65,0,0,0,2.286-.763,5.462,5.462,0,0,0,1.8-4.312A6.965,6.965,0,0,0,38.183,51a4.46,4.46,0,0,0-4.1-2.119A4.334,4.334,0,0,0,30.6,51.716a6.134,6.134,0,0,0,.58,6.324A5.1,5.1,0,0,0,34.029,59.875Zm-1.575-7.4a2.349,2.349,0,0,1,1.838-1.606,1.789,1.789,0,0,1,.194-.011,2.563,2.563,0,0,1,2.045,1.27,5.005,5.005,0,0,1,.713,2.78,3.576,3.576,0,0,1-1.031,2.762,1.937,1.937,0,0,1-1.725.256,3.128,3.128,0,0,1-1.724-1.116,4.236,4.236,0,0,1-.31-4.332Z"/>
          <path id="Shape-14" data-name="Shape" d="M24.5,7.764a3.5,3.5,0,1,0-3.5-3.5A3.5,3.5,0,0,0,24.5,7.764Zm0-5a1.5,1.5,0,1,1-1.5,1.5A1.5,1.5,0,0,1,24.5,2.764Z"/>
          <path id="Shape-15" data-name="Shape" d="M5,21a4,4,0,1,0-4-4A4,4,0,0,0,5,21Zm0-6a2,2,0,1,1-2,2A2,2,0,0,1,5,15Z"/>
          <path id="Shape-16" data-name="Shape" d="M57.5,37A3.5,3.5,0,1,0,61,40.5,3.5,3.5,0,0,0,57.5,37Zm0,5A1.5,1.5,0,1,1,59,40.5,1.5,1.5,0,0,1,57.5,42Z"/>
        </g>
        <g id="Layer_12" transform="translate(22 14)">
          <path id="Shape-17" data-name="Shape" d="M3.336,7.314a6.376,6.376,0,0,1-2.145-.368,1,1,0,1,1,.673-1.884,4.469,4.469,0,0,0,3.668-.33A7.3,7.3,0,0,0,8.607.961a1,1,0,0,1,1.841.783A9.34,9.34,0,0,1,6.5,6.484a6.49,6.49,0,0,1-3.162.83Z" fill="#fff"/>
        </g>
      </g>
    </g>
  </g>
</svg>
