<svg xmlns="http://www.w3.org/2000/svg" xmlns:xlink="http://www.w3.org/1999/xlink" width="110" height="110" viewBox="0 0 110 110">
  <defs>
    <filter id="Trazado_982547" x="0" y="0" width="110" height="110" filterUnits="userSpaceOnUse">
      <feOffset dy="3" input="SourceAlpha"/>
      <feGaussianBlur stdDeviation="3" result="blur"/>
      <feFlood flood-opacity="0.161"/>
      <feComposite operator="in" in2="blur"/>
      <feComposite in="SourceGraphic"/>
    </filter>
  </defs>
  <g id="Grupo_1185085" data-name="Grupo 1185085" transform="translate(2105 -3822.215)">
    <g id="Grupo_1183628" data-name="Grupo 1183628" transform="translate(-2096 3828.215)">
      <g id="Grupo_1179602" data-name="Grupo 1179602" transform="translate(0 0)">
        <g id="Grupo_1171898" data-name="Grupo 1171898">
          <g id="Grupo_1164700" data-name="Grupo 1164700">
            <g id="Grupo_1160931" data-name="Grupo 1160931" transform="translate(0 0)">
              <g id="Grupo_1160749" data-name="Grupo 1160749">
                <g id="Grupo_1158891" data-name="Grupo 1158891">
                  <g id="Grupo_1157406" data-name="Grupo 1157406">
                    <g id="Grupo_1155793" data-name="Grupo 1155793">
                      <g id="Grupo_1154704" data-name="Grupo 1154704">
                        <g id="Grupo_1150790" data-name="Grupo 1150790">
                          <g id="Grupo_1154214" data-name="Grupo 1154214">
                            <g id="Grupo_1152583" data-name="Grupo 1152583">
                              <g id="Grupo_1146973" data-name="Grupo 1146973">
                                <g id="Grupo_1146954" data-name="Grupo 1146954">
                                  <g transform="matrix(1, 0, 0, 1, -9, -6)" filter="url(#Trazado_982547)">
                                    <g id="Trazado_982547-2" data-name="Trazado 982547" transform="translate(9 6)" fill="#effbfe">
                                      <path d="M 46.00000381469727 90.49986267089844 C 39.99188232421875 90.49986267089844 34.16428375244141 89.32350158691406 28.67905807495117 87.00344848632812 C 23.38021659851074 84.76223754882812 18.62104415893555 81.55341339111328 14.53376388549805 77.46613311767578 C 10.44647026062012 73.37885284423828 7.237643718719482 68.61968994140625 4.996417045593262 63.32085037231445 C 2.676363706588745 57.83565139770508 1.500003814697266 52.00805282592773 1.500003814697266 45.99993133544922 C 1.500003814697266 39.99182510375977 2.676363706588745 34.16422653198242 4.996417045593262 28.67901039123535 C 7.237643718719482 23.38017082214355 10.44647026062012 18.62101173400879 14.53376388549805 14.53373146057129 C 18.62104415893555 10.44645118713379 23.38021659851074 7.237624645233154 28.67905807495117 4.996411323547363 C 34.16428375244141 2.676357984542847 39.99188232421875 1.499997973442078 46.00000381469727 1.499997973442078 C 52.00812530517578 1.499997973442078 57.83573532104492 2.676357984542847 63.32094955444336 4.996411323547363 C 68.61980438232422 7.237624645233154 73.37896728515625 10.44645118713379 77.46625518798828 14.53373146057129 C 81.55353546142578 18.62101173400879 84.76236724853516 23.38017082214355 87.00359344482422 28.67901039123535 C 89.32364654541016 34.16422653198242 90.5 39.99182510375977 90.5 45.99993133544922 C 90.5 52.00805282592773 89.32364654541016 57.83565139770508 87.00359344482422 63.32085037231445 C 84.76236724853516 68.61968994140625 81.55353546142578 73.37885284423828 77.46625518798828 77.46613311767578 C 73.37896728515625 81.55341339111328 68.61980438232422 84.76223754882812 63.32094955444336 87.00344848632812 C 57.83573532104492 89.32350158691406 52.00812530517578 90.49986267089844 46.00000381469727 90.49986267089844 Z" stroke="none"/>
                                      <path d="M 46.00000381469727 3 C 40.19371795654297 3 34.56270217895508 4.136505126953125 29.26338958740234 6.377914428710938 C 24.14333343505859 8.54351806640625 19.54443359375 11.64438629150391 15.59442138671875 15.59439086914062 C 11.64440155029297 19.54440307617188 8.543533325195312 24.14330291748047 6.3779296875 29.26334381103516 C 4.136505126953125 34.56266021728516 3.000007629394531 40.19366073608398 3.000007629394531 45.99993133544922 C 3.000007629394531 51.80620193481445 4.136505126953125 57.43720245361328 6.3779296875 62.73651885986328 C 8.543533325195312 67.85655975341797 11.64440155029297 72.45545959472656 15.59442138671875 76.40547180175781 C 19.54443359375 80.35547637939453 24.14333343505859 83.45634460449219 29.26338958740234 85.6219482421875 C 34.56270217895508 87.86335754394531 40.19371795654297 88.99986267089844 46.00000381469727 88.99986267089844 C 51.80628967285156 88.99986267089844 57.43730545043945 87.86335754394531 62.73663330078125 85.6219482421875 C 67.85667419433594 83.45634460449219 72.45558929443359 80.35547637939453 76.40560150146484 76.40547180175781 C 80.35560607910156 72.45545959472656 83.45648956298828 67.85655975341797 85.62208557128906 62.73651885986328 C 87.86350250244141 57.43720245361328 89 51.80620193481445 89 45.99993133544922 C 89 40.19366073608398 87.86350250244141 34.56266021728516 85.62208557128906 29.26334381103516 C 83.45648956298828 24.14330291748047 80.35560607910156 19.54440307617188 76.40560150146484 15.59439086914062 C 72.45558929443359 11.64438629150391 67.85667419433594 8.54351806640625 62.73663330078125 6.377914428710938 C 57.43730545043945 4.136505126953125 51.80628967285156 3 46.00000381469727 3 M 46.00000381469727 0 C 71.40510559082031 0 92 20.59487152099609 92 45.99993133544922 C 92 71.40499114990234 71.40510559082031 91.99986267089844 46.00000381469727 91.99986267089844 C 20.59491729736328 91.99986267089844 7.62939453125e-06 71.40499114990234 7.62939453125e-06 45.99993133544922 C 7.62939453125e-06 20.59487152099609 20.59491729736328 0 46.00000381469727 0 Z" stroke="none" fill="#397b86"/>
                                    </g>
                                  </g>
                                </g>
                              </g>
                            </g>
                          </g>
                        </g>
                      </g>
                    </g>
                  </g>
                </g>
              </g>
            </g>
          </g>
        </g>
      </g>
    </g>
    <g id="pintura-en-aerosol" transform="translate(-2101.586 3848.104)">
      <g id="Grupo_1185083" data-name="Grupo 1185083" transform="translate(29.928 0.853)">
        <g id="Grupo_1185082" data-name="Grupo 1185082" transform="translate(0)">
          <g id="Grupo_1185081" data-name="Grupo 1185081">
            <g id="Grupo_1185080" data-name="Grupo 1185080" transform="translate(0 4.45)">
              <path id="Trazado_1049607" data-name="Trazado 1049607" d="M145.246,54.818h-7.585V50.4a3.677,3.677,0,0,1,3.677-3.677h2.788a1.12,1.12,0,0,1,1.12,1.12Z" transform="translate(-126.189 -46.72)" fill="#7a9eae"/>
              <g id="Grupo_1185079" data-name="Grupo 1185079" transform="translate(0 7.899)">
                <path id="Trazado_1049608" data-name="Trazado 1049608" d="M78.715,124.074H51.593l1.392-2.786a8.984,8.984,0,0,1,8.036-4.968h8.265a8.984,8.984,0,0,1,8.036,4.968Z" transform="translate(-49.889 -116.32)" fill="#f1faff"/>
                <path id="Trazado_1049609" data-name="Trazado 1049609" d="M157.608,121.289a8.984,8.984,0,0,0-8.036-4.968h-7.415a8.984,8.984,0,0,1,8.036,4.968l1.392,2.786H159Z" transform="translate(-130.174 -116.321)" fill="#dcf5ff"/>
                <path id="Trazado_1049610" data-name="Trazado 1049610" d="M51.593,184.636H78.715V219.2H51.593Z" transform="translate(-49.889 -176.882)" fill="#fbe05c"/>
                <path id="Trazado_1049611" data-name="Trazado 1049611" d="M225.232,184.636h7.415V219.2h-7.415Z" transform="translate(-203.821 -176.882)" fill="#f9d109"/>
                <path id="Trazado_1049612" data-name="Trazado 1049612" d="M65.37,172.79H38.318a1.739,1.739,0,0,1,0-3.479H65.37a1.739,1.739,0,0,1,0,3.479Z" transform="translate(-36.579 -163.297)" fill="#dcf5ff"/>
                <path id="Trazado_1049613" data-name="Trazado 1049613" d="M232.337,169.311h-7.415a1.739,1.739,0,1,1,0,3.479h7.415a1.739,1.739,0,0,0,0-3.479Z" transform="translate(-203.546 -163.297)" fill="#c7eefb"/>
                <path id="Trazado_1049614" data-name="Trazado 1049614" d="M65.37,477.33H38.318a1.739,1.739,0,1,1,0-3.479H65.37a1.739,1.739,0,1,1,0,3.479Z" transform="translate(-36.579 -433.273)" fill="#dcf5ff"/>
              </g>
            </g>
            <path id="Trazado_1049615" data-name="Trazado 1049615" d="M280.334,16.12a4.97,4.97,0,0,0-4.17-4.9.677.677,0,0,1-.556-.665,3.105,3.105,0,0,0-5.716-1.614.833.833,0,0,1-.767.388,2.334,2.334,0,0,0-2.28.935,4.251,4.251,0,0,1-2.306,1.691l-8.163,2.692a1.481,1.481,0,0,0,.018,2.819l8.066,2.549a4,4,0,0,1,2.177,1.486,2.831,2.831,0,0,0,2.483,1.153.9.9,0,0,1,.763.427,3.106,3.106,0,0,0,5.718-1.424.687.687,0,0,1,.577-.628,4.97,4.97,0,0,0,4.157-4.9Z" transform="translate(-230.528 -7.515)" fill="#fbe05c"/>
            <path id="Trazado_1049616" data-name="Trazado 1049616" d="M375.158,11.216a.677.677,0,0,1-.556-.665,3.105,3.105,0,0,0-5.716-1.614.833.833,0,0,1-.767.388,3.028,3.028,0,0,0-1.093.09,12.185,12.185,0,0,0,2.791,2.651,4.97,4.97,0,0,1-.622,8.486,5.336,5.336,0,0,0-2.167,1.951,3.455,3.455,0,0,0,1.086.146.9.9,0,0,1,.763.427,3.106,3.106,0,0,0,5.718-1.424.687.687,0,0,1,.577-.628,4.97,4.97,0,0,0-.013-9.808Z" transform="translate(-329.522 -7.515)" fill="#f9d109"/>
          </g>
          <path id="Trazado_1049617" data-name="Trazado 1049617" d="M149.12,285.249H134.1a3.087,3.087,0,0,1-3.087-3.087v-9a3.087,3.087,0,0,1,3.087-3.087H149.12v15.169Z" transform="translate(-120.294 -240.28)" fill="#fa8084"/>
          <path id="Trazado_1049618" data-name="Trazado 1049618" d="M225.232,270.079h7.415v15.169h-7.415Z" transform="translate(-203.821 -240.279)" fill="#f8636f"/>
        </g>
        <path id="Trazado_1049619" data-name="Trazado 1049619" d="M232.337,473.851h-7.415a1.739,1.739,0,1,1,0,3.478h7.415a1.739,1.739,0,1,0,0-3.478Z" transform="translate(-203.546 -420.924)" fill="#c7eefb"/>
      </g>
      <g id="Grupo_1185084" data-name="Grupo 1185084" transform="translate(29.077 0)">
        <path id="Trazado_1049620" data-name="Trazado 1049620" d="M59.606,58.159a2.59,2.59,0,0,0-.887-5.025h-.308l-.288-.576a9.776,9.776,0,0,0-8.286-5.424V41.192a1.974,1.974,0,0,0-1.971-1.971H45.078a4.534,4.534,0,0,0-4.529,4.529v3.385a9.776,9.776,0,0,0-8.286,5.424l-.288.576h-.308a2.59,2.59,0,0,0-.887,5.025v29.7a2.591,2.591,0,0,0,.887,5.025H58.719a2.591,2.591,0,0,0,.887-5.025v-29.7ZM32.484,87.7V58.315H57.9v6.256H43.733A3.942,3.942,0,0,0,39.8,68.509v9a3.942,3.942,0,0,0,3.938,3.938h1.988a.851.851,0,1,0,0-1.7H43.733A2.238,2.238,0,0,1,41.5,77.5v-9a2.238,2.238,0,0,1,2.235-2.235H57.9v3.238H46.32a.851.851,0,1,0,0,1.7H57.9V74.8H46.32a.851.851,0,1,0,0,1.7H57.9V79.74H49.7a.851.851,0,1,0,0,1.7h8.2V87.7H32.484ZM45.078,40.923h2.788a.269.269,0,0,1,.269.269V43.27H46.467a.851.851,0,0,0,0,1.7h1.668V47.12H42.252V43.75A2.829,2.829,0,0,1,45.078,40.923ZM31.668,54.837H36.24a.851.851,0,1,0,0-1.7H33.883a8.086,8.086,0,0,1,7.178-4.312h8.265A8.085,8.085,0,0,1,56.5,53.134H40.219a.851.851,0,1,0,0,1.7h18.5a.888.888,0,0,1,.027,1.775h-.008l-.038,0H31.686l-.038,0h-.008a.888.888,0,0,1,.027-1.775Zm27.052,36.34H31.668a.888.888,0,1,1,0-1.776H58.7l.038,0h.016a.888.888,0,0,1-.035,1.774Z" transform="translate(-29.077 -34.77)"/>
        <path id="Trazado_1049621" data-name="Trazado 1049621" d="M269.832,3.741a3.957,3.957,0,0,0-7.278-1.928,3.21,3.21,0,0,0-3.03,1.3c-1.111,1.595-1.837,1.163-10.037,4.062a2.334,2.334,0,0,0,.028,4.439c7.708,2.6,8.849,2.39,9.81,3.721a3.655,3.655,0,0,0,3.183,1.505.078.078,0,0,1,.034.032,3.943,3.943,0,0,0,1.015,1.08,3.984,3.984,0,0,0,4.905-.2,3.939,3.939,0,0,0,1.353-2.567,5.821,5.821,0,0,0,.017-11.44Zm-.415,9.781a1.538,1.538,0,0,0-1.287,1.4,2.255,2.255,0,0,1-4.15,1.035,1.736,1.736,0,0,0-1.469-.823h-.026a2.019,2.019,0,0,1-1.78-.8c-1.462-2.025-3.229-1.765-10.677-4.348a.63.63,0,0,1-.008-1.2c7.549-2.748,9.285-2.387,10.9-4.7a1.526,1.526,0,0,1,1.511-.573,1.68,1.68,0,0,0,1.555-.777,2.254,2.254,0,0,1,4.149,1.172,1.528,1.528,0,0,0,1.271,1.487,4.119,4.119,0,0,1,.011,8.128Z" transform="translate(-223.054 0)"/>
      </g>
    </g>
  </g>
</svg>
