<svg xmlns="http://www.w3.org/2000/svg" xmlns:xlink="http://www.w3.org/1999/xlink" width="110" height="110" viewBox="0 0 110 110">
  <defs>
    <filter id="Trazado_982547" x="0" y="0" width="110" height="110" filterUnits="userSpaceOnUse">
      <feOffset dy="3" input="SourceAlpha"/>
      <feGaussianBlur stdDeviation="3" result="blur"/>
      <feFlood flood-opacity="0.161"/>
      <feComposite operator="in" in2="blur"/>
      <feComposite in="SourceGraphic"/>
    </filter>
  </defs>
  <g id="Grupo_1185092" data-name="Grupo 1185092" transform="translate(2420 -4233.215)">
    <g id="Grupo_1183629" data-name="Grupo 1183629" transform="translate(-2411 4239.215)">
      <g id="Grupo_1179602" data-name="Grupo 1179602" transform="translate(0 0)">
        <g id="Grupo_1171898" data-name="Grupo 1171898">
          <g id="Grupo_1164700" data-name="Grupo 1164700">
            <g id="Grupo_1160931" data-name="Grupo 1160931" transform="translate(0 0)">
              <g id="Grupo_1160749" data-name="Grupo 1160749">
                <g id="Grupo_1158891" data-name="Grupo 1158891">
                  <g id="Grupo_1157406" data-name="Grupo 1157406">
                    <g id="Grupo_1155793" data-name="Grupo 1155793">
                      <g id="Grupo_1154704" data-name="Grupo 1154704">
                        <g id="Grupo_1150790" data-name="Grupo 1150790">
                          <g id="Grupo_1154214" data-name="Grupo 1154214">
                            <g id="Grupo_1152583" data-name="Grupo 1152583">
                              <g id="Grupo_1146973" data-name="Grupo 1146973">
                                <g id="Grupo_1146954" data-name="Grupo 1146954">
                                  <g transform="matrix(1, 0, 0, 1, -9, -6)" filter="url(#Trazado_982547)">
                                    <g id="Trazado_982547-2" data-name="Trazado 982547" transform="translate(9 6)" fill="#effbfe">
                                      <path d="M 46.00000381469727 90.49986267089844 C 39.99188232421875 90.49986267089844 34.16428375244141 89.32350158691406 28.67905807495117 87.00344848632812 C 23.38021659851074 84.76223754882812 18.62104415893555 81.55341339111328 14.53376388549805 77.46613311767578 C 10.44647026062012 73.37885284423828 7.237643718719482 68.61968994140625 4.996417045593262 63.32085037231445 C 2.676363706588745 57.83565139770508 1.500003814697266 52.00805282592773 1.500003814697266 45.99993133544922 C 1.500003814697266 39.99182510375977 2.676363706588745 34.16422653198242 4.996417045593262 28.67901039123535 C 7.237643718719482 23.38017082214355 10.44647026062012 18.62101173400879 14.53376388549805 14.53373146057129 C 18.62104415893555 10.44645118713379 23.38021659851074 7.237624645233154 28.67905807495117 4.996411323547363 C 34.16428375244141 2.676357984542847 39.99188232421875 1.499997973442078 46.00000381469727 1.499997973442078 C 52.00812530517578 1.499997973442078 57.83573532104492 2.676357984542847 63.32094955444336 4.996411323547363 C 68.61980438232422 7.237624645233154 73.37896728515625 10.44645118713379 77.46625518798828 14.53373146057129 C 81.55353546142578 18.62101173400879 84.76236724853516 23.38017082214355 87.00359344482422 28.67901039123535 C 89.32364654541016 34.16422653198242 90.5 39.99182510375977 90.5 45.99993133544922 C 90.5 52.00805282592773 89.32364654541016 57.83565139770508 87.00359344482422 63.32085037231445 C 84.76236724853516 68.61968994140625 81.55353546142578 73.37885284423828 77.46625518798828 77.46613311767578 C 73.37896728515625 81.55341339111328 68.61980438232422 84.76223754882812 63.32094955444336 87.00344848632812 C 57.83573532104492 89.32350158691406 52.00812530517578 90.49986267089844 46.00000381469727 90.49986267089844 Z" stroke="none"/>
                                      <path d="M 46.00000381469727 3 C 40.19371795654297 3 34.56270217895508 4.136505126953125 29.26338958740234 6.377914428710938 C 24.14333343505859 8.54351806640625 19.54443359375 11.64438629150391 15.59442138671875 15.59439086914062 C 11.64440155029297 19.54440307617188 8.543533325195312 24.14330291748047 6.3779296875 29.26334381103516 C 4.136505126953125 34.56266021728516 3.000007629394531 40.19366073608398 3.000007629394531 45.99993133544922 C 3.000007629394531 51.80620193481445 4.136505126953125 57.43720245361328 6.3779296875 62.73651885986328 C 8.543533325195312 67.85655975341797 11.64440155029297 72.45545959472656 15.59442138671875 76.40547180175781 C 19.54443359375 80.35547637939453 24.14333343505859 83.45634460449219 29.26338958740234 85.6219482421875 C 34.56270217895508 87.86335754394531 40.19371795654297 88.99986267089844 46.00000381469727 88.99986267089844 C 51.80628967285156 88.99986267089844 57.43730545043945 87.86335754394531 62.73663330078125 85.6219482421875 C 67.85667419433594 83.45634460449219 72.45558929443359 80.35547637939453 76.40560150146484 76.40547180175781 C 80.35560607910156 72.45545959472656 83.45648956298828 67.85655975341797 85.62208557128906 62.73651885986328 C 87.86350250244141 57.43720245361328 89 51.80620193481445 89 45.99993133544922 C 89 40.19366073608398 87.86350250244141 34.56266021728516 85.62208557128906 29.26334381103516 C 83.45648956298828 24.14330291748047 80.35560607910156 19.54440307617188 76.40560150146484 15.59439086914062 C 72.45558929443359 11.64438629150391 67.85667419433594 8.54351806640625 62.73663330078125 6.377914428710938 C 57.43730545043945 4.136505126953125 51.80628967285156 3 46.00000381469727 3 M 46.00000381469727 0 C 71.40510559082031 0 92 20.59487152099609 92 45.99993133544922 C 92 71.40499114990234 71.40510559082031 91.99986267089844 46.00000381469727 91.99986267089844 C 20.59491729736328 91.99986267089844 7.62939453125e-06 71.40499114990234 7.62939453125e-06 45.99993133544922 C 7.62939453125e-06 20.59487152099609 20.59491729736328 0 46.00000381469727 0 Z" stroke="none" fill="#397b86"/>
                                    </g>
                                  </g>
                                </g>
                              </g>
                            </g>
                          </g>
                        </g>
                      </g>
                    </g>
                  </g>
                </g>
              </g>
            </g>
          </g>
        </g>
      </g>
    </g>
    <g id="autismo" transform="translate(-2409.507 4253.914)">
      <g id="Grupo_1185090" data-name="Grupo 1185090" transform="translate(19.381 0.917)">
        <path id="Trazado_1049622" data-name="Trazado 1049622" d="M351.118,239.085l14.956-14.956a5.258,5.258,0,0,0-7.436-7.436l-5.215,5.214Z" transform="translate(-311.361 -189.763)" fill="#ffb29c"/>
        <path id="Trazado_1049623" data-name="Trazado 1049623" d="M357.091,240.4l-3.668,3.668-2.306,17.178,5.661-5.661a24.776,24.776,0,0,0,.313-3.923V240.4Z" transform="translate(-311.36 -211.919)" fill="#ff8e71"/>
        <path id="Trazado_1049624" data-name="Trazado 1049624" d="M25.967,234.084v7.593a21.031,21.031,0,0,0,42.063,0v-7.593L47,229.026Z" transform="translate(-25.967 -201.94)" fill="#7de2ff"/>
        <path id="Trazado_1049625" data-name="Trazado 1049625" d="M29.843,262.771l-3.876.932V271.3A21.031,21.031,0,0,0,47,292.328c.443,0,.882-.015,1.318-.042A39.532,39.532,0,0,1,29.843,262.771Z" transform="translate(-25.967 -231.559)" fill="#2ecffb"/>
        <path id="Trazado_1049626" data-name="Trazado 1049626" d="M31.225,78.277a5.258,5.258,0,0,0-5.258,5.258v18.233H36.483L41.741,91.5l-5.258-7.966a5.258,5.258,0,0,0-5.258-5.258Z" transform="translate(-25.967 -69.623)" fill="#fce29f"/>
        <path id="Trazado_1049627" data-name="Trazado 1049627" d="M117.228,29.278a5.258,5.258,0,0,0-5.258,5.258V58.76h10.516l5.258-16.072-5.258-8.152a5.258,5.258,0,0,0-5.258-5.258Z" transform="translate(-101.454 -26.615)" fill="#ff8d9d"/>
        <path id="Trazado_1049628" data-name="Trazado 1049628" d="M251.49,29.278a5.258,5.258,0,0,1,5.258,5.258V58.76H246.232l-5.258-16.072,5.258-8.152a5.258,5.258,0,0,1,5.258-5.258Z" transform="translate(-214.685 -26.615)" fill="#c8a9f1"/>
        <g id="Grupo_1185089" data-name="Grupo 1185089" transform="translate(4.686 42.218)">
          <g id="Grupo_1185088" data-name="Grupo 1185088">
            <g id="Grupo_1185086" data-name="Grupo 1185086">
              <ellipse id="Elipse_12603" data-name="Elipse 12603" cx="4.406" cy="3.508" rx="4.406" ry="3.508" fill="#eeedff"/>
            </g>
            <g id="Grupo_1185087" data-name="Grupo 1185087" transform="translate(23.88)">
              <ellipse id="Elipse_12604" data-name="Elipse 12604" cx="4.406" cy="3.508" rx="4.406" ry="3.508" fill="#eeedff"/>
            </g>
          </g>
        </g>
        <path id="Trazado_1049629" data-name="Trazado 1049629" d="M203.231,7.5a5.258,5.258,0,0,0-5.258,5.258V39.645h10.516V12.758A5.258,5.258,0,0,0,203.231,7.5Z" transform="translate(-176.942 -7.5)" fill="#71dbba"/>
        <path id="Trazado_1049630" data-name="Trazado 1049630" d="M29.636,96.757A48.951,48.951,0,0,1,32.842,78.53a5.259,5.259,0,0,0-6.874,5v18.233h3.983a39.892,39.892,0,0,1-.315-5.01Z" transform="translate(-25.968 -69.622)" fill="#ffcd71"/>
      </g>
      <g id="Grupo_1185091" data-name="Grupo 1185091" transform="translate(18.463 0)">
        <path id="Trazado_1049631" data-name="Trazado 1049631" d="M114.733,331.62a.917.917,0,0,0-.917.917v1.8a.917.917,0,1,0,1.834,0v-1.8a.917.917,0,0,0-.917-.917Z" transform="translate(-102.157 -291.072)"/>
        <path id="Trazado_1049632" data-name="Trazado 1049632" d="M268.035,331.62a.917.917,0,0,0-.917.917v1.8a.917.917,0,1,0,1.834,0v-1.8A.917.917,0,0,0,268.035,331.62Z" transform="translate(-236.715 -291.072)"/>
        <path id="Trazado_1049633" data-name="Trazado 1049633" d="M176.719,346.136a.917.917,0,0,0-1.294.089,2.358,2.358,0,0,1-3.559,0,.917.917,0,0,0-1.383,1.205,4.192,4.192,0,0,0,6.325,0A.917.917,0,0,0,176.719,346.136Z" transform="translate(-151.697 -303.615)"/>
        <path id="Trazado_1049634" data-name="Trazado 1049634" d="M66.009,27.2,62.36,30.848V8.838A6.171,6.171,0,0,0,51.653,4.649a6.175,6.175,0,0,0-11.968,0A6.171,6.171,0,0,0,28.979,8.838v1.6a6.171,6.171,0,0,0-10.516,4.387V40.655a21.945,21.945,0,0,0,41.4,10.152l7.61-7.61a.917.917,0,0,0-1.3-1.3l-4.6,4.6a22.146,22.146,0,0,0,.784-5.848V33.442L67.306,28.5a4.341,4.341,0,1,1,6.139,6.139l-4.672,4.672a.917.917,0,0,0,1.3,1.3l4.672-4.672A6.175,6.175,0,0,0,66.009,27.2ZM56.185,4.5a4.346,4.346,0,0,1,4.341,4.341V32.144H51.844V8.838A4.346,4.346,0,0,1,56.185,4.5ZM41.328,6.175a4.341,4.341,0,0,1,8.682,0v25.97H41.328c0-1.278,0-24.794,0-25.97ZM20.3,14.829a4.341,4.341,0,0,1,8.682,0V18.2a.917.917,0,0,0,1.834,0V8.838a4.341,4.341,0,0,1,8.682,0V32.144H30.812V21.864a.917.917,0,0,0-1.834,0V32.144H20.3Zm20.114,45.94A20.137,20.137,0,0,1,20.3,40.655V33.979H60.526v6.676A20.138,20.138,0,0,1,40.411,60.769Z" transform="translate(-18.463 0)"/>
      </g>
    </g>
  </g>
</svg>
