<svg xmlns="http://www.w3.org/2000/svg" xmlns:xlink="http://www.w3.org/1999/xlink" width="400.347" height="611.199" viewBox="0 0 400.347 611.199">
  <defs>
    <clipPath id="clip-path">
      <rect id="Rectángulo_416345" data-name="Rectángulo 416345" width="296.7" height="601"/>
    </clipPath>
  </defs>
  <g id="Grupo_1184960" data-name="Grupo 1184960" transform="translate(-1019.402 -679.801)">
    <g id="Grupo_1184956" data-name="Grupo 1184956" transform="translate(-0.598 6)">
      <g id="Grupo_1184955" data-name="Grupo 1184955" transform="translate(-32.202)">
        <g id="Grupo_1184928" data-name="Grupo 1184928" transform="translate(1052.202 684)">
          <g id="Grupo_1184902" data-name="Grupo 1184902" transform="translate(32.085)">
            <path id="Trazado_1048890" data-name="Trazado 1048890" d="M666.161,78.89v601H298.247v-601Z" transform="translate(-298.247 -78.89)" fill="#ffdfe6"/>
            <g id="Grupo_1184900" data-name="Grupo 1184900" transform="translate(0 0)">
              <path id="Trazado_1048891" data-name="Trazado 1048891" d="M521.633,348.948V480.837H355.779c-4.847-13.874-3.741-31.1.72-45.784,2.3-7.6,6.059-15.261,12.767-19.564,12.486-7.991,28.749-1.282,42.324,4.707,13.575,5.971,31.453,10.326,41.621-.474,6.34-6.761,6.9-16.894,7.833-26.114,1.071-10.555,3.126-21.2,8.149-30.557,5.023-9.343,13.347-17.316,23.621-19.968C502.666,340.536,513.045,343.258,521.633,348.948Z" transform="translate(-153.718 120.162)" fill="#ffa830" opacity="0.62"/>
              <path id="Trazado_1048892" data-name="Trazado 1048892" d="M470.985,153.967c-.193,5.708-2.283,11.187-4.689,16.368-4.478,9.694-11.117,19.617-21.443,22.321-12.03,3.144-24.428-4.988-31.594-15.173-7.148-10.168-10.836-22.374-17.123-33.1-2.652-4.549-5.989-8.992-10.748-11.257-6.849-3.249-14.963-1.247-22.11,1.264a168.717,168.717,0,0,0-30.47,14.225c-10.326,6.112-22.883,13.979-34.562,7.429V78.89H455.39a84.243,84.243,0,0,0,5.672,44.976C465.207,133.7,471.354,143.307,470.985,153.967Z" transform="translate(-298.247 -78.89)" fill="#aad0c2"/>
              <path id="Trazado_1048893" data-name="Trazado 1048893" d="M483.936,137.671V418.344a87.5,87.5,0,0,1-9.747-5.374c-19.423-11.977-38.337-25.57-52.246-43.676-13.891-18.124-22.339-41.411-18.58-63.943,1.282-7.71,4.478-15.823,11.257-19.722,5.251-3.038,11.626-3,17.527-4.338a38.02,38.02,0,0,0,28.345-30.364c2.353-14.91-4.461-29.556-7.376-44.361a87.524,87.524,0,0,1,3.776-46.925c2.775-7.464,6.9-14.91,13.751-18.949A23.162,23.162,0,0,1,483.936,137.671Z" transform="translate(-116.021 -34.478)" fill="#f2baca"/>
            </g>
            <g id="Grupo_1184901" data-name="Grupo 1184901" opacity="0.62">
              <path id="Trazado_1048894" data-name="Trazado 1048894" d="M452.51,417.587c-23.954,40.989-61.94,72.442-104.4,92.937a322.053,322.053,0,0,1-49.858,19V527.26a302.923,302.923,0,0,0,65.611-27.5c41.727-23.866,78.185-59.412,97.292-104.071,19.248-45.028,20.3-98.012-2.652-141.882-11.38-21.706-26.9-40.884-38.829-62.274C409.5,173.25,403.056,153.7,402.424,132.822c-.913,1.774-1.844,3.547-2.7,5.356-9.747,20.337-15.876,42.675-15.349,65.347.527,23.252,8.746,44.958,18.387,65.8,9.747,21.092,20.776,41.762,26.448,64.417,5.339,21.338,5.163,43.518-4.426,63.644-9.343,19.634-25.377,35.475-42.816,48.084A239.425,239.425,0,0,1,325.7,475.312q-13.487,5.058-27.449,8.763v-2.353a273.206,273.206,0,0,0,42.8-15.173c19.9-9.062,39.057-20.758,55.214-35.58,16.332-14.98,29.785-33.982,33.42-56.25,3.828-23.357-3.126-47-12.1-68.386-8.851-21.074-20.214-41.06-27.677-62.731-7.288-21.215-9.518-43.307-5.5-65.435,3.144-17.316,9.554-33.894,17.983-49.331A129.878,129.878,0,0,1,412.82,78.89h1.721a129.1,129.1,0,0,0-10.256,46.539c1.668-2.933,3.407-5.831,5.2-8.658A242.542,242.542,0,0,1,439.04,78.89h2.266c-.808.843-1.6,1.7-2.388,2.546a240.129,240.129,0,0,0-34.685,47.944,118.792,118.792,0,0,0,1.967,21.443c4.443,23.919,17.456,44.677,30.751,64.627,13.558,20.337,27.273,40.62,34.333,64.276C484.982,325.616,476.482,376.58,452.51,417.587Z" transform="translate(-298.247 -78.89)" fill="#fff"/>
            </g>
          </g>
          <g id="Grupo_1184921" data-name="Grupo 1184921" transform="translate(0 -10.199)">
            <g id="Grupo_1184903" data-name="Grupo 1184903" transform="translate(29.249 57.322)">
              <path id="Trazado_1048895" data-name="Trazado 1048895" d="M468.085,148.787a23.953,23.953,0,0,0-5.477-6.433c-3.936-3.178-8.8-4.974-13.717-3.65-7.572,2.037-11.135,10-17.362,14.08a37.9,37.9,0,0,1-28.686,5.033,90.654,90.654,0,0,1-10.89-3.48,77.309,77.309,0,0,0-6.693-4.044c-7.459-3.762-15.668-3.1-23.27-.076a36.833,36.833,0,0,0-16.819,12.87,27.279,27.279,0,0,0-4.471,21.178,22.229,22.229,0,0,0,2.277,5.886c-7.5-4.647-17.18-5.322-25.667-2.548a45.992,45.992,0,0,0-16.12,9.589c-7.02,6.257-11.679,14.514-14.753,23.313-2.644,7.569-4.281,17.07,2.156,23.256,3.752,3.605,9.249,4.5,14.076,6.447s9.707,6.227,8.888,11.366c-.775,4.866-6.059,7.435-9.133,11.287-5.156,6.46-3.427,16.439,1.768,22.87a26.9,26.9,0,0,0,46.749-9.366c5.724,5.135,14.148,6.58,21.658,4.925s14.168-6.088,19.694-11.436c5.648-5.465,10.392-12.186,12.029-19.872,1.179-5.536.7-11.274,1.057-16.921s1.772-11.6,5.875-15.5c5.716-5.434,14.534-5.2,22.33-6.4a49.1,49.1,0,0,0,26.843-13.549c7.58-7.3,11.338-17.751,12.484-28.032C474.026,169.548,473.35,157.658,468.085,148.787Zm-158.6,46.931A44.07,44.07,0,0,0,294.072,207.5a46.236,46.236,0,0,1,7.751-8.836c8.375-7.741,19.637-12.993,31.226-10.97a28.153,28.153,0,0,1,11.2,4.508,14.688,14.688,0,0,0,2.606,4A44.581,44.581,0,0,0,309.482,195.718Zm67.872-44.791c-10.849-.161-20.64,6.936-27.286,15.513-3.333,4.3-6.145,9.161-7.1,14.516a20.666,20.666,0,0,0-.288,4.482c-.024-.076-.059-.147-.082-.223-2.107-7.048-.368-14.773,3.578-20.843a34.948,34.948,0,0,1,16.353-12.913,32.261,32.261,0,0,1,11.839-2.516,23.265,23.265,0,0,1,11.338,3.045c.356.194.713.4,1.069.6A34.219,34.219,0,0,0,377.354,150.927Z" transform="translate(-284.107 -138.265)" fill="#a23d35"/>
              <path id="Trazado_1048896" data-name="Trazado 1048896" d="M441.867,148.787a23.953,23.953,0,0,0-5.477-6.433c-3.936-3.178-8.8-4.974-13.717-3.65-7.572,2.037-11.135,10-17.362,14.08a35.29,35.29,0,0,1-5.479,2.881c0,.243.006.5,0,.727-.09,5.3.016,10.6-.055,15.895a74.652,74.652,0,0,1-4.647,26.152,58.133,58.133,0,0,1-25.584,29.293c-13.224,7.647-27.911,12.58-39.67,22.653-12.131,10.392-19.322,24.872-18.317,41a55.4,55.4,0,0,0,1.623,10.134,27.4,27.4,0,0,0,11.538-15.151c5.724,5.134,14.148,6.58,21.658,4.925s14.168-6.088,19.694-11.436c5.648-5.465,10.392-12.186,12.029-19.872,1.179-5.536.7-11.274,1.057-16.921s1.772-11.6,5.875-15.5c5.716-5.434,14.534-5.2,22.33-6.4a49.1,49.1,0,0,0,26.843-13.549c7.58-7.3,11.338-17.751,12.484-28.032C447.809,169.548,447.133,157.658,441.867,148.787Z" transform="translate(-257.89 -138.265)" fill="#a23d35" opacity="0.33"/>
            </g>
            <g id="Grupo_1184904" data-name="Grupo 1184904" transform="translate(235.192 165.645)">
              <path id="Trazado_1048897" data-name="Trazado 1048897" d="M371.652,203.671c-6,15.368,26.855,134.335,64.5,154.289s76.8-96.711,76.8-96.711l-36.077-18.031s-24,68.914-29.465,68.9-20.144-73.267-31.044-92.552-34.661-37.336-44.236-17.037Z" transform="translate(-370.937 -193.563)" fill="#f5be9c"/>
              <path id="Trazado_1048898" data-name="Trazado 1048898" d="M408.839,309.781c1.377-10.218,2.775-20.556,2.884-30.875a191.465,191.465,0,0,0-2.456-32.787c-2.638-16.15-7.277-31.827-11.634-47.573-9.762-6.668-19.988-7.715-25.5,3.981l-.48,1.142c-4.332,11.086,11.561,76.073,34.886,118.923C407.476,318.382,408.256,314.124,408.839,309.781Z" transform="translate(-370.938 -193.559)" fill="#d5311d"/>
              <path id="Trazado_1048899" data-name="Trazado 1048899" d="M452.158,277.851l-2.579,1.412a1.443,1.443,0,0,1-1.966-.587L403.453,195.7a1.444,1.444,0,0,1,.58-1.943h0a1.44,1.44,0,0,1,1.943.548l46.739,81.56A1.442,1.442,0,0,1,452.158,277.851Z" transform="translate(-339.944 -193.581)" fill="#a23d35"/>
            </g>
            <g id="Grupo_1184909" data-name="Grupo 1184909" transform="translate(45.555 113.963)">
              <g id="Grupo_1184905" data-name="Grupo 1184905" transform="translate(53.487 1.815)">
                <path id="Trazado_1048900" data-name="Trazado 1048900" d="M460.221,228.138c-15.153-24.519-84.772-61-94.113-60-13.712,1.469-35.5,31.477-43.408,64.4s1.9,86.278-3.754,93.731-10.547,18.3,0,23.653c3.73,1.892,7.98,2.982,11.961,4.2,7.028,2.146,14.115,4.1,21.214,5.99,16.173,4.3,32.456,8.328,48.876,11.583q4.982.987,10,1.76c2.587.4,5.493,1.8,8.125.975,2.814-.877,3.537-3.828,3.613-6.452.127-4.3-.486-8.477.662-12.682a37.825,37.825,0,0,1,5.72-11.538,156.275,156.275,0,0,1,18.435-21.46,71.834,71.834,0,0,1,6.654-6C460.995,311.1,475.374,252.659,460.221,228.138Z" transform="translate(-312.737 -168.116)" fill="#fff"/>
                <path id="Trazado_1048901" data-name="Trazado 1048901" d="M319.892,257.231c4.351,3.564,9.975,2.142,14.514-.264,9.008-4.78,16.586-12.875,23.123-20.542,7.541-8.845,14-18.924,17.556-30.055a61.43,61.43,0,0,0,2.289-29.413,43.635,43.635,0,0,0-1.134-4.6c-6.633-2.863-11.577-4.445-13.625-4.226-13.714,1.469-35.5,31.475-43.408,64.4a121.663,121.663,0,0,0-2.824,20.738A19.169,19.169,0,0,0,319.892,257.231Z" transform="translate(-309.244 -168.116)" fill="#f5be9c"/>
              </g>
              <g id="Grupo_1184907" data-name="Grupo 1184907" transform="translate(0 6.211)">
                <path id="Trazado_1048902" data-name="Trazado 1048902" d="M586.5,624.852H482.622c-14.477-46.273-67.543-178.826-76.8-173.206-8.967,5.444-3.859,125.386-5,173.206h-94.89c-3.3-40.477-17.644-132.886-12.335-187.7,4.283-44.236,26.879-78.486,37.987-101.28v-.02c.535-1.1,1.071-2.154,1.584-3.192,6.379-12.67,11.421-20.033,12.313-20.5a6.1,6.1,0,0,1,.736-.333c9.792-4.465,17.532,2.722,26.656-6.364,3.68-3.681,8.878-18.349,14.9-35.189,9.235-25.77,20.41-56.613,31.117-60.881a14.98,14.98,0,0,1,5.376-.9c4.506-.1,10.328,1.018,16.819,2.9a243.254,243.254,0,0,1,31.429,12.063c11.22,5.052,21.748,10.437,29.042,14.393,4.684,2.546,8.052,4.523,9.413,5.444a1,1,0,0,1,.223.2c1.338,1.018,1.985,2.918,2.1,5.326v.02c.022.255.022.49.022.744a38.942,38.942,0,0,1-1.16,8.557c-.089.313-.156.627-.245.96a144.615,144.615,0,0,1-9.926,26.044,27.417,27.417,0,0,1-3.948,5.189c-9.19,10.144-29.8,27.161-32.477,37.735-2.476,9.772,23.8,27.65,43.073,68.714C530.022,442.306,574.277,592.052,586.5,624.852Z" transform="translate(-292.434 -133.827)" fill="#7486c2"/>
                <g id="Grupo_1184906" data-name="Grupo 1184906" transform="translate(13.648 187.189)">
                  <path id="Trazado_1048903" data-name="Trazado 1048903" d="M435.44,516.723H433.5c-1.018-2.8-2.056-5.6-3.094-8.4q-16.743-44.853-34.484-89.315-8.93-22.236-18.055-44.354-4.582-11.044-9.223-22.069c-2.937-7.05-6.031-14.06-8.734-21.208-.274.176-.568.333-.862.49-5.62,3.388-11.025,7.128-16.332,10.986-.607.431-1.371-.548-.8-1.018a146.411,146.411,0,0,1,16.312-11.377,105.435,105.435,0,0,1,17.683-9.086c.627-.255,1.038.764.45,1.077-5.209,2.879-10.535,5.522-15.685,8.5.744,1.527,1.488,3.055,2.174,4.6,6.4,14.51,12.572,29.138,18.682,43.767q9.223,22.118,18.114,44.334,8.959,22.324,17.6,44.785,8.606,22.324,16.9,44.785C434.578,514.393,435.009,515.568,435.44,516.723Z" transform="translate(-258.859 -212.886)"/>
                  <path id="Trazado_1048904" data-name="Trazado 1048904" d="M328.784,266.634c-.96,2.487-1.9,4.974-2.879,7.461A355.69,355.69,0,0,0,308.3,336.5a420.534,420.534,0,0,0-6.913,64.759,509,509,0,0,0,2.448,66.247A665.286,665.286,0,0,0,314.352,535.3c2.369,11.554,5.072,23.029,7.911,34.484h-1.919Q315,548.316,310.807,526.57a640.405,640.405,0,0,1-9.517-67.422,492.988,492.988,0,0,1-1.312-66.521,406.787,406.787,0,0,1,8.362-64.72c4.484-21.051,10.672-42,19.445-61.684C328.04,265.655,329.019,266.066,328.784,266.634Z" transform="translate(-299.404 -265.951)"/>
                </g>
                <path id="Trazado_1048905" data-name="Trazado 1048905" d="M362.749,225.661l43.874,18.715s-12.462,39.989-39.584,30.856S362.749,225.661,362.749,225.661Z" transform="translate(-212.663 -117.37)" fill="#363150"/>
                <path id="Trazado_1048906" data-name="Trazado 1048906" d="M353.06,254.789c-.74-1.919,7.851-25.819,4.664-49.195s-9.072-33.809-9.728-35.043,15.353,3.711,17.1,9.041,6.676,13.661,7.408,34.5-4.052,42.891-6.014,44.315S353.8,256.708,353.06,254.789Z" transform="translate(-222.49 -170.36)" fill="#363150"/>
                <path id="Trazado_1048907" data-name="Trazado 1048907" d="M388.674,263.24c-.717-1.6,6.484-21.644,3.4-41.111s-9.644-29.18-10.277-30.208,9.883,6.282,12.635,10.153c2.8,3.94,6.748,12.511,7.99,27.56,1.428,17.309-1.15,37.5-3.049,38.685S389.389,264.838,388.674,263.24Z" transform="translate(-180.334 -149.794)" fill="#363150"/>
                <path id="Trazado_1048908" data-name="Trazado 1048908" d="M348.91,214.5l-.828,3.157a3.376,3.376,0,0,0,2.246,4.075L365,226.375a3.376,3.376,0,0,0,4.24-2.209l.875-2.792a3.374,3.374,0,0,0-2.134-4.2l-14.714-5.005A3.376,3.376,0,0,0,348.91,214.5Z" transform="translate(-222.661 -130.476)" fill="#ffa830"/>
                <path id="Trazado_1048909" data-name="Trazado 1048909" d="M384.2,229.251l-.536,2.618a3.377,3.377,0,0,0,1.782,3.689l9.975,5.052a3.373,3.373,0,0,0,4.8-2.207l.564-2.293a3.372,3.372,0,0,0-1.68-3.777l-10-5.375A3.373,3.373,0,0,0,384.2,229.251Z" transform="translate(-178.466 -116.516)" fill="#ffa830"/>
              </g>
              <g id="Grupo_1184908" data-name="Grupo 1184908" transform="translate(158.757)">
                <path id="Trazado_1048910" data-name="Trazado 1048910" d="M396.555,216.317s-5.941,9.033-18.774,2.865c-11.326-5.444-18.431-18.421-15.738-27.635L378.3,167.189l35.313,23.571Z" transform="translate(-361.473 -167.189)" fill="#f5be9c"/>
                <path id="Trazado_1048911" data-name="Trazado 1048911" d="M395.621,210.116l12.92-19.355L373.23,167.19l-6.462,9.68C368.315,186.7,377.562,211.742,395.621,210.116Z" transform="translate(-356.399 -167.188)" fill="#d5311d"/>
              </g>
            </g>
            <g id="Grupo_1184916" data-name="Grupo 1184916" transform="translate(209.577)">
              <path id="Trazado_1048912" data-name="Trazado 1048912" d="M468.781,213.417c-18.427,32.953-46.155,52.379-72.472,37.663s-41.256-58-22.829-90.954,54.7-47.738,81.016-33.022S487.21,180.464,468.781,213.417Z" transform="translate(-350.721 -97.095)" fill="#f5be9c"/>
              <g id="Grupo_1184910" data-name="Grupo 1184910" transform="translate(15.026 101.061)" opacity="0.08">
                <path id="Trazado_1048913" data-name="Trazado 1048913" d="M393.048,210.409c7.167-10.858,10.543-27.56,2.581-38.992-5.82-8.358-20.528-14.021-30.1-8.816,2.182,20.111,12.527,38.734,26.932,48.637C392.654,210.961,392.862,210.691,393.048,210.409Z" transform="translate(-365.531 -160.6)" fill="#d5311d"/>
                <path id="Trazado_1048914" data-name="Trazado 1048914" d="M412.8,179.629c-8.569,4.535-15.721,13.3-17.556,23.021,12.646-3.211,24.73-12.8,35.041-26.4C424.572,175.059,418.17,176.788,412.8,179.629Z" transform="translate(-337.058 -145.968)" fill="#d5311d"/>
              </g>
              <g id="Grupo_1184912" data-name="Grupo 1184912" transform="translate(56.884 78.814)">
                <g id="Grupo_1184911" data-name="Grupo 1184911" transform="translate(0.643 15.505)">
                  <path id="Trazado_1048915" data-name="Trazado 1048915" d="M388.493,161.332c-1.772,3.194-1.659,6.644.257,7.706s4.9-.666,6.674-3.862,1.659-6.644-.257-7.706S390.265,158.138,388.493,161.332Z" transform="translate(-387.235 -157.157)"/>
                  <path id="Trazado_1048916" data-name="Trazado 1048916" d="M407.856,169.2c-1.58,2.847-1.6,5.851-.053,6.711s4.085-.75,5.665-3.6,1.6-5.851.053-6.711S409.434,166.356,407.856,169.2Z" transform="translate(-368.626 -149.285)"/>
                </g>
                <path id="Trazado_1048917" data-name="Trazado 1048917" d="M411.421,154.853c-4.067-5.46-11.886-6.521-18.1-4.952a19.411,19.411,0,0,0-2.546.83,7.2,7.2,0,0,0-3.693,2.869c-.65,1.134.629,1.594,1.559,1.369,6.333-1.537,12.928,1.9,19.114,4.733,3.182,1.459,4.357-.895,4.578-2.44A3.665,3.665,0,0,0,411.421,154.853Z" transform="translate(-386.906 -149.24)" fill="#a23d35"/>
                <path id="Trazado_1048918" data-name="Trazado 1048918" d="M413.4,158.152a8.3,8.3,0,0,1,2.565.137A10.431,10.431,0,0,1,424,168.184a3.416,3.416,0,0,1-.768,2.749c-.75.683-1.245-.736-1.518-1.216a14.644,14.644,0,0,0-1.146-1.813,15.284,15.284,0,0,0-2.362-2.424,15.782,15.782,0,0,0-5.992-3.076c-.864-.227-2.373-.4-2.563-1.49a1.731,1.731,0,0,1,.446-1.394,3.422,3.422,0,0,1,1.247-.838A7.168,7.168,0,0,1,413.4,158.152Z" transform="translate(-365.132 -140.741)" fill="#a23d35"/>
                <path id="Trazado_1048919" data-name="Trazado 1048919" d="M404.018,174.493a14.139,14.139,0,0,1-2.142-1.251c-.936-.828-.321-2.115.063-3.088a22.153,22.153,0,0,1,1.686-3.366,23.256,23.256,0,0,0,2.07-3.319c.282-.719-.666-1.345-1.269-.977a8.21,8.21,0,0,0-2.3,2.638,22.944,22.944,0,0,0-1.757,3.262c-.826,1.872-1.856,4.249-.257,6.018a6.726,6.726,0,0,0,2.068,1.381c.7.351,1.633.715,2,1.465a2.722,2.722,0,0,1-.817,2.9,9.542,9.542,0,0,1-3.047,1.8c-.674.292-.194,1.424.5,1.189,2.009-.679,4.195-1.586,5.033-3.7A3.894,3.894,0,0,0,404.018,174.493Z" transform="translate(-375.06 -136.646)" fill="#d5311d"/>
                <path id="Trazado_1048920" data-name="Trazado 1048920" d="M398.852,182.242a19.5,19.5,0,0,1-5.679-6.337,15.837,15.837,0,0,1-1.445-3.914c-.159-.7-.262-1.406-.417-2.105s-.082-1.4-.268-2.086a.6.6,0,0,0-1.149,0,7.129,7.129,0,0,0-.276,2.317,8.324,8.324,0,0,0,.27,2.383,15.989,15.989,0,0,0,1.757,4.428,13.1,13.1,0,0,0,6.9,6.057C399,183.148,399.193,182.494,398.852,182.242Z" transform="translate(-384.319 -131.862)" fill="#d5311d"/>
              </g>
              <g id="Grupo_1184914" data-name="Grupo 1184914" transform="translate(6.484)">
                <path id="Trazado_1048921" data-name="Trazado 1048921" d="M481.459,250.255c-3.486-1.39-5.229-5.307-5.894-8.988a29.691,29.691,0,0,1,4.582-21.227,68.219,68.219,0,0,0,10.32-36.6c0-1.292-.039-2.585-.137-3.877a64.782,64.782,0,0,0-2.683-15.118,59.092,59.092,0,0,0-3.819-9.537c-.078-.176-.176-.352-.255-.509,0-.039,0-.039-.02-.059a71.751,71.751,0,0,0-4.837-8.088c-10.281-15.333-24.537-28.375-42.4-34.073a79.826,79.826,0,0,0-10.359-2.7c-6.247-1.018-12.631-.764-15.411,4.034a28.439,28.439,0,0,0-8.088-.9,23.166,23.166,0,0,0-2.781.235,17.03,17.03,0,0,0-1.7.255,23.982,23.982,0,0,0-7.441,2.644,22.945,22.945,0,0,0-4.054,2.82c-1.234,1.1-2.506,2.311-3.8,3.642a3.273,3.273,0,0,0-.255.274c-.215.2-.411.411-.607.627-1.743,1.841-3.505,3.858-5.209,5.992-11.808,14.785-21.541,35.092-10.829,39.086,5.659,2.115,12.161,4.171,16.39,8.695a12.305,12.305,0,0,1,3.544,8.225,6.289,6.289,0,0,0,.235,2.272c1.488,3.505,7.089-3.642,8.264-4.837.587-.607,1.234-1.195,1.88-1.743a28.642,28.642,0,0,0,17.174-5.757c6.129-4.641,10.124-11.417,16.018-16.292a24.719,24.719,0,0,1,3.642-2.565c2.507-.685,5.542-1.429,5.659-.979a74.024,74.024,0,0,0,3.858,11.064c.313,1.273.666,2.526,1.077,3.74,3.584,10.692,10.888,20.17,20.855,25.594,3.114,1.684,6.541,3.074,9.086,5.6a10.342,10.342,0,0,1,1.586,1.978c.685,2.1.02,4.406-.744,6.5a73.851,73.851,0,0,1-4.974,10.712,90.6,90.6,0,0,0-5.4,9.948c-1.449,3.505-2.154,7.441-1.1,11.064a14.546,14.546,0,0,0,6.913,8.264A25.263,25.263,0,0,0,480.3,252.6a3,3,0,0,0,1.665-.176,1.147,1.147,0,0,0,.646-1.39C482.4,250.588,481.89,250.431,481.459,250.255Zm-57.846-87.885c-2.7,2.859-5.209,5.875-8.068,8.577A29.5,29.5,0,0,1,404.52,177.6a25.24,25.24,0,0,1-4.954,1.077,9.077,9.077,0,0,1,1.1-.411,23.428,23.428,0,0,0,8.93-4.484c.529-.313,1.077-.607,1.586-.94,5.738-3.642,9.576-9.478,14.687-13.806a26.446,26.446,0,0,1,2.879-1.469A47.663,47.663,0,0,0,423.613,162.369Zm39.635,30.92a41.362,41.362,0,0,1-6.893-5.483A45.356,45.356,0,0,1,447.836,176c4.993,7.422,11.279,13.453,18.349,19.014C465.186,194.465,464.207,193.916,463.248,193.29Z" transform="translate(-361.169 -108.992)" fill="#a23d35"/>
                <g id="Grupo_1184913" data-name="Grupo 1184913" transform="translate(21.262 3.853)">
                  <path id="Trazado_1048922" data-name="Trazado 1048922" d="M417.634,148.068c.078,1.312-1.253,2.252-2.409,2.879-1.527.822-3.055,1.665-4.582,2.487a22.3,22.3,0,0,1-5.992,2.526,7.453,7.453,0,0,1-6.208-1.175c-2.918-2.33-2.957-7.05-5.875-9.36-1.625-1.292-3.819-1.547-5.894-1.88a14.433,14.433,0,0,1-6.168-2.076,5.9,5.9,0,0,1-2.663-5.64c.372-1.88,1.939-3.466,1.86-5.366-.1-1.8-1.606-3.133-2.937-4.328a22.4,22.4,0,0,1-4.739-5.542,3.248,3.248,0,0,1,.255-.274c1.292-1.332,2.565-2.546,3.8-3.642a22.944,22.944,0,0,1,4.054-2.82,23.982,23.982,0,0,1,7.441-2.644,17.038,17.038,0,0,1,1.7-.255,55.483,55.483,0,0,0,6.952,14.726,57.163,57.163,0,0,0,9.752,10.986c3.642,3.153,7.715,5.894,10.77,9.654A3.371,3.371,0,0,1,417.634,148.068Z" transform="translate(-372.027 -110.96)" fill="#a23d35" opacity="0.47"/>
                  <path id="Trazado_1048923" data-name="Trazado 1048923" d="M445.562,157.566a12.357,12.357,0,0,1-2.487,1.723c-3.74,1.919-8.832,2.174-11.769-.862-1.273-1.312-1.958-3.055-2.918-4.621-.959-1.547-2.369-3.035-4.171-3.211-1.978-.2-3.74,1.195-5.679,1.684-3.368.862-7.01-1.234-8.792-4.23-1.8-3-2.056-6.678-1.743-10.144.235-2.722,1.606-6.09,4.328-5.953a5.569,5.569,0,0,1,2.585,1.018c5.052,3.055,10.144,6.168,15.744,8.029a34.7,34.7,0,0,0,11.945,1.449h.274A64.791,64.791,0,0,1,445.562,157.566Z" transform="translate(-337.663 -90.849)" fill="#a23d35" opacity="0.47"/>
                </g>
              </g>
              <g id="Grupo_1184915" data-name="Grupo 1184915" transform="translate(0 54.955)">
                <path id="Trazado_1048924" data-name="Trazado 1048924" d="M372.345,178.279c-12.033-.268-16.735-19.735-13.486-30.721s18.527-15.38,26.283-3.129S384.376,178.549,372.345,178.279Z" transform="translate(-357.858 -137.056)" fill="#f5be9c"/>
                <path id="Trazado_1048925" data-name="Trazado 1048925" d="M368.611,165.569a19.355,19.355,0,0,0,4.792-6.147,20.473,20.473,0,0,0,1.9-7.8,12.307,12.307,0,0,0-2.3-8.062,8.56,8.56,0,0,0-2.883-2.422c-1.046-.523-2.814-1.1-3.856-.37a1.165,1.165,0,0,0-.2,1.807c.646.664,1.751.787,2.565,1.234a7.006,7.006,0,0,1,2.162,1.87,7.352,7.352,0,0,1,.864,1.486,8.589,8.589,0,0,0-5.207.9,9.1,9.1,0,0,0-2.62,2.1A8.058,8.058,0,0,0,362.8,151.7a7.762,7.762,0,0,0-.345.758,2.052,2.052,0,0,0-.059,1.195,1.023,1.023,0,0,0,1.508.593,2.439,2.439,0,0,0,.642-.6c.137-.213.241-.446.372-.664a8.147,8.147,0,0,1,.7-.971,7.3,7.3,0,0,1,2.052-1.758,7.722,7.722,0,0,1,4.616-.928,14.25,14.25,0,0,1,.157,3.337,20.075,20.075,0,0,1-4.982,11.806A.8.8,0,0,0,368.611,165.569Z" transform="translate(-353.567 -133.832)" fill="#d5311d"/>
              </g>
            </g>
            <g id="Grupo_1184920" data-name="Grupo 1184920" transform="translate(0 115.792)">
              <g id="Grupo_1184917" data-name="Grupo 1184917">
                <path id="Trazado_1048926" data-name="Trazado 1048926" d="M408.944,168.231c-16.245-2.881-126.482,52.62-138.686,93.447s82.326,81.294,82.326,81.294l10.623-38.908s-45.174-28.187-45.791-40.318,67.91-34.091,84.688-48.554,29.832-41.3,8.052-46.714Z" transform="translate(-269.171 -168.123)" fill="#f5be9c"/>
                <path id="Trazado_1048927" data-name="Trazado 1048927" d="M347.343,197.087a62.275,62.275,0,0,0-15.423,3.685,75.2,75.2,0,0,0-14.432,6.689.589.589,0,0,0,.593,1.016,137.371,137.371,0,0,1,14.481-6.2c1.778-.623,3.58-1.153,5.385-1.657a17.2,17.2,0,0,1,3.852.7,16.362,16.362,0,0,1,2.007.768,16.589,16.589,0,0,0,2.013.94.509.509,0,0,0,.492-.844,6.12,6.12,0,0,0-2.017-1.224,17.86,17.86,0,0,0-2.176-.8c-.464-.135-.946-.208-1.422-.3,2.258-.6,4.522-1.167,6.775-1.8C348,197.917,347.919,197.042,347.343,197.087Z" transform="translate(-223.148 -140.37)" fill="#d5311d"/>
              </g>
              <g id="Grupo_1184919" data-name="Grupo 1184919" transform="translate(32.305 109.615)">
                <path id="Trazado_1048928" data-name="Trazado 1048928" d="M426.93,318.037c-2.644-18.917-23.695-43.923-44.315-62.722a215.363,215.363,0,0,0-26.162-20.738c-5.209-3.368-8.538-4.8-10.751-5.189-2.546-.431-3.623.45-4.347,1.253-1.39,1.527,1.371,6.306-1.527,6.952-2.9.627-7.069-4.523-21.58-10.614a39.026,39.026,0,0,0-5.346-1.8c-9.811-2.585-18.936-.568-23.714,6.56a14.144,14.144,0,0,0-.783,1.292,7.27,7.27,0,0,0-.372.666v.02c-.117.235-.235.45-.333.685v.02a11.886,11.886,0,0,0-.607,1.449v.039c-.176.509-.352,1.038-.49,1.586a31.158,31.158,0,0,0-.725,11.417c.059.45.1.92.176,1.39.039.372.1.744.157,1.136.215,1.449.509,2.937.881,4.5.392,1.684.881,3.427,1.469,5.268.137.47.294.92.47,1.39v.02c.157.431.294.881.47,1.332.7,2.017,1.527,4.093,2.467,6.266,1.1,2.546,2.409,5.15,3.877,7.794.587,1.057,1.214,2.115,1.86,3.192a135.66,135.66,0,0,0,11.612,16.175c.744.9,1.508,1.782,2.272,2.683.294.352.607.685.9,1.018.725.822,1.469,1.664,2.232,2.487A166.043,166.043,0,0,0,327.432,316c.783.685,1.567,1.371,2.369,2.037,1.136.979,2.311,1.939,3.486,2.859v.02a151.429,151.429,0,0,0,13.492,9.635c.627.392,1.234.783,1.86,1.155a101.8,101.8,0,0,0,28.708,12.376c1.214.274,2.409.548,3.6.764.646.117,1.273.235,1.919.333a59.464,59.464,0,0,0,11.123.744c1.136-.039,2.252-.117,3.388-.215,1.116-.117,2.232-.274,3.329-.45,1.116-.176,2.213-.411,3.29-.666.548-.137,1.1-.274,1.645-.431a45.056,45.056,0,0,0,6.364-2.311,46.732,46.732,0,0,0,6.11-3.349c.783-.529,1.527-1.077,2.213-1.645.333-.274.666-.568.979-.862s.607-.607.9-.9q.441-.47.822-.94a3.346,3.346,0,0,0,.411-.509c.1-.157.215-.313.333-.47a13.071,13.071,0,0,0,1.273-2.037,9.368,9.368,0,0,0,.548-1.194l.02-.02A21.78,21.78,0,0,0,426.93,318.037Zm-78.545-74.648a5.149,5.149,0,0,1,4.014-.94,17.313,17.313,0,0,1,7.853,3.29,20.279,20.279,0,0,1,5.444,5.444c1.077,1.664,2.644,4.778,1.9,6.834-.7,2-3.564,1.645-5.17,1.253a25.325,25.325,0,0,1-12.866-7.852,9.366,9.366,0,0,1-2.252-3.877A4.237,4.237,0,0,1,348.385,243.389Z" transform="translate(-285.666 -224.1)" fill="#f0c284"/>
                <g id="Grupo_1184918" data-name="Grupo 1184918" transform="translate(11.674 21.682)">
                  <path id="Trazado_1048929" data-name="Trazado 1048929" d="M357.812,268.547a14.663,14.663,0,0,0-1.819-1.845,20.464,20.464,0,0,0-7.067-3.936c-.971-.309-5.859-1.48-4.277,1.2a26.485,26.485,0,0,1,1.735,4.283,10.823,10.823,0,0,0,9.092,6.83,3.316,3.316,0,0,0,3.67-2.005C359.69,271.506,358.893,269.882,357.812,268.547Z" transform="translate(-241.123 -209.23)"/>
                  <path id="Trazado_1048930" data-name="Trazado 1048930" d="M351.728,279.35a23.717,23.717,0,0,0-3-4.874c-.56-.736-1.153-1.449-1.768-2.14a2.83,2.83,0,0,0-2.017-1.285,1.7,1.7,0,0,0-1.6,1.619c-.067.562.11.916-.638.621-.7-.276-1.2-1.055-1.757-1.529-.5-.425-1.341-1.054-2-.773.069-.029.4,4.14.409,4.4a21,21,0,0,0,.725,5.056,9.447,9.447,0,0,0,4.572,5.967,5.963,5.963,0,0,0,6.278-.582C352.664,284.357,352.553,281.265,351.728,279.35Z" transform="translate(-246.285 -200.918)" fill="#ffa830"/>
                  <path id="Trazado_1048931" data-name="Trazado 1048931" d="M332.971,270.81c-.345.1-.807.433-1.126.266-.345-.178-.394-1.034-.505-1.369a3.058,3.058,0,0,0-1.948-2.107,7.092,7.092,0,0,1-.161,2.342,19.558,19.558,0,0,1-2.557,5.2,24.2,24.2,0,0,0-2.3,4.463c-.1.292-.2.593-.3.889-.006.053-.027.1-.031.153-.266,3.623,3.658,6.184,6.873,7.3a3.233,3.233,0,0,0,4.42-1.937,23.763,23.763,0,0,0,1.349-6.4C336.872,277.37,337.512,269.49,332.971,270.81Z" transform="translate(-260.588 -204.098)" fill="#d5741d"/>
                  <path id="Trazado_1048932" data-name="Trazado 1048932" d="M325.8,264.352c-.685-.241-.817-.386-.836-1.138a8.184,8.184,0,0,0-.345-3.176,9.193,9.193,0,0,1-1.594,1.755,13.522,13.522,0,0,1-4.51,2.516c-2.9.948-5.409,1.784-6.84,4.7-1.165,2.373-1.187,5.385.822,7.316,2.718,2.614,6.8,2.254,9.672.1a12.71,12.71,0,0,0,3.717-4.672,25.321,25.321,0,0,0,1.079-2.6,6.707,6.707,0,0,0,.587-2.7A2.37,2.37,0,0,0,325.8,264.352Z" transform="translate(-273.183 -211.344)" fill="#fff"/>
                  <path id="Trazado_1048933" data-name="Trazado 1048933" d="M317.047,252.487c-2.134-.253-4.271-.484-6.409-.721.331-.325.662-.648.995-.973.172-.168.268-.333.184-.54-.106-.26-2.734-.11-3.026-.114-2.487-.031-5.273-.237-7.641.646-2.3.86-4.336,3.26-3.425,5.761a5.59,5.59,0,0,0,2.418,2.6,28.982,28.982,0,0,0,4.065,2.238c2.589,1.138,5.589,1.692,8.285.539a10.757,10.757,0,0,0,3.629-3.02,16.94,16.94,0,0,1,4.067-3.335,1.667,1.667,0,0,0,.474-.354c.509-.633-.55-1.668-1.052-1.986A6.164,6.164,0,0,0,317.047,252.487Z" transform="translate(-286.001 -220.871)" fill="#d5311d"/>
                  <path id="Trazado_1048934" data-name="Trazado 1048934" d="M314.542,246.309c-.053-.051-.1-.094-.141-.127a15.367,15.367,0,0,0-3.17-1.827l1.253-.476a.725.725,0,0,0,.533-.613,17.144,17.144,0,0,0-2.217-.96,14.859,14.859,0,0,1-2.552-1.625c-.748-.591-1.439-1.255-2.2-1.829-2.951-2.207-7.567-4.388-11.313-3.46-3.374.834-3.748,4.3-2.313,7a12.46,12.46,0,0,0,7.069,5.642,17.644,17.644,0,0,0,5.953.883,28.009,28.009,0,0,0,3.206-.2c1.13-.26,2.25-.54,3.351-.793.787-.18,1.625-.225,2.4-.421C315.251,247.3,315.028,246.784,314.542,246.309Z" transform="translate(-291.629 -235.172)" fill="#a46dd4"/>
                </g>
                <path id="Trazado_1048935" data-name="Trazado 1048935" d="M346.511,245.217a8.815,8.815,0,0,1-4.856,2.957c-2.585.568-5.268-.059-7.872-.587a.982.982,0,0,1-.235-.039c-.862-.176-1.723-.333-2.585-.49a25.085,25.085,0,0,1-12-7.6,13.515,13.515,0,0,1-1.351-1.8c1.273-.7,3.388-.646,4.524-.744a28.024,28.024,0,0,1,7.01-.176,29.323,29.323,0,0,1,5.15,1.351c1.077.352,2.134.685,3.231.96,2.624.646,5.366.8,7.872,1.762a3.115,3.115,0,0,1,1.9,1.449A2.951,2.951,0,0,1,346.511,245.217Z" transform="translate(-255.062 -212.142)" fill="#f5be9c"/>
                <path id="Trazado_1048936" data-name="Trazado 1048936" d="M425.69,326.088a19.6,19.6,0,0,1-7.578,8.675c-42.67,27.787-108.8-28.3-126.149-68.284-8.048-18.564-7.7-31.214-2.781-38.479-3.231,7.559-2.624,19.249,4.426,35.483,17.35,39.987,83.479,96.071,126.149,68.284A21.174,21.174,0,0,0,425.69,326.088Z" transform="translate(-285.668 -220.362)" fill="#e2bc3e"/>
              </g>
            </g>
          </g>
          <g id="Grupo_1184927" data-name="Grupo 1184927" transform="translate(103.3 0)">
            <g id="Grupo_1184926" data-name="Grupo 1184926" clip-path="url(#clip-path)">
              <g id="Grupo_1184922" data-name="Grupo 1184922" transform="translate(145.645 388.57)">
                <path id="Trazado_1048937" data-name="Trazado 1048937" d="M378.778,329.36v-9.835L516.971,299.01l15.827,7.156-2.433,12.005-125.152,24.62Z" transform="translate(-378.778 -299.01)" fill="#d5741d"/>
                <path id="Trazado_1048938" data-name="Trazado 1048938" d="M378.778,319.526,516.971,299.01l15.827,7.156L405.335,331.225Z" transform="translate(-378.778 -299.01)" fill="#d5741d" opacity="0.3"/>
                <path id="Trazado_1048939" data-name="Trazado 1048939" d="M392.319,328.144l127.462-25.059-2.433,12.005L392.2,339.71Z" transform="translate(-365.762 -295.929)" fill="#d5741d"/>
              </g>
              <g id="Grupo_1184923" data-name="Grupo 1184923" transform="translate(158.094 191.004)">
                <path id="Trazado_1048940" data-name="Trazado 1048940" d="M574.884,192.646c-1.533-2.056-3.117-4.085-4.659-6.134l-108.117,4.9L385.1,406.393l12.962,6.335.437.211,109.122-17.125,70.539-198.689.043-.142.01-.035C577.088,195.521,575.964,194.1,574.884,192.646Z" transform="translate(-385.097 -186.512)" fill="#fff"/>
                <path id="Trazado_1048941" data-name="Trazado 1048941" d="M571.819,192.475,501.234,391.306,392.112,408.431l-.437-.213L467.281,197.21Z" transform="translate(-378.716 -182.003)" fill="#c0ae8e" opacity="0.34"/>
                <path id="Trazado_1048942" data-name="Trazado 1048942" d="M536.965,192.646c-1.533-2.056-3.117-4.085-4.659-6.134l-108.117,4.9,11.556,10.307,104.492-4.592.043-.142.01-.035C539.169,195.521,538.045,194.1,536.965,192.646Z" transform="translate(-347.178 -186.512)" fill="#e2e2da" opacity="0.25"/>
              </g>
              <g id="Grupo_1184924" data-name="Grupo 1184924" transform="translate(121.659 122.293)">
                <path id="Trazado_1048943" data-name="Trazado 1048943" d="M566.15,147.387,385.482,657.972l-12.31-2.478-6.57-1.31L543.359,148.351l6.462-.274Z" transform="translate(-366.602 -147.387)" fill="#d5741d"/>
                <path id="Trazado_1048944" data-name="Trazado 1048944" d="M562.915,147.387,382.247,657.972l-12.31-2.478L546.586,148.077Z" transform="translate(-363.367 -147.387)" fill="#d5741d"/>
              </g>
              <g id="Grupo_1184925" data-name="Grupo 1184925" transform="translate(222.654 119.07)">
                <path id="Trazado_1048945" data-name="Trazado 1048945" d="M545.816,145.552l-108.728,511.1-12.533-2.478-6.686-1.312L523.376,146.52l6.363-.274Z" transform="translate(-417.869 -145.552)" fill="#d5741d"/>
                <path id="Trazado_1048946" data-name="Trazado 1048946" d="M542.524,145.552,433.8,656.657l-12.533-2.478L526.447,146.246Z" transform="translate(-414.577 -145.552)" fill="#d5741d"/>
              </g>
            </g>
          </g>
        </g>
        <g id="Grupo_1184849" data-name="Grupo 1184849" transform="translate(1096.1 733.936)">
          <path id="Trazado_1048768" data-name="Trazado 1048768" d="M57.874,108.634c-.457-.26-.951-.535-1.51-.84a1.631,1.631,0,0,1-.861.256,2.248,2.248,0,0,1-.72.4,1.555,1.555,0,0,1-.533.091,3.336,3.336,0,0,1-1.32-.367c-.195-.088-.393-.171-.591-.253l-.2-.086c-.428-.181-.851-.37-1.275-.56l-.339-.152c-1.282-.571-2.417-1.11-3.471-1.645-1.344-.683-2.364-1.215-3.308-1.724l-.32-.171c-.447-.24-.91-.487-1.349-.755-.473-.288-.868-.531-1.266-.8a6.173,6.173,0,0,1-1.722-1.795,3.793,3.793,0,0,1-.528-1.285,2.791,2.791,0,0,1,.041-1.219A2.732,2.732,0,0,1,40.29,95.9a4.389,4.389,0,0,1,1.646-.294,8.383,8.383,0,0,1,1.763.215,14.2,14.2,0,0,1,3.774,1.4,29.165,29.165,0,0,1,3.386,2.134,25.234,25.234,0,0,1,2.931,2.563c.337.338.661.671.965.992q1.188.69,2.374,1.383t2.375,1.383a1.687,1.687,0,0,1-.836,3.164A1.592,1.592,0,0,1,57.874,108.634Z" transform="translate(-35.007 3.971)" fill="#a46dd4" fill-rule="evenodd"/>
          <path id="Trazado_1048769" data-name="Trazado 1048769" d="M68.937,104.377a1.753,1.753,0,0,1-.945-.445,3.728,3.728,0,0,1-.562-.757l-.088-.143c-.158-.251-.321-.5-.486-.749-.39-.578-.742-1.093-1.078-1.574-.814-1.123-1.6-2.109-2.406-3.017a55.2,55.2,0,0,0-4.245-3.931c-1.126-.93-2.015-1.625-2.88-2.253-.609-.442-1.249-.86-1.869-1.265-.42-.274-.855-.558-1.276-.847-1.152-.788-2.177-1.546-3.138-2.316-1.07-.859-2.068-1.819-2.919-2.652a26.668,26.668,0,0,1-2.662-2.977,11.2,11.2,0,0,1-1.078-1.8,12.915,12.915,0,0,1-.92-2.284,5.605,5.605,0,0,1,.7-4.647,4.459,4.459,0,0,1,3.877-1.6c.195,0,.4.007.6.019a5.742,5.742,0,0,1,2.118.543,11.217,11.217,0,0,1,1.867,1.17c.445.326.921.688,1.5,1.138a47.674,47.674,0,0,1,5.587,5.2,37.98,37.98,0,0,1,2.512,2.961c.683.907,1.389,1.9,2.225,3.139a53.138,53.138,0,0,1,3.6,6.133c.416.838.821,1.7,1.214,2.531.538,1.141,1.1,2.322,1.684,3.463.2.369.4.734.593,1.082.136.238.275.486.4.734a2.33,2.33,0,0,1,.15,1.93,1.929,1.929,0,0,1-.475.695c.037.069.073.142.107.214a1.654,1.654,0,0,1-.179,1.643,1.678,1.678,0,0,1-1.3.682A1.376,1.376,0,0,1,68.937,104.377Z" transform="translate(-35.007 3.971)" fill="#a46dd4" fill-rule="evenodd"/>
          <path id="Trazado_1048770" data-name="Trazado 1048770" d="M40.462,34.432c-.533-.318-1.1-.593-1.65-.859q-.329-.159-.656-.322l-.186-.092c-.283-.141-.575-.287-.856-.444-.169-.094-.335-.2-.495-.3a8.307,8.307,0,0,1-.945-.734l-.051-.044a1.985,1.985,0,0,1-.368-2.406A2.029,2.029,0,0,1,37.013,28.2a1.922,1.922,0,0,1,.72.139,6.632,6.632,0,0,1,1.459.75c.28.2.556.42.822.642.614.512,1.22,1.056,1.755,1.535.156.128.314.257.474.379a1.682,1.682,0,0,1,.469,2.136,1.7,1.7,0,0,1-1.477.859A1.5,1.5,0,0,1,40.462,34.432Z" transform="translate(-35.007 3.971)" fill="#a46dd4" fill-rule="evenodd"/>
          <path id="Trazado_1048771" data-name="Trazado 1048771" d="M409.956,70.109a1.653,1.653,0,0,1-1.077-.6,1.674,1.674,0,0,1-.356-1.154v0h0v-.076a3.707,3.707,0,0,1,.077-.606,6.624,6.624,0,0,1,.36-1.085,10.982,10.982,0,0,1,.663-1.28l.107-.186a14.707,14.707,0,0,1,1.1-1.6,23.024,23.024,0,0,1,2.706-2.973c.076-.07.151-.141.227-.214.149-.141.3-.287.462-.417l.558-.451.359-.291A19.443,19.443,0,0,1,416.824,58a18.059,18.059,0,0,1,3.531-1.868,20.35,20.35,0,0,1,5.777-1.1c.029,0,.058,0,.087,0a1.644,1.644,0,0,1,1.12,2.777,1.717,1.717,0,0,1-1.169.509l-.046,0a18.112,18.112,0,0,0-1.806.259c-.525.127-1.032.275-1.55.452-.4.17-.781.348-1.172.543-1.042.629-2.034,1.3-3.131,2.057l-.192.138c-.537.382-1.09.778-1.6,1.205l-.488.406-.489.408c-.217.18-.426.378-.63.569l-.155.146h0l-.44.449-.439.45c-.192.195-.372.411-.546.62l-.125.15c-.411.535-.744.99-1.047,1.431-.151.246-.279.475-.392.7-.046.109-.091.218-.133.328a.341.341,0,0,0-.009.041,1.672,1.672,0,0,1-1.627,1.447A1.282,1.282,0,0,1,409.956,70.109Z" transform="translate(-98.037 -55.029)" fill="#a46dd4" fill-rule="evenodd"/>
          <path id="Trazado_1048772" data-name="Trazado 1048772" d="M419.439,72.765a1.726,1.726,0,0,1-1.688-1.465,2.7,2.7,0,0,1,.772-2.121,10.662,10.662,0,0,1,1.221-1.215,17.753,17.753,0,0,1,3.321-2.268,32.709,32.709,0,0,1,3.57-1.483c1.27-.445,2.527-.85,3.739-1.205a1.611,1.611,0,0,1,.458-.066,1.688,1.688,0,0,1,.477,3.31c-.714.217-1.456.46-2.267.744-.66.248-1.273.491-1.872.744-.578.244-1.151.526-1.7.8-.422.226-.786.423-1.151.636-.438.257-.856.525-1.318.823-.532.378-1.1.789-1.623,1.246q-.189.18-.366.369a1.22,1.22,0,0,1-.138.3,1.666,1.666,0,0,1-1.422.849h-.009Z" transform="translate(-98.037 -55.029)" fill="#a46dd4" fill-rule="evenodd"/>
          <path id="Trazado_1048773" data-name="Trazado 1048773" d="M441.278,128.158a2,2,0,0,0,.566-1.065,3.23,3.23,0,0,0-.012-1.129,9.838,9.838,0,0,0-.356-1.4,18.32,18.32,0,0,0-.678-1.791,27.542,27.542,0,0,0-2.03-3.672,27.2,27.2,0,0,0-2.566-3.3,31.221,31.221,0,0,0-2.729-2.716c-1.056-.928-2.056-1.753-3.059-2.521-.6-.46-1.216-.889-1.738-1.249a7.745,7.745,0,0,0-3.257-1.4,3.8,3.8,0,0,0-.535-.037,5.178,5.178,0,0,0-.614.039,3.22,3.22,0,0,0-1.229.406,3.275,3.275,0,0,0-1,.815,3.568,3.568,0,0,0-.647,1.359,5.728,5.728,0,0,0,1.031,4.148,15.378,15.378,0,0,0,2.525,3.1,42.194,42.194,0,0,0,4.433,3.59c.229.169.458.338.685.507.823.612,1.685,1.27,2.561,1.954.7.548,1.446,1.059,2.167,1.554l.448.308c.291.21.551.407.8.6a1.839,1.839,0,0,0,2.043.159c.023.018.048.034.073.05.025.071.051.142.075.215.025.092.047.186.071.28a4.4,4.4,0,0,0,.169.579,1.739,1.739,0,0,0,1.129,1.025,1.7,1.7,0,0,0,.481.067,1.66,1.66,0,0,0,1.195-.478Zm-15.652-16.313c.313.175.607.368.908.568l.067.05.067.05a2.549,2.549,0,0,0-.777.121q-.165-.237-.329-.483c-.085-.146-.166-.293-.241-.444C425.423,111.752,425.525,111.8,425.626,111.845Z" transform="translate(-182.94 137.971)" fill="#a46dd4" fill-rule="evenodd"/>
          <path id="Trazado_1048774" data-name="Trazado 1048774" d="M444.242,146.8a1.719,1.719,0,0,0,1.162-.981,2.209,2.209,0,0,0,.16-1.082,3.664,3.664,0,0,0-.271-.951,6.825,6.825,0,0,0-.587-1.128,15.306,15.306,0,0,0-1.2-1.618c-.458-.536-.948-1.047-1.372-1.484-.163-.167-.342-.326-.516-.479-.086-.077-.174-.154-.258-.231l-.155-.142c-.151-.14-.309-.285-.47-.417l-.273-.223c-.422-.346-.859-.7-1.3-1.034-.551-.408-1.143-.844-1.755-1.265-1.043-.719-2.162-1.431-3.421-2.177-.977-.58-2.048-1.155-3.369-1.809-1.292-.639-2.5-1.2-3.685-1.708a11.912,11.912,0,0,0-4.561-1.144,6.467,6.467,0,0,0-1.369.143,3.836,3.836,0,0,0-1.99.969,2.637,2.637,0,0,0-.646,2.459,3.7,3.7,0,0,0,.541,1.172,5.694,5.694,0,0,0,.8.886,10.826,10.826,0,0,0,1.488,1.1,26.517,26.517,0,0,0,3.571,1.814c1.1.491,2.249.939,3.356,1.372l.155.06.466.182a63.932,63.932,0,0,1,6.313,2.727l.283.148c1.085.582,2.087,1.159,3.063,1.762.449.278.891.585,1.319.882l.144.1a4.371,4.371,0,0,0,2.33,1.026,2.333,2.333,0,0,0,.106.227,1.63,1.63,0,0,0,.613.641,1.921,1.921,0,0,0,.927.256,1.547,1.547,0,0,0,.41-.052Zm-20.593-14.14a.639.639,0,0,0-.044.1l-.415-.222C423.35,132.569,423.5,132.611,423.649,132.656Z" transform="translate(-183.486 137.971)" fill="#a46dd4" fill-rule="evenodd"/>
          <path id="Trazado_1048775" data-name="Trazado 1048775" d="M461.666,114.516a1.67,1.67,0,0,1-.358-1.243,1.745,1.745,0,0,1,.605-1.1,17.524,17.524,0,0,1,2.319-1.691c.844-.537,1.753-1.1,2.692-1.578a31.5,31.5,0,0,1,5.847-2.195,1.682,1.682,0,0,1,.461-.064,1.711,1.711,0,0,1,.487,3.355c-.313.1-.643.2-1.008.325a31.982,31.982,0,0,0-2.995,1.322q-.916.455-1.836.9c-.418.205-.835.408-1.252.614a26.1,26.1,0,0,0-2.413,1.43l-.213.163a1.705,1.705,0,0,1-1.048.362A1.651,1.651,0,0,1,461.666,114.516Z" transform="translate(-133.635 13.971)" fill="#a46dd4" fill-rule="evenodd"/>
          <path id="Trazado_1048776" data-name="Trazado 1048776" d="M80.766,497.842a1.722,1.722,0,0,1-1.145-.683,1.5,1.5,0,0,1-.3-1.151,27.115,27.115,0,0,1,1.085-4.141c.076-.224.162-.446.246-.667l.062-.16a8.253,8.253,0,0,1,.437-.978l.089-.168c.142-.267.288-.542.454-.8.05-.079.1-.16.149-.241.106-.175.216-.354.339-.519a21.064,21.064,0,0,1,1.338-1.666c.443-.481.9-.954,1.389-1.448a23.8,23.8,0,0,1,3.237-2.631c.511-.36,1.057-.691,1.583-1.012l.384-.234c.368-.226.751-.438,1.121-.644.269-.15.538-.3.8-.454a1.658,1.658,0,0,1,.618-.225,1.749,1.749,0,0,1,.229-.016,1.632,1.632,0,0,1,.852,3.028c-.359.217-.715.46-1.059.694-.958.7-1.892,1.452-2.867,2.311-.641.612-1.162,1.135-1.64,1.644-.54.578-1.053,1.176-1.533,1.739-.948,1.171-1.766,2.274-2.5,3.373-.339.553-.608,1.032-.846,1.507-.18.423-.328.812-.455,1.188-.118.428-.206.784-.275,1.122a1.66,1.66,0,0,1-1.612,1.243A1.384,1.384,0,0,1,80.766,497.842Z" transform="translate(-35.007 3.971)" fill="#a46dd4" fill-rule="evenodd"/>
          <path id="Trazado_1048777" data-name="Trazado 1048777" d="M69.322,460.872a1.809,1.809,0,0,1-.381-1.327,1.759,1.759,0,0,1,.648-1.2c.854-.68,1.776-1.344,2.821-2.031.714-.471,1.476-.882,2.213-1.278l.555-.3a1.829,1.829,0,0,1,.876-.24,1.6,1.6,0,0,1,.388.049,1.637,1.637,0,0,1,1.18,2.019,1.555,1.555,0,0,1-.726.98c-.776.447-1.47.881-2.123,1.326-.964.7-1.921,1.442-2.925,2.268a1.76,1.76,0,0,1-1.117.393A1.807,1.807,0,0,1,69.322,460.872Z" transform="translate(-35.007 3.971)" fill="#a46dd4" fill-rule="evenodd"/>
          <path id="Trazado_1048778" data-name="Trazado 1048778" d="M96.086,489.43a1.766,1.766,0,0,1-.373-2.436c.847-1.2,1.636-2.228,2.412-3.143a11.661,11.661,0,0,1,1.349-1.281l.058-.049a6.439,6.439,0,0,1,1.726-1.052,1.723,1.723,0,0,1,.659-.132,1.627,1.627,0,0,1,1.4.776,1.681,1.681,0,0,1,.176,1.3,1.509,1.509,0,0,1-.719.953l-.1.061c-.179.135-.352.281-.513.418a33.8,33.8,0,0,0-2.386,2.576c-.428.527-.849,1.076-1.253,1.632a1.741,1.741,0,0,1-1.411.7A1.7,1.7,0,0,1,96.086,489.43Z" transform="translate(-28.856 3.971)" fill="#a46dd4" fill-rule="evenodd"/>
          <path id="Trazado_1048779" data-name="Trazado 1048779" d="M356.971,495.283a1.728,1.728,0,0,1-.9-.852,18.709,18.709,0,0,0-.982-1.63c-.477-.653-1-1.283-1.51-1.893l-.113-.135-.324-.391c-.464-.558-.943-1.136-1.433-1.69l-.081-.085c-.206-.214-.42-.435-.642-.642-.259-.243-.538-.488-.873-.775-.33-.257-.685-.529-1.046-.787l-.078-.055a7.176,7.176,0,0,1-1.058-.857,1.733,1.733,0,0,1-.444-.9,1.648,1.648,0,0,1,1.651-1.883,1.583,1.583,0,0,1,.925.291c.189.107.39.2.584.3s.39.188.578.294a17.889,17.889,0,0,1,1.583,1.016,14.644,14.644,0,0,1,2.592,2.379,17.113,17.113,0,0,1,1.157,1.476c.36.519.677,1.058.912,1.47.541.944,1.076,1.968,1.634,3.131a1.565,1.565,0,0,1,.042,1.23,1.69,1.69,0,0,1-.89.965,1.66,1.66,0,0,1-.674.142A1.628,1.628,0,0,1,356.971,495.283Z" transform="translate(-2.805 3.971)" fill="#a46dd4" fill-rule="evenodd"/>
          <path id="Trazado_1048780" data-name="Trazado 1048780" d="M345.874,500.092a1.671,1.671,0,0,1-.151-.484c-.248-1.642-.507-3.252-.77-4.786-.111-.649-.238-1.352-.4-2.213-.06-.322-.125-.643-.191-.963l-.025-.127-.014-.067a2.046,2.046,0,0,1,.087-1.562,1.659,1.659,0,0,1,.966-.771,1.534,1.534,0,0,1,.424-.06,1.856,1.856,0,0,1,.8.2,2.541,2.541,0,0,1,1.061,1.7l.044.142c.056.179.108.38.164.632.014.067.027.132.038.2s.029.119.042.181h0v0l.018.077a.209.209,0,0,1,0,.021s0,.019,0,.019h0c.231,1.049.4,2.131.564,3.177l.059.367c.176,1.115.342,2.231.508,3.347a1.673,1.673,0,0,1-.151.975h-3.081Z" transform="translate(-2.805 3.971)" fill="#a46dd4" fill-rule="evenodd"/>
          <path id="Trazado_1048781" data-name="Trazado 1048781" d="M179.978,500.092a35.374,35.374,0,0,1-.5-4.088c-.034-.476-.073-1.1-.06-1.709,0-.1,0-.2.006-.307,0-.256.006-.52.027-.778.009-.106.016-.213.022-.32.013-.214.026-.434.059-.647l.08-.5.079-.5c.048-.3.121-.6.191-.89.027-.114.055-.229.081-.344.134-.573.309-1.147.479-1.7l.04-.13a18.287,18.287,0,0,1,.684-1.893,12.383,12.383,0,0,1,.883-1.779l.118-.191a3.085,3.085,0,0,1,1.352-1.4,1.943,1.943,0,0,1,.692-.132,1.613,1.613,0,0,1,1.133.449,1.667,1.667,0,0,1,.308,2.013c-.068.116-.131.234-.194.353a25.162,25.162,0,0,0-.919,2.372c-.173.58-.345,1.2-.527,1.889-.149.57-.261,1.163-.371,1.735l-.069.359-.024.126c-.107.571-.218,1.161-.306,1.745-.113.744-.2,1.45-.251,2.157-.021.755-.009,1.45.036,2.126.06.574.131,1.083.214,1.56a1.5,1.5,0,0,1,.011.428h-3.273Z" transform="translate(-20.375 3.971)" fill="#a46dd4" fill-rule="evenodd"/>
          <path id="Trazado_1048782" data-name="Trazado 1048782" d="M192.986,491.323a1.731,1.731,0,0,1-1.15-.664,1.639,1.639,0,0,1-.341-1.233c.177-1.29.4-2.56.65-3.777l.034-.16c.112-.533.227-1.084.393-1.609.2-.633.419-1.255.673-1.9a1.679,1.679,0,0,1,1.558-1.047,1.609,1.609,0,0,1,.6.114,1.675,1.675,0,0,1,.908.872,1.72,1.72,0,0,1,.025,1.284l-.028.082a42.342,42.342,0,0,0-1.158,4.909c-.1.594-.192,1.131-.264,1.64a1.734,1.734,0,0,1-1.694,1.5A1.771,1.771,0,0,1,192.986,491.323Z" transform="translate(-19.226 3.971)" fill="#a46dd4" fill-rule="evenodd"/>
          <path id="Trazado_1048783" data-name="Trazado 1048783" d="M475.484,431.8a1.686,1.686,0,0,1-1.031-1.3,2.027,2.027,0,0,1,.592-1.673,5.265,5.265,0,0,1,1.291-.909,19.109,19.109,0,0,1,1.863-.888c.5-.209,1.048-.414,1.735-.642a17.529,17.529,0,0,1,1.817-.533c.642-.139,1.326-.282,2.019-.364.615-.073,1.268-.133,2.058-.193,1.039-.076,2.142-.115,3.278-.115h.358a1.732,1.732,0,0,1,1.251,2.957,1.711,1.711,0,0,1-1.212.521c-.665,0-1.35.028-2.092.079-.82.081-1.644.2-2.519.357a53.3,53.3,0,0,0-5.924,1.654c-.525.2-1.119.434-1.685.715-.058.033-.113.068-.169.1s-.1.072-.153.106a1.544,1.544,0,0,1-.856.245A1.709,1.709,0,0,1,475.484,431.8Z" transform="translate(-249.701 -130.029)" fill="#a46dd4" fill-rule="evenodd"/>
        </g>
      </g>
    </g>
  </g>
</svg>
