<svg xmlns="http://www.w3.org/2000/svg" xmlns:xlink="http://www.w3.org/1999/xlink" width="108" height="108" viewBox="0 0 108 108">
  <defs>
    <filter id="Trazado_978624" x="0" y="0" width="108" height="108" filterUnits="userSpaceOnUse">
      <feOffset dy="3" input="SourceAlpha"/>
      <feGaussianBlur stdDeviation="3" result="blur"/>
      <feFlood flood-opacity="0.161"/>
      <feComposite operator="in" in2="blur"/>
      <feComposite in="SourceGraphic"/>
    </filter>
  </defs>
  <g id="Grupo_1185121" data-name="Grupo 1185121" transform="translate(-192.402 -5547.092)">
    <g id="Grupo_1183640" data-name="Grupo 1183640" transform="translate(-0.347 4121.092)">
      <g id="Grupo_1181943" data-name="Grupo 1181943" transform="translate(-434.251 -1174)">
        <g id="Grupo_1168543" data-name="Grupo 1168543" transform="translate(431 -4452)">
          <g id="Grupo_1164524" data-name="Grupo 1164524" transform="translate(205 7058)">
            <g id="Grupo_1144123" data-name="Grupo 1144123">
              <g transform="matrix(1, 0, 0, 1, -9, -6)" filter="url(#Trazado_978624)">
                <g id="Trazado_978624-2" data-name="Trazado 978624" transform="translate(9 6)" fill="#fdfbec">
                  <path d="M 45 88.5 C 39.12687683105469 88.5 33.43022537231445 87.35007476806641 28.06830024719238 85.08217620849609 C 22.88852500915527 82.89131164550781 18.23629951477051 79.75458526611328 14.2408504486084 75.75914764404297 C 10.24541282653809 71.76370239257812 7.108687400817871 67.11147308349609 4.917825222015381 61.93170166015625 C 2.649924993515015 56.56977462768555 1.5 50.87312316894531 1.5 45 C 1.5 39.12687683105469 2.649924993515015 33.43022537231445 4.917825222015381 28.06830024719238 C 7.108687400817871 22.88852500915527 10.24541282653809 18.23629951477051 14.2408504486084 14.2408504486084 C 18.23629951477051 10.24541282653809 22.88852500915527 7.108687400817871 28.06830024719238 4.917825222015381 C 33.43022537231445 2.649924993515015 39.12687683105469 1.5 45 1.5 C 50.87312316894531 1.5 56.56977462768555 2.649924993515015 61.93170166015625 4.917825222015381 C 67.11147308349609 7.108687400817871 71.76370239257812 10.24541282653809 75.75914764404297 14.2408504486084 C 79.75458526611328 18.23629951477051 82.89131164550781 22.88852500915527 85.08217620849609 28.06830024719238 C 87.35007476806641 33.43022537231445 88.5 39.12687683105469 88.5 45 C 88.5 50.87312316894531 87.35007476806641 56.56977462768555 85.08217620849609 61.93170166015625 C 82.89131164550781 67.11147308349609 79.75458526611328 71.76370239257812 75.75914764404297 75.75914764404297 C 71.76370239257812 79.75458526611328 67.11147308349609 82.89131164550781 61.93170166015625 85.08217620849609 C 56.56977462768555 87.35007476806641 50.87312316894531 88.5 45 88.5 Z" stroke="none"/>
                  <path d="M 45 3 C 39.32871246337891 3 33.82865524291992 4.110054016113281 28.65262985229492 6.299339294433594 C 23.65165710449219 8.414573669433594 19.15968322753906 11.44334411621094 15.301513671875 15.301513671875 C 11.44334411621094 19.15968322753906 8.414573669433594 23.65165710449219 6.299339294433594 28.65262985229492 C 4.110054016113281 33.82865524291992 3 39.32871246337891 3 45 C 3 50.67128753662109 4.110054016113281 56.17134475708008 6.299339294433594 61.34737396240234 C 8.414573669433594 66.34834289550781 11.44334411621094 70.84031677246094 15.301513671875 74.698486328125 C 19.15968322753906 78.55665588378906 23.65165710449219 81.58542633056641 28.65262985229492 83.70066070556641 C 33.82865524291992 85.88994598388672 39.32871246337891 87 45 87 C 50.67128753662109 87 56.17134475708008 85.88994598388672 61.34737396240234 83.70066070556641 C 66.34834289550781 81.58542633056641 70.84031677246094 78.55665588378906 74.698486328125 74.698486328125 C 78.55665588378906 70.84031677246094 81.58542633056641 66.34834289550781 83.70066070556641 61.34737396240234 C 85.88994598388672 56.17134475708008 87 50.67128753662109 87 45 C 87 39.32871246337891 85.88994598388672 33.82865524291992 83.70066070556641 28.65262985229492 C 81.58542633056641 23.65165710449219 78.55665588378906 19.15968322753906 74.698486328125 15.301513671875 C 70.84031677246094 11.44334411621094 66.34834289550781 8.414573669433594 61.34737396240234 6.299339294433594 C 56.17134475708008 4.110054016113281 50.67128753662109 3 45 3 M 45 0 C 69.85281372070312 0 90 20.14718627929688 90 45 C 90 69.85281372070312 69.85281372070312 90 45 90 C 20.14718627929688 90 0 69.85281372070312 0 45 C 0 20.14718627929688 20.14718627929688 0 45 0 Z" stroke="none" fill="#84792b"/>
                </g>
              </g>
            </g>
          </g>
        </g>
      </g>
    </g>
    <g id="arcilla-de-moldear" transform="translate(212.96 5537.05)">
      <g id="Grupo_1185119" data-name="Grupo 1185119" transform="translate(0.893 38.221)">
        <path id="Trazado_1049667" data-name="Trazado 1049667" d="M372.824,94.032l-4.039,3.135,2.91,3.136-1.49,8.274c-8.982-5.541-11.991-16.946-7.911-24.271h12.281Z" transform="translate(-318.475 -79.605)" fill="#fbf198"/>
        <path id="Trazado_1049668" data-name="Trazado 1049668" d="M245.213,108.578l-.262,1.451h-21.7l-4.632-25.722H237.3A29.315,29.315,0,0,0,245.213,108.578Z" transform="translate(-193.482 -79.605)" fill="#fad989"/>
        <path id="Trazado_1049669" data-name="Trazado 1049669" d="M383.7,165.988l-1.129,6.271H375.5c-2.8-1.677-3.2-3.861-2.037-6.271Z" transform="translate(-329.353 -151.561)" fill="#ff8a98"/>
        <path id="Trazado_1049670" data-name="Trazado 1049670" d="M252.591,172.259H234.459l-1.129-6.271h17.224A29.748,29.748,0,0,0,252.591,172.259Z" transform="translate(-206.441 -151.561)" fill="#fd5c6f"/>
        <path id="Trazado_1049671" data-name="Trazado 1049671" d="M349.953,46.629v3.547a1.812,1.812,0,0,1-1.812,1.811H335.548c-5.892-.845-8.029-5.37-4.565-7.17h17.157A1.812,1.812,0,0,1,349.953,46.629Z" transform="translate(-291 -44.817)" fill="#ff8a98"/>
        <path id="Trazado_1049672" data-name="Trazado 1049672" d="M218.615,51.988H198.39a1.811,1.811,0,0,1-1.811-1.811V46.63a1.811,1.811,0,0,1,1.811-1.812h15.66C213.2,47.017,214.543,50.315,218.615,51.988Z" transform="translate(-174.066 -44.818)" fill="#fd5c6f"/>
        <g id="Grupo_1185118" data-name="Grupo 1185118" transform="translate(0 2.351)">
          <path id="Trazado_1049673" data-name="Trazado 1049673" d="M146.81,85.361c-.071.013-.142.024-.213.035-.627.093-.868.593-.9,1.317-15.248,0-20.843-14.231-13.961-22.1,6.289-.566,8.2,3.905,15.7,6.328a7.592,7.592,0,0,1,5.454,6.643A7.417,7.417,0,0,1,146.81,85.361Z" transform="translate(-114.378 -64.566)" fill="#60daa8"/>
          <path id="Trazado_1049674" data-name="Trazado 1049674" d="M38.932,94.907a12.668,12.668,0,0,1-5.256,1.815c-2.778.316-11.961-6.662-14.221-7.943a9.614,9.614,0,0,0-5.348-1.294l-.18.01A6.24,6.24,0,0,1,7.6,82.436c-.511-2.685,1.036-4.884,2.945-6.521,5.646-4.847,6.438-9.908,13.749-10.873.192-.025.38-.046.563-.063-3.548,7.227,1.715,17.822,13.961,22.1C38.705,89.354,40.629,93.856,38.932,94.907Z" transform="translate(-7.501 -64.929)" fill="#00ce8e"/>
          <path id="Trazado_1049675" data-name="Trazado 1049675" d="M207.84,210.087l-5.62,5.62a4.333,4.333,0,0,1-6.572-.523l-3.284-4.534a4.168,4.168,0,0,0-4.289-1.622c-1.312.294-2.623.579-3.889.845-7.325-.391-9.007-6.873-5.1-10.447l4.638-2.227-5.376-.55a4.622,4.622,0,0,1-4.109-5.213,4.681,4.681,0,0,1,4.636-4.007l5.06-.037c4.671-.117,8.981,2.008,12.408,5.066l11.5,11.5A4.334,4.334,0,0,1,207.84,210.087Z" transform="translate(-154.348 -172.765)" fill="#ffddcf"/>
          <path id="Trazado_1049676" data-name="Trazado 1049676" d="M66.464,251.71c-2.521.531-4.865,1-6.694,1.348a8.286,8.286,0,0,1-6.746-1.673l-10.814-8.672a4.4,4.4,0,0,1,5.3-7.019l10.256,7.293,3.593-1.724A8.559,8.559,0,0,0,66.464,251.71Z" transform="translate(-36.627 -214.601)" fill="#ffcbbe"/>
          <path id="Trazado_1049677" data-name="Trazado 1049677" d="M316.487,290.38l11.21-11.21a3.561,3.561,0,0,0,0-5.036l-5.424-5.424a3.561,3.561,0,0,0-5.036,0l-11.21,11.21a3.561,3.561,0,0,0,0,5.036l5.424,5.424A3.561,3.561,0,0,0,316.487,290.38Z" transform="translate(-269.564 -243.485)" fill="#5ad6ff"/>
        </g>
      </g>
      <g id="Grupo_1185120" data-name="Grupo 1185120" transform="translate(0 37.33)">
        <path id="Trazado_1049678" data-name="Trazado 1049678" d="M59.659,70.591,53.945,64.9,57.3,46.286h.738a2.708,2.708,0,0,0,2.7-2.7V40.034a2.708,2.708,0,0,0-2.7-2.7H53.99a.893.893,0,1,0,0,1.786h4.046a.919.919,0,0,1,.918.918v3.547a.919.919,0,0,1-.918.918H30.426c-1.192-.624-2.225-1.278-3.19-1.89A32.151,32.151,0,0,0,24.3,40.888v-.853a.92.92,0,0,1,.918-.918h24.6a.893.893,0,0,0,0-1.786h-24.6a2.715,2.715,0,0,0-2.7,2.833A11.167,11.167,0,0,0,17.57,39.8c-5.192.686-7.339,3.322-9.825,6.375-.6.738-1.222,1.5-1.918,2.275a.893.893,0,0,0,1.328,1.194c.725-.806,1.36-1.587,1.975-2.341,2.43-2.983,4.185-5.139,8.674-5.732,3.651-.483,5.66.755,8.475,2.547A30.5,30.5,0,0,0,33.674,47.8a6.7,6.7,0,0,1,4.838,5.854,6.432,6.432,0,0,1-.291,2.39,16.87,16.87,0,0,0-7.754-1.734l-5.052.036A5.585,5.585,0,0,0,19.9,59.129a5.515,5.515,0,0,0,4.9,6.218l2.223.228-4.9,2.351L12.3,60.939a5.305,5.305,0,0,0-7.139.934,5.354,5.354,0,0,1-3.289-3.96c-.344-1.809.41-3.6,2.241-5.31a.893.893,0,1,0-1.221-1.3C.584,53.459-.35,55.8.116,58.244a7.15,7.15,0,0,0,4.143,5.19,5.3,5.3,0,0,0,1.661,5.948l10.814,8.671a9.163,9.163,0,0,0,7.474,1.853c2.637-.507,6.619-1.3,10.61-2.2a3.264,3.264,0,0,1,1.021-.065,4.461,4.461,0,0,0,.888,5.034L42.15,88.1a4.459,4.459,0,0,0,6.3,0l11.21-11.21A4.459,4.459,0,0,0,59.659,70.591ZM53.369,58.027H41.529c-.534-.387-1.106-.767-1.713-1.128a8.217,8.217,0,0,0,.478-3.357H54.176Zm-.322,1.786-.759,4.214a4.474,4.474,0,0,0-1.2-.165,4.421,4.421,0,0,0-2.543.8L43.7,59.813ZM34.74,46.286H55.483L54.5,51.757H39.975A8.606,8.606,0,0,0,34.74,46.286Zm-.314,29.68c-3.968.892-7.93,1.681-10.555,2.186a7.377,7.377,0,0,1-6.019-1.492L7.038,67.989a3.507,3.507,0,0,1-.8-4.556,3.57,3.57,0,0,1,.279-.395,3.515,3.515,0,0,1,4.751-.643L21.52,69.687a.892.892,0,0,0,.9.077l8.231-3.95a.893.893,0,0,0-.3-1.693l-5.375-.55a3.729,3.729,0,0,1-3.316-4.207,3.792,3.792,0,0,1,3.758-3.231l5.061-.036c4.66-.115,8.671,2.06,11.787,4.822l4.956,4.956-10.2,10.2a5.089,5.089,0,0,0-2.608-.105ZM58.4,75.627l-11.21,11.21a2.671,2.671,0,0,1-3.773,0L37.99,81.414a2.668,2.668,0,0,1,0-3.773L49.2,66.431a2.668,2.668,0,0,1,3.773,0L58.4,71.854a2.671,2.671,0,0,1,0,3.773Z" transform="translate(0 -37.33)"/>
        <path id="Trazado_1049679" data-name="Trazado 1049679" d="M225.687,134.655v-1.429a.893.893,0,0,0-1.786,0v1.429a.893.893,0,0,0,1.786,0Z" transform="translate(-197.242 -121.021)"/>
        <path id="Trazado_1049680" data-name="Trazado 1049680" d="M100.79,134.655v-1.429a.893.893,0,0,0-1.786,0v1.429a.893.893,0,0,0,1.786,0Z" transform="translate(-87.216 -121.021)"/>
        <path id="Trazado_1049681" data-name="Trazado 1049681" d="M147.842,146.656a3.493,3.493,0,0,0,2.634-1.2.893.893,0,1,0-1.347-1.173,1.7,1.7,0,0,1-2.574,0,.893.893,0,1,0-1.346,1.174A3.494,3.494,0,0,0,147.842,146.656Z" transform="translate(-127.726 -131.279)"/>
      </g>
    </g>
  </g>
</svg>
