<svg xmlns="http://www.w3.org/2000/svg" xmlns:xlink="http://www.w3.org/1999/xlink" width="295" height="208" viewBox="0 0 295 208">
  <defs>
    <clipPath id="clip-path">
      <rect id="Rectángulo_416353" data-name="Rectángulo 416353" width="295" height="208" transform="translate(1125 7322)" fill="#fff" stroke="#707070" stroke-width="1" opacity="0.87"/>
    </clipPath>
  </defs>
  <g id="Enmascarar_grupo_1098848" data-name="Enmascarar grupo 1098848" transform="translate(-1125 -7322)" clip-path="url(#clip-path)">
    <g id="Grupo_1185478" data-name="Grupo 1185478" transform="translate(8.957 -8.466)">
      <circle id="Elipse_12616" data-name="Elipse 12616" cx="122.452" cy="122.452" r="122.452" transform="translate(1140 7343.562)" fill="#ebe9f0" opacity="0.57"/>
      <g id="Grupo_1185441" data-name="Grupo 1185441" transform="translate(1147.891 7288.162)">
        <path id="Trazado_1049982" data-name="Trazado 1049982" d="M419.733,769.034a29.459,29.459,0,0,1-1.274,8.438c-4.245,13.957-17.467,23.61-29.816,30.038-18.149,9.449-38.641,14.273-58.883,16.407a214.5,214.5,0,0,1-68.47-3.51,153.192,153.192,0,0,1-28.02-8.905,92.377,92.377,0,0,1-21.659-12.763c-9.863-8.023-17.966-19.694-15.9-32.987,2.152-13.89,13.752-24.158,25.174-31.067,16.861-10.2,36.587-15.636,55.956-18.461a218.148,218.148,0,0,1,69.031.86c18.505,3.252,37.464,9.034,53.056,19.819C409.617,744.292,419.684,755.282,419.733,769.034Z" transform="translate(-195.205 -585.511)" fill="#e4e2da"/>
        <g id="Grupo_1185400" data-name="Grupo 1185400" transform="translate(57.488 157.869)">
          <ellipse id="Elipse_12609" data-name="Elipse 12609" cx="53.38" cy="24.181" rx="53.38" ry="24.181" transform="translate(1.76 0.938)" fill="#cec2ba"/>
          <path id="Trazado_1049983" data-name="Trazado 1049983" d="M488.132,835.188a11.97,11.97,0,0,1-.676,3.655,12.3,12.3,0,0,1-1.852,3.449,19.417,19.417,0,0,1-1.408,1.715q-.177.193-.358.381c-.073.076-.147.152-.221.227.186-.19.016-.015-.032.031-.3.291-.6.576-.917.853-.626.554-1.279,1.079-1.951,1.578q-.479.355-.969.692c-.047.032-.385.259-.078.055l-.255.169q-.336.221-.677.434-1.2.75-2.442,1.417-.587.316-1.184.616c-.2.1-.405.2-.608.3-.414.2.325-.151-.1.046l-.439.205a62.23,62.23,0,0,1-5.877,2.346l-.433.147c-.487.166.37-.118-.122.04-.246.079-.491.159-.736.237q-.823.26-1.652.5-1.7.5-3.431.92-.886.218-1.776.417-.41.092-.82.18l-.5.105c-.395.084.246-.047-.189.039-1.244.247-2.49.475-3.742.677a110.646,110.646,0,0,1-32.018.43c-8.979-1.182-18.081-3.411-26.061-7.823-5.058-2.8-10.572-7.106-11.57-13.151a11.626,11.626,0,0,1,1.319-7.28,18.294,18.294,0,0,1,2.467-3.371c.142-.154.287-.305.432-.457.049-.051.1-.1.148-.151-.211.215.04-.039.07-.068q.429-.418.879-.815c.627-.554,1.279-1.079,1.951-1.578.351-.261.709-.512,1.069-.761.231-.16.022-.015-.022.014l.306-.2q.311-.2.626-.4,1.2-.75,2.442-1.417.618-.332,1.244-.646.335-.168.671-.33c-.338.164-.051.024.035-.015l.439-.2q1.423-.656,2.881-1.233,1.524-.605,3.077-1.134l.289-.1c.487-.165-.37.118.122-.04.246-.079.491-.159.737-.237q.9-.284,1.8-.546,1.709-.494,3.438-.915.806-.2,1.616-.378.409-.092.82-.18l.5-.105q.32-.066.023-.005l.25-.05a108.738,108.738,0,0,1,31.89-1.522c9.321.9,18.731,2.862,27.224,6.908a35.906,35.906,0,0,1,8.957,5.812,16.561,16.561,0,0,1,4.762,6.805,11.665,11.665,0,0,1,.625,3.712c0,.259.509.388.664.416a3.117,3.117,0,0,0,1.307-.1c.593-.172,1.554-.512,1.552-1.255-.025-6.291-5.153-11.151-10.1-14.274-7.744-4.889-16.887-7.436-25.855-8.9a116.591,116.591,0,0,0-33.854-.458c-9.534,1.256-19.246,3.668-27.715,8.35-5.412,2.992-11.522,7.641-12.6,14.167-1.016,6.148,3.077,11.365,7.744,14.829,7.043,5.228,15.818,7.99,24.317,9.718a115.042,115.042,0,0,0,33.62,1.59c9.827-.928,19.835-3.046,28.785-7.32a39.612,39.612,0,0,0,9.785-6.3,18.44,18.44,0,0,0,5.242-7.464,12.3,12.3,0,0,0,.632-3.937c0-.259-.512-.389-.664-.416a3.118,3.118,0,0,0-1.307.1C489.086,834.106,488.135,834.443,488.132,835.188Z" transform="translate(-381.374 -809.597)" fill="#cec2ba"/>
        </g>
        <path id="Trazado_1049984" data-name="Trazado 1049984" d="M748.771,353.73a8.169,8.169,0,0,1-1.484,7.838c-7.943,9.361-25.7,29.963-34.812,37.973C704.7,406.383,699.01,411,695.107,414a8.082,8.082,0,0,1-11.548-1.763c-6.171-8.8-16.242-23.3-16.406-24.482-.116-.82,19.636-30.306,26.595-44.966,2.043-4.305,3.992-8.537,5.832-12.474,1.7-3.636,5.675-4.871,9.65-4.322,9.451,1.3,10.1,2.688,15.688,3.976,12.433,2.86,19.548,10.4,23.837,23.713Z" transform="translate(-521.609 -317.048)" fill="#e8ba97"/>
        <path id="Trazado_1049985" data-name="Trazado 1049985" d="M471.853,813.639a17.623,17.623,0,0,1-.229,2.8q-.107.648-.261,1.287-.044.183-.092.365c.078-.3.006-.021-.016.052-.079.262-.158.524-.246.784a20.136,20.136,0,0,1-1.1,2.609q-.312.62-.663,1.22c-.055.095-.424.69-.236.4q-.219.344-.449.683a27.767,27.767,0,0,1-1.884,2.448q-.524.609-1.078,1.191-.257.27-.519.534-.159.16-.32.318c.272-.266-.09.085-.116.109a43.684,43.684,0,0,1-5.676,4.5q-.714.48-1.442.937c.33-.206-.162.1-.186.113q-.225.138-.452.273-.458.274-.921.54-1.751,1.005-3.563,1.9-1.894.939-3.84,1.77-1,.43-2.018.833c-.713.284-1.306.51-1.792.688a110.653,110.653,0,0,1-18.951,4.99,142.52,142.52,0,0,1-43.5.7c-12.091-1.656-24.6-4.9-35.093-11.007a51.412,51.412,0,0,1-6.3-4.283,31.924,31.924,0,0,1-4.652-4.456,26.209,26.209,0,0,1-3.356-4.987c-.015-.03-.2-.42-.067-.129q-.084-.176-.163-.353-.132-.294-.255-.592-.28-.678-.508-1.375a18.066,18.066,0,0,1-.667-2.741q-.1-.616-.154-1.238c.03.335,0-.079-.007-.123-.006-.125-.013-.25-.018-.375q-.014-.376-.011-.753a17.3,17.3,0,0,1,.239-2.737c.076-.453.175-.9.281-1.347.019-.081.041-.162.062-.243-.089.339.019-.067.033-.113.073-.242.147-.484.228-.724a20.153,20.153,0,0,1,1.1-2.609q.327-.65.7-1.277c.05-.084.39-.633.2-.338q.238-.373.488-.739a27.842,27.842,0,0,1,1.939-2.5q.479-.552.984-1.081.308-.324.625-.64l.214-.211c-.279.273.179-.169.227-.214.839-.788,1.715-1.537,2.619-2.25q1.43-1.129,2.946-2.143c1.175-.79,1.726-1.13,3-1.863a71.166,71.166,0,0,1,7.583-3.747,81.4,81.4,0,0,1,8.188-2.984c3.093-.962,6.231-1.778,9.4-2.468a140.245,140.245,0,0,1,43.287-2.3c12.746,1.259,25.623,4.122,37.128,9.9a50.326,50.326,0,0,1,12.059,8.26c.342.326.564.548.994,1q.574.609,1.116,1.248a27.363,27.363,0,0,1,1.9,2.511,24.608,24.608,0,0,1,1.472,2.538c.189.374-.072-.158.036.071.046.1.091.2.136.295q.132.294.255.592.292.707.527,1.435a18.1,18.1,0,0,1,.627,2.558q.114.677.174,1.362c-.028-.312.017.3.02.373.011.251.015.5.016.753,0,.939.9,1.361,1.745,1.307.757-.048,2.044-.617,2.04-1.555-.033-9.091-6.6-16.273-13.707-21.125-10.3-7.026-22.74-10.773-34.9-12.933a146.272,146.272,0,0,0-45.437-.794c-12.755,1.77-25.777,5.132-36.951,11.724-7.707,4.547-15.645,11.3-17.146,20.637-1.412,8.78,4.037,16.474,10.571,21.71a61.57,61.57,0,0,0,14.195,8.248,102.684,102.684,0,0,0,18.638,5.848,144.388,144.388,0,0,0,45.1,2.418c13.29-1.325,26.8-4.341,38.763-10.434a52.759,52.759,0,0,0,13.039-9.063,26.15,26.15,0,0,0,6.908-10.564,19.041,19.041,0,0,0,.93-5.672c0-.94-.9-1.361-1.745-1.307C473.131,812.133,471.857,812.7,471.853,813.639Z" transform="translate(-286.452 -629.273)" fill="#cec2ba"/>
        <path id="Trazado_1049986" data-name="Trazado 1049986" d="M750.787,576.513s16.425,4.189,19.161,13.348c.391,1.309,9.126,7.977,7.37,10.34-1.669,2.247-9.9,6.184-20.078,2.593a4.24,4.24,0,0,1-2.674-2.36c-.729-1.958-.919-9.566-.349-13.038C754.969,582.818,750.787,576.513,750.787,576.513Z" transform="translate(-579.473 -490.464)" fill="#f7c9a1"/>
        <path id="Trazado_1049987" data-name="Trazado 1049987" d="M761.287,604.205s1.485,12.959,8.735,13.971,14.092-.241,14.079,1.389-3.616,4.644-14.4,4.564c-3.843.024-8.788-1.35-9.224-7.768A44.517,44.517,0,0,1,761.287,604.205Z" transform="translate(-586.104 -509.623)" fill="#eab096"/>
        <path id="Trazado_1049988" data-name="Trazado 1049988" d="M791.418,622.255,795.734,628s8.667-.83,9.427,1.1c.389.641-.135-4.365-5.888-6.776A8.474,8.474,0,0,0,791.418,622.255Z" transform="translate(-607.585 -521.468)" fill="#eab096"/>
        <path id="Trazado_1049989" data-name="Trazado 1049989" d="M791.511,623.726a1.173,1.173,0,0,1,1.563.261c.842,1.182,2.415,3.17,3.687,3.518,1.831.5,7.17,1.636,8.055,2.668-2.239-.827-8.34-.829-9.082-.644s-4.316-5.742-4.316-5.742Z" transform="translate(-607.584 -523)" fill="#ce9680"/>
        <path id="Trazado_1049990" data-name="Trazado 1049990" d="M440.07,794.188c-.039,10.775-8.181,19.455-16.459,25.043q-2.016,1.361-4.123,2.578-1.091.633-2.2,1.232c-.906.489-1.142.609-2.086,1.078q-2.458,1.22-4.985,2.3-.576.246-1.155.486l-.7.287c.105-.043.423-.167-.069.027q-1.437.568-2.888,1.1-2.742,1-5.53,1.872a2.975,2.975,0,0,1-.31.095l-.522.157q-.788.236-1.58.462-1.47.42-2.949.808-1.5.395-3.016.757-.7.166-1.392.326c.563-.129-.361.08-.381.085q-.495.11-.989.216-3.239.7-6.5,1.254c-4.318.741-8.5,1.277-13,1.686q-6.991.635-14.015.723a182.434,182.434,0,0,1-27.988-1.742c-15.537-2.208-31.322-6.385-44.918-14.437-9.118-5.4-18.554-13.472-20.249-24.548-1.6-10.472,4.9-19.558,12.706-25.789a71.751,71.751,0,0,1,16.9-9.76q.576-.246,1.156-.486l.7-.287c-.5.2.277-.11.306-.121q1.319-.52,2.651-1.007,2.8-1.026,5.659-1.913c.5-.156-.655.2.181-.055.261-.078.522-.158.784-.235q.658-.2,1.318-.384,1.605-.459,3.221-.879,1.369-.357,2.745-.686l.834-.2c.021,0,.939-.215.377-.088q.846-.191,1.694-.372a166.324,166.324,0,0,1,26.666-3.426,182.565,182.565,0,0,1,28.281.744c16.094,1.687,32.41,5.38,46.9,12.785,9.845,5.033,20.424,12.528,23.9,23.585a22.728,22.728,0,0,1,1.048,6.729c0,.778,5.53.025,5.525-1.481-.041-11.291-8.636-20.209-17.453-26.119a89.9,89.9,0,0,0-19.439-9.582,143.5,143.5,0,0,0-24.727-6.45,187.847,187.847,0,0,0-57.822-.764c-16.712,2.365-33.717,6.838-48.367,15.456-9.517,5.6-19.388,13.948-21.234,25.462-1.742,10.869,5.158,20.33,13.266,26.753a77.517,77.517,0,0,0,18.112,10.376,131.3,131.3,0,0,0,23.6,7.276,185.3,185.3,0,0,0,57.45,2.812c17.163-1.768,34.647-5.716,50.114-13.57A67.42,67.42,0,0,0,435.808,812.9a32.563,32.563,0,0,0,8.7-13.234,23.564,23.564,0,0,0,1.091-6.964C445.6,791.942,440.076,792.675,440.07,794.188Z" transform="translate(-237.338 -609.056)" fill="#cec2ba"/>
        <path id="Trazado_1049991" data-name="Trazado 1049991" d="M398.926,736.9c-15.592-10.785-34.551-16.567-53.056-19.819a218.143,218.143,0,0,0-69.031-.86c-19.369,2.824-39.095,8.259-55.956,18.461-11.422,6.909-23.022,17.177-25.174,31.067-2.063,13.293,6.04,24.964,15.9,32.987A92.379,92.379,0,0,0,233.272,811.5a153.225,153.225,0,0,0,28.02,8.905,214.5,214.5,0,0,0,68.47,3.51c20.242-2.134,40.734-6.959,58.883-16.407,12.348-6.428,25.57-16.082,29.816-30.038a29.456,29.456,0,0,0,1.274-8.438C419.685,755.282,409.617,744.292,398.926,736.9Zm-3.07,64.545c-14.964,10.38-33.036,15.966-50.811,19.129a210.851,210.851,0,0,1-67.387.869c-18.665-2.753-37.607-7.965-53.831-17.85-11.115-6.771-22.354-16.834-24.408-30.377-1.969-12.986,5.822-24.394,15.44-32.279,13.48-11.048,30.787-17.222,47.612-20.937a208.581,208.581,0,0,1,66.942-3.408c19.445,2.089,39.153,6.713,56.557,15.868,12.005,6.317,24.661,15.716,28.791,29.29a28.98,28.98,0,0,1,1.247,8.281C415.961,783.409,406.272,794.216,395.856,801.447Z" transform="translate(-195.206 -585.511)" fill="#cec2ba"/>
        <g id="Grupo_1185401" data-name="Grupo 1185401" transform="translate(67.826 163.591)">
          <path id="Trazado_1049992" data-name="Trazado 1049992" d="M507.253,851.674c0,9.475-18.1,19.039-41.579,19.039s-42.516-7.682-42.516-17.157S442.193,836.4,465.673,836.4,507.253,842.2,507.253,851.674Z" transform="translate(-420.621 -833.863)" fill="#b75811"/>
          <path id="Trazado_1049993" data-name="Trazado 1049993" d="M459.978,867.555c-11.674,0-22.688-1.85-31.012-5.21-9.054-3.653-14.04-8.8-14.04-14.484s4.986-10.83,14.04-14.484c8.325-3.359,19.338-5.209,31.012-5.209,11.907,0,22.717,1.5,30.44,4.229,11.3,3.991,13.676,9.59,13.676,13.583a12.972,12.972,0,0,1-3.87,8.7,31.41,31.41,0,0,1-9.555,6.665C482.307,865.347,471.407,867.555,459.978,867.555Zm0-34.313c-23.56,0-39.979,7.705-39.979,14.62s16.419,14.62,39.979,14.62c10.686,0,20.806-2.031,28.5-5.717,6.6-3.164,10.544-7.2,10.544-10.785,0-4.493-6.449-7.441-10.292-8.8C481.535,834.64,471.324,833.241,459.978,833.241Z" transform="translate(-414.926 -828.168)" fill="#b75811"/>
        </g>
        <path id="Trazado_1049994" data-name="Trazado 1049994" d="M463.615,570.876c0-15.637-2.42-28.068-9.716-37.242.726-9.207-11.26-17.621-62.017-19.2-13.563-.422-37.073,3.484-37.073,3.484-18.313,3.173-22.873,8.892-23.281,16.409-7.025,9.233-9.881,21.522-9.881,36.546,0,20.341,9.772,38.543,25.159,50.729a52.712,52.712,0,0,0,9.3,15c4.87,5.259,11.207,6.916,16.107,8.063,28.468,6.661,57.649.828,64.8-12.62a67.392,67.392,0,0,0,5.312-13.749C455.465,606.245,463.615,589.452,463.615,570.876Z" transform="translate(-282.562 -447.492)" fill="#dc7c34"/>
        <g id="Grupo_1185402" data-name="Grupo 1185402" transform="translate(18.023 161.163)">
          <path id="Trazado_1049995" data-name="Trazado 1049995" d="M268.134,820.482c-.356.238-.7.5-1.041.754-.9.684-1.773,1.408-2.617,2.162a44.194,44.194,0,0,0-3.436,3.417,37.567,37.567,0,0,0-3.538,4.559,27.957,27.957,0,0,0-2.8,5.449,21.7,21.7,0,0,0-1.375,6.277,19.739,19.739,0,0,0,.82,6.91,25.334,25.334,0,0,0,3.773,7.431,41.99,41.99,0,0,0,7.465,7.754,79.313,79.313,0,0,0,11.917,7.959q1.791,1,3.616,1.926a1.256,1.256,0,0,0,.919.014c.143-.048.479-.246.206-.386a92.174,92.174,0,0,1-13.025-7.925A48.234,48.234,0,0,1,260.6,859a27.587,27.587,0,0,1-4.539-7.434,19.8,19.8,0,0,1-.529-13.351,26.142,26.142,0,0,1,2.536-5.644,34.9,34.9,0,0,1,3.385-4.719c.555-.656,1.1-1.262,1.73-1.915q.839-.872,1.725-1.7,1.376-1.284,2.857-2.45c.483-.379.986-.727,1.475-1.1.021-.016.044-.03.066-.045.255-.171-.138-.323-.271-.343a1.317,1.317,0,0,0-.9.177Z" transform="translate(-253.292 -820.289)" fill="#724128"/>
        </g>
        <path id="Trazado_1049996" data-name="Trazado 1049996" d="M362.33,362.709s-15.725,0-26.969,5.992c-11.075,6.767-4.669-1.243-12.362,3-2.214,1.216-2.245-1.5-5.617-12.74-.509-1.7-13.532-30.41-20.75-52.6a4.179,4.179,0,0,1,3.123-5.4c7.87-1.593,18.1-3.712,27.45-3.712,8.189,0,9.8,0,19.98,2.3,2.628.592,5.177,1.319,5.605,3.979Z" transform="translate(-265.111 -297.246)" fill="#e8ba97"/>
        <path id="Trazado_1049997" data-name="Trazado 1049997" d="M364.606,630.705c-3.287-1.11-2.386-4.108-2.386-5.16,0-1.787,6.368-7.362-19.445-17.859-3.966-1.613-8.212-3.13-11.645-5.759a3.231,3.231,0,0,0-.245-.29c-13.616-7.993,1.742-35.336,1.742-35.336-11.987-6.31-6.831-17-6.743-18.229-5.993,2.8-10.778,13.581-13.437,18.756-2.123,4.132-4.024,8.394-4.564,12.835a16.389,16.389,0,0,0,3.54,12.814c.275.323.569.634.872.94-.078,8.98.962,33.922,13.589,54.781,4.495,7.425,12.736,13.068,21.921,15.837a2.817,2.817,0,0,0-.09-2.852,30.053,30.053,0,0,1-2-3.094c-1.51-3.818,4.814-5.029,9.009-5.793,3.349-.61,4.466-1.331,5.993-3.964,1.292-2.227,5.673-1.786,7.866-5.259C371.5,638.467,370.086,632.556,364.606,630.705Z" transform="translate(-272.94 -470.786)" fill="#b75811"/>
        <path id="Trazado_1049998" data-name="Trazado 1049998" d="M277.728,572.753s-3,5.346-4.87,7.129-4.495,1.782-7.492,8.91c-1.5,2.673-2.435,4.4-6.743,8.317-4.519,4.108-9.552,8.7-3,17.227.749,1.485-2.247,3.861-2.247,6.534a27.984,27.984,0,0,0,4.495,14.257c3.746,5.94,3.371,7.722,2.622,9.8s-3.371,5.643-1.5,8.316-.375,8.019,4.12,10.1,5.244,2.079,5.619,4.455,4.495,5.643,8.99,6.832,5.993,6.237,10.114,5.049a109.029,109.029,0,0,1,16.482-2.673c2.435-.029,4.495-5.94-.375-8.316,5.993-.594,12.125-.629,13.3-1.931.936-1.04,2.248-3.861.749-5.94,6.368.594,7.866.3,8.616-2.97s.187-7.277-4.682-9.059-17.98-3.564-20.977-3.564-3.371-3.267-19.479-5.049a19.218,19.218,0,0,0-1.124-4.158s10.863,3.861,16.107,5.049,17.418,5.792,20.04,3.416c1.5-1.188,4.308-4.307-.187-8.762s-17.98-10.693-23.6-11.287c-.375,0-5.619-4.455-11.238-6.237.375-.594-7.228-14.214-8.726-16.293-1.5-3.564,3.706-18.518,3.969-22.349A42.885,42.885,0,0,1,277.728,572.753Z" transform="translate(-234.71 -487.862)" fill="#f7c9a1"/>
        <path id="Trazado_1049999" data-name="Trazado 1049999" d="M314.159,529.894s-8.241-2.079-16.107.3c-4.121,1.485-7.042,2.26-9.664,2.26a8.95,8.95,0,0,0-8.616,4.87c-2.622,4.455-.824,5.642-2.322,7.721s-3.371,5.94.375,7.426a13.286,13.286,0,0,0,8.99-.027c5.993-1.4,8.728-7.606,8.728-7.606S297.3,537.023,314.159,529.894Z" transform="translate(-250.726 -457.627)" fill="#f7c9a1"/>
        <path id="Trazado_1050000" data-name="Trazado 1050000" d="M291.256,750.6s1.124,3.267,3.746,4.158,12.361,4.158,12.361,4.158,2.247,3.267,1.5,3.861c6.743,1.188,15.283,3.148,17.755,5.287.824.119,15.433,1.723,22.325,3.624,3,.891,4.87,3.267,4.495,5.643,0,0,1.5-8.316-27.865-3.43-3,.5-8.107-3.024-8.657-3.253-8.2-3.418-12.736.891-20.228-7.128C295.938,763.224,291.256,756.244,291.256,750.6Z" transform="translate(-261.536 -610.911)" fill="#d8a380"/>
        <path id="Trazado_1050001" data-name="Trazado 1050001" d="M287.294,803.135s2.247,7.129,5.244,8.019A192.056,192.056,0,0,0,318.01,816.5s14.8,2.525,25.285,3.713c1.311.149-3-.891-37.271.743-6.368-.594-17.606-3.267-17.98-5.94S286.17,814.125,287.294,803.135Z" transform="translate(-258.51 -647.257)" fill="#d8a380"/>
        <path id="Trazado_1050002" data-name="Trazado 1050002" d="M290.769,868.2s11.013,3.861,17.006,4.158,8.752.194,22.123.394a3.578,3.578,0,0,1,3.274,2.814c.824,3.624-1.049,5.471-1.424,5.471-.417,0,.371-5.56-4.121-5.412-8.99.3-12.361,3.564-19.478-.3S292.867,868.5,290.769,868.2Z" transform="translate(-261.199 -692.276)" fill="#d8a380"/>
        <path id="Trazado_1050003" data-name="Trazado 1050003" d="M296.544,566.645c-.878.878-.317,3.235-1.553,4.8-1.873,2.376-10.488,10.99-8.99,16.039s.749,8.911,5.993,11.881,8.99,5.346,8.99,6.534,7.492,5.643,14.609,7.128,18.729,4.455,23.973,9.5c2.622,2.673,2.772,7.247-1.873,8.613,3.521.119,9.739-5.789-.375-12.621-5.169-3.03-16.107-7.873-21.539-8.022.375.3-6.555-4.6-11.238-6.237.375.3-1.686-6.386-3.371-8.91,1.124-2.376-10.274-1.483,1.311-26.286a32.994,32.994,0,0,0,2.622-16.45A36.652,36.652,0,0,1,296.544,566.645Z" transform="translate(-257.78 -473.935)" fill="#d8a380"/>
        <path id="Trazado_1050004" data-name="Trazado 1050004" d="M294.9,819.041s2.435,3.713,3.933,4.307,13.485,4.158,29.967,5.049c-7.492-1.188-28.019-4.93-29.929-6.326A20.126,20.126,0,0,1,294.9,819.041Z" transform="translate(-264.059 -658.262)" fill="#c18e6b"/>
        <path id="Trazado_1050005" data-name="Trazado 1050005" d="M275.716,570.185s7.754-3.891,9.627-4.782,3-4.455,1.5-4.752-5.993.3-9.365,4.752C276.353,567.482,274.7,570.214,275.716,570.185Z" transform="translate(-250.566 -479.444)" fill="#eab096"/>
        <path id="Trazado_1050006" data-name="Trazado 1050006" d="M451.078,838.2s.378-3.6-3.821-4.221-12.5-.972-12.6,1.716c.246,2.368,1.269,4.984,15.2,5.267C450.95,840.59,451.232,839.677,451.078,838.2Z" transform="translate(-360.751 -668.292)" fill="#eab096"/>
        <path id="Trazado_1050007" data-name="Trazado 1050007" d="M426.256,862.45s.037-3.128-4.061-3.332-11.349.605-11.2,2.926c.375,2.97,1.124,4.455,14.339,2.878C426.35,864.519,426.538,863.712,426.256,862.45Z" transform="translate(-344.38 -685.97)" fill="#eab096"/>
        <path id="Trazado_1050008" data-name="Trazado 1050008" d="M392.827,891.758a2.824,2.824,0,0,1,2.985,2.044c.071.439.134.92.174,1.414a2.03,2.03,0,0,1-1.908,1.991c-3.4.537-8.881.414-9.184-1.272C384.547,894.286,383.239,891.876,392.827,891.758Z" transform="translate(-326.143 -708.573)" fill="#eab096"/>
        <path id="Trazado_1050009" data-name="Trazado 1050009" d="M299.629,562.938c-1.271,2.058-2.774,3.107-4.727,4.557.871-.338,1.245-.225,2.116-.563a11.59,11.59,0,0,0,1.12-.481,5.8,5.8,0,0,0,3.1-4.715,1.144,1.144,0,0,0-.051-.5.945.945,0,0,0-1.076-.463A3.683,3.683,0,0,1,299.629,562.938Z" transform="translate(-264.058 -479.559)" fill="#ce9680"/>
        <path id="Trazado_1050010" data-name="Trazado 1050010" d="M322.439,537.831s-12.278,3.243-12.736,4.375c-3.184,7.871-8.69,16.98-17.231,17.01C314.5,559.669,310.265,543.623,322.439,537.831Z" transform="translate(-262.377 -463.7)" fill="#eab096"/>
        <path id="Trazado_1050011" data-name="Trazado 1050011" d="M686.864,663.6s7.492,2.8,2.859,11.147c-.366.885.5,1.128,2.288,4.093,3.617,5.991-1.241,7.208-3.059,12.806s-3.091,9.575-3.823,11.344a11.966,11.966,0,0,1-.315,6.172c-.732,1.769-1.424,7.65-3.657,9.139s-5.1,2.857-5.831,4.92-8.172,14.563-8.99,15.733c-2.622,3.746-6.216,3.374-8.111.642-2-2.89,4.365-9.632,2.866-8.508-1.418,1.063-3.371,1.873-6.56,3.458-7.82,4.769-15.254,10.71-20.6.181-1.124.01-7.7-1.842-4.392-8.628,1.1-2.36,2.684-3.453,10.127-8.513.366-.884-2.773-5.653,7.281-11.91,5.944-5.046,19.357-14.026,19.69-14.381,13.485-14.373,8.991-29.447,8.991-29.447Z" transform="translate(-494.947 -549.502)" fill="#f7c9a1"/>
        <g id="Grupo_1185403" data-name="Grupo 1185403" transform="translate(144.993 128.48)">
          <path id="Trazado_1050012" data-name="Trazado 1050012" d="M669.529,757.8c-3.11.027-4.066-3.935-4.163-4.37h0c.257,1.138,1.856,3.338,2.656,3.5,4.129.845,9.079-1.912,20.138-9.284,3.31-2.206,5.9-4.665,8.5-6.24,6.069-3.683,11.489-6.08,13.449-9.816,2.843-5.418,4.312-17.248,4.326-17.371h0c-.057.51-.685,12.334-3.658,18-2.19,4.174-6.2,5.9-12.553,9.756-2.576,1.563-5.688,4.158-8.958,6.338C678.483,755.5,672.412,757.771,669.529,757.8Z" transform="translate(-665.366 -714.217)" fill="#eab096"/>
        </g>
        <g id="Grupo_1185404" data-name="Grupo 1185404" transform="translate(138.423 153.484)">
          <path id="Trazado_1050013" data-name="Trazado 1050013" d="M644.792,827.249l-.749.006c.167-.063,17.322-7.044,24.264-11.429l.071-.045s19.173-10.838,22.862-12.949c2.393-1.369,2.967-3.072,3.693-5.228.192-.572.623-1.619.868-2.238,0,0-1.184,6.623-3.9,8.178-3.676,2.1-20.257,11.424-22.96,13.012C661.859,821,645.478,826.991,644.792,827.249Z" transform="translate(-644.043 -795.367)" fill="#eab096"/>
        </g>
        <g id="Grupo_1185405" data-name="Grupo 1185405" transform="translate(159.399 172.217)">
          <path id="Trazado_1050014" data-name="Trazado 1050014" d="M712.118,869.136h0c.177-.093,17.869-9.8,21.354-12.971l-1.008,1.574C728.89,860.99,712.844,868.753,712.118,869.136Z" transform="translate(-712.118 -856.165)" fill="#eab096"/>
        </g>
        <path id="Trazado_1050015" data-name="Trazado 1050015" d="M678.572,831.484a2.1,2.1,0,0,1-2.37-.807c-.652-1.142-.85-2.932,2.5-4.539,5.455-2.618,8.645-5.435,10.731-2.251C690.245,825.282,689.439,828.4,678.572,831.484Z" transform="translate(-527.603 -660.635)" fill="#eab096"/>
        <path id="Trazado_1050016" data-name="Trazado 1050016" d="M637.368,872.748a.966.966,0,0,0-.11-.24c-.357-.562-1.828-3.418,3.733-5.271,6.1-2.031,8.036-3.321,10.477-.785a1.081,1.081,0,0,1,.184.247c1.009,1.938-2.154,3.28-12.2,6.844a1.618,1.618,0,0,1-2.088-.8Z" transform="translate(-500.619 -690.094)" fill="#eab096"/>
        <path id="Trazado_1050017" data-name="Trazado 1050017" d="M672.855,890.943a2.125,2.125,0,0,0-.22-3.376c-1.5-.574-1.9-2.333-11.955,3.336-.989.79-1.292,2.476,1.334,4.382a3.321,3.321,0,0,0,2.969.378C667.584,894.745,671.746,892.421,672.855,890.943Z" transform="translate(-516.634 -705.18)" fill="#eab096"/>
        <path id="Trazado_1050018" data-name="Trazado 1050018" d="M746.076,894.612a.681.681,0,0,0-.565-.9.858.858,0,0,0-.753.185c-.744.594-6.682,6.228-4.423,7.383C741.441,902.127,743.592,900.45,746.076,894.612Z" transform="translate(-571.89 -709.908)" fill="#eab096"/>
        <path id="Trazado_1050019" data-name="Trazado 1050019" d="M699.93,659.045a1.738,1.738,0,0,1,2.622,1.4c.45,2.145-.739,7.738,0,9.465,1.593,3.724-2.662,9.46-3.746,17.879-1.532,2.5-18.467,13.538-24.723,16.827-10.841,5.7-10.53,9.8-9.812,11.665-.983-4.975-1.621-6.526,8.03-14.4s21.26-12.693,22.384-16.55c.609-2.088.684-6.582,1.873-11.218C698.806,665.355,699.93,659.045,699.93,659.045Z" transform="translate(-519.251 -547.404)" fill="#d8a380"/>
        <ellipse id="Elipse_12610" data-name="Elipse 12610" cx="21.684" cy="61.257" rx="21.684" ry="61.257" transform="matrix(0.015, -1, 1, 0.015, 49.97, 106.443)" fill="#f7a158"/>
        <ellipse id="Elipse_12611" data-name="Elipse 12611" cx="18.495" cy="56.264" rx="18.495" ry="56.264" transform="translate(54.912 103.581) rotate(-89.112)" fill="#dc7c34"/>
        <path id="Trazado_1050020" data-name="Trazado 1050020" d="M493.668,557.646a6.031,6.031,0,0,1-1.448,3.6c-9.874,5.436-27.393,9.641-50.617,8.94-20.109-.607-37.29-4.312-47.3-9.485a6.618,6.618,0,0,1-2.144-4.721c.248-8.71,23.171-15.4,51.2-14.936S493.917,548.939,493.668,557.646Z" transform="translate(-331.347 -465.908)" fill="#b75811"/>
        <path id="Trazado_1050021" data-name="Trazado 1050021" d="M515.788,603.521c-8.845,2.679-20.576,3.628-34.466,3.42-13.64-.2-25.811-1.4-34.458-4.249.344-4.719,15.852-8.77,35.019-8.485C500.842,594.492,515.4,598.862,515.788,603.521Z" transform="translate(-369.197 -502.696)" fill="#940"/>
        <path id="Trazado_1050022" data-name="Trazado 1050022" d="M675.232,650.465a7.043,7.043,0,0,0,.7,1.239,5.994,5.994,0,0,0,2.3,2.618c-1.723,3.155-7.192,20.4-6.218,25.275l.45,2.734s-24.947,13.707-28.319,17.563c-3.371,3.225-4.121,5.259-4.121,6.661v3.505s-7.609,4.453-9.365,6.661a22.81,22.81,0,0,0-1.5,3.155s-.968-8.07,8.772-14.38c.375-2.454.218-5.6,29.024-23.061C669.651,677.037,675.982,661.332,675.232,650.465Z" transform="translate(-495.303 -541.629)" fill="#b75811"/>
        <path id="Trazado_1050023" data-name="Trazado 1050023" d="M629.69,849.91s-.451-3.442,12.962-7.515c-.749-.351-2.247-3.155-2.247-4.207C635.589,841.183,629.483,845.957,629.69,849.91Z" transform="translate(-495.685 -671.51)" fill="#d8a380"/>
        <path id="Trazado_1050024" data-name="Trazado 1050024" d="M420.74,778.142c-4.219-.789-12.152-2.154-13.861.769-.949,2.616.759,5.233,14.81,6.464C422.829,785.068,425.677,779.066,420.74,778.142Z" transform="translate(-341.383 -629.262)" fill="#eab096"/>
        <path id="Trazado_1050025" data-name="Trazado 1050025" d="M426.543,792.808c2.9.525,5.993.7,7.866-.351a6.611,6.611,0,0,0,2.247-1.753c.316-.444.375-1.235.375-.7a5.7,5.7,0,0,1-1.5,4.207c-.955.894-5.5-.492-8.833-1.272C426.093,792.8,425.928,792.7,426.543,792.808Z" transform="translate(-354.869 -638.048)" fill="#ce9680"/>
        <path id="Trazado_1050026" data-name="Trazado 1050026" d="M449.3,842.309s11.837,1.473,11.612-2.1a3.99,3.99,0,0,0-1.5-3.155s3,1.052,1.873,5.259C460.907,843.01,461.582,844.8,449.3,842.309Z" transform="translate(-370.879 -670.723)" fill="#ce9680"/>
        <path id="Trazado_1050027" data-name="Trazado 1050027" d="M421.335,869.858s10.015-1.18,10.488-1.4c.749-.351,1.424-.561,1.274-2.734.449,1.262,1.348,3.436-.15,3.786S422.833,870.559,421.335,869.858Z" transform="translate(-351.534 -690.559)" fill="#ce9680"/>
        <path id="Trazado_1050028" data-name="Trazado 1050028" d="M387.295,899.314s7.117.351,8.241,0c1.589-.5,2.585,0,1.667-3.681,0,0,.281-.175.805,1.753s-.463,2.157-1.461,2.419C394.412,900.366,388.419,900.366,387.295,899.314Z" transform="translate(-327.982 -711.252)" fill="#ce9680"/>
        <g id="Grupo_1185406" data-name="Grupo 1185406" transform="translate(105.742 112.171)">
          <path id="Trazado_1050029" data-name="Trazado 1050029" d="M556.635,674.354A108.578,108.578,0,0,1,540,673.52a2.278,2.278,0,0,1-2-2.585,2.4,2.4,0,0,1,2.761-1.867h0c.3.045,29.86,4.291,56.293-7.557a2.485,2.485,0,0,1,3.214,1.06,2.194,2.194,0,0,1-1.132,3.008c-14.561,6.527-29.847,8.34-40.106,8.712C558.218,674.318,557.415,674.34,556.635,674.354Z" transform="translate(-537.978 -661.288)" fill="#f7a158"/>
        </g>
        <g id="Grupo_1185407" data-name="Grupo 1185407" transform="translate(125.544 127.687)">
          <path id="Trazado_1050030" data-name="Trazado 1050030" d="M613.3,719.872a69.052,69.052,0,0,1-9.806-.007,1.267,1.267,0,0,1-1.243-1.353,1.4,1.4,0,0,1,1.575-1.09h0c.175.016,17.682,1.532,32.917-5.626a1.527,1.527,0,0,1,1.919.49,1.159,1.159,0,0,1-.586,1.667,69.12,69.12,0,0,1-23.363,5.819Q613.994,719.829,613.3,719.872Z" transform="translate(-602.246 -711.645)" fill="#f7a158"/>
        </g>
        <path id="Trazado_1050031" data-name="Trazado 1050031" d="M676.025,839.991s-.523,1.323.226,2.024,5.094.7,8.166-.876c2.772-1.4,2.659-1.473,2.659-1.473s-4.607,3.33-9.215,3.891C676.887,843.628,674.529,842.834,676.025,839.991Z" transform="translate(-527.412 -672.532)" fill="#ce9680"/>
        <path id="Trazado_1050032" data-name="Trazado 1050032" d="M636.886,880.284a3.24,3.24,0,0,0,.375,2.454c.749,1.052,6.237.175,10.8-2.016-6.237,2.629-10.8,5.872-11.547,1.665A4.2,4.2,0,0,1,636.886,880.284Z" transform="translate(-500.409 -700.635)" fill="#ce9680"/>
        <path id="Trazado_1050033" data-name="Trazado 1050033" d="M660.55,903.871s.749,1.753,2.247,1.753,7.492-1.753,9.365-3.155c-2.622,1.753-5.994,3.856-7.866,4.207a4.829,4.829,0,0,1-4.139-3.05C660.195,903.416,660.55,903.871,660.55,903.871Z" transform="translate(-516.769 -715.984)" fill="#ce9680"/>
        <g id="Grupo_1185408" data-name="Grupo 1185408" transform="translate(146.121 11.284)">
          <path id="Trazado_1050034" data-name="Trazado 1050034" d="M702.16,334.212q-2.808,5.746-5.783,11.407T690.26,356.85q-3.154,5.593-6.473,11.091-3.3,5.475-6.77,10.85t-7.087,10.646q-.451.656-.9,1.31a1.28,1.28,0,0,1,.19-.046q.229-.059.457-.12c.152-.041.3-.082.456-.124.037-.01.168-.026.188-.055q3.64-5.257,7.126-10.62t6.809-10.825q3.338-5.485,6.513-11.068,3.161-5.558,6.158-11.208t5.825-11.385q.352-.714.7-1.429a1.7,1.7,0,0,1-.19.046c-.153.039-.3.08-.457.121s-.3.082-.456.124c-.031.009-.175.03-.188.055Z" transform="translate(-669.027 -333.866)" fill="#724128"/>
        </g>
        <g id="Grupo_1185409" data-name="Grupo 1185409" transform="translate(181.353 40.789)">
          <path id="Trazado_1050035" data-name="Trazado 1050035" d="M828.652,430.315q-4.094,5.044-8.321,9.978t-8.584,9.753q-4.341,4.8-8.808,9.489t-9.056,9.252q-4.606,4.582-9.332,9.04-.58.547-1.163,1.093a3.145,3.145,0,0,1-.021.539c.305-.078.444.83.748.748s.146-.663.449-.748c.095-.026-.449.748,1.4-1.231,2.961-3.161,6.281-5.965,9.362-9.009s6.12-6.13,9.118-9.255,5.934-6.268,8.838-9.461,5.766-6.423,8.584-9.691,5.613-6.6,8.353-9.951q.5-.618,1.008-1.237a2.219,2.219,0,0,1-.381.092c-.305.078-.61.159-.914.241s-.609.163-.912.248c-.081.022-.326.049-.376.11Z" transform="translate(-783.368 -429.623)" fill="#724128"/>
        </g>
        <g id="Grupo_1185410" data-name="Grupo 1185410" transform="translate(61.413 74.734)">
          <path id="Trazado_1050036" data-name="Trazado 1050036" d="M396.7,550.667a14.481,14.481,0,0,1,1.66-1.162,40.29,40.29,0,0,1,5.29-2.759q2.043-.9,4.152-1.637,1.269-.448,2.556-.845.666-.207,1.337-.4l.513-.146-.069.019c-.1.027-.207.066-.312.083,1.032-.166,2.06-.506,3.083-.728q1.784-.388,3.581-.707c2.607-.465,5.231-.83,7.864-1.112a150.473,150.473,0,0,1,16.737-.788q7.434.035,14.85.674a129.278,129.278,0,0,1,14.218,1.979,61.754,61.754,0,0,1,11.789,3.428,19.318,19.318,0,0,1,7.561,5.019,7.38,7.38,0,0,1,1.526,6.789,22.894,22.894,0,0,1-.977,2.844,1.781,1.781,0,0,1,.449-.15,21.2,21.2,0,0,0,2.361-1.465,7.775,7.775,0,0,0,.155-7.351c-1.4-2.545-4.043-4.241-6.577-5.5a51.027,51.027,0,0,0-11.383-3.8,117.345,117.345,0,0,0-14.193-2.254c-5.054-.52-10.134-.8-15.214-.878a157.205,157.205,0,0,0-16.784.576,108.563,108.563,0,0,0-15.286,2.441,93.781,93.781,0,0,0-12.2,3.652,47.561,47.561,0,0,0-6.552,3.08c-.6.346-1.191.709-1.763,1.1a5.514,5.514,0,0,0-.85.617c-.03.03-.069.055-.1.082a1.9,1.9,0,0,1,.381-.092c.305-.078.609-.159.914-.241s.608-.164.912-.248a1.213,1.213,0,0,0,.376-.111Z" transform="translate(-394.113 -539.789)" fill="#724128"/>
        </g>
        <g id="Grupo_1185411" data-name="Grupo 1185411" transform="translate(97.109 63.611)">
          <path id="Trazado_1050037" data-name="Trazado 1050037" d="M541.507,548.046a123.2,123.2,0,0,0,24.224-4.655,64.428,64.428,0,0,0,9.517-3.6,33.83,33.83,0,0,0,7.231-4.524,15.889,15.889,0,0,0,4.347-5.437,6.192,6.192,0,0,0,.606-1.87,7.58,7.58,0,0,0-.61-3.513,16.157,16.157,0,0,0-2.782-4.482,28.047,28.047,0,0,0-5.488-4.861,46.336,46.336,0,0,0-8.759-4.655,75.845,75.845,0,0,0-12.557-3.833,122.894,122.894,0,0,0-16.9-2.409,195.187,195.187,0,0,0-21.774-.382q-3.013.1-6.023.278a6.969,6.969,0,0,0-1.294.333c-.3.082-.608.164-.912.248a2.037,2.037,0,0,1-.376.11,218.458,218.458,0,0,1,22.8-.206,138.917,138.917,0,0,1,17.813,1.909,86.689,86.689,0,0,1,13.539,3.466,53.435,53.435,0,0,1,9.632,4.408,32.669,32.669,0,0,1,6.351,4.819,19.4,19.4,0,0,1,3.517,4.6,10.065,10.065,0,0,1,1.241,3.853,7.5,7.5,0,0,1-1.612,4.662,19.941,19.941,0,0,1-5.258,5.115,41.748,41.748,0,0,1-7.928,4.224c-1.575.655-3.179,1.241-4.8,1.771q-1.225.4-2.463.761-.3.088-.608.174c-.383.108.073-.023-.147.041-.189.055.142-.038.123-.033.345-.092-.008,0-.151.038l-.635.159a110.039,110.039,0,0,1-11.45,2.141q-2.912.394-5.84.654a8.077,8.077,0,0,0-1.294.333c-.3.082-.609.164-.912.248a2.384,2.384,0,0,1-.376.11Z" transform="translate(-509.961 -503.691)" fill="#724128"/>
        </g>
        <g id="Grupo_1185412" data-name="Grupo 1185412" transform="translate(172.594 87.807)">
          <path id="Trazado_1050038" data-name="Trazado 1050038" d="M754.942,582.565a22.034,22.034,0,0,1,2.967.644,28.427,28.427,0,0,1,6.5,2.65,19.083,19.083,0,0,1,6.432,5.735,15.62,15.62,0,0,1,1.17,2.031,1.19,1.19,0,0,0,.189.369.807.807,0,0,0,.108.059c.1.061.207.127.309.193a23.692,23.692,0,0,1,2.337,1.776,21.97,21.97,0,0,1,2.86,2.877,9.245,9.245,0,0,1,1.888,3.414,4.173,4.173,0,0,1-.548,3.378,7,7,0,0,1-2.957,2.42,10.1,10.1,0,0,1-1.036.417c-.085.029-.171.057-.257.083l-.13.04c-.255.077-.559.109.638-.17-.1.024-.32.073-.466.1a12.706,12.706,0,0,1-7.2-.686,11.111,11.111,0,0,1-2.227-1.235q-.129-.093-.256-.19a.834.834,0,0,1-.215-.307q-.208-.389-.4-.784-.354-.713-.667-1.445a24.315,24.315,0,0,1-1.71-6.117c-.116-.813-.139-1.638-.267-2.448a14.806,14.806,0,0,0-.388-1.7,37.639,37.639,0,0,0-1.446-4.077q-.837-2.037-1.827-4.008a22,22,0,0,0-1.59-2.785,2.255,2.255,0,0,0-.513-.585.961.961,0,0,0-.19.046q-.229.059-.457.12l-.456.124a.839.839,0,0,1-.187.055,2.366,2.366,0,0,1,.539.622c.273.393.517.806.752,1.222.669,1.183,1.264,2.408,1.823,3.646.624,1.378,1.2,2.78,1.7,4.208a18.626,18.626,0,0,1,.978,3.668c.046.353.063.709.1,1.063q.078.814.207,1.622a24.013,24.013,0,0,0,.716,3.121,24.864,24.864,0,0,0,1.137,3.028q.344.763.733,1.505.1.182.193.362a.7.7,0,0,0,.235.25q.275.206.563.394a12.379,12.379,0,0,0,9.493,1.555,13.1,13.1,0,0,0,4.742-1.86,5.4,5.4,0,0,0,2.176-2.93,4.993,4.993,0,0,0-.593-3.5,14.062,14.062,0,0,0-2.526-3.325,26.3,26.3,0,0,0-2.839-2.49c-.348-.265-.7-.523-1.065-.766-.116-.078-.233-.154-.353-.226-.039-.023-.077-.046-.117-.067-.078-.042-.088-.081-.129-.17a17.268,17.268,0,0,0-5.855-6.818,26.211,26.211,0,0,0-6.894-3.38,27.139,27.139,0,0,0-4.222-1.053c-.067-.011-.135-.021-.2-.03a.788.788,0,0,0-.19.046q-.229.059-.457.121l-.456.124A.7.7,0,0,1,754.942,582.565Z" transform="translate(-754.942 -582.218)" fill="#724128"/>
        </g>
        <g id="Grupo_1185413" data-name="Grupo 1185413" transform="translate(183.902 99.898)">
          <path id="Trazado_1050039" data-name="Trazado 1050039" d="M805.96,629.02c-.17-.341-.632-.473-.965-.574a10.567,10.567,0,0,0-1.777-.336,43.48,43.48,0,0,0-4.475-.261q-.849-.015-1.7-.01a1.083,1.083,0,0,1-.888-.423c-.057-.073-.112-.148-.167-.222L794,624.543l-.752-1a1.228,1.228,0,0,1-.105-1.484.913.913,0,0,1,.174-.188c.034-.028.057-.036.059-.043.008-.029.023,0-.019.007s-.1.032-.138.044c.114-.034.634-.157.6-.343-.031-.168-.629-.015-.691,0a2.088,2.088,0,0,0-1.325.875,1.313,1.313,0,0,0-.06,1.134,4.345,4.345,0,0,0,.554.792l2.124,2.826a8.748,8.748,0,0,0,.558.726c.517.553,1.34.426,2.028.43,1.452.008,2.935.048,4.323.171a16.947,16.947,0,0,1,2.052.282,4.585,4.585,0,0,1,.7.2,1.626,1.626,0,0,1,.488.265c.013.011.025.022.037.035.028.028-.016-.022.007.008a.527.527,0,0,1,.055.086c.086.173.56.034.691,0,.071-.02.674-.195.6-.343Z" transform="translate(-791.64 -621.459)" fill="#724128"/>
        </g>
        <g id="Grupo_1185414" data-name="Grupo 1185414" transform="translate(161.846 113.914)">
          <path id="Trazado_1050040" data-name="Trazado 1050040" d="M749.486,667.3a6.629,6.629,0,0,1,4.145,4.346,9.316,9.316,0,0,1-1.163,6.567c-.113.22-.168.237-.056.431a5.741,5.741,0,0,0,.365.515c.432.586.855,1.179,1.232,1.8a10.382,10.382,0,0,1,1.686,5.831,8.239,8.239,0,0,1-1.134,3.7,11.1,11.1,0,0,1-1.389,1.875c-.129.142-.272.274-.4.419a1.465,1.465,0,0,0-.253.477q-.205.518-.405,1.037c-1.025,2.656-1.977,5.339-2.9,8.031q-.513,1.491-1.012,2.988-.152.456-.3.913a2.276,2.276,0,0,0-.141.43,1.832,1.832,0,0,0,.051.382,10.711,10.711,0,0,1,.072,1.336,25.156,25.156,0,0,1-.762,5.721,45.345,45.345,0,0,1-1.32,4.5,8.674,8.674,0,0,1-.435,1.208,4.528,4.528,0,0,1-.869.931c-.539.527-1.1,1.033-1.664,1.532-2.206,1.944-4.412,3.832-5.78,6.492-.782,1.521-1.5,3.071-2.308,4.582-1.036,1.95-2.132,3.873-3.342,5.721a26.109,26.109,0,0,1-3.791,4.781,7.612,7.612,0,0,1-1.883,1.369c-.147.071-.3.128-.45.184-.514.188,1.423-.306.806-.223-.079.011-.159.023-.239.028a2.242,2.242,0,0,1-.83-.1,6.04,6.04,0,0,1-3.01-1.739c-1.059-1.351-.629-3.2-.032-4.65a16.215,16.215,0,0,1,.933-1.875q.293-.511.611-1.008a3.992,3.992,0,0,1,.371-.567,2.739,2.739,0,0,1,.7-.409c1.481-.792,2.933-1.638,4.36-2.524,2.023-1.257,4-2.591,5.911-4.012.272-.2.543-.405.81-.615a2.309,2.309,0,0,1-.647.166,2.043,2.043,0,0,0-.644.179,75.706,75.706,0,0,1-11.472,7.358,1.2,1.2,0,0,0-.516.52q-.16.246-.315.493-.337.541-.646,1.1a14.529,14.529,0,0,0-.873,1.865,6.035,6.035,0,0,0-.464,2.768A3.532,3.532,0,0,0,722.3,744.9a7.654,7.654,0,0,0,1.644.612,5.263,5.263,0,0,0,2.5-.418,8.817,8.817,0,0,0,3.745-2.971,55.545,55.545,0,0,0,6.79-10.955,26.5,26.5,0,0,1,3.309-5.627,30.322,30.322,0,0,1,3.061-2.945c.567-.495,1.134-.989,1.688-1.5q.425-.392.838-.8a3.724,3.724,0,0,0,.8-.912,18.929,18.929,0,0,0,.874-2.542q.353-1.119.648-2.255a33.276,33.276,0,0,0,.745-3.666,16.871,16.871,0,0,0,.169-4.06,3.445,3.445,0,0,1-.077-.524,4.983,4.983,0,0,1,.352-1.069q1.108-3.333,2.286-6.643.756-2.121,1.556-4.227.191-.5.385-1a3.528,3.528,0,0,1,.444-.963,20.909,20.909,0,0,0,1.6-1.984,8.371,8.371,0,0,0,.94-6.984,15.328,15.328,0,0,0-2.5-4.609c-.161-.219-.521-.545-.441-.825a8.13,8.13,0,0,1,.475-.969c.158-.351.3-.709.43-1.072a10.381,10.381,0,0,0,.457-1.75,6.392,6.392,0,0,0-1.13-5,7.249,7.249,0,0,0-2.608-2.075,4.709,4.709,0,0,0-.514-.219c-.132-.045-.512.13-.647.166-.152.041-.3.081-.456.124-.037.011-.156.067-.187.056Z" transform="translate(-720.061 -666.945)" fill="#724128"/>
        </g>
        <g id="Grupo_1185415" data-name="Grupo 1185415" transform="translate(143.548 112.871)">
          <path id="Trazado_1050041" data-name="Trazado 1050041" d="M699.782,663.9c-.546.974-1.026,1.989-1.49,3a62.35,62.35,0,0,0-2.912,7.64,45.931,45.931,0,0,0-2,10.218,30.779,30.779,0,0,0,.077,5.455q.034.314.075.628c.016.119.032.239.05.358.01.067.087.313.055.357-.014.02-.078.028-.1.041-.1.061-.224.1-.332.158-.983.486-1.943,1.021-2.9,1.554q-2.4,1.33-4.754,2.723-2.967,1.745-5.885,3.572c-2.075,1.3-4.129,2.335-6.149,3.718-1.92,1.314-4.155,2.6-5.981,4.045a41.163,41.163,0,0,0-4.34,3.891,11.688,11.688,0,0,0-2.394,3.741,6.98,6.98,0,0,0,.112,3.113,7.5,7.5,0,0,0,2.077,3.311,8.222,8.222,0,0,0,1.394.853,5.405,5.405,0,0,0,2.788.525,13.354,13.354,0,0,0,2.538-.5,25.923,25.923,0,0,0,3.1-1.022,61.424,61.424,0,0,0,8.243-4.308c.927-.555,1.894-1.086,2.777-1.71.915-.646,1.8-1.339,2.7-2q2.3-1.685,4.642-3.32c2.1-1.47,4.231-2.909,6.4-4.29.691-.441,1.384-.884,2.092-1.3,1.689-.984,3.37-1.993,4.967-3.12.426-.3.849-.611,1.247-.949a3.394,3.394,0,0,0,.731-.766,1.34,1.34,0,0,1-.19.046c-.153.039-.3.08-.457.12a10.808,10.808,0,0,0-1.392.96c-.416.352-.857.673-1.3.986-1,.7-2.032,1.352-3.074,1.987-.763.465-1.541.906-2.3,1.372-1.421.867-2.817,1.777-4.2,2.7-2.787,1.857-5.525,3.787-8.231,5.761q-1.325.967-2.638,1.949c-.863.644-1.823,1.177-2.745,1.731-1.547.931-3.112,1.833-4.71,2.674-1.179.62-2.377,1.208-3.606,1.722-.493.206-.991.4-1.5.573q-.326.112-.657.213l-.123.037-.032.009c.112-.036.279-.075.362-.1.611-.162.211-.057.064-.023a6.1,6.1,0,0,1-6.51-2.081c-.664-.841-1.959-3.814-.607-6.064a16.054,16.054,0,0,1,.948-1.54,24.738,24.738,0,0,1,3.582-3.615c1.656-1.424,3.4-2.745,5.175-4.018,1.96-1.407,3.964-2.755,5.99-4.066q2.97-1.922,6-3.745,2.626-1.584,5.29-3.1c1.249-.711,2.5-1.415,3.774-2.089.355-.189.71-.376,1.072-.552a1.4,1.4,0,0,0,.294-.136c.01-.009.036-.007.043-.017.052-.074-.059-.438-.072-.539q-.093-.671-.152-1.346a36.148,36.148,0,0,1,.8-10.623,56.9,56.9,0,0,1,2.756-9.02,58.83,58.83,0,0,1,2.429-5.4c.128-.247.256-.494.392-.737a1.468,1.468,0,0,1-.19.046c-.153.039-.3.08-.457.12s-.3.082-.456.124c-.034.009-.173.028-.189.055Z" transform="translate(-660.676 -663.559)" fill="#724128"/>
        </g>
        <g id="Grupo_1185416" data-name="Grupo 1185416" transform="translate(132.956 163.878)">
          <path id="Trazado_1050042" data-name="Trazado 1050042" d="M632.465,835.52a17.318,17.318,0,0,0-5.323,5.958,7.768,7.768,0,0,0-.829,3.877,6.834,6.834,0,0,0,.151,1.047,2.126,2.126,0,0,0,.319.909,8.4,8.4,0,0,1,.623.83c.7,1.049,1.32,2.24,2.661,2.536a6.494,6.494,0,0,0,2.988-.264,27.951,27.951,0,0,0,2.688-.811c.9-.335,1.79-.722,2.664-1.132,1.53-.718,3.035-1.5,4.542-2.262q2.039-1.035,4.064-2.1,4.462-2.332,8.888-4.728,4.383-2.363,8.748-4.76,3.473-1.9,6.938-3.825a13.739,13.739,0,0,0,2.37-1.69q-1.2.668-2.393,1.332-3.042,1.69-6.091,3.367-4.149,2.282-8.311,4.542-4.434,2.4-8.891,4.767c-2.662,1.407-5.331,2.8-8.024,4.149-1.7.851-3.392,1.731-5.161,2.438-.388.155-.78.3-1.175.437q-.239.081-.479.155l-.223.066c.827-.249.9-.232.553-.152a7.165,7.165,0,0,1-1.528.2,3.115,3.115,0,0,1-1.939-.567,5.242,5.242,0,0,1-1.175-1.4c-.178-.275-.352-.553-.539-.822-.095-.136-.193-.271-.3-.4a1.737,1.737,0,0,1-.348-.507,7.042,7.042,0,0,1-.1-4,13.666,13.666,0,0,1,4.591-6.465,28.968,28.968,0,0,1,4.737-3.263c.087-.048.051-.065.139-.112-.178.093.056-.539-.139-.487s-1.009.65-1.2.748C635.971,833.131,633.585,834.672,632.465,835.52Z" transform="translate(-626.3 -829.101)" fill="#724128"/>
        </g>
        <g id="Grupo_1185417" data-name="Grupo 1185417" transform="translate(138.337 174.677)">
          <path id="Trazado_1050043" data-name="Trazado 1050043" d="M643.764,874.863a11.629,11.629,0,0,0,1.009,2.075,9.648,9.648,0,0,0,3.161,3.38,5.978,5.978,0,0,0,2.451.846,9.772,9.772,0,0,0,3.831-.6,20.362,20.362,0,0,0,3.614-1.663c1.468-.78,2.917-1.594,4.361-2.416q2.591-1.476,5.158-2.991,2.664-1.567,5.314-3.156,2.392-1.432,4.776-2.878,1.8-1.091,3.6-2.189.882-.539,1.763-1.079l.077-.047a.991.991,0,0,1-.19.046q-.229.059-.457.121l-.456.124a.793.793,0,0,0-.188.055l-1.185.727q-1.566.958-3.135,1.911-2.224,1.351-4.454,2.692-2.566,1.543-5.142,3.069t-5.182,3.032c-1.535.885-3.075,1.762-4.629,2.614-1.126.616-2.257,1.23-3.418,1.777-.28.132-.563.26-.852.372q-.217.084-.438.156l-.181.056c1.387-.43,1.088-.28.779-.211l-.109.024a6.584,6.584,0,0,1-.78.118,5.869,5.869,0,0,1-2.667-.374,8.251,8.251,0,0,1-3.609-3.059,13.018,13.018,0,0,1-1.471-2.727c-.019-.05-.039-.1-.056-.15s-1.283.367-1.29.345Z" transform="translate(-643.764 -864.146)" fill="#724128"/>
        </g>
        <g id="Grupo_1185418" data-name="Grupo 1185418" transform="translate(50.118 6.101)">
          <path id="Trazado_1050044" data-name="Trazado 1050044" d="M398.348,416.543c-1.212-.166-2.42-.374-3.625-.59q-4.415-.789-8.774-1.859a100.435,100.435,0,0,1-10.867-3.275,46.274,46.274,0,0,1-9.937-4.86c-2.422-1.639-4.8-3.755-5.864-6.556a8.717,8.717,0,0,1,.927-7.817,32.366,32.366,0,0,1,2.907-3.759,23.365,23.365,0,0,1,5.686-4.321,44.176,44.176,0,0,1,10.466-4.048,122.615,122.615,0,0,1,18.6-3.034q2.941-.286,5.889-.49a13.287,13.287,0,0,0,1.291-.346q-.469-2.926-.938-5.852l-2.236-13.948-2.719-16.96-2.336-14.575-.771-4.809q-.121-.757-.243-1.515a2.972,2.972,0,0,0-.126-.788.369.369,0,0,1-.015-.1c.006.035-1.3.291-1.291.346l.938,5.852q1.118,6.974,2.236,13.948,1.359,8.48,2.719,16.96,1.168,7.287,2.336,14.575l.771,4.809c.121.755.176,1.562.369,2.3.008.031.01.064.015.1l1.291-.346a155.255,155.255,0,0,0-20.791,2.669,71.331,71.331,0,0,0-13.31,3.928,28.964,28.964,0,0,0-7.437,4.4,22.2,22.2,0,0,0-3.735,4.123,13.706,13.706,0,0,0-1.33,2.047,9.616,9.616,0,0,0-.985,4.377c.1,2.919,1.841,5.4,3.949,7.286a33.294,33.294,0,0,0,9.145,5.46,83.661,83.661,0,0,0,11.105,3.789c3.245.886,6.528,1.636,9.831,2.275,1.767.342,3.541.658,5.322.916l.247.035a2.18,2.18,0,0,0,.647-.166,2.146,2.146,0,0,1,.642-.18Z" transform="translate(-357.455 -317.047)" fill="#724128"/>
        </g>
        <g id="Grupo_1185419" data-name="Grupo 1185419" transform="translate(150.769 161.637)">
          <path id="Trazado_1050045" data-name="Trazado 1050045" d="M684.111,831.212a17.809,17.809,0,0,0,2.224-.48c.907-.241,1.808-.5,2.689-.826a19.874,19.874,0,0,0,4.272-2.153,6.928,6.928,0,0,0,2.665-2.842,1.367,1.367,0,0,0,.141-.7,2.682,2.682,0,0,0-.155-.6,2.861,2.861,0,0,0-.859-1.2,2.753,2.753,0,0,0-1.87-.578,8.755,8.755,0,0,0-1.9.407,8.171,8.171,0,0,0-1.63.624,1.155,1.155,0,0,1,.19-.046q.229-.059.457-.12a3.231,3.231,0,0,0,.644-.18c.213-.111.431-.215.654-.306.1-.042.208-.082.313-.119l.136-.045c.367-.12-1.273.311-.752.2a3.568,3.568,0,0,1,1.026-.065,2.648,2.648,0,0,1,1.438.569,2.9,2.9,0,0,1,.988,1.649,1.1,1.1,0,0,1-.019.582,5.7,5.7,0,0,1-2.113,2.643,17.363,17.363,0,0,1-3.722,2.14,22.285,22.285,0,0,1-2.288.856l-.272.083-.115.033-.045.013q.263-.077.53-.143c.133-.045-.049.011-.09.021l-.252.057c-.33.072-.663.133-1,.177a5.229,5.229,0,0,0-.647.166,5.393,5.393,0,0,1-.644.179Z" transform="translate(-684.111 -821.827)" fill="#724128"/>
        </g>
        <g id="Grupo_1185420" data-name="Grupo 1185420" transform="translate(73.839 165.321)">
          <path id="Trazado_1050046" data-name="Trazado 1050046" d="M450.29,840.911a18.187,18.187,0,0,1-4.1.014,31.454,31.454,0,0,1-5-.814,13.137,13.137,0,0,1-4.1-1.613,3.46,3.46,0,0,1-1.116-1.094,1.994,1.994,0,0,1-.164-.624,4.476,4.476,0,0,1-.079-.7,1.855,1.855,0,0,1,1.07-1.869c.071-.036.143-.068.217-.1.045-.018.09-.035.135-.051.515-.179-1.177.289-.825.215a6.263,6.263,0,0,1,.695-.107c.279-.027.559-.037.839-.037a.943.943,0,0,0,.19-.046q.229-.058.457-.12l.456-.124a.881.881,0,0,1,.188-.055,7.326,7.326,0,0,0-1.559.148c-.449.1-.894.227-1.337.351a4.627,4.627,0,0,0-.617.208,1.9,1.9,0,0,0-1.111,1.182,3.121,3.121,0,0,0-.012,1.441,1.993,1.993,0,0,0,.179.657,2.749,2.749,0,0,0,.48.583,6.123,6.123,0,0,0,1.584,1.025,14.776,14.776,0,0,0,2.171.812,29.238,29.238,0,0,0,5.169,1,21.851,21.851,0,0,0,4.5.112q.2-.02.4-.049a5.766,5.766,0,0,0,.647-.167,5.774,5.774,0,0,1,.644-.179Z" transform="translate(-434.439 -833.783)" fill="#724128"/>
        </g>
        <g id="Grupo_1185421" data-name="Grupo 1185421" transform="translate(65.672 174.14)">
          <path id="Trazado_1050047" data-name="Trazado 1050047" d="M424.291,866.971a33.759,33.759,0,0,1-4.046.675,36.771,36.771,0,0,1-5.086.263,12.005,12.005,0,0,1-4.257-.683,3,3,0,0,1-1.245-.861,1.738,1.738,0,0,1-.248-.6,4.764,4.764,0,0,1-.155-.694,2.075,2.075,0,0,1,.246-1.407,1.992,1.992,0,0,1,.612-.6,3.056,3.056,0,0,1,.475-.246q.151-.063.306-.113c.455-.148-.959.245-.821.216l.208-.045c.286-.057.576-.095.866-.123a4.247,4.247,0,0,0,.647-.166l.456-.124a1.242,1.242,0,0,1,.188-.055,11.962,11.962,0,0,0-1.94.389,6.357,6.357,0,0,0-1.568.55,1.879,1.879,0,0,0-.966,1.324,3.329,3.329,0,0,0,.163,1.462,1.65,1.65,0,0,0,.271.619,2.442,2.442,0,0,0,.574.5,5.464,5.464,0,0,0,1.735.666,14.119,14.119,0,0,0,2.288.307,32.838,32.838,0,0,0,5.3-.155,37.6,37.6,0,0,0,4.45-.684q.22-.049.438-.1c.3-.072.59-.154.884-.234.069-.019.252-.034.3-.083.024-.027-.01,0-.066.013Z" transform="translate(-407.936 -862.405)" fill="#724128"/>
        </g>
        <g id="Grupo_1185422" data-name="Grupo 1185422" transform="translate(57.52 183.802)">
          <path id="Trazado_1050048" data-name="Trazado 1050048" d="M394.46,897.772a23.5,23.5,0,0,1-3.149.471,26.334,26.334,0,0,1-3.917.1,9,9,0,0,1-3.292-.665,2.491,2.491,0,0,1-.968-.736,1.609,1.609,0,0,1-.2-.508,4.23,4.23,0,0,1-.132-.563,1.676,1.676,0,0,1,.233-1.26,1.643,1.643,0,0,1,.6-.486c.071-.036.145-.068.22-.1.047-.018.094-.033.141-.05.431-.148-1.323.322-.874.236a6.892,6.892,0,0,1,.775-.1,3.783,3.783,0,0,0,.647-.166q.228-.061.456-.124a1.086,1.086,0,0,1,.188-.055,8.049,8.049,0,0,0-1.467.274,6.479,6.479,0,0,0-1.443.465,1.449,1.449,0,0,0-.775,1.025,2.693,2.693,0,0,0,.122,1.2,1.77,1.77,0,0,0,.2.538,1.982,1.982,0,0,0,.437.436,6.248,6.248,0,0,0,3.076.926,23.214,23.214,0,0,0,4.105.012,24.864,24.864,0,0,0,3.769-.527c.267-.062.531-.137.8-.208.129-.035.257-.068.385-.106.012,0,.127-.037.064-.022Z" transform="translate(-381.477 -893.763)" fill="#724128"/>
        </g>
        <g id="Grupo_1185423" data-name="Grupo 1185423" transform="translate(140.965 174.895)">
          <path id="Trazado_1050049" data-name="Trazado 1050049" d="M653.584,872.655c1.078-.4,2.154-.8,3.217-1.239a34.175,34.175,0,0,0,4-1.885,9.789,9.789,0,0,0,1.513-1.021,2.2,2.2,0,0,0,.754-.979,1.554,1.554,0,0,0-.2-1.065,2.838,2.838,0,0,0-1.026-1.1,3.61,3.61,0,0,0-1.928-.508,5.7,5.7,0,0,0-1.29.164,18.764,18.764,0,0,0-2.137.6c-.279.1-.553.219-.823.345a1.335,1.335,0,0,1,.19-.046c.153-.039.3-.08.457-.12a3.953,3.953,0,0,0,.644-.179c.25-.116.5-.225.761-.322q.2-.074.4-.137l.058-.018q.508-.153-.791.21c.073-.016.145-.033.218-.048a5.148,5.148,0,0,1,1.251-.1,3.491,3.491,0,0,1,1.785.557,2.816,2.816,0,0,1,.96,1.082,1.537,1.537,0,0,1,.187,1.021,2.1,2.1,0,0,1-.7.94,9.056,9.056,0,0,1-1.417.982,31.773,31.773,0,0,1-3.841,1.844c-1.166.485-2.347.93-3.531,1.368.415-.154.875-.192,1.291-.346Z" transform="translate(-652.293 -864.855)" fill="#724128"/>
        </g>
        <g id="Grupo_1185424" data-name="Grupo 1185424" transform="translate(144.975 181.683)">
          <path id="Trazado_1050050" data-name="Trazado 1050050" d="M665.3,894.924a2.466,2.466,0,0,0,1.455.438,7.566,7.566,0,0,0,2.018-.248,20.613,20.613,0,0,0,5.416-2.025,14.277,14.277,0,0,0,1.988-1.337,6.716,6.716,0,0,0,1.379-1.44,2.842,2.842,0,0,0,.349-.694,1.036,1.036,0,0,0-.046-.645,2.831,2.831,0,0,0-.907-1.312,3.562,3.562,0,0,0-1.988-.762,5.478,5.478,0,0,0-1.407.081,17.414,17.414,0,0,0-2.323.609c-.3.1-.586.209-.872.33a5.006,5.006,0,0,1,.647-.166,4.892,4.892,0,0,0,.644-.179c.291-.124.586-.238.887-.334l.09-.028a6.4,6.4,0,0,0-.724.191l.167-.038c.134-.029.27-.053.406-.073a5.217,5.217,0,0,1,1.3-.036,3.547,3.547,0,0,1,1.819.7,2.888,2.888,0,0,1,.917,1.213,1.762,1.762,0,0,1,.141.59,1.468,1.468,0,0,1-.23.631,5.268,5.268,0,0,1-1.091,1.318A12.028,12.028,0,0,1,673.633,893a16.821,16.821,0,0,1-4.221,1.941c-.422.124.846-.218.6-.159-.083.019-.166.039-.249.057-.168.036-.337.068-.506.095a6.879,6.879,0,0,1-.919.086,3.068,3.068,0,0,1-1.474-.27,1.7,1.7,0,0,1-.263-.17,1.041,1.041,0,0,0-.19.046q-.229.059-.457.121l-.456.124a.938.938,0,0,1-.188.056Z" transform="translate(-665.305 -886.884)" fill="#724128"/>
        </g>
        <g id="Grupo_1185425" data-name="Grupo 1185425" transform="translate(176.512 140.073)">
          <path id="Trazado_1050051" data-name="Trazado 1050051" d="M767.657,752.644h3.158a.968.968,0,0,0,.191-.046l.457-.121.456-.124a.865.865,0,0,1,.188-.055c-.922,0-2.543-.456-3.465-.456-.13,0,.438.456.307.456a.965.965,0,0,0-.19.046q-.229.059-.457.12c-.152.041-.3.082-.456.124a.869.869,0,0,1-.188.056Z" transform="translate(-767.657 -751.842)" fill="#724128"/>
        </g>
        <g id="Grupo_1185426" data-name="Grupo 1185426" transform="translate(30.199 6.096)">
          <path id="Trazado_1050052" data-name="Trazado 1050052" d="M292.808,317.381l.692,1.753,1.867,4.731,2.777,7.038,3.366,8.531,3.7,9.372,3.733,9.46,3.47,8.794,2.951,7.478,2.108,5.343.66,1.673c.113.287.206.6.344.872.017.034.028.072.042.107.022.056,1.276-.384,1.291-.346l-.692-1.753-1.867-4.731-2.777-7.038-3.366-8.531-3.7-9.372-3.733-9.46-3.47-8.794-2.951-7.478-2.108-5.343-.66-1.673c-.113-.287-.206-.6-.344-.872-.017-.034-.028-.072-.042-.107-.022-.056-1.276.384-1.291.346Z" transform="translate(-292.808 -317.03)" fill="#724128"/>
        </g>
        <g id="Grupo_1185427" data-name="Grupo 1185427" transform="translate(23.958 70.992)">
          <path id="Trazado_1050053" data-name="Trazado 1050053" d="M311.3,528.025c-.747-.113-1.5-.18-2.255-.239a44.5,44.5,0,0,0-5.239-.106,33.3,33.3,0,0,0-6.744.9,21.2,21.2,0,0,0-3.331,1.114.75.75,0,0,0-.076.034c-.089.051.119-.029.044-.01l-.115.032q-.139.037-.279.07l-.26.059-.136.029-.079.016c-.083.017.176-.034.034-.007q-.66.124-1.325.219c-1.943.281-3.9.436-5.846.717a12.574,12.574,0,0,0-2.287.491c-.432.148-.863.3-1.285.474a10.562,10.562,0,0,0-3.5,2.325,12.492,12.492,0,0,0-2.944,5.28c-.135.46-.245.923-.414,1.372-.155.412-.336.814-.524,1.212-.393.829-.857,1.706-1.25,2.572-.681,1.5-1.365,3.376-.57,4.969a3.913,3.913,0,0,0,.815,1.1,5.148,5.148,0,0,0,.6.484,2.7,2.7,0,0,0,.814.462c.488.118.988.2,1.483.286a32.025,32.025,0,0,0,4.71.466,22.975,22.975,0,0,0,5.909-.595,15.082,15.082,0,0,0,5.776-2.723,9.7,9.7,0,0,0,1.338-1.283q.671-.77,1.327-1.553,1.065-1.27,2.084-2.578c.711-.915,1.41-1.843,2.053-2.807a3.781,3.781,0,0,0,.356-.885c.134-.378.285-.75.447-1.117q.077-.173.157-.345l.08-.169c.043-.091-.023.046.009-.019l.056-.113q.2-.4.419-.8a20.394,20.394,0,0,1,2.623-3.7l.1-.113c.013-.014.125-.137.064-.071q.113-.122.228-.242.235-.245.478-.483.515-.5,1.065-.967.57-.481,1.174-.918l.07-.05.148-.1c.114-.079.229-.157.344-.233q.332-.22.672-.426c.448-.272.907-.523,1.373-.762.088-.045-.083.04.006,0l.076-.038.206-.1q.183-.087.366-.171.4-.183.812-.349c.159-.065.54-.3.347-.508s-.641-.094-.853-.008a21.594,21.594,0,0,0-5.663,3.375,20.608,20.608,0,0,0-5.542,7.24,14.333,14.333,0,0,0-.722,1.861.368.368,0,0,0-.034.117c0,.008.073-.12.036-.076a.624.624,0,0,0-.044.068c-.18.273-.367.542-.556.809-.985,1.389-2.04,2.729-3.123,4.043q-.6.732-1.221,1.453a13.4,13.4,0,0,1-1.281,1.4q-.3.262-.614.5c-.25.192-.3.23-.562.4q-.312.207-.635.4-.166.1-.335.188l-.158.084-.068.035-.064.033c.069-.035-.008,0-.018.009l-.092.045-.16.076q-.172.081-.346.157-.347.151-.7.284c-.11.041-.22.08-.331.12s.007,0,.026-.008l-.1.032-.19.062q-.357.113-.718.209t-.7.17c-.12.027-.241.055-.362.077.114-.02.054-.011-.018,0l-.217.04q-.706.125-1.419.2-.356.037-.714.063l-.165.011c-.055,0-.177.01-.049,0-.125.007-.25.013-.375.018q-.676.027-1.352.018-.645-.008-1.29-.047-.313-.019-.625-.044l-.284-.024-.14-.013-.08-.008c-.077-.007.137.014.006,0a35.318,35.318,0,0,1-3.61-.569c-.023,0-.047-.008-.069-.014-.074-.022.024.031-.018-.02a.76.76,0,0,0-.179-.1c-.065-.039-.13-.08-.194-.122a4.735,4.735,0,0,1-.583-.452,3.563,3.563,0,0,1-.786-.988,3.645,3.645,0,0,1-.286-2.295A19.815,19.815,0,0,1,276,541.885c.186-.392.366-.789.521-1.194.169-.439.281-.889.41-1.34a13.583,13.583,0,0,1,1.225-2.989,10.87,10.87,0,0,1,.766-1.167q.188-.249.391-.486.1-.118.206-.232c-.061.067.02-.02.041-.042l.112-.115a9.272,9.272,0,0,1,.831-.749q.1-.078.2-.153l.113-.084c.013-.01.064-.047,0,0s.009-.006.026-.018c.138-.1.278-.19.421-.279s.265-.161.4-.237l.2-.111.094-.049.04-.021c.09-.048-.12.059-.053.026.248-.119.5-.235.751-.34.226-.093.455-.179.685-.261l.295-.1.142-.049.055-.019c.122-.042-.178.055-.05.017s.262-.076.4-.108c.078-.019.157-.036.236-.053.039-.008.078-.015.117-.024,0,0-.179.034-.071.015l.071-.014c.4-.075.8-.134,1.2-.19.947-.13,1.9-.233,2.848-.341.985-.111,1.97-.224,2.95-.371q.708-.106,1.41-.247a6.058,6.058,0,0,0,1.233-.337q.383-.167.773-.317.183-.07.367-.136l.185-.065c.122-.043.014-.005-.009,0l.133-.044q.789-.26,1.6-.459.411-.1.825-.19l.193-.04.083-.017-.009,0,.414-.078q.823-.148,1.654-.25.8-.1,1.6-.16l.373-.027.185-.012.051,0,.076,0q.375-.021.751-.034,1.42-.051,2.842-.008,1.14.034,2.276.123l.467.039.2.019.109.01h-.013q.321.033.642.071c.176.021.353.043.528.07a1.164,1.164,0,0,0,.913-.245C311.607,528.3,311.573,528.067,311.3,528.025Z" transform="translate(-272.553 -527.646)" fill="#724128"/>
        </g>
        <g id="Grupo_1185428" data-name="Grupo 1185428" transform="translate(23.972 81.127)">
          <path id="Trazado_1050054" data-name="Trazado 1050054" d="M274.108,571.669a.834.834,0,0,1-.2-.437,1.487,1.487,0,0,1,.447-1.178,7.543,7.543,0,0,1,2.658-1.707,26.41,26.41,0,0,1,2.709-1.011q.418-.133.839-.258l.415-.121.2-.056.075-.021.014,0,.5-.133a2.417,2.417,0,0,0,.607-.21q.372-.215.729-.455a7.428,7.428,0,0,0,3.5-4.833,4.986,4.986,0,0,0,.045-.708c0,.018-.6.153-.647.166a3.848,3.848,0,0,0-.644.179,6.607,6.607,0,0,1-2.821,5.011,12.3,12.3,0,0,1-1.589,1.062l.97-.266a46.714,46.714,0,0,0-5.452,1.692,12.2,12.2,0,0,0-2.7,1.4c-.559.409-1.348,1.115-1.117,1.905a.793.793,0,0,0,.178.329,1.255,1.255,0,0,0,.19-.046q.229-.059.457-.121l.456-.124a1.189,1.189,0,0,1,.187-.056Z" transform="translate(-272.599 -560.537)" fill="#724128"/>
        </g>
        <g id="Grupo_1185429" data-name="Grupo 1185429" transform="translate(17.276 95.439)">
          <path id="Trazado_1050055" data-name="Trazado 1050055" d="M266.659,607.332a53.872,53.872,0,0,1-3.427,6.192,46.632,46.632,0,0,1-5.657,6.413c-1.582,1.639-3.13,3.3-4.675,4.977a6.792,6.792,0,0,0-1.987,3.9c-.309,2.886,1.073,5.844,2.378,8.322.193.366.605.866.554,1.282a5.364,5.364,0,0,1-.357,1.278,19.392,19.392,0,0,1-.881,1.9,10.427,10.427,0,0,0-.7,1.717,10.573,10.573,0,0,0-.279,4.467,26.636,26.636,0,0,0,3.218,9.011c.937,1.749,1.993,3.432,2.969,5.159a10.415,10.415,0,0,1,1.341,3.132,6.655,6.655,0,0,1-.291,3.057A33.567,33.567,0,0,1,257.4,672.1a6.521,6.521,0,0,0-.692,2.455,13.2,13.2,0,0,0,.809,3.92c.438,1.454.759,2.934,1.177,4.393a7.452,7.452,0,0,0,1.235,2.637,9.6,9.6,0,0,0,2.837,2.222,6.675,6.675,0,0,1,2.023,1.314,7.185,7.185,0,0,1,1,1.775c.49,1.145.856,2.683,1.906,3.465a5.406,5.406,0,0,0,1.19.546c.506.211,1.007.432,1.506.657a67.542,67.542,0,0,1,7.525,3.841,8.165,8.165,0,0,1,2.139,1.733,8.816,8.816,0,0,0,1.594,1.765,5.135,5.135,0,0,0,3.194.709,43.738,43.738,0,0,0,5.315-.773c3.264-.532,6.534-1.03,9.805-1.513q1.3-.192,2.6-.38a5.279,5.279,0,0,0,.6-.12,2.728,2.728,0,0,0,1.081-.365c1.378-1.134,2.647-3.149,2.451-4.981a4.82,4.82,0,0,0-2.562-3.384c-.083-.052-.549.14-.647.166a1.734,1.734,0,0,1-.331-.017c-.2-.02-.268-.1-.109.011a6.657,6.657,0,0,1,2.247,3,4.1,4.1,0,0,1-.272,2.744,8.248,8.248,0,0,1-2.178,2.909l1.291-.346c-4.681.669-9.359,1.375-14.023,2.154a22.871,22.871,0,0,1-4.769.552,4.335,4.335,0,0,1-2.589-.849,10.625,10.625,0,0,1-1.409-1.625,7.608,7.608,0,0,0-1.9-1.585,60.8,60.8,0,0,0-6.791-3.544c-.935-.434-1.874-.864-2.83-1.247a2.966,2.966,0,0,1-1.113-.645,4.962,4.962,0,0,1-.892-1.439,16.329,16.329,0,0,0-1.669-3.474,5.083,5.083,0,0,0-1.747-1.205,17.111,17.111,0,0,1-1.693-1.047,6.61,6.61,0,0,1-1.959-2.068,10.764,10.764,0,0,1-.962-2.675c-.373-1.451-.763-2.886-1.176-4.326A10.8,10.8,0,0,1,258,674.1a6.36,6.36,0,0,1,.639-2.232c.5-1.168.978-2.341,1.365-3.553a8.362,8.362,0,0,0,.523-2.984,6.754,6.754,0,0,0-.816-2.619c-1.547-3.08-3.544-5.9-4.933-9.068-1.439-3.281-2.7-7.311-1.51-10.87a12.743,12.743,0,0,1,.825-1.9,13.154,13.154,0,0,0,.606-1.3,6.413,6.413,0,0,0,.433-1.436c.064-.453-.3-.869-.5-1.263-1.255-2.372-2.529-5.1-2.455-7.855a6.251,6.251,0,0,1,1.56-3.928c1.078-1.278,2.25-2.495,3.406-3.7,1.951-2.035,3.957-4.027,5.81-6.154a32.447,32.447,0,0,0,4.109-6.474c.306-.587.607-1.178.9-1.774-.033.068-.562.144-.647.166s-.6.084-.642.18Z" transform="translate(-250.87 -606.986)" fill="#724128"/>
        </g>
        <g id="Grupo_1185430" data-name="Grupo 1185430" transform="translate(29.074 86.472)">
          <path id="Trazado_1050056" data-name="Trazado 1050056" d="M308.391,578.23c-1.255,2.483-2.417,5.016-3.535,7.563a89.7,89.7,0,0,0-5.181,14.224,15.49,15.49,0,0,0-.639,6.279l1.291-.346,0,0-1.291.346a8.9,8.9,0,0,1,.593,1.069q.753,1.375,1.478,2.766c1.325,2.541,2.6,5.117,3.695,7.768a28.61,28.61,0,0,1,1.26,3.575c.054.2.033.42.2.548a3.428,3.428,0,0,0,.667.335c2.06.914,4.188,1.672,6.253,2.575a36.446,36.446,0,0,1,3.381,1.646,12.085,12.085,0,0,1,1.28.817,5.489,5.489,0,0,1,.486.4c.106.1.164.76.277.848.208.163.633-.323.88-.263.7.167,1.4.326,2.1.5,2.3.564,4.587,1.223,6.824,2.015a50.111,50.111,0,0,1,8.409,3.818,36,36,0,0,1,4.134,2.776q.994.777,1.921,1.633a9.671,9.671,0,0,1,1.4,1.478,4.524,4.524,0,0,1,.916,2.574,4.753,4.753,0,0,1-1.62,3.266,12.914,12.914,0,0,1-2.345,1.77l.087-.027c-.142.041-.283.083-.425.125l-.173.052-.081.024-.034.01c-.067.02-.084.023.009,0l.076-.021c.155-.042.4-.108.554-.149.009,0,.214-.044.128-.033.02,0,.028-.006-.033.008-.113.025-.227.048-.341.066a7.568,7.568,0,0,1-1.9.014,33.623,33.623,0,0,1-3.577-.6c-2.142-.443-4.27-.956-6.394-1.476-3.44-.843-6.871-1.722-10.3-2.607q-1.677-.433-3.353-.868l-1.77-.46c-.611-.159-1.2-.407-1.792-.626l-5.545-2.05-5.73-2.118c-.426-.157-.852-.344-1.287-.476-.82-.249-1.66-.419-2.477-.693a18.186,18.186,0,0,1-3.357-1.471,6.859,6.859,0,0,1-2.61-2.371,3.38,3.38,0,0,1-.449-1.531c0,.087-1.3.24-1.291.346.106,2.413,2.7,3.851,4.649,4.7a23.222,23.222,0,0,0,3.008,1.056c.4.112.816.188,1.216.3.2.057.389.143.58.214l3.817,1.411,4.05,1.5,2.785,1.03c1.082.4,2.162.869,3.277,1.16q5.919,1.541,11.847,3.045c2.533.637,5.068,1.267,7.614,1.847,1.493.339,2.991.671,4.5.911a13.559,13.559,0,0,0,2.457.221,9.206,9.206,0,0,0,2.181-.413c.359-.1.715-.2,1.071-.307l.087-.026.045-.013a2.839,2.839,0,0,0,.741-.412,10.561,10.561,0,0,0,2.224-1.889,4.2,4.2,0,0,0,1.136-3.3,4.841,4.841,0,0,0-1.284-2.568,33.8,33.8,0,0,0-8.436-6.147,53.79,53.79,0,0,0-8.674-3.609c-2.1-.679-4.235-1.242-6.384-1.746-.511-.12-1.035-.218-1.536-.375a.488.488,0,0,1-.278-.178,5.33,5.33,0,0,0-.961-.818,21.44,21.44,0,0,0-3.182-1.732c-1.239-.577-2.5-1.1-3.768-1.618-1.06-.43-2.127-.843-3.183-1.284-.324-.135-.65-.269-.962-.428-.122-.062-.288-.127-.351-.253a4.054,4.054,0,0,1-.146-.617c-.082-.3-.172-.588-.268-.879-.21-.641-.446-1.275-.7-1.9-.564-1.42-1.193-2.814-1.85-4.194-1.115-2.344-2.311-4.651-3.558-6.928a9.026,9.026,0,0,0-.6-1.089,3.377,3.377,0,0,0-.647.166c-.051.013-.634.2-.644.179v0c.026.047,1.289-.357,1.291-.346a14.14,14.14,0,0,1,.447-5.473,58.616,58.616,0,0,1,2.171-7.115c1.586-4.36,3.449-8.621,5.439-12.811.424-.893.852-1.785,1.3-2.667-.035.07-.56.143-.647.166-.152.041-.3.081-.456.124-.032.009-.175.03-.188.055Z" transform="translate(-289.158 -577.884)" fill="#724128"/>
        </g>
        <g id="Grupo_1185431" data-name="Grupo 1185431" transform="translate(38.442 129.98)">
          <path id="Trazado_1050057" data-name="Trazado 1050057" d="M327.945,719.1a46.272,46.272,0,0,0-6.333,1.087,7.252,7.252,0,0,0-1.8.653c-.153.088-.4.324-.131.439a1.179,1.179,0,0,0,.91-.138c.038-.022.077-.042.116-.062.121-.066-.161.07.008,0,.1-.044.2-.084.309-.122.059-.022.275-.074.035-.014.063-.016.125-.04.187-.059q.2-.061.4-.115c.3-.08.6-.152.906-.218l.241-.052c.043-.009.189-.031-.011,0,.041-.007.083-.017.124-.025q.25-.05.5-.1c1.185-.223,2.378-.4,3.574-.558.252-.033.5-.065.757-.095.224-.026.674-.149.742-.405s-.415-.233-.541-.218Z" transform="translate(-319.563 -719.086)" fill="#724128"/>
        </g>
        <g id="Grupo_1185432" data-name="Grupo 1185432" transform="translate(57.685 136.372)">
          <rect id="Rectángulo_416351" data-name="Rectángulo 416351" width="1.787" height="0.446" transform="translate(0 1.131) rotate(-39.262)" fill="#724128"/>
        </g>
        <g id="Grupo_1185433" data-name="Grupo 1185433" transform="translate(30.837 148.328)">
          <path id="Trazado_1050058" data-name="Trazado 1050058" d="M309.038,778.634a7.614,7.614,0,0,1,1.32,1.945,9.674,9.674,0,0,1,.408.93q.108.285.2.576c.031.1.024.167.108.2a.7.7,0,0,0,.2-.009,12.846,12.846,0,0,1,1.357.035,31.826,31.826,0,0,1,7.055,1.441,24.743,24.743,0,0,1,6.719,3.008c.189.13.374.264.554.406a5.617,5.617,0,0,0,.572.491.85.85,0,0,0,.38.052q.631.027,1.261.063c3.368.187,6.733.486,10.077.926,2.057.271,4.109.6,6.139,1.026a34.409,34.409,0,0,1,5.314,1.5,8.989,8.989,0,0,1,3.462,2.069,6.514,6.514,0,0,1,1.024,1.745,6.6,6.6,0,0,1,.592,2.546,13.285,13.285,0,0,1-.523,3.6c-.1.4-.214.8-.331,1.2-.072.243-.115.688-.33.827a.825.825,0,0,1-.138.063c-.027.011-.055.02-.082.031l-.028.009q-.551.174,1-.267c-.15.029-.3.058-.449.078a15.334,15.334,0,0,1-2.533.063c-1.172-.043-2.343-.141-3.51-.256-5.57-.552-11.082-1.531-16.625-2.291-3.932-.539-7.884-.925-11.821-1.422a136.931,136.931,0,0,1-13.725-2.273,41.693,41.693,0,0,1-5.673-1.669,12.2,12.2,0,0,1-3.793-2.106,17.167,17.167,0,0,1-2.339-2.133c-.043-.087,1.741,3.1,2.791,3.659a24.741,24.741,0,0,0,4.91,1.873,96.726,96.726,0,0,0,13.425,2.585c4.3.594,8.613,1.046,12.92,1.573,5.15.63,10.261,1.542,15.41,2.184a67.373,67.373,0,0,0,7.382.639,10.651,10.651,0,0,0,2.287-.145,12.1,12.1,0,0,0,1.665-.448.837.837,0,0,0,.275-.127,1.169,1.169,0,0,0,.173-.47q.111-.368.216-.738c.6-2.128,1.128-4.437.289-6.574a7.448,7.448,0,0,0-1.02-1.92,5.372,5.372,0,0,0-1.333-1.134,17.29,17.29,0,0,0-4.5-1.847,53.024,53.024,0,0,0-5.854-1.285c-3.781-.639-7.605-1.034-11.43-1.3-1.087-.077-2.174-.143-3.263-.19a1.39,1.39,0,0,1-.368-.015c-.081-.031-.182-.17-.249-.228q-.132-.116-.269-.226c-.193-.156-.392-.3-.595-.444a18.462,18.462,0,0,0-3.07-1.673,36.253,36.253,0,0,0-7.429-2.33,25.891,25.891,0,0,0-3.388-.487,12.533,12.533,0,0,0-1.347-.028.533.533,0,0,1-.149.007c-.084-.032-.077-.1-.108-.2q-.089-.291-.2-.576a9.663,9.663,0,0,0-.486-1.081c-.334-.635-2.492-1.4-2.534-1.448Z" transform="translate(-294.88 -778.634)" fill="#724128"/>
        </g>
        <g id="Grupo_1185434" data-name="Grupo 1185434" transform="translate(47.149 172.448)">
          <path id="Trazado_1050059" data-name="Trazado 1050059" d="M347.818,864.795l1.266.027q1.656.035,3.312.066,2.343.044,4.687.082,2.664.043,5.328.075,2.646.032,5.293.046c1.527.008,3.054.01,4.581-.005q2.253-.022,4.505-.115c.784-.033,1.57-.076,2.349-.173a17.734,17.734,0,0,0,2.741-.619,4,4,0,0,0,2.441-1.748,9.712,9.712,0,0,0,1.032-4.061c.047-.484.08-.97.108-1.455a6.668,6.668,0,0,1-.647.166,3.243,3.243,0,0,0-.644.179,15.789,15.789,0,0,1-.756,4.715,3.9,3.9,0,0,1-1.941,2.222,5.811,5.811,0,0,1-.746.284,6.529,6.529,0,0,0,.854-.229c.039-.02-.01,0-.026.006-.078.018-.157.035-.235.051-.157.032-.315.06-.474.084a21.654,21.654,0,0,1-2.188.2c-1.521.08-3.046.116-4.569.136-1.443.019-2.887.019-4.33.014q-2.568-.008-5.137-.039-2.642-.029-5.284-.071-2.4-.037-4.791-.081-1.8-.033-3.6-.07l-1.763-.037-.077,0a.887.887,0,0,0-.19.046c-.153.039-.3.08-.457.12l-.456.124a.806.806,0,0,1-.188.056Z" transform="translate(-347.818 -856.914)" fill="#724128"/>
        </g>
        <g id="Grupo_1185435" data-name="Grupo 1185435" transform="translate(64.797 147.982)">
          <path id="Trazado_1050060" data-name="Trazado 1050060" d="M407.75,777.8a4.048,4.048,0,0,0-1.991,1.193,2.7,2.7,0,0,0-.663,1.785,1.427,1.427,0,0,0,.137.789,2.614,2.614,0,0,0,.193.237,6.633,6.633,0,0,0,1.538,1.19,15.266,15.266,0,0,0,2.96,1.321,27.239,27.239,0,0,0,4.588,1.077c.994.152,1.995.261,3,.337q.842.064,1.685.1.436.017.873.028a4.846,4.846,0,0,0,1.4-.3,3.079,3.079,0,0,0,1.572-1.337,4.321,4.321,0,0,0,.772-2.428,2.641,2.641,0,0,0-.777-1.921,6.824,6.824,0,0,0-2.088-1.292,14.8,14.8,0,0,0-4.652-1.008c-.543-.04-1.087-.058-1.632-.061a.944.944,0,0,0-.19.046q-.229.059-.457.121c-.152.041-.3.082-.456.124a.87.87,0,0,1-.188.055,19.276,19.276,0,0,1,4.695.541,10.027,10.027,0,0,1,2.707,1.092,5.106,5.106,0,0,1,1.162.924,2.77,2.77,0,0,1,.581,1.983,4.438,4.438,0,0,1-.793,2.21,3.256,3.256,0,0,1-1.408,1.256l1.291-.346a41.9,41.9,0,0,1-7.025-.677,23.167,23.167,0,0,1-4.651-1.352A11.129,11.129,0,0,1,407.3,782a4.6,4.6,0,0,1-.658-.623.74.74,0,0,1-.193-.317,3.066,3.066,0,0,1,.016-1.289,3.363,3.363,0,0,1,2.283-2.222c.018-.006.037-.011.055-.018l-.136.039c-.03.008.189-.052.188-.055s-.22.054-.19.046c-.306.078-.61.161-.914.245Z" transform="translate(-405.096 -777.51)" fill="#724128"/>
        </g>
        <g id="Grupo_1185436" data-name="Grupo 1185436" transform="translate(176.161 160.081)">
          <path id="Trazado_1050061" data-name="Trazado 1050061" d="M779.28,817.125c.356.238.7.5,1.041.754.895.679,1.76,1.4,2.6,2.144a44.354,44.354,0,0,1,3.433,3.41,37.083,37.083,0,0,1,3.478,4.483,28,28,0,0,1,2.806,5.443,21.441,21.441,0,0,1,1.372,6.241,19.73,19.73,0,0,1-.813,6.888,25.088,25.088,0,0,1-3.749,7.384,41.908,41.908,0,0,1-7.406,7.705,78.633,78.633,0,0,1-11.9,7.95q-1.791,1-3.616,1.926a3.493,3.493,0,0,1,.647-.167,3.338,3.338,0,0,0,.644-.179,91.948,91.948,0,0,0,13.09-7.974,48.551,48.551,0,0,0,8.406-7.766,27.831,27.831,0,0,0,4.58-7.5,20.252,20.252,0,0,0,1.445-7,20.506,20.506,0,0,0-.913-6.411,26.107,26.107,0,0,0-2.528-5.65,34.889,34.889,0,0,0-3.393-4.738,43.1,43.1,0,0,0-3.507-3.677q-1.379-1.288-2.863-2.458-.477-.375-.966-.734a4.121,4.121,0,0,0-.523-.373.635.635,0,0,1-.066-.045.937.937,0,0,0-.19.046q-.229.059-.457.121c-.152.041-.3.082-.456.124a.878.878,0,0,1-.188.055Z" transform="translate(-766.519 -816.778)" fill="#724128"/>
        </g>
        <g id="Grupo_1185437" data-name="Grupo 1185437" transform="translate(88.868 228.63)">
          <path id="Trazado_1050062" data-name="Trazado 1050062" d="M483.214,1039.937a1.89,1.89,0,0,0,.381-.092q.458-.117.914-.24c.3-.082.609-.164.912-.248a1.729,1.729,0,0,1,.376-.11,1.9,1.9,0,0,0-.38.092q-.458.117-.914.241c-.3.082-.609.163-.912.248a1.762,1.762,0,0,1-.376.11Z" transform="translate(-483.214 -1039.246)"/>
        </g>
        <g id="Grupo_1185438" data-name="Grupo 1185438" transform="translate(66.371 189.202)">
          <path id="Trazado_1050063" data-name="Trazado 1050063" d="M410.2,911.98c.268.228.549.442.83.653.79.595,1.606,1.155,2.436,1.693,1.3.844,2.642,1.631,4.007,2.368q2.693,1.454,5.513,2.653a72.159,72.159,0,0,0,6.961,2.555,75.356,75.356,0,0,0,8.306,2.065,78.661,78.661,0,0,0,9.675,1.214,83.689,83.689,0,0,0,10.949-.032,92.146,92.146,0,0,0,12.028-1.633,125.621,125.621,0,0,0,14.467-3.862q1.667-.551,3.317-1.153c-.832.3-1.746.388-2.582.692-2.251.819-4.526,1.573-6.826,2.242q-.387.113-.774.222l-.313.087c-.079.022-.173.046-.028.008.038-.01.277-.072.123-.033l-.246.063q-.372.1-.745.187-1.578.388-3.169.721a92,92,0,0,1-12,1.72,84.156,84.156,0,0,1-10.77.129,79.078,79.078,0,0,1-9.562-1.087,75.766,75.766,0,0,1-8.3-1.948,72.789,72.789,0,0,1-6.982-2.452q-2.862-1.174-5.612-2.6c-1.426-.742-2.826-1.537-4.187-2.391-.923-.579-1.829-1.184-2.709-1.826q-.4-.29-.786-.592a2.465,2.465,0,0,0-.39-.313.274.274,0,0,1-.048-.04,2.178,2.178,0,0,0-.38.092c-.305.078-.609.159-.914.241s-.609.164-.912.248a2.054,2.054,0,0,1-.375.111Z" transform="translate(-410.203 -911.285)" fill="#724128"/>
        </g>
        <g id="Grupo_1185439" data-name="Grupo 1185439" transform="translate(76.683 172.843)">
          <path id="Trazado_1050064" data-name="Trazado 1050064" d="M443.668,897.98c.971.279,1.953.522,2.935.76,2.678.65,5.377,1.217,8.086,1.723q5.974,1.116,12.014,1.821c4.921.575,9.868.946,14.822,1.078a137.169,137.169,0,0,0,16.482-.512,106.941,106.941,0,0,0,16.812-2.9,85.659,85.659,0,0,0,16.233-5.822,61.084,61.084,0,0,0,7.648-4.266,37.378,37.378,0,0,0,6.266-5.008c3.213-3.366,6.118-7.2,7.446-11.693a13.5,13.5,0,0,0-1.8-12.271,18.566,18.566,0,0,0-2.694-2.694.913.913,0,0,0-.3,1.646c1.54,1.54,4.639,5.836,3.958,10.136a26.671,26.671,0,0,1-5.058,11.553,38.579,38.579,0,0,1-11.975,10.455,81.454,81.454,0,0,1-15.883,6.86,92.968,92.968,0,0,1-17.041,3.413,132.418,132.418,0,0,1-16.336.8c-4.957-.052-9.911-.349-14.843-.855q-6.228-.639-12.4-1.717-4.408-.769-8.771-1.769c-1.385-.32-2.753-.726-4.138-1.037-.059-.013-.118-.033-.176-.05-.143-.041-.5.128-.647.166s-.5.222-.644.18Z" transform="translate(-443.668 -858.196)" fill="#724128"/>
        </g>
        <g id="Grupo_1185440" data-name="Grupo 1185440" transform="translate(0 149.914)">
          <path id="Trazado_1050065" data-name="Trazado 1050065" d="M362.645,865.945c-1.793.669-3.649,1.2-5.493,1.7A148.186,148.186,0,0,1,341,871.013a201.24,201.24,0,0,1-24.862,2.309,222.757,222.757,0,0,1-32.2-1.331q-9.295-1.053-18.485-2.849-4.856-.947-9.671-2.094a70.133,70.133,0,0,1-8.215-2.257c-6.887-2.556-13.8-5.067-20.444-8.216-6.973-3.3-13.763-7.3-19.329-12.706a37.5,37.5,0,0,1-11.052-20.019,39.544,39.544,0,0,1-.638-6.454,23.065,23.065,0,0,1,.411-6.157,39.78,39.78,0,0,1,2.326-6.746c3.332-7.149,9.427-12.616,15.72-17.151a40.242,40.242,0,0,1,4.5-3.077c-.363.22.218-.672-.149-.449-8.078,4.894-14.362,9.487-19.5,17.62a31.7,31.7,0,0,0-3.383,7.337c-.346,1.087-.692,2.2-.934,3.314a19.373,19.373,0,0,0-.265,3.432q-.054,1.708.024,3.417a36.73,36.73,0,0,0,8.716,22.147c5.1,6.012,11.78,10.482,18.727,14.086a184.9,184.9,0,0,0,21.131,8.913c1.754.649,3.5,1.39,5.309,1.868q5.055,1.334,10.164,2.45,9.43,2.06,19.007,3.351a224.855,224.855,0,0,0,33.662,2,204.036,204.036,0,0,0,26.265-2.1,166.271,166.271,0,0,0,17.3-3.446c2.842-.732,5.691-1.5,8.461-2.475.116-.041.233-.082.349-.125-.414.154-.875.191-1.291.345Z" transform="translate(-194.801 -783.78)" fill="#724128"/>
        </g>
      </g>
    </g>
  </g>
</svg>
