<svg xmlns="http://www.w3.org/2000/svg" xmlns:xlink="http://www.w3.org/1999/xlink" width="110" height="110" viewBox="0 0 110 110">
  <defs>
    <filter id="Trazado_982547" x="0" y="0" width="110" height="110" filterUnits="userSpaceOnUse">
      <feOffset dy="3" input="SourceAlpha"/>
      <feGaussianBlur stdDeviation="3" result="blur"/>
      <feFlood flood-opacity="0.161"/>
      <feComposite operator="in" in2="blur"/>
      <feComposite in="SourceGraphic"/>
    </filter>
  </defs>
  <g id="Grupo_1185484" data-name="Grupo 1185484" transform="translate(-694.793 -8648.584)">
    <g id="Grupo_1183657" data-name="Grupo 1183657" transform="translate(703.793 8654.584)">
      <g id="Grupo_1179603" data-name="Grupo 1179603" transform="translate(0 0)">
        <g id="Grupo_1172349" data-name="Grupo 1172349" transform="translate(0 0)">
          <g id="Grupo_1164700" data-name="Grupo 1164700">
            <g id="Grupo_1160931" data-name="Grupo 1160931" transform="translate(0 0)">
              <g id="Grupo_1160749" data-name="Grupo 1160749">
                <g id="Grupo_1158891" data-name="Grupo 1158891">
                  <g id="Grupo_1157406" data-name="Grupo 1157406">
                    <g id="Grupo_1155793" data-name="Grupo 1155793">
                      <g id="Grupo_1154704" data-name="Grupo 1154704">
                        <g id="Grupo_1150790" data-name="Grupo 1150790">
                          <g id="Grupo_1154214" data-name="Grupo 1154214">
                            <g id="Grupo_1152583" data-name="Grupo 1152583">
                              <g id="Grupo_1146973" data-name="Grupo 1146973">
                                <g id="Grupo_1146954" data-name="Grupo 1146954">
                                  <g transform="matrix(1, 0, 0, 1, -9, -6)" filter="url(#Trazado_982547)">
                                    <g id="Trazado_982547-2" data-name="Trazado 982547" transform="translate(9 6)" fill="#effbfe">
                                      <path d="M 46.00000381469727 90.49986267089844 C 39.99188232421875 90.49986267089844 34.16428375244141 89.32350158691406 28.67905807495117 87.00344848632812 C 23.38021659851074 84.76223754882812 18.62104415893555 81.55341339111328 14.53376388549805 77.46613311767578 C 10.44647026062012 73.37885284423828 7.237643718719482 68.61968994140625 4.996417045593262 63.32085037231445 C 2.676363706588745 57.83565139770508 1.500003814697266 52.00805282592773 1.500003814697266 45.99993133544922 C 1.500003814697266 39.99182510375977 2.676363706588745 34.16422653198242 4.996417045593262 28.67901039123535 C 7.237643718719482 23.38017082214355 10.44647026062012 18.62101173400879 14.53376388549805 14.53373146057129 C 18.62104415893555 10.44645118713379 23.38021659851074 7.237624645233154 28.67905807495117 4.996411323547363 C 34.16428375244141 2.676357984542847 39.99188232421875 1.499997973442078 46.00000381469727 1.499997973442078 C 52.00812530517578 1.499997973442078 57.83573532104492 2.676357984542847 63.32094955444336 4.996411323547363 C 68.61980438232422 7.237624645233154 73.37896728515625 10.44645118713379 77.46625518798828 14.53373146057129 C 81.55353546142578 18.62101173400879 84.76236724853516 23.38017082214355 87.00359344482422 28.67901039123535 C 89.32364654541016 34.16422653198242 90.5 39.99182510375977 90.5 45.99993133544922 C 90.5 52.00805282592773 89.32364654541016 57.83565139770508 87.00359344482422 63.32085037231445 C 84.76236724853516 68.61968994140625 81.55353546142578 73.37885284423828 77.46625518798828 77.46613311767578 C 73.37896728515625 81.55341339111328 68.61980438232422 84.76223754882812 63.32094955444336 87.00344848632812 C 57.83573532104492 89.32350158691406 52.00812530517578 90.49986267089844 46.00000381469727 90.49986267089844 Z" stroke="none"/>
                                      <path d="M 46.00000381469727 3 C 40.19371795654297 3 34.56270217895508 4.136505126953125 29.26338958740234 6.377914428710938 C 24.14333343505859 8.54351806640625 19.54443359375 11.64438629150391 15.59442138671875 15.59439086914062 C 11.64440155029297 19.54440307617188 8.543533325195312 24.14330291748047 6.3779296875 29.26334381103516 C 4.136505126953125 34.56266021728516 3.000007629394531 40.19366073608398 3.000007629394531 45.99993133544922 C 3.000007629394531 51.80620193481445 4.136505126953125 57.43720245361328 6.3779296875 62.73651885986328 C 8.543533325195312 67.85655975341797 11.64440155029297 72.45545959472656 15.59442138671875 76.40547180175781 C 19.54443359375 80.35547637939453 24.14333343505859 83.45634460449219 29.26338958740234 85.6219482421875 C 34.56270217895508 87.86335754394531 40.19371795654297 88.99986267089844 46.00000381469727 88.99986267089844 C 51.80628967285156 88.99986267089844 57.43730545043945 87.86335754394531 62.73663330078125 85.6219482421875 C 67.85667419433594 83.45634460449219 72.45558929443359 80.35547637939453 76.40560150146484 76.40547180175781 C 80.35560607910156 72.45545959472656 83.45648956298828 67.85655975341797 85.62208557128906 62.73651885986328 C 87.86350250244141 57.43720245361328 89 51.80620193481445 89 45.99993133544922 C 89 40.19366073608398 87.86350250244141 34.56266021728516 85.62208557128906 29.26334381103516 C 83.45648956298828 24.14330291748047 80.35560607910156 19.54440307617188 76.40560150146484 15.59439086914062 C 72.45558929443359 11.64438629150391 67.85667419433594 8.54351806640625 62.73663330078125 6.377914428710938 C 57.43730545043945 4.136505126953125 51.80628967285156 3 46.00000381469727 3 M 46.00000381469727 0 C 71.40510559082031 0 92 20.59487152099609 92 45.99993133544922 C 92 71.40499114990234 71.40510559082031 91.99986267089844 46.00000381469727 91.99986267089844 C 20.59491729736328 91.99986267089844 7.62939453125e-06 71.40499114990234 7.62939453125e-06 45.99993133544922 C 7.62939453125e-06 20.59487152099609 20.59491729736328 0 46.00000381469727 0 Z" stroke="none" fill="#397b86"/>
                                    </g>
                                  </g>
                                </g>
                              </g>
                            </g>
                          </g>
                        </g>
                      </g>
                    </g>
                  </g>
                </g>
              </g>
            </g>
          </g>
        </g>
      </g>
    </g>
    <g id="ceramica" transform="translate(719.42 8645.381)">
      <g id="Grupo_1185482" data-name="Grupo 1185482" transform="translate(0.889 29.059)">
        <path id="Trazado_1050079" data-name="Trazado 1050079" d="M161.069,146.283a4.421,4.421,0,0,0-.952-2.747,2.35,2.35,0,0,1-.48-1.792,4.441,4.441,0,0,0-2.747-4.758,2.35,2.35,0,0,1-1.312-1.312,4.441,4.441,0,0,0-4.758-2.747,2.35,2.35,0,0,1-1.792-.48,4.441,4.441,0,0,0-5.494,0,2.35,2.35,0,0,1-1.792.48,4.441,4.441,0,0,0-4.758,2.747,2.351,2.351,0,0,1-1.312,1.312,4.441,4.441,0,0,0-2.747,4.758,2.349,2.349,0,0,1-.48,1.792,4.441,4.441,0,0,0,0,5.494,2.35,2.35,0,0,1,.48,1.792,4.441,4.441,0,0,0,2.747,4.758,2.35,2.35,0,0,1,1.312,1.312,4.441,4.441,0,0,0,4.758,2.747,2.349,2.349,0,0,1,1.792.48,4.441,4.441,0,0,0,5.494,0,2.35,2.35,0,0,1,1.792-.48,4.441,4.441,0,0,0,4.758-2.747,2.35,2.35,0,0,1,1.312-1.312,4.441,4.441,0,0,0,2.747-4.758,2.349,2.349,0,0,1,.48-1.792A4.422,4.422,0,0,0,161.069,146.283Z" transform="translate(-116.798 -120.138)" fill="#d07d62"/>
        <path id="Trazado_1050080" data-name="Trazado 1050080" d="M248.987,156.59a4.423,4.423,0,0,0-.951-2.747,2.346,2.346,0,0,1-.48-1.791,4.446,4.446,0,0,0-2.747-4.759,2.346,2.346,0,0,1-1.313-1.311,4.438,4.438,0,0,0-4.757-2.747,2.359,2.359,0,0,1-.907-.046,14.756,14.756,0,0,1-6.6,27.083,2.4,2.4,0,0,1,.219.153,4.44,4.44,0,0,0,5.494,0,2.353,2.353,0,0,1,1.793-.48A4.438,4.438,0,0,0,243.5,167.2a2.346,2.346,0,0,1,1.313-1.311,4.446,4.446,0,0,0,2.747-4.759,2.346,2.346,0,0,1,.48-1.791,4.426,4.426,0,0,0,.951-2.748Z" transform="translate(-204.715 -130.445)" fill="#be6a4f"/>
        <path id="Trazado_1050081" data-name="Trazado 1050081" d="M53.07,50.2,38.825,43.227a18.35,18.35,0,0,0-8.066-1.868H23.373L7.5,35.673V47.54l11.337,1.794,1.01,1.515a9.647,9.647,0,0,0,8.026,4.3H36.12a2.436,2.436,0,1,0,0-4.873h2.264a14.56,14.56,0,0,1,4.214.623l9.116,2.756A1.861,1.861,0,0,0,53.07,50.2Z" transform="translate(-7.502 -35.673)" fill="#ffcfc0"/>
        <path id="Trazado_1050082" data-name="Trazado 1050082" d="M53.837,52.836a1.914,1.914,0,0,1-.219.292,1.836,1.836,0,0,0-.55-.409L38.822,45.747a18.347,18.347,0,0,0-8.066-1.868h-6.99A2.281,2.281,0,0,1,23,43.746L7.5,38.194V35.669L23.37,41.356h7.386a18.347,18.347,0,0,1,8.066,1.868L53.068,50.2a1.859,1.859,0,0,1,.769,2.641Z" transform="translate(-7.499 -35.669)" fill="#ffb29f"/>
        <path id="Trazado_1050083" data-name="Trazado 1050083" d="M147.022,318.375l-1.01-1.515a9.647,9.647,0,0,0-8.026-4.3h-8.244a2.436,2.436,0,1,0,0,4.873h-2.264a14.56,14.56,0,0,1-4.214-.623l-9.116-2.756a1.861,1.861,0,0,0-1.357,3.453l14.245,6.971a18.349,18.349,0,0,0,8.066,1.868h7.386l15.871,5.686V320.169Z" transform="translate(-99.392 -279.745)" fill="#ffcfc0"/>
        <path id="Trazado_1050084" data-name="Trazado 1050084" d="M274.055,320.173v2.155l-11.349-1.647a2.282,2.282,0,0,1-1.571-.993l-.446-.669c-1.79-2.683-3.783-4.3-7.008-4.3h-8.244a2.434,2.434,0,0,0-2.186,1.359,2.416,2.416,0,0,1-.251-1.046,2.487,2.487,0,0,1,2.494-2.468h8.187a9.647,9.647,0,0,1,8.026,4.294l1.01,1.516Z" transform="translate(-215.087 -279.75)" fill="#ffb29f"/>
      </g>
      <g id="Grupo_1185483" data-name="Grupo 1185483" transform="translate(0 28.17)">
        <path id="Trazado_1050085" data-name="Trazado 1050085" d="M.59,29.9l5.472,1.96a.889.889,0,0,0,.6-1.674l-5.472-1.96A.889.889,0,0,0,.59,29.9Z" transform="translate(0 -28.17)"/>
        <path id="Trazado_1050086" data-name="Trazado 1050086" d="M60.157,105.479,44.285,99.792a.888.888,0,0,0-.3-.052H36.6a17.559,17.559,0,0,1-7.675-1.777L14.68,90.992a1,1,0,0,1-.4-1.38.972.972,0,0,1,1.11-.423L24.5,91.945a15.438,15.438,0,0,0,4.472.661h7.666a.889.889,0,1,0,0-1.778h-5.4a1.548,1.548,0,0,1,0-3.1h8.244a8.741,8.741,0,0,1,7.287,3.9l1.01,1.515a.889.889,0,0,0,.6.385l11.337,1.794a.908.908,0,0,0,.14.011A.889.889,0,0,0,60,93.571L49.043,91.838l-.794-1.191a10.527,10.527,0,0,0-3.9-3.5,5.267,5.267,0,0,0,.257-2.562c-.121-.831.59-1.421.922-2.116a.889.889,0,0,0-.419-1.185c-.884-.423-1.188.562-1.6,1.086a3.252,3.252,0,0,0-.662,2.47,3.509,3.509,0,0,1-.142,1.621,10.551,10.551,0,0,0-3.225-.5H31.239a3.325,3.325,0,0,0-2.952,4.856,13.658,13.658,0,0,1-3.269-.568l-3.868-1.17a4.67,4.67,0,0,1-2.813-1.954,3.514,3.514,0,0,1-.439-2.282,3.253,3.253,0,0,0-.662-2.47,3.58,3.58,0,0,1,0-4.393A3.252,3.252,0,0,0,17.9,75.5a3.51,3.51,0,0,1,.142-1.621,10.55,10.55,0,0,0,3.225.5h8.244a3.325,3.325,0,0,0,2.952-4.856,13.658,13.658,0,0,1,3.269.568l4.158,1.257a4.8,4.8,0,0,1,2.523,1.866,3.513,3.513,0,0,1,.439,2.283,3.252,3.252,0,0,0,.662,2.47c.318.4.511.966,1.113.966a.889.889,0,0,0,.78-1.314c-.334-.613-.906-1.1-.795-1.867a5.267,5.267,0,0,0-.5-3.126l.734.222a2.75,2.75,0,0,0,2-5.1L32.6,60.782a19.345,19.345,0,0,0-8.456-1.958H16.916l-6.356-2.277a.889.889,0,0,0-.6,1.674l6.5,2.329a.888.888,0,0,0,.3.052h7.386a17.56,17.56,0,0,1,7.675,1.777l14.245,6.971a.972.972,0,0,1-.708,1.8L36.243,68.4a15.438,15.438,0,0,0-4.472-.661H24.105a.889.889,0,1,0,0,1.778h5.4a1.548,1.548,0,1,1,0,3.1H21.264a8.741,8.741,0,0,1-7.287-3.9l-1.01-1.515a.89.89,0,0,0-.6-.385L1.029,65.015a.889.889,0,0,0-.278,1.756L11.7,68.5,12.5,69.7a10.527,10.527,0,0,0,3.9,3.5,5.269,5.269,0,0,0-.257,2.563,1.467,1.467,0,0,1-.3,1.114,5.329,5.329,0,0,0,0,6.594,1.467,1.467,0,0,1,.3,1.114,5.267,5.267,0,0,0,.5,3.126l-.734-.222a2.75,2.75,0,0,0-2,5.1l14.245,6.971a19.345,19.345,0,0,0,8.456,1.958h7.231l15.726,5.634a.889.889,0,0,0,.6-1.673Z" transform="translate(-0.001 -53.137)"/>
      </g>
    </g>
  </g>
</svg>
