<svg xmlns="http://www.w3.org/2000/svg" xmlns:xlink="http://www.w3.org/1999/xlink" width="110" height="110" viewBox="0 0 110 110">
  <defs>
    <filter id="Trazado_982547" x="0" y="0" width="110" height="110" filterUnits="userSpaceOnUse">
      <feOffset dy="3" input="SourceAlpha"/>
      <feGaussianBlur stdDeviation="3" result="blur"/>
      <feFlood flood-opacity="0.161"/>
      <feComposite operator="in" in2="blur"/>
      <feComposite in="SourceGraphic"/>
    </filter>
  </defs>
  <g id="Grupo_1185489" data-name="Grupo 1185489" transform="translate(2421.414 -8636.016)">
    <g id="Grupo_1183661" data-name="Grupo 1183661" transform="translate(-2412.414 8642.016)">
      <g id="Grupo_1179602" data-name="Grupo 1179602" transform="translate(0 0)">
        <g id="Grupo_1171898" data-name="Grupo 1171898" transform="translate(0 0)">
          <g id="Grupo_1164700" data-name="Grupo 1164700">
            <g id="Grupo_1160931" data-name="Grupo 1160931" transform="translate(0 0)">
              <g id="Grupo_1160749" data-name="Grupo 1160749">
                <g id="Grupo_1158891" data-name="Grupo 1158891">
                  <g id="Grupo_1157406" data-name="Grupo 1157406">
                    <g id="Grupo_1155793" data-name="Grupo 1155793">
                      <g id="Grupo_1154704" data-name="Grupo 1154704">
                        <g id="Grupo_1150790" data-name="Grupo 1150790">
                          <g id="Grupo_1154214" data-name="Grupo 1154214">
                            <g id="Grupo_1152583" data-name="Grupo 1152583">
                              <g id="Grupo_1146973" data-name="Grupo 1146973">
                                <g id="Grupo_1146954" data-name="Grupo 1146954">
                                  <g transform="matrix(1, 0, 0, 1, -9, -6)" filter="url(#Trazado_982547)">
                                    <g id="Trazado_982547-2" data-name="Trazado 982547" transform="translate(9 6)" fill="#effbfe">
                                      <path d="M 46.00000381469727 90.49986267089844 C 39.99188232421875 90.49986267089844 34.16428375244141 89.32350158691406 28.67905807495117 87.00344848632812 C 23.38021659851074 84.76223754882812 18.62104415893555 81.55341339111328 14.53376388549805 77.46613311767578 C 10.44647026062012 73.37885284423828 7.237643718719482 68.61968994140625 4.996417045593262 63.32085037231445 C 2.676363706588745 57.83565139770508 1.500003814697266 52.00805282592773 1.500003814697266 45.99993133544922 C 1.500003814697266 39.99182510375977 2.676363706588745 34.16422653198242 4.996417045593262 28.67901039123535 C 7.237643718719482 23.38017082214355 10.44647026062012 18.62101173400879 14.53376388549805 14.53373146057129 C 18.62104415893555 10.44645118713379 23.38021659851074 7.237624645233154 28.67905807495117 4.996411323547363 C 34.16428375244141 2.676357984542847 39.99188232421875 1.499997973442078 46.00000381469727 1.499997973442078 C 52.00812530517578 1.499997973442078 57.83573532104492 2.676357984542847 63.32094955444336 4.996411323547363 C 68.61980438232422 7.237624645233154 73.37896728515625 10.44645118713379 77.46625518798828 14.53373146057129 C 81.55353546142578 18.62101173400879 84.76236724853516 23.38017082214355 87.00359344482422 28.67901039123535 C 89.32364654541016 34.16422653198242 90.5 39.99182510375977 90.5 45.99993133544922 C 90.5 52.00805282592773 89.32364654541016 57.83565139770508 87.00359344482422 63.32085037231445 C 84.76236724853516 68.61968994140625 81.55353546142578 73.37885284423828 77.46625518798828 77.46613311767578 C 73.37896728515625 81.55341339111328 68.61980438232422 84.76223754882812 63.32094955444336 87.00344848632812 C 57.83573532104492 89.32350158691406 52.00812530517578 90.49986267089844 46.00000381469727 90.49986267089844 Z" stroke="none"/>
                                      <path d="M 46.00000381469727 3 C 40.19371795654297 3 34.56270217895508 4.136505126953125 29.26338958740234 6.377914428710938 C 24.14333343505859 8.54351806640625 19.54443359375 11.64438629150391 15.59442138671875 15.59439086914062 C 11.64440155029297 19.54440307617188 8.543533325195312 24.14330291748047 6.3779296875 29.26334381103516 C 4.136505126953125 34.56266021728516 3.000007629394531 40.19366073608398 3.000007629394531 45.99993133544922 C 3.000007629394531 51.80620193481445 4.136505126953125 57.43720245361328 6.3779296875 62.73651885986328 C 8.543533325195312 67.85655975341797 11.64440155029297 72.45545959472656 15.59442138671875 76.40547180175781 C 19.54443359375 80.35547637939453 24.14333343505859 83.45634460449219 29.26338958740234 85.6219482421875 C 34.56270217895508 87.86335754394531 40.19371795654297 88.99986267089844 46.00000381469727 88.99986267089844 C 51.80628967285156 88.99986267089844 57.43730545043945 87.86335754394531 62.73663330078125 85.6219482421875 C 67.85667419433594 83.45634460449219 72.45558929443359 80.35547637939453 76.40560150146484 76.40547180175781 C 80.35560607910156 72.45545959472656 83.45648956298828 67.85655975341797 85.62208557128906 62.73651885986328 C 87.86350250244141 57.43720245361328 89 51.80620193481445 89 45.99993133544922 C 89 40.19366073608398 87.86350250244141 34.56266021728516 85.62208557128906 29.26334381103516 C 83.45648956298828 24.14330291748047 80.35560607910156 19.54440307617188 76.40560150146484 15.59439086914062 C 72.45558929443359 11.64438629150391 67.85667419433594 8.54351806640625 62.73663330078125 6.377914428710938 C 57.43730545043945 4.136505126953125 51.80628967285156 3 46.00000381469727 3 M 46.00000381469727 0 C 71.40510559082031 0 92 20.59487152099609 92 45.99993133544922 C 92 71.40499114990234 71.40510559082031 91.99986267089844 46.00000381469727 91.99986267089844 C 20.59491729736328 91.99986267089844 7.62939453125e-06 71.40499114990234 7.62939453125e-06 45.99993133544922 C 7.62939453125e-06 20.59487152099609 20.59491729736328 0 46.00000381469727 0 Z" stroke="none" fill="#397b86"/>
                                    </g>
                                  </g>
                                </g>
                              </g>
                            </g>
                          </g>
                        </g>
                      </g>
                    </g>
                  </g>
                </g>
              </g>
            </g>
          </g>
        </g>
      </g>
    </g>
    <g id="en-capas" transform="translate(-2394.564 8653.418)">
      <g id="Grupo_1185488" data-name="Grupo 1185488" transform="translate(0.86 6.795)">
        <path id="Trazado_1050097" data-name="Trazado 1050097" d="M49.134,23.971a.875.875,0,0,0-.494-1.2l-19.77-8.9a4.825,4.825,0,0,0-3.626-.2l-8.3,2.9a5.229,5.229,0,0,0-2.853,2.213L7.917,28.958c-1.569,2.583,1.667,4.627,3.908,1.816C18.818,22.008,23.584,19.555,26,23.685s-2.427,4.763-8.087,8.59c-2.148,1.452-1.313,3.652,1,3.317,6.615-.965,9.637-1.507,15.277-3.463a4.414,4.414,0,0,1,3.649-.036l6.426,2.063a.863.863,0,0,0,1.166-.559Z" transform="translate(-7.503 -13.415)" fill="#91ccff" fill-rule="evenodd"/>
        <path id="Trazado_1050098" data-name="Trazado 1050098" d="M119.989,90.306a.875.875,0,0,0-.494-1.2l-1.716-.773-3.132,8.148a.867.867,0,0,1-1.166.559l-4.955-1.592a4.427,4.427,0,0,0-3.649.036c-3.259,1.131-14.218,3.8-16.827,3.756-1.17,1.378-.273,2.973,1.719,2.684,6.615-.965,9.637-1.507,15.277-3.463a4.414,4.414,0,0,1,3.649-.036l6.426,2.063a.863.863,0,0,0,1.166-.559Z" transform="translate(-78.358 -79.75)" fill="#77b3ec" fill-rule="evenodd"/>
        <path id="Trazado_1050099" data-name="Trazado 1050099" d="M340.2,117.878l18.055,10.039a.481.481,0,0,0,.777-.458V115.2a1.123,1.123,0,0,0-.845-1.17l-14.65-4.835Z" transform="translate(-302.069 -98.222)" fill="#fed2a4" fill-rule="evenodd"/>
        <path id="Trazado_1050100" data-name="Trazado 1050100" d="M340.2,150.28l18.055,10.039a.481.481,0,0,0,.777-.458V147.606a1.123,1.123,0,0,0-.845-1.169l-1.936-.64v9.464a.481.481,0,0,1-.777.458l-14.305-7.954Z" transform="translate(-302.069 -130.623)" fill="#ffbd86" fill-rule="evenodd"/>
        <path id="Trazado_1050101" data-name="Trazado 1050101" d="M51.588,280.293H49.821l-5.686-.585-5.247.585H26a3.062,3.062,0,1,0,0,6.124l12.346.78,13.24-.78a3.062,3.062,0,0,0,0-6.124Z" transform="translate(-21.17 -249.187)" fill="#966a5b" fill-rule="evenodd"/>
        <path id="Trazado_1050102" data-name="Trazado 1050102" d="M49.33,148.407a3.062,3.062,0,1,1,6.124,0,6.8,6.8,0,0,0,6.8,6.8H73.187a3.062,3.062,0,0,1,0,6.124H62.255A12.923,12.923,0,0,1,49.33,148.407Z" transform="translate(-44.536 -130.222)" fill="#b57f5f"/>
        <path id="Trazado_1050103" data-name="Trazado 1050103" d="M89.9,231.519a3.065,3.065,0,0,1-2.729,4.451H76.235a12.881,12.881,0,0,1-9.139-3.785,13.05,13.05,0,0,1-1.975-2.537,12.875,12.875,0,0,0,8.889,3.541H87.168A3.065,3.065,0,0,0,89.9,231.519Z" transform="translate(-58.516 -204.865)" fill="#966a5b"/>
        <g id="Grupo_1185487" data-name="Grupo 1185487" transform="translate(0.002 32.779)">
          <path id="Trazado_1050104" data-name="Trazado 1050104" d="M51.589,386.736,38.4,386.1l-12.4.64a3.062,3.062,0,1,0,0,6.124l12.457.78,13.129-.78a3.062,3.062,0,0,0,0-6.124Z" transform="translate(-21.172 -376.161)" fill="#966a5b" fill-rule="evenodd"/>
          <path id="Trazado_1050105" data-name="Trazado 1050105" d="M39.7,338.246H10.579a3.062,3.062,0,0,0,0,6.124H39.7a3.062,3.062,0,1,0,0-6.124Z" transform="translate(-7.518 -333.795)" fill="#b57f5f" fill-rule="evenodd"/>
          <path id="Trazado_1050106" data-name="Trazado 1050106" d="M7.631,354.515a3.07,3.07,0,0,0,3.048,2.781H39.8a3.071,3.071,0,0,0,3.064-3.061,3.032,3.032,0,0,0-.338-1.391,3.064,3.064,0,0,1-2.726,1.67H7.631Z" transform="translate(-7.618 -346.721)" fill="#966a5b" fill-rule="evenodd"/>
          <path id="Trazado_1050107" data-name="Trazado 1050107" d="M63.5,445.114H41.449a3.064,3.064,0,0,0,0,6.128H63.5a3.064,3.064,0,0,0,0-6.128Z" transform="translate(-34.85 -428.414)" fill="#b57f5f" fill-rule="evenodd"/>
          <path id="Trazado_1050108" data-name="Trazado 1050108" d="M38.5,461.383a3.072,3.072,0,0,0,3.048,2.784H63.6A3.073,3.073,0,0,0,66.66,461.1a3.039,3.039,0,0,0-.335-1.39,3.071,3.071,0,0,1-2.726,1.67Z" transform="translate(-34.95 -441.34)" fill="#966a5b" fill-rule="evenodd"/>
          <path id="Trazado_1050109" data-name="Trazado 1050109" d="M23.052,407.948a3.07,3.07,0,0,0,3.051,2.781H51.689a3.06,3.06,0,0,0,2.726-4.451,3.071,3.071,0,0,1-2.726,1.67Z" transform="translate(-21.272 -394.029)" fill="#80635e" fill-rule="evenodd"/>
          <path id="Trazado_1050110" data-name="Trazado 1050110" d="M23.052,301.08a3.073,3.073,0,0,0,3.051,2.781H51.689a3.07,3.07,0,0,0,3.061-3.061,3.032,3.032,0,0,0-.335-1.391,3.077,3.077,0,0,1-2.726,1.67H23.052Z" transform="translate(-21.272 -299.41)" fill="#80635e" fill-rule="evenodd"/>
        </g>
      </g>
      <path id="Trazado_1050111" data-name="Trazado 1050111" d="M29.511,57.135H7.461a2.2,2.2,0,0,0,0,4.406H29.512a2.2,2.2,0,0,0,0-4.406Zm-16.089-29.2c2.788-.416,4.916-.767,6.94-1.222A60.938,60.938,0,0,0,27.27,24.7a5.135,5.135,0,0,1,4.191-.042l6.5,2.089q1.881-4.888,3.759-9.776l-8.646-3.889a.859.859,0,0,1,.7-1.566l9.383,4.22a.859.859,0,0,1,.445,1.088l-.159.413,14.643,4.835a.858.858,0,0,1-.536,1.631L42.832,18.845l-2.775,7.219L58.239,36.172a.857.857,0,1,1-.832,1.5l-17.97-9.991-.149.393a.858.858,0,0,1-1.079.552l-7.274-2.336a3.78,3.78,0,0,0-3.106.029,63.049,63.049,0,0,1-7.089,2.07c-1.842.413-3.72.738-6.037,1.092a5.879,5.879,0,0,0,3.876,1.439H29.511a3.918,3.918,0,0,1,3.077,6.348,3.918,3.918,0,0,1,1.767,6.124,3.92,3.92,0,0,1,1.462,6.469,3.982,3.982,0,0,1-1.462.926,3.923,3.923,0,0,1-1.771,6.124,3.921,3.921,0,0,1-3.073,6.349H7.461A3.918,3.918,0,0,1,4.384,56.91a3.935,3.935,0,0,1-2.612-3.7,3.9,3.9,0,0,1,.845-2.427,3.977,3.977,0,0,1-1.462-.926,3.925,3.925,0,0,1,1.462-6.469,3.921,3.921,0,0,1,3.077-6.348h6.219a13.862,13.862,0,0,1-3.08-2.32,14.419,14.419,0,0,1-1.274-1.469.857.857,0,0,1,1.371-1.03,12.034,12.034,0,0,0,9.65,4.818H29.511a2.2,2.2,0,1,0,0-4.406H18.579a7.662,7.662,0,0,1-7.658-7.658,2.2,2.2,0,1,0-4.406,0,11.876,11.876,0,0,0,.7,4.052.859.859,0,1,1-1.618.578,13.856,13.856,0,0,1-.6-2.277,14.561,14.561,0,0,1-.182-1.651,3.474,3.474,0,0,1-2.32.669A2.715,2.715,0,0,1,.293,24.9a3.015,3.015,0,0,1,.25-3.012L6.72,11.73a5.65,5.65,0,0,1,1.391-1.56,6.708,6.708,0,0,1,1.91-1.02l8.3-2.9a5.48,5.48,0,0,1,2.128-.3,6.034,6.034,0,0,1,2.131.53L30.23,9.917a.859.859,0,0,1-.7,1.566L21.876,8.042a4.266,4.266,0,0,0-1.52-.383,3.747,3.747,0,0,0-1.472.211l-8.3,2.9a4.947,4.947,0,0,0-1.43.757,3.984,3.984,0,0,0-.975,1.085L2.006,22.78a1.389,1.389,0,0,0-.189,1.345,1.021,1.021,0,0,0,.832.52A2.236,2.236,0,0,0,4.51,23.621c3.294-4.129,6.128-6.9,8.49-8.285a7.11,7.11,0,0,1,3.1-1.072,3.855,3.855,0,0,1,2.729.848,5.433,5.433,0,0,1,1.27,1.52c1.839,3.135.432,4.614-2.456,6.306-.523.3-1.085.611-1.686.939-1,.543-2.109,1.15-3.268,1.878a5.888,5.888,0,0,0,.4,1.5,5.545,5.545,0,0,0,.335.682Zm-.942-4.061c.942-.565,1.836-1.053,2.658-1.5.595-.325,1.15-.627,1.637-.913,1.956-1.147,2.934-2.105,1.845-3.964a3.72,3.72,0,0,0-.861-1.043,2.207,2.207,0,0,0-1.559-.478,5.454,5.454,0,0,0-2.333.838,23.153,23.153,0,0,0-4.919,4.25,3.92,3.92,0,0,1,3.532,2.81Zm18.8,14.887H5.693a2.2,2.2,0,0,0,0,4.406H31.279a2.2,2.2,0,0,0,0-4.406ZM20.434,51.01a.859.859,0,1,1,0-1.719H33.046a2.2,2.2,0,0,0,0-4.406H3.922a2.2,2.2,0,0,0,0,4.406H16.538a.859.859,0,1,1,0,1.719H5.693a2.2,2.2,0,0,0,0,4.406H31.279a2.2,2.2,0,0,0,0-4.406Z" transform="translate(0 0)"/>
    </g>
  </g>
</svg>
