<svg xmlns="http://www.w3.org/2000/svg" xmlns:xlink="http://www.w3.org/1999/xlink" width="110" height="110" viewBox="0 0 110 110">
  <defs>
    <filter id="Trazado_982547" x="0" y="0" width="110" height="110" filterUnits="userSpaceOnUse">
      <feOffset dy="3" input="SourceAlpha"/>
      <feGaussianBlur stdDeviation="3" result="blur"/>
      <feFlood flood-opacity="0.161"/>
      <feComposite operator="in" in2="blur"/>
      <feComposite in="SourceGraphic"/>
    </filter>
  </defs>
  <g id="Grupo_1185490" data-name="Grupo 1185490" transform="translate(2105.609 -8636.016)">
    <g id="Grupo_1183660" data-name="Grupo 1183660" transform="translate(-2096.609 8642.016)">
      <g id="Grupo_1179603" data-name="Grupo 1179603" transform="translate(0 0)">
        <g id="Grupo_1172349" data-name="Grupo 1172349" transform="translate(0 0)">
          <g id="Grupo_1164700" data-name="Grupo 1164700">
            <g id="Grupo_1160931" data-name="Grupo 1160931" transform="translate(0 0)">
              <g id="Grupo_1160749" data-name="Grupo 1160749">
                <g id="Grupo_1158891" data-name="Grupo 1158891">
                  <g id="Grupo_1157406" data-name="Grupo 1157406">
                    <g id="Grupo_1155793" data-name="Grupo 1155793">
                      <g id="Grupo_1154704" data-name="Grupo 1154704">
                        <g id="Grupo_1150790" data-name="Grupo 1150790">
                          <g id="Grupo_1154214" data-name="Grupo 1154214">
                            <g id="Grupo_1152583" data-name="Grupo 1152583">
                              <g id="Grupo_1146973" data-name="Grupo 1146973">
                                <g id="Grupo_1146954" data-name="Grupo 1146954">
                                  <g transform="matrix(1, 0, 0, 1, -9, -6)" filter="url(#Trazado_982547)">
                                    <g id="Trazado_982547-2" data-name="Trazado 982547" transform="translate(9 6)" fill="#effbfe">
                                      <path d="M 46.00000381469727 90.49986267089844 C 39.99188232421875 90.49986267089844 34.16428375244141 89.32350158691406 28.67905807495117 87.00344848632812 C 23.38021659851074 84.76223754882812 18.62104415893555 81.55341339111328 14.53376388549805 77.46613311767578 C 10.44647026062012 73.37885284423828 7.237643718719482 68.61968994140625 4.996417045593262 63.32085037231445 C 2.676363706588745 57.83565139770508 1.500003814697266 52.00805282592773 1.500003814697266 45.99993133544922 C 1.500003814697266 39.99182510375977 2.676363706588745 34.16422653198242 4.996417045593262 28.67901039123535 C 7.237643718719482 23.38017082214355 10.44647026062012 18.62101173400879 14.53376388549805 14.53373146057129 C 18.62104415893555 10.44645118713379 23.38021659851074 7.237624645233154 28.67905807495117 4.996411323547363 C 34.16428375244141 2.676357984542847 39.99188232421875 1.499997973442078 46.00000381469727 1.499997973442078 C 52.00812530517578 1.499997973442078 57.83573532104492 2.676357984542847 63.32094955444336 4.996411323547363 C 68.61980438232422 7.237624645233154 73.37896728515625 10.44645118713379 77.46625518798828 14.53373146057129 C 81.55353546142578 18.62101173400879 84.76236724853516 23.38017082214355 87.00359344482422 28.67901039123535 C 89.32364654541016 34.16422653198242 90.5 39.99182510375977 90.5 45.99993133544922 C 90.5 52.00805282592773 89.32364654541016 57.83565139770508 87.00359344482422 63.32085037231445 C 84.76236724853516 68.61968994140625 81.55353546142578 73.37885284423828 77.46625518798828 77.46613311767578 C 73.37896728515625 81.55341339111328 68.61980438232422 84.76223754882812 63.32094955444336 87.00344848632812 C 57.83573532104492 89.32350158691406 52.00812530517578 90.49986267089844 46.00000381469727 90.49986267089844 Z" stroke="none"/>
                                      <path d="M 46.00000381469727 3 C 40.19371795654297 3 34.56270217895508 4.136505126953125 29.26338958740234 6.377914428710938 C 24.14333343505859 8.54351806640625 19.54443359375 11.64438629150391 15.59442138671875 15.59439086914062 C 11.64440155029297 19.54440307617188 8.543533325195312 24.14330291748047 6.3779296875 29.26334381103516 C 4.136505126953125 34.56266021728516 3.000007629394531 40.19366073608398 3.000007629394531 45.99993133544922 C 3.000007629394531 51.80620193481445 4.136505126953125 57.43720245361328 6.3779296875 62.73651885986328 C 8.543533325195312 67.85655975341797 11.64440155029297 72.45545959472656 15.59442138671875 76.40547180175781 C 19.54443359375 80.35547637939453 24.14333343505859 83.45634460449219 29.26338958740234 85.6219482421875 C 34.56270217895508 87.86335754394531 40.19371795654297 88.99986267089844 46.00000381469727 88.99986267089844 C 51.80628967285156 88.99986267089844 57.43730545043945 87.86335754394531 62.73663330078125 85.6219482421875 C 67.85667419433594 83.45634460449219 72.45558929443359 80.35547637939453 76.40560150146484 76.40547180175781 C 80.35560607910156 72.45545959472656 83.45648956298828 67.85655975341797 85.62208557128906 62.73651885986328 C 87.86350250244141 57.43720245361328 89 51.80620193481445 89 45.99993133544922 C 89 40.19366073608398 87.86350250244141 34.56266021728516 85.62208557128906 29.26334381103516 C 83.45648956298828 24.14330291748047 80.35560607910156 19.54440307617188 76.40560150146484 15.59439086914062 C 72.45558929443359 11.64438629150391 67.85667419433594 8.54351806640625 62.73663330078125 6.377914428710938 C 57.43730545043945 4.136505126953125 51.80628967285156 3 46.00000381469727 3 M 46.00000381469727 0 C 71.40510559082031 0 92 20.59487152099609 92 45.99993133544922 C 92 71.40499114990234 71.40510559082031 91.99986267089844 46.00000381469727 91.99986267089844 C 20.59491729736328 91.99986267089844 7.62939453125e-06 71.40499114990234 7.62939453125e-06 45.99993133544922 C 7.62939453125e-06 20.59487152099609 20.59491729736328 0 46.00000381469727 0 Z" stroke="none" fill="#397b86"/>
                                    </g>
                                  </g>
                                </g>
                              </g>
                            </g>
                          </g>
                        </g>
                      </g>
                    </g>
                  </g>
                </g>
              </g>
            </g>
          </g>
        </g>
      </g>
    </g>
    <g id="laboral" transform="translate(-2081.215 8632.545)">
      <g id="Grupo_1185485" data-name="Grupo 1185485" transform="translate(0.898 25.715)">
        <path id="Trazado_1050087" data-name="Trazado 1050087" d="M11.338,315.423H63.106a3.823,3.823,0,0,0,1.884-7.151c-.844-.488-.739-.468-.739-1.318a3.828,3.828,0,0,0-3.03-3.742c-.8-.173-.878-.295-.942-1.017a6.436,6.436,0,0,0-6.412-5.856,6.242,6.242,0,0,0-1.41.156c-.8.183-.884.085-1.227-.6a5.1,5.1,0,0,0-9.2.173c-.325.725-.508.81-1.237.8a6.418,6.418,0,0,0-4.809,1.986A6.714,6.714,0,0,0,34.2,303.1c-.061.929-.227.9-.844,1.193a3.847,3.847,0,0,0-2.23,3.477H11.338a3.826,3.826,0,1,0,0,7.652Z" transform="translate(-7.512 -262.088)" fill="#b57f5f" fill-rule="evenodd"/>
        <path id="Trazado_1050088" data-name="Trazado 1050088" d="M12.161,425.211H63.929a3.823,3.823,0,0,0,1.884-7.151,5.112,5.112,0,0,1-.444-.275,3.966,3.966,0,0,1,.064.7,3.837,3.837,0,0,1-3.826,3.826H8.447a3.845,3.845,0,0,0,3.714,2.9Z" transform="translate(-8.335 -371.876)" fill="#966a5b" fill-rule="evenodd"/>
        <path id="Trazado_1050089" data-name="Trazado 1050089" d="M100.4,205.157h3.6a.93.93,0,0,1,.929.929v17.972a.929.929,0,0,1-.929.925h-3.6a.931.931,0,0,1-.929-.925V206.086A.932.932,0,0,1,100.4,205.157Z" transform="translate(-88.474 -184.668)" fill="#d19a6e" fill-rule="evenodd"/>
        <path id="Trazado_1050090" data-name="Trazado 1050090" d="M59.308,364.6H39.516l1.515-6.06a1.074,1.074,0,0,1,1.152-.9H56.637a1.113,1.113,0,0,1,1.156.9Z" transform="translate(-35.69 -318.918)" fill="#e2a975" fill-rule="evenodd"/>
        <path id="Trazado_1050091" data-name="Trazado 1050091" d="M59.308,364.6H39.516l.725-2.9H54.16c1.024-.013,1.423-.515,1.132-1.552l-.627-2.511h1.972a1.113,1.113,0,0,1,1.156.9Z" transform="translate(-35.69 -318.918)" fill="#d19a6e" fill-rule="evenodd"/>
        <path id="Trazado_1050092" data-name="Trazado 1050092" d="M99.469,329h5.453v3.423H99.469Z" transform="translate(-88.475 -293.71)" fill="#96756f" fill-rule="evenodd"/>
        <path id="Trazado_1050093" data-name="Trazado 1050093" d="M137.062,58.7l1.6-2.281a.932.932,0,0,1,1.295-.23L168.56,76.225a.935.935,0,0,1,.227,1.295l-1.6,2.281a.932.932,0,0,1-1.295.227L137.289,59.995A.925.925,0,0,1,137.062,58.7Z" transform="translate(-121.425 -53.367)" fill="#d19a6e" fill-rule="evenodd"/>
        <path id="Trazado_1050094" data-name="Trazado 1050094" d="M140.648,39.893a27.834,27.834,0,0,1,5.3-5.755c.637-.508.9-.43,1.5-.017l6.371,4.463A1.018,1.018,0,0,1,154.313,40a28.159,28.159,0,0,1-3.6,6.947,27.659,27.659,0,0,1-5.294,5.748.987.987,0,0,1-1.494.034l-6.371-4.46a1.052,1.052,0,0,1-.5-1.441A27.483,27.483,0,0,1,140.648,39.893Z" transform="translate(-121.48 -33.784)" fill="#ffd496" fill-rule="evenodd"/>
        <path id="Trazado_1050095" data-name="Trazado 1050095" d="M153.188,70.2l.637.447a1.018,1.018,0,0,1,.488,1.413,28.159,28.159,0,0,1-3.6,6.947,27.659,27.659,0,0,1-5.294,5.748.987.987,0,0,1-1.494.034l-6.371-4.46a1.052,1.052,0,0,1-.5-1.441q.31-.945.749-1.938l5.755,4.033a.994.994,0,0,0,1.5-.034,27.864,27.864,0,0,0,5.294-5.751A29.374,29.374,0,0,0,153.188,70.2Z" transform="translate(-121.48 -65.845)" fill="#ffc263" fill-rule="evenodd"/>
      </g>
      <path id="Trazado_1050096" data-name="Trazado 1050096" d="M50.747,59.953a.9.9,0,0,1-.857,1.576,5.469,5.469,0,0,0-2.637-.664,5.406,5.406,0,0,0-1.976.363.9.9,0,0,1-1.2-.644,4.208,4.208,0,0,0-8.1.21.9.9,0,0,1-1.017.668,5.632,5.632,0,0,0-3.114.366,5.573,5.573,0,0,0-2.969,3.037,5.517,5.517,0,0,0-.393,2.06,5.36,5.36,0,0,0,.031.617.9.9,0,0,1-.749.983A2.929,2.929,0,0,0,25.411,71.4a.9.9,0,0,1-.895.9H4.724a2.928,2.928,0,0,0,0,5.856H56.492a2.93,2.93,0,0,0,2.335-4.7A2.951,2.951,0,0,0,57.278,72.4a.893.893,0,0,1-.617-1.122,3.181,3.181,0,0,0,.081-.8,2.92,2.92,0,0,0-.891-2,2.979,2.979,0,0,0-2.142-.827.89.89,0,0,1-.918-.979,5.6,5.6,0,0,0-.1-1.332,5.42,5.42,0,0,0-.427-1.3.9.9,0,0,1,1.62-.763,7.229,7.229,0,0,1,.684,2.647,4.724,4.724,0,0,1,3.945,5.043,4.751,4.751,0,0,1,1.735,1.413,4.72,4.72,0,0,1-3.758,7.568H4.724a4.723,4.723,0,0,1-.715-9.391L5.6,64.216a.9.9,0,0,1,.881-.678H11V55.947a.9.9,0,1,1,1.793,0v4.169h3.657V47.1H12.79v4.782a.9.9,0,1,1-1.793,0V46.2a.894.894,0,0,1,.895-.895h5.453a.894.894,0,0,1,.895.895V63.538h4.535a.9.9,0,0,1,.881.725l1.034,4.142a4.728,4.728,0,0,1,2-1.43,7.294,7.294,0,0,1,.525-2.779,7.354,7.354,0,0,1,3.928-4.016,7.274,7.274,0,0,1,3.338-.573,6,6,0,0,1,11.011-.322,7.508,7.508,0,0,1,1.759-.217A7.359,7.359,0,0,1,50.747,59.953Zm-6.7,3.714a.9.9,0,0,1,1.627.749,6.076,6.076,0,0,1-10.8.444.894.894,0,0,1,1.556-.881A4.307,4.307,0,0,0,38,65.572a4.278,4.278,0,0,0,6.046-1.9ZM30.108,69.418a.893.893,0,1,1,1.349-1.169,4.377,4.377,0,0,1,.807,1.362,4.463,4.463,0,0,1-4.185,6.019.9.9,0,0,1,0-1.793,2.683,2.683,0,0,0,2.511-3.6,2.749,2.749,0,0,0-.481-.817Zm25.248,3.721a.9.9,0,1,1,.874,1.562,4.768,4.768,0,0,1-6.453-6.558.9.9,0,0,1,1.549.9A2.978,2.978,0,0,0,53.9,73.515a2.908,2.908,0,0,0,1.454-.376ZM9.713,43.224a.9.9,0,1,1,.518,1.715l-2.823.854a.9.9,0,1,1-.518-1.715ZM13.9,39.419a.892.892,0,0,1-1.637.708l-1.047-2.41a.893.893,0,0,1,1.64-.708Zm-2.887,1.193a.9.9,0,1,1-.912,1.542L7.446,40.588a.9.9,0,0,1,.912-1.542ZM22.3,51.924a.893.893,0,1,1-1.64.705l-1.044-2.406a.892.892,0,0,1,1.637-.708Zm3.037-3.8a.9.9,0,0,1-.749,1.627L22.2,48.65a.9.9,0,0,1,.749-1.627ZM31.2,30.177a.893.893,0,1,1,1.023-1.464l2.288,1.6a.9.9,0,0,1,.342,1,23.465,23.465,0,0,1-1.576,4.026q-.325.656-.7,1.328L49.3,48.372a.9.9,0,0,1,.22,1.244l-2.664,3.8a.888.888,0,0,1-1.241.22l-7.036-4.924a.893.893,0,1,1,1.023-1.464l6.3,4.412,1.637-2.338L31.66,38.2c-.251.4-.515.793-.793,1.186s-.559.783-.844,1.156l6.256,4.379a.893.893,0,0,1-1.024,1.464L28.895,41.93q-.5.579-1.01,1.112a24.107,24.107,0,0,1-3.264,2.871A.9.9,0,0,1,23.56,45.9l-7.873-5.514a.9.9,0,0,1-.342-1.007,23.941,23.941,0,0,1,1.576-4.013c.217-.441.451-.885.7-1.329l-2.128-1.494a.892.892,0,0,1-.224-1.244l2.664-3.8a.9.9,0,0,1,1.244-.22l2.132,1.494c.335-.386.671-.759,1.01-1.112a23.468,23.468,0,0,1,3.264-2.871.89.89,0,0,1,1.058.01l2.26,1.583a.893.893,0,0,1-1.023,1.464l-1.756-1.23a23.077,23.077,0,0,0-2.508,2.278,30.013,30.013,0,0,0-5.087,7.266,22.6,22.6,0,0,0-1.281,3.135l6.839,4.792a23.4,23.4,0,0,0,2.508-2.277A29.642,29.642,0,0,0,29.4,38.365a29.518,29.518,0,0,0,2.274-3.823A22.441,22.441,0,0,0,32.958,31.4ZM18.541,32.5c.251-.4.515-.79.793-1.186s.559-.78.844-1.152l-1.295-.908-1.64,2.342ZM12.79,61.908v1.63h3.657v-1.63ZM5.87,70.5h17.5l-1.291-5.168H7.161Z" transform="translate(0)"/>
    </g>
  </g>
</svg>
