<svg xmlns="http://www.w3.org/2000/svg" xmlns:xlink="http://www.w3.org/1999/xlink" width="110" height="110" viewBox="0 0 110 110">
  <defs>
    <filter id="Trazado_982547" x="0" y="0" width="110" height="110" filterUnits="userSpaceOnUse">
      <feOffset dy="3" input="SourceAlpha"/>
      <feGaussianBlur stdDeviation="3" result="blur"/>
      <feFlood flood-opacity="0.161"/>
      <feComposite operator="in" in2="blur"/>
      <feComposite in="SourceGraphic"/>
    </filter>
  </defs>
  <g id="Grupo_1185500" data-name="Grupo 1185500" transform="translate(2422 -9001.016)">
    <g id="Grupo_1183663" data-name="Grupo 1183663" transform="translate(-2413 9007.016)">
      <g id="Grupo_1179602" data-name="Grupo 1179602" transform="translate(0 0)">
        <g id="Grupo_1171898" data-name="Grupo 1171898" transform="translate(0 0)">
          <g id="Grupo_1164700" data-name="Grupo 1164700">
            <g id="Grupo_1160931" data-name="Grupo 1160931" transform="translate(0 0)">
              <g id="Grupo_1160749" data-name="Grupo 1160749">
                <g id="Grupo_1158891" data-name="Grupo 1158891">
                  <g id="Grupo_1157406" data-name="Grupo 1157406">
                    <g id="Grupo_1155793" data-name="Grupo 1155793">
                      <g id="Grupo_1154704" data-name="Grupo 1154704">
                        <g id="Grupo_1150790" data-name="Grupo 1150790">
                          <g id="Grupo_1154214" data-name="Grupo 1154214">
                            <g id="Grupo_1152583" data-name="Grupo 1152583">
                              <g id="Grupo_1146973" data-name="Grupo 1146973">
                                <g id="Grupo_1146954" data-name="Grupo 1146954">
                                  <g transform="matrix(1, 0, 0, 1, -9, -6)" filter="url(#Trazado_982547)">
                                    <g id="Trazado_982547-2" data-name="Trazado 982547" transform="translate(9 6)" fill="#effbfe">
                                      <path d="M 46.00000381469727 90.49986267089844 C 39.99188232421875 90.49986267089844 34.16428375244141 89.32350158691406 28.67905807495117 87.00344848632812 C 23.38021659851074 84.76223754882812 18.62104415893555 81.55341339111328 14.53376388549805 77.46613311767578 C 10.44647026062012 73.37885284423828 7.237643718719482 68.61968994140625 4.996417045593262 63.32085037231445 C 2.676363706588745 57.83565139770508 1.500003814697266 52.00805282592773 1.500003814697266 45.99993133544922 C 1.500003814697266 39.99182510375977 2.676363706588745 34.16422653198242 4.996417045593262 28.67901039123535 C 7.237643718719482 23.38017082214355 10.44647026062012 18.62101173400879 14.53376388549805 14.53373146057129 C 18.62104415893555 10.44645118713379 23.38021659851074 7.237624645233154 28.67905807495117 4.996411323547363 C 34.16428375244141 2.676357984542847 39.99188232421875 1.499997973442078 46.00000381469727 1.499997973442078 C 52.00812530517578 1.499997973442078 57.83573532104492 2.676357984542847 63.32094955444336 4.996411323547363 C 68.61980438232422 7.237624645233154 73.37896728515625 10.44645118713379 77.46625518798828 14.53373146057129 C 81.55353546142578 18.62101173400879 84.76236724853516 23.38017082214355 87.00359344482422 28.67901039123535 C 89.32364654541016 34.16422653198242 90.5 39.99182510375977 90.5 45.99993133544922 C 90.5 52.00805282592773 89.32364654541016 57.83565139770508 87.00359344482422 63.32085037231445 C 84.76236724853516 68.61968994140625 81.55353546142578 73.37885284423828 77.46625518798828 77.46613311767578 C 73.37896728515625 81.55341339111328 68.61980438232422 84.76223754882812 63.32094955444336 87.00344848632812 C 57.83573532104492 89.32350158691406 52.00812530517578 90.49986267089844 46.00000381469727 90.49986267089844 Z" stroke="none"/>
                                      <path d="M 46.00000381469727 3 C 40.19371795654297 3 34.56270217895508 4.136505126953125 29.26338958740234 6.377914428710938 C 24.14333343505859 8.54351806640625 19.54443359375 11.64438629150391 15.59442138671875 15.59439086914062 C 11.64440155029297 19.54440307617188 8.543533325195312 24.14330291748047 6.3779296875 29.26334381103516 C 4.136505126953125 34.56266021728516 3.000007629394531 40.19366073608398 3.000007629394531 45.99993133544922 C 3.000007629394531 51.80620193481445 4.136505126953125 57.43720245361328 6.3779296875 62.73651885986328 C 8.543533325195312 67.85655975341797 11.64440155029297 72.45545959472656 15.59442138671875 76.40547180175781 C 19.54443359375 80.35547637939453 24.14333343505859 83.45634460449219 29.26338958740234 85.6219482421875 C 34.56270217895508 87.86335754394531 40.19371795654297 88.99986267089844 46.00000381469727 88.99986267089844 C 51.80628967285156 88.99986267089844 57.43730545043945 87.86335754394531 62.73663330078125 85.6219482421875 C 67.85667419433594 83.45634460449219 72.45558929443359 80.35547637939453 76.40560150146484 76.40547180175781 C 80.35560607910156 72.45545959472656 83.45648956298828 67.85655975341797 85.62208557128906 62.73651885986328 C 87.86350250244141 57.43720245361328 89 51.80620193481445 89 45.99993133544922 C 89 40.19366073608398 87.86350250244141 34.56266021728516 85.62208557128906 29.26334381103516 C 83.45648956298828 24.14330291748047 80.35560607910156 19.54440307617188 76.40560150146484 15.59439086914062 C 72.45558929443359 11.64438629150391 67.85667419433594 8.54351806640625 62.73663330078125 6.377914428710938 C 57.43730545043945 4.136505126953125 51.80628967285156 3 46.00000381469727 3 M 46.00000381469727 0 C 71.40510559082031 0 92 20.59487152099609 92 45.99993133544922 C 92 71.40499114990234 71.40510559082031 91.99986267089844 46.00000381469727 91.99986267089844 C 20.59491729736328 91.99986267089844 7.62939453125e-06 71.40499114990234 7.62939453125e-06 45.99993133544922 C 7.62939453125e-06 20.59487152099609 20.59491729736328 0 46.00000381469727 0 Z" stroke="none" fill="#397b86"/>
                                    </g>
                                  </g>
                                </g>
                              </g>
                            </g>
                          </g>
                        </g>
                      </g>
                    </g>
                  </g>
                </g>
              </g>
            </g>
          </g>
        </g>
      </g>
    </g>
    <g id="arcilla_1_" data-name="arcilla (1)" transform="translate(-2392.461 9027.555)">
      <g id="Grupo_1185498" data-name="Grupo 1185498" transform="translate(0.746 0.746)">
        <g id="Grupo_1185491" data-name="Grupo 1185491" transform="translate(1.998 1.392)">
          <path id="Trazado_1050112" data-name="Trazado 1050112" d="M54.61,21.5H31.961a4.446,4.446,0,0,0-4.249,5.531c1.276,5.266,1.22,5.048,1.364,5.589,1.876,7.051,4.569,11.945,11.956,11.945L54.61,49.4a4.944,4.944,0,0,0,4.961-4.832Z" transform="translate(-27.585 -21.5)" fill="#e8b5b1"/>
          <path id="Trazado_1050113" data-name="Trazado 1050113" d="M162.8,253.414a4.944,4.944,0,0,0,4.961,4.832h8.616a19.7,19.7,0,0,1-3.548-4.832Z" transform="translate(-149.354 -230.349)" fill="#d6948c"/>
          <path id="Trazado_1050114" data-name="Trazado 1050114" d="M261.048,21.5H247.015a19.734,19.734,0,0,0-3.548,23.065h8.509c7.387,0,10.08-4.893,11.956-11.945.15-.563.083-.3,1.364-5.589A4.446,4.446,0,0,0,261.048,21.5Z" transform="translate(-219.99 -21.5)" fill="#f2d4d3"/>
        </g>
        <g id="Grupo_1185495" data-name="Grupo 1185495" transform="translate(0 29.29)">
          <g id="Grupo_1185492" data-name="Grupo 1185492" transform="translate(15.273 7.957)">
            <path id="Trazado_1050115" data-name="Trazado 1050115" d="M236.828,382.995,234.32,382l-4.323.995-2.872,2.611L230,388.216l4.323.995,2.509-.995a2.611,2.611,0,0,0,0-5.221Z" transform="translate(-220.555 -382)" fill="#676fb2"/>
            <path id="Trazado_1050116" data-name="Trazado 1050116" d="M170.505,382.995,166.354,382l-2.68.995a2.611,2.611,0,0,0,0,5.221l2.68.995,4.151-.995A3.692,3.692,0,0,1,170.505,382.995Z" transform="translate(-161.063 -382)" fill="#4c5699"/>
          </g>
          <g id="Grupo_1185493" data-name="Grupo 1185493" transform="translate(0 14.173)">
            <path id="Trazado_1050117" data-name="Trazado 1050117" d="M248.013,444.5H226.282L223,447.484l3.282,2.984h21.731a2.984,2.984,0,1,0,0-5.967Z" transform="translate(-201.567 -444.5)" fill="#d4d4ff"/>
            <path id="Trazado_1050118" data-name="Trazado 1050118" d="M32.215,444.5H10.484a2.984,2.984,0,1,0,0,5.967H32.215A4.22,4.22,0,0,1,32.215,444.5Z" transform="translate(-7.5 -444.5)" fill="#b9bbf1"/>
          </g>
          <g id="Grupo_1185494" data-name="Grupo 1185494">
            <path id="Trazado_1050119" data-name="Trazado 1050119" d="M228.567,302h-20.24l-5.265,4.476,5.265,4.476h20.24a4.476,4.476,0,0,0,0-8.951Z" transform="translate(-183.612 -302)" fill="#d4d4ff"/>
            <path id="Trazado_1050120" data-name="Trazado 1050120" d="M32.215,302H11.976a4.476,4.476,0,1,0,0,8.951H32.215A6.329,6.329,0,0,1,32.215,302Z" transform="translate(-7.5 -302)" fill="#b9bbf1"/>
          </g>
        </g>
        <g id="Grupo_1185496" data-name="Grupo 1185496" transform="translate(13.441 9.463)">
          <path id="Trazado_1050121" data-name="Trazado 1050121" d="M148.72,112.027c0,1.337-1.359,2.421-3.038,2.421s-3.039-1.082-3.04-2.418,1.359-2.421,3.038-2.421S148.719,110.691,148.72,112.027Z" transform="translate(-142.642 -108.917)" fill="#ff8e9e"/>
          <path id="Trazado_1050122" data-name="Trazado 1050122" d="M308.251,111.947c0,1.337,1.362,2.419,3.04,2.418s3.038-1.085,3.037-2.421-1.362-2.419-3.04-2.418S308.25,110.611,308.251,111.947Z" transform="translate(-291.78 -108.842)" fill="#ff8e9e"/>
          <path id="Trazado_1050123" data-name="Trazado 1050123" d="M232,104.663c0-1.841-1.335-2.013-2.98-2.012s-2.979.174-2.978,2.015a3,3,0,1,0,5.957,0Z" transform="translate(-217.75 -102.651)" fill="#495560"/>
        </g>
        <g id="Grupo_1185497" data-name="Grupo 1185497" transform="translate(5.24)">
          <path id="Trazado_1050124" data-name="Trazado 1050124" d="M438.3,9.747a1.9,1.9,0,0,1-1.365-1.363c-.134-.513-.405-.885-.737-.885s-.6.371-.737.882A1.9,1.9,0,0,1,434.1,9.747c-.513.134-.884.4-.884.737s.371.6.883.737a1.9,1.9,0,0,1,1.363,1.362c.134.513.405.884.737.884s.6-.371.737-.882a1.9,1.9,0,0,1,1.363-1.364c.512-.134.884-.4.884-.737S438.809,9.881,438.3,9.747Z" transform="translate(-396.112 -7.5)" fill="#b9f0ff"/>
          <path id="Trazado_1050125" data-name="Trazado 1050125" d="M65.27,195.661a1.9,1.9,0,0,1-1.365-1.363c-.134-.513-.405-.885-.737-.885s-.6.371-.737.882a1.9,1.9,0,0,1-1.363,1.364c-.513.134-.884.4-.884.737s.371.6.883.737A1.9,1.9,0,0,1,62.43,198.5c.134.513.405.884.737.884s.6-.371.737-.882a1.9,1.9,0,0,1,1.363-1.364c.513-.134.884-.4.884-.737S65.781,195.795,65.27,195.661Z" transform="translate(-60.184 -174.924)" fill="#b9f0ff"/>
        </g>
      </g>
      <g id="Grupo_1185499" data-name="Grupo 1185499" transform="translate(0 0)">
        <path id="Trazado_1050126" data-name="Trazado 1050126" d="M224.589,95.548a5.516,5.516,0,0,0-2.444-.4,5.394,5.394,0,0,0-2.443.4c-2.547,1.293-1.124,6.441,2.445,6.44h0a3.918,3.918,0,0,0,3.722-4.081A2.419,2.419,0,0,0,224.589,95.548Zm-2.442,4.951a2.433,2.433,0,0,1-2.234-2.586c0-.7.222-.91.463-1.032a4.6,4.6,0,0,1,1.781-.237,4.374,4.374,0,0,1,1.756.235c.241.122.464.331.464,1.032A2.432,2.432,0,0,1,222.147,100.5Z" transform="translate(-196.686 -85.688)"/>
        <path id="Trazado_1050127" data-name="Trazado 1050127" d="M314.953,89.215h0a.747.747,0,0,0,.747-.745V87.277a.745.745,0,0,0-.743-.747h0a.747.747,0,0,0-.747.745v1.193A.745.745,0,0,0,314.953,89.215Z" transform="translate(-282.96 -77.924)"/>
        <path id="Trazado_1050128" data-name="Trazado 1050128" d="M176.647,83.338h0a2.147,2.147,0,0,0-2.145,2.14.746.746,0,0,0,.744.748h0a.746.746,0,0,0,.746-.744.654.654,0,0,1,.653-.651h0a.652.652,0,0,1,.651.654.746.746,0,0,0,.744.748h0a.746.746,0,0,0,.746-.744A2.143,2.143,0,0,0,176.647,83.338Z" transform="translate(-157.143 -75.049)"/>
        <path id="Trazado_1050129" data-name="Trazado 1050129" d="M47.192,43.463H35.082a3.347,3.347,0,0,0,0-3.73H45.7a5.221,5.221,0,0,0,0-10.443H33.624a5.5,5.5,0,0,0,1.8-3.355c9.665-.4,11.2-9.218,13.349-18.09a5.228,5.228,0,0,0-.08-2.766c1.525-.6,1.526-2.322-.335-2.807a1.147,1.147,0,0,1-.832-.829C47.294.539,46.748,0,46.07,0s-1.223.538-1.458,1.44c0,.006,0,.011-.005.017a5.081,5.081,0,0,0-.8-.065H7.12A5.193,5.193,0,0,0,2.147,7.846c1.062,4.384,2.036,9.417,4.3,12.987-1.653.571-1.655,2.355.23,2.846a1.145,1.145,0,0,1,.83.829c.5,1.912,2.341,1.9,2.882.126a11.518,11.518,0,0,0,5.1,1.3,5.5,5.5,0,0,0,1.8,3.354H5.222a5.221,5.221,0,1,0,0,10.443H15.84a3.347,3.347,0,0,0,0,3.73H3.73a3.73,3.73,0,1,0,0,7.459h31.85a.746.746,0,1,0,0-1.492H3.73a2.238,2.238,0,0,1,0-4.476H47.192a2.238,2.238,0,0,1,0,4.476H38.563a.746.746,0,1,0,0,1.492h8.629a3.73,3.73,0,1,0,0-7.459ZM46.07,1.763A2.666,2.666,0,0,0,48.036,3.73,2.671,2.671,0,0,0,46.07,5.7,2.664,2.664,0,0,0,44.1,3.73,2.663,2.663,0,0,0,46.07,1.763ZM8.97,24.187A2.665,2.665,0,0,0,7,22.22,2.662,2.662,0,0,0,8.97,20.254a2.666,2.666,0,0,0,1.966,1.967A2.661,2.661,0,0,0,8.97,24.187Zm8.043,1.763h3.476a.746.746,0,1,0,0-1.492h-4.3a10.9,10.9,0,0,1-4.593-.89c1.51-.592,1.534-2.317-.338-2.806a1.148,1.148,0,0,1-.832-.829c-.5-1.906-2.327-1.9-2.875-.151C5.536,16.442,4.6,11.635,3.6,7.494A3.7,3.7,0,0,1,7.12,2.884H42.677c-.646.714-.417,1.907,1.1,2.3a1.145,1.145,0,0,1,.83.829c.485,1.86,2.214,1.876,2.812.331a3.719,3.719,0,0,1-.1,1.146c-2.158,8.911-3.435,16.964-12.6,16.964h-4.3a.746.746,0,1,0,0,1.492H33.91a4.25,4.25,0,0,1-4.14,3.34H21.153a4.25,4.25,0,0,1-4.14-3.34ZM1.492,34.512a3.734,3.734,0,0,1,3.73-3.73H45.7a3.73,3.73,0,1,1,0,7.459H5.222A3.734,3.734,0,0,1,1.492,34.512ZM16.765,41.6a1.867,1.867,0,0,1,1.865-1.865H32.292a1.865,1.865,0,0,1,0,3.73H18.63A1.867,1.867,0,0,1,16.765,41.6Z" transform="translate(0 0)"/>
      </g>
    </g>
  </g>
</svg>
