<svg xmlns="http://www.w3.org/2000/svg" xmlns:xlink="http://www.w3.org/1999/xlink" width="93.934" height="93.934" viewBox="0 0 93.934 93.934">
  <defs>
    <filter id="Trazado_982547" x="0" y="0" width="93.934" height="93.934" filterUnits="userSpaceOnUse">
      <feOffset dy="3" input="SourceAlpha"/>
      <feGaussianBlur stdDeviation="3" result="blur"/>
      <feFlood flood-opacity="0.161"/>
      <feComposite operator="in" in2="blur"/>
      <feComposite in="SourceGraphic"/>
    </filter>
  </defs>
  <g id="Grupo_1185516" data-name="Grupo 1185516" transform="translate(-1028.435 -9479.568)">
    <g id="Grupo_1183667" data-name="Grupo 1183667" transform="translate(-0.598 8175.569)">
      <g id="Grupo_1181745" data-name="Grupo 1181745" transform="translate(0 568.527)">
        <g id="Grupo_1175135" data-name="Grupo 1175135" transform="translate(840 -1250.527)">
          <g id="Grupo_1167337" data-name="Grupo 1167337" transform="translate(198.033 1992)">
            <g id="Grupo_1166720" data-name="Grupo 1166720">
              <g id="Grupo_1164305" data-name="Grupo 1164305">
                <g id="Grupo_1163948" data-name="Grupo 1163948">
                  <g id="Grupo_1158168" data-name="Grupo 1158168">
                    <g id="Grupo_1152576" data-name="Grupo 1152576">
                      <g id="Grupo_1148633" data-name="Grupo 1148633">
                        <g id="Grupo_1148525" data-name="Grupo 1148525">
                          <g transform="matrix(1, 0, 0, 1, -9, -6)" filter="url(#Trazado_982547)">
                            <g id="Trazado_982547-2" data-name="Trazado 982547" transform="translate(9 6)" fill="#fdfbec">
                              <path d="M 37.966796875 74.43359375 C 33.04315185546875 74.43359375 28.26757431030273 73.46962738037109 23.77274131774902 71.56847381591797 C 19.43047523498535 69.73184967041016 15.53040790557861 67.10224914550781 12.18087482452393 63.75271987915039 C 8.831341743469238 60.4031867980957 6.201741218566895 56.50312042236328 4.365118980407715 52.16086196899414 C 2.463963508605957 47.66601943969727 1.499996900558472 42.89044189453125 1.499996900558472 37.966796875 C 1.499996900558472 33.04315185546875 2.463963508605957 28.26757431030273 4.365118980407715 23.77274131774902 C 6.201741218566895 19.43047523498535 8.831341743469238 15.53040790557861 12.18087482452393 12.18087482452393 C 15.53040790557861 8.831341743469238 19.43047523498535 6.201741218566895 23.77274131774902 4.365118980407715 C 28.26757431030273 2.463963508605957 33.04315185546875 1.499996900558472 37.966796875 1.499996900558472 C 42.89044189453125 1.499996900558472 47.66601943969727 2.463963508605957 52.16086196899414 4.365118980407715 C 56.50312042236328 6.201741218566895 60.4031867980957 8.831341743469238 63.75271987915039 12.18087482452393 C 67.10224914550781 15.53040790557861 69.73184967041016 19.43047523498535 71.56847381591797 23.77274131774902 C 73.46962738037109 28.26757431030273 74.43359375 33.04315185546875 74.43359375 37.966796875 C 74.43359375 42.89044189453125 73.46962738037109 47.66601943969727 71.56847381591797 52.16086196899414 C 69.73184967041016 56.50313186645508 67.10224914550781 60.4031867980957 63.75271987915039 63.75271987915039 C 60.4031867980957 67.10224914550781 56.50313186645508 69.73184967041016 52.16086196899414 71.56847381591797 C 47.66601943969727 73.46962738037109 42.89044189453125 74.43359375 37.966796875 74.43359375 Z" stroke="none"/>
                              <path d="M 37.966796875 3 C 33.2449836730957 3 28.66600799560547 3.924095153808594 24.35705947875977 5.746635437011719 C 20.19359588623047 7.507637023925781 16.45379638671875 10.02928161621094 13.24153518676758 13.24153518676758 C 10.02927398681641 16.45379638671875 7.507621765136719 20.19359588623047 5.746635437011719 24.35705947875977 C 3.924095153808594 28.66600799560547 3 33.2449836730957 3 37.966796875 C 3 42.6886100769043 3.924095153808594 47.26758575439453 5.746635437011719 51.57653427124023 C 7.507621765136719 55.73999786376953 10.02927398681641 59.47979736328125 13.24153518676758 62.69205856323242 C 16.45379638671875 65.90431976318359 20.19359588623047 68.42597198486328 24.35705947875977 70.18695831298828 C 28.66600799560547 72.00949859619141 33.2449836730957 72.93359375 37.966796875 72.93359375 C 42.6886100769043 72.93359375 47.26758575439453 72.00949859619141 51.57653427124023 70.18695831298828 C 55.73999786376953 68.42597198486328 59.47979736328125 65.90431976318359 62.69205856323242 62.69205856323242 C 65.90431976318359 59.47979736328125 68.42597198486328 55.73999786376953 70.18695831298828 51.57653427124023 C 72.00949859619141 47.26758575439453 72.93359375 42.6886100769043 72.93359375 37.966796875 C 72.93359375 33.2449836730957 72.00949859619141 28.66600799560547 70.18695831298828 24.35705947875977 C 68.42597198486328 20.19359588623047 65.90431976318359 16.45379638671875 62.69205856323242 13.24153518676758 C 59.47979736328125 10.02928161621094 55.73999786376953 7.507637023925781 51.57653427124023 5.746635437011719 C 47.26758575439453 3.924095153808594 42.6886100769043 3 37.966796875 3 M 37.966796875 0 C 58.93528366088867 0 75.93359375 16.99832153320312 75.93359375 37.966796875 C 75.93359375 58.93528366088867 58.93528366088867 75.93359375 37.966796875 75.93359375 C 16.99831008911133 75.93359375 0 58.93528366088867 0 37.966796875 C 0 16.99832153320312 16.99831008911133 0 37.966796875 0 Z" stroke="none" fill="#84792b"/>
                            </g>
                          </g>
                        </g>
                      </g>
                    </g>
                  </g>
                </g>
              </g>
            </g>
          </g>
        </g>
      </g>
    </g>
    <g id="calabaza" transform="translate(1050.422 9496.807)">
      <g id="Grupo_1185514" data-name="Grupo 1185514" transform="translate(0.739 0.208)">
        <g id="Grupo_1185509" data-name="Grupo 1185509" transform="translate(17.054)">
          <path id="Trazado_1050160" data-name="Trazado 1050160" d="M200.164,7.542s6.67,1.543,5.416,11.871l-2.993-.386s.73-5.65-4.4-6.313" transform="translate(-196.639 -7.015)" fill="#60d173"/>
          <g id="Grupo_1185508" data-name="Grupo 1185508">
            <ellipse id="Elipse_12617" data-name="Elipse 12617" cx="2.764" cy="1.378" rx="2.764" ry="1.378" transform="translate(0 4.997) rotate(-64.665)" fill="#9af59d"/>
          </g>
        </g>
        <path id="Trazado_1050161" data-name="Trazado 1050161" d="M44.354,102.218a8.464,8.464,0,0,0-5.168,1.86,10.109,10.109,0,0,0-7.435-3.66,10.109,10.109,0,0,0-7.435,3.66,8.464,8.464,0,0,0-5.168-1.86c-6.428,0-11.638,8.018-11.638,17.91s5.21,17.91,11.638,17.91a8.464,8.464,0,0,0,5.168-1.86,10.109,10.109,0,0,0,7.435,3.66,10.109,10.109,0,0,0,7.435-3.66,8.464,8.464,0,0,0,5.168,1.86c6.428,0,11.638-8.018,11.638-17.91S50.781,102.218,44.354,102.218Z" transform="translate(-7.509 -90.831)" fill="#ff9e17"/>
        <g id="Grupo_1185510" data-name="Grupo 1185510" transform="translate(9.686 9.588)">
          <path id="Trazado_1050162" data-name="Trazado 1050162" d="M112.25,122.5c.229-.252,1.429-1.535,1.669-1.763a9.434,9.434,0,0,0-2.461-1.372,7.821,7.821,0,0,0-2.707-.488,7.741,7.741,0,0,0-1.952.252A11.25,11.25,0,0,1,112.25,122.5Z" transform="translate(-106.799 -117.074)" fill="#f79000"/>
          <path id="Trazado_1050163" data-name="Trazado 1050163" d="M242.836,105.769c.451-.345,2.076-1.436,2.558-1.69a12.582,12.582,0,0,0-1.441-1.372,9.432,9.432,0,0,0-5.995-2.288,8.5,8.5,0,0,0-1.951.228C238.03,101.123,241.007,103.233,242.836,105.769Z" transform="translate(-223.403 -100.419)" fill="#f79000"/>
          <path id="Trazado_1050164" data-name="Trazado 1050164" d="M243.145,450.847a17.232,17.232,0,0,1-7.138,5.007,8.5,8.5,0,0,0,1.951.228,9.432,9.432,0,0,0,5.995-2.288,14.288,14.288,0,0,0,1.441-1.372A23.79,23.79,0,0,1,243.145,450.847Z" transform="translate(-223.403 -416.662)" fill="#f79000"/>
          <path id="Trazado_1050165" data-name="Trazado 1050165" d="M112.168,448.181a18.963,18.963,0,0,1-5.369,3.443,7.74,7.74,0,0,0,1.952.252,7.822,7.822,0,0,0,2.707-.488,9.493,9.493,0,0,0,2.461-1.372C113.688,449.8,112.389,448.424,112.168,448.181Z" transform="translate(-106.799 -414.256)" fill="#f79000"/>
          <path id="Trazado_1050166" data-name="Trazado 1050166" d="M367.165,118.873a7.728,7.728,0,0,0-1.95.252c5.5,1.429,9.686,8.79,9.686,17.658s-4.188,16.229-9.686,17.658a7.728,7.728,0,0,0,1.95.252c6.428,0,11.638-8.018,11.638-17.91S373.593,118.873,367.165,118.873Z" transform="translate(-340.006 -117.073)" fill="#f79000"/>
        </g>
        <g id="Grupo_1185513" data-name="Grupo 1185513" transform="translate(7.9 19.709)">
          <g id="Grupo_1185511" data-name="Grupo 1185511" transform="translate(3.877)">
            <path id="Trazado_1050167" data-name="Trazado 1050167" d="M137.914,209.937a5.266,5.266,0,0,1-8.817-5.759Z" transform="translate(-128.238 -204.178)" fill="#ffcc57"/>
            <path id="Trazado_1050168" data-name="Trazado 1050168" d="M129.736,204.177a5.244,5.244,0,0,0-.789,2.034l5.7,3.726a5.24,5.24,0,0,1-2.46,2.011,5.267,5.267,0,0,0,6.362-2.011Z" transform="translate(-128.878 -204.177)" fill="#ffcc57"/>
            <path id="Trazado_1050169" data-name="Trazado 1050169" d="M284.6,209.937a5.266,5.266,0,1,0,8.817-5.759Z" transform="translate(-269.344 -204.178)" fill="#ffcc57"/>
            <path id="Trazado_1050170" data-name="Trazado 1050170" d="M316.169,204.177l-3.113,2.034a5.269,5.269,0,0,1-3.244,5.737,5.265,5.265,0,0,0,6.358-7.77Z" transform="translate(-292.098 -204.177)" fill="#ffcc57"/>
          </g>
          <g id="Grupo_1185512" data-name="Grupo 1185512" transform="translate(0 11.476)">
            <path id="Trazado_1050171" data-name="Trazado 1050171" d="M121.174,321.818H115.54V323.1a1.06,1.06,0,0,1-1.06,1.06h-2.544a1.06,1.06,0,0,1-1.06-1.06v-1.279H98.366V323.1a1.06,1.06,0,0,1-1.06,1.06H94.762a1.06,1.06,0,0,1-1.06-1.06v-1.279h-5.21c2.2,6.061,10.675,9.137,16.554,9.075v-1.86a1.06,1.06,0,0,1,1.06-1.06h2.544a1.06,1.06,0,0,1,1.06,1.06v1.273C115.035,329.019,119.566,325.75,121.174,321.818Z" transform="translate(-88.491 -321.818)" fill="#ffcc57"/>
          </g>
        </g>
      </g>
      <g id="Grupo_1185515" data-name="Grupo 1185515" transform="translate(0.007 -0.001)">
        <path id="Trazado_1050172" data-name="Trazado 1050172" d="M46.427,16.442c-2.338-3.6-5.478-5.579-8.843-5.579a9.082,9.082,0,0,0-5.076,1.625,11.609,11.609,0,0,0-4.669-2.975A11.24,11.24,0,0,1,30.016,7.8a2.248,2.248,0,0,0,.315,1.086,2.435,2.435,0,0,0,2.2,1.11c1.617-.073,3.539-1.448,3.005-3.266-.379-1.29-1.644-1.593-2.825-1.478a9.111,9.111,0,0,1,2.922-1.966c.857-.371.121-1.636-.739-1.263a8.914,8.914,0,0,0-4.4,3.86,11.779,11.779,0,0,0-3.031,1.968,9.994,9.994,0,0,0-2.907-6.038c-.713-.672-2.219-1.943-3.33-1.8C20.223-.079,19.044.853,18.313,2.4c-.853,1.8-.676,3.547.411,4.062A15.249,15.249,0,0,1,21.3,7.4a3.936,3.936,0,0,1,1.4,1.945,11.346,11.346,0,0,0-5.252,3.142,8.87,8.87,0,0,0-8.665-.835.732.732,0,0,0,.6,1.333,7.368,7.368,0,0,1,7.128.637,18.167,18.167,0,0,0-1.672,2.861.732.732,0,0,0,1.341.587,18.886,18.886,0,0,1,1.919-3.148,9.35,9.35,0,0,1,6.873-3.4,9.351,9.351,0,0,1,6.874,3.4A13.254,13.254,0,0,1,33.087,15.8a.732.732,0,0,0,1.345-.576,10.5,10.5,0,0,0-.986-1.6,7.474,7.474,0,0,1,4.137-1.294c2.853,0,5.557,1.745,7.616,4.913A22.742,22.742,0,0,1,48.49,29.505,22.742,22.742,0,0,1,45.2,41.771c-2.059,3.168-4.763,4.913-7.616,4.913A7.467,7.467,0,0,1,33.47,45.4a20.91,20.91,0,0,0,1.815-2.823A.732.732,0,0,0,33.99,41.9a19.806,19.806,0,0,1-2.124,3.172,9.358,9.358,0,0,1-6.887,3.412,9.36,9.36,0,0,1-6.891-3.418,11.192,11.192,0,0,1-1.52-2.3.732.732,0,0,0-1.321.629,12.031,12.031,0,0,0,1.238,2.007,7.466,7.466,0,0,1-4.109,1.276c-2.853,0-5.557-1.745-7.616-4.913A22.742,22.742,0,0,1,1.47,29.505c0-5.846,1.878-11.244,5.023-14.441.642-.653-.372-1.709-1.043-1.026C2.042,17.5.007,23.284.007,29.505A24.213,24.213,0,0,0,3.534,42.568c2.338,3.6,5.478,5.579,8.843,5.579a9.082,9.082,0,0,0,5.076-1.625,10.559,10.559,0,0,0,7.527,3.426,10.559,10.559,0,0,0,7.527-3.426,9.082,9.082,0,0,0,5.076,1.625c3.365,0,6.505-1.981,8.843-5.579a24.213,24.213,0,0,0,3.527-13.063,24.213,24.213,0,0,0-3.527-13.063Zm-12.5-9.6a.741.741,0,0,1,.174.718c-.117.461-.712.772-1.13.893a1.244,1.244,0,0,1-1.319-.225,1.231,1.231,0,0,1-.069-1.2c.644-.246,1.7-.609,2.344-.185ZM19.635,3.023c.556-1.173,1.286-1.583,1.453-1.559.125.116.27.939-.285,2.112S19.52,5.158,19.35,5.135c-.125-.116-.27-.939.285-2.112ZM24.165,9.1a5.3,5.3,0,0,0-3-3.456A5.681,5.681,0,0,0,22.125,4.2a5.421,5.421,0,0,0,.538-2.029c1.367.915,3.205,2.89,3.465,6.962A9.3,9.3,0,0,0,24.165,9.1Z" transform="translate(-0.007 0.001)"/>
        <path id="Trazado_1050173" data-name="Trazado 1050173" d="M126.746,206.308a6.054,6.054,0,0,0,1.243-.13,5.958,5.958,0,0,0,3.79-2.59.732.732,0,0,0-.212-1.013l-8.817-5.759a.739.739,0,0,0-1.013.212,6,6,0,0,0,5.009,9.279Zm-4.135-7.834,7.494,4.895a4.535,4.535,0,0,1-7.494-4.895Z" transform="translate(-108.983 -177.511)"/>
        <path id="Trazado_1050174" data-name="Trazado 1050174" d="M281,206.179a6,6,0,0,0,6.253-9.149.738.738,0,0,0-1.013-.212l-8.817,5.759a.732.732,0,0,0-.212,1.013,5.958,5.958,0,0,0,3.79,2.59Zm5.378-7.7a4.535,4.535,0,0,1-7.494,4.895Z" transform="translate(-250.065 -177.512)"/>
        <path id="Trazado_1050175" data-name="Trazado 1050175" d="M88.31,322.542a23.539,23.539,0,0,0,9.8,2.315c.447,0,.906-.214.906-.733v-1.86a.329.329,0,0,1,.328-.328h2.544a.329.329,0,0,1,.328.328v1.273a.738.738,0,0,0,.9.711,21.584,21.584,0,0,0,4.8-1.777.732.732,0,0,0-.669-1.3,19.983,19.983,0,0,1-3.568,1.415v-.322a1.794,1.794,0,0,0-1.792-1.792H99.345a1.794,1.794,0,0,0-1.792,1.792v1.12a22.22,22.22,0,0,1-8.6-2.159,12.736,12.736,0,0,1-6.1-5.444H86.21v.547A1.794,1.794,0,0,0,88,318.12h2.544a1.794,1.794,0,0,0,1.792-1.792v-.547h11.046v.547a1.794,1.794,0,0,0,1.792,1.792h2.544a1.794,1.794,0,0,0,1.792-1.792v-.547h3.735a12.285,12.285,0,0,1-2.908,3.373.732.732,0,0,0,.931,1.129,12.945,12.945,0,0,0,3.822-4.957.738.738,0,0,0-.677-1.008H108.78a.732.732,0,0,0-.732.732v1.279a.329.329,0,0,1-.328.328h-2.544a.329.329,0,0,1-.328-.328V315.05a.732.732,0,0,0-.732-.732H91.606a.732.732,0,0,0-.732.732v1.279a.329.329,0,0,1-.328.328H88a.329.329,0,0,1-.328-.328V315.05a.732.732,0,0,0-.732-.732h-5.21a.738.738,0,0,0-.688.982c.748,2.057,2.615,4.984,7.267,7.242Z" transform="translate(-73.099 -283.656)"/>
      </g>
    </g>
  </g>
</svg>
