<svg xmlns="http://www.w3.org/2000/svg" xmlns:xlink="http://www.w3.org/1999/xlink" width="103" height="103" viewBox="0 0 103 103">
  <defs>
    <filter id="Trazado_978624" x="0" y="0" width="103" height="103" filterUnits="userSpaceOnUse">
      <feOffset dy="3" input="SourceAlpha"/>
      <feGaussianBlur stdDeviation="3" result="blur"/>
      <feFlood flood-opacity="0.161"/>
      <feComposite operator="in" in2="blur"/>
      <feComposite in="SourceGraphic"/>
    </filter>
  </defs>
  <g id="Grupo_1185641" data-name="Grupo 1185641" transform="translate(-170.402 -12163.568)">
    <g id="Grupo_1183811" data-name="Grupo 1183811" transform="translate(-0.598 8532.568)">
      <g id="Grupo_1164359" data-name="Grupo 1164359" transform="translate(180 3637)">
        <g id="Grupo_1144531" data-name="Grupo 1144531">
          <g transform="matrix(1, 0, 0, 1, -9, -6)" filter="url(#Trazado_978624)">
            <g id="Trazado_978624-2" data-name="Trazado 978624" transform="translate(9 6)" fill="#fdfbec">
              <path d="M 42.5 83.5 C 36.96437835693359 83.5 31.59512901306152 82.41617584228516 26.54141235351562 80.27863311767578 C 21.65934181213379 78.21369171142578 17.27447128295898 75.25723266601562 13.50862312316895 71.49137878417969 C 9.742764472961426 67.72553253173828 6.786305904388428 63.34066009521484 4.721364498138428 58.45858764648438 C 2.583823442459106 53.40486907958984 1.5 48.03562164306641 1.5 42.5 C 1.5 36.96437835693359 2.583823442459106 31.59512901306152 4.721364498138428 26.54141235351562 C 6.786305904388428 21.65934181213379 9.742764472961426 17.27447128295898 13.50862312316895 13.50862312316895 C 17.27447128295898 9.742764472961426 21.65934181213379 6.786305904388428 26.54141235351562 4.721364498138428 C 31.59512901306152 2.583823442459106 36.96437835693359 1.5 42.5 1.5 C 48.03562164306641 1.5 53.40486907958984 2.583823442459106 58.45858764648438 4.721364498138428 C 63.34066009521484 6.786305904388428 67.72553253173828 9.742764472961426 71.49137878417969 13.50862312316895 C 75.25723266601562 17.27447128295898 78.21369171142578 21.65934181213379 80.27863311767578 26.54141235351562 C 82.41617584228516 31.59512901306152 83.5 36.96437835693359 83.5 42.5 C 83.5 48.03562164306641 82.41617584228516 53.40486907958984 80.27863311767578 58.45858764648438 C 78.21369171142578 63.34066009521484 75.25723266601562 67.72553253173828 71.49137878417969 71.49137878417969 C 67.72553253173828 75.25723266601562 63.34066009521484 78.21369171142578 58.45858764648438 80.27863311767578 C 53.40486907958984 82.41617584228516 48.03562164306641 83.5 42.5 83.5 Z" stroke="none"/>
              <path d="M 42.5 3 C 37.16621398925781 3 31.99356079101562 4.043960571289062 27.125732421875 6.102882385253906 C 22.42246627807617 8.092185974121094 18.19785308837891 10.94070434570312 14.56928253173828 14.56928253173828 C 10.94070434570312 18.19785308837891 8.092185974121094 22.42246627807617 6.102882385253906 27.125732421875 C 4.043960571289062 31.99356079101562 3 37.16621398925781 3 42.5 C 3 47.83378601074219 4.043960571289062 53.00643920898438 6.102882385253906 57.87425231933594 C 8.092185974121094 62.57753372192383 10.94070434570312 66.80213165283203 14.56928253173828 70.43071746826172 C 18.19786834716797 74.05929565429688 22.42246627807617 76.90781402587891 27.125732421875 78.89711761474609 C 31.99356079101562 80.95603942871094 37.16621398925781 82 42.5 82 C 47.83378601074219 82 53.00642395019531 80.95603942871094 57.87425231933594 78.89711761474609 C 62.57753372192383 76.90781402587891 66.80213165283203 74.05929565429688 70.43071746826172 70.43071746826172 C 74.05929565429688 66.80213165283203 76.90781402587891 62.57753372192383 78.89711761474609 57.87425231933594 C 80.95603942871094 53.00642395019531 82 47.83378601074219 82 42.5 C 82 37.16621398925781 80.95603942871094 31.99356079101562 78.89711761474609 27.125732421875 C 76.90781402587891 22.42246627807617 74.05929565429688 18.19786834716797 70.43071746826172 14.56928253173828 C 66.80213165283203 10.94070434570312 62.57753372192383 8.092185974121094 57.87425231933594 6.102882385253906 C 53.00643920898438 4.043960571289062 47.83378601074219 3 42.5 3 M 42.5 0 C 65.97209167480469 0 85 19.02789306640625 85 42.5 C 85 65.97209167480469 65.97209167480469 85 42.5 85 C 19.02789306640625 85 0 65.97209167480469 0 42.5 C 0 19.02789306640625 19.02789306640625 0 42.5 0 Z" stroke="none" fill="#84792b"/>
            </g>
          </g>
        </g>
      </g>
    </g>
    <g id="collage_1_" data-name="collage (1)" transform="translate(198.664 12188.83)">
      <path id="Trazado_1051679" data-name="Trazado 1051679" d="M7.5,7.5H52.615V52.615H7.5Z" transform="translate(-6.819 -6.819)" fill="#528fd8"/>
      <path id="Trazado_1051680" data-name="Trazado 1051680" d="M49.681,7.5V49.681H7.5v2.934H52.615V7.5Z" transform="translate(-6.819 -6.819)" fill="#0573ce"/>
      <path id="Trazado_1051681" data-name="Trazado 1051681" d="M57.981,59.815V41.659a1.834,1.834,0,0,0-1.834-1.834H41.659a1.834,1.834,0,0,0-1.834,1.834V59.815a1.834,1.834,0,0,0,1.834,1.834H56.147A1.834,1.834,0,0,0,57.981,59.815Z" transform="translate(-36.21 -36.21)" fill="#ffe177"/>
      <path id="Trazado_1051682" data-name="Trazado 1051682" d="M190.243,39.825h-2.934a1.834,1.834,0,0,1,1.834,1.834V59.815a1.834,1.834,0,0,1-1.834,1.834h2.934a1.834,1.834,0,0,0,1.834-1.834V41.659A1.834,1.834,0,0,0,190.243,39.825Z" transform="translate(-170.306 -36.21)" fill="#ffd15b"/>
      <path id="Trazado_1051683" data-name="Trazado 1051683" d="M56.147,312.569H41.659a1.834,1.834,0,0,0-1.834,1.834v10.82a1.834,1.834,0,0,0,1.834,1.834H56.147a1.834,1.834,0,0,0,1.834-1.834V314.4A1.834,1.834,0,0,0,56.147,312.569Z" transform="translate(-36.21 -284.196)" fill="#62dbfb"/>
      <path id="Trazado_1051684" data-name="Trazado 1051684" d="M190.243,312.569h-2.934a1.834,1.834,0,0,1,1.834,1.834v10.82a1.834,1.834,0,0,1-1.834,1.834h2.934a1.834,1.834,0,0,0,1.834-1.834V314.4A1.834,1.834,0,0,0,190.243,312.569Z" transform="translate(-170.306 -284.196)" fill="#01d0fb"/>
      <path id="Trazado_1051685" data-name="Trazado 1051685" d="M290.319,233.59v18.156a1.834,1.834,0,0,1-1.834,1.834H274a1.834,1.834,0,0,1-1.834-1.834V233.59A1.834,1.834,0,0,1,274,231.756h14.488A1.834,1.834,0,0,1,290.319,233.59Z" transform="translate(-247.457 -210.718)" fill="#6cf5c2"/>
      <path id="Trazado_1051686" data-name="Trazado 1051686" d="M422.581,231.756h-2.934a1.834,1.834,0,0,1,1.834,1.834v18.156a1.834,1.834,0,0,1-1.834,1.834h2.934a1.834,1.834,0,0,0,1.834-1.834V233.59A1.834,1.834,0,0,0,422.581,231.756Z" transform="translate(-381.554 -210.718)" fill="#00f2a6"/>
      <path id="Trazado_1051687" data-name="Trazado 1051687" d="M288.485,54.314H274a1.834,1.834,0,0,1-1.834-1.834V41.66A1.834,1.834,0,0,1,274,39.826h14.488a1.834,1.834,0,0,1,1.834,1.834V52.48A1.834,1.834,0,0,1,288.485,54.314Z" transform="translate(-247.457 -36.211)" fill="#fe93d3"/>
      <path id="Trazado_1051688" data-name="Trazado 1051688" d="M422.581,39.825h-2.934a1.834,1.834,0,0,1,1.834,1.834v10.82a1.834,1.834,0,0,1-1.834,1.834h2.934a1.834,1.834,0,0,0,1.834-1.834V41.659A1.834,1.834,0,0,0,422.581,39.825Z" transform="translate(-381.554 -36.21)" fill="#fe73c5"/>
      <g id="Grupo_1185640" data-name="Grupo 1185640">
        <path id="Trazado_1051689" data-name="Trazado 1051689" d="M51.167,44.849a.681.681,0,0,0,.681-.681V34.844a2.518,2.518,0,0,0-2.515-2.514H34.844a2.517,2.517,0,0,0-2.514,2.514V53a2.517,2.517,0,0,0,2.514,2.514H49.332A2.518,2.518,0,0,0,51.847,53V47.345a.681.681,0,0,0-1.362,0V53a1.155,1.155,0,0,1-1.154,1.153H34.844A1.154,1.154,0,0,1,33.692,53V34.844a1.154,1.154,0,0,1,1.153-1.153H49.332a1.155,1.155,0,0,1,1.154,1.153v9.323A.681.681,0,0,0,51.167,44.849Z" transform="translate(-29.395 -29.395)"/>
        <path id="Trazado_1051690" data-name="Trazado 1051690" d="M32.325,318.4a2.518,2.518,0,0,0,2.515,2.515H49.328a2.518,2.518,0,0,0,2.515-2.515v-10.82a2.518,2.518,0,0,0-2.515-2.515H34.84a2.518,2.518,0,0,0-2.515,2.515Zm1.362-10.82a1.154,1.154,0,0,1,1.153-1.153H49.328a1.154,1.154,0,0,1,1.153,1.153V318.4a1.154,1.154,0,0,1-1.153,1.153H34.84a1.154,1.154,0,0,1-1.153-1.153Z" transform="translate(-29.391 -277.376)"/>
        <path id="Trazado_1051691" data-name="Trazado 1051691" d="M264.662,244.927a2.518,2.518,0,0,0,2.515,2.515h14.488a2.518,2.518,0,0,0,2.515-2.515V226.771a2.518,2.518,0,0,0-2.515-2.515H267.177a2.518,2.518,0,0,0-2.515,2.515Zm1.362-18.156a1.154,1.154,0,0,1,1.153-1.153h14.488a1.154,1.154,0,0,1,1.153,1.153v18.156a1.154,1.154,0,0,1-1.153,1.153H267.177a1.154,1.154,0,0,1-1.153-1.153Z" transform="translate(-240.637 -203.899)"/>
        <path id="Trazado_1051692" data-name="Trazado 1051692" d="M267.178,48.175h14.488a2.518,2.518,0,0,0,2.515-2.515V34.84a2.518,2.518,0,0,0-2.515-2.515H267.178a2.518,2.518,0,0,0-2.515,2.515V45.66A2.518,2.518,0,0,0,267.178,48.175ZM266.025,34.84a1.154,1.154,0,0,1,1.153-1.153h14.488a1.154,1.154,0,0,1,1.153,1.153V45.66a1.154,1.154,0,0,1-1.153,1.153H267.178a1.154,1.154,0,0,1-1.153-1.153Z" transform="translate(-240.638 -29.391)"/>
        <path id="Trazado_1051693" data-name="Trazado 1051693" d="M45.8,0H.681A.681.681,0,0,0,0,.681V33.2a.681.681,0,1,0,1.362,0V1.362H45.115v3.6a.681.681,0,0,0,1.362,0V.681A.681.681,0,0,0,45.8,0Z"/>
        <path id="Trazado_1051694" data-name="Trazado 1051694" d="M45.8,82.15a.681.681,0,0,0-.681.681v36.977H1.362v-8.734a.681.681,0,0,0-1.362,0v9.415a.681.681,0,0,0,.681.681H45.8a.681.681,0,0,0,.681-.681V82.831A.681.681,0,0,0,45.8,82.15Z" transform="translate(0 -74.693)"/>
        <path id="Trazado_1051695" data-name="Trazado 1051695" d="M114.643,137.361a.681.681,0,0,0,.681-.681v-1.153h1.153a.681.681,0,1,0,0-1.362h-1.153v-1.153a.681.681,0,1,0-1.362,0v1.153h-1.153a.681.681,0,1,0,0,1.362h1.153v1.153A.681.681,0,0,0,114.643,137.361Z" transform="translate(-101.95 -120.32)"/>
        <path id="Trazado_1051696" data-name="Trazado 1051696" d="M345.147,95.121H346.3v1.153a.681.681,0,1,0,1.362,0V95.121h1.153a.681.681,0,1,0,0-1.362h-1.153V92.606a.681.681,0,1,0-1.362,0v1.153h-1.153a.681.681,0,1,0,0,1.362Z" transform="translate(-313.197 -83.581)"/>
        <path id="Trazado_1051697" data-name="Trazado 1051697" d="M112.809,367.864h1.153v1.153a.681.681,0,1,0,1.362,0v-1.153h1.153a.681.681,0,1,0,0-1.362h-1.153v-1.153a.681.681,0,1,0-1.362,0V366.5h-1.153a.681.681,0,1,0,0,1.362Z" transform="translate(-101.95 -331.565)"/>
        <path id="Trazado_1051698" data-name="Trazado 1051698" d="M345.147,327.457H346.3v1.153a.681.681,0,1,0,1.362,0v-1.153h1.153a.681.681,0,1,0,0-1.362h-1.153v-1.153a.681.681,0,1,0-1.362,0V326.1h-1.153a.681.681,0,1,0,0,1.362Z" transform="translate(-313.197 -294.827)"/>
        <path id="Trazado_1051699" data-name="Trazado 1051699" d="M297.669,67.846a.681.681,0,0,0,.681-.681V66.012H299.5a.681.681,0,1,0,0-1.362h-1.834a.681.681,0,0,0-.681.681v1.834A.681.681,0,0,0,297.669,67.846Z" transform="translate(-270.029 -58.781)"/>
        <path id="Trazado_1051700" data-name="Trazado 1051700" d="M412.827,66.012h1.153v1.153a.681.681,0,1,0,1.362,0V65.331a.681.681,0,0,0-.681-.681h-1.834a.681.681,0,0,0,0,1.362Z" transform="translate(-374.734 -58.781)"/>
        <path id="Trazado_1051701" data-name="Trazado 1051701" d="M412.827,142.6h1.834a.681.681,0,0,0,.681-.681v-1.834a.681.681,0,0,0-1.362,0v1.153h-1.153a.681.681,0,0,0,0,1.362Z" transform="translate(-374.734 -126.748)"/>
        <path id="Trazado_1051702" data-name="Trazado 1051702" d="M297.669,142.6H299.5a.681.681,0,1,0,0-1.362H298.35v-1.153a.681.681,0,1,0-1.362,0v1.834A.681.681,0,0,0,297.669,142.6Z" transform="translate(-270.029 -126.748)"/>
        <path id="Trazado_1051703" data-name="Trazado 1051703" d="M65.331,340.591a.681.681,0,0,0,.681-.681v-1.153h1.153a.681.681,0,1,0,0-1.362H65.331a.681.681,0,0,0-.681.681v1.834A.681.681,0,0,0,65.331,340.591Z" transform="translate(-58.781 -306.768)"/>
        <path id="Trazado_1051704" data-name="Trazado 1051704" d="M180.49,338.757h1.153v1.153a.681.681,0,1,0,1.362,0v-1.834a.681.681,0,0,0-.681-.681H180.49a.681.681,0,1,0,0,1.362Z" transform="translate(-163.487 -306.768)"/>
        <path id="Trazado_1051705" data-name="Trazado 1051705" d="M180.49,415.343h1.834a.681.681,0,0,0,.681-.681v-1.834a.681.681,0,1,0-1.362,0v1.153H180.49a.681.681,0,1,0,0,1.362Z" transform="translate(-163.487 -374.734)"/>
        <path id="Trazado_1051706" data-name="Trazado 1051706" d="M65.331,415.343h1.834a.681.681,0,1,0,0-1.362H66.012v-1.153a.681.681,0,1,0-1.362,0v1.834A.681.681,0,0,0,65.331,415.343Z" transform="translate(-58.781 -374.734)"/>
        <path id="Trazado_1051707" data-name="Trazado 1051707" d="M297.669,259.778a.681.681,0,0,0,.681-.681v-1.153H299.5a.681.681,0,1,0,0-1.362h-1.834a.681.681,0,0,0-.681.681V259.1A.681.681,0,0,0,297.669,259.778Z" transform="translate(-270.029 -233.291)"/>
        <path id="Trazado_1051708" data-name="Trazado 1051708" d="M412.827,257.944h1.153V259.1a.681.681,0,0,0,1.362,0v-1.834a.681.681,0,0,0-.681-.681h-1.834a.681.681,0,0,0,0,1.362Z" transform="translate(-374.734 -233.291)"/>
        <path id="Trazado_1051709" data-name="Trazado 1051709" d="M412.827,415.343h1.834a.681.681,0,0,0,.681-.681v-1.834a.681.681,0,0,0-1.362,0v1.153h-1.153a.681.681,0,0,0,0,1.362Z" transform="translate(-374.734 -374.734)"/>
        <path id="Trazado_1051710" data-name="Trazado 1051710" d="M297.669,415.343H299.5a.681.681,0,1,0,0-1.362H298.35v-1.153a.681.681,0,1,0-1.362,0v1.834A.681.681,0,0,0,297.669,415.343Z" transform="translate(-270.029 -374.734)"/>
        <path id="Trazado_1051711" data-name="Trazado 1051711" d="M67.165,64.65H65.331a.681.681,0,0,0-.681.681v1.834a.681.681,0,0,0,1.362,0V66.012h1.153a.681.681,0,0,0,0-1.362Z" transform="translate(-58.781 -58.781)"/>
        <path id="Trazado_1051712" data-name="Trazado 1051712" d="M183,65.331a.681.681,0,0,0-.681-.681H180.49a.681.681,0,1,0,0,1.362h1.153v1.153a.681.681,0,1,0,1.362,0Z" transform="translate(-163.487 -58.781)"/>
        <path id="Trazado_1051713" data-name="Trazado 1051713" d="M182.324,220.215a.681.681,0,0,0-.681.681v1.153H180.49a.681.681,0,1,0,0,1.362h1.834a.681.681,0,0,0,.681-.681V220.9A.681.681,0,0,0,182.324,220.215Z" transform="translate(-163.487 -200.225)"/>
        <path id="Trazado_1051714" data-name="Trazado 1051714" d="M65.331,220.215a.681.681,0,0,0-.681.681v1.834a.681.681,0,0,0,.681.681h1.834a.681.681,0,1,0,0-1.362H66.012V220.9A.681.681,0,0,0,65.331,220.215Z" transform="translate(-58.781 -200.225)"/>
      </g>
    </g>
  </g>
</svg>
