<svg xmlns="http://www.w3.org/2000/svg" xmlns:xlink="http://www.w3.org/1999/xlink" width="93.934" height="93.934" viewBox="0 0 93.934 93.934">
  <defs>
    <filter id="Trazado_982547" x="0" y="0" width="93.934" height="93.934" filterUnits="userSpaceOnUse">
      <feOffset dy="3" input="SourceAlpha"/>
      <feGaussianBlur stdDeviation="3" result="blur"/>
      <feFlood flood-opacity="0.161"/>
      <feComposite operator="in" in2="blur"/>
      <feComposite in="SourceGraphic"/>
    </filter>
  </defs>
  <g id="Grupo_1183815" data-name="Grupo 1183815" transform="translate(-189 -346.061)">
    <g id="Grupo_1181939" data-name="Grupo 1181939" transform="translate(0 -388.939)">
      <g id="Grupo_1175133" data-name="Grupo 1175133" transform="translate(-0.033 -1251)">
        <g id="Grupo_1167337" data-name="Grupo 1167337" transform="translate(198.033 1992)">
          <g id="Grupo_1166720" data-name="Grupo 1166720">
            <g id="Grupo_1164305" data-name="Grupo 1164305">
              <g id="Grupo_1163948" data-name="Grupo 1163948">
                <g id="Grupo_1158168" data-name="Grupo 1158168">
                  <g id="Grupo_1152576" data-name="Grupo 1152576">
                    <g id="Grupo_1148633" data-name="Grupo 1148633">
                      <g id="Grupo_1148525" data-name="Grupo 1148525">
                        <g transform="matrix(1, 0, 0, 1, -9, -6)" filter="url(#Trazado_982547)">
                          <g id="Trazado_982547-2" data-name="Trazado 982547" transform="translate(9 6)" fill="#fdfbec">
                            <path d="M 37.966796875 74.43359375 C 33.04315185546875 74.43359375 28.26757431030273 73.46962738037109 23.77274131774902 71.56847381591797 C 19.43047523498535 69.73184967041016 15.53040790557861 67.10224914550781 12.18087482452393 63.75271987915039 C 8.831341743469238 60.4031867980957 6.201741218566895 56.50312042236328 4.365118980407715 52.16086196899414 C 2.463963508605957 47.66601943969727 1.499996900558472 42.89044189453125 1.499996900558472 37.966796875 C 1.499996900558472 33.04315185546875 2.463963508605957 28.26757431030273 4.365118980407715 23.77274131774902 C 6.201741218566895 19.43047523498535 8.831341743469238 15.53040790557861 12.18087482452393 12.18087482452393 C 15.53040790557861 8.831341743469238 19.43047523498535 6.201741218566895 23.77274131774902 4.365118980407715 C 28.26757431030273 2.463963508605957 33.04315185546875 1.499996900558472 37.966796875 1.499996900558472 C 42.89044189453125 1.499996900558472 47.66601943969727 2.463963508605957 52.16086196899414 4.365118980407715 C 56.50312042236328 6.201741218566895 60.4031867980957 8.831341743469238 63.75271987915039 12.18087482452393 C 67.10224914550781 15.53040790557861 69.73184967041016 19.43047523498535 71.56847381591797 23.77274131774902 C 73.46962738037109 28.26757431030273 74.43359375 33.04315185546875 74.43359375 37.966796875 C 74.43359375 42.89044189453125 73.46962738037109 47.66601943969727 71.56847381591797 52.16086196899414 C 69.73184967041016 56.50313186645508 67.10224914550781 60.4031867980957 63.75271987915039 63.75271987915039 C 60.4031867980957 67.10224914550781 56.50313186645508 69.73184967041016 52.16086196899414 71.56847381591797 C 47.66601943969727 73.46962738037109 42.89044189453125 74.43359375 37.966796875 74.43359375 Z" stroke="none"/>
                            <path d="M 37.966796875 3 C 33.2449836730957 3 28.66600799560547 3.924095153808594 24.35705947875977 5.746635437011719 C 20.19359588623047 7.507637023925781 16.45379638671875 10.02928161621094 13.24153518676758 13.24153518676758 C 10.02927398681641 16.45379638671875 7.507621765136719 20.19359588623047 5.746635437011719 24.35705947875977 C 3.924095153808594 28.66600799560547 3 33.2449836730957 3 37.966796875 C 3 42.6886100769043 3.924095153808594 47.26758575439453 5.746635437011719 51.57653427124023 C 7.507621765136719 55.73999786376953 10.02927398681641 59.47979736328125 13.24153518676758 62.69205856323242 C 16.45379638671875 65.90431976318359 20.19359588623047 68.42597198486328 24.35705947875977 70.18695831298828 C 28.66600799560547 72.00949859619141 33.2449836730957 72.93359375 37.966796875 72.93359375 C 42.6886100769043 72.93359375 47.26758575439453 72.00949859619141 51.57653427124023 70.18695831298828 C 55.73999786376953 68.42597198486328 59.47979736328125 65.90431976318359 62.69205856323242 62.69205856323242 C 65.90431976318359 59.47979736328125 68.42597198486328 55.73999786376953 70.18695831298828 51.57653427124023 C 72.00949859619141 47.26758575439453 72.93359375 42.6886100769043 72.93359375 37.966796875 C 72.93359375 33.2449836730957 72.00949859619141 28.66600799560547 70.18695831298828 24.35705947875977 C 68.42597198486328 20.19359588623047 65.90431976318359 16.45379638671875 62.69205856323242 13.24153518676758 C 59.47979736328125 10.02928161621094 55.73999786376953 7.507637023925781 51.57653427124023 5.746635437011719 C 47.26758575439453 3.924095153808594 42.6886100769043 3 37.966796875 3 M 37.966796875 0 C 58.93528366088867 0 75.93359375 16.99832153320312 75.93359375 37.966796875 C 75.93359375 58.93528366088867 58.93528366088867 75.93359375 37.966796875 75.93359375 C 16.99831008911133 75.93359375 0 58.93528366088867 0 37.966796875 C 0 16.99832153320312 16.99831008911133 0 37.966796875 0 Z" stroke="none" fill="#84792b"/>
                          </g>
                        </g>
                      </g>
                    </g>
                  </g>
                </g>
              </g>
            </g>
          </g>
        </g>
      </g>
    </g>
    <g id="confuso" transform="translate(207.792 365.233)">
      <path id="Trazado_1044901" data-name="Trazado 1044901" d="M119.676,377.693a1.6,1.6,0,0,0,1.584-1.82,13.6,13.6,0,0,0-26.957,0,1.6,1.6,0,0,0,1.584,1.82Z" transform="translate(-81.776 -328.831)" fill="#8fd9a9"/>
      <path id="Trazado_1044902" data-name="Trazado 1044902" d="M119.266,373.06l-1.461-3.406,2.136-.311c.651,1.467,2.781,3.327,6.76,3.863a13.6,13.6,0,0,0-25.682,0c3.979-.537,6.109-2.4,6.76-3.863l2.136.311-1.461,3.406a1.008,1.008,0,0,0,.394,1.257,9.325,9.325,0,0,1,2.912,3.376h4.2a9.324,9.324,0,0,1,2.912-3.376A1.008,1.008,0,0,0,119.266,373.06Z" transform="translate(-87.855 -328.831)" fill="#6ac65e"/>
      <ellipse id="Elipse_12541" data-name="Elipse 12541" cx="5.959" cy="4.871" rx="5.959" ry="4.871" transform="translate(4.469 22.937)" fill="#ffd3bd"/>
      <ellipse id="Elipse_12542" data-name="Elipse 12542" cx="5.959" cy="4.871" rx="5.959" ry="4.871" transform="translate(35.625 22.937)" fill="#ffbe9d"/>
      <path id="Trazado_1044903" data-name="Trazado 1044903" d="M91.722,156.177c0,8.468-7.63,14.234-17.043,14.234s-17.043-5.766-17.043-14.234,7.63-15.332,17.043-15.332S91.722,147.709,91.722,156.177Z" transform="translate(-48.673 -127.204)" fill="#ffd3bd"/>
      <path id="Trazado_1044904" data-name="Trazado 1044904" d="M74.678,177.32a21.156,21.156,0,0,0,6.733-1.067c-22.7-2.4-19.15-20.228-11.978-27.758-6.846,1.99-11.8,7.77-11.8,14.591C57.635,171.554,65.265,177.32,74.678,177.32Z" transform="translate(-48.672 -134.113)" fill="#ffbe9d"/>
      <g id="Grupo_1183260" data-name="Grupo 1183260" transform="translate(14.145 29.219)">
        <g id="Grupo_1183259" data-name="Grupo 1183259">
          <ellipse id="Elipse_12543" data-name="Elipse 12543" cx="3.197" cy="2.546" rx="3.197" ry="2.546" fill="#eda1ab"/>
          <ellipse id="Elipse_12544" data-name="Elipse 12544" cx="3.197" cy="2.546" rx="3.197" ry="2.546" transform="translate(17.328)" fill="#eda1ab"/>
        </g>
      </g>
      <path id="Trazado_1044905" data-name="Trazado 1044905" d="M55.158,96.571a8.325,8.325,0,0,1,4.97,1.7.919.919,0,0,0,1.1-.058C65,95.1,72.272,93.34,77.373,93.3a7.16,7.16,0,0,1,7.242,7.087,7.063,7.063,0,0,1-7.063,7.038c-3.675,0-12.886-.651-18.034-3.441a.912.912,0,0,0-1.113.2,4.567,4.567,0,0,1-7.97-2.991,4.626,4.626,0,0,1,4.722-4.623Z" transform="translate(-42.17 -84.264)" fill="#cb9d82"/>
      <path id="Trazado_1044906" data-name="Trazado 1044906" d="M5.8,13.595a.758.758,0,1,0-.453-.972A.758.758,0,0,0,5.8,13.595ZM7.324,7.282,6.409,9.8a.726.726,0,0,0,1.365.5l1.14-3.133a.726.726,0,0,0-.434-.931,2.463,2.463,0,1,1,3.156-1.472.726.726,0,0,0,1.365.5A3.915,3.915,0,1,0,7.324,7.282Zm45.113,7.564a3.917,3.917,0,0,0-4.379-2.723l-.915-2.513a.726.726,0,0,0-1.365.5l1.14,3.133a.727.727,0,0,0,.931.434,2.462,2.462,0,1,1-1.472,3.156.726.726,0,0,0-1.365.5,3.915,3.915,0,0,0,7.424-2.482ZM30.912,3.193a.758.758,0,1,0-1.073,0A.759.759,0,0,0,30.912,3.193ZM45.868,8.232a.758.758,0,1,0-.972-.453A.758.758,0,0,0,45.868,8.232ZM20.052,25.968a1.651,1.651,0,0,1-1.7,0,.726.726,0,0,0-.748,1.245,3.091,3.091,0,0,0,1,.382.723.723,0,0,0-.127.411v1.307a.726.726,0,1,0,1.453,0V28.007A.723.723,0,0,0,19.8,27.6a3.091,3.091,0,0,0,1-.382.726.726,0,0,0-.748-1.245Zm8.021,3.451a10.787,10.787,0,0,0-3.834-.535h-.027a.726.726,0,1,0,0,1.453h.025a9.748,9.748,0,0,1,3.286.427.726.726,0,0,0,.55-1.345Zm4.733-2.139a.726.726,0,0,0-.726.726v1.307a.726.726,0,0,0,1.453,0V28.007A.726.726,0,0,0,32.806,27.281Zm-8.287-9.6A.726.726,0,1,0,24,19.039a24.537,24.537,0,0,0,8.987.985.726.726,0,0,0-.2-1.44,23.552,23.552,0,0,1-8.272-.9Zm17.615,4.55c-.215-.42-.448-.833-.7-1.236a7.748,7.748,0,0,0,1.741-4.87A7.889,7.889,0,0,0,35.2,8.31a33.723,33.723,0,0,0-7.288.948,3.9,3.9,0,0,0-.673-2.435l1.892-1.892A.726.726,0,1,0,28.1,3.9L25.743,6.262a.727.727,0,0,0,0,1.027,2.454,2.454,0,0,1,.639,2.368,29.767,29.767,0,0,0-3.82,1.37,2.462,2.462,0,0,1-.3-3.738.726.726,0,1,0-1.027-1.028,3.915,3.915,0,0,0-.082,5.452,15.34,15.34,0,0,0-2.559,1.679.193.193,0,0,1-.231.014,9.486,9.486,0,0,0-4.1-1.73.726.726,0,0,0-.207,1.438,8.073,8.073,0,0,1,3.5,1.5,1.636,1.636,0,0,0,1.963-.1C23.23,11.446,30.556,9.762,35.26,9.762a6.434,6.434,0,0,1,6.46,6.359,6.348,6.348,0,0,1-6.337,6.314,60.683,60.683,0,0,1-8.357-.666,29.76,29.76,0,0,1-9.331-2.687,1.633,1.633,0,0,0-2,.354,3.832,3.832,0,1,1-4.615-5.952.726.726,0,1,0-.673-1.287,5.267,5.267,0,0,0-.131,9.305c-.14.241-.275.483-.4.73a7.275,7.275,0,0,0-4.154,1.6,5.148,5.148,0,0,0-1.977,3.978c0,2.637,2.146,4.869,5.166,5.451A14.226,14.226,0,0,0,14.379,40.5a14.245,14.245,0,0,0-2.572,6.451,2.329,2.329,0,0,0,2.3,2.643H35.35a.726.726,0,0,0,0-1.453H29.394a7.45,7.45,0,0,1,2-2.031,1.743,1.743,0,0,0,.682-2.163l-.321-.749q.641-.172,1.261-.382A10.8,10.8,0,0,0,38.3,45.026a12.777,12.777,0,0,1,.468,2.112.877.877,0,0,1-.391.858.726.726,0,1,0,.795,1.216A2.348,2.348,0,0,0,40.2,46.946,14.244,14.244,0,0,0,37.631,40.5,14.226,14.226,0,0,0,43.1,33.259c3.02-.582,5.166-2.814,5.166-5.451,0-3.092-2.87-5.354-6.134-5.576ZM8.493,31.656a4.329,4.329,0,0,1-3.3-3.847c0-1.934,1.709-3.578,3.992-4.024A14.511,14.511,0,0,0,8.493,31.656ZM15.6,41.279a18.034,18.034,0,0,0,1.781.907,9.854,9.854,0,0,1-3.048,1.234A12.854,12.854,0,0,1,15.6,41.279Zm-1.494,6.856a.875.875,0,0,1-.864-1,12.777,12.777,0,0,1,.468-2.112,10.8,10.8,0,0,0,5.278-2.214q.62.21,1.261.382l-.321.749a1.743,1.743,0,0,0,.682,2.163,7.45,7.45,0,0,1,2,2.03Zm11.168,0h-.941a9.8,9.8,0,0,0-2.964-3.269.282.282,0,0,1-.106-.351l.425-.99a22.5,22.5,0,0,0,3.587.4Zm5.358-3.269a9.8,9.8,0,0,0-2.964,3.269h-.941V43.921a22.507,22.507,0,0,0,3.587-.4l.425.99A.282.282,0,0,1,30.637,44.867Zm7.036-1.446a9.852,9.852,0,0,1-3.048-1.234,18.045,18.045,0,0,0,1.781-.907A12.867,12.867,0,0,1,37.673,43.421Zm-11.668-.94c-8.688,0-16.316-5.2-16.316-13.507a13.4,13.4,0,0,1,1.959-6.941,5.287,5.287,0,0,0,5.129-1.627A.185.185,0,0,1,17,20.359c5.151,2.791,14.275,3.528,18.38,3.528a7.752,7.752,0,0,0,5-1.824,13.382,13.382,0,0,1,1.942,6.909C42.322,37.275,34.7,42.48,26.005,42.48ZM43.518,31.656a14.505,14.505,0,0,0-.7-7.871c2.284.445,3.993,2.09,3.993,4.024A4.329,4.329,0,0,1,43.518,31.656ZM32.735,13.391c.833-.108,3.048-.4,3.927.674a.726.726,0,1,0,1.122-.922c-1.39-1.692-4.085-1.342-5.236-1.193a.726.726,0,0,0,.187,1.441Z" transform="translate(0 0)"/>
    </g>
  </g>
</svg>
