<svg xmlns="http://www.w3.org/2000/svg" xmlns:xlink="http://www.w3.org/1999/xlink" width="400" height="325" viewBox="0 0 400 325">
  <defs>
    <clipPath id="clip-path">
      <rect id="Rectángulo_416397" data-name="Rectángulo 416397" width="400" height="325" transform="translate(180 6529)" fill="#fff" stroke="#707070" stroke-width="1"/>
    </clipPath>
    <clipPath id="clip-path-2">
      <rect id="Rectángulo_416384" data-name="Rectángulo 416384" width="408.018" height="389.485" fill="none"/>
    </clipPath>
    <filter id="Trazado_1051780" x="245.101" y="139.27" width="119.127" height="37.095" filterUnits="userSpaceOnUse">
      <feOffset dy="3" input="SourceAlpha"/>
      <feGaussianBlur stdDeviation="3" result="blur"/>
      <feFlood flood-opacity="0.161"/>
      <feComposite operator="in" in2="blur"/>
      <feComposite in="SourceGraphic"/>
    </filter>
    <filter id="Trazado_1051781" x="27.196" y="215.39" width="134.685" height="40.033" filterUnits="userSpaceOnUse">
      <feOffset dy="3" input="SourceAlpha"/>
      <feGaussianBlur stdDeviation="3" result="blur-2"/>
      <feFlood flood-opacity="0.161"/>
      <feComposite operator="in" in2="blur-2"/>
      <feComposite in="SourceGraphic"/>
    </filter>
    <filter id="Trazado_1051782" x="17.506" y="75.134" width="96.494" height="38.083" filterUnits="userSpaceOnUse">
      <feOffset dy="3" input="SourceAlpha"/>
      <feGaussianBlur stdDeviation="3" result="blur-3"/>
      <feFlood flood-opacity="0.161"/>
      <feComposite operator="in" in2="blur-3"/>
      <feComposite in="SourceGraphic"/>
    </filter>
    <filter id="Trazado_1051783" x="295.665" y="215.83" width="82.082" height="34.396" filterUnits="userSpaceOnUse">
      <feOffset dy="3" input="SourceAlpha"/>
      <feGaussianBlur stdDeviation="3" result="blur-4"/>
      <feFlood flood-opacity="0.161"/>
      <feComposite operator="in" in2="blur-4"/>
      <feComposite in="SourceGraphic"/>
    </filter>
    <clipPath id="clip-path-3">
      <rect id="Rectángulo_416385" data-name="Rectángulo 416385" width="375.064" height="375.063" fill="none"/>
    </clipPath>
    <clipPath id="clip-path-5">
      <path id="Trazado_1051819" data-name="Trazado 1051819" d="M271.668,288.466c-.085-1.576-.17-2.45-.17-2.45L218.835,293.1c3.085,47.295-8.908,70.71-8.908,70.71l21.555,16.567s11.474-3.136,27.523-30.651a82.778,82.778,0,0,0,7.046-15.9c17.755,13.51,22.273,34.557,22.273,34.557l25.6-3.079s7.826-9.339,1.062-40.467-33.84-55.4-33.84-55.4Z" transform="translate(-209.927 -269.434)" fill="none"/>
    </clipPath>
    <clipPath id="clip-path-6">
      <rect id="Rectángulo_416387" data-name="Rectángulo 416387" width="103.083" height="86.33" fill="none"/>
    </clipPath>
    <clipPath id="clip-path-8">
      <path id="Trazado_1051830" data-name="Trazado 1051830" d="M135.522,276.7c-1.647.6-2.37.1-4.73-.4a41.353,41.353,0,0,0-10-.641c-1.731.052-3.928-.077-6.041-.206-3.173-.194-6.158-.387-7.1.027-7.811,3.445,18.66,14.16,24.877,17.315,2.209,1.122,9.584-4.538,12.423-6.769,3.889-3.057,24.468-14.039,24.468-14.039l-17.337-14.114s-14.252,17.989-16.564,18.827" transform="translate(-106.226 -257.873)" fill="none"/>
    </clipPath>
    <clipPath id="clip-path-10">
      <path id="Trazado_1051841" data-name="Trazado 1051841" d="M326.916,82.848c-2.6.341.894,13.805.894,13.805s-5.7,4.571-7.522,7.735c-1.876,3.265,11.523-.479,11.523-.479s30.221,21.489,57.935,7c0,0,3.8-2.32,3.857-5.13.05-2.5-3.264-6.107-3.264-6.107s-18.869-23.642-51.3-6.912c-2.311-1.71-9.524-9.918-11.991-9.919a1.018,1.018,0,0,0-.129.008" transform="translate(-320.109 -82.84)" fill="none"/>
    </clipPath>
    <clipPath id="clip-path-11">
      <path id="Trazado_1051845" data-name="Trazado 1051845" d="M354.665,94.506s-.52,7.7,11.856,6.948,15.272-9.82,15.272-9.82a25.61,25.61,0,0,0-9.6-1.623,38.17,38.17,0,0,0-17.525,4.5" transform="translate(-354.662 -90.01)" fill="none"/>
    </clipPath>
    <clipPath id="clip-path-13">
      <path id="Trazado_1051866" data-name="Trazado 1051866" d="M312.067,165.561a293.194,293.194,0,0,0-39.931,3.562c1.387,11.648,29.785,40.01,29.785,40.01s23.524-.672,28.962-3.792c10.21-5.858,23.916-18.986,23.916-18.986-7.7-7.354-26.763-31.063-26.763-31.063s-13.408,8.449-15.968,10.268" transform="translate(-272.136 -155.292)" fill="none"/>
    </clipPath>
    <clipPath id="clip-path-15">
      <path id="Trazado_1051875" data-name="Trazado 1051875" d="M249.484,164.828c-6.681.1-26.751,12.9-26.751,12.9l-3.244,40.18L217.322,281.8l5.269,2.108,6.418-23.09,6.252,23.105c50.538.351,74.948-13.32,74.948-13.32l-21.985-59.091-22.455-41.268s-11.857-5.42-16.21-5.42h-.075" transform="translate(-217.322 -164.828)" fill="none"/>
    </clipPath>
    <clipPath id="clip-path-17">
      <path id="Trazado_1051884" data-name="Trazado 1051884" d="M149.413,251.041C160.8,268.832,193.791,278.9,193.791,278.9l9.912-37.923c13.022-28.926,4.427-61.345,4.427-61.345s-44.656,32.38-58.716,71.405" transform="translate(-149.413 -179.636)" fill="none"/>
    </clipPath>
    <clipPath id="clip-path-19">
      <path id="Trazado_1051912" data-name="Trazado 1051912" d="M230.657,171.641c.59,6.2,19.329,22.326,26.173,20.838s3.963-19.875,3.963-19.875-14.968-3.49-23.809-3.489c-3.826,0-6.506.654-6.327,2.526" transform="translate(-230.649 -169.115)" fill="none"/>
    </clipPath>
    <clipPath id="clip-path-21">
      <path id="Trazado_1051927" data-name="Trazado 1051927" d="M266.537,145.358a22.138,22.138,0,0,1-5.153-.186c-2.883-.326-5.531-.652-6.378.848-1.621,2.874,2.153,7.48,10.407,8.146,8.743.707,13.481-8.668,10.506-11.093a2.126,2.126,0,0,0-1.392-.5c-1.958,0-4.413,2.31-7.989,2.788" transform="translate(-254.638 -142.57)" fill="none"/>
    </clipPath>
  </defs>
  <g id="Enmascarar_grupo_1098853" data-name="Enmascarar grupo 1098853" transform="translate(-180 -6529)" clip-path="url(#clip-path)">
    <g id="Grupo_1185736" data-name="Grupo 1185736" transform="translate(-431 474.427)">
      <g id="Grupo_1185694" data-name="Grupo 1185694" transform="translate(611 6032.9)">
        <g id="Grupo_1185693" data-name="Grupo 1185693" clip-path="url(#clip-path-2)">
          <path id="Trazado_1051779" data-name="Trazado 1051779" d="M266.459,34.781s144.093-3.835,137.258,63.811-73.7,73.7,3.227,146.427S231.035,387.11,119.213,320.041s60.139-116.986,15.1-156.417S78.509,44.952,266.459,34.781" transform="matrix(0.914, -0.407, 0.407, 0.914, -120.221, 128.328)" fill="#a2c3f5"/>
          <g transform="matrix(1, 0, 0, 1, 0, 21.67)" filter="url(#Trazado_1051780)">
            <path id="Trazado_1051780-2" data-name="Trazado 1051780" d="M352.8,169.66s10.773-14.652,28.353-5.846c0,0,2.87-12.379,17.4-13.212s15.155,12.823,15.155,12.823,12.823-5.957,20.595,3.5c0,0,11.269-9.455,19.621,2.737Z" transform="translate(-98.7 -5.3)" fill="#fff"/>
          </g>
          <g transform="matrix(1, 0, 0, 1, 0, 21.67)" filter="url(#Trazado_1051781)">
            <path id="Trazado_1051781-2" data-name="Trazado 1051781" d="M164.938,346.061s-12.43-16.906-32.714-6.745c0,0-3.313-14.283-20.082-15.245s-17.486,14.8-17.486,14.8-14.8-6.874-23.763,4.035c0,0-13-10.909-22.64,3.159Z" transform="translate(-12.06 -102.64)" fill="#fff"/>
          </g>
          <g transform="matrix(1, 0, 0, 1, 0, 21.67)" filter="url(#Trazado_1051782)">
            <path id="Trazado_1051782-2" data-name="Trazado 1051782" d="M78.644,93.146S87.006,77.736,100.65,87c0,0,2.229-13.018,13.509-13.9s11.763,13.487,11.763,13.487,9.953-6.265,15.986,3.679c0,0,8.746-9.944,15.229,2.879Z" transform="translate(-52.14 8.07)" fill="#fff"/>
          </g>
          <g transform="matrix(1, 0, 0, 1, 0, 21.67)" filter="url(#Trazado_1051783)">
            <path id="Trazado_1051783-2" data-name="Trazado 1051783" d="M406.151,341.01s6.826-12.581,17.966-5.02c0,0,1.819-10.629,11.028-11.344s9.6,11.01,9.6,11.01,8.126-5.114,13.051,3c0,0,7.141-8.118,12.433,2.35Z" transform="translate(-101.49 -102.79)" fill="#fff"/>
          </g>
        </g>
      </g>
      <g id="Grupo_1185696" data-name="Grupo 1185696" transform="translate(625.94 6032.9)">
        <g id="Grupo_1185695" data-name="Grupo 1185695" transform="translate(0)" clip-path="url(#clip-path-3)">
          <path id="Trazado_1051784" data-name="Trazado 1051784" d="M0,491.009s63.7-77.415,195.589-77.415,212.429,79.237,212.429,79.237Z" transform="translate(-14.94 -103.346)" fill="#7cb02e"/>
          <path id="Trazado_1051785" data-name="Trazado 1051785" d="M382.644,483.164s.341-6.246-4.27-9.5c-2.029-1.434-6.244.38,4.27,9.5" transform="translate(-108.843 -118.245)" fill="#5d940a"/>
          <path id="Trazado_1051786" data-name="Trazado 1051786" d="M387.753,481.977s-.464-8.485,5.8-12.912c2.756-1.947,8.482.516-5.8,12.912" transform="translate(-111.827 -117.058)" fill="#5d940a"/>
          <path id="Trazado_1051787" data-name="Trazado 1051787" d="M393.776,484.219s2.623-5.114,7.792-5.564c2.275-.2,4.778,3.195-7.792,5.564" transform="translate(-113.333 -119.601)" fill="#5d940a"/>
          <path id="Trazado_1051788" data-name="Trazado 1051788" d="M444.9,456.388s2.659-5.663-.394-10.413c-1.343-2.09-5.93-1.989.394,10.413" transform="translate(-125.292 -111.183)" fill="#7cb02e"/>
          <path id="Trazado_1051789" data-name="Trazado 1051789" d="M448.61,457.967s2.752-8.04,10.22-9.794c3.286-.772,7.669,3.659-10.22,9.794" transform="translate(-127.035 -111.964)" fill="#7cb02e"/>
          <path id="Trazado_1051790" data-name="Trazado 1051790" d="M454.341,462.279s4.351-3.757,9.311-2.235c2.183.67,3.232,4.754-9.311,2.235" transform="translate(-128.467 -114.862)" fill="#7cb02e"/>
          <path id="Trazado_1051791" data-name="Trazado 1051791" d="M366.285,426.3s1.457-6.084-2.494-10.117c-1.739-1.775-6.211-.747,2.494,10.117" transform="translate(-105.166 -103.819)" fill="#7cb02e"/>
          <path id="Trazado_1051792" data-name="Trazado 1051792" d="M370.8,426.426s1.067-8.431,8.024-11.661c3.061-1.421,8.251,2.03-8.024,11.661" transform="translate(-107.593 -103.562)" fill="#7cb02e"/>
          <path id="Trazado_1051793" data-name="Trazado 1051793" d="M376.8,429.729s3.5-4.561,8.665-4.074c2.274.214,4.128,4-8.665,4.074" transform="translate(-109.091 -106.35)" fill="#7cb02e"/>
          <path id="Trazado_1051794" data-name="Trazado 1051794" d="M66.675,465.894s-2.568-7.352,1.82-12.843c1.931-2.416,7.6-1.705-1.82,12.843" transform="translate(-31.413 -112.94)" fill="#7cb02e"/>
          <path id="Trazado_1051795" data-name="Trazado 1051795" d="M58.433,466.955s-2.379-10.307-11.4-13.435c-3.97-1.376-9.965,3.549,11.4,13.435" transform="translate(-25.714 -113.266)" fill="#7cb02e"/>
          <path id="Trazado_1051796" data-name="Trazado 1051796" d="M51.833,471.724s-4.907-5.21-11.243-3.958c-2.788.551-4.61,5.473,11.243,3.958" transform="translate(-24.618 -116.833)" fill="#7cb02e"/>
          <path id="Trazado_1051797" data-name="Trazado 1051797" d="M164.655,424.9s-1.148-6.513,3.281-10.517c1.949-1.762,6.6-.391-3.281,10.517" transform="translate(-56.049 -103.384)" fill="#7cb02e"/>
          <path id="Trazado_1051798" data-name="Trazado 1051798" d="M157.972,424.567s-.586-8.966-7.721-12.82c-3.14-1.7-8.839,1.613,7.721,12.82" transform="translate(-51.597 -102.78)" fill="#7cb02e"/>
          <path id="Trazado_1051799" data-name="Trazado 1051799" d="M151.793,427.7s-3.4-5.038-8.884-4.855c-2.412.08-4.613,3.957,8.884,4.855" transform="translate(-50.197 -105.656)" fill="#7cb02e"/>
          <path id="Trazado_1051800" data-name="Trazado 1051800" d="M157.246,474.1s-.425-7.765,5.309-11.816c2.523-1.783,7.762.471-5.309,11.816" transform="translate(-54.229 -115.375)" fill="#5d940a"/>
          <path id="Trazado_1051801" data-name="Trazado 1051801" d="M149.878,472.619s.576-10.549-7.212-16.052c-3.427-2.421-10.545.641,7.212,16.052" transform="translate(-49.504 -113.899)" fill="#5d940a"/>
          <path id="Trazado_1051802" data-name="Trazado 1051802" d="M142.245,475.407s-3.262-6.359-9.688-6.916c-2.828-.246-5.941,3.971,9.688,6.916" transform="translate(-47.484 -117.06)" fill="#5d940a"/>
        </g>
      </g>
      <g id="Grupo_1185698" data-name="Grupo 1185698" transform="translate(611 6032.9)">
        <g id="Grupo_1185697" data-name="Grupo 1185697" clip-path="url(#clip-path-2)">
          <path id="Trazado_1051803" data-name="Trazado 1051803" d="M321.592,450.562c0,6.434-32.367,11.649-72.294,11.649S177,457,177,450.562s32.367-11.649,72.294-11.649,72.294,5.216,72.294,11.649" transform="translate(-44.228 -109.672)" fill="#5d940a"/>
          <path id="Trazado_1051804" data-name="Trazado 1051804" d="M211.366,357.608c6.2-16.8,3.934-64.95,3.934-64.95l45.533,10.854S249.82,353.077,232.468,374.5s-36.6,25.231-36.6,25.231l-13.74-7.95c10.223-9.389,24.583-21.577,29.234-34.176" transform="translate(-45.51 -73.127)" fill="#fc8d59"/>
          <path id="Trazado_1051805" data-name="Trazado 1051805" d="M199.437,404.323l13.847,16.151s-4.382,2.536-5.9,3.272c-1.635.792-6.7,2.806-6.7,2.806L186.526,416.4Z" transform="translate(-46.608 -101.029)" fill="#fff"/>
          <line id="Línea_697" data-name="Línea 697" x1="11.246" y1="16.065" transform="translate(149.531 306.651)" fill="none" stroke="#efa92b" stroke-miterlimit="10" stroke-width="1"/>
          <line id="Línea_698" data-name="Línea 698" x2="14.36" y2="12.7" transform="translate(143.919 311.626)" fill="none" stroke="#efa92b" stroke-miterlimit="10" stroke-width="1"/>
          <path id="Trazado_1051806" data-name="Trazado 1051806" d="M184.472,420.424c-3.208,2.016-6.146,4.18-6.167,5.482-.086,5.21,25.263,29.412,26.694,26.639s-6.369-21.965-6.369-21.965Z" transform="translate(-44.554 -105.052)" fill="#efa92b"/>
          <path id="Trazado_1051807" data-name="Trazado 1051807" d="M197.874,428.363s1.087,6.163,0,5.789-4.4-8.746-4.4-8.746" transform="translate(-48.343 -106.297)" fill="#fff"/>
          <line id="Línea_699" data-name="Línea 699" x2="5.208" y2="3.736" transform="translate(139.918 315.371)" fill="none" stroke="#4f1d00" stroke-miterlimit="10" stroke-width="1"/>
          <line id="Línea_700" data-name="Línea 700" x1="4.544" y1="3.462" transform="translate(149.532 322.065)" fill="none" stroke="#4f1d00" stroke-miterlimit="10" stroke-width="1"/>
          <path id="Trazado_1051808" data-name="Trazado 1051808" d="M298.729,355.349c-6.78-16.573-40.99-50.535-40.99-50.535l40.9-22.767s25.375,43.978,27.063,71.5-9.927,43.328-9.927,43.328l-15.5,3.424c1.19-13.829,3.541-32.517-1.544-44.947" transform="translate(-64.402 -70.476)" fill="#fc8d59"/>
          <path id="Trazado_1051809" data-name="Trazado 1051809" d="M314.722,429.446l17.3-2.081a30.462,30.462,0,0,0,2.455-4.576c.878-2.078,1.824-5.465,1.824-5.465H315.873Z" transform="translate(-78.64 -104.278)" fill="#fff"/>
          <line id="Línea_701" data-name="Línea 701" y1="1.265" x2="18.919" transform="translate(236.507 319.427)" fill="none" stroke="#efa92b" stroke-miterlimit="10" stroke-width="1"/>
          <line id="Línea_702" data-name="Línea 702" x1="19.712" transform="translate(236.916 316.379)" fill="none" stroke="#efa92b" stroke-miterlimit="10" stroke-width="1"/>
          <path id="Trazado_1051810" data-name="Trazado 1051810" d="M314.312,432.8c-1,3.655-1.706,7.233-.842,8.208,3.457,3.9,42.93,1.953,42.111-1.058s-23.971-9.231-23.971-9.231Z" transform="translate(-78.23 -107.624)" fill="#efa92b"/>
          <path id="Trazado_1051811" data-name="Trazado 1051811" d="M322.868,432.173s10.784,3.1,11.98,2.763-4.072-3.691-4.072-3.691Z" transform="translate(-80.676 -107.757)" fill="#fff"/>
          <line id="Línea_703" data-name="Línea 703" y1="0.389" x2="3.283" transform="translate(250.098 323.091)" fill="none" stroke="#4f1d00" stroke-miterlimit="10" stroke-width="1"/>
          <line id="Línea_704" data-name="Línea 704" y1="0.845" x2="6.924" transform="translate(236.082 324.326)" fill="none" stroke="#4f1d00" stroke-miterlimit="10" stroke-width="1"/>
          <path id="Trazado_1051812" data-name="Trazado 1051812" d="M314.984,324.836c-6.764-31.127-33.84-55.4-33.84-55.4l-9.476,19.034c-.085-1.577-.17-2.45-.17-2.45L218.835,293.1c3.987,41.142-8.908,70.709-8.908,70.709l21.555,16.567S242.957,377.24,259,349.724a82.779,82.779,0,0,0,7.046-15.9c17.755,13.51,22.273,34.558,22.273,34.558l25.6-3.079s7.827-9.34,1.063-40.467" transform="translate(-52.455 -67.324)" fill="#e84727"/>
        </g>
      </g>
      <g id="Grupo_1185703" data-name="Grupo 1185703" transform="translate(768.472 6235.01)">
        <g id="Grupo_1185702" data-name="Grupo 1185702" transform="translate(0 0)" clip-path="url(#clip-path-5)">
          <g id="Grupo_1185701" data-name="Grupo 1185701" transform="translate(-4.174 0.953)" opacity="0.49">
            <g id="Grupo_1185700" data-name="Grupo 1185700">
              <g id="Grupo_1185699" data-name="Grupo 1185699" clip-path="url(#clip-path-6)">
                <path id="Trazado_1051813" data-name="Trazado 1051813" d="M284.751,352.576s3.349-12.946,8.016-6.017,8.347,20.729,7.263,27.8-15.279-21.786-15.279-21.786" transform="translate(-224.449 -289.148)" fill="#cf1e06"/>
                <path id="Trazado_1051814" data-name="Trazado 1051814" d="M204.361,319.687s58.836,21.68,103.084-17.919L298.856,270.7l-94.5,14.382Z" transform="translate(-204.362 -270.704)" fill="#cf1e06"/>
              </g>
            </g>
          </g>
          <path id="Trazado_1051815" data-name="Trazado 1051815" d="M217.932,400.984s.378-.421,1.017-1.239" transform="translate(-211.927 -301.995)" fill="none" stroke="#cf1e06" stroke-miterlimit="10" stroke-width="1"/>
          <path id="Trazado_1051816" data-name="Trazado 1051816" d="M222.951,382.934a75.937,75.937,0,0,0,11.742-34.954" transform="translate(-213.181 -289.06)" fill="none" stroke="#cf1e06" stroke-miterlimit="10" stroke-width="1" stroke-dasharray="3.944 5.916"/>
          <path id="Trazado_1051817" data-name="Trazado 1051817" d="M238.813,344.277q.041-.8.065-1.606" transform="translate(-217.145 -287.734)" fill="none" stroke="#cf1e06" stroke-miterlimit="10" stroke-width="1"/>
          <path id="Trazado_1051818" data-name="Trazado 1051818" d="M220.523,337.288s17.862,8.448,27.917-15.567" transform="translate(-212.575 -282.499)" fill="none" stroke="#cf1e06" stroke-miterlimit="10" stroke-width="1"/>
        </g>
      </g>
      <g id="Grupo_1185705" data-name="Grupo 1185705" transform="translate(611 6032.9)">
        <g id="Grupo_1185704" data-name="Grupo 1185704" clip-path="url(#clip-path-2)">
          <line id="Línea_705" data-name="Línea 705" x1="18.893" y1="14.521" transform="translate(158.28 297.105)" fill="none" stroke="#4f1d00" stroke-miterlimit="10" stroke-width="1"/>
          <line id="Línea_706" data-name="Línea 706" x1="23.709" y2="2.784" transform="translate(237.216 298.045)" fill="none" stroke="#4f1d00" stroke-miterlimit="10" stroke-width="1"/>
          <path id="Trazado_1051820" data-name="Trazado 1051820" d="M344.54,355.752A24.507,24.507,0,0,1,345,358.17l-.043-.32c.065.491.134.98.2,1.471l-.045-.333a37.617,37.617,0,0,1,.317,5.543c-.014.917-.079,1.829-.155,2.742-.038.455-.06.91-.1,1.364-.022.227-.049.452-.064.68-.008.107-.02.214-.02.321a4.6,4.6,0,0,0,.091.626,2.55,2.55,0,0,0,.189.77.837.837,0,0,0,.974.5c.546-.151.856-.783,1.085-1.259a5.7,5.7,0,0,0,.388-1.567c.089-.546.178-1.1.222-1.648a29.782,29.782,0,0,0-.048-5.558c-.12-1.108-.283-2.212-.5-3.3-.1-.506-.255-1-.387-1.5s-.281-1.022-.439-1.528a1.1,1.1,0,0,0-2.125.586" transform="translate(-86.083 -88.543)" fill="#cf1e06"/>
          <path id="Trazado_1051821" data-name="Trazado 1051821" d="M343.7,380.285c-.145.525-.287,1.051-.438,1.574s-.3,1.039-.452,1.56c-.041.146-.073.295-.109.442-.018.074-.038.147-.055.221a1.854,1.854,0,0,0-.049.407l0,.02c.014.1.028.207.042.311a1.968,1.968,0,0,0,.137.32,1.135,1.135,0,0,0,.405.406.85.85,0,0,0,.42.134.869.869,0,0,0,.451-.02,1.132,1.132,0,0,0,.5-.291c.013-.01.028-.021.041-.033l.092-.119a1.035,1.035,0,0,0,.1-.134,1.711,1.711,0,0,0,.151-.358c.018-.067.031-.134.047-.2.028-.128.058-.256.087-.383.06-.266.1-.538.151-.806.1-.534.194-1.069.3-1.6q.088-.447.177-.895a.791.791,0,0,0,.019-.413,1.07,1.07,0,0,0-.743-.863l-.276-.037a1.029,1.029,0,0,0-.524.142,1.082,1.082,0,0,0-.476.62" transform="translate(-85.605 -94.833)" fill="#cf1e06"/>
          <path id="Trazado_1051822" data-name="Trazado 1051822" d="M338.411,370.849a10.753,10.753,0,0,1-.065,2.107l.036-.264c-.029.21-.061.421-.1.63-.054.3-.076.6-.116.9l.04-.292c-.062.452-.142.9-.227,1.35-.042.222-.089.444-.14.665-.026.113-.054.225-.083.337-.013.051-.026.1-.04.154a2.759,2.759,0,0,0-.078.456l.04.3a.86.86,0,0,0,.2.385.58.58,0,0,0,.2.2.86.86,0,0,0,.385.2,1.357,1.357,0,0,0,.6,0,1.266,1.266,0,0,0,.677-.521,2.661,2.661,0,0,0,.178-.493c.024-.093.047-.187.07-.281.042-.179.081-.357.117-.537.088-.439.157-.881.2-1.327q.055-.546.073-1.093a4.807,4.807,0,0,0-.032-.549c-.014-.179-.032-.356-.052-.535-.054-.476-.106-.952-.173-1.427.01.076.02.152.031.229-.035-.276-.071-.551-.116-.826a.624.624,0,0,0-.149-.283.632.632,0,0,0-.234-.215.864.864,0,0,0-.53-.1.792.792,0,0,0-.478.23.824.824,0,0,0-.244.588" transform="translate(-84.367 -92.459)" fill="#cf1e06"/>
          <path id="Trazado_1051823" data-name="Trazado 1051823" d="M241.989,401.833c.476-.258.934-.547,1.409-.806.237-.13.466-.271.695-.416s.463-.278.684-.429a34.96,34.96,0,0,0,2.789-2.111,26.244,26.244,0,0,0,2.346-2.212,30.405,30.405,0,0,0,2.236-2.727c.179-.242.34-.5.5-.749a3.637,3.637,0,0,0,.49-1.069c.037-.148.04-.3.072-.45.016-.07.042-.138.064-.206a1.028,1.028,0,0,0-.029-.716.9.9,0,0,0-.731-.559,1.02,1.02,0,0,0-.843.293c-.059.055-.116.113-.173.168l.208-.161c-.2.155-.417.272-.614.44l.248-.191a4.833,4.833,0,0,0-.5.411,4.366,4.366,0,0,0-.419.531q-.228.311-.464.614l.215-.278c-.338.437-.658.889-1,1.327l.215-.278c-.764.989-1.577,1.937-2.427,2.853a36.3,36.3,0,0,1-2.625,2.595c-.527.463-1.061.923-1.616,1.352l.209-.162c-.258.2-.518.4-.771.6l.2-.155c-.418.32-.861.611-1.3.9a.92.92,0,1,0,.929,1.589" transform="translate(-60.12 -97.294)" fill="#cf1e06"/>
          <path id="Trazado_1051824" data-name="Trazado 1051824" d="M259.49,383.49l.121-.21-.122.158a2.282,2.282,0,0,0,.218-.291c.031-.059.061-.121.091-.181.061-.12.119-.242.185-.36.134-.236.243-.482.357-.728.15-.323.313-.644.44-.976.1-.257.193-.515.29-.772l1.166-3.107c.106-.281.209-.567.3-.854a2.94,2.94,0,0,0,.141-.69,1.153,1.153,0,0,0-.335-.839l-.065-.084.127.164-.013-.022.078.187a2.082,2.082,0,0,0-.108-.261.685.685,0,0,0-.334-.291.768.768,0,0,0-.7.085l.187-.079a2.007,2.007,0,0,0-.467.161,1.37,1.37,0,0,0-.535.682c-.148.328-.266.665-.39,1-.19.521-.359,1.052-.536,1.577s-.351,1.039-.527,1.558l-.263.779c-.091.266-.159.537-.229.81-.074.29-.168.581-.218.876a7.671,7.671,0,0,0-.19,1.1c.009-.069.018-.139.028-.208l-.04.244a.783.783,0,0,0,.074.569.762.762,0,0,0,.353.3.738.738,0,0,0,.922-.3" transform="translate(-64.497 -93.522)" fill="#cf1e06"/>
          <path id="Trazado_1051825" data-name="Trazado 1051825" d="M249.19,388.2c.275-.353.542-.71.809-1.069l-.145.188c.212-.263.434-.515.629-.791q.232-.332.455-.668a14.741,14.741,0,0,0,.786-1.36,28.906,28.906,0,0,0,1.4-3.151q.16-.426.308-.857a5.657,5.657,0,0,0,.211-1.148c-.013.1-.026.2-.039.3.024-.117.049-.228.065-.347a1.049,1.049,0,0,0-.13-.7,2.128,2.128,0,0,0-.226-.28l.245.421a1.084,1.084,0,0,0-.46-.822l.215.215-.119-.154a.513.513,0,0,0-.519-.137c-.07.029.1-.007.1-.007-.062.01-.141.009-.2.026a1,1,0,0,0-.386.245c-.077.067-.148.142-.22.215l.421-.245a1.123,1.123,0,0,0-.8.656c-.045.108-.084.218-.128.326l.113-.265a8,8,0,0,0-.483,1.106q-.153.461-.321.917c-.221.6-.458,1.2-.706,1.787l.119-.281q-.367.87-.785,1.715c-.138.28-.261.566-.393.848-.165.355-.342.7-.494,1.064l.1-.24a8.273,8.273,0,0,1-.353.752q-.2.363-.407.719a.853.853,0,0,0,.219,1.1.835.835,0,0,0,1.115-.067" transform="translate(-61.904 -94.404)" fill="#cf1e06"/>
          <path id="Trazado_1051826" data-name="Trazado 1051826" d="M221.276,319.2a164.49,164.49,0,0,1-4.584,40.91" transform="translate(-54.145 -79.759)" fill="none" stroke="#4f1d00" stroke-miterlimit="10" stroke-width="1"/>
          <path id="Trazado_1051827" data-name="Trazado 1051827" d="M284.746,355.274a58.774,58.774,0,0,1,13.975,15.448" transform="translate(-71.15 -88.773)" fill="none" stroke="#4f1d00" stroke-miterlimit="10" stroke-width="1"/>
          <path id="Trazado_1051828" data-name="Trazado 1051828" d="M152.087,257.873s-14.252,17.988-16.564,18.827c-2.955,1.072-2.937-1.387-14.73-1.041-4.33.127-11.571-.87-13.138-.179-7.811,3.445,18.66,14.159,24.877,17.315,2.21,1.122,9.584-4.538,12.423-6.77,3.889-3.057,24.468-14.039,24.468-14.039Z" transform="translate(-26.543 -64.435)" fill="#fc8d59"/>
        </g>
      </g>
      <g id="Grupo_1185707" data-name="Grupo 1185707" transform="translate(690.683 6226.338)">
        <g id="Grupo_1185706" data-name="Grupo 1185706" transform="translate(0 0)" clip-path="url(#clip-path-8)">
          <path id="Trazado_1051829" data-name="Trazado 1051829" d="M144,280.613l24.549,8.794-17.027-16.849Z" transform="translate(-115.666 -261.543)" fill="#ea6132"/>
        </g>
      </g>
      <g id="Grupo_1185709" data-name="Grupo 1185709" transform="translate(611 6032.9)">
        <g id="Grupo_1185708" data-name="Grupo 1185708" clip-path="url(#clip-path-2)">
          <path id="Trazado_1051831" data-name="Trazado 1051831" d="M131.57,297.813s-10.77,5.331-9.959,6.761,15.68-2.361,15.68-2.361,6.765-4.069,6.719-6.482-12.439,2.082-12.439,2.082" transform="translate(-30.376 -73.717)" fill="#fc8d59"/>
          <path id="Trazado_1051832" data-name="Trazado 1051832" d="M107.933,284.132s-4.923-1.874-5.759-.011,10.586,9.683,21.682,9.108-15.922-9.1-15.922-9.1" transform="translate(-25.52 -70.788)" fill="#fc8d59"/>
          <path id="Trazado_1051833" data-name="Trazado 1051833" d="M125.5,282.128s-3.724-3.163-2.735-4.333,8.373,3.247,8.373,3.247Z" transform="translate(-30.635 -69.364)" fill="#fc8d59"/>
          <path id="Trazado_1051834" data-name="Trazado 1051834" d="M106.226,283.637a133.982,133.982,0,0,0,13.79,4.485" transform="translate(-26.543 -70.873)" fill="none" stroke="#ea6132" stroke-miterlimit="10" stroke-width="1"/>
          <path id="Trazado_1051835" data-name="Trazado 1051835" d="M107.7,281.552s9.275,1.286,14.344,2.6" transform="translate(-26.913 -70.352)" fill="none" stroke="#ea6132" stroke-miterlimit="10" stroke-width="1"/>
          <line id="Línea_707" data-name="Línea 707" x2="3.672" transform="translate(93.308 211.235)" fill="none" stroke="#ea6132" stroke-miterlimit="10" stroke-width="1"/>
          <path id="Trazado_1051836" data-name="Trazado 1051836" d="M333.153,157.656s15.128-16.806,15.562-19.19c.555-3.048-1.516-11.041,2.493-15.251,12.049-12.651,19.948-4.4,18.034,1.262-2.438,7.22-.17,11.461-2.716,15.274-1.015,1.521-4.5,4.024-7.2,6.342-2.723,2.34-9.609,26.08-9.609,26.08Z" transform="translate(-83.246 -29.124)" fill="#fc8d59"/>
          <path id="Trazado_1051837" data-name="Trazado 1051837" d="M359.193,163.481l-12.142-8.189,9.887,14.51Z" transform="translate(-86.718 -38.803)" fill="#ea6132"/>
          <path id="Trazado_1051838" data-name="Trazado 1051838" d="M400,100.632,378.13,99.039s14.765-10.773,17-11.2,4.8,6.757,4.87,12.8" transform="translate(-94.484 -21.943)" fill="#e84727"/>
          <path id="Trazado_1051839" data-name="Trazado 1051839" d="M389.747,110.907s3.8-2.319,3.856-5.13c.049-2.5-3.263-6.107-3.263-6.107s-18.869-23.642-51.3-6.912c-2.352-1.741-9.786-10.217-12.12-9.911-2.6.341.895,13.806.895,13.806s-5.7,4.571-7.522,7.736c-1.875,3.264,11.523-.481,11.523-.481s30.221,21.49,57.935,7" transform="translate(-79.986 -20.699)" fill="#cf1e06"/>
        </g>
      </g>
      <g id="Grupo_1185711" data-name="Grupo 1185711" transform="translate(851.122 6095.041)">
        <g id="Grupo_1185710" data-name="Grupo 1185710" transform="translate(0 0)" clip-path="url(#clip-path-10)">
          <path id="Trazado_1051840" data-name="Trazado 1051840" d="M390.626,103.468a10.751,10.751,0,0,0,.267,10.587,14.469,14.469,0,0,0,8.737,6.381,11.239,11.239,0,0,0,8.53-.7,10.744,10.744,0,0,0,4.576-6.206c2.945-9.458-6.234-19.46-15.68-15.248a13.355,13.355,0,0,0-6.43,5.183" transform="translate(-337.412 -86.452)" fill="#ba1504"/>
        </g>
      </g>
      <g id="Grupo_1185713" data-name="Grupo 1185713" transform="translate(877.042 6100.419)">
        <g id="Grupo_1185712" data-name="Grupo 1185712" transform="translate(0 0)" clip-path="url(#clip-path-11)">
          <path id="Trazado_1051842" data-name="Trazado 1051842" d="M354.665,94.5s-.52,7.7,11.857,6.948,15.272-9.82,15.272-9.82-11.537-5.139-27.128,2.871" transform="translate(-354.662 -90.01)" fill="#782a00"/>
          <path id="Trazado_1051843" data-name="Trazado 1051843" d="M352.633,101.225s9.6-7.522,11.412-7.364,2.988,8.47,2.988,8.47l-10.544,6.555Z" transform="translate(-354.155 -90.972)" fill="#efa92b"/>
          <path id="Trazado_1051844" data-name="Trazado 1051844" d="M368.049,101.833a1.251,1.251,0,0,1,.294-1.668c2.437-1.864,9.034-6.791,10.5-6.663,1.811.158,2.8,5.615,2.8,5.615l-11.418,6.147Z" transform="translate(-357.958 -90.882)" fill="#e84727"/>
        </g>
      </g>
      <g id="Grupo_1185715" data-name="Grupo 1185715" transform="translate(611 6032.9)">
        <g id="Grupo_1185714" data-name="Grupo 1185714" clip-path="url(#clip-path-2)">
          <path id="Trazado_1051846" data-name="Trazado 1051846" d="M350.339,112.186c-3.491,1.973-13.033,8.774-10.4,12.216,1.469,1.918,17.633-2.657,32.474-7.585,3.565-1.184-13.949-9.224-22.078-4.631" transform="translate(-84.829 -27.681)" fill="#e84727"/>
          <path id="Trazado_1051847" data-name="Trazado 1051847" d="M374.4,126.406a110.867,110.867,0,0,1-11.815-2.134c-1.92.681-4.14,1.3-8.793,2.508" transform="translate(-88.403 -31.052)" fill="none" stroke="#782a00" stroke-miterlimit="10" stroke-width="1"/>
          <line id="Línea_708" data-name="Línea 708" x1="4.391" y2="2.421" transform="translate(254.659 72.059)" fill="none" stroke="#fff" stroke-miterlimit="10" stroke-width="1"/>
          <path id="Trazado_1051848" data-name="Trazado 1051848" d="M368.082,112.49c-5.007-1.68-11.7-2.674-15.9-.3a43.361,43.361,0,0,0-5.309,3.655" transform="translate(-86.675 -27.681)" fill="none" stroke="#ba1504" stroke-miterlimit="10" stroke-width="1"/>
          <path id="Trazado_1051849" data-name="Trazado 1051849" d="M412.376,106.647s-7.228-16.047.414-16.206c8.314-.174,1.556,16.165,1.556,16.165" transform="translate(-102.269 -22.598)" fill="#efa92b"/>
          <path id="Trazado_1051850" data-name="Trazado 1051850" d="M414.591,110.385s7.789,17.09.146,17.249c-7.771.162-2.117-17.208-2.117-17.208" transform="translate(-102.606 -27.582)" fill="#efa92b"/>
          <path id="Trazado_1051851" data-name="Trazado 1051851" d="M410.5,111.587s-15.378,8.117-15.554-.331c-.181-8.661,15.507-1.9,15.507-1.9" transform="translate(-98.686 -26.697)" fill="#e84727"/>
          <path id="Trazado_1051852" data-name="Trazado 1051852" d="M413.646,108.75s15.223-7.593,15.381.02c.145,6.874-15.336,2.214-15.336,2.214" transform="translate(-103.359 -26.332)" fill="#e84727"/>
          <path id="Trazado_1051853" data-name="Trazado 1051853" d="M419.793,111.158c.241-1.8-2.466-3.951-3.945-4.185-1.212-.192-2.7.841-2.635,4.138.056,2.724,1.1,3.754,2.193,3.774,1.39.026,4.14-1.89,4.387-3.727" transform="translate(-103.25 -26.724)" fill="#782a00"/>
          <path id="Trazado_1051854" data-name="Trazado 1051854" d="M333.833,87.967c-.409-.432-.941-.9-1.519-.76a1.1,1.1,0,0,0-.753.992,3.009,3.009,0,0,0,1.18,2.187l2.679,2.691a1.681,1.681,0,0,0,1.218.665c2.91-.242-2.4-5.349-2.8-5.774" transform="translate(-82.847 -21.784)" fill="#fff"/>
          <path id="Trazado_1051855" data-name="Trazado 1051855" d="M327.871,101.255h3.859s-11.357,9.2-11.382,7.736c-.03-1.806,7.522-7.736,7.522-7.736" transform="translate(-80.046 -25.301)" fill="#ba1504"/>
          <path id="Trazado_1051856" data-name="Trazado 1051856" d="M403.608,96.966s-2.628-3.43-9.093-5.179" transform="translate(-98.579 -22.935)" fill="none" stroke="#fff" stroke-miterlimit="10" stroke-width="1"/>
          <path id="Trazado_1051857" data-name="Trazado 1051857" d="M357.727,130.086a13.982,13.982,0,0,0,3.9-3.422c2-2.442,3.961-4.278,4.7-2.548s-.676,6.041-2.779,8.8c0,0,4.409,3.445,4.1,6.439" transform="translate(-89.386 -30.843)" fill="#fc8d59"/>
          <path id="Trazado_1051858" data-name="Trazado 1051858" d="M357.727,130.086a13.982,13.982,0,0,0,3.9-3.422c2-2.442,3.961-4.278,4.7-2.548s-.676,6.041-2.779,8.8c0,0,4.409,3.445,4.1,6.439" transform="translate(-89.386 -30.843)" fill="none" stroke="#ea6132" stroke-miterlimit="10" stroke-width="1"/>
          <path id="Trazado_1051859" data-name="Trazado 1051859" d="M264.645,198.184s19.914,47.743,25.669,90.78" transform="translate(-66.128 -49.521)" fill="none" stroke="#bdd4f5" stroke-miterlimit="10" stroke-width="1"/>
          <path id="Trazado_1051860" data-name="Trazado 1051860" d="M301.921,209.132s-28.4-28.362-29.785-40.01a293.209,293.209,0,0,1,39.932-3.562c2.56-1.821,15.967-10.269,15.967-10.269S347.1,179,354.8,186.355c0,0-13.706,13.128-23.916,18.986-5.438,3.12-28.962,3.792-28.962,3.792" transform="translate(-67.999 -38.803)" fill="#044ebd"/>
        </g>
      </g>
      <g id="Grupo_1185717" data-name="Grupo 1185717" transform="translate(815.137 6149.389)">
        <g id="Grupo_1185716" data-name="Grupo 1185716" transform="translate(0 0)" clip-path="url(#clip-path-13)">
          <path id="Trazado_1051861" data-name="Trazado 1051861" d="M308.1,154.251c1.986-1.28,4.478-1.485,6.612-2.5,3.61-1.715,5.815-5.527,9.294-7.493,4.6-2.6,10.846-1.247,14.48,2.586s4.743,9.661,3.477,14.79A23.673,23.673,0,0,1,333.1,174.4c-5.965,4.565-17.78,8.509-23.489,1.476-4.052-4.992-8.214-17.307-1.506-21.627" transform="translate(-280.239 -152.2)" fill="#0047ad"/>
          <path id="Trazado_1051862" data-name="Trazado 1051862" d="M259.777,190.733c5.573.993,11.556.793,16.579-1.821s8.831-8,8.437-13.646c-.432-6.2-5.756-11.232-11.694-13.06s-12.354-1.044-18.432.239c-5.364,1.133-23.027,5.979-19.8,13.814s17.44,13.141,24.912,14.473" transform="translate(-262.725 -156.75)" fill="#0047ad"/>
          <path id="Trazado_1051863" data-name="Trazado 1051863" d="M344.044,139.882s6.111,22.592,36.881,46.061L372.172,198.5s-41.069-43.709-40.183-53.15,12.055-5.463,12.055-5.463" transform="translate(-287.088 -151.234)" fill="#1e66e3"/>
          <path id="Trazado_1051864" data-name="Trazado 1051864" d="M339.305,220.5l-36.621-11.77,10.935,19.706s29.445-3.759,25.686-7.936" transform="translate(-279.769 -168.644)" fill="#0047ad"/>
          <path id="Trazado_1051865" data-name="Trazado 1051865" d="M344.044,139.882s6.111,22.592,36.881,46.061L372.172,198.5s-41.069-43.709-40.183-53.15S344.044,139.882,344.044,139.882Z" transform="translate(-287.088 -151.234)" fill="none" stroke="#bdd4f5" stroke-miterlimit="10" stroke-width="1"/>
        </g>
      </g>
      <g id="Grupo_1185719" data-name="Grupo 1185719" transform="translate(611 6032.9)">
        <g id="Grupo_1185718" data-name="Grupo 1185718" clip-path="url(#clip-path-2)">
          <path id="Trazado_1051867" data-name="Trazado 1051867" d="M265.769,170.248l22.454,41.268s10.174,26.176,21.985,59.091c0,0-24.409,13.67-74.947,13.32l-6.252-23.106-6.418,23.09-5.269-2.108,2.167-63.894,3.243-40.18s20.071-12.8,26.752-12.9c4.29-.063,16.285,5.419,16.285,5.419" transform="translate(-54.303 -41.186)" fill="#044ebd"/>
        </g>
      </g>
      <g id="Grupo_1185721" data-name="Grupo 1185721" transform="translate(774.019 6156.542)">
        <g id="Grupo_1185720" data-name="Grupo 1185720" transform="translate(0 0)" clip-path="url(#clip-path-15)">
          <path id="Trazado_1051868" data-name="Trazado 1051868" d="M166.815,264.619c4.9-4.36,11.367-6.424,17.614-8.425s12.7-4.18,17.458-8.694c5.16-4.894,8.517-12.567,15.449-14.156,5.232-1.2,10.782,1.908,13.667,6.435s3.512,10.157,3.165,15.513c-1.276,19.657-15.84,37.761-34.768,43.217-7.045,2.031-14.745,2.4-21.631-.119-13.313-4.865-23.486-22.62-10.953-33.769" transform="translate(-203.278 -181.883)" fill="#0047ad"/>
          <path id="Trazado_1051869" data-name="Trazado 1051869" d="M267.8,307.167c-6.227,1.009-11.816-5.123-12.468-11.4s2.237-12.342,5.395-17.8,6.741-10.919,7.7-17.154c.882-5.748-.565-11.566-.968-17.368s.563-12.29,5.023-16.023c5.48-4.587,14.268-2.912,19.53,1.924s7.747,11.941,9.561,18.853c2.511,9.566,4.121,19.491,3.241,29.341s-4.415,19.671-11.151,26.913c-4.693,5.045-11.136,8.792-18.025,8.944" transform="translate(-226.797 -179.794)" fill="#0047ad"/>
          <path id="Trazado_1051870" data-name="Trazado 1051870" d="M219.6,193.366c6.435,8.362,16.293,14.9,26.83,14.349,4.107-.214,8.451-1.727,10.7-5.173,2.411-3.7,1.78-8.677-.067-12.691-5.233-11.367-16.09-13.747-27.416-14.868s-17.084,9.232-10.043,18.383" transform="translate(-217.123 -167.345)" fill="#0047ad"/>
          <path id="Trazado_1051871" data-name="Trazado 1051871" d="M259.777,190.733c5.573.993,11.556.793,16.579-1.821s8.831-8,8.437-13.646c-.432-6.2-5.756-11.232-11.694-13.06s-12.354-1.044-18.432.239c-5.364,1.133-23.027,5.979-19.8,13.814s17.44,13.141,24.912,14.473" transform="translate(-221.608 -163.904)" fill="#0047ad"/>
          <path id="Trazado_1051872" data-name="Trazado 1051872" d="M212.935,302.4s43.335,9.711,96.332-11.793l9.831,17.538s-69.716,20.4-106.825,14.068Z" transform="translate(-216.06 -196.257)" fill="#1e66e3"/>
          <path id="Trazado_1051873" data-name="Trazado 1051873" d="M217.953,269.88q1.747-7.019,3.882-13.933s13.309,15.726-4.978,38.306Z" transform="translate(-217.206 -187.596)" fill="#044ebd"/>
          <path id="Trazado_1051874" data-name="Trazado 1051874" d="M212.935,302.4s43.335,9.711,96.332-11.793l9.831,17.538s-69.716,20.4-106.825,14.068Z" transform="translate(-216.06 -196.257)" fill="none" stroke="#bdd4f5" stroke-miterlimit="10" stroke-width="1"/>
        </g>
      </g>
      <g id="Grupo_1185723" data-name="Grupo 1185723" transform="translate(611 6032.9)">
        <g id="Grupo_1185722" data-name="Grupo 1185722" clip-path="url(#clip-path-2)">
          <path id="Trazado_1051876" data-name="Trazado 1051876" d="M203.7,240.981,193.791,278.9s-32.994-10.073-44.378-27.863c14.06-39.026,58.716-71.405,58.716-71.405s8.6,32.419-4.427,61.345" transform="translate(-37.334 -44.886)" fill="#044ebd"/>
        </g>
      </g>
      <g id="Grupo_1185725" data-name="Grupo 1185725" transform="translate(723.079 6167.65)">
        <g id="Grupo_1185724" data-name="Grupo 1185724" transform="translate(0 0)" clip-path="url(#clip-path-17)">
          <path id="Trazado_1051877" data-name="Trazado 1051877" d="M165.736,237.615c5.468-1.391,11.086-2.291,16.36-4.3s10.312-5.309,13.011-10.264,2.464-11.756-1.6-15.671c-2.937-2.83-7.344-3.736-11.387-3.191s-7.8,2.373-11.329,4.412c-6.815,3.931-13.258,8.9-17.406,15.58-1.964,3.165-7.138,14.4-3.742,17.9,2.487,2.56,12.952-3.67,16.092-4.469" transform="translate(-149.189 -185.734)" fill="#0047ad"/>
          <path id="Trazado_1051878" data-name="Trazado 1051878" d="M166.815,264.619c4.9-4.36,11.367-6.424,17.614-8.425s12.7-4.18,17.458-8.694c5.16-4.894,8.517-12.567,15.449-14.156,5.232-1.2,10.782,1.908,13.667,6.435s3.512,10.157,3.165,15.513c-1.276,19.657-15.84,37.761-34.768,43.217-7.045,2.031-14.745,2.4-21.631-.119-13.313-4.865-23.486-22.62-10.953-33.769" transform="translate(-152.338 -192.991)" fill="#0047ad"/>
          <path id="Trazado_1051879" data-name="Trazado 1051879" d="M267.8,307.167c-6.227,1.009-11.816-5.123-12.468-11.4s2.237-12.342,5.395-17.8,6.741-10.919,7.7-17.154c.882-5.748-.565-11.566-.968-17.368s.563-12.29,5.023-16.023c5.48-4.587,14.268-2.912,19.53,1.924s7.747,11.941,9.561,18.853c2.511,9.566,4.121,19.491,3.241,29.341s-4.415,19.671-11.151,26.913c-4.693,5.045-11.136,8.792-18.025,8.944" transform="translate(-175.857 -190.902)" fill="#0047ad"/>
          <path id="Trazado_1051880" data-name="Trazado 1051880" d="M288.593,178.227c5.573.993,11.556.793,16.579-1.821s8.831-8,8.437-13.646c-.432-6.2-5.756-11.232-11.694-13.06s-12.354-1.044-18.432.239c-5.364,1.133-23.027,5.979-19.8,13.814s17.44,13.141,24.913,14.473" transform="translate(-177.868 -171.887)" fill="#0047ad"/>
          <path id="Trazado_1051881" data-name="Trazado 1051881" d="M219.6,193.366c6.435,8.362,16.293,14.9,26.83,14.349,4.107-.214,8.451-1.727,10.7-5.173,2.411-3.7,1.78-8.677-.067-12.691-5.233-11.367-16.09-13.747-27.416-14.868s-17.084,9.232-10.043,18.383" transform="translate(-166.183 -178.452)" fill="#0047ad"/>
          <path id="Trazado_1051882" data-name="Trazado 1051882" d="M148.184,261.83s13.1,19.394,49.812,31.631l-4.214,14.711s-53.014-28.049-55.233-37.268,9.635-9.074,9.635-9.074" transform="translate(-146.629 -200.174)" fill="#1e66e3"/>
          <path id="Trazado_1051883" data-name="Trazado 1051883" d="M148.184,261.83s13.1,19.394,49.812,31.631l-4.214,14.711s-53.014-28.049-55.233-37.268S148.184,261.83,148.184,261.83Z" transform="translate(-146.629 -200.174)" fill="none" stroke="#bdd4f5" stroke-miterlimit="10" stroke-width="1"/>
        </g>
      </g>
      <g id="Grupo_1185727" data-name="Grupo 1185727" transform="translate(611 6032.9)">
        <g id="Grupo_1185726" data-name="Grupo 1185726" clip-path="url(#clip-path-2)">
          <path id="Trazado_1051885" data-name="Trazado 1051885" d="M261.288,218.237a2.133,2.133,0,1,1-2.133-2.133,2.133,2.133,0,0,1,2.133,2.133" transform="translate(-64.223 -53.999)" fill="#1e66e3"/>
          <path id="Trazado_1051886" data-name="Trazado 1051886" d="M283.5,212.551a2.133,2.133,0,1,1-2.133-2.133,2.133,2.133,0,0,1,2.133,2.133" transform="translate(-69.773 -52.578)" fill="#1e66e3"/>
          <path id="Trazado_1051887" data-name="Trazado 1051887" d="M259.866,217.51s7.909-4.853,16.663-4.265" transform="translate(-64.933 -53.272)" fill="none" stroke="#bdd4f5" stroke-miterlimit="10" stroke-width="1"/>
          <path id="Trazado_1051888" data-name="Trazado 1051888" d="M266.612,235.265a2.133,2.133,0,1,1-2.133-2.133,2.133,2.133,0,0,1,2.133,2.133" transform="translate(-65.553 -58.253)" fill="#1e66e3"/>
          <path id="Trazado_1051889" data-name="Trazado 1051889" d="M288.825,229.58a2.133,2.133,0,1,1-2.133-2.133,2.133,2.133,0,0,1,2.133,2.133" transform="translate(-71.104 -56.833)" fill="#1e66e3"/>
          <path id="Trazado_1051890" data-name="Trazado 1051890" d="M265.19,234.538s7.909-4.853,16.663-4.265" transform="translate(-66.264 -57.526)" fill="none" stroke="#bdd4f5" stroke-miterlimit="10" stroke-width="1"/>
          <path id="Trazado_1051891" data-name="Trazado 1051891" d="M271.936,252.293a2.133,2.133,0,1,1-2.133-2.133,2.133,2.133,0,0,1,2.133,2.133" transform="translate(-66.884 -62.508)" fill="#1e66e3"/>
          <path id="Trazado_1051892" data-name="Trazado 1051892" d="M294.149,246.608a2.133,2.133,0,1,1-2.133-2.133,2.133,2.133,0,0,1,2.133,2.133" transform="translate(-72.434 -61.088)" fill="#1e66e3"/>
          <path id="Trazado_1051893" data-name="Trazado 1051893" d="M270.514,251.566s7.909-4.853,16.663-4.264" transform="translate(-67.594 -61.782)" fill="none" stroke="#bdd4f5" stroke-miterlimit="10" stroke-width="1"/>
          <path id="Trazado_1051894" data-name="Trazado 1051894" d="M277.261,269.322a2.133,2.133,0,1,1-2.133-2.133,2.133,2.133,0,0,1,2.133,2.133" transform="translate(-68.214 -66.763)" fill="#1e66e3"/>
          <path id="Trazado_1051895" data-name="Trazado 1051895" d="M299.473,263.636a2.133,2.133,0,1,1-2.133-2.133,2.133,2.133,0,0,1,2.133,2.133" transform="translate(-73.764 -65.342)" fill="#1e66e3"/>
          <path id="Trazado_1051896" data-name="Trazado 1051896" d="M275.839,268.595s7.909-4.853,16.663-4.265" transform="translate(-68.925 -66.036)" fill="none" stroke="#bdd4f5" stroke-miterlimit="10" stroke-width="1"/>
          <path id="Trazado_1051897" data-name="Trazado 1051897" d="M282.585,286.35a2.133,2.133,0,1,1-2.133-2.133,2.133,2.133,0,0,1,2.133,2.133" transform="translate(-69.545 -71.018)" fill="#1e66e3"/>
          <path id="Trazado_1051898" data-name="Trazado 1051898" d="M304.8,280.665a2.133,2.133,0,1,1-2.133-2.133,2.133,2.133,0,0,1,2.133,2.133" transform="translate(-75.095 -69.598)" fill="#1e66e3"/>
          <path id="Trazado_1051899" data-name="Trazado 1051899" d="M281.163,285.623s7.909-4.853,16.663-4.265" transform="translate(-70.255 -70.291)" fill="none" stroke="#bdd4f5" stroke-miterlimit="10" stroke-width="1"/>
          <path id="Trazado_1051900" data-name="Trazado 1051900" d="M316.183,305.842s-28.452,15-74.947,13.32" transform="translate(-60.278 -76.422)" fill="none" stroke="#4f1d00" stroke-miterlimit="10" stroke-width="1"/>
          <line id="Línea_709" data-name="Línea 709" y1="18.134" x2="5.041" transform="translate(169.665 219.635)" fill="none" stroke="#4f1d00" stroke-miterlimit="10" stroke-width="1"/>
          <path id="Trazado_1051901" data-name="Trazado 1051901" d="M151.156,277.34a50.657,50.657,0,0,0,10.527,10.046" transform="translate(-37.77 -69.3)" fill="none" stroke="#4f1d00" stroke-miterlimit="10" stroke-width="1"/>
          <path id="Trazado_1051902" data-name="Trazado 1051902" d="M178.14,236.227c.482-.515.953-1.045,1.466-1.532l-.222.172a7.7,7.7,0,0,0,1.062-1c.146-.149.3-.29.455-.431s.274-.283.406-.429c.548-.6,1.083-1.21,1.617-1.822l.458-.524c.076-.087.156-.173.229-.263.1-.118.19-.238.274-.364a2.515,2.515,0,0,0,.2-.438c-.043.1-.086.2-.128.3.023-.046.049-.091.074-.135.014-.025.029-.05.043-.074.006-.01.012-.019.017-.03a.9.9,0,0,0,.144-.449.769.769,0,0,0,0-.346.723.723,0,0,0-.035-.194c-.012-.03-.024-.06-.035-.091.011.086.023.173.035.259v-.026c-.011.084-.023.169-.035.253a1.178,1.178,0,0,0,.011-.649l.029.212a.546.546,0,0,1,0-.079.7.7,0,0,0-.287-.571.747.747,0,0,0-.633-.13l-.058.01.206-.027h-.023l.212.028a1.028,1.028,0,0,0-.514,0,1.094,1.094,0,0,1-.139.041h.518a1.4,1.4,0,0,0-.749-.021.55.55,0,0,0-.159.065.606.606,0,0,0-.267.155l-.177.138-.137.108.254-.2a3.38,3.38,0,0,0-.475.369c-.083.082-.154.176-.229.263l-.431.5-.839.979c-.288.335-.566.678-.847,1.019-.2.245-.4.491-.575.752-.119.176-.245.347-.373.516l-.439.576c-.038.05-.081.1-.115.152s-.054.1-.088.147l-.221.307.165-.214c-.343.442-.7.874-1.048,1.31a1.1,1.1,0,0,0-.29.7,1.008,1.008,0,0,0,.29.7,1,1,0,0,0,.7.29,1.009,1.009,0,0,0,.7-.29" transform="translate(-44.09 -56.927)" fill="#1e66e3"/>
          <path id="Trazado_1051903" data-name="Trazado 1051903" d="M191.082,222.515l.334-.2c.055-.033.113-.06.166-.1l.164-.113c.216-.149.431-.3.641-.453l.311-.227.081-.059c.1-.072.2-.141.29-.221l.147-.131.6-.533.335-.3c.056-.05.116-.1.17-.152.026-.025.049-.055.073-.083l.037-.041.087-.113a1.093,1.093,0,0,0,.219-.527.576.576,0,0,0,.02-.159,1.233,1.233,0,0,0-.323-.78l-.223-.172a1.1,1.1,0,0,0-.557-.151.663.663,0,0,0-.159.019l-.149.02-.266.112-.037.029-.08.06a3.1,3.1,0,0,0-.292.236l-.074.071-.287.278-.575.557c-.095.092-.191.18-.275.28l-.26.306q-.261.306-.513.62l-.144.179c-.067.083-.138.165-.2.253-.02.029-.037.06-.056.089-.084.12-.171.238-.256.356-.026.061-.052.122-.077.183a.582.582,0,0,0-.014.306.391.391,0,0,0,.053.194.577.577,0,0,0,.159.247l.155.12.183.077a.575.575,0,0,0,.306.014.566.566,0,0,0,.286-.091" transform="translate(-47.457 -54.472)" fill="#1e66e3"/>
          <path id="Trazado_1051904" data-name="Trazado 1051904" d="M188.679,233.751c.331-.326.656-.661,1-.974l.521-.475c.173-.158.354-.311.517-.479l.97-1c.323-.335.635-.681.948-1.025.089-.1.181-.194.269-.295s.161-.2.242-.3l.209-.267a1.153,1.153,0,0,0,.106-.143,2.473,2.473,0,0,0,.128-.305c.011-.03.023-.06.035-.09.02-.052.041-.1.059-.156a.728.728,0,0,0,.027-.164.8.8,0,0,0-.02-.422l0-.014c0-.02-.005-.038-.008-.058l-.1-.228a.719.719,0,0,0-.246-.269.472.472,0,0,0-.211-.122.715.715,0,0,0-.368-.083.933.933,0,0,0-.371.033,2.375,2.375,0,0,0-.344.153,1.777,1.777,0,0,0-.465.3c-.14.133-.284.269-.415.412-.26.285-.511.58-.766.869s-.5.59-.746.888c-.306.368-.618.732-.9,1.119l-.756,1.038.155-.2c-.251.325-.509.644-.763.966a.7.7,0,0,0-.189.295.691.691,0,0,0-.079.352.932.932,0,0,0,.268.647.921.921,0,0,0,.647.268.961.961,0,0,0,.647-.268" transform="translate(-46.756 -56.689)" fill="#1e66e3"/>
          <path id="Trazado_1051905" data-name="Trazado 1051905" d="M218.318,269.316s3.112-12.221,5.663-15.627" transform="translate(-54.552 -63.39)" fill="none" stroke="#4f1d00" stroke-miterlimit="10" stroke-width="1"/>
          <line id="Línea_710" data-name="Línea 710" x2="11.852" y2="14.392" transform="translate(260.035 116.489)" fill="none" stroke="#4f1d00" stroke-miterlimit="10" stroke-width="1"/>
          <path id="Trazado_1051906" data-name="Trazado 1051906" d="M308.833,219.909q-6.189-11.434-12.806-22.628" transform="translate(-73.969 -49.295)" fill="none" stroke="#4f1d00" stroke-miterlimit="10" stroke-width="1"/>
          <path id="Trazado_1051907" data-name="Trazado 1051907" d="M347.866,213.335c.286-.1.575-.191.851-.313.217-.1.431-.194.647-.29l-.252.106a9.124,9.124,0,0,0,1.119-.512q.444-.223.885-.457c.574-.306,1.132-.629,1.68-.982a34.991,34.991,0,0,0,3.4-2.532c.277-.229.553-.461.821-.7.134-.119.259-.25.384-.377a1.9,1.9,0,0,0,.581-1.256,1.279,1.279,0,0,0-.256-.722,1.091,1.091,0,0,0-.62-.428c-.116-.019-.232-.034-.347-.047a.923.923,0,0,0-.473.105l-.26.11.3-.128a3.831,3.831,0,0,0-.49.209,4.048,4.048,0,0,0-.431.341c-.129.105-.26.208-.384.319q-.363.324-.734.64-.751.637-1.529,1.239l.272-.211c-.386.3-.777.588-1.163.886l.27-.209c-.632.487-1.28.953-1.92,1.427q-.476.353-.963.692c-.392.273-.8.524-1.169.83l.213-.165a8.544,8.544,0,0,0-.947.669l.2-.151c-.123.091-.247.179-.371.268a.943.943,0,0,0-.412.536.928.928,0,0,0,.045.584.889.889,0,0,0,1.058.519" transform="translate(-86.64 -51.18)" fill="#0047ad"/>
          <path id="Trazado_1051908" data-name="Trazado 1051908" d="M339.02,211.411a29.9,29.9,0,0,0,3.744-1.623c.57-.3,1.125-.635,1.671-.977s1.055-.723,1.562-1.111a9.977,9.977,0,0,0,1.049-.879,4.111,4.111,0,0,0,.8-1.335l-.1.23c.053-.125.118-.246.161-.374a.891.891,0,0,0-.212-.874.905.905,0,0,0-.879-.217c-.064.017-.126.041-.188.059-.129.037-.251.087-.377.135-.217.084-.436.165-.644.27a2.986,2.986,0,0,0-.365.241c-.206.141-.4.3-.59.455-.227.187-.459.37-.693.551l.267-.206a48.913,48.913,0,0,1-4.566,3.181c-.446.27-.89.542-1.347.794a.921.921,0,0,0,.709,1.682" transform="translate(-84.423 -51.029)" fill="#0047ad"/>
          <path id="Trazado_1051909" data-name="Trazado 1051909" d="M353.433,202.14l.639-.266c.051-.021.106-.029.157-.048s.112-.044.168-.066l.321-.128c.3-.119.592-.248.886-.376.1-.045.21-.088.313-.136s.208-.115.311-.172l.35-.194.176-.1.08-.045a1.2,1.2,0,0,0,.257-.2,1.221,1.221,0,0,0,.3-.526.845.845,0,0,0,.02-.449.834.834,0,0,0-.133-.419l-.176-.227a1.122,1.122,0,0,0-.5-.29c-.059-.012-.11-.016-.174-.025a.862.862,0,0,0-.464.023,1.354,1.354,0,0,0-.321.142l-.127.074-.239.14c-.161.095-.324.188-.485.284-.079.047-.152.107-.227.161l-.232.169c-.218.158-.432.322-.645.487l-.237.184-.119.091c-.044.034-.079.075-.12.111l.184-.142-.6.446a.92.92,0,0,0-.374.487l-.029.217a.617.617,0,0,0,.071.314.405.405,0,0,0,.1.18.621.621,0,0,0,.228.21l.2.082a.816.816,0,0,0,.433,0" transform="translate(-88.056 -49.59)" fill="#0047ad"/>
          <path id="Trazado_1051910" data-name="Trazado 1051910" d="M260.794,172.6s2.881,18.387-3.963,19.875-25.583-14.638-26.173-20.838,30.136.962,30.136.962" transform="translate(-57.633 -42.257)" fill="#fc8d59"/>
        </g>
      </g>
      <g id="Grupo_1185729" data-name="Grupo 1185729" transform="translate(784.016 6159.758)">
        <g id="Grupo_1185728" data-name="Grupo 1185728" transform="translate(0 0)" clip-path="url(#clip-path-19)">
          <path id="Trazado_1051911" data-name="Trazado 1051911" d="M259.6,176.577a155.829,155.829,0,0,0-31.6-1.846c-.141.941,21.787,12.074,30.01,8.972,0,0,6.773-2.16,1.59-7.125" transform="translate(-229.986 -170.471)" fill="#ea6132"/>
        </g>
      </g>
      <g id="Grupo_1185731" data-name="Grupo 1185731" transform="translate(611 6032.9)">
        <g id="Grupo_1185730" data-name="Grupo 1185730" clip-path="url(#clip-path-2)">
          <path id="Trazado_1051913" data-name="Trazado 1051913" d="M260.241,173.687s-1.347-.791-1.453,1.593c-.08,1.812.539,6.6-1.583,8.473-2.485,2.195-2.583,8.278-2.583,8.278s-2.894-5.282-4.921-6.2c-7.038-3.19-11.342-2.19-20.019-10.42l-5.149,4.5s14.1,17.491,29.9,16.606,5.8-22.829,5.8-22.829" transform="translate(-56.105 -43.368)" fill="#1e66e3"/>
          <path id="Trazado_1051914" data-name="Trazado 1051914" d="M203.955,141.153c21.781,15.941,47.967,10.682,61.717,1.2,9.41-6.488,19.459-35.917,1.076-46.129-8.058-4.477-8.041-14.385-13.27-19.04-9.259-8.244-24.089-9.818-39.864-4.877-11.724,3.673-28.259,15.2-29.9,33.568-1.4,15.68,11.134,28.611,20.24,35.275" transform="translate(-45.878 -17.368)" fill="#fc8d59"/>
          <path id="Trazado_1051915" data-name="Trazado 1051915" d="M209.476,154.9a17.072,17.072,0,0,0-18.974-.029c-10,6.551,5.126,22.085,22.955,11.386-.7-5.312-3.982-11.358-3.982-11.358" transform="translate(-46.804 -37.973)" fill="#fc8d59"/>
          <path id="Trazado_1051916" data-name="Trazado 1051916" d="M276.658,129.1c2.121-4.058-.72-5.771-4.137-8.31" transform="translate(-68.096 -30.183)" fill="none" stroke="#4f1d00" stroke-miterlimit="10" stroke-width="1.157"/>
          <path id="Trazado_1051917" data-name="Trazado 1051917" d="M271,133.7c.539-.237-.95-.647-2.008-.4s-2.009.884-2.1,1.26c-.081.327,3.021-.384,4.11-.863" transform="translate(-66.688 -33.29)" fill="#4f1d00"/>
          <path id="Trazado_1051918" data-name="Trazado 1051918" d="M249.738,130.045a8.658,8.658,0,0,0-4.021-1.968,10.088,10.088,0,0,0-8.664,2.193,8.646,8.646,0,0,0-2.6,3.643l.818.514a16.9,16.9,0,0,1,3.065-2.4,12.6,12.6,0,0,1,7.093-1.8,16.894,16.894,0,0,1,3.835.649Z" transform="translate(-58.583 -31.948)" fill="#4f1d00"/>
          <path id="Trazado_1051919" data-name="Trazado 1051919" d="M276.847,116.417a14.194,14.194,0,0,1,.972-3.193,10.708,10.708,0,0,1,1.708-2.673,10.856,10.856,0,0,1,2.42-2.059,14.769,14.769,0,0,1,3.03-1.422l-.079-.829a7.5,7.5,0,0,0-3.8.58,8.815,8.815,0,0,0-3.205,2.3,8.716,8.716,0,0,0-1.848,3.49,7.36,7.36,0,0,0-.027,3.852Z" transform="translate(-68.908 -26.534)" fill="#4f1d00"/>
          <path id="Trazado_1051920" data-name="Trazado 1051920" d="M239.654,139.776c3.4.775,6.589,3.4,7.028,6.861a8.119,8.119,0,0,1-2.01,6.128,13.81,13.81,0,0,1-5.43,3.7,15.129,15.129,0,0,1-10.459.677c-3.378-1.154-6.227-4.159-6.571-7.712-.863-8.907,11.079-11.108,17.442-9.657" transform="translate(-55.514 -34.824)" fill="#ea6132"/>
          <path id="Trazado_1051921" data-name="Trazado 1051921" d="M208.027,165.689c-2.373-4.437-10.993-7.382-15.394-3.38" transform="translate(-48.134 -40.085)" fill="#ea6132"/>
          <path id="Trazado_1051922" data-name="Trazado 1051922" d="M293.645,108.79c2.4.459,5.035,2.8,6.008,6.238a11.093,11.093,0,0,1-.123,6.353,9.525,9.525,0,0,1-2.865,4.237,6.843,6.843,0,0,1-6.793,1.667c-2.465-.842-4.945-3.6-5.873-7.137-2.328-8.877,5.147-12.217,9.647-11.358" transform="translate(-70.854 -27.151)" fill="#ea6132"/>
          <path id="Trazado_1051923" data-name="Trazado 1051923" d="M276.288,143.32c-1.607-2.232-4.816,1.288-9.485,2.013-4.368.679-10.211-1.58-11.65.553-1.845,2.736,2.028,7.528,10.274,8.286s13.1-7.737,10.86-10.851" transform="translate(-63.643 -35.629)" fill="#782a00"/>
        </g>
      </g>
      <g id="Grupo_1185733" data-name="Grupo 1185733" transform="translate(802.011 6139.846)">
        <g id="Grupo_1185732" data-name="Grupo 1185732" transform="translate(0 0)" clip-path="url(#clip-path-21)">
          <path id="Trazado_1051924" data-name="Trazado 1051924" d="M267.216,158.835c-1.246-3.353-4.611-5.558-8.1-6.358s-7.123-.416-10.674.015a17.379,17.379,0,0,0,8.113,7c3.264,1.325,7.26.27,10.658-.66" transform="translate(-253.09 -144.929)" fill="#e84727"/>
          <path id="Trazado_1051925" data-name="Trazado 1051925" d="M273.5,142.079a7,7,0,0,1-6.243,6.849c-2.818.492-8-.046-13.714-3.423-4.643-2.742,19.957-3.426,19.957-3.426" transform="translate(-254.218 -142.447)" fill="#fff"/>
          <path id="Trazado_1051926" data-name="Trazado 1051926" d="M265.6,150.881s1.378-3.628,2.006-3.687,1.968,3.687,1.968,3.687a4.667,4.667,0,0,1-3.974,0" transform="translate(-257.377 -143.725)" fill="#782a00"/>
        </g>
      </g>
      <g id="Grupo_1185735" data-name="Grupo 1185735" transform="translate(611 6032.9)">
        <g id="Grupo_1185734" data-name="Grupo 1185734" clip-path="url(#clip-path-2)">
          <path id="Trazado_1051928" data-name="Trazado 1051928" d="M224.131,117.537c-.809,1.341-2.414,5.072-1.887,6.921.435,1.526,2.638.693,5.282-2.972a10.432,10.432,0,0,1,4.618-3.879c1.935-.853,4.287-1.851,1.631-3.088-3.914-1.824-6.964-1.425-9.644,3.019" transform="translate(-55.507 -28.36)" fill="#4f1d00"/>
          <path id="Trazado_1051929" data-name="Trazado 1051929" d="M275.78,91.492c1.134.471,3.388,1.756,4.09,3.1.579,1.112-1.159,1.943-4.7,1.443a8.326,8.326,0,0,0-4.808.543c-1.593.661-3.508,1.486-2.636-.772,1.284-3.328,4.237-5.9,8.052-4.317" transform="translate(-66.843 -22.742)" fill="#4f1d00"/>
          <path id="Trazado_1051930" data-name="Trazado 1051930" d="M255.33,175.242c-9.736,2.356-21.937,1.3-26.807.118-2.562-.623-7.229-2.018-9.8-3.883a18.787,18.787,0,0,1-8,2.981" transform="translate(-52.654 -42.847)" fill="none" stroke="#4f1d00" stroke-miterlimit="10" stroke-width="1"/>
          <path id="Trazado_1051931" data-name="Trazado 1051931" d="M193.57,142.211s11.315,5.1,11.775,3.573-3.64-18.55-5.615-33.273-28.454,19.235-6.159,29.7" transform="translate(-46.149 -27.203)" fill="#782a00"/>
          <path id="Trazado_1051932" data-name="Trazado 1051932" d="M177.691,100.033c-2.457-4.07-3.784-11.183,1.22-15.468,3.611-3.094,13.062-6.531,19.575-17.94,2.84-4.975,5.753-10.054,10.085-13.8s10.365-6.012,15.876-4.449a23.975,23.975,0,0,0-7.118,6.507c10.024-5.621,23.134-4.219,32.882,1.868-2.856.012-5.7,1.049-8.555,1.061,7.222.866,13.554,10.289,13.063,13.436-7.8,3.814-19.44,9.369-27.242,13.183-3.594-3.289-8.837-5.868-13.279-7.868,2.2,3.294,4.062,6.861,6.262,10.153-5.486,3.766-7.462,6.792-12.948,10.557-2.081-2.147-5.155-4.844-8.112-5.607a21.931,21.931,0,0,1,2.16,11.193c-5.174,5.565-12.147,13.975-15.048,22.862-4.519-1.007-11.247-1.686-14.585-5.528-1.637-1.884-6.615-7.447-1.617-15.735,1.289-2.137,4.958-5.023,7.381-4.422" transform="translate(-42.014 -11.962)" fill="#4f1d00"/>
          <path id="Trazado_1051933" data-name="Trazado 1051933" d="M205.233,104.187s-6.2-4.844-13.754-3.334c0,0,13.607-7.961,29.382,2.72" transform="translate(-47.845 -24.488)" fill="none" stroke="#782a00" stroke-miterlimit="10" stroke-width="1"/>
          <path id="Trazado_1051934" data-name="Trazado 1051934" d="M229.618,57.215l-12.3,8.941c13.17-7.133,37.182-5.928,37.182-5.928" transform="translate(-54.303 -14.296)" fill="none" stroke="#782a00" stroke-miterlimit="10" stroke-width="1"/>
          <path id="Trazado_1051935" data-name="Trazado 1051935" d="M252.855,84.4s-6.3-7.852-21.9-8.1c-12.676-.2-20.233,5.984-20.233,5.984a21.879,21.879,0,0,1,14.117,1.382" transform="translate(-52.654 -19.063)" fill="none" stroke="#782a00" stroke-miterlimit="10" stroke-width="1"/>
          <path id="Trazado_1051936" data-name="Trazado 1051936" d="M265.215,78.937a29,29,0,0,0-35.372-7.924" transform="translate(-57.432 -17.011)" fill="none" stroke="#782a00" stroke-miterlimit="10" stroke-width="1"/>
          <path id="Trazado_1051937" data-name="Trazado 1051937" d="M181.632,111.343c-.5-2.556.593-6.386,2.892-9.217" transform="translate(-45.355 -25.519)" fill="none" stroke="#782a00" stroke-miterlimit="10" stroke-width="1"/>
          <path id="Trazado_1051938" data-name="Trazado 1051938" d="M191.036,137.6c-22.577-4.554-11.13-20.188-11.13-20.188s-.107,10.712,14.105,15.064" transform="translate(-44.228 -29.337)" fill="none" stroke="#782a00" stroke-miterlimit="10" stroke-width="1"/>
          <path id="Trazado_1051939" data-name="Trazado 1051939" d="M225.286,97.3a30.153,30.153,0,0,0-38.1.007" transform="translate(-46.772 -22.619)" fill="none" stroke="#782a00" stroke-miterlimit="10" stroke-width="1"/>
          <path id="Trazado_1051940" data-name="Trazado 1051940" d="M249.151,89.685s-8.186-9.024-20.394-8.015" transform="translate(-57.16 -20.387)" fill="none" stroke="#782a00" stroke-miterlimit="10" stroke-width="1"/>
          <path id="Trazado_1051941" data-name="Trazado 1051941" d="M173.925,130.152a16.75,16.75,0,0,1-9.038-8.456,12.69,12.69,0,0,1,.9-12.109,10.254,10.254,0,0,1,11.123-4.076c-2.385-2.712-4.739-5.6-4.814-9.215a11.086,11.086,0,0,1,2.677-6.887c7.05-8.981,20.854-10.234,28.087-19.067" transform="translate(-40.921 -17.576)" fill="none" stroke="#4f1d00" stroke-miterlimit="10" stroke-width="1"/>
          <path id="Trazado_1051942" data-name="Trazado 1051942" d="M198.32,78.032c3.371-2.917,5.45-7.033,7.16-11.15s3.162-8.391,5.624-12.107,10.037-7.838,18.15-5.988" transform="translate(-49.555 -12.076)" fill="none" stroke="#4f1d00" stroke-miterlimit="10" stroke-width="1"/>
          <path id="Trazado_1051943" data-name="Trazado 1051943" d="M227.224,57.961a62.54,62.54,0,0,1,10.592-6.226,20.964,20.964,0,0,1,12.013-1.661c4.4.852,8.214,3.544,11.67,6.4" transform="translate(-56.777 -12.438)" fill="none" stroke="#4f1d00" stroke-miterlimit="10" stroke-width="1"/>
          <path id="Trazado_1051944" data-name="Trazado 1051944" d="M169.154,88.545a13.931,13.931,0,0,0,5.861,21.168c-4-.909-8.206-.565-11.574,1.775a15.01,15.01,0,0,0-6.231,10.2" transform="translate(-39.282 -22.125)" fill="none" stroke="#4f1d00" stroke-miterlimit="10" stroke-width="1"/>
          <path id="Trazado_1051945" data-name="Trazado 1051945" d="M271.462,473.763s.779-7.772,7.095-10.905c2.779-1.38,7.63,1.668-7.095,10.905" transform="translate(-67.831 -115.577)" fill="#7cb02e"/>
          <path id="Trazado_1051946" data-name="Trazado 1051946" d="M267.8,474.163s-4.355-5.09-2.553-10.863c.793-2.54,5.557-3.74,2.553,10.863" transform="translate(-66.168 -115.377)" fill="#7cb02e"/>
          <path id="Trazado_1051947" data-name="Trazado 1051947" d="M338.657,466.647s-.431-8.624,5.954-13.092c2.81-1.966,8.616.563-5.954,13.092" transform="translate(-84.62 -113.182)" fill="#7cb02e"/>
          <path id="Trazado_1051948" data-name="Trazado 1051948" d="M334.307,468.041s-5.6-4.845-4.585-11.452c.447-2.907,5.457-5.006,4.585,11.452" transform="translate(-82.358 -113.59)" fill="#7cb02e"/>
          <path id="Trazado_1051949" data-name="Trazado 1051949" d="M197.461,465.574s.608-8.344-5.479-12.813c-2.679-1.966-8.359.356,5.479,12.813" transform="translate(-47.108 -112.978)" fill="#7cb02e"/>
          <path id="Trazado_1051950" data-name="Trazado 1051950" d="M203.094,467.063s5.532-4.57,4.694-10.992c-.369-2.827-5.176-4.97-4.694,10.992" transform="translate(-50.739 -113.466)" fill="#7cb02e"/>
        </g>
      </g>
      <rect id="Rectángulo_416396" data-name="Rectángulo 416396" width="408.018" height="389.485" transform="translate(611 6032.9)" fill="none"/>
    </g>
  </g>
</svg>
