<svg xmlns="http://www.w3.org/2000/svg" xmlns:xlink="http://www.w3.org/1999/xlink" width="208" height="208" viewBox="0 0 208 208">
  <defs>
    <filter id="Rectángulo_416382" x="-8" y="-6" width="225" height="214" filterUnits="userSpaceOnUse">
      <feOffset dy="3" input="SourceAlpha"/>
      <feGaussianBlur stdDeviation="3" result="blur"/>
      <feFlood flood-opacity="0.161"/>
      <feComposite operator="in" in2="blur"/>
      <feComposite in="SourceGraphic"/>
    </filter>
    <filter id="Rectángulo_416181" x="0" y="32" width="208" height="176" filterUnits="userSpaceOnUse">
      <feOffset dy="3" input="SourceAlpha"/>
      <feGaussianBlur stdDeviation="3" result="blur-2"/>
      <feFlood flood-opacity="0.161"/>
      <feComposite operator="in" in2="blur-2"/>
      <feComposite in="SourceGraphic"/>
    </filter>
    <clipPath id="clip-path">
      <g transform="matrix(1, 0, 0, 1, 0, 0)" filter="url(#Rectángulo_416382)">
        <rect id="Rectángulo_416382-2" data-name="Rectángulo 416382" width="207" height="196" rx="20" transform="translate(1222 1687)" fill="#453179" opacity="0.78"/>
      </g>
    </clipPath>
    <clipPath id="clip-path-2">
      <rect id="Rectángulo_416270" data-name="Rectángulo 416270" width="71.166" height="18.266" fill="none"/>
    </clipPath>
    <clipPath id="clip-path-3">
      <rect id="Rectángulo_416271" data-name="Rectángulo 416271" width="27.212" height="8.024" fill="none"/>
    </clipPath>
    <clipPath id="clip-path-4">
      <rect id="Rectángulo_416272" data-name="Rectángulo 416272" width="55.274" height="14.187" fill="none"/>
    </clipPath>
    <clipPath id="clip-path-5">
      <rect id="Rectángulo_416273" data-name="Rectángulo 416273" width="21.134" height="6.232" fill="none"/>
    </clipPath>
    <clipPath id="clip-path-6">
      <rect id="Rectángulo_416274" data-name="Rectángulo 416274" width="8.291" height="31.066" fill="none"/>
    </clipPath>
    <clipPath id="clip-path-7">
      <rect id="Rectángulo_416275" data-name="Rectángulo 416275" width="7.08" height="8.537" fill="none"/>
    </clipPath>
    <clipPath id="clip-path-8">
      <rect id="Rectángulo_416276" data-name="Rectángulo 416276" width="10.03" height="7.911" fill="none"/>
    </clipPath>
    <clipPath id="clip-path-9">
      <rect id="Rectángulo_416277" data-name="Rectángulo 416277" width="14.824" height="19.398" fill="none"/>
    </clipPath>
    <clipPath id="clip-path-10">
      <rect id="Rectángulo_416278" data-name="Rectángulo 416278" width="17.746" height="9.666" fill="none"/>
    </clipPath>
    <clipPath id="clip-path-11">
      <rect id="Rectángulo_416279" data-name="Rectángulo 416279" width="9.279" height="6.411" fill="none"/>
    </clipPath>
    <clipPath id="clip-path-12">
      <rect id="Rectángulo_416280" data-name="Rectángulo 416280" width="31.683" height="23.221" fill="none"/>
    </clipPath>
    <clipPath id="clip-path-13">
      <rect id="Rectángulo_416281" data-name="Rectángulo 416281" width="11.079" height="30.763" fill="none"/>
    </clipPath>
    <clipPath id="clip-path-14">
      <rect id="Rectángulo_416282" data-name="Rectángulo 416282" width="7.531" height="9.34" fill="none"/>
    </clipPath>
    <clipPath id="clip-path-15">
      <rect id="Rectángulo_416283" data-name="Rectángulo 416283" width="9.84" height="8.641" fill="none"/>
    </clipPath>
    <clipPath id="clip-path-16">
      <rect id="Rectángulo_416284" data-name="Rectángulo 416284" width="15.343" height="19.722" fill="none"/>
    </clipPath>
    <clipPath id="clip-path-17">
      <rect id="Rectángulo_416285" data-name="Rectángulo 416285" width="22.106" height="15.026" fill="none"/>
    </clipPath>
    <clipPath id="clip-path-18">
      <rect id="Rectángulo_416286" data-name="Rectángulo 416286" width="8.19" height="8.903" fill="none"/>
    </clipPath>
    <clipPath id="clip-path-20">
      <rect id="Rectángulo_416288" data-name="Rectángulo 416288" width="20.714" height="11.13" fill="none"/>
    </clipPath>
    <clipPath id="clip-path-21">
      <rect id="Rectángulo_416289" data-name="Rectángulo 416289" width="21.953" height="22.146" fill="none"/>
    </clipPath>
    <clipPath id="clip-path-22">
      <rect id="Rectángulo_416290" data-name="Rectángulo 416290" width="21.881" height="22.219" fill="none"/>
    </clipPath>
    <clipPath id="clip-path-23">
      <rect id="Rectángulo_416291" data-name="Rectángulo 416291" width="97.008" height="46.73" fill="none"/>
    </clipPath>
    <clipPath id="clip-path-24">
      <rect id="Rectángulo_416292" data-name="Rectángulo 416292" width="111.64" height="42.109" fill="none"/>
    </clipPath>
    <clipPath id="clip-path-25">
      <rect id="Rectángulo_416293" data-name="Rectángulo 416293" width="14.338" height="9.896" fill="none"/>
    </clipPath>
    <clipPath id="clip-path-26">
      <rect id="Rectángulo_416294" data-name="Rectángulo 416294" width="15.352" height="7.871" fill="none"/>
    </clipPath>
    <clipPath id="clip-path-27">
      <rect id="Rectángulo_416295" data-name="Rectángulo 416295" width="81.785" height="59.394" fill="none"/>
    </clipPath>
    <clipPath id="clip-path-28">
      <rect id="Rectángulo_416296" data-name="Rectángulo 416296" width="15" height="18.926" fill="none"/>
    </clipPath>
    <clipPath id="clip-path-29">
      <rect id="Rectángulo_416297" data-name="Rectángulo 416297" width="6.796" height="8.053" fill="none"/>
    </clipPath>
    <clipPath id="clip-path-30">
      <rect id="Rectángulo_416298" data-name="Rectángulo 416298" width="10.431" height="11.205" fill="none"/>
    </clipPath>
    <clipPath id="clip-path-31">
      <rect id="Rectángulo_416299" data-name="Rectángulo 416299" width="6.04" height="4.386" fill="none"/>
    </clipPath>
    <clipPath id="clip-path-32">
      <rect id="Rectángulo_416300" data-name="Rectángulo 416300" width="18.799" height="26.289" fill="none"/>
    </clipPath>
    <clipPath id="clip-path-33">
      <rect id="Rectángulo_416301" data-name="Rectángulo 416301" width="13.468" height="13.938" fill="none"/>
    </clipPath>
    <clipPath id="clip-path-34">
      <rect id="Rectángulo_416302" data-name="Rectángulo 416302" width="13.228" height="14.985" fill="none"/>
    </clipPath>
    <clipPath id="clip-path-35">
      <rect id="Rectángulo_416303" data-name="Rectángulo 416303" width="8.263" height="6.087" fill="none"/>
    </clipPath>
    <clipPath id="clip-path-36">
      <rect id="Rectángulo_416304" data-name="Rectángulo 416304" width="14.859" height="17.121" fill="none"/>
    </clipPath>
    <clipPath id="clip-path-37">
      <rect id="Rectángulo_416305" data-name="Rectángulo 416305" width="9.509" height="6.774" fill="none"/>
    </clipPath>
  </defs>
  <g id="Grupo_1185663" data-name="Grupo 1185663" transform="translate(-1221 -1687)">
    <g transform="matrix(1, 0, 0, 1, 1221, 1687)" filter="url(#Rectángulo_416181)">
      <rect id="Rectángulo_416181-2" data-name="Rectángulo 416181" width="190" height="158" rx="20" transform="translate(9 38)" fill="#453179"/>
    </g>
    <g id="Enmascarar_grupo_1098852" data-name="Enmascarar grupo 1098852" clip-path="url(#clip-path)">
      <g id="Grupo_1185662" data-name="Grupo 1185662" transform="translate(-2005.296 271.668)">
        <path id="Trazado_1048345" data-name="Trazado 1048345" d="M1501.717,1587.547c-1.826-.558-3.8-1.4-3.943-2.648-.113-1.009,1.106-1.924,2.58-2.356a18.3,18.3,0,0,1,4.8-.5c7.138-.091,14.291.165,21.373.764a13.1,13.1,0,0,0,3.217.014c1.041-.174,2.007-.7,2.063-1.363a.8.8,0,0,0-.344-.651.748.748,0,0,1,.335-1.3c3.573-1.132,8.288-.834,12.452-.436l16.486,1.575a6.36,6.36,0,0,1,3.021.783c1.085.822.281,2.144-1.166,2.7a6.972,6.972,0,0,1-1.195.331.779.779,0,0,0,.028,1.554c.911.15,1.858.261,2.751.4,2.357.364,5.005,1.408,4.74,2.895-.269,1.509-3.218,2.12-5.634,2.4-5.816.668-11.627,1.357-17.453,1.953a2.849,2.849,0,0,0-1.824.626.714.714,0,0,0-.071.091,4.962,4.962,0,0,1-2.4,1.987,30.481,30.481,0,0,1-4.827,1.645,35.725,35.725,0,0,1-8.907.358c-3.737-.285-11.233-.867-12.307-4.917-.3-1.143,1.692-2.648-.187-3.376-1.529-.592-4.969-.547-6.8-.883a61.05,61.05,0,0,1-6.787-1.644" transform="translate(1805.407 142.36)" fill="#6f81d8"/>
        <g id="Grupo_1184627" data-name="Grupo 1184627" transform="translate(3303.175 1722.583)" opacity="0.2" style="mix-blend-mode: overlay;isolation: isolate">
          <g id="Grupo_1184626" data-name="Grupo 1184626">
            <g id="Grupo_1184625" data-name="Grupo 1184625" clip-path="url(#clip-path-2)">
              <path id="Trazado_1048346" data-name="Trazado 1048346" d="M1564.173,1591.328c-.894-.138-1.84-.25-2.751-.4a.779.779,0,0,1-.028-1.554,6.939,6.939,0,0,0,1.195-.331c1.448-.555,2.251-1.878,1.167-2.7a6.359,6.359,0,0,0-3.021-.783l-4.459-.426a8.244,8.244,0,0,1,0,4.592,6.214,6.214,0,0,1-6.377,5.218c-8.117-.29-10.837,6.939-25.041,5.532-9.967-.987-2.942-5.783-6.908-6.908-6.612-1.875-17.368-.691-19.472-5.165a1.663,1.663,0,0,0-.71,1.407c.14,1.251,2.118,2.09,3.943,2.648a61.036,61.036,0,0,0,6.787,1.644c1.828.335,5.268.29,6.8.883,1.88.728-.116,2.233.188,3.376,1.074,4.05,8.57,4.632,12.307,4.917a35.733,35.733,0,0,0,8.907-.357,30.48,30.48,0,0,0,4.827-1.646,4.963,4.963,0,0,0,2.4-1.987.717.717,0,0,1,.071-.091,2.852,2.852,0,0,1,1.824-.626c5.826-.6,11.637-1.284,17.453-1.953,2.416-.277,5.364-.888,5.634-2.4.265-1.487-2.383-2.531-4.74-2.9" transform="translate(-1497.766 -1585.136)"/>
            </g>
          </g>
        </g>
        <g id="Grupo_1184630" data-name="Grupo 1184630" transform="translate(3327.531 1721.874)" opacity="0.2" style="mix-blend-mode: overlay;isolation: isolate">
          <g id="Grupo_1184629" data-name="Grupo 1184629">
            <g id="Grupo_1184628" data-name="Grupo 1184628" clip-path="url(#clip-path-3)">
              <path id="Trazado_1048347" data-name="Trazado 1048347" d="M1615.726,1582.181a6.728,6.728,0,0,0-2.872.583c-.358.19-.723.544-.624.937.115.453.734.561.992.951a.974.974,0,0,1-.332,1.245,2.836,2.836,0,0,1-1.343.418l-8.017,1.077a3.4,3.4,0,0,0-1.355.38,1.159,1.159,0,0,0-.588,1.188,1.338,1.338,0,0,0,.771.807,5.806,5.806,0,0,0,2.937.33,47.138,47.138,0,0,0,9.161-1.39,4.019,4.019,0,0,0,1.547-.68,1.49,1.49,0,0,0,.563-1.505c-.124-.411-.489-.774-.415-1.2.094-.542.788-.693,1.337-.724l9.829-.545c.453-.025,1.96-.238,1.284-1.034-.444-.524-2.189-.44-2.844-.513a64.333,64.333,0,0,0-6.463-.391q-1.786-.018-3.571.063" transform="translate(-1601.562 -1582.114)" fill="#fff"/>
            </g>
          </g>
        </g>
        <path id="Trazado_1048348" data-name="Trazado 1048348" d="M1357.557,1625.26c1.418-.433,2.954-1.084,3.063-2.056.087-.784-.859-1.495-2-1.83a14.212,14.212,0,0,0-3.727-.387c-5.544-.07-11.1.128-16.6.594a10.165,10.165,0,0,1-2.5.011c-.808-.135-1.559-.541-1.6-1.058a.62.62,0,0,1,.267-.506.581.581,0,0,0-.26-1.008c-2.775-.879-6.437-.648-9.671-.338l-12.8,1.224a4.936,4.936,0,0,0-2.346.608c-.843.638-.219,1.665.906,2.1a5.39,5.39,0,0,0,.928.257.605.605,0,0,1-.022,1.207c-.708.117-1.443.2-2.137.31-1.83.283-3.887,1.094-3.681,2.248.209,1.172,2.5,1.646,4.375,1.862,4.517.519,9.03,1.054,13.555,1.517a2.212,2.212,0,0,1,1.417.486.523.523,0,0,1,.055.07,3.853,3.853,0,0,0,1.866,1.543,23.683,23.683,0,0,0,3.749,1.278,27.766,27.766,0,0,0,6.918.278c2.9-.221,8.725-.674,9.559-3.819.235-.888-1.314-2.057.146-2.622,1.188-.46,3.86-.425,5.28-.686a47.447,47.447,0,0,0,5.271-1.277" transform="translate(1952.668 111.988)" fill="#cbd86f"/>
        <g id="Grupo_1184633" data-name="Grupo 1184633" transform="translate(3258.019 1731.56)" opacity="0.2" style="mix-blend-mode: overlay;isolation: isolate">
          <g id="Grupo_1184632" data-name="Grupo 1184632">
            <g id="Grupo_1184631" data-name="Grupo 1184631" clip-path="url(#clip-path-4)">
              <path id="Trazado_1048349" data-name="Trazado 1048349" d="M1309.048,1628.2c.694-.107,1.429-.194,2.137-.31a.605.605,0,0,0,.022-1.207,5.4,5.4,0,0,1-.928-.257c-1.124-.431-1.748-1.458-.906-2.1a4.943,4.943,0,0,1,2.346-.608l3.463-.331a6.408,6.408,0,0,0,0,3.567,4.826,4.826,0,0,0,4.953,4.052c6.3-.225,8.417,5.389,19.449,4.3,7.741-.766,2.285-4.492,5.365-5.365,5.135-1.456,13.489-.536,15.123-4.012a1.292,1.292,0,0,1,.552,1.093c-.109.972-1.645,1.623-3.063,2.056a47.392,47.392,0,0,1-5.271,1.277c-1.42.261-4.092.226-5.28.686-1.46.565.09,1.734-.146,2.622-.834,3.145-6.656,3.6-9.559,3.819a27.761,27.761,0,0,1-6.918-.277,23.685,23.685,0,0,1-3.749-1.278,3.853,3.853,0,0,1-1.866-1.543.532.532,0,0,0-.055-.07,2.215,2.215,0,0,0-1.417-.486c-4.525-.463-9.038-1-13.555-1.516-1.876-.216-4.166-.69-4.375-1.862-.206-1.155,1.851-1.966,3.681-2.248" transform="translate(-1305.352 -1623.387)"/>
            </g>
          </g>
        </g>
        <g id="Grupo_1184636" data-name="Grupo 1184636" transform="translate(3273.24 1731.009)" opacity="0.2" style="mix-blend-mode: overlay;isolation: isolate">
          <g id="Grupo_1184635" data-name="Grupo 1184635">
            <g id="Grupo_1184634" data-name="Grupo 1184634" clip-path="url(#clip-path-5)">
              <path id="Trazado_1048350" data-name="Trazado 1048350" d="M1380.346,1621.092a5.218,5.218,0,0,1,2.231.453c.278.147.562.422.484.728-.089.352-.57.436-.771.739a.756.756,0,0,0,.258.967,2.2,2.2,0,0,0,1.043.324l6.227.837a2.633,2.633,0,0,1,1.052.295.9.9,0,0,1,.457.923,1.04,1.04,0,0,1-.6.627,4.509,4.509,0,0,1-2.281.256,36.6,36.6,0,0,1-7.115-1.079,3.125,3.125,0,0,1-1.2-.529,1.157,1.157,0,0,1-.437-1.169c.1-.319.379-.6.322-.93-.073-.421-.613-.538-1.039-.562l-7.634-.423c-.351-.02-1.522-.185-1-.8.345-.407,1.7-.342,2.209-.4a50.09,50.09,0,0,1,5.019-.3q1.387-.014,2.773.049" transform="translate(-1370.211 -1621.041)" fill="#fff"/>
            </g>
          </g>
        </g>
        <path id="Trazado_1048351" data-name="Trazado 1048351" d="M1202.4,828s15.641,11.938,26.406,17.451,12.149,5.053,12.149,5.053l9.1-18.594s-24.531-9.236-27.879-11.5-14.545-3.353-14.545-3.353Z" transform="translate(2031.457 725.277)" fill="#e8a987"/>
        <path id="Trazado_1048352" data-name="Trazado 1048352" d="M1194.563,843.8s-2.954-.475-2.263,2.195,6.768,5.241,6.768,5.241l-.786-2.614Z" transform="translate(2039.27 704.838)" fill="#e8a987"/>
        <path id="Trazado_1048353" data-name="Trazado 1048353" d="M1225.2,731.723c3.093,12.712,2.331,26.016,1.176,39.047a20.7,20.7,0,0,1-1.6,7.4c-.439.892-1.267,1.834-2.235,1.611a2.258,2.258,0,0,1-1.362-1.445,18.589,18.589,0,0,1-1.205-5.579c-1.371-13.252-.865-26.618-.357-39.931a16.015,16.015,0,0,1,5.586-1.1" transform="translate(2018.687 790.59)" fill="#af5231"/>
        <g id="Grupo_1184639" data-name="Grupo 1184639" transform="translate(3237.779 1531.136)" opacity="0.2" style="mix-blend-mode: overlay;isolation: isolate">
          <g id="Grupo_1184638" data-name="Grupo 1184638">
            <g id="Grupo_1184637" data-name="Grupo 1184637" clip-path="url(#clip-path-6)">
              <path id="Trazado_1048354" data-name="Trazado 1048354" d="M1226.761,769.319c1.163,9.973.512,20.18-.378,30.225q-.037.42-.077.842a11.125,11.125,0,0,0-6.851-5.27c-.427-6.981-.422-13.986-.252-20.991a22.122,22.122,0,0,0,7.558-4.806" transform="translate(-1219.097 -769.319)"/>
            </g>
          </g>
        </g>
        <g id="Grupo_1184642" data-name="Grupo 1184642" transform="translate(3238.033 1522.312)" opacity="0.2" style="mix-blend-mode: overlay;isolation: isolate">
          <g id="Grupo_1184641" data-name="Grupo 1184641">
            <g id="Grupo_1184640" data-name="Grupo 1184640" clip-path="url(#clip-path-7)">
              <path id="Trazado_1048355" data-name="Trazado 1048355" d="M1220.18,740.26q.123-3.719.271-7.433a16.012,16.012,0,0,1,5.586-1.1c.507,2.084.909,4.183,1.224,6.3a7.958,7.958,0,0,1-1.394.961,13.349,13.349,0,0,1-5.687,1.28" transform="translate(-1220.18 -731.723)"/>
            </g>
          </g>
        </g>
        <path id="Trazado_1048356" data-name="Trazado 1048356" d="M1218,677.178a78.5,78.5,0,0,1,3.4,15.592,8.486,8.486,0,0,1-4.8,2.2,8.79,8.79,0,0,1-5.232-1.222c.564-5.3,1.173-10.754,1.737-16.058,1.589-.088,3.3-.422,4.889-.51" transform="translate(2024.594 832.335)" fill="#bae8e7"/>
        <path id="Trazado_1048357" data-name="Trazado 1048357" d="M1208.387,608.373a25.344,25.344,0,0,1,2.969,8.282,10.731,10.731,0,0,1-2.109,8.325c-1.915,2.242-5.324,3.294-7.969,1.991-2.353-1.159-3.609-3.791-4.177-6.351a19.88,19.88,0,0,1,1.161-12.117,45.7,45.7,0,0,1,10.125-.13" transform="translate(2035.869 885.171)" fill="#dd916f"/>
        <g id="Grupo_1184645" data-name="Grupo 1184645" transform="translate(3235.965 1519.421)" opacity="0.2" style="mix-blend-mode: overlay;isolation: isolate">
          <g id="Grupo_1184644" data-name="Grupo 1184644">
            <g id="Grupo_1184643" data-name="Grupo 1184643" clip-path="url(#clip-path-8)">
              <path id="Trazado_1048358" data-name="Trazado 1048358" d="M1220.542,719.4q.532,2.826.86,5.685a8.486,8.486,0,0,1-4.8,2.2,8.787,8.787,0,0,1-5.232-1.222c.061-.571.123-1.148.185-1.722a10.147,10.147,0,0,0,3.3-.584,12.249,12.249,0,0,0,5.688-4.353" transform="translate(-1211.372 -719.398)"/>
            </g>
          </g>
        </g>
        <path id="Trazado_1048359" data-name="Trazado 1048359" d="M1235.159,601.761a24.829,24.829,0,0,1,2.5,14.352,15.592,15.592,0,0,1-.926,4.012c-.083.2-.449.163-.4-.082.212-1.163.491-2.31.652-3.483a24.789,24.789,0,0,0-.886-10.717,26.269,26.269,0,0,0-1.515-3.789.326.326,0,0,1,.583-.292" transform="translate(2006.863 890.187)" fill="#c46f4e"/>
        <path id="Trazado_1048360" data-name="Trazado 1048360" d="M1224.664,612.038c.238,2.441.425,4.888.593,7.335s.432,4.908.4,7.358a.228.228,0,0,1-.448.031c-.42-2.415-.549-4.892-.77-7.332s-.421-4.889-.572-7.337c-.027-.449.753-.508.8-.056" transform="translate(2015.031 882.427)" fill="#c46f4e"/>
        <path id="Trazado_1048361" data-name="Trazado 1048361" d="M1208.633,605.978c.1-.465.9-.307.827.167a40.872,40.872,0,0,0-.547,6.667,35.413,35.413,0,0,0,.74,6.67c.253,1.243.632,2.453.907,3.69a.214.214,0,0,1-.4.138,17.619,17.619,0,0,1-1.1-3.235,29.074,29.074,0,0,1-.679-3.346,33.25,33.25,0,0,1-.272-6.863,26.657,26.657,0,0,1,.529-3.888" transform="translate(2027.147 887.04)" fill="#c46f4e"/>
        <g id="Grupo_1184648" data-name="Grupo 1184648" transform="translate(3232.511 1493.312)" opacity="0.2" style="mix-blend-mode: overlay;isolation: isolate">
          <g id="Grupo_1184647" data-name="Grupo 1184647">
            <g id="Grupo_1184646" data-name="Grupo 1184646" clip-path="url(#clip-path-9)">
              <path id="Trazado_1048362" data-name="Trazado 1048362" d="M1205.006,625.623a4.87,4.87,0,0,0,2.418-5.944,2.066,2.066,0,0,0-1.679-.98,10.509,10.509,0,0,1-9.068-1.276,19.886,19.886,0,0,1,1.593-8.92,45.7,45.7,0,0,1,10.125-.13,25.35,25.35,0,0,1,2.969,8.282,10.732,10.732,0,0,1-2.109,8.325c-1.915,2.242-5.324,3.294-7.969,1.991a5.823,5.823,0,0,1-.99-.624,7.942,7.942,0,0,0,4.711-.724" transform="translate(-1196.649 -608.141)"/>
            </g>
          </g>
        </g>
        <path id="Trazado_1048363" data-name="Trazado 1048363" d="M1202.487,575.806c.581.925,1.3,1.756,1.9,2.671a5.866,5.866,0,0,1,1.094,3.042,2.939,2.939,0,0,1-1.5,2.712,1.988,1.988,0,0,1-2.7-1.031,3.491,3.491,0,0,1-2.081,3.23,2.321,2.321,0,0,1-3.058-1.76,1.709,1.709,0,0,1-1.491,2.23,2.626,2.626,0,0,1-2.435-1.68,6,6,0,0,1-.267-3.107c-.482,1.174-1.642,2.337-2.851,1.953a2.052,2.052,0,0,1-1.27-1.494,4.745,4.745,0,0,1,.041-2.032,14.646,14.646,0,0,1,4.451-7.992c1.857-1.7,4.779-3.511,7.381-3.616,1.656-.067,1.081,1.377,1.259,2.654a10.751,10.751,0,0,0,1.529,4.219" transform="translate(2042.687 915.18)" fill="#a57bb7"/>
        <g id="Grupo_1184651" data-name="Grupo 1184651" transform="translate(3230.417 1492.42)" opacity="0.2" style="mix-blend-mode: overlay;isolation: isolate">
          <g id="Grupo_1184650" data-name="Grupo 1184650">
            <g id="Grupo_1184649" data-name="Grupo 1184649" clip-path="url(#clip-path-10)">
              <path id="Trazado_1048364" data-name="Trazado 1048364" d="M1197.652,608.443a9.614,9.614,0,0,0,5.847-4.107c.3.406.608.813.885,1.238a5.867,5.867,0,0,1,1.094,3.042,2.939,2.939,0,0,1-1.5,2.712,1.988,1.988,0,0,1-2.7-1.03,3.491,3.491,0,0,1-2.081,3.23,2.42,2.42,0,0,1-2.941-1.25,1.232,1.232,0,0,0-.118-.509,1.714,1.714,0,0,0,.118.509,1.805,1.805,0,0,1-1.609,1.721,2.626,2.626,0,0,1-2.435-1.68,6,6,0,0,1-.267-3.107c-.482,1.173-1.642,2.337-2.851,1.953a2.052,2.052,0,0,1-1.27-1.493,4.745,4.745,0,0,1,.041-2.032,14.2,14.2,0,0,1,.36-1.455,11.277,11.277,0,0,0,9.426,2.26" transform="translate(-1187.731 -604.337)"/>
            </g>
          </g>
        </g>
        <g id="Grupo_1184654" data-name="Grupo 1184654" transform="translate(3233.243 1486.929)" opacity="0.2" style="mix-blend-mode: overlay;isolation: isolate">
          <g id="Grupo_1184653" data-name="Grupo 1184653">
            <g id="Grupo_1184652" data-name="Grupo 1184652" clip-path="url(#clip-path-11)">
              <path id="Trazado_1048365" data-name="Trazado 1048365" d="M1207.441,581.047a2.176,2.176,0,0,1,.875-.091.865.865,0,0,1,.687.493c.165.424-.14.876-.441,1.217a15.44,15.44,0,0,1-6.995,4.527,2.582,2.582,0,0,1-.935.155.935.935,0,0,1-.817-.564c-.307-.91,1.036-1.781,1.637-2.253a17.091,17.091,0,0,1,5.99-3.483" transform="translate(-1199.769 -580.94)" fill="#fff"/>
            </g>
          </g>
        </g>
        <path id="Trazado_1048366" data-name="Trazado 1048366" d="M1209.742,801.218a3.95,3.95,0,0,1,1.151,1.943,1.829,1.829,0,0,1-.834,1.966,2.069,2.069,0,0,1-1.541.026c-.5-.16-.965-.422-1.457-.61-1.371-.522-3.044-.515-4.038-1.594a2.551,2.551,0,0,1-.322-2.922c1.683-2.907,5.483-.422,7.041,1.191" transform="translate(2031.474 739.342)" fill="#e8a987"/>
        <path id="Trazado_1048367" data-name="Trazado 1048367" d="M1204.412,819.685a2.483,2.483,0,0,1,.683,1.511,1.865,1.865,0,0,1-.761,1.427,3.566,3.566,0,0,1-1.535.629,6.686,6.686,0,0,1-4.545-.764,4.02,4.02,0,0,1-2-2.37c-.474-1.892,1-3.065,2.68-3.032a7.4,7.4,0,0,1,5.48,2.6" transform="translate(2036.234 725.26)" fill="#e8a987"/>
        <path id="Trazado_1048368" data-name="Trazado 1048368" d="M1199.089,844.655a3.282,3.282,0,0,1,1.29,1.135,1.587,1.587,0,0,1,.036,1.649,2.176,2.176,0,0,1-1.542.77,8.442,8.442,0,0,1-4.33-.476,2.741,2.741,0,0,1-1.584-1.247c-1.755-3.778,4.606-2.671,6.129-1.831" transform="translate(2038.917 704.793)" fill="#e8a987"/>
        <path id="Trazado_1048369" data-name="Trazado 1048369" d="M1259.113,800.951c-.1-1.719-1.553-3.019-2.969-4s-3-1.963-3.607-3.574a21.057,21.057,0,0,0-.628-2.023,1.546,1.546,0,0,0-1.7-.954,1.868,1.868,0,0,0-1,1.168c-1.11,2.683-.05,6.5,1.472,8.972,3.159-.337,5.478-.773,8.427.41" transform="translate(1995.984 745.72)" fill="#e8a987"/>
        <g id="Grupo_1184657" data-name="Grupo 1184657" transform="translate(3249.836 1552.573)" opacity="0.2" style="mix-blend-mode: overlay;isolation: isolate">
          <g id="Grupo_1184656" data-name="Grupo 1184656">
            <g id="Grupo_1184655" data-name="Grupo 1184655" clip-path="url(#clip-path-12)">
              <path id="Trazado_1048370" data-name="Trazado 1048370" d="M1290.2,860.672c-5.352,6.361-11.781,11.949-19.717,11.971,3.546,2.31,7.206,4.536,10.429,6.186,10.765,5.513,12.149,5.053,12.149,5.053l9.1-18.594s-5.69-2.143-11.964-4.616" transform="translate(-1270.483 -860.672)"/>
            </g>
          </g>
        </g>
        <path id="Trazado_1048371" data-name="Trazado 1048371" d="M1829.92,830.842s-15.641,11.938-26.406,17.451-12.149,5.053-12.149,5.053l-9.1-18.594s24.531-9.236,27.88-11.5,14.545-3.353,14.545-3.353Z" transform="translate(1587.674 723.105)" fill="#e8a987"/>
        <path id="Trazado_1048372" data-name="Trazado 1048372" d="M1963.585,858.68s2.992-.013,1.9,2.518-7.5,4.132-7.5,4.132l1.181-2.461Z" transform="translate(1453.188 693.426)" fill="#e8a987"/>
        <path id="Trazado_1048373" data-name="Trazado 1048373" d="M1932.933,741.218c-5.022,12.08-6.326,25.342-7.2,38.4a20.708,20.708,0,0,0,.439,7.559c.3.949.968,2.008,1.96,1.937a2.256,2.256,0,0,0,1.569-1.217,18.585,18.585,0,0,0,2.054-5.326c3.4-12.881,4.97-26.164,6.527-39.4a16.019,16.019,0,0,0-5.348-1.953" transform="translate(1477.977 783.323)" fill="#af5231"/>
        <g id="Grupo_1184660" data-name="Grupo 1184660" transform="translate(3403.656 1533.018)" opacity="0.2" style="mix-blend-mode: overlay;isolation: isolate">
          <g id="Grupo_1184659" data-name="Grupo 1184659">
            <g id="Grupo_1184658" data-name="Grupo 1184658" clip-path="url(#clip-path-13)">
              <path id="Trazado_1048374" data-name="Trazado 1048374" d="M1930.3,777.337c-2.691,9.673-3.626,19.858-4.3,29.92q-.028.421-.054.844a11.123,11.123,0,0,1,7.583-4.148c1.5-6.831,2.579-13.752,3.5-20.7a22.121,22.121,0,0,1-6.724-5.917" transform="translate(-1925.949 -777.338)"/>
            </g>
          </g>
        </g>
        <g id="Grupo_1184663" data-name="Grupo 1184663" transform="translate(3408.727 1524.542)" opacity="0.2" style="mix-blend-mode: overlay;isolation: isolate">
          <g id="Grupo_1184662" data-name="Grupo 1184662">
            <g id="Grupo_1184661" data-name="Grupo 1184661" clip-path="url(#clip-path-14)">
              <path id="Trazado_1048375" data-name="Trazado 1048375" d="M1954.209,750.558q.453-3.693.882-7.386a16.019,16.019,0,0,0-5.348-1.953c-.823,1.98-1.545,3.992-2.182,6.03a7.929,7.929,0,0,0,1.228,1.165,13.351,13.351,0,0,0,5.421,2.144" transform="translate(-1947.56 -741.219)"/>
            </g>
          </g>
        </g>
        <path id="Trazado_1048376" data-name="Trazado 1048376" d="M1951.929,688.184a78.489,78.489,0,0,0-5.773,14.879,8.487,8.487,0,0,0,4.4,2.912,8.787,8.787,0,0,0,5.358-.4c.263-5.327.5-10.806.767-16.133-1.556-.332-3.2-.927-4.752-1.259" transform="translate(1462.241 823.912)" fill="#bae8e7"/>
        <path id="Trazado_1048377" data-name="Trazado 1048377" d="M1958.832,619.855a25.353,25.353,0,0,0-4.214,7.724,10.731,10.731,0,0,0,.8,8.551c1.545,2.511,4.751,4.077,7.565,3.2,2.5-.781,4.153-3.187,5.109-5.628a19.879,19.879,0,0,0,.727-12.151,45.718,45.718,0,0,0-9.983-1.695" transform="translate(1456.164 876.206)" fill="#dd916f"/>
        <g id="Grupo_1184666" data-name="Grupo 1184666" transform="translate(3408.398 1521.491)" opacity="0.2" style="mix-blend-mode: overlay;isolation: isolate">
          <g id="Grupo_1184665" data-name="Grupo 1184665">
            <g id="Grupo_1184664" data-name="Grupo 1184664" clip-path="url(#clip-path-15)">
              <path id="Trazado_1048378" data-name="Trazado 1048378" d="M1947.885,728.219q-.963,2.709-1.729,5.483a8.488,8.488,0,0,0,4.4,2.913,8.789,8.789,0,0,0,5.358-.4c.028-.573.056-1.154.083-1.73a10.146,10.146,0,0,1-3.166-1.087,12.246,12.246,0,0,1-4.947-5.18" transform="translate(-1946.157 -728.219)"/>
            </g>
          </g>
        </g>
        <path id="Trazado_1048379" data-name="Trazado 1048379" d="M1969.394,614.176a24.826,24.826,0,0,0-4.686,13.793,15.585,15.585,0,0,0,.295,4.107c.051.214.419.23.413-.018-.029-1.182-.129-2.358-.106-3.542a24.795,24.795,0,0,1,2.533-10.451,26.234,26.234,0,0,1,2.083-3.509.326.326,0,0,0-.531-.379" transform="translate(1448.056 880.654)" fill="#c46f4e"/>
        <path id="Trazado_1048380" data-name="Trazado 1048380" d="M1982.254,625.912c-.613,2.375-1.176,4.764-1.72,7.156s-1.186,4.782-1.532,7.207a.228.228,0,0,0,.438.1c.788-2.321,1.3-4.748,1.894-7.125s1.172-4.765,1.7-7.16c.1-.44-.665-.618-.779-.178" transform="translate(1437.105 871.764)" fill="#c46f4e"/>
        <path id="Trazado_1048381" data-name="Trazado 1048381" d="M1995.377,622.119c-.028-.475-.842-.443-.843.037a40.884,40.884,0,0,1-.49,6.671,35.406,35.406,0,0,1-1.762,6.475c-.442,1.189-1,2.326-1.466,3.505a.214.214,0,0,0,.373.2,17.62,17.62,0,0,0,1.592-3.025,29.079,29.079,0,0,0,1.188-3.2,33.234,33.234,0,0,0,1.331-6.738,26.708,26.708,0,0,0,.078-3.923" transform="translate(1428.073 874.733)" fill="#c46f4e"/>
        <g id="Grupo_1184669" data-name="Grupo 1184669" transform="translate(3410.261 1496.06)" opacity="0.2" style="mix-blend-mode: overlay;isolation: isolate">
          <g id="Grupo_1184668" data-name="Grupo 1184668">
            <g id="Grupo_1184667" data-name="Grupo 1184667" clip-path="url(#clip-path-16)">
              <path id="Trazado_1048382" data-name="Trazado 1048382" d="M1959.511,637.422a4.87,4.87,0,0,1-1.47-6.246,2.067,2.067,0,0,1,1.811-.709,10.51,10.51,0,0,0,9.156.142,19.886,19.886,0,0,0-.194-9.059,45.7,45.7,0,0,0-9.983-1.694,25.353,25.353,0,0,0-4.214,7.724,10.731,10.731,0,0,0,.8,8.551c1.545,2.511,4.751,4.077,7.565,3.2a5.838,5.838,0,0,0,1.074-.464,7.943,7.943,0,0,1-4.542-1.444" transform="translate(-1954.097 -619.854)"/>
            </g>
          </g>
        </g>
        <path id="Trazado_1048383" data-name="Trazado 1048383" d="M1963.494,592.337c2.041-1.569,4.825-2.727,7.149-1.62,2.185,1.041,3.1,3.711,3.131,6.131a13.789,13.789,0,0,0,.238,4.018c.9,2.853,4.46,4.467,4.777,7.443a2.254,2.254,0,0,1-1.421,2.513c-1.126.255-2.119-.778-2.679-1.787s-1.056-2.2-2.121-2.644c-1.132-.474-2.4.1-3.533.57s-2.574.792-3.48-.036-.992-2.564-2.192-2.778c-1.236-.22-1.9,1.474-3.054,1.977a2.418,2.418,0,0,1-2.516-.6c-2.149-2-.668-4.748.476-6.937a18.981,18.981,0,0,1,5.224-6.25" transform="translate(1454.172 898.841)" fill="#cbd86f"/>
        <g id="Grupo_1184672" data-name="Grupo 1184672" transform="translate(3410.872 1494.675)" opacity="0.2" style="mix-blend-mode: overlay;isolation: isolate">
          <g id="Grupo_1184671" data-name="Grupo 1184671">
            <g id="Grupo_1184670" data-name="Grupo 1184670" clip-path="url(#clip-path-17)">
              <path id="Trazado_1048384" data-name="Trazado 1048384" d="M1977.021,623.1a20.475,20.475,0,0,1-13.551-4.5,12.609,12.609,0,0,1-3.446-4.651,19.239,19.239,0,0,0-1.756,2.754c-1.143,2.189-2.624,4.942-.476,6.937a2.419,2.419,0,0,0,2.517.6c1.15-.5,1.817-2.2,3.053-1.978,1.2.214,1.293,1.955,2.192,2.778s2.346.506,3.48.036,2.4-1.044,3.533-.57c1.065.446,1.562,1.635,2.121,2.644s1.553,2.043,2.678,1.787a2.254,2.254,0,0,0,1.421-2.513,6.084,6.084,0,0,0-1.768-3.324" transform="translate(-1956.698 -613.948)"/>
            </g>
          </g>
        </g>
        <g id="Grupo_1184675" data-name="Grupo 1184675" transform="translate(3419.268 1489.801)" opacity="0.3" style="mix-blend-mode: overlay;isolation: isolate">
          <g id="Grupo_1184674" data-name="Grupo 1184674">
            <g id="Grupo_1184673" data-name="Grupo 1184673" clip-path="url(#clip-path-18)">
              <path id="Trazado_1048385" data-name="Trazado 1048385" d="M2000.375,597.129a5.459,5.459,0,0,0-3.185-3.724,3.714,3.714,0,0,0-4.439,1.464,1.65,1.65,0,0,0,.21,2.1c.669.483,1.6.073,2.421.167a3.146,3.146,0,0,1,2.283,2.169,8.989,8.989,0,0,0,.864,1.971c.715,1,1.784,1.2,2-.11a9.481,9.481,0,0,0-.149-4.032" transform="translate(-1992.48 -593.18)" fill="#fff"/>
            </g>
          </g>
        </g>
        <path id="Trazado_1048386" data-name="Trazado 1048386" d="M1951.027,813.931a3.953,3.953,0,0,0-1.437,1.742,1.829,1.829,0,0,0,.52,2.071,2.068,2.068,0,0,0,1.518.264c.521-.081,1.019-.268,1.534-.377,1.435-.3,3.087-.038,4.235-.951a2.55,2.55,0,0,0,.769-2.837c-1.213-3.132-5.351-1.265-7.14.089" transform="translate(1459.703 729.052)" fill="#e8a987"/>
        <path id="Trazado_1048387" data-name="Trazado 1048387" d="M1952.579,832.807a2.482,2.482,0,0,0-.908,1.388,1.866,1.866,0,0,0,.531,1.527,3.559,3.559,0,0,0,1.42.859,6.686,6.686,0,0,0,4.608-.051,4.023,4.023,0,0,0,2.344-2.033c.761-1.8-.515-3.183-2.179-3.41a7.4,7.4,0,0,0-5.816,1.721" transform="translate(1458.035 714.595)" fill="#e8a987"/>
        <path id="Trazado_1048388" data-name="Trazado 1048388" d="M1957.7,858.285a3.28,3.28,0,0,0-1.45.922,1.586,1.586,0,0,0-.291,1.623,2.176,2.176,0,0,0,1.4,1,8.442,8.442,0,0,0,4.351.2,2.742,2.742,0,0,0,1.757-.987c2.318-3.461-4.137-3.352-5.772-2.757" transform="translate(1454.828 693.974)" fill="#e8a987"/>
        <path id="Trazado_1048389" data-name="Trazado 1048389" d="M1894.865,805.962c.243-1.7,1.807-2.875,3.3-3.729s3.158-1.7,3.9-3.251a21.168,21.168,0,0,1,.8-1.962,1.546,1.546,0,0,1,1.771-.8,1.869,1.869,0,0,1,.9,1.25c.875,2.768-.509,6.48-2.238,8.813-3.119-.607-5.391-1.24-8.431-.315" transform="translate(1501.496 741.293)" fill="#e8a987"/>
        <g id="Grupo_1184678" data-name="Grupo 1184678" transform="translate(3369.936 1553.239)" opacity="0.2" style="mix-blend-mode: overlay;isolation: isolate">
          <g id="Grupo_1184677" data-name="Grupo 1184677">
            <g id="Grupo_1184676" data-name="Grupo 1184676" clip-path="url(#clip-path-12)">
              <path id="Trazado_1048390" data-name="Trazado 1048390" d="M1794.228,863.51c5.352,6.361,11.781,11.949,19.717,11.971-3.546,2.309-7.206,4.536-10.429,6.186-10.765,5.513-12.149,5.053-12.149,5.053l-9.1-18.594s5.69-2.143,11.964-4.616" transform="translate(-1782.263 -863.51)"/>
            </g>
          </g>
        </g>
        <path id="Trazado_1048391" data-name="Trazado 1048391" d="M1350.651,1527.518a70.319,70.319,0,0,1-4.35,12.2c-8.244-2.373-16.38-5.59-24.389-8.657a1.19,1.19,0,0,1-.851-1.851,10.5,10.5,0,0,1,6.28-5.766,20.632,20.632,0,0,1,8.492-.886c5.137.343,9.871,3.59,14.818,4.961" transform="translate(1940.781 185.404)" fill="#f7d772"/>
        <path id="Trazado_1048392" data-name="Trazado 1048392" d="M1344.322,1532.271c-.409-.9-.686-1.852-1.177-2.71a4.4,4.4,0,0,0-.84-1.07,2.806,2.806,0,0,0-.548-.406,1.457,1.457,0,0,0-.668-.236.278.278,0,0,0-.2.463c.132.145.328.226.474.359a4.288,4.288,0,0,1,.43.438,4.852,4.852,0,0,1,.625,1.032c.4.849.616,1.764,1.065,2.593a.48.48,0,1,0,.841-.463" transform="translate(1925.528 181.291)" fill="#edbe37"/>
        <path id="Trazado_1048393" data-name="Trazado 1048393" d="M1358.594,1527.473a23.949,23.949,0,0,0-.906-2.786,5.34,5.34,0,0,0-.67-1.182,2.574,2.574,0,0,0-1.046-.874.3.3,0,0,0-.3.046.32.32,0,0,0-.085.111c-.107.218.119.427.234.591a5.766,5.766,0,0,1,.333.5,7.558,7.558,0,0,1,.537,1.211,22.462,22.462,0,0,0,.907,2.82.544.544,0,0,0,.994-.44" transform="translate(1914.241 185.299)" fill="#edbe37"/>
        <path id="Trazado_1048394" data-name="Trazado 1048394" d="M1370.144,1524.975a11.75,11.75,0,0,0-.785-3.33,6.793,6.793,0,0,0-.751-1.348,3.028,3.028,0,0,0-1.135-1.048.22.22,0,0,0-.277.291c.2.425.486.811.695,1.234a8.725,8.725,0,0,1,.509,1.335c.3.991.417,2.035.644,3.044a.558.558,0,0,0,1.1-.178" transform="translate(1905.351 187.885)" fill="#edbe37"/>
        <path id="Trazado_1048395" data-name="Trazado 1048395" d="M1688.648,1542.679a70.307,70.307,0,0,0-.531,12.94c8.533.884,17.281.947,25.856,1.1a1.189,1.189,0,0,0,1.482-1.4,10.5,10.5,0,0,0-3.666-7.7,20.644,20.644,0,0,0-7.543-4c-4.892-1.6-10.5-.365-15.6-.944" transform="translate(1659.802 169.941)" fill="#f7d772"/>
        <path id="Trazado_1048396" data-name="Trazado 1048396" d="M1774.4,1570.009c.714-.677,1.33-1.461,2.106-2.073a4.4,4.4,0,0,1,1.179-.677,2.813,2.813,0,0,1,.66-.172,1.457,1.457,0,0,1,.708.031.278.278,0,0,1,.015.5c-.177.085-.388.087-.574.155a4.3,4.3,0,0,0-.563.246,4.869,4.869,0,0,0-.966.723c-.689.637-1.231,1.406-1.958,2.006a.48.48,0,0,1-.607-.744" transform="translate(1593.822 151.283)" fill="#edbe37"/>
        <path id="Trazado_1048397" data-name="Trazado 1048397" d="M1763.91,1560.3a23.986,23.986,0,0,1,1.882-2.245,5.333,5.333,0,0,1,1.064-.845,2.576,2.576,0,0,1,1.3-.419.3.3,0,0,1,.258.154.324.324,0,0,1,.038.134c.017.242-.271.352-.438.461a5.6,5.6,0,0,0-.5.343,7.533,7.533,0,0,0-.951.922,22.527,22.527,0,0,1-1.9,2.276.543.543,0,1,1-.757-.78" transform="translate(1601.843 159.142)" fill="#edbe37"/>
        <path id="Trazado_1048398" data-name="Trazado 1048398" d="M1753.54,1553.8a11.743,11.743,0,0,1,1.974-2.795,6.787,6.787,0,0,1,1.2-.968,3.022,3.022,0,0,1,1.445-.547.219.219,0,0,1,.148.373c-.347.318-.754.57-1.106.885a8.723,8.723,0,0,0-.971,1.047c-.648.807-1.148,1.731-1.736,2.582a.558.558,0,0,1-.953-.577" transform="translate(1609.712 164.731)" fill="#edbe37"/>
        <path id="Trazado_1048399" data-name="Trazado 1048399" d="M1810.919,890.061c-.528-5.117-7.43-20.067-14.87-27.713-2.259.87-4.276,1.711-6.2,2.521a93.861,93.861,0,0,1,15.956,27.855c2.015-1.014,3.764-1.933,5.114-2.663" transform="translate(1581.868 690.619)" fill="#bae8e7"/>
        <path id="Trazado_1048400" data-name="Trazado 1048400" d="M1713.242,873.09c-6.783,2.854-12.421,5.318-23.49,7.278,6.079,8.677,2.29,26.886,10.362,33.749,8.141-1.924,20.591-8.9,29.084-13.173a93.865,93.865,0,0,0-15.956-27.855" transform="translate(1658.475 682.398)" fill="#75bcbc"/>
        <path id="Trazado_1048401" data-name="Trazado 1048401" d="M1340.851,856.08c-6.854,8.221-12.188,17.94-14.5,28.535,1.4.789,2.9,1.613,4.464,2.443,1.625-10.7,6.837-20.694,14.04-29.026-1.311-.633-2.627-1.283-4-1.952" transform="translate(1936.598 695.416)" fill="#bae8e7"/>
        <path id="Trazado_1048402" data-name="Trazado 1048402" d="M1359.414,864.4c-7.2,8.332-12.415,18.327-14.041,29.026A217.034,217.034,0,0,0,1369.3,904.5c8.446-6.4,3.614-24.648,10.174-32.968a88.122,88.122,0,0,1-20.058-7.139" transform="translate(1922.039 689.05)" fill="#75bcbc"/>
        <path id="Trazado_1048403" data-name="Trazado 1048403" d="M1571.142,859.126c0,.391-.009.78-.02,1.165a15.687,15.687,0,0,1-1.525.612c-.365.125-.739.241-1.113.345a22.923,22.923,0,0,1-2.774.582c-.359.055-.716.1-1.076.139-.507.058-1.015.1-1.519.122-.328.02-.655.034-.98.038-.8.017-1.58.006-2.331-.035-.542-.029-1.1-.078-1.667-.151-.319-.038-.641-.084-.962-.136-.936-.148-1.887-.351-2.818-.591-.275-.073-.548-.148-.817-.229-.844-.243-1.667-.525-2.441-.835-.226-.13-.452-.264-.672-.4-.252-.154-.5-.316-.745-.482q-.526-.357-1.032-.742.53-1.861.948-3.751c.035-.148.067-.293.1-.441a67.761,67.761,0,0,0,1.206-7.67,184.8,184.8,0,0,1,18.72-4.076l-.18.652a60.949,60.949,0,0,1,1.65,12.2c.049,1.238.067,2.47.052,3.684" transform="translate(1766.464 705.739)" fill="#e8a987"/>
        <g id="Grupo_1184681" data-name="Grupo 1184681" transform="translate(3316.725 1548.33)" opacity="0.2" style="mix-blend-mode: overlay;isolation: isolate">
          <g id="Grupo_1184680" data-name="Grupo 1184680">
            <g id="Grupo_1184679" data-name="Grupo 1184679" clip-path="url(#clip-path-20)">
              <path id="Trazado_1048404" data-name="Trazado 1048404" d="M1576.223,853.392a58.72,58.72,0,0,0-1.535-10.149l.18-.652a184.79,184.79,0,0,0-18.72,4.076c-.156,1.577-.374,3.146-.64,4.708,6.8,1.886,13.847,2.918,20.716,2.017" transform="translate(-1555.508 -842.591)"/>
            </g>
          </g>
        </g>
        <path id="Trazado_1048405" data-name="Trazado 1048405" d="M1468.926,981.526c8.858-.264,33.035-3.8,39.966-9.326,1.088-3.2-7.8-59.656-7.845-80.08a124.466,124.466,0,0,1-19.4,3.849c-7.153.893-14.846-1.074-22.055-1.031a56.075,56.075,0,0,1-19.677-2.818c-1.082,1.915-13.174,31.9-12.138,77.712.592,11.4,32.292,11.958,41.151,11.694" transform="translate(1859.021 667.833)" fill="#bae8e7"/>
        <path id="Trazado_1048406" data-name="Trazado 1048406" d="M1346.321,503.132c2.64,8.987,1.848,41.554,7.709,53.37,4.037,8.137,11.644,14.153,20.25,17.059s17.871,3.184,26.947,2.816c13.529-.549,27.728-2.772,38.327-11.2,10.729-8.528,16.174-22.359,17.412-36.008s-1.257-27.334-3.864-40.789c-16.469-2.659-32.829-4.4-49.48-3.378s-43.463,8.807-57.3,18.127" transform="translate(1921.313 979.637)" fill="#e8a987"/>
        <path id="Trazado_1048407" data-name="Trazado 1048407" d="M1626.938,588.324a9.056,9.056,0,0,0-7.721-.842,3.165,3.165,0,0,0-2.186,2.576c-.02,1.209,1.018,2.158,2.05,2.788,2.848,1.739,6.217,2.363,9.5,2.955,1.718.31,5.383-.332,3.82-2.852a16.1,16.1,0,0,0-5.465-4.626" transform="translate(1714.131 901.387)" fill="#c45226"/>
        <g id="Grupo_1184684" data-name="Grupo 1184684" transform="translate(3345.5 1506.927)" opacity="0.2">
          <g id="Grupo_1184683" data-name="Grupo 1184683">
            <g id="Grupo_1184682" data-name="Grupo 1184682" clip-path="url(#clip-path-21)">
              <path id="Trazado_1048408" data-name="Trazado 1048408" d="M1679.83,671.658a11.007,11.007,0,0,0-.123,11.547,10.748,10.748,0,0,0,14.768,3.477c4.11-2.7,6.19-8.32,5.467-13.1-1.454-9.62-13.5-8.962-19.016-3.293a9.321,9.321,0,0,0-1.1,1.366" transform="translate(-1678.132 -666.161)" fill="#e7363e"/>
            </g>
          </g>
        </g>
        <path id="Trazado_1048409" data-name="Trazado 1048409" d="M1462.078,624.416a9.055,9.055,0,0,1,7.205-2.9,3.165,3.165,0,0,1,2.8,1.889c.346,1.159-.4,2.353-1.22,3.239-2.271,2.444-5.346,3.957-8.348,5.415-1.57.763-5.273,1.137-4.449-1.712a16.1,16.1,0,0,1,4.01-5.932" transform="translate(1835.88 874.97)" fill="#c45226"/>
        <g id="Grupo_1184687" data-name="Grupo 1184687" transform="translate(3280.28 1515.558)" opacity="0.2">
          <g id="Grupo_1184686" data-name="Grupo 1184686">
            <g id="Grupo_1184685" data-name="Grupo 1184685" clip-path="url(#clip-path-22)">
              <path id="Trazado_1048410" data-name="Trazado 1048410" d="M1420.6,708.846a11.007,11.007,0,0,1-.3,11.543,10.747,10.747,0,0,1-14.886,2.933c-4.008-2.851-5.88-8.541-4.984-13.288,1.807-9.56,13.816-8.461,19.124-2.593a9.3,9.3,0,0,1,1.047,1.4" transform="translate(-1400.21 -702.939)" fill="#e7363e"/>
            </g>
          </g>
        </g>
        <path id="Trazado_1048411" data-name="Trazado 1048411" d="M1553.558,682.585a9.145,9.145,0,0,0-7.242,2.51,7.2,7.2,0,0,0-2.069,6.6,5.792,5.792,0,0,0,2.123,3.408.485.485,0,0,0,.613-.751,5.569,5.569,0,0,1-1.662-5.65,7.426,7.426,0,0,1,4.22-4.629,12.631,12.631,0,0,1,4-1.032c.252-.023.281-.438.016-.458" transform="translate(1769.957 828.218)" fill="#d17656"/>
        <path id="Trazado_1048412" data-name="Trazado 1048412" d="M1566.874,893.569a10.639,10.639,0,0,1-2.177,1.76,12.115,12.115,0,0,1-1.162.638c-.1.049-.2.1-.307.145a15.573,15.573,0,0,1-1.525.612c-.365.125-.739.241-1.113.345a22.874,22.874,0,0,1-2.774.583c-.36.055-.716.1-1.076.139-.507.058-1.014.1-1.519.122-.328.021-.655.035-.98.038-.8.017-1.58.006-2.331-.035-.542-.029-1.1-.078-1.667-.151-.319-.038-.641-.084-.962-.136-.936-.148-1.887-.351-2.818-.591-.275-.073-.548-.148-.817-.229-.844-.244-1.667-.525-2.441-.835-.244-.1-.484-.2-.716-.3-.267-.119-.531-.244-.783-.368a13.12,13.12,0,0,1-2.16-1.325,8.381,8.381,0,0,1-.681-.606,4.368,4.368,0,0,1-.53-.623,12.025,12.025,0,0,1,2.223-3.354c.18.125.365.244.551.356.226.142.455.278.69.406.052.029.1.058.156.084a15.922,15.922,0,0,0,1.7.792c.319.127.641.249.971.356a19.525,19.525,0,0,0,2.226.609c.327.069.661.133.991.188.537.09,1.081.165,1.632.22.368.04.733.067,1.1.093.971.061,1.957.075,2.948.049.243-.006.487-.014.733-.029.556-.02,1.119-.061,1.676-.11.252-.017.5-.043.751-.069.965-.1,1.934-.226,2.89-.383.316-.049.635-.1.948-.162.559-.1,1.113-.2,1.667-.316.336-.07.667-.142,1-.218a.28.28,0,0,1,.046-.012c.864-.188,1.71-.391,2.545-.609.241.817.844,2.107,1.087,2.928" transform="translate(1774.358 669.919)" fill="#75bcbc"/>
        <path id="Trazado_1048413" data-name="Trazado 1048413" d="M1543.688,891.4c-.272.377-.54.76-.8,1.149q-.808,1.2-1.534,2.458c-.025.041-.049.086-.074.127a7.613,7.613,0,0,1-.681-.6,0,0,0,0,0,0,0q.714-1.294,1.52-2.539c.234-.362.475-.724.721-1.08.275.174.559.338.846.491" transform="translate(1772.626 668.757)" fill="#bae8e7"/>
        <path id="Trazado_1048414" data-name="Trazado 1048414" d="M1555.618,896.731c-.43.751-.838,1.51-1.218,2.288q-.481.986-.917,1.994c-.268-.119-.53-.244-.784-.369.256-.681.538-1.352.841-2.017.346-.76.715-1.515,1.109-2.253.318.129.641.248.969.356" transform="translate(1763.366 664.577)" fill="#bae8e7"/>
        <path id="Trazado_1048415" data-name="Trazado 1048415" d="M1571.686,900.676c-.272.884-.536,1.768-.78,2.658-.206.728-.406,1.461-.6,2.192-.275-.073-.548-.148-.817-.229.339-1.618.739-3.226,1.205-4.809.328.07.661.133.992.189" transform="translate(1750.516 661.429)" fill="#bae8e7"/>
        <path id="Trazado_1048416" data-name="Trazado 1048416" d="M1586.268,902.323c-.122,1.754-.238,3.51-.336,5.264-.319-.038-.641-.084-.962-.136-.017-1.742.044-3.487.194-5.221.368.041.733.067,1.1.093" transform="translate(1738.67 660.096)" fill="#bae8e7"/>
        <path id="Trazado_1048417" data-name="Trazado 1048417" d="M1604.768,908.1c-.328.02-.656.035-.98.038-.273-1.794-.5-3.6-.713-5.4.244-.006.487-.015.733-.029.342,1.794.673,3.589.96,5.392" transform="translate(1724.811 659.728)" fill="#bae8e7"/>
        <path id="Trazado_1048418" data-name="Trazado 1048418" d="M1615.219,907.256c-.359.055-.716.1-1.076.139-.11-.675-.206-1.351-.31-2.023q-.257-1.678-.493-3.357c.252-.018.5-.044.751-.07q.357,1.63.7,3.264c.145.678.29,1.362.429,2.047" transform="translate(1716.955 660.314)" fill="#bae8e7"/>
        <path id="Trazado_1048419" data-name="Trazado 1048419" d="M1630.981,904.551c-.365.125-.739.241-1.113.345-.131-.661-.258-1.322-.389-1.98-.209-1.04-.421-2.084-.623-3.131.316-.049.635-.1.948-.162.276,1.029.525,2.07.762,3.1q.209.913.414,1.826" transform="translate(1705.081 662.091)" fill="#bae8e7"/>
        <path id="Trazado_1048420" data-name="Trazado 1048420" d="M1642.5,901.383a12.538,12.538,0,0,1-1.162.636q-.415-1.5-.868-2.99c-.15-.5-.312-1-.476-1.5.352-.073.7-.148,1.048-.229.182.432.359.87.531,1.311q.532,1.365.927,2.768" transform="translate(1696.554 663.866)" fill="#bae8e7"/>
        <g id="Grupo_1184690" data-name="Grupo 1184690" transform="translate(3281.209 1509.413)" opacity="0.1" style="mix-blend-mode: overlay;isolation: isolate">
          <g id="Grupo_1184689" data-name="Grupo 1184689">
            <g id="Grupo_1184688" data-name="Grupo 1184688" clip-path="url(#clip-path-23)">
              <path id="Trazado_1048421" data-name="Trazado 1048421" d="M1480.48,708.007a67.9,67.9,0,0,1-24.33,11.172c-16.9,3.366-38.887,1.836-51.98-7.319a37.537,37.537,0,0,0,14.383,8.678c8.606,2.906,17.871,3.184,26.947,2.816,13.529-.549,27.727-2.772,38.327-11.2,10.57-8.4,16.009-21.952,17.351-35.4-5.231,11.214-9.932,23.255-20.7,31.254" transform="translate(-1404.17 -676.752)"/>
            </g>
          </g>
        </g>
        <path id="Trazado_1048422" data-name="Trazado 1048422" d="M1560.342,747.074a6.757,6.757,0,0,0-5.579-1.262c-2.587.686-4.7,2.641-6.524,4.42a19.956,19.956,0,0,1-6.383,4.156c-2.792,1.14-5.77,1.129-8.581,2.113-1.55.542-2.773,1.339-3.154,2.651a3.643,3.643,0,0,0-.117,1.469,43,43,0,0,0,30.339-13.546" transform="translate(1780.757 779.943)" fill="#fff"/>
        <path id="Trazado_1048423" data-name="Trazado 1048423" d="M1575.378,807.7a20.529,20.529,0,0,0,18.719-6.359,17.526,17.526,0,0,0,2.977-4.81c-8.588.135-17.149,3.929-21.7,11.169" transform="translate(1746.009 740.992)" fill="#e7363e"/>
        <path id="Trazado_1048424" data-name="Trazado 1048424" d="M1561.6,752.906a6.034,6.034,0,0,0-1.167-1.139,43,43,0,0,1-30.34,13.547c.257,2.132,2.273,4.038,3.905,5.257a16.077,16.077,0,0,0,6.722,2.87c4.548-7.24,13.109-11.034,21.7-11.169,1.257-3.126,1.354-6.525-.817-9.365" transform="translate(1780.667 775.25)" fill="#bc1925"/>
        <path id="Trazado_1048425" data-name="Trazado 1048425" d="M1545.423,755.978c3.812-2.937,8.532-9.409,13.49-9.749a6.384,6.384,0,0,0-4.131-.417c-2.587.686-4.7,2.641-6.524,4.42a19.954,19.954,0,0,1-6.383,4.156c-2.792,1.139-5.77,1.129-8.581,2.113-1.549.542-2.772,1.339-3.154,2.651a3.622,3.622,0,0,0-.139.829,5.009,5.009,0,0,1,2.9-1.527c4.227-1.037,8.706.252,12.519-2.475" transform="translate(1780.737 779.942)" fill="#e0e0e0"/>
        <path id="Trazado_1048426" data-name="Trazado 1048426" d="M1498.481,683.406a3.45,3.45,0,0,0,1.507,1.49,2,2,0,0,0,1.691.04c1.544-.756,1.122-2.914.787-4.218a7.189,7.189,0,0,0-.58-1.663,1.994,1.994,0,0,0-3.523-.319,4.81,4.81,0,0,0,.119,4.67" transform="translate(1805.373 831.852)" fill="#472209"/>
        <path id="Trazado_1048427" data-name="Trazado 1048427" d="M1635.547,660.646a3.449,3.449,0,0,0,1.507,1.489,2,2,0,0,0,1.692.04c1.544-.756,1.122-2.914.787-4.218a7.19,7.19,0,0,0-.58-1.663,1.994,1.994,0,0,0-3.523-.319,4.809,4.809,0,0,0,.118,4.67" transform="translate(1700.472 849.272)" fill="#472209"/>
        <g id="Grupo_1184693" data-name="Grupo 1184693" transform="translate(3266.963 1464.347)" opacity="0.2" style="mix-blend-mode: overlay;isolation: isolate">
          <g id="Grupo_1184692" data-name="Grupo 1184692">
            <g id="Grupo_1184691" data-name="Grupo 1184691" clip-path="url(#clip-path-24)">
              <path id="Trazado_1048428" data-name="Trazado 1048428" d="M1450.913,488.383c-16.469-2.659-32.829-4.4-49.48-3.378s-43.463,8.807-57.3,18.127c1.374,4.677-1.411,12.251-.475,23.452,1.269.242,9.177,2.664,20.038-15.592a13.3,13.3,0,0,0,14.2,3.768c4.058-1.739,4.348-6.377,6.957-9.566,4.058,6.957,11.885,11.885,19.132,6.377a34.418,34.418,0,0,0,10.146-11.305c1.449,3.189,3.768,5.8,7.537,6.377,6.957,1.159,11.016-4.638,16.233-7.827,4.683,9.143,8.681,20.344,17.139,26.082.446-12.229-1.8-24.465-4.132-36.516" transform="translate(-1343.461 -484.71)"/>
            </g>
          </g>
        </g>
        <path id="Trazado_1048429" data-name="Trazado 1048429" d="M1388.77,339.188a12.05,12.05,0,0,0-12.321-5.384,9.978,9.978,0,0,0,3.618-1.778,5.459,5.459,0,0,0,2.134-4.592c-.335-3.319-4.3-5.015-7.635-4.91a15.741,15.741,0,0,0-11.795,6.09,4.31,4.31,0,0,0-1.944-5.231c-2.2-1.149-5-.419-6.941,1.125s-3.65,4.4-4.871,6.563c-2.569-2.759-3.73-3.707-5.924-6.213a39.783,39.783,0,0,0-8.832-7.093c-2.881-1.672-6.618-2.278-9.526-.656s-4.29,5.905-2.193,8.492a33.231,33.231,0,0,0-24.173-6.4c-2.463.326-5.04,1.02-6.717,2.853s-2.76,5.655-.812,7.2c-8.648-7.055-22.33-6.958-30.876.219-3.162,2.655-5.7,6.337-6.009,10.454s2.114,8.561,6.086,9.683c-3.237,1.092-6.578,2.245-9.089,4.561-3.217,2.967-4.755,10.33-1.287,13.593s7.771,3.774,12.866,3.34a13.233,13.233,0,0,0-4.286,16.764c3,5.579,9.239,11.861,15.177,9.649,7.524-2.8,13.352-13.877,14.146-21.867a14,14,0,0,0,15.26,4.218c5.289-1.931,9.726-6.186,9.619-11.816.858,4.6,5.835,7.578,10.517,7.5s9-2.534,12.693-5.411,7.02-6.253,11.017-8.691c-3.128,2.4-2.249,7.9,1.041,10.071s7.834,1.512,11.182-.574,6.731-3.968,9.066-7.147c4.383,10.59,8.08,20.463,11.443,31.42,2.228-.3,3.671.113,5.249-1.488a114.206,114.206,0,0,0-2.851-44.7c1.557,1.95,6.257-.582,7.522-2.733s.729-4.968-.558-7.106" transform="translate(1996.795 1108.635)" fill="#e27441"/>
        <path id="Trazado_1048430" data-name="Trazado 1048430" d="M1461.392,506.545a13.468,13.468,0,0,1-9.147,4.928,12.312,12.312,0,0,1-9.528-3.47,12.462,12.462,0,0,1-3.135-4.82.6.6,0,0,0-1.155,0,21.548,21.548,0,0,1-6.415,10.951c-1.651,1.509-3.587,2.742-5.9,2.635a9.119,9.119,0,0,1-5.724-2.644,22.915,22.915,0,0,1-4.275-6.324c-.166-.323-.62-.04-.479.28,1.837,4.168,4.654,8.766,9.552,9.583a7.492,7.492,0,0,0,3.456-.193,10.006,10.006,0,0,0,3.111-1.7,21.392,21.392,0,0,0,4.748-5.153,22.381,22.381,0,0,0,2.623-5.485,14.039,14.039,0,0,0,6.813,6.5,13.745,13.745,0,0,0,11.358-.174,12.7,12.7,0,0,0,5.044-4.189c.389-.551-.51-1.255-.943-.727" transform="translate(1868.29 965.825)" fill="#c45226"/>
        <path id="Trazado_1048431" data-name="Trazado 1048431" d="M1716.9,490.857a28.516,28.516,0,0,0-3.214-8.495,31.677,31.677,0,0,0-2.562-3.8q-.7-.891-1.457-1.729a12.315,12.315,0,0,0-1.643-1.632c-1.518-1.133-2.875.734-3.882,1.677a24.337,24.337,0,0,1-3.522,2.826,11.464,11.464,0,0,1-4.065,1.676c-1.1.2-2.638.173-3.182-1a3.081,3.081,0,0,1,.026-2.119,15.138,15.138,0,0,1,.989-2.327c.891-1.846,1.768-3.7,2.57-5.588.127-.3-.275-.561-.45-.263-.937,1.6-1.818,3.226-2.676,4.866a12.2,12.2,0,0,0-1.7,4.253,3.022,3.022,0,0,0,2.052,3.272,6.684,6.684,0,0,0,4.178-.279c2.955-.991,5.369-3.086,7.584-5.206a5.038,5.038,0,0,1,.782-.7c.3-.187.457-.055.694.175.555.538,1.081,1.111,1.586,1.7a28.988,28.988,0,0,1,2.643,3.595,32.421,32.421,0,0,1,3.945,9.459c.208.848,1.469.486,1.3-.358" transform="translate(1656.664 990.934)" fill="#c45226"/>
        <path id="Trazado_1048432" data-name="Trazado 1048432" d="M1707.5,377.065c-.407-1.484-2.192-1.807-3.507-1.65a8.624,8.624,0,0,0-4.123,1.645,9.155,9.155,0,0,0-1.285,1.165q.124-.965.166-1.938a4.345,4.345,0,0,0-.262-2.094,1.8,1.8,0,0,0-1.6-1.007,3.872,3.872,0,0,0-1.96.616,18.516,18.516,0,0,0-1.9,1.253,20.164,20.164,0,0,0-3.31,3.094c-.444.523-2.8,3.066-1.3,3.539.3.1.461-.334.209-.5-.388-.251,1.645-2.509,1.877-2.763a19.192,19.192,0,0,1,2.805-2.537q.748-.55,1.546-1.027a5.4,5.4,0,0,1,1.582-.723.992.992,0,0,1,1.232.509,3.845,3.845,0,0,1,.083,1.708,22.218,22.218,0,0,1-.914,4.771c-.219.719.849.983,1.108.305a7.727,7.727,0,0,1,5.334-4.673,4.915,4.915,0,0,1,1.785-.155,1.581,1.581,0,0,1,1.185.6c.332.576-.191,1.308-.509,1.77a8.746,8.746,0,0,1-1.339,1.5,15.916,15.916,0,0,1-3.958,2.484c-.541.254-.158,1.177.41.973a13.115,13.115,0,0,0,4.289-2.473,10.128,10.128,0,0,0,1.655-1.868,3.143,3.143,0,0,0,.7-2.528" transform="translate(1659.875 1064.99)" fill="#c45226"/>
        <path id="Trazado_1048433" data-name="Trazado 1048433" d="M1394.185,357.285a37.986,37.986,0,0,0-14.9-9.4c-2.442-.854-5.049-1.63-7.66-1.242a5.436,5.436,0,0,0-3.059,1.429,4.82,4.82,0,0,0-1.334,3.688,12.955,12.955,0,0,0,1.444,4.743q.832,1.781,1.672,3.559a41.229,41.229,0,0,0-19.618-5.356,26.237,26.237,0,0,0-9.766,1.014,10.745,10.745,0,0,0-3.93,2.328c-1.22,1.18-2.347,2.9-1.962,4.664a5.372,5.372,0,0,0,1.592,2.553,12.782,12.782,0,0,0,8.241,3.647c.771.038.753-1.125,0-1.189a12.064,12.064,0,0,1-4.747-1.405,8.728,8.728,0,0,1-3.644-3.289c-.752-1.462.311-3.006,1.34-4.024a9.242,9.242,0,0,1,3.445-2.073,24.584,24.584,0,0,1,9-.984,47.178,47.178,0,0,1,10.462,1.456,34.03,34.03,0,0,1,10.671,4.729c.525.36,1.022-.32.8-.8l-2.124-4.515a19.589,19.589,0,0,1-1.561-4,4.292,4.292,0,0,1,.546-3.6,4.048,4.048,0,0,1,2.517-1.409c2.31-.452,4.745.282,6.924.987a40.452,40.452,0,0,1,7.619,3.391,46.223,46.223,0,0,1,7.655,5.472.266.266,0,0,0,.376-.376" transform="translate(1929.978 1085.384)" fill="#c45226"/>
        <path id="Trazado_1048434" data-name="Trazado 1048434" d="M1793.28,587.253a12.1,12.1,0,0,1,8.146-1.033,10.273,10.273,0,0,1,7.053,8.073,13.713,13.713,0,0,1-2.855,10.605,20.863,20.863,0,0,1-9.108,6.465,15.2,15.2,0,0,1-6.664,1.2,7.96,7.96,0,0,1-5.86-3.07c-1.909-2.688-1.707-6.946-.881-10.006a19.618,19.618,0,0,1,5.161-8.757,18.167,18.167,0,0,1,5.009-3.478" transform="translate(1587.485 902.194)" fill="#e8a987"/>
        <path id="Trazado_1048435" data-name="Trazado 1048435" d="M1814.9,635.806c1.479-.39,3.234-.435,4.346.614,1.223,1.154,1.147,3.143.578,4.725a10.1,10.1,0,0,1-11.94,6.376,3.342,3.342,0,0,1-1.448-.668c-1.741-1.556,1.065-5.644,2.145-6.945a12.443,12.443,0,0,1,6.319-4.1" transform="translate(1569.599 864.193)" fill="#d17656"/>
        <g id="Grupo_1184696" data-name="Grupo 1184696" transform="translate(3375.481 1499.744)" opacity="0.2" style="mix-blend-mode: overlay;isolation: isolate">
          <g id="Grupo_1184695" data-name="Grupo 1184695">
            <g id="Grupo_1184694" data-name="Grupo 1184694" clip-path="url(#clip-path-25)">
              <path id="Trazado_1048436" data-name="Trazado 1048436" d="M1819.253,636.42c-1.112-1.05-2.867-1-4.346-.614a12.441,12.441,0,0,0-6.319,4.1c-.833,1-2.689,3.661-2.7,5.539a23.859,23.859,0,0,1,2.337-2.888,10.286,10.286,0,0,1,11.615-1.444c.56-1.577.627-3.548-.588-4.7" transform="translate(-1805.889 -635.551)"/>
            </g>
          </g>
        </g>
        <path id="Trazado_1048437" data-name="Trazado 1048437" d="M1293.234,643.875a12.094,12.094,0,0,0-8.2.46,10.273,10.273,0,0,0-5.474,9.217,13.714,13.714,0,0,0,4.729,9.913,20.866,20.866,0,0,0,10.129,4.708,15.2,15.2,0,0,0,6.771-.027,7.961,7.961,0,0,0,5.207-4.081c1.39-2.99.421-7.14-.946-10a19.621,19.621,0,0,0-6.662-7.677,18.168,18.168,0,0,0-5.556-2.513" transform="translate(1972.406 858.2)" fill="#e8a987"/>
        <path id="Trazado_1048438" data-name="Trazado 1048438" d="M1314.879,692.51c-1.525-.116-3.259.157-4.163,1.391-.994,1.356-.559,3.3.288,4.751a10.1,10.1,0,0,0,12.9,4.108,3.338,3.338,0,0,0,1.3-.919c1.43-1.846-2.069-5.358-3.368-6.441a12.439,12.439,0,0,0-6.958-2.89" transform="translate(1949.001 820.62)" fill="#d17656"/>
        <g id="Grupo_1184699" data-name="Grupo 1184699" transform="translate(3259.143 1513.106)" opacity="0.2" style="mix-blend-mode: overlay;isolation: isolate">
          <g id="Grupo_1184698" data-name="Grupo 1184698">
            <g id="Grupo_1184697" data-name="Grupo 1184697" clip-path="url(#clip-path-26)">
              <path id="Trazado_1048439" data-name="Trazado 1048439" d="M1310.716,693.9c.9-1.234,2.638-1.507,4.163-1.391a12.441,12.441,0,0,1,6.958,2.89c1,.835,3.307,3.113,3.658,4.959a23.889,23.889,0,0,0-2.822-2.417,10.285,10.285,0,0,0-11.684.684c-.837-1.45-1.26-3.376-.273-4.724" transform="translate(-1310.143 -692.486)"/>
            </g>
          </g>
        </g>
        <path id="Trazado_1048440" data-name="Trazado 1048440" d="M1483,1083.156c-.565,6.433-1.122,12.337-1.644,17.6-.035.365-.069.728-.107,1.087-1.606,16.135-2.838,25.944-2.838,25.944a59.408,59.408,0,0,1-7.7,1.777,31.307,31.307,0,0,1-7.328-.371l-15.763-48.4s-11.2-.519-11.546.148c-9.769,18.651-27.582,47.123-28.669,47.873s-12.062-3.148-12.111-4.279c-.388-8.978-.307-18.306.078-27.512.012-.368.029-.736.043-1.1.832-18.744,2.887-36.893,4.748-50.416.049-.368.1-.733.151-1.093,1.823-13.088,3.418-21.567,3.418-21.567l.29.014,13.844.684c.284-7,1.1-18.683,3.406-20.683,3.331-2.887,43.3-.887,44.407,3.774.73,3.073.4,12.508.093,18.587l15.056.7.615.029s1.023,7.887,1.7,19.193q.087,1.413.165,2.9.047.882.09,1.792c.1,2.023.177,4.125.238,6.284a238.842,238.842,0,0,1-.643,27.046" transform="translate(1884.023 584.113)" fill="#a57bb7"/>
        <path id="Trazado_1048441" data-name="Trazado 1048441" d="M1477.139,886.572s1.036,30.049,8.289,30.937,5.181-27.828,3.7-28.272-12.434-4.145-11.99-2.664" transform="translate(1821.204 672.346)" fill="#c8a9d8"/>
        <path id="Trazado_1048442" data-name="Trazado 1048442" d="M1662.538,897.6s-5.477,29.6.3,29.309,12.286-29.753,10.806-30.641-11.1.592-11.1,1.332" transform="translate(1681.1 664.869)" fill="#c8a9d8"/>
        <path id="Trazado_1048443" data-name="Trazado 1048443" d="M1546.2,1150.484a90.515,90.515,0,0,1-9.2,1.516,105.057,105.057,0,0,1-16.456.533c-2.734-.127-5.461-.377-8.177-.733-1.345-.174-2.69-.365-4.026-.609a30.341,30.341,0,0,1-4.07-.878c-.255-.084-.226-.51.067-.487.765.058,1.519.217,2.278.336s1.528.226,2.293.333c1.5.206,2.991.4,4.5.557q3.839.387,7.7.51a65.393,65.393,0,0,1-7.772-1.728q-1.952-.565-3.87-1.247c-.638-.226-1.275-.461-1.907-.71-.322-.128-.641-.267-.96-.4a2.269,2.269,0,0,1-.754-.429.252.252,0,0,1,.177-.426,3.3,3.3,0,0,1,1.1.31l1.02.365q1.048.383,2.11.731a72.171,72.171,0,0,0,14.848,3.116.313.313,0,0,1,0-.073,3.647,3.647,0,0,1,.116-.71c.063-.191.133-.383.185-.58a10.112,10.112,0,0,0,.229-1.31c.119-.991.229-1.98.336-2.971q.339-3.074.646-6.148c.73-7.323,1.377-14.654,1.884-21.993q.383-5.522.667-11.053.135-2.6.246-5.2c0-.087.009-.177.012-.264.073-1.673.1-3.357.255-5.027l1.3.061c.038,1.762-.081,3.534-.168,5.29-.006.13-.011.264-.017.394q-.148,3.126-.325,6.25-.63,11.166-1.655,22.306-.517,5.587-1.162,11.163-.322,2.787-.667,5.574a24.823,24.823,0,0,1-.365,2.493,7.219,7.219,0,0,1-.365,1.171,1.677,1.677,0,0,1-.51.693l.093.009a.474.474,0,0,1,.423.38c1.16-.018,2.316-.052,3.473-.11a114.033,114.033,0,0,0,16.2-2.023c.661-.127.945.872.278,1.017" transform="translate(1800.558 511.939)" fill="#9265aa"/>
        <path id="Trazado_1048444" data-name="Trazado 1048444" d="M1444.99,1096.945a49.928,49.928,0,0,1-5.18,10.459,23.065,23.065,0,0,1-14.662,10.044,24.591,24.591,0,0,1-5.714.562,25.048,25.048,0,0,1-2.554-.185c.05-.368.1-.733.151-1.093.24.026.484.043.728.058.562.035,1.127.049,1.69.041a23.417,23.417,0,0,0,13.853-4.6c5.212-3.942,7.783-10.05,10.343-15.848.336-.765,1.638-.206,1.345.565" transform="translate(1867.312 511.787)" fill="#9265aa"/>
        <path id="Trazado_1048445" data-name="Trazado 1048445" d="M1702.012,1130.7a36.084,36.084,0,0,1-12.732-8.331,35.707,35.707,0,0,1-5.267-6.876,27.52,27.52,0,0,1-3.328-7.934c-.067-.307.4-.545.539-.226a50.673,50.673,0,0,0,4.351,8.389,35.71,35.71,0,0,0,12.407,11.346,34.937,34.937,0,0,0,3.939,1.841c.032.589.061,1.186.09,1.792" transform="translate(1665.418 503.243)" fill="#9265aa"/>
        <path id="Trazado_1048446" data-name="Trazado 1048446" d="M1556.1,1023.922s-1.554,10.954,9.473,12.582,11.455-12.2,10.88-12.36c-5.4-1.48-20.279-1.628-20.353-.222" transform="translate(1760.821 567.708)" fill="#9265aa"/>
        <path id="Trazado_1048447" data-name="Trazado 1048447" d="M1387.638,1496.17a62.863,62.863,0,0,0-1.924,6.217c.074.518,4.293,3.4,8.733,4.885s6.217,1.48,6.661,1.258,3.034-5.773,3.034-5.773a33.623,33.623,0,0,1-8.511-2.368c-3.277-1.513-7.327-4.811-7.993-4.219" transform="translate(1891.166 205.59)" fill="#c8a9d8"/>
        <path id="Trazado_1048448" data-name="Trazado 1048448" d="M1697.156,1517.867a62.941,62.941,0,0,1,.523,6.487c-.185.49-4.932,2.387-9.588,2.863s-6.39.089-6.775-.224-1.7-6.3-1.7-6.3a33.611,33.611,0,0,0,8.823-.456c3.528-.762,8.2-3.1,8.721-2.375" transform="translate(1666.235 189.035)" fill="#c8a9d8"/>
        <path id="Trazado_1048449" data-name="Trazado 1048449" d="M1405.731,1406.762a21.492,21.492,0,0,1-6.83-.962,21.189,21.189,0,0,1-2.441-.9c.012-.368.029-.736.044-1.1a23.518,23.518,0,0,0,9.227,1.872.55.55,0,0,1,0,1.1" transform="translate(1882.939 276.236)" fill="#9265aa"/>
        <path id="Trazado_1048450" data-name="Trazado 1048450" d="M1736.08,1424.42c-.035.365-.069.727-.107,1.087a22.941,22.941,0,0,1-2.3.348,25.3,25.3,0,0,1-5.36-.015c-.612-.07-.568-1.11.047-1.087a43.291,43.291,0,0,0,5.206-.061c.844-.067,1.684-.159,2.519-.272" transform="translate(1629.301 260.448)" fill="#9265aa"/>
        <path id="Trazado_1048451" data-name="Trazado 1048451" d="M1501.033,985.13a2.351,2.351,0,0,0,2.487,1.162,2.941,2.941,0,0,0,2.123-1.854,2.51,2.51,0,0,0-.094-2.136,3.15,3.15,0,0,0-3.656-.994c-1.171.6-1.389,2.771-.86,3.822" transform="translate(1803.116 599.754)" fill="#9265aa"/>
        <path id="Trazado_1048452" data-name="Trazado 1048452" d="M1665.033,989.23a2.351,2.351,0,0,0,2.487,1.162,2.94,2.94,0,0,0,2.123-1.854,2.51,2.51,0,0,0-.094-2.136,3.15,3.15,0,0,0-3.657-.994c-1.171.6-1.389,2.771-.859,3.822" transform="translate(1677.602 596.616)" fill="#9265aa"/>
        <g id="Grupo_1184702" data-name="Grupo 1184702" transform="translate(3285.999 1592.186)" opacity="0.15" style="mix-blend-mode: overlay;isolation: isolate">
          <g id="Grupo_1184701" data-name="Grupo 1184701">
            <g id="Grupo_1184700" data-name="Grupo 1184700" clip-path="url(#clip-path-27)">
              <path id="Trazado_1048453" data-name="Trazado 1048453" d="M1506.011,1071.226c-.029-.606-.058-1.2-.09-1.791q-.078-1.483-.165-2.9c-.681-11.305-1.7-19.193-1.7-19.193l-.615-.029-15.056-.7c.271-5.314.555-13.192.135-17.143a58.187,58.187,0,0,1-15.487,5.7,81.938,81.938,0,0,1-31.937.457c-.319,3.252-.507,6.625-.616,9.309l-13.845-.684-.29-.015s-.728,3.872-1.762,10.415c14.63,1.659,28.955,3.06,42.362,9.505,13.949,6.889,27.489,14.8,39.4,24.708.047-3.884,0-7.7-.1-11.356-.061-2.16-.142-4.261-.238-6.285" transform="translate(-1424.579 -1029.472)"/>
            </g>
          </g>
        </g>
        <path id="Trazado_1048454" data-name="Trazado 1048454" d="M1507.349,1098.157c-.2.409-16.894-.214-34.922-1.023l-1.394-.061c-20.807-.939-42.864-2.093-43.1-2.171-.443-.148.591-4.07.591-4.07.67-.719,22.4.038,42.774.951l1.3.061c17.561.794,33.742,1.687,34.015,1.823.591.3,1.183,3.6.739,4.49" transform="translate(1858.937 515.972)" fill="#c8a9d8"/>
        <path id="Trazado_1048455" data-name="Trazado 1048455" d="M1393.409,1229.889a20.416,20.416,0,0,0-.013,14.019c.382,1.037,1.229,2.238,2.293,1.939.377-.106.68-.391,1.051-.515.929-.309,1.866.488,2.353,1.338a7.471,7.471,0,0,0,1.573,2.45c1.28.981,3.285.288,4.19-1.047a7.382,7.382,0,0,0,.866-4.669,16.015,16.015,0,0,1,.02-4.818c.364-1.508,1.287-2.847,1.56-4.373s-.516-3.468-2.065-3.554c-.5-.028-1.039.139-1.48-.1-.938-.5-.358-1.889-.2-2.94a3,3,0,0,0-1.257-2.873c-1.4-.946-3.671-.177-5.1.447-1.884.823-3.11,2.839-3.8,4.691" transform="translate(1886.23 413.601)" fill="#f797a5"/>
        <g id="Grupo_1184705" data-name="Grupo 1184705" transform="translate(3278.586 1644.257)" opacity="0.15" style="mix-blend-mode: overlay;isolation: isolate">
          <g id="Grupo_1184704" data-name="Grupo 1184704">
            <g id="Grupo_1184703" data-name="Grupo 1184703" clip-path="url(#clip-path-28)">
              <path id="Trazado_1048456" data-name="Trazado 1048456" d="M1405.869,1251.366c-.087-.005-.176,0-.265,0a38.662,38.662,0,0,1-2.846,7.251,6.716,6.716,0,0,1-9.773,1.8,20,20,0,0,0,1.041,4.193c.382,1.037,1.229,2.238,2.293,1.939.377-.105.68-.391,1.051-.515.929-.309,1.866.488,2.353,1.338a7.464,7.464,0,0,0,1.573,2.45c1.281.981,3.285.288,4.191-1.048a7.378,7.378,0,0,0,.866-4.668,16.032,16.032,0,0,1,.021-4.818c.364-1.507,1.287-2.846,1.56-4.373s-.516-3.468-2.064-3.554" transform="translate(-1392.987 -1251.363)"/>
            </g>
          </g>
        </g>
        <g id="Grupo_1184708" data-name="Grupo 1184708" transform="translate(3279.933 1639.884)" opacity="0.2" style="mix-blend-mode: overlay;isolation: isolate">
          <g id="Grupo_1184707" data-name="Grupo 1184707">
            <g id="Grupo_1184706" data-name="Grupo 1184706" clip-path="url(#clip-path-29)">
              <path id="Trazado_1048457" data-name="Trazado 1048457" d="M1399.013,1237.218a3.585,3.585,0,0,0-.18,2.189,1.842,1.842,0,0,0,1.577,1.374,2.746,2.746,0,0,0,2.025-1.255c.794-.957,4.968-6.152,2.093-6.765-1.056-.225-2.568.812-3.334,1.433a6.958,6.958,0,0,0-2.181,3.025" transform="translate(-1398.731 -1232.729)" fill="#fff"/>
            </g>
          </g>
        </g>
        <path id="Trazado_1048458" data-name="Trazado 1048458" d="M1526.928,1191.709a7.55,7.55,0,0,0,4.164,4.4,4.147,4.147,0,0,0,3.781.187,5.125,5.125,0,0,0,1.864-2.934l1.37-3.964c.346-1,.667-2.2.033-3.046a3.313,3.313,0,0,0-2.194-.99l-3.423-.6a5.2,5.2,0,0,0-2.238-.061c-.927.252-2.29,1.95-2.818,2.763a5.179,5.179,0,0,0-.539,4.241" transform="translate(1783.263 443.987)" fill="#f7d772"/>
        <g id="Grupo_1184711" data-name="Grupo 1184711" transform="translate(3311.334 1629.461)" opacity="0.3" style="mix-blend-mode: overlay;isolation: isolate">
          <g id="Grupo_1184710" data-name="Grupo 1184710">
            <g id="Grupo_1184709" data-name="Grupo 1184709" clip-path="url(#clip-path-30)">
              <path id="Trazado_1048459" data-name="Trazado 1048459" d="M1542.6,1189.192a2.661,2.661,0,0,0-1.626-.878c-.4,3.781-1.7,7.423-5.909,8.427a4.586,4.586,0,0,1-2.534-.093,8.521,8.521,0,0,0,3.022,2.3,4.147,4.147,0,0,0,3.781.187,5.123,5.123,0,0,0,1.864-2.934l1.37-3.964c.346-1,.667-2.2.033-3.046" transform="translate(-1532.536 -1188.314)"/>
            </g>
          </g>
        </g>
        <g id="Grupo_1184714" data-name="Grupo 1184714" transform="translate(3311.369 1629.438)" opacity="0.2" style="mix-blend-mode: overlay;isolation: isolate">
          <g id="Grupo_1184713" data-name="Grupo 1184713">
            <g id="Grupo_1184712" data-name="Grupo 1184712" clip-path="url(#clip-path-31)">
              <path id="Trazado_1048460" data-name="Trazado 1048460" d="M1534.111,1189.325a3.036,3.036,0,0,0-1.363,1.562,1.341,1.341,0,0,0,.831,1.693,2.03,2.03,0,0,0,1.368-.392c.956-.548,1.92-1.084,2.868-1.645.611-.362,1.185-.807.778-1.57-.835-1.565-3.456-.32-4.483.352" transform="translate(-1532.692 -1188.217)" fill="#fff"/>
            </g>
          </g>
        </g>
        <path id="Trazado_1048461" data-name="Trazado 1048461" d="M1659.478,1175.9a8.984,8.984,0,0,0,1.276,2.6,3.754,3.754,0,0,1,.634,2.767,7.793,7.793,0,0,1-1.58,2.3,4.946,4.946,0,0,0,2.48,7.611c1.58.511,3.584.334,4.572,1.668.971,1.312.276,3.25.938,4.742a3.471,3.471,0,0,0,3.069,1.882,6.268,6.268,0,0,0,3.554-1.153,6.512,6.512,0,0,0,3.255-5.111c.006-1.076-.367-2.13-.338-3.206.043-1.583.941-3,1.4-4.516s.275-3.51-1.149-4.205c-.907-.443-2.016-.195-2.962-.547a3.814,3.814,0,0,1-2.066-2.567c-.341-1.086-.448-2.239-.85-3.3a6.455,6.455,0,0,0-5.283-4.052c-2.407-.239-7.564,2.048-6.951,5.085" transform="translate(1682.107 454.555)" fill="#f797a5"/>
        <g id="Grupo_1184717" data-name="Grupo 1184717" transform="translate(3340.98 1627.743)" opacity="0.15" style="mix-blend-mode: overlay;isolation: isolate">
          <g id="Grupo_1184716" data-name="Grupo 1184716">
            <g id="Grupo_1184715" data-name="Grupo 1184715" clip-path="url(#clip-path-32)">
              <path id="Trazado_1048462" data-name="Trazado 1048462" d="M1668.574,1198.092c-4.483-5.011-5.368-11.22-8.11-17.1a3.008,3.008,0,0,0-.986,2.71,8.973,8.973,0,0,0,1.276,2.6,3.753,3.753,0,0,1,.634,2.767,7.8,7.8,0,0,1-1.58,2.3,4.946,4.946,0,0,0,2.481,7.611c1.58.511,3.584.334,4.572,1.668.971,1.312.276,3.25.938,4.742a3.471,3.471,0,0,0,3.069,1.882,6.268,6.268,0,0,0,3.554-1.153,6.562,6.562,0,0,0,3.25-5.008,8.954,8.954,0,0,1-.981.165,9.421,9.421,0,0,1-8.116-3.189" transform="translate(-1658.873 -1180.99)"/>
            </g>
          </g>
        </g>
        <g id="Grupo_1184720" data-name="Grupo 1184720" transform="translate(3346.71 1626.095)" opacity="0.2" style="mix-blend-mode: overlay;isolation: isolate">
          <g id="Grupo_1184719" data-name="Grupo 1184719">
            <g id="Grupo_1184718" data-name="Grupo 1184718" clip-path="url(#clip-path-33)">
              <path id="Trazado_1048463" data-name="Trazado 1048463" d="M1686.909,1175a7.552,7.552,0,0,1,1.83,3.515,16,16,0,0,0,1.328,3.772,3.948,3.948,0,0,0,3.187,2.129c.909,0,1.875-.423,2.686-.013a1.73,1.73,0,0,1,.63,2.277,2.5,2.5,0,0,1-2.178,1.232,4.642,4.642,0,0,1-2.471-.783,8.342,8.342,0,0,1-3.229-3.667c-.555-1.234-.8-2.582-1.234-3.862a5.9,5.9,0,0,0-2.275-3.26c-.624-.38-2.635-1.074-1.6-2.029.886-.819,2.629.027,3.328.688" transform="translate(-1683.29 -1173.971)" fill="#fff"/>
            </g>
          </g>
        </g>
        <path id="Trazado_1048464" data-name="Trazado 1048464" d="M1690.815,1374.316a6.029,6.029,0,0,0-2.332,5.6,15.585,15.585,0,0,1,.8,3.035c0,.945-.465,1.831-.555,2.771a3.807,3.807,0,0,0,3.312,3.951,4.182,4.182,0,0,0,4.3-3.024c.2-.739.338-1.694,1.077-1.892a2.68,2.68,0,0,1,.927.03c1.722.152,3.158-1.544,3.371-3.26a10.208,10.208,0,0,0-1.111-5.005c-.661-1.617-1.686-4.19-3.537-4.792-1.739-.565-4.926,1.483-6.248,2.589" transform="translate(1659.518 300.85)" fill="#cbd86f"/>
        <g id="Grupo_1184723" data-name="Grupo 1184723" transform="translate(3347.907 1675.555)" opacity="0.3" style="mix-blend-mode: overlay;isolation: isolate">
          <g id="Grupo_1184722" data-name="Grupo 1184722">
            <g id="Grupo_1184721" data-name="Grupo 1184721" clip-path="url(#clip-path-34)">
              <path id="Trazado_1048465" data-name="Trazado 1048465" d="M1694.063,1392.576c-3.84-1.28-4.235-4.415-3.673-7.844a5.854,5.854,0,0,0-1.907,5.208,15.611,15.611,0,0,1,.8,3.035c0,.945-.464,1.831-.554,2.771a3.807,3.807,0,0,0,3.312,3.951,4.182,4.182,0,0,0,4.3-3.025c.2-.739.338-1.694,1.077-1.892a2.686,2.686,0,0,1,.927.031c1.564.138,2.888-1.248,3.279-2.788a8.783,8.783,0,0,1-7.556.553" transform="translate(-1688.39 -1384.732)"/>
            </g>
          </g>
        </g>
        <g id="Grupo_1184726" data-name="Grupo 1184726" transform="translate(3351.559 1674.057)" opacity="0.2" style="mix-blend-mode: overlay;isolation: isolate">
          <g id="Grupo_1184725" data-name="Grupo 1184725">
            <g id="Grupo_1184724" data-name="Grupo 1184724" clip-path="url(#clip-path-35)">
              <path id="Trazado_1048466" data-name="Trazado 1048466" d="M1711.8,1381.673a4.963,4.963,0,0,0-1.173-2.09,4.32,4.32,0,0,0-6.208.165,1.9,1.9,0,0,0-.428.721.92.92,0,0,0,.12.8,1.435,1.435,0,0,0,1.314.4,8.369,8.369,0,0,1,1.438-.177,2.811,2.811,0,0,1,1.717.878c.462.448.842.967,1.333,1.388a2.468,2.468,0,0,0,1.8.674c.691-.073.482-.629.42-1.083a11.04,11.04,0,0,0-.337-1.67" transform="translate(-1703.948 -1378.349)" fill="#fff"/>
            </g>
          </g>
        </g>
        <path id="Trazado_1048467" data-name="Trazado 1048467" d="M1437.444,1351.944a11.4,11.4,0,0,0,1.611,5.044,14.443,14.443,0,0,0,3.694,5,5.586,5.586,0,0,0,5.869.843,6.678,6.678,0,0,0,2.839-3.9,38.586,38.586,0,0,1,1.549-4.687,27.311,27.311,0,0,0,1.637-3.137,4.28,4.28,0,0,0-.077-3.114,3.072,3.072,0,0,0-2.441-1.816c-.673-.057-1.348.147-2.021.1-1.825-.137-3-2-4.681-2.734-2.532-1.108-4.6.583-5.7,2.746-.87,1.712-2.292,3.7-2.281,5.658" transform="translate(1851.574 322.616)" fill="#6f81d8"/>
        <g id="Grupo_1184729" data-name="Grupo 1184729" transform="translate(3291.612 1668.835)" opacity="0.15" style="mix-blend-mode: overlay;isolation: isolate">
          <g id="Grupo_1184728" data-name="Grupo 1184728">
            <g id="Grupo_1184727" data-name="Grupo 1184727" clip-path="url(#clip-path-36)">
              <path id="Trazado_1048468" data-name="Trazado 1048468" d="M1463.029,1357.872a3.116,3.116,0,0,0-2.183-1.774,27.812,27.812,0,0,1-.815,5.867,9.66,9.66,0,0,1-9.566,6.957,7.14,7.14,0,0,1-1.963-.279,11.368,11.368,0,0,0,2.711,3.226,5.586,5.586,0,0,0,5.869.843,6.679,6.679,0,0,0,2.838-3.9,38.582,38.582,0,0,1,1.549-4.687,27.35,27.35,0,0,0,1.637-3.137,4.282,4.282,0,0,0-.077-3.114" transform="translate(-1448.502 -1356.098)"/>
            </g>
          </g>
        </g>
        <g id="Grupo_1184732" data-name="Grupo 1184732" transform="translate(3291.53 1668.211)" opacity="0.2" style="mix-blend-mode: overlay;isolation: isolate">
          <g id="Grupo_1184731" data-name="Grupo 1184731">
            <g id="Grupo_1184730" data-name="Grupo 1184730" clip-path="url(#clip-path-37)">
              <path id="Trazado_1048469" data-name="Trazado 1048469" d="M1453.217,1353.492a3.549,3.549,0,0,0-2.577.627,4.9,4.9,0,0,0-2.41,4.893,1.744,1.744,0,0,0,.484.954.862.862,0,0,0,1,.138,2.084,2.084,0,0,0,.514-.686,3.122,3.122,0,0,1,2.713-1.094,11.35,11.35,0,0,0,3.041-.062,2.368,2.368,0,0,0,1.58-1.294c.341-.927-.326-.8-.981-1.163-1.193-.659-1.971-2.012-3.368-2.313" transform="translate(-1448.149 -1353.437)" fill="#fff"/>
            </g>
          </g>
        </g>
      </g>
    </g>
  </g>
</svg>
