<svg xmlns="http://www.w3.org/2000/svg" width="35.629" height="42.978" viewBox="0 0 35.629 42.978">
  <g id="pintar_1_" data-name="pintar (1)" transform="translate(-43.772)">
    <g id="Grupo_1182738" data-name="Grupo 1182738" transform="translate(61.33 14.828)">
      <g id="Grupo_1182737" data-name="Grupo 1182737" transform="translate(0)">
        <path id="Trazado_1042924" data-name="Trazado 1042924" d="M268.011,187.564a4.752,4.752,0,0,0-4.305-1.329,11.291,11.291,0,0,1-2.186.21,9.743,9.743,0,0,1-5.264-1.411,3.869,3.869,0,0,1-2.035-3.122c0-1.658,1.548-3.235,3.943-4.018a.638.638,0,0,0-.4-1.213c-2.975.972-4.823,2.977-4.823,5.232a5.087,5.087,0,0,0,2.614,4.191,11.026,11.026,0,0,0,5.961,1.618,12.562,12.562,0,0,0,2.433-.235,3.5,3.5,0,0,1,4.1,4.126c-.012.057-.024.107-.035.149a16.07,16.07,0,0,1-6.376,8.946.638.638,0,1,0,.725,1.05,17.347,17.347,0,0,0,6.882-9.658c.019-.068.037-.145.054-.229A4.743,4.743,0,0,0,268.011,187.564Z" transform="translate(-252.945 -176.649)"/>
      </g>
    </g>
    <g id="Grupo_1182740" data-name="Grupo 1182740" transform="translate(43.772 8.51)">
      <g id="Grupo_1182739" data-name="Grupo 1182739" transform="translate(0)">
        <path id="Trazado_1042925" data-name="Trazado 1042925" d="M68.856,133.23a.638.638,0,0,0-.854-.291,15.7,15.7,0,0,1-6.976,1.628h-.02a15.958,15.958,0,1,1,5.745-30.85.638.638,0,0,0,.46-1.191,17.236,17.236,0,1,0-6.205,33.317h.022a16.971,16.971,0,0,0,7.538-1.759A.638.638,0,0,0,68.856,133.23Z" transform="translate(-43.772 -101.376)"/>
      </g>
    </g>
    <g id="Grupo_1182742" data-name="Grupo 1182742" transform="translate(52.11 13.641)">
      <g id="Grupo_1182741" data-name="Grupo 1182741" transform="translate(0)">
        <path id="Trazado_1042926" data-name="Trazado 1042926" d="M146.149,162.505a3.043,3.043,0,1,0,3.043,3.043A3.047,3.047,0,0,0,146.149,162.505Zm0,4.81a1.767,1.767,0,1,1,1.767-1.767A1.769,1.769,0,0,1,146.149,167.315Z" transform="translate(-143.106 -162.505)"/>
      </g>
    </g>
    <g id="Grupo_1182744" data-name="Grupo 1182744" transform="translate(47.62 21.017)">
      <g id="Grupo_1182743" data-name="Grupo 1182743">
        <path id="Trazado_1042927" data-name="Trazado 1042927" d="M92.663,250.375a3.043,3.043,0,1,0,3.043,3.043A3.047,3.047,0,0,0,92.663,250.375Zm0,4.81a1.767,1.767,0,1,1,1.767-1.767A1.769,1.769,0,0,1,92.663,255.185Z" transform="translate(-89.62 -250.375)"/>
      </g>
    </g>
    <g id="Grupo_1182746" data-name="Grupo 1182746" transform="translate(50.506 29.194)">
      <g id="Grupo_1182745" data-name="Grupo 1182745" transform="translate(0)">
        <path id="Trazado_1042928" data-name="Trazado 1042928" d="M127.046,347.8a3.043,3.043,0,1,0,3.043,3.043A3.047,3.047,0,0,0,127.046,347.8Zm0,4.81a1.767,1.767,0,1,1,1.767-1.767A1.769,1.769,0,0,1,127.046,352.607Z" transform="translate(-124.003 -347.797)"/>
      </g>
    </g>
    <g id="Grupo_1182748" data-name="Grupo 1182748" transform="translate(57.962 33.283)">
      <g id="Grupo_1182747" data-name="Grupo 1182747">
        <path id="Trazado_1042929" data-name="Trazado 1042929" d="M215.873,396.509a3.043,3.043,0,1,0,3.043,3.043A3.047,3.047,0,0,0,215.873,396.509Zm0,4.81a1.767,1.767,0,1,1,1.767-1.767A1.769,1.769,0,0,1,215.873,401.319Z" transform="translate(-212.83 -396.509)"/>
      </g>
    </g>
    <g id="Grupo_1182750" data-name="Grupo 1182750" transform="translate(65.9 29.194)">
      <g id="Grupo_1182749" data-name="Grupo 1182749">
        <path id="Trazado_1042930" data-name="Trazado 1042930" d="M310.43,347.8a3.043,3.043,0,1,0,3.043,3.043A3.047,3.047,0,0,0,310.43,347.8Zm0,4.81a1.767,1.767,0,1,1,1.767-1.767A1.769,1.769,0,0,1,310.43,352.607Z" transform="translate(-307.387 -347.797)"/>
      </g>
    </g>
    <g id="Grupo_1182752" data-name="Grupo 1182752" transform="translate(65.173)">
      <g id="Grupo_1182751" data-name="Grupo 1182751" transform="translate(0)">
        <path id="Trazado_1042931" data-name="Trazado 1042931" d="M312.763,5.641a.638.638,0,0,0-1.261.193c.633,4.129-.329,6.6-2.856,7.36l-1.164-.476,1.808-2.811a.638.638,0,1,0-1.073-.69l-1.935,3.009-.577-.236.729-3.5a.638.638,0,1,0-1.249-.26L304.5,11.5l-.956-.391a3.134,3.134,0,0,1-.651-2.787,4.816,4.816,0,0,1,2.858-3.379c2.342-.982,3.9-1.782,4.834-2.855.136.416.29.921.438,1.483a.638.638,0,1,0,1.234-.325A24.909,24.909,0,0,0,311.336.4a.638.638,0,0,0-.59-.4h0a.638.638,0,0,0-.59.4c-.492,1.2-1.681,2.021-4.895,3.368a6.108,6.108,0,0,0-3.614,4.3,4.461,4.461,0,0,0,.8,3.717l-3.675,10.393a.638.638,0,1,0,1.2.425l.433-1.225,3.352,1.371-.329.7a.638.638,0,1,0,1.156.54l4.476-9.585a5.09,5.09,0,0,0,3.508-3.525A11.672,11.672,0,0,0,312.763,5.641ZM304.3,21.585l-3.466-1.418,2.716-7.679,1.169.478h0l3.028,1.239Z" transform="translate(-298.734)"/>
      </g>
    </g>
  </g>
</svg>
