<svg xmlns="http://www.w3.org/2000/svg" width="29.718" height="36.055" viewBox="0 0 29.718 36.055">
  <g id="chico_1_" data-name="chico (1)" transform="translate(-44.994)">
    <path id="Trazado_1046614" data-name="Trazado 1046614" d="M71.5,19.339a3.324,3.324,0,0,0,2.462-5.424A14.112,14.112,0,0,0,49.946,4.063a.528.528,0,1,0,.742.752A13.056,13.056,0,0,1,72.9,13.567a7.978,7.978,0,0,1-1.254-.187c-1.072-3.412-3.006-5.361-6.067-6.123a.528.528,0,0,0-.49.128c-5.763,5.435-12.207,2.724-14.044,1.764a.528.528,0,0,0-.615.091,9.718,9.718,0,0,0-2.37,4.153,6.483,6.483,0,0,1-1.251.179,12.961,12.961,0,0,1,2.348-6.944.528.528,0,0,0-.865-.606,14.021,14.021,0,0,0-2.548,7.895A3.324,3.324,0,0,0,48.2,19.339,12.167,12.167,0,0,0,54.6,26.931a10.1,10.1,0,0,0-4.637,6.682,2.053,2.053,0,0,0,2.016,2.442H67.731a2.054,2.054,0,0,0,2.016-2.442,10.05,10.05,0,0,0-.376-1.4.528.528,0,1,0-1,.347,8.991,8.991,0,0,1,.337,1.251A1,1,0,0,1,67.731,35H65.9V33.28a.528.528,0,1,0-1.056,0V35H54.861V33.28a.528.528,0,0,0-1.056,0V35h-1.83A1,1,0,0,1,51,33.813a9.042,9.042,0,0,1,4.242-6.036,4.692,4.692,0,0,0,9.228,0,9.059,9.059,0,0,1,2.861,2.7.528.528,0,0,0,.875-.592,10.116,10.116,0,0,0-3.093-2.956A12.168,12.168,0,0,0,71.5,19.339Zm1.688-4.7a2.269,2.269,0,0,1-1.433,3.617,12.117,12.117,0,0,0,.111-3.753,8.988,8.988,0,0,0,1.322.136ZM46.05,16.015a2.261,2.261,0,0,1,.466-1.377,8.67,8.67,0,0,0,1.321-.12,12.121,12.121,0,0,0,.113,3.736A2.274,2.274,0,0,1,46.05,16.015Zm13.8,14.544a3.645,3.645,0,0,1-3.574-2.965,12.131,12.131,0,0,0,7.148,0A3.646,3.646,0,0,1,59.853,30.56Zm0-3.483A11.059,11.059,0,0,1,49,13.939a9.256,9.256,0,0,1,1.912-3.675,14.216,14.216,0,0,0,6.715,1.451,12.378,12.378,0,0,0,7.971-3.36c2.611.736,4.2,2.47,5.114,5.581A11.059,11.059,0,0,1,59.853,27.076Z" transform="translate(0 0)"/>
    <path id="Trazado_1046615" data-name="Trazado 1046615" d="M186.58,223.814a.528.528,0,0,0-.528.528v.845a.528.528,0,0,0,1.056,0v-.845A.528.528,0,0,0,186.58,223.814Z" transform="translate(-131.125 -208.053)"/>
    <path id="Trazado_1046616" data-name="Trazado 1046616" d="M311.476,223.814a.528.528,0,0,0-.528.528v.845a.528.528,0,0,0,1.056,0v-.845A.528.528,0,0,0,311.476,223.814Z" transform="translate(-247.226 -208.053)"/>
    <path id="Trazado_1046617" data-name="Trazado 1046617" d="M235.23,243.888a.528.528,0,0,0-.745.051,1.008,1.008,0,0,1-1.522,0,.528.528,0,1,0-.8.694,2.065,2.065,0,0,0,3.115,0A.528.528,0,0,0,235.23,243.888Z" transform="translate(-173.87 -226.593)"/>
  </g>
</svg>
