<svg xmlns="http://www.w3.org/2000/svg" width="38.012" height="42.034" viewBox="0 0 38.012 42.034">
  <g id="triangulo_3_" data-name="triangulo (3)" transform="translate(-24.494 -0.001)">
    <path id="Trazado_1051951" data-name="Trazado 1051951" d="M41.231,8.618a.616.616,0,0,0-.871.871l.7.7a.616.616,0,1,0,.871-.871Zm-7.25,7.25a.616.616,0,0,0-.871.871l.7.7a.616.616,0,0,0,.871-.871ZM62.448,38.525c-.066-.328-.243-.933-.5-1.714-1.039-3.211-3.351-9.4-4.39-11.644a5.609,5.609,0,0,0-1.237-4.311,2.291,2.291,0,0,0-.81-1.342,22.117,22.117,0,0,0-4.584-2.8c2.145-2.71,5.3-7.273,6.276-8.919a2.967,2.967,0,0,0-2.051-4.435.616.616,0,0,0-.206,1.214,1.735,1.735,0,0,1,1.2,2.592c-.993,1.673-4.277,6.415-6.387,9.04a21.372,21.372,0,0,0-2.572-.859,9.942,9.942,0,0,0,.375-1.946c1.663-2.15,4.2-5.708,5.44-7.728a.616.616,0,0,0-1.05-.643c-1,1.635-2.878,4.3-4.426,6.38a8.4,8.4,0,0,0-.486-1.938A3.579,3.579,0,0,0,42.814,3.8,17.133,17.133,0,0,0,38.358.21a1.791,1.791,0,0,0-2.6,1.312c-.008.052-.015.1-.022.149-2.439-.315-4.714,1.012-6.92,1.791a1.4,1.4,0,0,0-.857.857c-.781,2.208-2.106,4.481-1.791,6.92l-.149.022a1.791,1.791,0,0,0-1.312,2.6,17.132,17.132,0,0,0,3.591,4.458,3.578,3.578,0,0,0,5.669,4.23,8.748,8.748,0,0,0,4.124.5,83.222,83.222,0,0,1-3.749,9.29,2.968,2.968,0,0,0,2.245,4.525.616.616,0,1,0,.11-1.226A1.735,1.735,0,0,1,35.383,33,82.188,82.188,0,0,0,39.454,22.81q.2-.05.391-.108a23.351,23.351,0,0,0,1.745,4.523,75.955,75.955,0,0,1-3.1,7.306.616.616,0,1,0,1.085.582c.64-1.193,1.789-3.868,2.788-6.465a19.376,19.376,0,0,0,1.638,2.376,2.305,2.305,0,0,0,.717.588c-1.052,1.965-2.34,4.515-3.165,6.2a2.933,2.933,0,1,0,5.267,2.58c1.025-2.092,2.726-5.439,3.887-7.507a8.809,8.809,0,0,0,3.08-1.469c1.333,3.488,2.763,7.59,2.9,8.261a2.933,2.933,0,1,0,5.751-1.15ZM46.157,5.3a2.35,2.35,0,0,1,.294,2.961,7.7,7.7,0,0,0-1.168-1.5h0a7.778,7.778,0,0,0-2.3-1.592A2.344,2.344,0,0,1,46.157,5.3ZM25.79,13.285a.558.558,0,0,1,.413-.808,3.077,3.077,0,0,1,.57-.056.616.616,0,0,0,.726-.762c-.609-2.259.761-4.512,1.616-6.931a.173.173,0,0,1,.106-.106c2.412-.852,4.67-2.226,6.93-1.616a.616.616,0,0,0,.762-.726,3.046,3.046,0,0,1,.056-.57.558.558,0,0,1,.808-.413,15.808,15.808,0,0,1,4.065,3.265c-.046.051-.09.1-.134.157C35.855,3.18,29.391,8.014,28.953,14.336a8.892,8.892,0,0,0,.259,2.88q-.08.065-.157.133a15.8,15.8,0,0,1-3.265-4.065Zm4,8.379a2.349,2.349,0,0,1-.131-3.176,7.8,7.8,0,0,0,3.089,3.471A2.35,2.35,0,0,1,29.793,21.664Zm2.332-1.745C29.207,17,29.59,11.873,32.978,8.485c3.289-3.289,8.437-3.851,11.435-.853,2.917,2.917,2.535,8.047-.853,11.435C40.244,22.382,35.106,22.9,32.124,19.919Zm8.883,2.359a11.2,11.2,0,0,0,5.759-5.765,22.617,22.617,0,0,1,7.97,3.954c1.551,1.267-1.691,5.231-3.118,6.658s-5.391,4.67-6.658,3.118a22.616,22.616,0,0,1-3.953-7.965Zm4.712,17.57a1.7,1.7,0,1,1-3.056-1.5c.062-.126.279-.568.6-1.2A10.529,10.529,0,0,1,46.3,38.668c-.227.454-.425.856-.584,1.18Zm11.5-2.594c-.689-2.019-1.756-4.942-2.584-7.072a.616.616,0,0,0-.981-.239,7.707,7.707,0,0,1-3.474,1.8.616.616,0,0,0-.409.3c-.87,1.529-2,3.715-2.909,5.509a11.888,11.888,0,0,0-3.049-1.512c.619-1.226,1.4-2.757,2.158-4.153C48.6,31.806,52.089,28.4,52.489,28a17.194,17.194,0,0,0,3.6-5.146,4.951,4.951,0,0,1,.231,2.342.616.616,0,0,0,.055.343c.812,1.7,2.961,7.349,4.123,10.784a7.467,7.467,0,0,0-3.275.935Zm2.683,3.514a1.7,1.7,0,0,1-2-1.34c-.038-.184-.138-.523-.281-.973a6.145,6.145,0,0,1,3.281-.9c.168.535.286.955.338,1.212a1.7,1.7,0,0,1-1.334,2ZM38.76,11.784a.616.616,0,0,0-.572.657A1.176,1.176,0,0,1,36.933,13.7a.616.616,0,0,0-.084,1.229,2.407,2.407,0,0,0,2.568-2.568.616.616,0,0,0-.657-.572Z" transform="translate(0 0)"/>
  </g>
</svg>
