<svg xmlns="http://www.w3.org/2000/svg" xmlns:xlink="http://www.w3.org/1999/xlink" width="110" height="110" viewBox="0 0 110 110">
  <defs>
    <filter id="Trazado_982547" x="0" y="0" width="110" height="110" filterUnits="userSpaceOnUse">
      <feOffset dy="3" input="SourceAlpha"/>
      <feGaussianBlur stdDeviation="3" result="blur"/>
      <feFlood flood-opacity="0.161"/>
      <feComposite operator="in" in2="blur"/>
      <feComposite in="SourceGraphic"/>
    </filter>
  </defs>
  <g id="Grupo_1185066" data-name="Grupo 1185066" transform="translate(-377.402 -3845.67)">
    <g id="Grupo_1183624" data-name="Grupo 1183624" transform="translate(386.402 3851.67)">
      <g id="Grupo_1179602" data-name="Grupo 1179602" transform="translate(0 0)">
        <g id="Grupo_1171898" data-name="Grupo 1171898">
          <g id="Grupo_1164700" data-name="Grupo 1164700">
            <g id="Grupo_1160931" data-name="Grupo 1160931" transform="translate(0 0)">
              <g id="Grupo_1160749" data-name="Grupo 1160749">
                <g id="Grupo_1158891" data-name="Grupo 1158891">
                  <g id="Grupo_1157406" data-name="Grupo 1157406">
                    <g id="Grupo_1155793" data-name="Grupo 1155793">
                      <g id="Grupo_1154704" data-name="Grupo 1154704">
                        <g id="Grupo_1150790" data-name="Grupo 1150790">
                          <g id="Grupo_1154214" data-name="Grupo 1154214">
                            <g id="Grupo_1152583" data-name="Grupo 1152583">
                              <g id="Grupo_1146973" data-name="Grupo 1146973">
                                <g id="Grupo_1146954" data-name="Grupo 1146954">
                                  <g transform="matrix(1, 0, 0, 1, -9, -6)" filter="url(#Trazado_982547)">
                                    <g id="Trazado_982547-2" data-name="Trazado 982547" transform="translate(9 6)" fill="#effbfe">
                                      <path d="M 46.00000381469727 90.49986267089844 C 39.99188232421875 90.49986267089844 34.16428375244141 89.32350158691406 28.67905807495117 87.00344848632812 C 23.38021659851074 84.76223754882812 18.62104415893555 81.55341339111328 14.53376388549805 77.46613311767578 C 10.44647026062012 73.37885284423828 7.237643718719482 68.61968994140625 4.996417045593262 63.32085037231445 C 2.676363706588745 57.83565139770508 1.500003814697266 52.00805282592773 1.500003814697266 45.99993133544922 C 1.500003814697266 39.99182510375977 2.676363706588745 34.16422653198242 4.996417045593262 28.67901039123535 C 7.237643718719482 23.38017082214355 10.44647026062012 18.62101173400879 14.53376388549805 14.53373146057129 C 18.62104415893555 10.44645118713379 23.38021659851074 7.237624645233154 28.67905807495117 4.996411323547363 C 34.16428375244141 2.676357984542847 39.99188232421875 1.499997973442078 46.00000381469727 1.499997973442078 C 52.00812530517578 1.499997973442078 57.83573532104492 2.676357984542847 63.32094955444336 4.996411323547363 C 68.61980438232422 7.237624645233154 73.37896728515625 10.44645118713379 77.46625518798828 14.53373146057129 C 81.55353546142578 18.62101173400879 84.76236724853516 23.38017082214355 87.00359344482422 28.67901039123535 C 89.32364654541016 34.16422653198242 90.5 39.99182510375977 90.5 45.99993133544922 C 90.5 52.00805282592773 89.32364654541016 57.83565139770508 87.00359344482422 63.32085037231445 C 84.76236724853516 68.61968994140625 81.55353546142578 73.37885284423828 77.46625518798828 77.46613311767578 C 73.37896728515625 81.55341339111328 68.61980438232422 84.76223754882812 63.32094955444336 87.00344848632812 C 57.83573532104492 89.32350158691406 52.00812530517578 90.49986267089844 46.00000381469727 90.49986267089844 Z" stroke="none"/>
                                      <path d="M 46.00000381469727 3 C 40.19371795654297 3 34.56270217895508 4.136505126953125 29.26338958740234 6.377914428710938 C 24.14333343505859 8.54351806640625 19.54443359375 11.64438629150391 15.59442138671875 15.59439086914062 C 11.64440155029297 19.54440307617188 8.543533325195312 24.14330291748047 6.3779296875 29.26334381103516 C 4.136505126953125 34.56266021728516 3.000007629394531 40.19366073608398 3.000007629394531 45.99993133544922 C 3.000007629394531 51.80620193481445 4.136505126953125 57.43720245361328 6.3779296875 62.73651885986328 C 8.543533325195312 67.85655975341797 11.64440155029297 72.45545959472656 15.59442138671875 76.40547180175781 C 19.54443359375 80.35547637939453 24.14333343505859 83.45634460449219 29.26338958740234 85.6219482421875 C 34.56270217895508 87.86335754394531 40.19371795654297 88.99986267089844 46.00000381469727 88.99986267089844 C 51.80628967285156 88.99986267089844 57.43730545043945 87.86335754394531 62.73663330078125 85.6219482421875 C 67.85667419433594 83.45634460449219 72.45558929443359 80.35547637939453 76.40560150146484 76.40547180175781 C 80.35560607910156 72.45545959472656 83.45648956298828 67.85655975341797 85.62208557128906 62.73651885986328 C 87.86350250244141 57.43720245361328 89 51.80620193481445 89 45.99993133544922 C 89 40.19366073608398 87.86350250244141 34.56266021728516 85.62208557128906 29.26334381103516 C 83.45648956298828 24.14330291748047 80.35560607910156 19.54440307617188 76.40560150146484 15.59439086914062 C 72.45558929443359 11.64438629150391 67.85667419433594 8.54351806640625 62.73663330078125 6.377914428710938 C 57.43730545043945 4.136505126953125 51.80628967285156 3 46.00000381469727 3 M 46.00000381469727 0 C 71.40510559082031 0 92 20.59487152099609 92 45.99993133544922 C 92 71.40499114990234 71.40510559082031 91.99986267089844 46.00000381469727 91.99986267089844 C 20.59491729736328 91.99986267089844 7.62939453125e-06 71.40499114990234 7.62939453125e-06 45.99993133544922 C 7.62939453125e-06 20.59487152099609 20.59491729736328 0 46.00000381469727 0 Z" stroke="none" fill="#397b86"/>
                                    </g>
                                  </g>
                                </g>
                              </g>
                            </g>
                          </g>
                        </g>
                      </g>
                    </g>
                  </g>
                </g>
              </g>
            </g>
          </g>
        </g>
      </g>
    </g>
    <g id="cuadro" transform="translate(348.373 3863.466)">
      <path id="Trazado_1049562" data-name="Trazado 1049562" d="M193.875,7.5h4.15v8.3h-4.15Z" transform="translate(-114.147 -6.498)" fill="#fe860a"/>
      <path id="Trazado_1049563" data-name="Trazado 1049563" d="M104.837,437.22h-4.15l4.15-10.376h4.15Z" transform="translate(-33.41 -369.813)" fill="#fe860a"/>
      <path id="Trazado_1049564" data-name="Trazado 1049564" d="M260.15,437.22h4.15l-4.15-10.376H256Z" transform="translate(-167.971 -369.813)" fill="#fe860a"/>
      <path id="Trazado_1049565" data-name="Trazado 1049565" d="M198.025,437.22h-4.15v-8.3l2.075-2.075,2.075,2.075Z" transform="translate(-114.147 -369.813)" fill="#fe860a"/>
      <path id="Trazado_1049566" data-name="Trazado 1049566" d="M141.121,402.007h-24.9v-2.885a3.34,3.34,0,0,1,3.34-3.34h18.221a3.34,3.34,0,0,1,3.34,3.34Z" transform="translate(-46.866 -342.9)" fill="#fe9738"/>
      <path id="Trazado_1049567" data-name="Trazado 1049567" d="M198.025,431.591v-2.672l-2.075-2.075-2.075,2.075v2.672Z" transform="translate(-114.147 -369.813)" fill="#fe7701"/>
      <path id="Trazado_1049568" data-name="Trazado 1049568" d="M121.687,431.591l1.9-4.747h-4.15l-1.9,4.747Z" transform="translate(-48.008 -369.813)" fill="#fe7701"/>
      <path id="Trazado_1049569" data-name="Trazado 1049569" d="M260.15,426.844H256l1.9,4.747h4.15Z" transform="translate(-167.971 -369.813)" fill="#fe7701"/>
      <path id="Trazado_1049570" data-name="Trazado 1049570" d="M104.974,103.9H71.629a2,2,0,0,1-2-2V56.1a2,2,0,0,1,2-2h33.344a2,2,0,0,1,2,2v45.8A2,2,0,0,1,104.974,103.9Z" transform="translate(-6.498 -46.866)" fill="#f2fbff"/>
      <g id="Grupo_1185065" data-name="Grupo 1185065" transform="translate(63.127 7.228)">
        <path id="Trazado_1049571" data-name="Trazado 1049571" d="M161.878,64.787H149.285a2,2,0,0,1-2-2V58.562h16.6v4.221A2,2,0,0,1,161.878,64.787Z" transform="translate(-136.905 -57.965)" fill="#dff6fd"/>
        <path id="Trazado_1049572" data-name="Trazado 1049572" d="M349.018,225.969Z" transform="translate(-311.688 -203.004)" fill="#dff6fd"/>
        <path id="Trazado_1049573" data-name="Trazado 1049573" d="M349.012,225.971h0Z" transform="translate(-311.682 -203.006)" fill="#dff6fd"/>
        <path id="Trazado_1049574" data-name="Trazado 1049574" d="M212.37,176.783V169.22a50.142,50.142,0,0,0-3.7,3.92l-5.983,7.071h0a8.853,8.853,0,0,1-4.1,2.791,3.1,3.1,0,0,0-1.281.773L196.083,185a3.34,3.34,0,0,0-.978,2.362v.107a2,2,0,0,1-1.37,1.9l-2.006.669a.668.668,0,0,0-.261,1.106l.538.538a4.383,4.383,0,0,0,6.2,0l3.5-3.5a3.1,3.1,0,0,0,.773-1.281,8.853,8.853,0,0,1,2.791-4.105l7.071-5.984h0Z" transform="translate(-175.018 -153.838)" fill="#dff6fd"/>
        <path id="Trazado_1049575" data-name="Trazado 1049575" d="M348.987,225.977l0,0Z" transform="translate(-311.658 -203.011)" fill="#dff6fd"/>
        <path id="Trazado_1049576" data-name="Trazado 1049576" d="M104.974,54.094h-3.34V91.2a10.021,10.021,0,0,1-10.021,10.021H69.625v.668a2,2,0,0,0,2,2h33.344a2,2,0,0,0,2-2V56.1a2,2,0,0,0-2-2Z" transform="translate(-69.625 -54.094)" fill="#dff6fd"/>
      </g>
      <path id="Trazado_1049577" data-name="Trazado 1049577" d="M145.483,200.139a2.075,2.075,0,0,0,0,2.935l4.4,4.4a2.075,2.075,0,0,0-2.935,2.935l3.556,3.556,7.142.459-1.272-6.328-7.958-7.958a2.075,2.075,0,0,0-2.935,0Z" transform="translate(-71.694 -172.872)" fill="#e53950"/>
      <path id="Trazado_1049578" data-name="Trazado 1049578" d="M161.878,44.787H149.285a2,2,0,0,1-2-2V38.562h16.6v4.221A2,2,0,0,1,161.878,44.787Z" transform="translate(-73.778 -33.41)" fill="#fe9738"/>
      <path id="Trazado_1049579" data-name="Trazado 1049579" d="M141.121,402.007h-24.9v-2.885a3.34,3.34,0,0,1,3.34-3.34h18.221a3.34,3.34,0,0,1,3.34,3.34Z" transform="translate(-46.866 -342.9)" fill="#fe9738"/>
      <path id="Trazado_1049580" data-name="Trazado 1049580" d="M197.289,268.04v-2.935l-4.4-1.467-.489.489a3.34,3.34,0,0,0-.978,2.362v.107a2,2,0,0,1-1.37,1.9l-3.032,1.011,1.3,1.3a4.383,4.383,0,0,0,6.2,0Z" transform="translate(-108.205 -228.413)" fill="#eb5569"/>
      <path id="Trazado_1049581" data-name="Trazado 1049581" d="M284.776,101.3a50.108,50.108,0,0,0,8.407-9.126l3.876-5.427a1,1,0,0,0-1.4-1.4l-5.427,3.876a50.1,50.1,0,0,0-9.126,8.407l-5.377,6.354-.856,2.079,3.546.611Z" transform="translate(-184.325 -73.779)" fill="#fe9738"/>
      <path id="Trazado_1049582" data-name="Trazado 1049582" d="M104.23,159.625a2.075,2.075,0,1,1,0-2.935A2.075,2.075,0,0,1,104.23,159.625Z" transform="translate(-33.41 -135.228)" fill="#e53950"/>
      <path id="Trazado_1049583" data-name="Trazado 1049583" d="M236.854,233.516a8.854,8.854,0,0,1,2.791-4.105l.716-.606-2.69-2.69-.606.716a8.852,8.852,0,0,1-4.105,2.791,3.1,3.1,0,0,0-1.281.773l-.734.734,4.4,4.4.734-.734A3.1,3.1,0,0,0,236.854,233.516Z" transform="translate(-146.264 -195.903)" fill="#b2caec"/>
      <path id="Trazado_1049584" data-name="Trazado 1049584" d="M113.337,10.972a1.974,1.974,0,0,0-2.582-.214l-5.427,3.876q-2,1.425-3.845,3.036V9.232a3.01,3.01,0,0,0-3.006-3.006H91.106V5.152a1,1,0,0,0-1-1H84.881V1a1,1,0,0,0-1-1h-4.15a1,1,0,0,0-1,1V4.15H73.5a1,1,0,0,0-1,1V6.225H70.584a1,1,0,0,0,0,2H72.5V9.374a3.01,3.01,0,0,0,3.006,3.006H88.1a3.01,3.01,0,0,0,3.006-3.006V8.23h7.369a1,1,0,0,1,1,1V19.511q-1.819,1.762-3.459,3.7l-5.983,7.07A7.836,7.836,0,0,1,86.4,32.76a4.125,4.125,0,0,0-1.694,1.022l-.025.025-7.249-7.249a3.077,3.077,0,1,0-4.352,4.352l2.362,2.361a3.081,3.081,0,0,0-.894,4.975l4.858,4.858a5.392,5.392,0,0,0,7.616,0l3.5-3.5a4.125,4.125,0,0,0,1.022-1.694,7.838,7.838,0,0,1,2.48-3.635l5.449-4.611V55.027a1,1,0,0,1-1,1H95.252a4.348,4.348,0,0,0-4.338-4.15H81.79a1,1,0,1,0,0,2h9.124a2.341,2.341,0,0,1,2.338,2.338V58.1h-22.9V56.221a2.341,2.341,0,0,1,2.338-2.338h4.421a1,1,0,1,0,0-2H72.693a4.348,4.348,0,0,0-4.338,4.15H65.131a1,1,0,0,1-1-1V9.232a1,1,0,0,1,1-1h.776a1,1,0,1,0,0-2h-.776a3.01,3.01,0,0,0-3.006,3.006v45.8a3.01,3.01,0,0,0,3.006,3.006H68.35v1.073a1,1,0,0,0,.777.977l-2.781,6.952a1,1,0,0,0,.93,1.374h4.15a1,1,0,0,0,.93-.63l3.068-7.671h3.3v7.3a1,1,0,0,0,1,1h4.151a1,1,0,0,0,1-1v-7.3h3.3l3.068,7.671a1,1,0,0,0,.93.63h4.15a1,1,0,0,0,.93-1.374l-2.781-6.952a1,1,0,0,0,.778-.977V58.033h3.219a3.01,3.01,0,0,0,3.006-3.006V27.962a51.415,51.415,0,0,0,3.837-3.676,1,1,0,1,0-1.46-1.373A49.271,49.271,0,0,1,99.8,26.76l-5.65,4.781-1.386-1.386L97.549,24.5a49.134,49.134,0,0,1,8.944-8.239l5.427-3.876-3.876,5.427c-.384.538-.784,1.075-1.189,1.6a1,1,0,1,0,1.582,1.23c.421-.542.837-1.1,1.237-1.66l3.876-5.427a1.974,1.974,0,0,0-.214-2.582ZM80.73,2h2.146V4.15H80.73ZM89.1,9.374a1,1,0,0,1-1,1H75.507a1,1,0,0,1-1-1V6.154H89.1ZM70.749,66.405H68.758l2.519-6.3h1.991Zm12.128,0H80.73v-6.3h2.147Zm9.981,0-2.518-6.3H92.33l2.519,6.3ZM75.965,35.313a1.072,1.072,0,0,1,1.517,0L78.95,36.78a1,1,0,1,0,1.417-1.417l-5.87-5.87a1.073,1.073,0,0,1,1.518-1.517l7.257,7.257a4.31,4.31,0,0,0-1.06,2.843v.107a1,1,0,0,1-.685.951l-2.444.815-3.118-3.118a1.075,1.075,0,0,1,0-1.518Zm9.64,6.376a3.386,3.386,0,0,1-4.782,0l-.156-.156,1.493-.5a3,3,0,0,0,2.056-2.852v-.107a2.32,2.32,0,0,1,.48-1.419l2.97,2.97Zm4.028-4.371a2.086,2.086,0,0,1-.524.868l-.025.025L86.1,35.225a2.106,2.106,0,0,1,.893-.549,9.8,9.8,0,0,0,4.476-2.986l1.151,1.151A9.8,9.8,0,0,0,89.633,37.317Z"/>
      <path id="Trazado_1049585" data-name="Trazado 1049585" d="M94.1,153.844a3.077,3.077,0,1,0,0-4.352A3.081,3.081,0,0,0,94.1,153.844Zm1.417-2.935a1.073,1.073,0,1,1,0,1.518A1.074,1.074,0,0,1,95.515,150.909Z" transform="translate(-26.921 -128.738)"/>
    </g>
  </g>
</svg>
