<svg xmlns="http://www.w3.org/2000/svg" xmlns:xlink="http://www.w3.org/1999/xlink" width="223.568" height="261.684" viewBox="0 0 223.568 261.684">
  <defs>
    <clipPath id="clip-path">
      <rect id="Rectángulo_414538" data-name="Rectángulo 414538" width="210.55" height="261.684" fill="#fff" stroke="#707070" stroke-width="1" opacity="0.62"/>
    </clipPath>
  </defs>
  <g id="Grupo_1185660" data-name="Grupo 1185660" transform="translate(0)">
    <g id="Enmascarar_grupo_1098810" data-name="Enmascarar grupo 1098810" transform="translate(0)" clip-path="url(#clip-path)">
      <g id="Grupo_1173368" data-name="Grupo 1173368" transform="translate(17.041 28.073)">
        <path id="Trazado_1039179" data-name="Trazado 1039179" d="M214.288,305.39a44.818,44.818,0,0,1-63.195-24.236c-2.947-8.1-3.5-16.9-3.059-25.511a116.756,116.756,0,0,1,6.3-32.327c3.2-9.217,7.592-18.165,8.77-27.851.96-7.895-.271-15.868-.661-23.811s.177-16.3,4.3-23.1,12.7-11.427,20.215-8.821c11.083-10.165,33.26-7.783,41.205,4.986,5.321,8.552,5.461,19.913,12.1,27.49,7.328,8.368,20.733,9.885,27,19.077,2.646,3.882,3.625,8.647,4.2,13.31C276.389,244.382,249.668,286.537,214.288,305.39Z" transform="translate(-101.789 -132.461)" fill="#272e41"/>
        <path id="Trazado_1039180" data-name="Trazado 1039180" d="M387.532,213.535c.609-.152,1.375-.252,1.754.248a1.63,1.63,0,0,1,.235.922,273.984,273.984,0,0,1-.919,40.088,306.423,306.423,0,0,1-44.576-15.413c-2.42-1.051-4.56-2.383-5.329-5.076a5.315,5.315,0,0,1,1.712-5.746c2.665-2.068,7.041-2.876,10.2-3.981q5.567-1.948,11.187-3.739Q374.543,216.775,387.532,213.535Z" transform="translate(-195.698 -171.888)" fill="#f4b25b"/>
        <path id="Trazado_1039181" data-name="Trazado 1039181" d="M304.956,473.806s52.311-11.481,45.43-42.972S300.5,358.3,300.5,358.3l-31.933,19.34S276.073,457.435,304.956,473.806Z" transform="translate(-161.251 -243.291)" fill="#ba5e2b"/>
        <path id="Trazado_1039182" data-name="Trazado 1039182" d="M163.288,247.738c-11.855,8.106-33.817,18.255-49.695,23.234-2.415.757-9.277,2.493-11.765,2.03-2.971-.552-4.7-3.6-5.967-6.34-7.4-15.951-11.247-44.823-15.325-61.925-.094-1.284-.871-6.747,2.245-6.6a11.118,11.118,0,0,1,3.544,1.232c3.92,1.606,8.363.737,12.5-.155,4.5-.968,5.231-1.31,9.728-2.278,1.358-.292,2.876-.7,3.553-1.911a2.031,2.031,0,0,0-.624-2.452c2.87.056,7.877-1.132,9.513-2.491a1.143,1.143,0,0,0-.513-2.013c0-.014.011-.026.013-.041.09-.51-.507-.848-1-.992-4.327-1.252-8.937-.4-13.419.045q-.458.046-.917.086-1.76.154-3.526.222l-8.812-.312c-6.6-.234-13.778-.3-19.08,3.645-5.614,4.176-7.5,11.658-8.439,18.592-2.044,15.139-2.994,43.112.407,58.005,2.675,11.712,13.123,31.585,24.352,35.857,9.812,3.733,25.083-.068,34.931-3.7,12.9-4.763,30.32-9.147,41.371-15.5,1.245.343,2.816-.639,3.587-1.675a8.533,8.533,0,0,0,1.313-3.607C172.663,271.149,165.7,255.017,163.288,247.738Z" transform="translate(-60.178 -158.568)" fill="#f5ba9c"/>
        <path id="Trazado_1039183" data-name="Trazado 1039183" d="M367.4,382.239A95.966,95.966,0,0,1,289.553,362.6c-7.638-6.247-14.243-13.642-20.814-21-6.125-6.862-12.336-13.852-16.25-22.176-8.91-18.945-3.691-43.216,11.432-57.694,9.262-8.867,23.41-14.19,35.469-9.836,5.893,2.128,10.585,6.59,15.227,10.8,11.41,10.343,24.409,20.187,39.672,22.237,3.514.472,7.234.563,10.283,2.374,3.949,2.346,5.818,7,7.185,11.381a129.242,129.242,0,0,1,4.724,21.386,139.214,139.214,0,0,1,.7,29.39C376.4,359.3,370.1,372.736,367.4,382.239Z" transform="translate(-151.182 -190.087)" fill="#fff"/>
        <g id="Grupo_1173342" data-name="Grupo 1173342" transform="translate(66.629 10.159)">
          <g id="Grupo_1173297" data-name="Grupo 1173297" transform="translate(0 26.248)">
            <g id="Grupo_1173291" data-name="Grupo 1173291" transform="translate(0)">
              <path id="Trazado_1039184" data-name="Trazado 1039184" d="M189.97,213.421c2.319,2.994,6.275,3.812,8.836,1.828s2.757-6.018.438-9.012-6.275-3.812-8.836-1.828S187.651,210.427,189.97,213.421Z" transform="translate(-188.352 -203.326)" fill="#f5ba9c"/>
            </g>
            <g id="Grupo_1173292" data-name="Grupo 1173292" transform="translate(4.209 3.412)">
              <path id="Trazado_1039185" data-name="Trazado 1039185" d="M197.6,215.948a3.467,3.467,0,1,0,.256-5.262A3.749,3.749,0,0,0,197.6,215.948Z" transform="translate(-196.651 -210.053)" fill="#ec766e"/>
            </g>
            <g id="Grupo_1173294" data-name="Grupo 1173294" transform="translate(3.969 3.474)">
              <g id="Grupo_1173293" data-name="Grupo 1173293">
                <path id="Trazado_1039186" data-name="Trazado 1039186" d="M199.045,210.595a2.546,2.546,0,0,0-2.085,1.363,3.083,3.083,0,0,0-.094,2.729c.714,1.694,2.8,3.248,4.681,2.541.252-.094.344.314.095.408-2.152.807-4.552-1.047-5.25-3.021a3.449,3.449,0,0,1,.293-3.014,2.941,2.941,0,0,1,2.377-1.425c.27-.008.252.411-.017.419Z" transform="translate(-196.177 -210.176)" fill="#2f383c"/>
              </g>
            </g>
            <g id="Grupo_1173296" data-name="Grupo 1173296" transform="translate(4.494 7.51)">
              <g id="Grupo_1173295" data-name="Grupo 1173295">
                <path id="Trazado_1039187" data-name="Trazado 1039187" d="M197.264,219.168a3.089,3.089,0,0,1,2.743-1.012,5.272,5.272,0,0,1,2.763,1.354c.2.176-.1.462-.3.288a4.784,4.784,0,0,0-2.475-1.223,2.7,2.7,0,0,0-2.439.9c-.171.208-.457-.1-.288-.3Z" transform="translate(-197.212 -218.132)" fill="#2f383c"/>
              </g>
            </g>
          </g>
          <g id="Grupo_1173299" data-name="Grupo 1173299" transform="translate(25.129 42.194)">
            <g id="Grupo_1173298" data-name="Grupo 1173298">
              <path id="Trazado_1039188" data-name="Trazado 1039188" d="M263.058,266.148h0c4.344-1.009,8.634-5.658,6.038-9.693l-15.469-21.692L237.9,238.418l15.469,21.692C256.608,264.658,258.714,267.158,263.058,266.148Z" transform="translate(-237.896 -234.763)" fill="#f5ba9c"/>
            </g>
          </g>
          <g id="Grupo_1173301" data-name="Grupo 1173301" transform="translate(30.871 44.642)">
            <g id="Grupo_1173300" data-name="Grupo 1173300">
              <path id="Trazado_1039189" data-name="Trazado 1039189" d="M261.046,239.59s-1.836,8.187-11.829,9.194l3.969,5.631a36.554,36.554,0,0,0,9.968-11.8Z" transform="translate(-249.217 -239.59)" fill="#ec766e"/>
            </g>
          </g>
          <g id="Grupo_1173303" data-name="Grupo 1173303" transform="translate(5.168 0)">
            <g id="Grupo_1173302" data-name="Grupo 1173302">
              <path id="Trazado_1039190" data-name="Trazado 1039190" d="M229.067,154.26a16.631,16.631,0,0,1,11.121,12.051h0c3.593,15.462.289,35.681-12.69,38.7-13.986,3.25-24.86-13.674-28.452-29.136l-.026-.115a18.655,18.655,0,0,1,3.565-15.792l1.284-1.617a17.9,17.9,0,0,1,19.479-5.918Z" transform="translate(-198.542 -151.574)" fill="#f5ba9c"/>
            </g>
          </g>
          <g id="Grupo_1173306" data-name="Grupo 1173306" transform="translate(23.569 26.271)">
            <g id="Grupo_1173305" data-name="Grupo 1173305" transform="translate(0)">
              <g id="Grupo_1173304" data-name="Grupo 1173304">
                <path id="Trazado_1039191" data-name="Trazado 1039191" d="M239.121,203.621a1.37,1.37,0,0,1-1.09,1.713,8.145,8.145,0,0,0-1.318.115,1.826,1.826,0,0,0-.834.6,1.572,1.572,0,0,0-.11,1.91,1.718,1.718,0,0,0,1.836.645c.436-.145.756-.429,1.244-.29a1.131,1.131,0,0,1,.807.926c.051.434-.617.594-.669.156a.466.466,0,0,0-.247-.39.527.527,0,0,0-.513.066,2.324,2.324,0,0,1-1.07.286,2.458,2.458,0,0,1-1.891-.933,2.385,2.385,0,0,1,1.184-3.612,5.476,5.476,0,0,1,1.373-.147.688.688,0,0,0,.629-.894c-.122-.425.548-.58.669-.155Z" transform="translate(-234.819 -203.369)" fill="#ec766e"/>
              </g>
            </g>
          </g>
          <g id="Grupo_1173309" data-name="Grupo 1173309" transform="translate(31.361 37.522)">
            <g id="Grupo_1173308" data-name="Grupo 1173308" transform="translate(0)">
              <g id="Grupo_1173307" data-name="Grupo 1173307">
                <path id="Trazado_1039192" data-name="Trazado 1039192" d="M252.179,225.609a1.519,1.519,0,0,1,.521.785,1.566,1.566,0,0,1-.021.9,1.466,1.466,0,0,1-1.433.974,1.5,1.5,0,0,1-.97-.377.345.345,0,0,1,.014-.485.353.353,0,0,1,.486.014c.046.04-.054-.036.016.011.02.013.039.027.06.039l.073.041c.009,0,.045.018,0,0s.006,0,.015.005a1.512,1.512,0,0,0,.148.046l.035.008c.044.014-.064-.006-.017,0,.028,0,.055.007.083.01.052,0,.1,0,.156,0,.081,0-.046.01.016,0,.027,0,.055-.008.083-.014a1.522,1.522,0,0,0,.15-.04c.06-.018-.066.031.014-.006l.075-.036c.024-.013.049-.027.072-.042s.065-.054.032-.021.025-.022.038-.033.041-.038.06-.058.021-.024.032-.036c.028-.028-.019.022-.018.021s.034-.047.042-.059.029-.047.043-.072l.017-.031c.023-.044,0,.009-.007.015.025-.017.042-.116.05-.146a.253.253,0,0,0,.019-.081s-.008.068-.006.029c0-.016,0-.032.006-.048a1.216,1.216,0,0,0,.006-.155c0-.02-.014-.1,0-.05s-.006-.033-.009-.049a1.448,1.448,0,0,0-.048-.185c-.005-.016-.023-.035,0,0s0,0-.007-.012c-.014-.028-.027-.057-.043-.085s-.029-.047-.043-.072-.006-.037.012.014a.17.17,0,0,0-.029-.038c-.018-.021-.036-.042-.055-.062s-.1-.092-.029-.033a.377.377,0,0,1-.153-.214.344.344,0,0,1,.516-.37Z" transform="translate(-250.183 -225.553)" fill="#ec766e"/>
              </g>
            </g>
          </g>
          <g id="Grupo_1173310" data-name="Grupo 1173310" transform="translate(33.024 20.576)">
            <path id="Trazado_1039193" data-name="Trazado 1039193" d="M253.545,194.63c.273,1.176,1.138,1.98,1.931,1.8s1.215-1.287.942-2.463-1.138-1.98-1.931-1.8S253.272,193.454,253.545,194.63Z" transform="translate(-253.462 -192.141)" fill="#2f383c"/>
          </g>
          <g id="Grupo_1173311" data-name="Grupo 1173311" transform="translate(14.572 25.278)">
            <path id="Trazado_1039194" data-name="Trazado 1039194" d="M217.166,203.9c.273,1.176,1.138,1.98,1.931,1.8s1.215-1.287.942-2.463-1.138-1.98-1.931-1.8S216.893,202.725,217.166,203.9Z" transform="translate(-217.083 -201.412)" fill="#2f383c"/>
          </g>
          <g id="Grupo_1173312" data-name="Grupo 1173312" transform="translate(28.484 11.892)">
            <path id="Trazado_1039195" data-name="Trazado 1039195" d="M255.534,177.705s-5.691-5.635-11.023-.581Z" transform="translate(-244.511 -175.02)" fill="#2f383c"/>
          </g>
          <g id="Grupo_1173313" data-name="Grupo 1173313" transform="translate(8.762 15.944)">
            <path id="Trazado_1039196" data-name="Trazado 1039196" d="M205.627,188.786s2.623-7.567,9.637-5.381Z" transform="translate(-205.627 -183.009)" fill="#2f383c"/>
          </g>
          <g id="Grupo_1173322" data-name="Grupo 1173322" transform="translate(13.863 30.969)">
            <g id="Grupo_1173315" data-name="Grupo 1173315" transform="translate(0)">
              <g id="Grupo_1173314" data-name="Grupo 1173314">
                <path id="Trazado_1039197" data-name="Trazado 1039197" d="M215.811,218.55a4.824,4.824,0,1,0,3.607-5.79A4.824,4.824,0,0,0,215.811,218.55Z" transform="translate(-215.685 -212.633)" fill="#ef9780"/>
              </g>
            </g>
            <g id="Grupo_1173317" data-name="Grupo 1173317" transform="translate(2.088 0.555)">
              <g id="Grupo_1173316" data-name="Grupo 1173316">
                <path id="Trazado_1039198" data-name="Trazado 1039198" d="M223.885,216.78l-3.989-2.66c-.224-.15,0-.506.222-.356l3.989,2.66c.224.149,0,.505-.222.356Z" transform="translate(-219.802 -213.728)" fill="#2f383c"/>
              </g>
            </g>
            <g id="Grupo_1173319" data-name="Grupo 1173319" transform="translate(2.032 2.988)">
              <g id="Grupo_1173318" data-name="Grupo 1173318">
                <path id="Trazado_1039199" data-name="Trazado 1039199" d="M222.109,220.151l-2.32-1.243a.211.211,0,0,1-.067-.289.213.213,0,0,1,.289-.067l2.32,1.244a.211.211,0,0,1,.067.289.214.214,0,0,1-.289.066Z" transform="translate(-219.692 -218.523)" fill="#2f383c"/>
              </g>
            </g>
            <g id="Grupo_1173321" data-name="Grupo 1173321" transform="translate(1.471 4.47)">
              <g id="Grupo_1173320" data-name="Grupo 1173320">
                <path id="Trazado_1039200" data-name="Trazado 1039200" d="M220,222.651l-1.312-.817a.21.21,0,0,1,.222-.356l1.312.817a.209.209,0,0,1-.222.356Z" transform="translate(-218.586 -221.447)" fill="#2f383c"/>
              </g>
            </g>
          </g>
          <g id="Grupo_1173332" data-name="Grupo 1173332" transform="translate(34.012 24.741)">
            <g id="Grupo_1173324" data-name="Grupo 1173324">
              <g id="Grupo_1173323" data-name="Grupo 1173323">
                <path id="Trazado_1039201" data-name="Trazado 1039201" d="M255.536,206.27a4.824,4.824,0,1,0,3.607-5.79A4.824,4.824,0,0,0,255.536,206.27Z" transform="translate(-255.41 -200.353)" fill="#ef9780"/>
              </g>
            </g>
            <g id="Grupo_1173331" data-name="Grupo 1173331" transform="translate(0.724 2.133)">
              <g id="Grupo_1173326" data-name="Grupo 1173326" transform="translate(0 1.299)">
                <g id="Grupo_1173325" data-name="Grupo 1173325">
                  <path id="Trazado_1039202" data-name="Trazado 1039202" d="M261.384,210.3a22.873,22.873,0,0,0-4.441-2.8c-.243-.117-.019-.472.222-.356a22.854,22.854,0,0,1,4.441,2.8c.207.167-.012.524-.222.356Z" transform="translate(-256.838 -207.119)" fill="#2f383c"/>
                </g>
              </g>
              <g id="Grupo_1173328" data-name="Grupo 1173328" transform="translate(2.556 0.704)">
                <g id="Grupo_1173327" data-name="Grupo 1173327">
                  <path id="Trazado_1039203" data-name="Trazado 1039203" d="M264.175,208.067l-2.2-1.733a.216.216,0,0,1-.067-.289.211.211,0,0,1,.289-.067l2.2,1.733a.216.216,0,0,1,.067.289.211.211,0,0,1-.289.067Z" transform="translate(-261.878 -205.945)" fill="#2f383c"/>
                </g>
              </g>
              <g id="Grupo_1173330" data-name="Grupo 1173330" transform="translate(4.63)">
                <g id="Grupo_1173329" data-name="Grupo 1173329">
                  <path id="Trazado_1039204" data-name="Trazado 1039204" d="M266.964,205.847a2.038,2.038,0,0,1-.976-.982.209.209,0,0,1,.368-.2,1.8,1.8,0,0,0,.157.276c.006.008.03.041,0,.005l.021.027.048.06c.035.042.072.082.11.12s.075.071.114.1c.016.014.013.01,0,0l.034.026.062.046a1.878,1.878,0,0,0,.283.162.21.21,0,0,1,.067.289.218.218,0,0,1-.289.066Z" transform="translate(-265.966 -204.558)" fill="#2f383c"/>
                </g>
              </g>
            </g>
          </g>
          <g id="Grupo_1173333" data-name="Grupo 1173333" transform="translate(32.644 24.295)">
            <path id="Trazado_1039205" data-name="Trazado 1039205" d="M252.712,200.813a5.027,5.027,0,0,1,4.745-1.1Z" transform="translate(-252.712 -199.475)" fill="#2f383c"/>
          </g>
          <g id="Grupo_1173334" data-name="Grupo 1173334" transform="translate(14.124 29.12)">
            <path id="Trazado_1039206" data-name="Trazado 1039206" d="M216.2,210.326a5.027,5.027,0,0,1,4.745-1.1Z" transform="translate(-216.199 -208.988)" fill="#2f383c"/>
          </g>
          <path id="Trazado_1039207" data-name="Trazado 1039207" d="M241.5,219.648a10.181,10.181,0,0,0,1.975-1.237,4.206,4.206,0,0,1,.939-.658,1.086,1.086,0,0,1,1.093.071,1.352,1.352,0,0,1,.406.889,3.384,3.384,0,0,1-.33,2.147,3.915,3.915,0,0,1-2.937,1.691,3.246,3.246,0,0,1-1.832-.167c-.767-.359-1.373-1.5-.549-2.129a3.109,3.109,0,0,1,.693-.359C241.143,219.817,241.324,219.735,241.5,219.648Z" transform="translate(-213.741 -184.132)" fill="#2f383c"/>
          <g id="Grupo_1173341" data-name="Grupo 1173341" transform="translate(44.644 12.983)">
            <g id="Grupo_1173335" data-name="Grupo 1173335">
              <path id="Trazado_1039208" data-name="Trazado 1039208" d="M288.028,185.172c-.761,3.709-3.951,6.188-7.124,5.537s-5.128-4.186-4.367-7.9,3.951-6.188,7.124-5.537S288.789,181.463,288.028,185.172Z" transform="translate(-276.372 -177.172)" fill="#f5ba9c"/>
            </g>
            <g id="Grupo_1173336" data-name="Grupo 1173336" transform="translate(1.329 4.18)">
              <path id="Trazado_1039209" data-name="Trazado 1039209" d="M285.8,190.086a3.467,3.467,0,1,1-2.55-4.61A3.748,3.748,0,0,1,285.8,190.086Z" transform="translate(-278.992 -185.414)" fill="#ec766e"/>
            </g>
            <g id="Grupo_1173338" data-name="Grupo 1173338" transform="translate(3.925 4.123)">
              <g id="Grupo_1173337" data-name="Grupo 1173337">
                <path id="Trazado_1039210" data-name="Trazado 1039210" d="M284.223,185.545a2.941,2.941,0,0,1,2.762.231,3.45,3.45,0,0,1,1.592,2.577c.244,2.079-1.093,4.8-3.38,5.026-.265.026-.363-.382-.095-.408,2-.2,3.185-2.51,3.081-4.345a3.091,3.091,0,0,0-1.245-2.379,2.557,2.557,0,0,0-2.515-.334c-.245.111-.446-.257-.2-.368Z" transform="translate(-284.111 -185.301)" fill="#2f383c"/>
              </g>
            </g>
            <g id="Grupo_1173340" data-name="Grupo 1173340" transform="translate(3.536 7.662)">
              <g id="Grupo_1173339" data-name="Grupo 1173339">
                <path id="Trazado_1039211" data-name="Trazado 1039211" d="M288.029,192.917a2.7,2.7,0,0,0-2.585.269,4.779,4.779,0,0,0-1.682,2.189c-.105.245-.506.124-.4-.124a5.271,5.271,0,0,1,1.883-2.434,3.089,3.089,0,0,1,2.909-.3c.241.111.121.512-.124.4Z" transform="translate(-283.344 -192.279)" fill="#2f383c"/>
              </g>
            </g>
          </g>
        </g>
        <path id="Trazado_1039212" data-name="Trazado 1039212" d="M200.692,422.52c-9.134-9.01-14.308-21.309-17.621-33.7s-4.989-25.185-8.372-37.561c-3.729-13.639-9.506-26.672-12.877-40.4s-4.16-28.764,1.884-41.547c-4.838,3.829-9.805,7.788-13.713,12.562a39.13,39.13,0,0,1-3.735,4.232,31.919,31.919,0,0,1-7.46,4.635c-11.706,5.855-23.7,11.8-36.684,13.441a4.079,4.079,0,0,0-4.138-5.3c-2.194.318-4.242-3.3-4.959-5.4a241.912,241.912,0,0,1-9.85-39.243c-6.269,6.979-19.273,4.615-26.18,10.963.228,19.838,3.033,40.087,11.282,58.13,2.91,6.366,6.61,12.851,12.744,16.223,6.313,3.472,14.008,3,21.131,1.906a149.1,149.1,0,0,0,30.715-8.127c4.624-1.77,10.86-3.336,13.692.724a8.324,8.324,0,0,1,1.242,3.433c.757,4.555-.269,9.246.308,13.827,1.132,8.974,8.1,16.061,11.1,24.6,2.212,6.309,2.172,13.186,3.87,19.652C167.274,411.579,184.13,422.717,200.692,422.52Z" transform="translate(-56.987 -192.005)" fill="#f4b25b"/>
        <path id="Trazado_1039213" data-name="Trazado 1039213" d="M371.985,333.065c-12.138-4.165-19.842-15.958-25.5-27.479S335.95,281.569,326.2,273.22c-10.8-9.247-25.815-11.867-37.614-19.794,8.4-6.972,19.658-11.453,30.427-9.652,15.651,2.617,27.935,14.473,42.245,21.329,2.418,1.159,4.966,2.22,6.858,4.12,3.115,3.127,3.836,7.851,4.321,12.238C374.349,298.738,372.434,315.689,371.985,333.065Z" transform="translate(-171.12 -186.654)" fill="#f4b25b"/>
        <path id="Trazado_1039214" data-name="Trazado 1039214" d="M253.025,278.662l-5.52-7.735s-11.877,20.524-11.347,23.038,4.919,5.689,4.919,5.689Z" transform="translate(-145.273 -200.232)" fill="#f4b25b"/>
        <path id="Trazado_1039215" data-name="Trazado 1039215" d="M281.857,250.262l4.351,6.107,12.9-3.671v-5.168Z" transform="translate(-167.802 -188.703)" fill="#f4b25b"/>
        <g id="Grupo_1173343" data-name="Grupo 1173343" transform="translate(35.075 33.483)">
          <path id="Trazado_1039216" data-name="Trazado 1039216" d="M142.38,197.564l-8.367,1.02c-2.4.293-5.117.8-7.307-.531a.381.381,0,0,0-.384.657c2.18,1.327,4.789.988,7.2.694l8.859-1.08c.48-.058.486-.82,0-.761Z" transform="translate(-126.141 -197.561)" fill="#2f383c"/>
        </g>
        <g id="Grupo_1173344" data-name="Grupo 1173344" transform="translate(37.031 29.812)">
          <path id="Trazado_1039217" data-name="Trazado 1039217" d="M151.823,190.323l-11.013.627c-1.787.1-3.575.233-5.364.295a12.055,12.055,0,0,1-4.992-.665c-.454-.183-.651.553-.2.733a12.092,12.092,0,0,0,4.852.7c1.819-.044,3.639-.187,5.455-.291l11.264-.642c.486-.027.49-.788,0-.76Z" transform="translate(-129.997 -190.323)" fill="#2f383c"/>
        </g>
        <g id="Grupo_1173345" data-name="Grupo 1173345" transform="translate(31.899 110.511)">
          <path id="Trazado_1039218" data-name="Trazado 1039218" d="M120.524,354.888l3.911-4.811a.392.392,0,0,0,0-.538.383.383,0,0,0-.538,0l-3.911,4.811a.392.392,0,0,0,0,.538.383.383,0,0,0,.538,0Z" transform="translate(-119.879 -349.428)" fill="#2f383c"/>
        </g>
        <g id="Grupo_1173346" data-name="Grupo 1173346" transform="translate(40.21 113.326)">
          <path id="Trazado_1039219" data-name="Trazado 1039219" d="M136.969,357.133l.794-1.588a.38.38,0,0,0-.657-.384l-.794,1.588a.38.38,0,0,0,.657.384Z" transform="translate(-136.266 -354.977)" fill="#2f383c"/>
        </g>
        <g id="Grupo_1173347" data-name="Grupo 1173347" transform="translate(91.33 84.416)">
          <path id="Trazado_1039220" data-name="Trazado 1039220" d="M240.04,298.14c-4.491,5.894-3.107,14.016-1.089,20.579A132.882,132.882,0,0,0,249.095,342.1c2.3,4.3,4.717,8.531,7.138,12.761a.381.381,0,0,0,.657-.384c-4.143-7.234-8.29-14.484-11.8-22.054a113.786,113.786,0,0,1-4.733-11.8,44.633,44.633,0,0,1-2.47-10.886c-.282-3.956.352-8,2.806-11.218.3-.389-.364-.768-.657-.383Z" transform="translate(-237.053 -297.98)" fill="#2f383c"/>
        </g>
        <g id="Grupo_1173348" data-name="Grupo 1173348" transform="translate(129.02 58.65)">
          <path id="Trazado_1039221" data-name="Trazado 1039221" d="M311.637,247.917c11.24,1.749,20.329,9.649,25.785,19.339a55.2,55.2,0,0,1,3.921,8.715c.162.458.9.261.733-.2-3.792-10.741-10.784-20.694-21.257-25.753a31.969,31.969,0,0,0-8.981-2.832c-.478-.075-.685.658-.2.733Z" transform="translate(-311.362 -247.178)" fill="#2f383c"/>
        </g>
        <g id="Grupo_1173349" data-name="Grupo 1173349" transform="translate(108.906 154.238)">
          <path id="Trazado_1039222" data-name="Trazado 1039222" d="M271.982,436.736a2.82,2.82,0,0,0,2.287-.385.38.38,0,0,0-.384-.657,2.477,2.477,0,0,1-.222.137c-.038.021-.077.04-.116.059s-.091.039-.028.014a2.527,2.527,0,0,1-.485.14c-.019,0-.136.019-.044.008-.043.005-.087.009-.13.012-.081.006-.163.007-.244,0l-.114-.007c-.018,0-.155-.021-.061-.006-.086-.014-.171-.031-.255-.054a.38.38,0,0,0-.2.733Z" transform="translate(-271.706 -435.639)" fill="#2f383c"/>
        </g>
        <g id="Grupo_1173350" data-name="Grupo 1173350" transform="translate(110.906 163.781)">
          <path id="Trazado_1039223" data-name="Trazado 1039223" d="M276.121,456.022l3.169-.821a.381.381,0,0,0-.2-.733l-3.168.821a.381.381,0,0,0,.2.733Z" transform="translate(-275.648 -454.454)" fill="#2f383c"/>
        </g>
        <g id="Grupo_1173351" data-name="Grupo 1173351" transform="translate(114.888 176.492)">
          <path id="Trazado_1039224" data-name="Trazado 1039224" d="M284.071,481.442l2.366-1.221a.383.383,0,0,0,.136-.52.389.389,0,0,0-.52-.136l-2.366,1.221a.383.383,0,0,0-.136.52.389.389,0,0,0,.52.136Z" transform="translate(-283.499 -479.516)" fill="#2f383c"/>
        </g>
        <g id="Grupo_1173352" data-name="Grupo 1173352" transform="translate(118.819 192.721)">
          <path id="Trazado_1039225" data-name="Trazado 1039225" d="M291.63,512.272h1.191a.38.38,0,1,0,0-.761H291.63a.38.38,0,1,0,0,.761Z" transform="translate(-291.249 -511.511)" fill="#2f383c"/>
        </g>
        <g id="Grupo_1173353" data-name="Grupo 1173353" transform="translate(88.682 121.287)">
          <path id="Trazado_1039226" data-name="Trazado 1039226" d="M232.594,383.744a78.486,78.486,0,0,0,.323-12.7c-.027-.487-.788-.49-.761,0a78.541,78.541,0,0,1-.323,12.7c-.052.486.709.482.761,0Z" transform="translate(-231.831 -370.674)" fill="#2f383c"/>
        </g>
        <g id="Grupo_1173354" data-name="Grupo 1173354" transform="translate(87.837 114.918)">
          <path id="Trazado_1039227" data-name="Trazado 1039227" d="M230.912,360.182l.4-1.588a.381.381,0,0,0-.734-.2l-.4,1.588a.381.381,0,0,0,.734.2Z" transform="translate(-230.167 -358.115)" fill="#2f383c"/>
        </g>
        <g id="Grupo_1173355" data-name="Grupo 1173355" transform="translate(158.581 64.384)">
          <path id="Trazado_1039228" data-name="Trazado 1039228" d="M369.832,259.19A67.814,67.814,0,0,1,382.69,268.1c.366.323.906-.214.538-.538a68.646,68.646,0,0,0-13.013-9.028c-.432-.231-.817.426-.384.657Z" transform="translate(-369.642 -258.484)" fill="#2f383c"/>
        </g>
        <g id="Grupo_1173364" data-name="Grupo 1173364" transform="translate(135.324 131.279)">
          <path id="Trazado_1039237" data-name="Trazado 1039237" d="M324.156,397.672a87.079,87.079,0,0,0,27.944-6.535c.445-.186.25-.923-.2-.733a86.453,86.453,0,0,1-27.742,6.508c-.486.031-.489.792,0,.76Z" transform="translate(-323.79 -390.373)" fill="#98dce9"/>
        </g>
        <g id="Grupo_1173365" data-name="Grupo 1173365" transform="translate(154.346 138.684)">
          <path id="Trazado_1039238" data-name="Trazado 1039238" d="M361.762,408.111l7.739-2.386c.467-.144.267-.878-.2-.733l-7.739,2.386c-.467.144-.267.879.2.733Z" transform="translate(-361.294 -404.973)" fill="#98dce9"/>
        </g>
        <g id="Grupo_1173366" data-name="Grupo 1173366" transform="translate(76.285 2.367)">
          <path id="Trazado_1039239" data-name="Trazado 1039239" d="M207.413,136.528a3.356,3.356,0,0,0,1.163.327c.45.086.9.149,1.347.256a12.884,12.884,0,0,1,4.914,2.364c.735.576,1.346,1.283,2.119,1.81.327.223.656-.2.5-.5a6.037,6.037,0,0,0-2.027-2.053,13.758,13.758,0,0,0-5.324-2.292,4.262,4.262,0,0,0-2.7.01.048.048,0,0,0,0,.082Z" transform="translate(-207.39 -136.212)" fill="#272e41"/>
        </g>
        <g id="Grupo_1173367" data-name="Grupo 1173367" transform="translate(84.692)">
          <path id="Trazado_1039240" data-name="Trazado 1039240" d="M228.993,131.563a10.113,10.113,0,0,0-3.766,4.066,11.92,11.92,0,0,0-.995,2.632,9.674,9.674,0,0,0-.238,1.4,2.447,2.447,0,0,0,.158,1.4.385.385,0,0,0,.657,0,3.128,3.128,0,0,0,.229-1.186c.056-.448.095-.895.178-1.34a10.972,10.972,0,0,1,.791-2.529,12.854,12.854,0,0,1,3.145-4.234c.112-.1-.032-.282-.158-.205Z" transform="translate(-223.966 -131.545)" fill="#272e41"/>
        </g>
      </g>
    </g>
    <g id="Grupo_1173522" data-name="Grupo 1173522" transform="translate(197.532 30.52)">
      <path id="Trazado_1039357" data-name="Trazado 1039357" d="M408.137,152.227c-1.856.088-2.952,2.5-2.192,4.2a4.935,4.935,0,0,0,4.613,2.543c-2.418.845-2.982,4.315-1.634,6.493s3.893,3.282,6.348,4.016a12.8,12.8,0,0,0,6.186.617,5.535,5.535,0,0,0,4.428-3.948c.424-2.051-1.215-4.439-3.305-4.317a5.626,5.626,0,0,0,4-1.134,5.7,5.7,0,0,0,2.533-4.788,3.778,3.778,0,0,0-3.645-3.57,3.622,3.622,0,1,0,.371-7.1,4.084,4.084,0,0,0,4.368-3.6,7.271,7.271,0,0,0-.873-4.005,9.6,9.6,0,0,0-5.53-4.4c-4.671-1.605-10.926-.928-14.485,2.754-2.006,2.075-3.847,6.952-.543,8.757C404.514,145.061,403.788,151.365,408.137,152.227Z" transform="translate(-405.208 -132.416)" fill="#f5ba9c"/>
      <g id="Grupo_1173515" data-name="Grupo 1173515" transform="translate(4.003 11.304)">
        <path id="Trazado_1039358" data-name="Trazado 1039358" d="M431.583,156.027a99.818,99.818,0,0,0-18.116-1.3.381.381,0,0,0,0,.761,98.686,98.686,0,0,1,17.914,1.277c.479.079.685-.654.2-.733Z" transform="translate(-413.099 -154.704)" fill="#2f383c"/>
      </g>
      <g id="Grupo_1173516" data-name="Grupo 1173516" transform="translate(2.698 18.679)">
        <path id="Trazado_1039359" data-name="Trazado 1039359" d="M430.459,170.313q-9.8-.072-19.568-1.068c-.486-.05-.483.712,0,.761q9.754,1,19.568,1.068a.381.381,0,0,0,0-.761Z" transform="translate(-410.527 -169.243)" fill="#2f383c"/>
      </g>
      <g id="Grupo_1173517" data-name="Grupo 1173517" transform="translate(4.271 26.464)">
        <path id="Trazado_1039360" data-name="Trazado 1039360" d="M428.326,186.61c-2.416-.227-4.833-.447-7.248-.681a30.046,30.046,0,0,1-6.987-1.314c-.464-.16-.663.574-.2.734a30.179,30.179,0,0,0,6.953,1.318c2.493.246,4.989.47,7.484.7.487.046.484-.715,0-.761Z" transform="translate(-413.628 -184.592)" fill="#2f383c"/>
      </g>
      <g id="Grupo_1173518" data-name="Grupo 1173518" transform="translate(15.352 32.653)">
        <path id="Trazado_1039361" data-name="Trazado 1039361" d="M436.395,201.451a2.325,2.325,0,0,1,.782-2.647,7.135,7.135,0,0,1,3.33-1.266c.479-.1.276-.833-.2-.733A7.33,7.33,0,0,0,436.5,198.4a3.025,3.025,0,0,0-.759,3.437c.219.438.875.053.657-.384Z" transform="translate(-435.474 -196.795)" fill="#2f383c"/>
      </g>
      <g id="Grupo_1173519" data-name="Grupo 1173519" transform="translate(17.97 23.825)">
        <path id="Trazado_1039362" data-name="Trazado 1039362" d="M441.5,183.385a2.269,2.269,0,0,1,1.035-2.532,6.237,6.237,0,0,1,3.562-.7.381.381,0,0,0,0-.761,6.623,6.623,0,0,0-4.12.931,3,3,0,0,0-1.211,3.267c.163.458.9.261.734-.2Z" transform="translate(-440.636 -179.388)" fill="#2f383c"/>
      </g>
      <g id="Grupo_1173520" data-name="Grupo 1173520" transform="translate(19.47 14.826)">
        <path id="Trazado_1039363" data-name="Trazado 1039363" d="M444.382,165.932a3.038,3.038,0,0,1,4.282-3.259.391.391,0,0,0,.52-.136.383.383,0,0,0-.136-.52,3.8,3.8,0,0,0-5.4,4.118c.081.482.815.277.733-.2Z" transform="translate(-443.594 -161.648)" fill="#2f383c"/>
      </g>
      <g id="Grupo_1173521" data-name="Grupo 1173521" transform="translate(19.245 6.416)">
        <path id="Trazado_1039364" data-name="Trazado 1039364" d="M443.935,150.721a4.057,4.057,0,0,1,2.139-3.9,3.928,3.928,0,0,1,2.2-.442c.622.031,1.547-.063,1.657-.836a.394.394,0,0,0-.266-.468.383.383,0,0,0-.468.266c-.042.294-.429.28-.667.284-.371,0-.734-.048-1.106-.01a4.563,4.563,0,0,0-2.236.87,4.749,4.749,0,0,0-2.019,4.234c.053.481.815.486.761,0Z" transform="translate(-443.15 -145.066)" fill="#2f383c"/>
      </g>
    </g>
  </g>
</svg>
