<svg xmlns="http://www.w3.org/2000/svg" xmlns:xlink="http://www.w3.org/1999/xlink" width="110" height="110" viewBox="0 0 110 110">
  <defs>
    <filter id="Trazado_982547" x="0" y="0" width="110" height="110" filterUnits="userSpaceOnUse">
      <feOffset dy="3" input="SourceAlpha"/>
      <feGaussianBlur stdDeviation="3" result="blur"/>
      <feFlood flood-opacity="0.161"/>
      <feComposite operator="in" in2="blur"/>
      <feComposite in="SourceGraphic"/>
    </filter>
  </defs>
  <g id="Grupo_1185076" data-name="Grupo 1185076" transform="translate(-692.402 -3845.67)">
    <g id="Grupo_1183626" data-name="Grupo 1183626" transform="translate(701.402 3851.67)">
      <g id="Grupo_1179602" data-name="Grupo 1179602" transform="translate(0 0)">
        <g id="Grupo_1171898" data-name="Grupo 1171898">
          <g id="Grupo_1164700" data-name="Grupo 1164700">
            <g id="Grupo_1160931" data-name="Grupo 1160931" transform="translate(0 0)">
              <g id="Grupo_1160749" data-name="Grupo 1160749">
                <g id="Grupo_1158891" data-name="Grupo 1158891">
                  <g id="Grupo_1157406" data-name="Grupo 1157406">
                    <g id="Grupo_1155793" data-name="Grupo 1155793">
                      <g id="Grupo_1154704" data-name="Grupo 1154704">
                        <g id="Grupo_1150790" data-name="Grupo 1150790">
                          <g id="Grupo_1154214" data-name="Grupo 1154214">
                            <g id="Grupo_1152583" data-name="Grupo 1152583">
                              <g id="Grupo_1146973" data-name="Grupo 1146973">
                                <g id="Grupo_1146954" data-name="Grupo 1146954">
                                  <g transform="matrix(1, 0, 0, 1, -9, -6)" filter="url(#Trazado_982547)">
                                    <g id="Trazado_982547-2" data-name="Trazado 982547" transform="translate(9 6)" fill="#effbfe">
                                      <path d="M 46.00000381469727 90.49986267089844 C 39.99188232421875 90.49986267089844 34.16428375244141 89.32350158691406 28.67905807495117 87.00344848632812 C 23.38021659851074 84.76223754882812 18.62104415893555 81.55341339111328 14.53376388549805 77.46613311767578 C 10.44647026062012 73.37885284423828 7.237643718719482 68.61968994140625 4.996417045593262 63.32085037231445 C 2.676363706588745 57.83565139770508 1.500003814697266 52.00805282592773 1.500003814697266 45.99993133544922 C 1.500003814697266 39.99182510375977 2.676363706588745 34.16422653198242 4.996417045593262 28.67901039123535 C 7.237643718719482 23.38017082214355 10.44647026062012 18.62101173400879 14.53376388549805 14.53373146057129 C 18.62104415893555 10.44645118713379 23.38021659851074 7.237624645233154 28.67905807495117 4.996411323547363 C 34.16428375244141 2.676357984542847 39.99188232421875 1.499997973442078 46.00000381469727 1.499997973442078 C 52.00812530517578 1.499997973442078 57.83573532104492 2.676357984542847 63.32094955444336 4.996411323547363 C 68.61980438232422 7.237624645233154 73.37896728515625 10.44645118713379 77.46625518798828 14.53373146057129 C 81.55353546142578 18.62101173400879 84.76236724853516 23.38017082214355 87.00359344482422 28.67901039123535 C 89.32364654541016 34.16422653198242 90.5 39.99182510375977 90.5 45.99993133544922 C 90.5 52.00805282592773 89.32364654541016 57.83565139770508 87.00359344482422 63.32085037231445 C 84.76236724853516 68.61968994140625 81.55353546142578 73.37885284423828 77.46625518798828 77.46613311767578 C 73.37896728515625 81.55341339111328 68.61980438232422 84.76223754882812 63.32094955444336 87.00344848632812 C 57.83573532104492 89.32350158691406 52.00812530517578 90.49986267089844 46.00000381469727 90.49986267089844 Z" stroke="none"/>
                                      <path d="M 46.00000381469727 3 C 40.19371795654297 3 34.56270217895508 4.136505126953125 29.26338958740234 6.377914428710938 C 24.14333343505859 8.54351806640625 19.54443359375 11.64438629150391 15.59442138671875 15.59439086914062 C 11.64440155029297 19.54440307617188 8.543533325195312 24.14330291748047 6.3779296875 29.26334381103516 C 4.136505126953125 34.56266021728516 3.000007629394531 40.19366073608398 3.000007629394531 45.99993133544922 C 3.000007629394531 51.80620193481445 4.136505126953125 57.43720245361328 6.3779296875 62.73651885986328 C 8.543533325195312 67.85655975341797 11.64440155029297 72.45545959472656 15.59442138671875 76.40547180175781 C 19.54443359375 80.35547637939453 24.14333343505859 83.45634460449219 29.26338958740234 85.6219482421875 C 34.56270217895508 87.86335754394531 40.19371795654297 88.99986267089844 46.00000381469727 88.99986267089844 C 51.80628967285156 88.99986267089844 57.43730545043945 87.86335754394531 62.73663330078125 85.6219482421875 C 67.85667419433594 83.45634460449219 72.45558929443359 80.35547637939453 76.40560150146484 76.40547180175781 C 80.35560607910156 72.45545959472656 83.45648956298828 67.85655975341797 85.62208557128906 62.73651885986328 C 87.86350250244141 57.43720245361328 89 51.80620193481445 89 45.99993133544922 C 89 40.19366073608398 87.86350250244141 34.56266021728516 85.62208557128906 29.26334381103516 C 83.45648956298828 24.14330291748047 80.35560607910156 19.54440307617188 76.40560150146484 15.59439086914062 C 72.45558929443359 11.64438629150391 67.85667419433594 8.54351806640625 62.73663330078125 6.377914428710938 C 57.43730545043945 4.136505126953125 51.80628967285156 3 46.00000381469727 3 M 46.00000381469727 0 C 71.40510559082031 0 92 20.59487152099609 92 45.99993133544922 C 92 71.40499114990234 71.40510559082031 91.99986267089844 46.00000381469727 91.99986267089844 C 20.59491729736328 91.99986267089844 7.62939453125e-06 71.40499114990234 7.62939453125e-06 45.99993133544922 C 7.62939453125e-06 20.59487152099609 20.59491729736328 0 46.00000381469727 0 Z" stroke="none" fill="#397b86"/>
                                    </g>
                                  </g>
                                </g>
                              </g>
                            </g>
                          </g>
                        </g>
                      </g>
                    </g>
                  </g>
                </g>
              </g>
            </g>
          </g>
        </g>
      </g>
    </g>
    <g id="paleta-de-color_2_" data-name="paleta-de-color (2)" transform="translate(696.17 3864.022)">
      <g id="Grupo_1185072" data-name="Grupo 1185072" transform="translate(23.108 6.298)">
        <path id="Trazado_1049586" data-name="Trazado 1049586" d="M76.9,98.8a27.64,27.64,0,1,1-9-45.1,3.966,3.966,0,0,1,1.306,6.473l-7.62,7.62A5.113,5.113,0,0,0,68.82,75.02L76.441,67.4A3.959,3.959,0,0,1,82.9,68.664,27.648,27.648,0,0,1,76.9,98.8Z" transform="translate(-29.69 -51.613)" fill="#f5a871"/>
        <path id="Trazado_1049587" data-name="Trazado 1049587" d="M260.492,203.977a27.574,27.574,0,0,1-21.687,8.012A27.647,27.647,0,0,0,262.2,173.845a3.883,3.883,0,0,0-1.5-1.8,3.958,3.958,0,0,1,5.793,1.8,27.649,27.649,0,0,1-6,30.132Z" transform="translate(-213.28 -156.793)" fill="#e89a5e"/>
        <g id="Grupo_1185067" data-name="Grupo 1185067" transform="translate(13.929 7.721)">
          <circle id="Elipse_12598" data-name="Elipse 12598" cx="4.859" cy="4.859" r="4.859" fill="#27d1b3"/>
          <path id="Trazado_1049588" data-name="Trazado 1049588" d="M155.636,126.7a4.86,4.86,0,0,1-7.8-1.307,4.86,4.86,0,0,0,6.5-6.5,4.86,4.86,0,0,1,1.307,7.8Z" transform="translate(-147.341 -118.4)" fill="#20b69f"/>
        </g>
        <g id="Grupo_1185068" data-name="Grupo 1185068" transform="translate(5.857 20.073)">
          <circle id="Elipse_12599" data-name="Elipse 12599" cx="4.859" cy="4.859" r="4.859" fill="#756f6f"/>
          <path id="Trazado_1049589" data-name="Trazado 1049589" d="M89.506,227.886a4.86,4.86,0,0,1-7.8-1.307,4.86,4.86,0,0,0,6.5-6.5,4.86,4.86,0,0,1,1.307,7.8Z" transform="translate(-81.211 -219.591)" fill="#5b5555"/>
        </g>
        <g id="Grupo_1185069" data-name="Grupo 1185069" transform="translate(10.439 35.15)">
          <circle id="Elipse_12600" data-name="Elipse 12600" cx="4.859" cy="4.859" r="4.859" fill="#fc9744"/>
          <path id="Trazado_1049590" data-name="Trazado 1049590" d="M127.041,351.4a4.86,4.86,0,0,1-7.8-1.307,4.86,4.86,0,0,0,6.5-6.5,4.86,4.86,0,0,1,1.307,7.8Z" transform="translate(-118.746 -343.108)" fill="#fb8627"/>
        </g>
        <g id="Grupo_1185070" data-name="Grupo 1185070" transform="translate(37.867 31.659)">
          <circle id="Elipse_12601" data-name="Elipse 12601" cx="4.859" cy="4.859" r="4.859" fill="#5169cd"/>
          <path id="Trazado_1049591" data-name="Trazado 1049591" d="M351.749,322.808a4.86,4.86,0,0,1-7.8-1.307,4.86,4.86,0,0,0,6.5-6.5,4.86,4.86,0,0,1,1.307,7.8Z" transform="translate(-343.454 -314.513)" fill="#3351c5"/>
        </g>
        <g id="Grupo_1185071" data-name="Grupo 1185071" transform="translate(25.516 39.731)">
          <circle id="Elipse_12602" data-name="Elipse 12602" cx="4.859" cy="4.859" r="4.859" fill="#fb4a59"/>
          <path id="Trazado_1049592" data-name="Trazado 1049592" d="M250.558,388.938a4.86,4.86,0,0,1-7.8-1.307,4.86,4.86,0,0,0,6.5-6.5,4.86,4.86,0,0,1,1.307,7.8Z" transform="translate(-242.263 -380.643)" fill="#f82f40"/>
        </g>
      </g>
      <g id="Grupo_1185074" data-name="Grupo 1185074" transform="translate(58.378 0.914)">
        <path id="Trazado_1049593" data-name="Trazado 1049593" d="M329.4,85.094l-4.6,4.6a5.091,5.091,0,0,1-3.529,1.5q-.013-.859-.013-1.737c0-11.668,1.843-21.126,4.116-21.126C327.356,68.328,329.011,75.519,329.4,85.094Z" transform="translate(-320.939 -60.903)" fill="#20b69f"/>
        <path id="Trazado_1049594" data-name="Trazado 1049594" d="M344.213,85.094l-4.029,4.029c-.022-7.68-.843-14.366-2.055-17.967.6-1.8,1.307-2.828,2.057-2.828C342.166,68.328,343.821,75.518,344.213,85.094Z" transform="translate(-335.749 -60.903)" fill="#17998c"/>
        <path id="Trazado_1049595" data-name="Trazado 1049595" d="M333.911,77.561c-.741-5.576-1.988-9.237-3.4-9.237s-2.661,3.661-3.4,9.237Z" transform="translate(-326.074 -60.9)" fill="#f8f3f1"/>
        <path id="Trazado_1049596" data-name="Trazado 1049596" d="M343.59,77.565h-4.117a35.789,35.789,0,0,0-1.343-6.409c.6-1.8,1.307-2.828,2.057-2.828C341.6,68.329,342.848,71.989,343.59,77.565Z" transform="translate(-335.751 -60.904)" fill="#efe2dd"/>
        <g id="Grupo_1185073" data-name="Grupo 1185073">
          <path id="Trazado_1049597" data-name="Trazado 1049597" d="M327.46,14.824a4.487,4.487,0,0,1-4.281,3.8,4.436,4.436,0,0,1-4.539-4.434c0-2.425,2.05-5,3.362-6.408a.882.882,0,0,1,1.419.18C324.541,10.005,327.972,11.634,327.46,14.824Z" transform="translate(-318.64 -7.5)" fill="#fcc16d"/>
          <path id="Trazado_1049598" data-name="Trazado 1049598" d="M342.473,14.821a4.486,4.486,0,0,1-4.28,3.8,4.621,4.621,0,0,1-.546-.02,4.547,4.547,0,0,0,1.808-2.955c.469-2.923-2.373-4.536-3.713-6.361a19.672,19.672,0,0,1,1.274-1.507.883.883,0,0,1,1.419.18C339.556,10,342.985,11.632,342.473,14.821Z" transform="translate(-333.654 -7.498)" fill="#fca62f"/>
        </g>
      </g>
      <g id="Grupo_1185075" data-name="Grupo 1185075" transform="translate(22.193 -0.002)">
        <path id="Trazado_1049599" data-name="Trazado 1049599" d="M234.312,218.391a.915.915,0,0,0-.915-.915,10.3,10.3,0,0,1-10.3-10.3.915.915,0,0,0-1.831,0A12.131,12.131,0,0,0,233.4,219.307.915.915,0,0,0,234.312,218.391Z" transform="translate(-196.966 -181.083)"/>
        <path id="Trazado_1049600" data-name="Trazado 1049600" d="M146.186,109.082a5.772,5.772,0,1,0,0,8.167A5.782,5.782,0,0,0,146.186,109.082Zm-1.295,6.872a3.942,3.942,0,1,1,0-5.578A3.948,3.948,0,0,1,144.891,115.954Z" transform="translate(-122.399 -94.285)"/>
        <path id="Trazado_1049601" data-name="Trazado 1049601" d="M80.054,218.44a5.781,5.781,0,1,0-4.084,1.689A5.781,5.781,0,0,0,80.054,218.44Zm-1.295-1.295a3.942,3.942,0,1,1,0-5.577A3.949,3.949,0,0,1,78.76,217.145Z" transform="translate(-64.339 -183.124)"/>
        <path id="Trazado_1049602" data-name="Trazado 1049602" d="M113.487,346.711a5.775,5.775,0,0,0,2.372-11.04.915.915,0,0,0-.752,1.67,3.944,3.944,0,1,1-3.506.132.915.915,0,1,0-.876-1.608,5.775,5.775,0,0,0,2.762,10.846Z" transform="translate(-97.273 -294.627)"/>
        <path id="Trazado_1049603" data-name="Trazado 1049603" d="M338.195,303.484a5.775,5.775,0,1,0,4.083,1.692A5.736,5.736,0,0,0,338.195,303.484Zm2.789,8.564a3.944,3.944,0,1,1,0-5.577A3.918,3.918,0,0,1,340.984,312.048Z" transform="translate(-294.553 -266.44)"/>
        <path id="Trazado_1049604" data-name="Trazado 1049604" d="M232.922,371.325a5.775,5.775,0,1,0,8.167,0A5.737,5.737,0,0,0,232.922,371.325Zm6.872,6.872a3.944,3.944,0,1,1,0-5.578A3.948,3.948,0,0,1,239.793,378.2Z" transform="translate(-205.715 -324.518)"/>
        <path id="Trazado_1049605" data-name="Trazado 1049605" d="M78.384,145.186a.916.916,0,0,0-.994.83,26.725,26.725,0,1,1-47.082-19.6.915.915,0,1,0-1.4-1.18,28.556,28.556,0,0,0,21.866,46.923H50.8A28.554,28.554,0,0,0,79.214,146.18.916.916,0,0,0,78.384,145.186Z" transform="translate(-22.193 -109.663)"/>
        <path id="Trazado_1049606" data-name="Trazado 1049606" d="M127.336,17.72l-4.108,4.107a6.029,6.029,0,0,0,8.526,8.526l7.62-7.621a3.012,3.012,0,0,1,2.759-.836,2.975,2.975,0,0,1,2.2,1.8,26.673,26.673,0,0,1,1.973,8.472.916.916,0,0,0,.913.855l.061,0a.915.915,0,0,0,.853-.974A28.5,28.5,0,0,0,146.028,23a4.874,4.874,0,0,0-7.948-1.562L136.518,23a56.526,56.526,0,0,0-1.611-11.146,5.458,5.458,0,0,0,2.063-3.472c.416-2.59-1.28-4.3-2.643-5.683a9.1,9.1,0,0,1-1.5-1.766,1.8,1.8,0,0,0-2.89-.365A13.656,13.656,0,0,0,126.5,6.218a28.514,28.514,0,0,0-25.55,6.133.915.915,0,1,0,1.2,1.383,26.688,26.688,0,0,1,24.2-5.665,5.3,5.3,0,0,0,1.59,3.361,5.455,5.455,0,0,0,.51.439,42.281,42.281,0,0,0-1.115,5.853Zm-2.813,5.4,2.5-2.5c-.243,2.734-.374,5.736-.374,8.843,0,.243,0,.49,0,.74a4.2,4.2,0,0,1-2.129-7.082Zm5.936,5.936a4.17,4.17,0,0,1-1.976,1.111c0-.238,0-.474,0-.705a94.041,94.041,0,0,1,.6-10.974h5.192c.231,1.919.4,4.032.5,6.25Zm3.568-12.4h-4.7a38.012,38.012,0,0,1,.786-3.938,5.366,5.366,0,0,0,1.563.232h.126a5.259,5.259,0,0,0,1.438-.235A38.431,38.431,0,0,1,134.027,16.66ZM131.245,1.852a10.663,10.663,0,0,0,1.779,2.135c1.237,1.251,2.405,2.432,2.137,4.105a3.556,3.556,0,0,1-3.4,3.029,3.52,3.52,0,0,1-3.6-3.519c0-2.114,1.918-4.5,3.084-5.749Z" transform="translate(-91.061 0.002)"/>
      </g>
    </g>
  </g>
</svg>
