<svg xmlns="http://www.w3.org/2000/svg" xmlns:xlink="http://www.w3.org/1999/xlink" width="110" height="110" viewBox="0 0 110 110">
  <defs>
    <filter id="Trazado_982547" x="0" y="0" width="110" height="110" filterUnits="userSpaceOnUse">
      <feOffset dy="3" input="SourceAlpha"/>
      <feGaussianBlur stdDeviation="3" result="blur"/>
      <feFlood flood-opacity="0.161"/>
      <feComposite operator="in" in2="blur"/>
      <feComposite in="SourceGraphic"/>
    </filter>
  </defs>
  <g id="Grupo_1185097" data-name="Grupo 1185097" transform="translate(2105 -4233.215)">
    <g id="Grupo_1183630" data-name="Grupo 1183630" transform="translate(-2096 4239.215)">
      <g id="Grupo_1179602" data-name="Grupo 1179602" transform="translate(0 0)">
        <g id="Grupo_1171898" data-name="Grupo 1171898">
          <g id="Grupo_1164700" data-name="Grupo 1164700">
            <g id="Grupo_1160931" data-name="Grupo 1160931" transform="translate(0 0)">
              <g id="Grupo_1160749" data-name="Grupo 1160749">
                <g id="Grupo_1158891" data-name="Grupo 1158891">
                  <g id="Grupo_1157406" data-name="Grupo 1157406">
                    <g id="Grupo_1155793" data-name="Grupo 1155793">
                      <g id="Grupo_1154704" data-name="Grupo 1154704">
                        <g id="Grupo_1150790" data-name="Grupo 1150790">
                          <g id="Grupo_1154214" data-name="Grupo 1154214">
                            <g id="Grupo_1152583" data-name="Grupo 1152583">
                              <g id="Grupo_1146973" data-name="Grupo 1146973">
                                <g id="Grupo_1146954" data-name="Grupo 1146954">
                                  <g transform="matrix(1, 0, 0, 1, -9, -6)" filter="url(#Trazado_982547)">
                                    <g id="Trazado_982547-2" data-name="Trazado 982547" transform="translate(9 6)" fill="#effbfe">
                                      <path d="M 46.00000381469727 90.49986267089844 C 39.99188232421875 90.49986267089844 34.16428375244141 89.32350158691406 28.67905807495117 87.00344848632812 C 23.38021659851074 84.76223754882812 18.62104415893555 81.55341339111328 14.53376388549805 77.46613311767578 C 10.44647026062012 73.37885284423828 7.237643718719482 68.61968994140625 4.996417045593262 63.32085037231445 C 2.676363706588745 57.83565139770508 1.500003814697266 52.00805282592773 1.500003814697266 45.99993133544922 C 1.500003814697266 39.99182510375977 2.676363706588745 34.16422653198242 4.996417045593262 28.67901039123535 C 7.237643718719482 23.38017082214355 10.44647026062012 18.62101173400879 14.53376388549805 14.53373146057129 C 18.62104415893555 10.44645118713379 23.38021659851074 7.237624645233154 28.67905807495117 4.996411323547363 C 34.16428375244141 2.676357984542847 39.99188232421875 1.499997973442078 46.00000381469727 1.499997973442078 C 52.00812530517578 1.499997973442078 57.83573532104492 2.676357984542847 63.32094955444336 4.996411323547363 C 68.61980438232422 7.237624645233154 73.37896728515625 10.44645118713379 77.46625518798828 14.53373146057129 C 81.55353546142578 18.62101173400879 84.76236724853516 23.38017082214355 87.00359344482422 28.67901039123535 C 89.32364654541016 34.16422653198242 90.5 39.99182510375977 90.5 45.99993133544922 C 90.5 52.00805282592773 89.32364654541016 57.83565139770508 87.00359344482422 63.32085037231445 C 84.76236724853516 68.61968994140625 81.55353546142578 73.37885284423828 77.46625518798828 77.46613311767578 C 73.37896728515625 81.55341339111328 68.61980438232422 84.76223754882812 63.32094955444336 87.00344848632812 C 57.83573532104492 89.32350158691406 52.00812530517578 90.49986267089844 46.00000381469727 90.49986267089844 Z" stroke="none"/>
                                      <path d="M 46.00000381469727 3 C 40.19371795654297 3 34.56270217895508 4.136505126953125 29.26338958740234 6.377914428710938 C 24.14333343505859 8.54351806640625 19.54443359375 11.64438629150391 15.59442138671875 15.59439086914062 C 11.64440155029297 19.54440307617188 8.543533325195312 24.14330291748047 6.3779296875 29.26334381103516 C 4.136505126953125 34.56266021728516 3.000007629394531 40.19366073608398 3.000007629394531 45.99993133544922 C 3.000007629394531 51.80620193481445 4.136505126953125 57.43720245361328 6.3779296875 62.73651885986328 C 8.543533325195312 67.85655975341797 11.64440155029297 72.45545959472656 15.59442138671875 76.40547180175781 C 19.54443359375 80.35547637939453 24.14333343505859 83.45634460449219 29.26338958740234 85.6219482421875 C 34.56270217895508 87.86335754394531 40.19371795654297 88.99986267089844 46.00000381469727 88.99986267089844 C 51.80628967285156 88.99986267089844 57.43730545043945 87.86335754394531 62.73663330078125 85.6219482421875 C 67.85667419433594 83.45634460449219 72.45558929443359 80.35547637939453 76.40560150146484 76.40547180175781 C 80.35560607910156 72.45545959472656 83.45648956298828 67.85655975341797 85.62208557128906 62.73651885986328 C 87.86350250244141 57.43720245361328 89 51.80620193481445 89 45.99993133544922 C 89 40.19366073608398 87.86350250244141 34.56266021728516 85.62208557128906 29.26334381103516 C 83.45648956298828 24.14330291748047 80.35560607910156 19.54440307617188 76.40560150146484 15.59439086914062 C 72.45558929443359 11.64438629150391 67.85667419433594 8.54351806640625 62.73663330078125 6.377914428710938 C 57.43730545043945 4.136505126953125 51.80628967285156 3 46.00000381469727 3 M 46.00000381469727 0 C 71.40510559082031 0 92 20.59487152099609 92 45.99993133544922 C 92 71.40499114990234 71.40510559082031 91.99986267089844 46.00000381469727 91.99986267089844 C 20.59491729736328 91.99986267089844 7.62939453125e-06 71.40499114990234 7.62939453125e-06 45.99993133544922 C 7.62939453125e-06 20.59487152099609 20.59491729736328 0 46.00000381469727 0 Z" stroke="none" fill="#397b86"/>
                                    </g>
                                  </g>
                                </g>
                              </g>
                            </g>
                          </g>
                        </g>
                      </g>
                    </g>
                  </g>
                </g>
              </g>
            </g>
          </g>
        </g>
      </g>
    </g>
    <g id="pintura-rupestre" transform="translate(-2078.343 4256.872)">
      <g id="Grupo_1185095" data-name="Grupo 1185095" transform="translate(1.882 1.882)">
        <g id="Grupo_1185093" data-name="Grupo 1185093">
          <path id="Trazado_1049635" data-name="Trazado 1049635" d="M54.922,25.136V42.08A12.837,12.837,0,0,1,36.338,53.564l-.9-.45a16.4,16.4,0,0,0-7.3-1.72h-2.4a16.31,16.31,0,0,0-8.1,2.152A10.454,10.454,0,0,1,2,44.47v-.026a29.711,29.711,0,0,1,.882-7.162,29.711,29.711,0,0,0,.882-7.162V20.17A18.195,18.195,0,0,1,16.395,2.864,18.357,18.357,0,0,1,21.934,2a44.124,44.124,0,0,1,24.8,7.647,18.736,18.736,0,0,1,8.185,15.489Z" transform="translate(-2 -2)" fill="#ecc19c"/>
        </g>
        <g id="Grupo_1185094" data-name="Grupo 1185094" transform="translate(5.292 7.065)">
          <path id="Trazado_1049636" data-name="Trazado 1049636" d="M23.859,24.131l-1.385,1.385a1.247,1.247,0,0,1-2.126-.882v-1.4a.882.882,0,1,0-1.764,0,3.745,3.745,0,0,1-1.358,2.893,10.969,10.969,0,0,0-3.934,8.406V34.7a1.777,1.777,0,0,1,1.764,1.764,3.528,3.528,0,1,1-7.056,0,8.083,8.083,0,0,1,.741-3.369L11.458,27.2a19.6,19.6,0,0,0,1.605-5.38,18.26,18.26,0,0,0,.229-2.946,7.828,7.828,0,0,1,2.752-5.945l.141-.115a11.621,11.621,0,0,1,7.568-2.8h.168A11.987,11.987,0,0,1,31.639,12.8h.009a58.423,58.423,0,0,0,7.6,5.389A59.735,59.735,0,0,0,47.6,22.314a7.158,7.158,0,0,1,4.5,6.642v.212a7.745,7.745,0,0,1-.326,2.2l-2.558,8.3a2.951,2.951,0,0,1-2.823,2.09H44.763a1.479,1.479,0,0,1-1.376-2.029l1.5-3.749a2.189,2.189,0,0,0,.159-.82,2.225,2.225,0,0,0-2.223-2.223H30.96A4.334,4.334,0,0,0,27.9,34.2a4.437,4.437,0,0,0-.811,1.12l-2.276,4.56a3.384,3.384,0,0,1-3.025,1.87h-1.8a1.4,1.4,0,0,1-1.4-1.4,1.516,1.516,0,0,1,.168-.679L20.5,36.48a27.7,27.7,0,0,0,3.361-12.349Z" transform="translate(-8 -10.01)" fill="#969faa"/>
        </g>
      </g>
      <g id="Grupo_1185096" data-name="Grupo 1185096" transform="translate(1 1)">
        <path id="Trazado_1049637" data-name="Trazado 1049637" d="M47.764,21.357A58.383,58.383,0,0,1,32.086,12a12.924,12.924,0,0,0-8.262-2.991h-.191A12.544,12.544,0,0,0,15.5,12.025l-.139.119a8.715,8.715,0,0,0-3.062,6.608c0,.543-.032,1.088-.079,1.631A7.315,7.315,0,0,1,8.8,16.052l-.068-.238-1.7.486.067.237a9.093,9.093,0,0,0,4.858,5.7,19.1,19.1,0,0,1-1.417,4.475l-2.724,5.9A8.97,8.97,0,0,0,7,36.344a4.41,4.41,0,0,0,8.82,0,2.642,2.642,0,0,0-1.734-2.474,10.02,10.02,0,0,1,3.59-7.185,4.636,4.636,0,0,0,1.672-3.571v1.4a2.126,2.126,0,0,0,3.329,1.756,26.92,26.92,0,0,1-3.072,9.673l-1.743,3.2a2.288,2.288,0,0,0,2.01,3.381h1.8a4.238,4.238,0,0,0,3.812-2.356L27.761,35.6a3.475,3.475,0,0,1,.645-.9,3.423,3.423,0,0,1,2.437-1.01H42.709a1.338,1.338,0,0,1,1.242,1.834l-1.5,3.75a2.334,2.334,0,0,0-.169.876,2.364,2.364,0,0,0,2.361,2.361h1.631a3.818,3.818,0,0,0,3.668-2.709L52.5,31.5a8.352,8.352,0,0,0,.369-2.454v-.206a8,8,0,0,0-5.053-7.465ZM51.1,28.842v.206a6.571,6.571,0,0,1-.291,1.935l-2.556,8.308a2.064,2.064,0,0,1-1.982,1.463H44.642a.6.6,0,0,1-.553-.819l1.5-3.75a3.1,3.1,0,0,0-2.88-4.251H30.843a5.208,5.208,0,0,0-4.66,2.88L23.9,39.374a2.486,2.486,0,0,1-2.234,1.38h-1.8a.524.524,0,0,1-.46-.774l1.742-3.193A28.67,28.67,0,0,0,24.6,24.4l.3-.3A5.1,5.1,0,0,0,26.4,20.467H24.641a3.355,3.355,0,0,1-.989,2.388l-1.917,1.916a.379.379,0,0,1-.623-.258v-1.4a1.764,1.764,0,0,0-3.528,0,2.875,2.875,0,0,1-1.038,2.216,11.776,11.776,0,0,0-4.223,8.521,2.643,2.643,0,0,0-1.795,2.494v.882h1.764v-.882a.882.882,0,1,1,1.764,0,2.646,2.646,0,1,1-5.292,0,7.2,7.2,0,0,1,.658-3l2.723-5.9a20.806,20.806,0,0,0,1.493-4.605,9.011,9.011,0,0,0,2.182.27V21.35a7.214,7.214,0,0,1-1.9-.258,20.735,20.735,0,0,0,.138-2.337,6.954,6.954,0,0,1,2.444-5.27l.139-.119a10.78,10.78,0,0,1,7-2.592h.188a11.168,11.168,0,0,1,7.14,2.589,60.167,60.167,0,0,0,16.192,9.654l.034.014A6.243,6.243,0,0,1,51.1,28.842Z" transform="translate(-1.708 -1.945)"/>
        <circle id="Elipse_12605" data-name="Elipse 12605" cx="1" cy="1" r="1" transform="translate(17.687 14)"/>
        <path id="Trazado_1049638" data-name="Trazado 1049638" d="M0,0H1.764V6.889H0Z" transform="matrix(0.768, -0.64, 0.64, 0.768, 27.537, 19.089)"/>
        <path id="Trazado_1049639" data-name="Trazado 1049639" d="M0,0H1.764V6.889H0Z" transform="matrix(0.768, -0.64, 0.64, 0.768, 33.711, 20.854)"/>
        <path id="Trazado_1049640" data-name="Trazado 1049640" d="M0,0H1.764V6.889H0Z" transform="matrix(0.768, -0.64, 0.64, 0.768, 40.764, 24.383)"/>
        <path id="Trazado_1049641" data-name="Trazado 1049641" d="M14.027,51.5a4.442,4.442,0,0,1-6.282,0l-.2-.2L6.293,52.54l.2.2a6.205,6.205,0,0,0,8.776,0l.2-.2-1.247-1.247Z" transform="translate(-1.624 -6.933)"/>
        <path id="Trazado_1049642" data-name="Trazado 1049642" d="M30.027,49.5a4.442,4.442,0,0,1-6.282,0l-.2-.2L22.293,50.54l.2.2a6.205,6.205,0,0,0,8.776,0l.2-.2-1.247-1.247Z" transform="translate(-3.512 -6.697)"/>
        <path id="Trazado_1049643" data-name="Trazado 1049643" d="M43.286,43.5l.052-.078-1.468-.978-.052.078a4.886,4.886,0,0,1-8.131,0l-.052-.078-1.468.978.052.078a6.65,6.65,0,0,0,11.066,0Z" transform="translate(-4.677 -5.889)"/>
        <path id="Trazado_1049644" data-name="Trazado 1049644" d="M47.818,52.523a4.886,4.886,0,0,1-8.131,0l-.052-.078-1.468.978.052.078a6.65,6.65,0,0,0,11.066,0l.052-.078-1.468-.978Z" transform="translate(-5.384 -7.068)"/>
        <path id="Trazado_1049645" data-name="Trazado 1049645" d="M56.3,47.739a1.972,1.972,0,0,1-3.528,0l-.093-.186-1.578.789.093.185a3.736,3.736,0,0,0,6.684,0l.093-.186L56.4,47.552Z" transform="translate(-6.91 -6.491)"/>
        <path id="Trazado_1049646" data-name="Trazado 1049646" d="M47.117,8.8A44.735,44.735,0,0,0,21.819,1,19.054,19.054,0,0,0,2.764,20.055V30a28.672,28.672,0,0,1-.856,6.95A30.519,30.519,0,0,0,1,44.35a11.337,11.337,0,0,0,16.961,9.844,15.465,15.465,0,0,1,7.661-2.035h2.4a15.519,15.519,0,0,1,6.905,1.63l.9.449A13.727,13.727,0,0,0,55.687,41.96V25.017A19.609,19.609,0,0,0,47.117,8.8Zm6.8,33.156a11.962,11.962,0,0,1-17.312,10.7l-.9-.449a17.3,17.3,0,0,0-7.695-1.816h-2.4a17.239,17.239,0,0,0-8.537,2.267A9.572,9.572,0,0,1,2.764,44.328a28.672,28.672,0,0,1,.856-6.95A30.476,30.476,0,0,0,4.528,30V20.055A17.29,17.29,0,0,1,21.819,2.764a42.976,42.976,0,0,1,24.306,7.5,17.847,17.847,0,0,1,7.8,14.756Z" transform="translate(-1 -1)"/>
      </g>
    </g>
  </g>
</svg>
