<svg xmlns="http://www.w3.org/2000/svg" xmlns:xlink="http://www.w3.org/1999/xlink" width="110" height="110" viewBox="0 0 110 110">
  <defs>
    <filter id="Trazado_982547" x="0" y="0" width="110" height="110" filterUnits="userSpaceOnUse">
      <feOffset dy="3" input="SourceAlpha"/>
      <feGaussianBlur stdDeviation="3" result="blur"/>
      <feFlood flood-opacity="0.161"/>
      <feComposite operator="in" in2="blur"/>
      <feComposite in="SourceGraphic"/>
    </filter>
  </defs>
  <g id="Grupo_1185117" data-name="Grupo 1185117" transform="translate(2420 -4645.215)">
    <g id="Grupo_1183631" data-name="Grupo 1183631" transform="translate(-2411 4651.215)">
      <g id="Grupo_1179602" data-name="Grupo 1179602" transform="translate(0 0)">
        <g id="Grupo_1171898" data-name="Grupo 1171898">
          <g id="Grupo_1164700" data-name="Grupo 1164700">
            <g id="Grupo_1160931" data-name="Grupo 1160931" transform="translate(0 0)">
              <g id="Grupo_1160749" data-name="Grupo 1160749">
                <g id="Grupo_1158891" data-name="Grupo 1158891">
                  <g id="Grupo_1157406" data-name="Grupo 1157406">
                    <g id="Grupo_1155793" data-name="Grupo 1155793">
                      <g id="Grupo_1154704" data-name="Grupo 1154704">
                        <g id="Grupo_1150790" data-name="Grupo 1150790">
                          <g id="Grupo_1154214" data-name="Grupo 1154214">
                            <g id="Grupo_1152583" data-name="Grupo 1152583">
                              <g id="Grupo_1146973" data-name="Grupo 1146973">
                                <g id="Grupo_1146954" data-name="Grupo 1146954">
                                  <g transform="matrix(1, 0, 0, 1, -9, -6)" filter="url(#Trazado_982547)">
                                    <g id="Trazado_982547-2" data-name="Trazado 982547" transform="translate(9 6)" fill="#effbfe">
                                      <path d="M 46.00000381469727 90.49986267089844 C 39.99188232421875 90.49986267089844 34.16428375244141 89.32350158691406 28.67905807495117 87.00344848632812 C 23.38021659851074 84.76223754882812 18.62104415893555 81.55341339111328 14.53376388549805 77.46613311767578 C 10.44647026062012 73.37885284423828 7.237643718719482 68.61968994140625 4.996417045593262 63.32085037231445 C 2.676363706588745 57.83565139770508 1.500003814697266 52.00805282592773 1.500003814697266 45.99993133544922 C 1.500003814697266 39.99182510375977 2.676363706588745 34.16422653198242 4.996417045593262 28.67901039123535 C 7.237643718719482 23.38017082214355 10.44647026062012 18.62101173400879 14.53376388549805 14.53373146057129 C 18.62104415893555 10.44645118713379 23.38021659851074 7.237624645233154 28.67905807495117 4.996411323547363 C 34.16428375244141 2.676357984542847 39.99188232421875 1.499997973442078 46.00000381469727 1.499997973442078 C 52.00812530517578 1.499997973442078 57.83573532104492 2.676357984542847 63.32094955444336 4.996411323547363 C 68.61980438232422 7.237624645233154 73.37896728515625 10.44645118713379 77.46625518798828 14.53373146057129 C 81.55353546142578 18.62101173400879 84.76236724853516 23.38017082214355 87.00359344482422 28.67901039123535 C 89.32364654541016 34.16422653198242 90.5 39.99182510375977 90.5 45.99993133544922 C 90.5 52.00805282592773 89.32364654541016 57.83565139770508 87.00359344482422 63.32085037231445 C 84.76236724853516 68.61968994140625 81.55353546142578 73.37885284423828 77.46625518798828 77.46613311767578 C 73.37896728515625 81.55341339111328 68.61980438232422 84.76223754882812 63.32094955444336 87.00344848632812 C 57.83573532104492 89.32350158691406 52.00812530517578 90.49986267089844 46.00000381469727 90.49986267089844 Z" stroke="none"/>
                                      <path d="M 46.00000381469727 3 C 40.19371795654297 3 34.56270217895508 4.136505126953125 29.26338958740234 6.377914428710938 C 24.14333343505859 8.54351806640625 19.54443359375 11.64438629150391 15.59442138671875 15.59439086914062 C 11.64440155029297 19.54440307617188 8.543533325195312 24.14330291748047 6.3779296875 29.26334381103516 C 4.136505126953125 34.56266021728516 3.000007629394531 40.19366073608398 3.000007629394531 45.99993133544922 C 3.000007629394531 51.80620193481445 4.136505126953125 57.43720245361328 6.3779296875 62.73651885986328 C 8.543533325195312 67.85655975341797 11.64440155029297 72.45545959472656 15.59442138671875 76.40547180175781 C 19.54443359375 80.35547637939453 24.14333343505859 83.45634460449219 29.26338958740234 85.6219482421875 C 34.56270217895508 87.86335754394531 40.19371795654297 88.99986267089844 46.00000381469727 88.99986267089844 C 51.80628967285156 88.99986267089844 57.43730545043945 87.86335754394531 62.73663330078125 85.6219482421875 C 67.85667419433594 83.45634460449219 72.45558929443359 80.35547637939453 76.40560150146484 76.40547180175781 C 80.35560607910156 72.45545959472656 83.45648956298828 67.85655975341797 85.62208557128906 62.73651885986328 C 87.86350250244141 57.43720245361328 89 51.80620193481445 89 45.99993133544922 C 89 40.19366073608398 87.86350250244141 34.56266021728516 85.62208557128906 29.26334381103516 C 83.45648956298828 24.14330291748047 80.35560607910156 19.54440307617188 76.40560150146484 15.59439086914062 C 72.45558929443359 11.64438629150391 67.85667419433594 8.54351806640625 62.73663330078125 6.377914428710938 C 57.43730545043945 4.136505126953125 51.80628967285156 3 46.00000381469727 3 M 46.00000381469727 0 C 71.40510559082031 0 92 20.59487152099609 92 45.99993133544922 C 92 71.40499114990234 71.40510559082031 91.99986267089844 46.00000381469727 91.99986267089844 C 20.59491729736328 91.99986267089844 7.62939453125e-06 71.40499114990234 7.62939453125e-06 45.99993133544922 C 7.62939453125e-06 20.59487152099609 20.59491729736328 0 46.00000381469727 0 Z" stroke="none" fill="#397b86"/>
                                    </g>
                                  </g>
                                </g>
                              </g>
                            </g>
                          </g>
                        </g>
                      </g>
                    </g>
                  </g>
                </g>
              </g>
            </g>
          </g>
        </g>
      </g>
    </g>
    <g id="dibujo_4_" data-name="dibujo (4)" transform="translate(-2392.228 4668.602)">
      <g id="Grupo_1185115" data-name="Grupo 1185115" transform="translate(0.923 0.923)">
        <g id="Grupo_1185098" data-name="Grupo 1185098" transform="translate(45.625 5.132)">
          <path id="Trazado_1049647" data-name="Trazado 1049647" d="M50.43,23.036a27.66,27.66,0,0,0,5.141-16.07V6.56a15.482,15.482,0,0,1,1.5,1.809,16.522,16.522,0,0,1,3.111,9.673,5.565,5.565,0,0,1-3.692,5.224,5.578,5.578,0,0,1-1.846.314,17.4,17.4,0,0,1-1.846-.1A16.562,16.562,0,0,1,50.43,23.036Z" transform="translate(-50.43 -6.56)" fill="#ff826e"/>
        </g>
        <g id="Grupo_1185099" data-name="Grupo 1185099" transform="translate(33.229)">
          <path id="Trazado_1049648" data-name="Trazado 1049648" d="M52.212,4.111a14.755,14.755,0,0,1,1.809,1.5h-.406a27.66,27.66,0,0,0-16.07,5.141A16.312,16.312,0,0,1,37,6.538,5.547,5.547,0,0,1,42.538,1,16.522,16.522,0,0,1,52.212,4.111Z" transform="translate(-37 -1)" fill="#ff826e"/>
        </g>
        <g id="Grupo_1185100" data-name="Grupo 1185100" transform="translate(48.441 1.846)">
          <path id="Trazado_1049649" data-name="Trazado 1049649" d="M58.575,5.769A2.77,2.77,0,0,1,57.311,8.1a15.481,15.481,0,0,0-1.5-1.809V6.277c-.166-.175-.332-.342-.508-.508h-.009a14.755,14.755,0,0,0-1.809-1.5,2.77,2.77,0,0,1,5.1,1.5Z" transform="translate(-53.48 -3)" fill="#fc6e51"/>
        </g>
        <g id="Grupo_1185101" data-name="Grupo 1185101" transform="translate(33.774 4.615)">
          <path id="Trazado_1049650" data-name="Trazado 1049650" d="M54.583,6.517v.406a27.66,27.66,0,0,1-5.141,16.07L43.22,19.845a15.828,15.828,0,0,1-1.311-1.172,16.618,16.618,0,0,1-4.32-7.532A27.66,27.66,0,0,1,53.66,6h.415c.175.166.342.332.508.508Z" transform="translate(-37.59 -6)" fill="#fc6e51"/>
        </g>
        <g id="Grupo_1185102" data-name="Grupo 1185102" transform="translate(16.199 50.905)">
          <path id="Trazado_1049651" data-name="Trazado 1049651" d="M22.473,56.935l1.108,3.692H19.888L18.55,56.15a3.615,3.615,0,0,0,2.261.785Z" transform="translate(-18.55 -56.15)" fill="#cf9e76"/>
        </g>
        <g id="Grupo_1185103" data-name="Grupo 1185103" transform="translate(0.923 46.151)">
          <path id="Trazado_1049652" data-name="Trazado 1049652" d="M8.461,51,5.692,60.23H2L4.769,51Z" transform="translate(-2 -51)" fill="#cf9e76"/>
        </g>
        <g id="Grupo_1185104" data-name="Grupo 1185104" transform="translate(0 12.922)">
          <path id="Trazado_1049653" data-name="Trazado 1049653" d="M10.369,40.753a12.12,12.12,0,0,0,5.4-10.089,12.176,12.176,0,0,0-2.031-6.72L10.23,18.692,8.015,22.015,6.723,23.944a12.944,12.944,0,0,0-.84,1.477,12.112,12.112,0,0,0,4.209,15.332l.138.092Zm12.784-22.06V38.971a1.726,1.726,0,0,1-.314.028,2.081,2.081,0,0,1-1.117-.332l-1.191-.8a4.255,4.255,0,0,0-5.9,5.9l.517.775,1.855,2.778c-.055.046-.1.1-.157.148a3.9,3.9,0,0,0-.582.766H1.923A.926.926,0,0,1,1,47.306V15.923A.926.926,0,0,1,1.923,15H22.23a.926.926,0,0,1,.923.923Z" transform="translate(-1 -15)" fill="#e6e9ed"/>
        </g>
        <g id="Grupo_1185105" data-name="Grupo 1185105" transform="translate(12.922 33.229)">
          <path id="Trazado_1049654" data-name="Trazado 1049654" d="M31.615,46.526v1.551L24.23,49.922l-.545-.545a4.457,4.457,0,0,0-3.148-1.3,3.683,3.683,0,0,0-2.455.932L16.228,46.23l-.517-.775a4.255,4.255,0,0,1,5.9-5.9l1.191.8a2.081,2.081,0,0,0,1.117.332,1.726,1.726,0,0,0,.314-.028,2,2,0,0,0,1.477-1.08l.508-1.006a2.861,2.861,0,0,1,3.766-1.311v.009a2.772,2.772,0,0,1,1.357,1.357h.009a2.836,2.836,0,0,1,.268,1.218Z" transform="translate(-15 -37)" fill="#aab2bd"/>
        </g>
        <g id="Grupo_1185106" data-name="Grupo 1185106" transform="translate(29.269 34.863)">
          <path id="Trazado_1049655" data-name="Trazado 1049655" d="M38.516,40.828l-1.754.582a5.539,5.539,0,0,0-3.784,5.252V39.988a2.836,2.836,0,0,0-.268-1.218A9.2,9.2,0,0,0,38.516,40.828Z" transform="translate(-32.71 -38.77)" fill="#b27946"/>
        </g>
        <g id="Grupo_1185107" data-name="Grupo 1185107" transform="translate(38.546 21.839)">
          <path id="Trazado_1049656" data-name="Trazado 1049656" d="M52.673,54.049a4.722,4.722,0,0,1-3.341,1.385h-2l-.665-2.428A14.906,14.906,0,0,0,44,48.456l-.231-.268,1.763-1.763a3.914,3.914,0,0,0-2.769-6.683h.222a9.234,9.234,0,0,0,9.23-9.23v-5.64a17.4,17.4,0,0,0,1.846.1A5.578,5.578,0,0,0,55.9,24.66v10.7a7.367,7.367,0,0,1-2.658,5.677L51.39,42.576a2.864,2.864,0,0,0,.12,4.486l.932.7a4.036,4.036,0,0,1,.434,6.083Z" transform="translate(-42.76 -24.66)" fill="#b27946"/>
        </g>
        <g id="Grupo_1185108" data-name="Grupo 1185108" transform="translate(22.153 5.538)">
          <path id="Trazado_1049657" data-name="Trazado 1049657" d="M30.815,16.876l-.5.5A5.531,5.531,0,0,0,28.692,21.3v7.855a9.2,9.2,0,0,0,2.058,5.806,2.861,2.861,0,0,0-3.766,1.311l-.508,1.006A2,2,0,0,1,25,38.355V18.076A11.073,11.073,0,0,1,36.076,7a16.312,16.312,0,0,0,.545,4.218,16.618,16.618,0,0,0,4.32,7.532,15.829,15.829,0,0,0,1.311,1.172h-7.1a4.617,4.617,0,0,1-4.338-3.046Z" transform="translate(-25 -7)" fill="#b27946"/>
        </g>
        <g id="Grupo_1185109" data-name="Grupo 1185109" transform="translate(29.537 45.367)">
          <path id="Trazado_1049658" data-name="Trazado 1049658" d="M43.246,50.418a14.906,14.906,0,0,1,2.668,4.551l.665,2.428a14.517,14.517,0,0,1,.268,2.769H33V56.473h1.394a5.531,5.531,0,0,0,3.923-1.625l2.991-2.991,1.708-1.708Z" transform="translate(-33 -50.15)" fill="#fcd770"/>
        </g>
        <g id="Grupo_1185110" data-name="Grupo 1185110" transform="translate(32.306 36.921)">
          <path id="Trazado_1049659" data-name="Trazado 1049659" d="M46.153,44.914a3.919,3.919,0,0,1-1.145,2.769l-1.763,1.763-1.708,1.708L36,45.615l3.471-3.471a3.914,3.914,0,0,1,6.683,2.769Z" transform="translate(-36 -41)" fill="#fcd770"/>
        </g>
        <g id="Grupo_1185111" data-name="Grupo 1185111" transform="translate(29.537 36.921)">
          <path id="Trazado_1049660" data-name="Trazado 1049660" d="M39.24,42.145l-3.471,3.471L33,48.384V46.834a5.539,5.539,0,0,1,3.784-5.252L38.538,41h3.471A3.919,3.919,0,0,0,39.24,42.145Z" transform="translate(-33 -41)" fill="#fcd770"/>
        </g>
        <g id="Grupo_1185112" data-name="Grupo 1185112" transform="translate(14.768 41.536)">
          <path id="Trazado_1049661" data-name="Trazado 1049661" d="M18.431,55.369a2.588,2.588,0,0,1-.351-.3,3.687,3.687,0,0,1-.582-4.458,3.9,3.9,0,0,1,.582-.766c.055-.046.1-.1.157-.148a3.683,3.683,0,0,1,2.455-.932,4.457,4.457,0,0,1,3.148,1.3l.545.545,7.384-1.846L34.538,46l5.538,5.538-2.991,2.991a5.531,5.531,0,0,1-3.923,1.625H20.692A3.615,3.615,0,0,1,18.431,55.369Z" transform="translate(-17 -46)" fill="#f0d0b4"/>
        </g>
        <g id="Grupo_1185113" data-name="Grupo 1185113" transform="translate(25.845 15.415)">
          <path id="Trazado_1049662" data-name="Trazado 1049662" d="M48.781,23.894a16.563,16.563,0,0,0,2.372.443v5.64a9.234,9.234,0,0,1-9.23,9.23H38.23a9.2,9.2,0,0,1-5.806-2.058h-.009a2.772,2.772,0,0,0-1.357-1.357v-.009A9.2,9.2,0,0,1,29,29.976V22.121A5.531,5.531,0,0,1,30.625,18.2l.5-.5a4.617,4.617,0,0,0,4.338,3.046h7.1Z" transform="translate(-29 -17.7)" fill="#f0d0b4"/>
        </g>
        <g id="Grupo_1185114" data-name="Grupo 1185114" transform="translate(3.692 16.615)">
          <path id="Trazado_1049663" data-name="Trazado 1049663" d="M8.323,22.323,10.538,19l3.508,5.252a12.176,12.176,0,0,1,2.031,6.72,12.12,12.12,0,0,1-5.4,10.089l-.138.092L10.4,41.06A12.128,12.128,0,0,1,6.191,25.729a12.944,12.944,0,0,1,.84-1.477Z" transform="translate(-5 -19)" fill="#b4dd7f"/>
        </g>
      </g>
      <g id="Grupo_1185116" data-name="Grupo 1185116">
        <path id="Trazado_1049664" data-name="Trazado 1049664" d="M37.538,27.692v-.923a2.769,2.769,0,0,0-5.538,0v.923h1.846v-.923a.923.923,0,0,1,1.846,0v.923Z" transform="translate(-2.463 -1.847)"/>
        <path id="Trazado_1049665" data-name="Trazado 1049665" d="M41.692,33.846H38v1.846h3.692A3.7,3.7,0,0,0,45.384,32H43.538A1.848,1.848,0,0,1,41.692,33.846Z" transform="translate(-2.925 -2.463)"/>
        <path id="Trazado_1049666" data-name="Trazado 1049666" d="M57.228,17.538a17.418,17.418,0,0,0-2.819-9.5,3.692,3.692,0,0,0-5.217-5.217A17.418,17.418,0,0,0,39.69,0,6.465,6.465,0,0,0,33.3,5.582,12.009,12.009,0,0,0,23,13.137a1.829,1.829,0,0,0-.847-.215H1.846A1.848,1.848,0,0,0,0,14.768V46.151A1.848,1.848,0,0,0,1.846,48H3.375L.606,57.228H6.225L8.994,48h5.868a4.569,4.569,0,0,0,1.444,4.336l1.469,4.894h5.619l-1.108-3.692h7.251v3.692H45.228V56.3a15.963,15.963,0,0,0-.121-1.846h.932A5.613,5.613,0,0,0,50.035,52.8l.2-.2a4.926,4.926,0,0,0,1.454-3.508,4.985,4.985,0,0,0-1.985-3.969l-.933-.7a1.936,1.936,0,0,1-.078-3.037l1.853-1.543a8.285,8.285,0,0,0,2.989-6.382v-10.1a6.463,6.463,0,0,0,3.692-5.829ZM51.69,3.692a1.838,1.838,0,0,1,1.589,2.776A17.644,17.644,0,0,0,50.76,3.951a1.831,1.831,0,0,1,.929-.258Zm-12.922,43-4.233-4.233,2.815-2.815a2.993,2.993,0,1,1,4.233,4.233ZM16.615,48.921a2.772,2.772,0,0,1,2.769-2.769,3.511,3.511,0,0,1,2.5,1.035l.91.91,8.139-2.035,2.3-2.3L37.462,48l-2.341,2.341a4.585,4.585,0,0,1-3.263,1.351H19.384A2.772,2.772,0,0,1,16.615,48.921ZM6.141,25.907,7.655,27.42,8.96,26.115,6.94,24.1c.149-.269.306-.534.478-.791l.664-1,1.42,1.42,1.305-1.305-1.68-1.68L10.153,19.2l2.735,4.1a11.181,11.181,0,0,1-1.812,14.508V27.691H9.23V37.813A11.152,11.152,0,0,1,6.141,25.907Zm4.935,14.252a13.059,13.059,0,0,0,2.348-2.118,5.141,5.141,0,0,0-.006,4.419H11.076Zm3.692.09a3.328,3.328,0,0,1,5.174-2.769l1.193.8a2.928,2.928,0,0,0,4.243-1.126l.5-1.007A1.929,1.929,0,0,1,29.537,37v7.5l-6.178,1.544-.172-.172a5.345,5.345,0,0,0-3.8-1.575,4.55,4.55,0,0,0-2.195.582L15.328,42.1a3.315,3.315,0,0,1-.559-1.847Zm16.615-2.6a10.226,10.226,0,0,0,1.247.543,6.472,6.472,0,0,0-1.247.97Zm.06,5.294A4.61,4.61,0,0,1,34.538,39.3l.812-.27ZM36,36.921a8.318,8.318,0,0,1-5.124-1.774,3.781,3.781,0,0,0-1.41-1.41,8.208,8.208,0,0,1-1.773-5.123v-7.86a4.568,4.568,0,0,1,.994-2.829,5.534,5.534,0,0,0,4.544,2.381h6.813a17.512,17.512,0,0,0,3.009,1.879,2.764,2.764,0,0,0-2.438,2.736v.923h1.846v-.923a.923.923,0,0,1,1.846,0v.923h1.846v-.923a2.742,2.742,0,0,0-.618-1.721A17.409,17.409,0,0,0,48,23.758v4.856a8.317,8.317,0,0,1-8.307,8.307ZM35.77,11.077a26.6,26.6,0,0,1,15-4.616,26.6,26.6,0,0,1-4.616,15A15.76,15.76,0,0,1,35.77,11.077Zm3.92-9.231A15.586,15.586,0,0,1,48.679,4.7,28.377,28.377,0,0,0,35.324,9.163a15.7,15.7,0,0,1-.249-2.7A4.62,4.62,0,0,1,39.69,1.846ZM33.278,7.429a17.456,17.456,0,0,0,4.733,11.032H33.229a3.7,3.7,0,0,1-3.692-3.692V12.922H27.691v1.846a5.506,5.506,0,0,0,.162,1.3l-.114.114a6.419,6.419,0,0,0-1.892,4.569v7.86a10.173,10.173,0,0,0,1.147,4.67,3.747,3.747,0,0,0-2.762,2.033L24,35.78V17.538A10.162,10.162,0,0,1,33.278,7.429ZM4.851,55.382H3.087L5.3,48H7.067Zm-3.005-9.23V14.768H22.153V36.735l-1.186-.791a5.158,5.158,0,0,0-6.378.513,12.975,12.975,0,0,0-.164-14.176l-4.271-6.408L7.794,19.411l-1.6-1.6L4.886,19.113,6.75,20.978l-.869,1.3c-.1.153-.193.312-.288.469L4.345,21.5,3.04,22.805l1.672,1.672A12.988,12.988,0,0,0,9.23,40.159v2.3H3.692v1.846h10.89l1.187,1.781c-.018.022-.037.043-.054.066Zm19.066,9.23H19.147l-.579-1.928a4.656,4.656,0,0,0,.815.082h.975Zm10.471,0V53.536h.475a6.421,6.421,0,0,0,4.569-1.892L40.4,47.67a14.062,14.062,0,0,1,2.952,7.712ZM51.69,33.463a6.445,6.445,0,0,1-2.325,4.964L47.512,39.97a3.783,3.783,0,0,0,.152,5.931l.933.7a3.132,3.132,0,0,1,1.246,2.492,3.093,3.093,0,0,1-.913,2.2l-.2.2a3.778,3.778,0,0,1-2.69,1.115H44.779a15.891,15.891,0,0,0-3.066-6.255l1.176-1.176a4.82,4.82,0,0,0-.082-6.909,10.165,10.165,0,0,0,7.037-9.659V23.952c.307.017.611.047.923.047a6.485,6.485,0,0,0,.923-.074Zm-.923-11.31a15.7,15.7,0,0,1-2.7-.249A28.38,28.38,0,0,0,52.532,8.549a15.586,15.586,0,0,1,2.849,8.988,4.62,4.62,0,0,1-4.615,4.615Z"/>
      </g>
    </g>
  </g>
</svg>
