<svg xmlns="http://www.w3.org/2000/svg" xmlns:xlink="http://www.w3.org/1999/xlink" width="335" height="234" viewBox="0 0 335 234">
  <defs>
    <clipPath id="clip-path">
      <rect id="Rectángulo_416240" data-name="Rectángulo 416240" width="335" height="234" transform="translate(180.38 675.924)" fill="#fff" stroke="#707070" stroke-width="1" opacity="0.87"/>
    </clipPath>
    <clipPath id="clip-path-2">
      <path id="Trazado_1048198" data-name="Trazado 1048198" d="M445.279,303.4a3.045,3.045,0,0,0-2.658-1.671,8.78,8.78,0,0,0-2.672.44,8.834,8.834,0,0,1-2.672.442,17.858,17.858,0,0,1-3.376-.869,2.527,2.527,0,0,0-2.69.673,2.963,2.963,0,0,0-.563,1.594c-.323,4.225,4.917,6.91,8.534,6.625a7.487,7.487,0,0,0,5.417-2.942,5.128,5.128,0,0,0,.993-2.363A3.375,3.375,0,0,0,445.279,303.4Z" transform="translate(-430.634 -301.625)"/>
    </clipPath>
  </defs>
  <g id="Enmascarar_grupo_1098844" data-name="Enmascarar grupo 1098844" transform="translate(-180.38 -675.924)" clip-path="url(#clip-path)">
    <g id="Grupo_1184539" data-name="Grupo 1184539" transform="translate(180 676.063)">
      <ellipse id="Elipse_12595" data-name="Elipse 12595" cx="167.5" cy="180.5" rx="167.5" ry="180.5" transform="translate(0.38 54.86)" fill="#fdfbec"/>
      <g id="Grupo_1184538" data-name="Grupo 1184538" transform="translate(11.158 0)">
        <g id="OBJECTS" transform="translate(0)">
          <g id="Grupo_1184530" data-name="Grupo 1184530" transform="translate(0)">
            <g id="Grupo_1184510" data-name="Grupo 1184510" transform="translate(66.817)">
              <path id="Trazado_1047959" data-name="Trazado 1047959" d="M316.261,117.531a102.318,102.318,0,0,1-1.521-14.764c-.3-8.626-.918-17.238-2-25.8-1.746-13.8-3.827-25.53-38.271-25.53-.911,0-11.814.08-16.188.412C224.717,54.495,222.3,79.7,229.554,94.658c.925,1.916,3.181,5.321,4.027,5.531a16.993,16.993,0,0,1-1.968,9.132c.053,6.639,4.1,12.282,6.491,18.261.936,2.341,1.438,9.771,1.288,10.325a6.494,6.494,0,0,0,3,4.427l12.884,2.682a8.889,8.889,0,0,1,.7-6.478c-.152,4.938,1.641,6.868,1.641,6.868,13.579,3.351,14.928,3.044,17.446,3.109,2.848.079,5.69.108,8.539.051.506-.007,1.005-.014,1.511-.036l8.633-6.153c-3.224-3.789-1.374-6.912-1.374-6.912a8.088,8.088,0,0,0,3.116,5.827l11.142-6.247c-3.015-8.813,2.241-13.383,2.241-13.383-.441,5.43,5.307,10.274,5.307,10.274l5.768-1.434A63.186,63.186,0,0,1,316.261,117.531Z" transform="translate(-178.743 -51.436)" fill="#491010"/>
              <g id="Grupo_1184458" data-name="Grupo 1184458" transform="translate(46.849 38.177)">
                <g id="Grupo_1184457" data-name="Grupo 1184457">
                  <path id="Trazado_1047960" data-name="Trazado 1047960" d="M230.6,120.781c-5.019,0-9.841,12.293,1.119,21.705a.431.431,0,0,0,.734-.341c-.012-.242-.455-.557-.661-.742,3.323-2.467,5.4-7.9,5.3-12.345-.14-6-4.192-8.277-6.49-8.277" transform="translate(-225.092 -120.781)" fill="#f48f7a"/>
                </g>
              </g>
              <g id="Grupo_1184459" data-name="Grupo 1184459" transform="translate(51.733 7.34)">
                <path id="Trazado_1047961" data-name="Trazado 1047961" d="M297.884,125.434a18.025,18.025,0,0,1-9.507,2.334,37.949,37.949,0,0,0-2.361,17.8,1.524,1.524,0,0,1,.019.156v.007a22.558,22.558,0,0,0,8.535,15.238c.43.326.874.646,1.317.939a.7.7,0,0,1,.437.189c1.356,1.356-10.354,11.046-21.87,15.871-15.017,6.273-23.441-1.767-24.374-15.9a.641.641,0,0,1-.013-1.239c8.653-2.113,10.928-11.587,10.635-20.442a29.181,29.181,0,0,1-12.356-3.228,24.833,24.833,0,0,1-9.077-7.825,27.117,27.117,0,0,1-3.912-8.522c-3.723-13.641.854-31.344,3.893-44.816a.613.613,0,0,1-.059-.711c16.735-25.468,60.233-.718,54.642,32.068C304.737,101.771,312.418,117.538,297.884,125.434Z" transform="translate(-233.964 -64.768)" fill="#ff9d85"/>
              </g>
              <path id="Trazado_1047962" data-name="Trazado 1047962" d="M227.234,85.544c1.632-3.554,2.05-7.094,5.271-9.974,2.546-2.276,3.186-6.282,5.857-8.472,2.316-1.9,8.746-1.9,11.36-3.562a58.855,58.855,0,0,1,30.95,1.816,5.284,5.284,0,0,1,.37-.441c4.615,3.605,5.969,9.18,5.636,14.055-.1,1.406,3.821,3.264,4.024,4.668.239,1.653,1.612,3.091,1.6,4.765-.007,1.318-17.494-3-17.494-3s-1.8-1.929-1.641-6.868a8.875,8.875,0,0,0-.7,6.476l-12.889-2.681s-2.929-6.809-.469-11.554c0,0-6.152,1.943-7.03,11.207l-11.717.994a8.7,8.7,0,0,1-.351-6.6s-2.754,2.064-1.523,6.854Z" transform="translate(-179.206 -56.305)" fill="#491010"/>
              <g id="Grupo_1184460" data-name="Grupo 1184460" transform="translate(56.16 30.461)">
                <path id="Trazado_1047963" data-name="Trazado 1047963" d="M248.546,106.766c-3.2,0-6.758,1.51-6.529,2.757.413,2.177,9.726.48,9.317-1.738-.117-.629-1.184-1.018-2.788-1.018" transform="translate(-242.006 -106.766)" fill="#330606"/>
              </g>
              <g id="Grupo_1184461" data-name="Grupo 1184461" transform="translate(88.225 32.051)">
                <path id="Trazado_1047964" data-name="Trazado 1047964" d="M303.049,109.654c3.2,0,6.758,1.51,6.529,2.757-.413,2.177-9.726.48-9.317-1.738.117-.629,1.184-1.018,2.787-1.018" transform="translate(-300.248 -109.654)" fill="#330606"/>
              </g>
              <circle id="Elipse_12594" data-name="Elipse 12594" cx="8.679" cy="8.679" r="8.679" transform="translate(83.553 63.938) rotate(-45)" fill="#ff4f3f" opacity="0.3"/>
              <path id="Trazado_1047965" data-name="Trazado 1047965" d="M250.868,164.088a7.314,7.314,0,0,1-10.459,6.6,27.114,27.114,0,0,1-3.912-8.522,7.314,7.314,0,0,1,14.371,1.924Z" transform="translate(-183.37 -98.781)" fill="#ff4f3f" opacity="0.3"/>
              <g id="Grupo_1184462" data-name="Grupo 1184462" transform="translate(78.14 73.354)" opacity="0.25">
                <path id="Trazado_1047966" data-name="Trazado 1047966" d="M303.347,185.864c-5.574,4.928-13.252,7.491-21.086,8.447a40.986,40.986,0,0,1-.33,6.574c5.408-.461,11.478-4.237,10.632-3.814a37.437,37.437,0,0,0,7.341-5.751l-.04.04a25.5,25.5,0,0,0,3.883-4.981,0,0,0,0,0,0,0v0s.016-.046.016-.033a.043.043,0,0,0,.007-.009h0a16.963,16.963,0,0,0,.836-1.659c-.41.406-.826.807-1.259,1.186" transform="translate(-281.931 -184.678)" fill="#491010"/>
              </g>
              <g id="Grupo_1184463" data-name="Grupo 1184463" transform="translate(75.447 82.704)">
                <path id="Trazado_1047967" data-name="Trazado 1047967" d="M277.234,201.691c0-.018-.438-.057,0,0" transform="translate(-277.039 -201.661)" fill="#ae411e"/>
              </g>
              <g id="Grupo_1184464" data-name="Grupo 1184464" transform="translate(99.964 75.023)">
                <path id="Trazado_1047968" data-name="Trazado 1047968" d="M321.585,187.709c0,.01-.01.017-.014.026,0-.009.01-.016.014-.026" transform="translate(-321.571 -187.709)" fill="#ae411e"/>
              </g>
              <g id="Grupo_1184465" data-name="Grupo 1184465" transform="translate(99.959 75.056)">
                <path id="Trazado_1047969" data-name="Trazado 1047969" d="M321.563,187.77h0Z" transform="translate(-321.563 -187.77)" fill="#ae411e"/>
              </g>
              <g id="Grupo_1184466" data-name="Grupo 1184466" transform="translate(88.764 85.742)">
                <path id="Trazado_1047970" data-name="Trazado 1047970" d="M301.228,207.19l.017-.01Z" transform="translate(-301.228 -207.18)" fill="#ae411e"/>
              </g>
              <g id="Grupo_1184470" data-name="Grupo 1184470" transform="translate(108.693 52.048)">
                <g id="Grupo_1184467" data-name="Grupo 1184467" transform="translate(0.52 12.335)">
                  <path id="Trazado_1047971" data-name="Trazado 1047971" d="M338.374,168.393l0,0Z" transform="translate(-338.372 -168.383)" fill="#ae411e"/>
                </g>
                <g id="Grupo_1184468" data-name="Grupo 1184468" transform="translate(0 0)">
                  <path id="Trazado_1047972" data-name="Trazado 1047972" d="M345.832,145.992c-3.529-.2-5.015,1.751-4.871,2.576.643,3.631-.14,7.734-3,9.745.088-.057.046-.034-.017.012l0,0c-.055.037-.206.134-.317.2a.371.371,0,1,0,.334.662c3.634-2.178,5.073-6.868,4.236-10.552a6.625,6.625,0,0,1,6.223-1.287,3.337,3.337,0,0,1,1.363.847l0,.005,0,0,.022.023-.017-.017c.165.184.28.39.5.238C350.775,148.117,348.907,146.177,345.832,145.992Z" transform="translate(-337.428 -145.978)" fill="#330606"/>
                </g>
                <g id="Grupo_1184469" data-name="Grupo 1184469" transform="translate(12.365 2.22)">
                  <path id="Trazado_1047973" data-name="Trazado 1047973" d="M359.889,150.011h0Z" transform="translate(-359.889 -150.011)" fill="#ae411e"/>
                </g>
              </g>
              <g id="Grupo_1184471" data-name="Grupo 1184471" transform="translate(74.136 61.781)">
                <path id="Trazado_1047974" data-name="Trazado 1047974" d="M283.226,163.657a.444.444,0,0,0-.392.244,5.946,5.946,0,0,1-1.776,2.551,5.743,5.743,0,0,1-3.722,1.419,6.066,6.066,0,0,1-2.237-.545.436.436,0,0,0-.419.58c.186.545,2.747,1.423,5.326.249,2.661-1.217,4.5-4.5,3.22-4.5" transform="translate(-274.658 -163.657)" fill="#330606"/>
              </g>
              <g id="Grupo_1184472" data-name="Grupo 1184472" transform="translate(2.237 104.596)">
                <path id="Trazado_1047975" data-name="Trazado 1047975" d="M184.926,353.479q12.505-.9,25.04-1.283c18-.573,36.018-.51,54.026-.422,1.483.007,2.965.023,4.448.031-.762-10.354-1.881-20.471-3.832-26.947,17.207,15.871,38.132,6.807,39.795-7.994,1.588-13.927-8.5-31.956-16.817-45.715-11.678-19.477-30.8-28.482-32-28.482a.692.692,0,0,0-.652.47c-.184.577.3.765.828,1-7.838,1.311-15.728,7.772-22.815,12.187-.837.507-3.148,2.023-3.958,2.556-13.6,8.822-12.181-1.428-18.218-10.394a21.664,21.664,0,0,1-2.628-4.786c-.443-1.357-.268-1.963-1-2-.446-.7-.7-.088-5.673,1.663l.1.013c-22.567,6.012-26.767,17.331-39.632,36.469-.2.3-.658.978-.658.984-9.9,14.723-25.775,39.018-11.58,49.589,11.5,8.492,27.665-2.663,38.367-12.057C188.107,324.867,186.281,339.5,184.926,353.479Z" transform="translate(-144.059 -241.427)" fill="#ed4545"/>
              </g>
              <path id="Trazado_1047976" data-name="Trazado 1047976" d="M300.869,471.3H202.3c3.49-12.128,8.016-26.684,8.8-33.891,31.529-2,52.108-1.085,83.72-.842C295.326,442.74,298.249,457.83,300.869,471.3Z" transform="translate(-168 -224.349)" fill="#5e1f1f"/>
              <g id="Grupo_1184473" data-name="Grupo 1184473" transform="translate(63.34 101.55)">
                <path id="Trazado_1047977" data-name="Trazado 1047977" d="M263.1,235.894c-.031,0-7.984,2.677-8.014,2.687-.707,3.183,9.588,31.806,10.046,33.183a.607.607,0,0,0,.445.383c.324.551,4.137.831,7.4.036L309.2,241.029a57.8,57.8,0,0,0-6.236-4.773c-18.841,8.479-33.534,14.528-33.534,14.528-1.1-2.714-2.25-5.2-4-9.336l0,.113C265.355,241.388,263.266,235.969,263.1,235.894Z" transform="translate(-255.047 -235.894)" fill="#fdfdfd"/>
              </g>
              <g id="Grupo_1184477" data-name="Grupo 1184477" transform="translate(55.08 20.239)">
                <g id="Grupo_1184476" data-name="Grupo 1184476">
                  <g id="Grupo_1184475" data-name="Grupo 1184475">
                    <g id="Grupo_1184474" data-name="Grupo 1184474">
                      <path id="Trazado_1047978" data-name="Trazado 1047978" d="M240.044,88.434l.014-.02c.5-.317.409-.263-.014.02" transform="translate(-240.044 -88.199)" fill="#491010"/>
                    </g>
                  </g>
                </g>
              </g>
              <g id="Grupo_1184478" data-name="Grupo 1184478" transform="translate(113.358 34.984)">
                <path id="Trazado_1047979" data-name="Trazado 1047979" d="M346.463,115c-.21.059-.33.219-.3.522.549,2.7.073,7.9-.261,10.626a.423.423,0,1,0,.846,0,41.244,41.244,0,0,0,.231-10.85.418.418,0,0,0-.518-.3" transform="translate(-345.901 -114.982)" fill="#330606"/>
              </g>
              <g id="Grupo_1184479" data-name="Grupo 1184479" transform="translate(81.575 22.782)">
                <path id="Trazado_1047980" data-name="Trazado 1047980" d="M308,99.174c-.1.015-.075.009,0,0M288.22,92.856c-.017-.013-.033-.026-.05-.038Z" transform="translate(-288.17 -92.818)" fill="#330606"/>
              </g>
              <g id="Grupo_1184480" data-name="Grupo 1184480" transform="translate(80.531 16.971)">
                <path id="Trazado_1047981" data-name="Trazado 1047981" d="M286.273,82.263c.043.055.048.067,0,0" transform="translate(-286.273 -82.263)" fill="#330606"/>
              </g>
              <g id="Grupo_1184481" data-name="Grupo 1184481" transform="translate(150.282 58.61)">
                <path id="Trazado_1047982" data-name="Trazado 1047982" d="M412.97,157.9c.021.019.04.031,0,0m4.486,4.584h0" transform="translate(-412.97 -157.896)" fill="#330606"/>
              </g>
              <g id="Grupo_1184482" data-name="Grupo 1184482" transform="translate(129.668 163.931)">
                <path id="Trazado_1047983" data-name="Trazado 1047983" d="M405.5,349.2a.679.679,0,0,0-.555.3c-3.88,4.793-4,15.066-5.43,17.1l-.068.057a.931.931,0,0,1-.225.011c-1.435-.265-10.559-4.634-19.827-4.634-2.744,0-3.562.638-3.789,3.591-.4,4.733.926,17.948-.06,25.194a.5.5,0,0,0,.063.3.658.658,0,0,0,.458.6c22.837,7.157,39.212-5.068,33.95-30.673-.3-1.453-2.8-11.841-4.517-11.841" transform="translate(-375.528 -349.203)" fill="#ed4545"/>
              </g>
              <g id="Grupo_1184483" data-name="Grupo 1184483" transform="translate(0 173.865)">
                <path id="Trazado_1047984" data-name="Trazado 1047984" d="M156.556,367.249c-.717,0-4.83.156-5.327.653-6.187.891-9.515,2.854-10.859,8.931-2.9,13.149,11.671,20.491,23.228,21.731a.689.689,0,0,0,.6-.3.649.649,0,0,0,.608-.261c6.282-9.182,9.859-25.023,9.356-25.637-.084-.341-.116-.482-.468-.654a39.419,39.419,0,0,0-17.14-4.465" transform="translate(-139.995 -367.249)" fill="#ed4545"/>
              </g>
              <g id="Grupo_1184484" data-name="Grupo 1184484" transform="translate(13.177 170.725)">
                <path id="Trazado_1047985" data-name="Trazado 1047985" d="M163.941,361.866a.422.422,0,0,0,.31.509,45.578,45.578,0,0,1,11.759,4.283.423.423,0,0,0,.4-.744,45.837,45.837,0,0,0-12.061-4.37.416.416,0,0,0-.412.322m7.216,2.578h0" transform="translate(-163.93 -361.545)" fill="#491010"/>
              </g>
              <g id="Grupo_1184485" data-name="Grupo 1184485" transform="translate(140.678 178.207)">
                <path id="Trazado_1047986" data-name="Trazado 1047986" d="M395.7,375.224a.421.421,0,0,0,.2.758c.615.139,1.229.287,1.838.446l-.109-.03a64.688,64.688,0,0,1,11.231,4.141.423.423,0,1,0,.32-.783c-6.008-2.837-12.434-4.62-13.234-4.62a.442.442,0,0,0-.25.089" transform="translate(-395.526 -375.135)" fill="#491010"/>
              </g>
              <g id="Grupo_1184486" data-name="Grupo 1184486" transform="translate(124.784 161.062)">
                <path id="Trazado_1047987" data-name="Trazado 1047987" d="M366.916,344.018c-.861.315.353,1.5,4.511,10.982a.423.423,0,1,0,.8-.287c-1.537-3.5-3.281-6.914-4.765-10.441a.429.429,0,0,0-.542-.254" transform="translate(-366.656 -343.993)" fill="#491010"/>
              </g>
              <g id="Grupo_1184492" data-name="Grupo 1184492" transform="translate(42.457 126.827)">
                <g id="Grupo_1184491" data-name="Grupo 1184491">
                  <g id="Grupo_1184487" data-name="Grupo 1184487">
                    <path id="Trazado_1047988" data-name="Trazado 1047988" d="M226.679,281.808l66.093,7.469c-2.855,25.444-9.6,85.2-9.543,84.649-22.282-2.494-66.309-7.472-66.114-7.45.005-.048,9.514-84.668,9.563-84.668Z" transform="translate(-217.115 -281.808)" fill="#3e82c6"/>
                  </g>
                  <g id="Grupo_1184488" data-name="Grupo 1184488" transform="translate(2.091 2.723)">
                    <path id="Trazado_1047989" data-name="Trazado 1047989" d="M230.478,286.754l66.094,7.469q-4.62,41.437-9.317,82.785l-.156,1.4-.05.492c-24.357-2.7-66.314-7.453-66.136-7.433.012-.094,9.471-84.708,9.564-84.708Z" transform="translate(-220.913 -286.754)" fill="#fdfdfd"/>
                  </g>
                  <g id="Grupo_1184489" data-name="Grupo 1184489" transform="translate(74.095 7.405)">
                    <path id="Trazado_1047990" data-name="Trazado 1047990" d="M351.731,296.907a.462.462,0,0,1,.523-.48.408.408,0,0,1,.105-.29.456.456,0,0,1,.3-.859c.595-.148,4.191,1.228,5.413,4.793-.021.256-.041.512-.06.768a.447.447,0,0,1-.646-.072.421.421,0,0,1-.27-.171.464.464,0,0,1-.78.052c-.605,1.235-1.523-1.752-4.387-3.184A.454.454,0,0,1,351.731,296.907Z" transform="translate(-351.702 -295.258)" fill="#3e82c6"/>
                  </g>
                  <g id="Grupo_1184490" data-name="Grupo 1184490" transform="translate(4.835 5.014)">
                    <path id="Trazado_1047991" data-name="Trazado 1047991" d="M235.461,290.915l-9.563,84.63,66.1,7.468,9.563-84.63-66.1-7.468Z" transform="translate(-225.898 -290.915)" fill="#579bfe"/>
                  </g>
                </g>
              </g>
              <g id="Grupo_1184494" data-name="Grupo 1184494" transform="translate(62.064 164.321)">
                <g id="Grupo_1184493" data-name="Grupo 1184493">
                  <path id="Trazado_1047992" data-name="Trazado 1047992" d="M266.717,350.02c-1.623.5-2.714,2.254-.608,5.827-.573-.383-9.2-5.358-11.752-3.008-1.721,1.6.294,3.482,2.284,4.743,1.951,1.238.889.194-1.713.373-1.353.059-1.98.659-2.145,1.292-.622,2.465,4.272,4.722,6.689,5.824-3.257-.239-5.626,1.6-2.109,3.672,5.96,3.46,17.138,5.1,29.075,9.988,7.213,2.94,14.874,6.6,22.536,9.766,2.665-9.038,5.02-17.371,5.344-27.138-11.263-.894-22.912-1.292-34.093-1.523-5.215-5.38-10.555-10.762-13.507-9.817" transform="translate(-252.729 -349.912)" fill="#ff9d85"/>
                </g>
              </g>
              <g id="Grupo_1184495" data-name="Grupo 1184495" transform="translate(69.873 179.419)">
                <path id="Trazado_1047993" data-name="Trazado 1047993" d="M267.093,377.416a.419.419,0,0,0,.182.76c1.442.378.467.143,5.132,1.55a.423.423,0,1,0,.341-.773c-5.116-1.544-5.329-1.773-5.655-1.536" transform="translate(-266.913 -377.336)" fill="#491010"/>
              </g>
              <g id="Grupo_1184496" data-name="Grupo 1184496" transform="translate(68.651 172.778)">
                <path id="Trazado_1047994" data-name="Trazado 1047994" d="M264.736,365.526c-.365.855,1.672.8,7.41,3.609a.422.422,0,0,0,.337-.773c-.41-.2-7-3.087-7.355-3.087a.428.428,0,0,0-.392.252" transform="translate(-264.694 -365.274)" fill="#491010"/>
              </g>
              <g id="Grupo_1184497" data-name="Grupo 1184497" transform="translate(118.215 175.149)">
                <path id="Trazado_1047995" data-name="Trazado 1047995" d="M360.2,369.581h0s-.019.014-.019.018c-.306,12.623-5.456,28.183-5.456,28.183,4.717,1.462,10.138,3.147,14.766,4.436,3.515-8.462,5.388-18.235,5.736-29.885a50.431,50.431,0,0,0-15.026-2.752" transform="translate(-354.724 -369.581)" fill="#ba3a3a"/>
              </g>
              <g id="Grupo_1184498" data-name="Grupo 1184498" transform="translate(33.253 182.014)">
                <path id="Trazado_1047996" data-name="Trazado 1047996" d="M205.415,390.678a164.629,164.629,0,0,0-5.006,17.57c8.163,1.065,16.594,1.7,24.41,2.749,12.886,1.727,23.251,5.848,30.184,5.81,3.923-.04,3.09-2.779,0-4.23a32.179,32.179,0,0,0,4.786.155c4.7-.3,5.494-3.087,1.091-4.9-1.08-.458-1.25-.28.307-.347,5.769-.234,5.464-3.684,1.894-5.02-3.059-1.13-8.395-1.253-9.241-1.2,4.643-2.651,3.305-5.651.711-6.227a13.709,13.709,0,0,0-4.627.119c-2.366.389-6.952,1.611-6.623,1.527-1.342.348-2.542.684-3.688,1.015-9.409-5.158-20.664-11.1-30.333-15.653a74.334,74.334,0,0,0-3.865,8.627" transform="translate(-200.396 -382.051)" fill="#ff9d85"/>
              </g>
              <g id="Grupo_1184499" data-name="Grupo 1184499" transform="translate(80.627 210.441)">
                <path id="Trazado_1047997" data-name="Trazado 1047997" d="M292.592,435.177a.42.42,0,0,1-.537.569c-1.363-.372-.813-.189-5.223-1.211a.423.423,0,1,1,.09-.84c5.165,1.194,5.5,1.113,5.67,1.481" transform="translate(-286.448 -433.685)" fill="#491010"/>
              </g>
              <g id="Grupo_1184500" data-name="Grupo 1184500" transform="translate(82.574 205.602)">
                <path id="Trazado_1047998" data-name="Trazado 1047998" d="M298.581,426.294c-.107.927-1.812-.139-8.223-.558a.422.422,0,0,1,.092-.839c.457.029,7.6.8,7.917.984a.427.427,0,0,1,.214.413" transform="translate(-289.984 -424.896)" fill="#491010"/>
              </g>
              <g id="Grupo_1184501" data-name="Grupo 1184501" transform="translate(18.096 176.359)">
                <path id="Trazado_1047999" data-name="Trazado 1047999" d="M182.8,371.778c-5.507,10.264-8.753,19.667-9.936,28.757,5.135,1.333,15.42,3.626,15.007,3.532a1.989,1.989,0,0,0,.205-.62c2.325-9.681,4.392-17.807,9.111-26.544A52.009,52.009,0,0,0,182.8,371.778Z" transform="translate(-172.865 -371.778)" fill="#ba3a3a"/>
              </g>
              <g id="Grupo_1184503" data-name="Grupo 1184503" transform="translate(83.439 37.394)">
                <g id="Grupo_1184502" data-name="Grupo 1184502">
                  <path id="Trazado_1048000" data-name="Trazado 1048000" d="M296.227,135.42a8.481,8.481,0,1,0-3.774-11.382,8.182,8.182,0,0,0-.693,1.946,5.716,5.716,0,0,0-.124.707A8.462,8.462,0,0,0,296.227,135.42Z" transform="translate(-291.555 -119.36)" fill="#fcfcfc"/>
                </g>
                <path id="Trazado_1048001" data-name="Trazado 1048001" d="M296.138,135.207a6.208,6.208,0,0,0,11.448.831,5.182,5.182,0,0,0,.43-1.144v-.007a4.449,4.449,0,0,1-2.63-.94.713.713,0,0,1-.1-.11.581.581,0,0,1-.124-.4c.043-.568,1.093-.977,2.477-.977.175,0,.35.007.561.007a5.971,5.971,0,0,0-.27-1.173,6.211,6.211,0,1,0-11.79,3.913Z" transform="translate(-293.47 -122.808)" fill="#330606"/>
              </g>
              <g id="Grupo_1184505" data-name="Grupo 1184505" transform="translate(53.199 35.433)">
                <g id="Grupo_1184504" data-name="Grupo 1184504">
                  <path id="Trazado_1048002" data-name="Trazado 1048002" d="M241.3,131.857a8.481,8.481,0,1,0-3.774-11.382,8.158,8.158,0,0,0-.692,1.946,5.729,5.729,0,0,0-.124.707A8.461,8.461,0,0,0,241.3,131.857Z" transform="translate(-236.627 -115.797)" fill="#fcfcfc"/>
                </g>
                <path id="Trazado_1048003" data-name="Trazado 1048003" d="M241.209,131.643a6.208,6.208,0,0,0,11.448.831,5.185,5.185,0,0,0,.43-1.144v-.007a4.449,4.449,0,0,1-2.63-.94.688.688,0,0,1-.1-.11.578.578,0,0,1-.124-.4c.044-.569,1.093-.977,2.477-.977.175,0,.35.007.561.007a5.971,5.971,0,0,0-.27-1.173,6.211,6.211,0,1,0-11.79,3.914Z" transform="translate(-238.541 -119.244)" fill="#330606"/>
              </g>
              <g id="Grupo_1184509" data-name="Grupo 1184509" transform="translate(68.897 51.086)">
                <g id="Grupo_1184508" data-name="Grupo 1184508">
                  <g id="Grupo_1184506" data-name="Grupo 1184506">
                    <path id="Trazado_1048004" data-name="Trazado 1048004" d="M267.269,152.331a.334.334,0,0,1-.173-.048,4.1,4.1,0,0,1-1.952-3.626c.08-1.74,1.3-3.223,2.186-4.3a.338.338,0,0,1,.522.43c-1.074,1.308-1.969,2.5-2.032,3.906a3.407,3.407,0,0,0,1.62,3.012.339.339,0,0,1-.172.63Z" transform="translate(-265.141 -144.229)" fill="#330606"/>
                  </g>
                  <g id="Grupo_1184507" data-name="Grupo 1184507" transform="translate(4.633 7.151)">
                    <path id="Trazado_1048005" data-name="Trazado 1048005" d="M275.837,158.785h-.015a.339.339,0,0,1-.323-.354.574.574,0,0,0-.517-.532.908.908,0,0,0-.8.44.339.339,0,0,1-.573-.361,1.59,1.59,0,0,1,1.437-.754,1.247,1.247,0,0,1,1.13,1.239A.34.34,0,0,1,275.837,158.785Z" transform="translate(-273.557 -157.219)" fill="#330606"/>
                  </g>
                </g>
              </g>
            </g>
            <g id="Grupo_1184519" data-name="Grupo 1184519" transform="translate(0 70.488)">
              <path id="Trazado_1048006" data-name="Trazado 1048006" d="M58.845,333.237c-23.7,4.02-29.917,13.007-33.932,30.787a87.5,87.5,0,0,0-2.042,23.544c.656,13.082,2.946,24.543,12.088,30.639,10.209,6.812,27.011,5.24,38.893,2.381,7.636-1.837,15.186-5.137,19.393-11.77,8.642-13.587.929-49.991-1.751-63.13-1.45-7.16-2.955-10.984-10.314-12.656-6.9-1.567-15.331-.983-22.335.206" transform="translate(-20.485 -248.064)" fill="#d17624"/>
              <path id="Trazado_1048007" data-name="Trazado 1048007" d="M36.539,345.666c-11.411,8.958-14.394,31.875-13.683,45.96C24,413.858,30.287,426.772,53.567,427.1c-7.769-3.275-12.681-10.661-15.6-18.5-5.7-15.212-9.648-50.722,6.675-67.5a32.3,32.3,0,0,0-8.1,4.563" transform="translate(-20.484 -252.12)" fill="#dd852c"/>
              <path id="Trazado_1048008" data-name="Trazado 1048008" d="M53.821,347.936c-1.913,3.048-2.523,3.368-1.88,3.8a.609.609,0,0,0,.809-.137q1.042-1.5,2.01-3.038a.544.544,0,0,0-.58-.849.516.516,0,0,0-.359.222" transform="translate(-33.49 -255.087)" fill="#d16811"/>
              <path id="Trazado_1048009" data-name="Trazado 1048009" d="M47.2,363.06q-.633,1.371-1.131,2.782c-.261.739.854,1.016,1.08.377.945-2.674,1.6-3.208.8-3.484a.607.607,0,0,0-.75.325" transform="translate(-30.942 -261.828)" fill="#d16811"/>
              <path id="Trazado_1048010" data-name="Trazado 1048010" d="M43.691,375.383a12.251,12.251,0,0,0-.71,2.822.546.546,0,0,0,.51.6c.739.066.6-.655.9-1.866.274-1.007.732-1.639.05-1.877a.6.6,0,0,0-.75.326" transform="translate(-29.571 -267.366)" fill="#d16811"/>
              <path id="Trazado_1048011" data-name="Trazado 1048011" d="M42,387.477c-.362.29-.564,2.417-.592,2.88-.047.788,1.113.758,1.153.1a14.089,14.089,0,0,1,.383-2.515.506.506,0,0,0-.129-.406.59.59,0,0,0-.539-.184.6.6,0,0,0-.276.123" transform="translate(-28.864 -272.904)" fill="#d16811"/>
              <path id="Trazado_1048012" data-name="Trazado 1048012" d="M40.757,400.351c-.43.35-.459,2.352-.43,2.929a.561.561,0,0,0,.664.443c.806-.137.213-.805.71-2.9.109-.431-.511-.807-.944-.467" transform="translate(-28.377 -278.691)" fill="#d16811"/>
              <path id="Trazado_1048013" data-name="Trazado 1048013" d="M40.827,414.29a21.372,21.372,0,0,0,.1,2.765.567.567,0,0,0,.663.443c.771-.131.329-.748.393-3.109a.549.549,0,0,0-.658-.59.568.568,0,0,0-.495.49" transform="translate(-28.601 -284.791)" fill="#d16811"/>
              <path id="Trazado_1048014" data-name="Trazado 1048014" d="M41.677,427.375a.559.559,0,0,0-.1.41c.062.688.146,1.375.257,2.057a.582.582,0,0,0,1.145-.194c-.111-.681-.2-1.368-.257-2.057a.566.566,0,0,0-.663-.443.611.611,0,0,0-.378.227" transform="translate(-28.939 -290.791)" fill="#d16811"/>
              <path id="Trazado_1048015" data-name="Trazado 1048015" d="M43.763,440.884c.2,1.138.429,2.273.7,3.4a.582.582,0,0,0,1.145-.194c-.792-3.337-.553-3.976-1.36-3.84a.57.57,0,0,0-.481.637" transform="translate(-29.922 -296.674)" fill="#d16811"/>
              <path id="Trazado_1048016" data-name="Trazado 1048016" d="M46.749,453.888a12.26,12.26,0,0,0,.74,2.686.59.59,0,0,0,.768.259c.761-.344-.018-.884-.364-3.139a.581.581,0,0,0-1.145.194" transform="translate(-31.265 -302.523)" fill="#d16811"/>
              <path id="Trazado_1048017" data-name="Trazado 1048017" d="M51.068,465.11a.545.545,0,0,0-.287.732,18.954,18.954,0,0,0,1.2,2.535c.4.7,1.376.094,1.055-.474-1.338-2.363-1.068-2.964-1.827-2.835a.574.574,0,0,0-.139.042" transform="translate(-33.058 -307.831)" fill="#d16811"/>
              <path id="Trazado_1048018" data-name="Trazado 1048018" d="M57.269,476.674a.555.555,0,0,0-.287.732,9.711,9.711,0,0,0,1.408,2.365.6.6,0,0,0,.815.061c.516-.4-.019-.873-.372-1.384-.905-1.4-.726-1.935-1.423-1.817a.649.649,0,0,0-.141.042" transform="translate(-35.846 -313.028)" fill="#d16811"/>
              <path id="Trazado_1048019" data-name="Trazado 1048019" d="M64.658,487.43c-.417.55.211.881,2.347,2.5.558.423,1.311-.422.679-.9q-1.124-.855-2.217-1.74a.514.514,0,0,0-.412-.092.634.634,0,0,0-.4.23" transform="translate(-39.262 -317.782)" fill="#d16811"/>
              <path id="Trazado_1048020" data-name="Trazado 1048020" d="M51.3,329.917c-22.561,5.611-28.329,19.248-31.964,41.923-.151.947-1.241,7.856-.382,8.272,3.326,3.792,11.6,2.592,15.3-.572,5.591-4.772,3.522-13.463,5.929-22.863l-.048.137c1.955-7.393,5.992-13.22,21.473-15.846,3.178-.539,19.408-.115,21.773-5.049,1.616-3.354-4.109-12.971-32.078-6" transform="translate(-18.627 -245.98)" fill="#ff4f3f"/>
              <path id="Trazado_1048021" data-name="Trazado 1048021" d="M132.107,333.8c-.42.333-.164.669.129,1.048-.188.319.006.574.189.9a.568.568,0,0,0-.2.211.593.593,0,0,0-.774.625.574.574,0,0,0,.232.353c.258.209.51.423.761.639,2.36,2.083,2.624,3.025,3.254,2.328.511.5,1.342-.194.873-.737h0a.555.555,0,0,0,.377-.63.532.532,0,0,0-.127-.418c-.689-.943-3.777-5.052-4.713-4.317" transform="translate(-69.334 -248.797)" fill="#ff4f3f"/>
              <path id="Trazado_1048022" data-name="Trazado 1048022" d="M127.089,330.414a.535.535,0,0,0,.3.964c5.028.915,8.812,5.909,10.151,10.915a.581.581,0,0,0,1.144-.194c-2.5-9.534-10.618-12.472-11.6-11.685m.422.988h0m2.5.889h0" transform="translate(-67.28 -247.261)" fill="#ff4f3f"/>
              <path id="Trazado_1048023" data-name="Trazado 1048023" d="M135.309,335.543c-.843.381.036,1.149.506,1.75a.509.509,0,0,0,.331.183,51.937,51.937,0,0,0,3.755,5.151.581.581,0,0,0,.781.284.55.55,0,0,0,.285-.729c-1.7-3.951-3.85-5.843-4.444-5.986-.369-.37-.739-.863-1.215-.653" transform="translate(-70.914 -249.598)" fill="#ff4f3f"/>
              <path id="Trazado_1048024" data-name="Trazado 1048024" d="M22.73,420.6c-.433.719.918,1.1,1.727,1.235a.553.553,0,1,0,.3-1.065,4.408,4.408,0,0,1-1.234-.388.611.611,0,0,0-.788.218" transform="translate(-20.434 -287.727)" fill="#fcfcfc"/>
              <path id="Trazado_1048025" data-name="Trazado 1048025" d="M30.4,422.316c-.241.875,1.352.832,2.245.68a.548.548,0,1,0-.32-1.048,3.563,3.563,0,0,1-1.216-.035.6.6,0,0,0-.709.4" transform="translate(-23.906 -288.436)" fill="#fcfcfc"/>
              <path id="Trazado_1048026" data-name="Trazado 1048026" d="M41.269,418.972q-.619.417-1.22.861a.534.534,0,0,0,.151,1c.384.087.4-.076,1.666-.93a.547.547,0,0,0-.4-1.007.494.494,0,0,0-.2.078" transform="translate(-28.128 -287.08)" fill="#fcfcfc"/>
              <path id="Trazado_1048027" data-name="Trazado 1048027" d="M47.758,412.256q-.13.371-.28.736c-.119.276-.371.686-.29.95a.59.59,0,0,0,1.059.1,14.644,14.644,0,0,0,.633-1.527c.213-.616-.852-1.024-1.122-.259m-.307.8-.017.04c0-.013.011-.027.017-.04" transform="translate(-31.457 -283.914)" fill="#fcfcfc"/>
              <path id="Trazado_1048028" data-name="Trazado 1048028" d="M50.663,401.1c-.328.192-.192.242-.6,2.525a.536.536,0,0,0,.414.663.6.6,0,0,0,.709-.4c.129-.727.24-1.458.337-2.19a.544.544,0,0,0-.654-.667.61.61,0,0,0-.205.073" transform="translate(-32.752 -279.048)" fill="#fcfcfc"/>
              <path id="Trazado_1048029" data-name="Trazado 1048029" d="M51.184,390.843a8.467,8.467,0,0,0-.3,2.539.557.557,0,0,0,.587.531c.761-.022.5-.692.712-2.712.049-.428-.6-.742-.994-.358" transform="translate(-33.123 -274.399)" fill="#fcfcfc"/>
              <path id="Trazado_1048030" data-name="Trazado 1048030" d="M52.027,380.7a10.177,10.177,0,0,0-.21,2.431.58.58,0,0,0,1.157-.034c-.07-1.986.555-2.619-.238-2.8a.6.6,0,0,0-.709.405m1.022.8h0" transform="translate(-33.542 -269.73)" fill="#fcfcfc"/>
              <path id="Trazado_1048031" data-name="Trazado 1048031" d="M55.779,369.038a.57.57,0,0,0-.344.263c-.429.925-1.125,3.107-.035,3.076.892-.027.281-.908,1.043-2.553a.548.548,0,0,0-.665-.786m.641.826c-.026.065-.023.051,0,0" transform="translate(-34.894 -264.665)" fill="#fcfcfc"/>
              <path id="Trazado_1048032" data-name="Trazado 1048032" d="M63.52,359.383c-.843.838-1.611,1.439-1.079,1.919a.6.6,0,0,0,.819-.027q.529-.585,1.09-1.142c.536-.535-.3-1.276-.829-.751" transform="translate(-38.241 -260.256)" fill="#fcfcfc"/>
              <path id="Trazado_1048033" data-name="Trazado 1048033" d="M72.188,353.177c-.281.213-.555.43-.818.66-.5.438.2,1.3.829.751.275-.238.351-.294.57-.47-.008,0,.023-.019,0,0a.554.554,0,1,0-.585-.94m.591.934c.05-.037.063-.048,0,0" transform="translate(-42.256 -257.5)" fill="#fcfcfc"/>
              <path id="Trazado_1048034" data-name="Trazado 1048034" d="M80.51,350.1l-1.066.233a.561.561,0,0,0-.4.688c.189.612.9.321,1.785.127a.548.548,0,1,0-.323-1.047" transform="translate(-45.775 -256.153)" fill="#fcfcfc"/>
              <path id="Trazado_1048035" data-name="Trazado 1048035" d="M79.98,179.974c-7.209,1.223-13.868,4.659-17.231,11.116a12.142,12.142,0,0,0-2.434-3.419,5.771,5.771,0,0,0-2.287-1.391,5.187,5.187,0,0,0-2.05-.15,2,2,0,0,0-1.326.76c-.889,1.208.222,3.406,1.03,4.672a14.715,14.715,0,0,0-4.041-1.426,4.269,4.269,0,0,0-1.35,0,2.87,2.87,0,0,0-1.538.741,3.231,3.231,0,0,0-.84,1.305c-.585,1.831,1.347,2.971,3.2,3.547,1.6.495.913-.22-3.082,1.744C37.2,202.8,31.218,215.8,32.814,228.2c2.618,20.409,28.116,30.828,36.618,29.386,5.239-.945,23.054-15.915,40.538-26.391.908.187,5.511-5.222,6.954-11.724,1.7-7.671-2.293-15.279-6.59-15.96,9.082-15.178-12.243-26.613-30.354-23.541M36.791,210.592c.072-.145.064-.138.132-.255q-.067.127-.132.255m-3.057,15.8h0a1.216,1.216,0,0,1,0-.142c.018.34.031.491,0,.143" transform="translate(-24.889 -179.472)" fill="#491010"/>
              <path id="Trazado_1048036" data-name="Trazado 1048036" d="M167.148,374.966a.559.559,0,0,0-.463.653c.037.122.07.24.1.363a.374.374,0,0,0-.327-.085,8.132,8.132,0,0,0-3.131,1.274c-3.609,2.572-3.751,16.349,1.632,13.019,1.408-.881,2.366-2.474,2.931-4.868.853-3.61.633-10.589-.744-10.355" transform="translate(-82.507 -267.338)" fill="#753f89"/>
              <path id="Trazado_1048037" data-name="Trazado 1048037" d="M169.373,381.85a20.258,20.258,0,0,0-.569-6.426.565.565,0,0,0-1.113.192c.037.122.07.24.1.363-.222-.227-2.782.4-3.872,1.553a5.556,5.556,0,0,0-.933,1.4C165.717,381.513,167.729,381.984,169.373,381.85Z" transform="translate(-83.513 -267.335)" fill="#fcfcfc"/>
              <path id="Trazado_1048038" data-name="Trazado 1048038" d="M105.874,338.514a.4.4,0,0,0-.01.131,5.049,5.049,0,0,0-1.195.387.553.553,0,0,0,.341,1.051c.039-.007.569-.224.723-.275a7.214,7.214,0,0,1,1.426-.222,13.72,13.72,0,0,1,1.536.033.547.547,0,0,0-.3.288.525.525,0,0,0,.347.712,26.989,26.989,0,0,1,10.172,5.075l-.02-.023.028.022,0,.005a.056.056,0,0,1,.014.009h0c10,8.351,10.967,22.17,4.279,33.439l.052-.068a40.593,40.593,0,0,1-14.359,13.37v0l0,0,0,0a56.087,56.087,0,0,1-12.234,5.21l.081-.012c-5.473,1.567-6.013.989-6.035,2.059v0a1.661,1.661,0,0,0,.285.84l.012.019a4.244,4.244,0,0,0,.711.805.019.019,0,0,1,.008.007,5.866,5.866,0,0,0,1.14.758h0a4.268,4.268,0,0,0,.57.229c.059-.009,2.585-.452,2.529-.473a53.542,53.542,0,0,0,23.642-12.212c24.955-22.161,8.344-52.353-13.53-51.329h0c-.149.01-.173-.024-.209.164" transform="translate(-51.027 -250.871)" fill="#491010"/>
              <path id="Trazado_1048039" data-name="Trazado 1048039" d="M91.227,451.343c0-.009-.011-.02,0,0" transform="translate(-51.256 -301.664)" fill="#292929"/>
              <path id="Trazado_1048040" data-name="Trazado 1048040" d="M91.237,451.359h0" transform="translate(-51.262 -301.674)" fill="#292929"/>
              <path id="Trazado_1048041" data-name="Trazado 1048041" d="M91.245,451.371c0-.006-.009-.017,0,0" transform="translate(-51.264 -301.678)" fill="#292929"/>
              <path id="Trazado_1048042" data-name="Trazado 1048042" d="M92.55,452.847c-.006-.007-.014-.013,0,0" transform="translate(-51.849 -302.342)" fill="#292929"/>
              <path id="Trazado_1048043" data-name="Trazado 1048043" d="M93.487,455.09" transform="translate(-52.274 -303.353)" fill="#292929"/>
              <path id="Trazado_1048044" data-name="Trazado 1048044" d="M157.233,356.272c-.933.479-1.408,1.557-1.268,1.771v0a2.115,2.115,0,0,0,.688.805l-.03-.021a3.174,3.174,0,0,0,1.468.6.137.137,0,0,1-.028.27,3.36,3.36,0,0,0-.353.029,2.332,2.332,0,0,0-.554.149h0l-.013,0a1.782,1.782,0,0,0-.291.177,1.359,1.359,0,0,0-.41,1.359l0,.023a7.2,7.2,0,0,0,2.48,2.982c-2.512,1.118.762,5.051,3.139,6.478,3.6,2.154,4.449-2.845,3.376-4.4,1.206-1.306.285-3.7-1.282-4.83.7-3.261-3.464-7.165-6.931-5.395" transform="translate(-80.345 -258.739)" fill="#ff9d85"/>
              <path id="Trazado_1048045" data-name="Trazado 1048045" d="M155.968,359.818h0" transform="translate(-80.356 -260.529)" fill="#ff9d85"/>
              <path id="Trazado_1048046" data-name="Trazado 1048046" d="M155.985,359.851v0" transform="translate(-80.365 -260.546)" fill="#ff9d85"/>
              <path id="Trazado_1048047" data-name="Trazado 1048047" d="M158.134,363.179l.007,0h0l-.008,0" transform="translate(-81.331 -262.041)" fill="#ff9d85"/>
              <path id="Trazado_1048048" data-name="Trazado 1048048" d="M158.134,363.182" transform="translate(-81.331 -262.044)" fill="#ff9d85"/>
              <line id="Línea_696" data-name="Línea 696" transform="translate(76.803 101.138)" fill="#ff9d85"/>
              <path id="Trazado_1048049" data-name="Trazado 1048049" d="M158.117,363.186c.01,0,.013,0,0,0" transform="translate(-81.323 -262.044)" fill="#ff9d85"/>
              <path id="Trazado_1048050" data-name="Trazado 1048050" d="M157.6,356.555c-1.756.879-2.121,3.275,1.353,3.88a.547.547,0,0,0,.069-1.092c-3.324-.546-.885-2.982,1.868-1.719.207.1.348.215.577.17a.549.549,0,0,0,.193-1,4.322,4.322,0,0,0-4.06-.243m1.348,2.776h0" transform="translate(-80.504 -258.885)" fill="#ff9d85"/>
              <path id="Trazado_1048051" data-name="Trazado 1048051" d="M157.052,356.445a3.146,3.146,0,0,0-1.232,1.413c-.936,2.153,2.372,3.244,2.45,2.06.015-.287-.137-.519-.579-.591-2.019-.432-.339-2.334,1.192-2.315a.547.547,0,0,0,.069-1.092,3.336,3.336,0,0,0-1.9.525m.6.9c-.042.031-.06.041,0,0m-.053,1.964c.068.013.057.012,0,0" transform="translate(-80.216 -258.779)" fill="#ff9d85"/>
              <path id="Trazado_1048052" data-name="Trazado 1048052" d="M157.256,362c-2.212,1.763-.333,4.419,2.057,5.9a.547.547,0,0,0,.6-.916c-1.25-.775-3.614-2.823-1.932-4.162a.548.548,0,0,0-.726-.82" transform="translate(-80.494 -261.447)" fill="#ff9d85"/>
              <path id="Trazado_1048053" data-name="Trazado 1048053" d="M161.613,370.678a.274.274,0,1,0,.144.529c1.776-.339,3.61.717,5.147,1.705a.4.4,0,0,0,.4-.7c-1.8-1.048-3.76-1.933-5.693-1.532" transform="translate(-82.803 -265.368)" fill="#491010"/>
              <path id="Trazado_1048054" data-name="Trazado 1048054" d="M158.455,361.877a.2.2,0,0,0,.2.194,5.6,5.6,0,0,1,1.218.019,8.4,8.4,0,0,1,3.268,1.175c1.218.7,1.461,1.156,1.836.784.865-.854-3.341-2.875-6.342-2.368a.2.2,0,0,0-.178.2m1.4.213c-.038-.006-.03,0,0,0" transform="translate(-81.475 -261.333)" fill="#491010"/>
              <path id="Trazado_1048055" data-name="Trazado 1048055" d="M110.268,318.471a6.6,6.6,0,0,0-5,3.313.345.345,0,0,0-.121-.136.553.553,0,0,0-.771.13c-.219.3-.083.32.343,2.071-.036.576,1.39,4.148.4,8.529-.2.848-.591,1.475.035,1.713,2.989,2.831,12.674,6.311,15.881,2.212.484-.619,1.072-2.079.82-2.629-2.128-4.737-1.929-9.411-2.117-10.318-.026-.565.068-1.12-.436-1.246-1.007-2.329-4.85-4.349-9.035-3.639m10.54,15.593c-.179-.416-.346-.837-.5-1.266q.235.643.5,1.246Z" transform="translate(-57.123 -241.883)" fill="#ff9d85"/>
              <path id="Trazado_1048056" data-name="Trazado 1048056" d="M107.91,319.2a5.892,5.892,0,0,0-2.662,2.57c0-.1-.245-.284-.526-.236a.56.56,0,0,0-.46.653q.23.823.435,1.658a.706.706,0,0,0,.146.609c.174.773.309,1.506.408,2.2a14.583,14.583,0,0,0,2.234,1.409c-.02-.014.045.026.02.01h0a21.108,21.108,0,0,0,10.548,2.026h-.007a22.053,22.053,0,0,0,2.521-.306,35.931,35.931,0,0,1-.852-6.98c-.021-.321-.035-.634-.424-.724-.964-2.931-7.012-5.057-11.381-2.894" transform="translate(-57.11 -241.878)" fill="#491010" opacity="0.25"/>
              <path id="Trazado_1048057" data-name="Trazado 1048057" d="M110.151,336.041h0" transform="translate(-59.763 -249.844)" fill="#eaad93"/>
              <path id="Trazado_1048058" data-name="Trazado 1048058" d="M129.36,339.725c-.02,0-.04.007,0,0" transform="translate(-68.388 -251.5)" fill="#eaad93"/>
              <path id="Trazado_1048059" data-name="Trazado 1048059" d="M172.166,247.371a4.814,4.814,0,0,0-2.191.979.606.606,0,0,0-.387.264c-.078.163-.089.187-.089.187a4.963,4.963,0,0,0-1.172,2.858.607.607,0,0,0,.273.557,13.968,13.968,0,0,0,2.57,9.712c2.193,2.795,4.053,2.006,1.8,2.8-.3.1-.819.187-.978.429a.608.608,0,0,0,.53.939,8.218,8.218,0,0,0,5.932-5.347c2.687-6.328.152-14.47-6.283-13.379" transform="translate(-85.911 -209.946)" fill="#e9a88f"/>
              <path id="Trazado_1048060" data-name="Trazado 1048060" d="M176.252,251.307a6.43,6.43,0,0,0-4.469,5.055.379.379,0,0,0,.746.131,6.271,6.271,0,0,1,3.915-4.68.271.271,0,1,0-.192-.506m-.63.853c-.065.036-.086.045,0,0" transform="translate(-87.463 -211.752)" fill="#cf9580"/>
              <path id="Trazado_1048061" data-name="Trazado 1048061" d="M55.748,268.148a8.9,8.9,0,0,0,8.56-.586c1.735,2.806,6.131,6.333,13.022,8.112h.007a35.989,35.989,0,0,0,6.731,1.048h.007c20.236,1.4,47.908-13.8,35.478-36.266a20.091,20.091,0,0,1-1.793-4.064c-.629-1.95-1.261-6.832-2.97-12.054a21.3,21.3,0,0,0-28.8-12.81c-13.955,6.1-35.091,18.609-26.7,35.427,2.878,5.784,4.382,4.692,1.063,3.919C48.388,248.034,44.752,263.477,55.748,268.148Z" transform="translate(-32.354 -193.072)" fill="#ff9d85"/>
              <path id="Trazado_1048062" data-name="Trazado 1048062" d="M91.115,260.907c-1.257,1.434-1.7,2.862-1.116,3.638,1.066,1.421,4.878.051,7.174-2.568,1.258-1.435,1.7-2.864,1.117-3.64-1.072-1.428-4.884-.043-7.175,2.569" transform="translate(-50.593 -214.662)" fill="#330606"/>
              <g id="Grupo_1184514" data-name="Grupo 1184514" transform="translate(65.164 50.921)">
                <g id="Grupo_1184513" data-name="Grupo 1184513">
                  <g id="Grupo_1184511" data-name="Grupo 1184511" transform="translate(4.459)">
                    <path id="Trazado_1048063" data-name="Trazado 1048063" d="M145.759,280.072a.333.333,0,0,0,.173-.048,4.1,4.1,0,0,0,1.952-3.626c-.08-1.74-1.3-3.223-2.186-4.3a.339.339,0,0,0-.523.43c1.074,1.307,1.969,2.5,2.032,3.906a3.405,3.405,0,0,1-1.62,3.013.339.339,0,0,0,.173.63Z" transform="translate(-145.092 -271.966)" fill="#330606"/>
                  </g>
                  <g id="Grupo_1184512" data-name="Grupo 1184512" transform="translate(0 7.154)">
                    <path id="Trazado_1048064" data-name="Trazado 1048064" d="M137.332,286.527h.015a.34.34,0,0,0,.323-.354.575.575,0,0,1,.517-.533.908.908,0,0,1,.8.44.339.339,0,0,0,.573-.361,1.59,1.59,0,0,0-1.437-.754,1.247,1.247,0,0,0-1.13,1.239A.34.34,0,0,0,137.332,286.527Z" transform="translate(-136.992 -284.961)" fill="#330606"/>
                  </g>
                </g>
              </g>
              <path id="Trazado_1048065" data-name="Trazado 1048065" d="M92.929,309.054A8.688,8.688,0,0,0,97,316.414h.007a35.982,35.982,0,0,0,6.731,1.048h.007a8.68,8.68,0,1,0-10.816-8.408Z" transform="translate(-52.023 -233.812)" fill="#ff4f3f" opacity="0.3"/>
              <path id="Trazado_1048066" data-name="Trazado 1048066" d="M161.623,303.63c5.083-3.738,8.785-8.626,9.681-14.4a8.586,8.586,0,0,0-4.757-1.424A8.687,8.687,0,0,0,161.623,303.63Z" transform="translate(-81.212 -228.163)" fill="#ff4f3f" opacity="0.3"/>
              <g id="Grupo_1184515" data-name="Grupo 1184515" transform="translate(60.834 58.534)">
                <path id="Trazado_1048067" data-name="Trazado 1048067" d="M129.544,285.794a.444.444,0,0,1,.392.244,5.945,5.945,0,0,0,1.776,2.551,5.743,5.743,0,0,0,3.722,1.419,6.066,6.066,0,0,0,2.237-.545.436.436,0,0,1,.419.58c-.186.544-2.747,1.423-5.326.249-2.662-1.217-4.5-4.5-3.22-4.5" transform="translate(-129.128 -285.794)" fill="#330606"/>
              </g>
              <path id="Trazado_1048068" data-name="Trazado 1048068" d="M64.184,290.259c-1.488,3.4-.132,9.451,3.995,11.153a.27.27,0,0,0,.347-.157c.122-.31-.314-.406-.62-.563a5.415,5.415,0,0,1-1.113-.8c-2.281-2.154-3.3-6.368-1.719-9.3.259-.5-.614-.968-.889-.335m.83.443h0m-.037.07c-.028.052-.024.041,0,0M64.526,292c-.012.055-.013.054,0,0m-.009.042c-.016.072-.021.087,0,0m1.21,6.57h0c0-.008-.008-.013,0,0" transform="translate(-38.841 -229.13)" fill="#cf9580"/>
              <path id="Trazado_1048069" data-name="Trazado 1048069" d="M56.235,289.728c-2.678.587-4.359,3.044-3.93,3.325a.212.212,0,0,0,.289-.062,4.882,4.882,0,0,1,.6-.912,4.805,4.805,0,0,1,.811-.739,5.775,5.775,0,0,1,5.152-.545.58.58,0,0,0,.692-.818c-.32-.605-2.679-.46-3.618-.25" transform="translate(-33.735 -228.947)" fill="#cf9580"/>
              <path id="Trazado_1048070" data-name="Trazado 1048070" d="M113.876,492.467v0h0" transform="translate(-61.438 -320.153)" fill="#ba7f26"/>
              <g id="Grupo_1184516" data-name="Grupo 1184516" transform="translate(29.755 159.113)">
                <path id="Trazado_1048071" data-name="Trazado 1048071" d="M152.133,483.152a.555.555,0,0,1-.352.54.546.546,0,0,1-.242.413c-.87.617-1.723,1.189-2.566,1.729H121.022c.3-4.824.7-8.047,4.393-10.636,2.764-1.938,6.5-2.835,9.508-3.711,3.573-1.039,7.809-2.343,12.046-2.224a.55.55,0,0,1,.963-.523A37.754,37.754,0,0,1,152.133,483.152Z" transform="translate(-94.405 -468.488)" fill="#3e82c6"/>
                <path id="Trazado_1048072" data-name="Trazado 1048072" d="M144.693,481.21c.013.08.013.1,0,0" transform="translate(-105.045 -474.206)" fill="#385283"/>
                <path id="Trazado_1048073" data-name="Trazado 1048073" d="M93.126,478.039c.226.011.374.016.4.016A3.491,3.491,0,0,0,93.126,478.039Zm13.224,11.539c3.414-8.747,3.124-9.286,2.395-9.243-.429.028-.523.413-.622.831-5.761-3.962-18.784-5.957-27.411-2.758a.621.621,0,0,0-.3-.358.589.589,0,0,0-.27-.05.75.75,0,0,0-.16.033.6.6,0,0,0-.314.286c-.622,1.106-1.288,2.208-2.026,3.369l.028-.061c-4.261,6.579-5.313,6.854-4.922,7.52a.585.585,0,0,0,.171.429" transform="translate(-72.675 -472.232)" fill="#579bfe"/>
              </g>
              <path id="Trazado_1048074" data-name="Trazado 1048074" d="M93.54,342.929a.581.581,0,0,0-.122.4c.04,1.254.037,2.535,0,3.913l.012-.069c-.365,11.033-3.131,21.77-5.211,33.508-1.675,9.452-6.312,28.132-6.479,28.682l.023-.045a22.566,22.566,0,0,1-1.409,3.5c-3.6,2.622,3.149,7.952,10.121,10.009,14.289,4.231,30.5.972,38.722-3.755,5.548-3.187,9.938-9.044,5.4-10.63-.772-15.979-8.174-50.446-21.379-63.373-.342-.272-.744-.6-1.07-.892a6.665,6.665,0,0,0-1.377-.762c-.368.062-.405.32-.548.64a4.748,4.748,0,0,1-.536.831,4.954,4.954,0,0,1-.8.736c-2.4,1.646-5.459,1.17-7.376.956v-.007c-2.338-.454-5.328-1.574-6.71-3.512a.64.64,0,0,0-.342-.3,3.425,3.425,0,0,0-.579-.036.563.563,0,0,0-.34.2" transform="translate(-45.921 -252.85)" fill="#8b509e"/>
              <path id="Trazado_1048075" data-name="Trazado 1048075" d="M89.994,377.406c-.885,4.482-1.168,5.907-1.78,9.357l-.026.141c-1.534,8.7-6.286,27.988-6.451,28.539A22.113,22.113,0,0,1,80.35,418.9a2.342,2.342,0,0,0-.873,1.12c-1,2.894,5.059,7.153,11,8.9,10.712,3.172,23.082,2.315,32.938-1.142-11.509,2.612-30.838,1.745-32.69-9.788-.879-5.437,1.782-11.639,3.467-18.739l-.008.034a85.452,85.452,0,0,0-.907-43.036,175.551,175.551,0,0,1-3.287,21.152" transform="translate(-45.928 -258.93)" fill="#753f89"/>
              <path id="Trazado_1048076" data-name="Trazado 1048076" d="M124.354,343.139c-1.6,4.083-7.161,3.862-11.326,2.372a1.1,1.1,0,0,0-.7,2.077c5.379,1.926,11.9,1.7,14.093-3.723a11.486,11.486,0,0,0-1.786-1.147,1.237,1.237,0,0,0-.279.421" transform="translate(-60.408 -252.846)" fill="#fcfcfc"/>
              <path id="Trazado_1048077" data-name="Trazado 1048077" d="M90.142,341.964a.433.433,0,0,0-.006.131c-2.132.424-1.311,1.516-.732,1.418a5.111,5.111,0,0,1,3.264-.393.546.546,0,0,0,.056,1,24.614,24.614,0,0,1,9.128,5.252l-.019-.023.025.021,0,.005a.051.051,0,0,1,.013.009h0c9.031,8.507,10.164,22.292,4.435,33.412l.045-.067A35.933,35.933,0,0,1,93.855,395.78v0l0,0,0,0a45.061,45.061,0,0,1-10.763,4.961l.072-.01c-4.866,1.469-5.314.874-5.32,1.937v0a3.793,3.793,0,0,0,1.963,2.464h0a4.007,4.007,0,0,0,.512.24l.51-.083c.535-.095,1.066-.2,1.6-.312l.119-.031.009,0c20.246-4.389,38.127-26.221,28.949-47.8-4.327-10.165-13.8-15.575-21.18-15.345h0c-.128.01-.153-.025-.181.162" transform="translate(-45.242 -252.431)" fill="#491010"/>
              <path id="Trazado_1048078" data-name="Trazado 1048078" d="M78.331,453.9c0-.009-.013-.022,0,0" transform="translate(-45.459 -302.813)" fill="#292929"/>
              <path id="Trazado_1048079" data-name="Trazado 1048079" d="M78.34,453.915l0-.006Z" transform="translate(-45.465 -302.822)" fill="#292929"/>
              <path id="Trazado_1048080" data-name="Trazado 1048080" d="M78.349,453.927c0-.007-.01-.016,0,0" transform="translate(-45.468 -302.827)" fill="#292929"/>
              <path id="Trazado_1048081" data-name="Trazado 1048081" d="M79.535,455.425c-.009-.009-.01-.008,0,0" transform="translate(-46 -303.501)" fill="#292929"/>
              <path id="Trazado_1048082" data-name="Trazado 1048082" d="M80.41,457.678" transform="translate(-46.397 -304.516)" fill="#292929"/>
              <path id="Trazado_1048083" data-name="Trazado 1048083" d="M82.243,342.315c-23.164,8.516-21.879,50.619-3.191,55.956a11.958,11.958,0,0,0,8.381-.608c4.806-2.211,6.337-6.095,5.581-11.373a33.89,33.89,0,0,0-1.733-6.336,25.538,25.538,0,0,1,.548-5.21,52.087,52.087,0,0,1,.333-7.438c.758-6.249,3.282-12.567,1.069-19.834v0A7.462,7.462,0,0,0,91.4,344.4l.025.028c-2.79-3.086-5.512-3.467-9.186-2.117M66.01,373.666l0-.09c0,.13,0,.258.009.386-.007-.1-.01-.2-.014-.3" transform="translate(-39.445 -252.332)" fill="#8b509e"/>
              <path id="Trazado_1048084" data-name="Trazado 1048084" d="M84.621,439.346c.084.064.105.088,0,0m.08.066.029.025Z" transform="translate(-48.289 -296.277)" fill="#e1771c"/>
              <path id="Trazado_1048085" data-name="Trazado 1048085" d="M83.409,438.854h0" transform="translate(-47.744 -296.056)" fill="#e1771c"/>
              <path id="Trazado_1048086" data-name="Trazado 1048086" d="M83.53,438.7c.129.1.158.13,0,0" transform="translate(-47.799 -295.988)" fill="#e1771c"/>
              <path id="Trazado_1048087" data-name="Trazado 1048087" d="M79.823,344.828c-.125.021-1.805,1.115-1.91,1.186-17.721,11.924-16.368,42.361-2.922,51.961a10.946,10.946,0,0,0,2.214,1.361c-.615-.5-1.184-1-1.681-1.467-5.788-5.467-8.376-13.573-8.657-21.53-.407-11.5,3.955-24.247,12.964-31.49Z" transform="translate(-39.361 -253.794)" fill="#753f89"/>
              <path id="Trazado_1048088" data-name="Trazado 1048088" d="M108.5,371.815c-2.383,4.988-4.671,10.383-4.187,15.915.068.816.334,2.384,1.1,2.678a.883.883,0,0,0,1.188-.715,5.088,5.088,0,0,0,.059-1.543,37.471,37.471,0,0,1,.853-10.634,27.84,27.84,0,0,1,1.833-5.382.451.451,0,1,0-.844-.319m-1.9,14.939c0,.127,0,.119,0,0" transform="translate(-57.112 -265.792)" fill="#753f89"/>
              <path id="Trazado_1048089" data-name="Trazado 1048089" d="M128.984,358.636a3.59,3.59,0,0,0-2.633,3.158.541.541,0,0,0-.1-.1c-3.212-2.683-4.993,1-4.338,5.11.347,2.2,2.191,4.725,2.445,7.147a.531.531,0,0,0-.326.214c-.228.322-.036.707.215,1.319-.186.6.07.894.446.9a8.712,8.712,0,0,0,4.462,3.851c8.033,2.894,11.185-11.891,6.648-15.37-.124-2.181-1.49-4.087-3.724-3.821a4.389,4.389,0,0,0-.285-.785,2.629,2.629,0,0,0-2.81-1.625" transform="translate(-64.991 -259.984)" fill="#ff9d85"/>
              <path id="Trazado_1048090" data-name="Trazado 1048090" d="M139.1,364.254a9.149,9.149,0,0,1-.217,2.82,12.561,12.561,0,0,1-.871,2.5.4.4,0,0,0,.541.5.379.379,0,0,0,.2-.219c.115-.446.247-.888.362-1.335.313-1.225.923-4.673.181-4.548a.247.247,0,0,0-.2.281m-.226,2.858c0-.008.007-.03.009-.038,0,.013-.006.025-.009.038" transform="translate(-72.27 -262.398)" fill="#491010"/>
              <path id="Trazado_1048091" data-name="Trazado 1048091" d="M145.52,371.041a8.417,8.417,0,0,1-.881,3.1c-.217.39-.6.755-.243,1.016a.359.359,0,0,0,.538-.165,15.285,15.285,0,0,0,.957-3.912.186.186,0,0,0-.37-.037" transform="translate(-75.09 -265.501)" fill="#491010"/>
              <path id="Trazado_1048092" data-name="Trazado 1048092" d="M107.2,389.949a.467.467,0,0,0-.325.192,20.181,20.181,0,0,1-2.488,2.88c-3.814,3.626-8.67,5.958-12.835,9.121-10.062,7.637-12.287,20.024,5.118,19.662,8.869-.177,15.461-5.26,18.887-13.52a41.453,41.453,0,0,0,2.643-12.957.52.52,0,0,0-.577-.587,23.222,23.222,0,0,1-5.671-1.926,27.026,27.026,0,0,1-4.289-2.708c-.015-.016-.032-.031-.051-.047a.541.541,0,0,0-.411-.108" transform="translate(-47.913 -274.072)" fill="#8b509e"/>
              <path id="Trazado_1048093" data-name="Trazado 1048093" d="M123.561,385.812a20.494,20.494,0,0,1-2.007,2.559,18.277,18.277,0,0,0,2.751,2.467l-.03-.021a21.4,21.4,0,0,0,4.888,2.667h0a16.324,16.324,0,0,0,6.326,1.152c.118-1.309.184-2.554.229-3.7.053-1.115-1.48-.12-6.692-2.469-4.149-1.925-4.926-3.492-5.461-2.661" transform="translate(-64.889 -272.112)" fill="#fcfcfc"/>
              <path id="Trazado_1048094" data-name="Trazado 1048094" d="M104.918,390.625s-1.556,2.044-8.428,6.735c-1.707,1.161-3.624,2.465-5.378,3.884a23.284,23.284,0,0,0-6.479,7.786c-.169.33-.145.245.426-.39A31.685,31.685,0,0,1,91,403.811c1.985-1.34,13.309-8.38,15.344-11.767-.835-.756-1.431-1.419-1.431-1.419" transform="translate(-48.254 -274.378)" fill="#753f89"/>
              <path id="Trazado_1048095" data-name="Trazado 1048095" d="M120.317,401.9s-2.919,22.8-23.648,24.181a22.293,22.293,0,0,1-4.627-.116c-1.145-.155,1.583.6,3.866.86,13.429,1.573,24.572-6.643,26.2-24.851,0,0-.992,0-1.722-.073a.4.4,0,0,0-.069,0" transform="translate(-51.504 -279.447)" fill="#753f89"/>
              <path id="Trazado_1048096" data-name="Trazado 1048096" d="M96,189.231c-11.524,1.955-36.708,14.275-40.388,30.037-1.893,8.11,3.009,16,3.51,16.482,2.5,5.225,7.547,9.014,11.179,4.977,2.76-3.052.667-7.816-1.226-11.424,11.224-1.9,26.137-17.939,24.872-31.627,5.832-2.839,13.868-.6,18.2,3.166l0,0v.006l.007.007-.007-.007h0c.17.145.334.3.5.449,1.064.986,1.466-1.823,1.464-2.885,0-4.553-6.843-11.088-18.106-9.177m-9.507,4.056-.535.205.4-.155s0,0,0,0h0v0Z" transform="translate(-35.054 -183.705)" fill="#491010"/>
              <path id="Trazado_1048097" data-name="Trazado 1048097" d="M102.756,282.394a5.978,5.978,0,0,0,.59,2.428c3.5-.91,3.831-3.27-.59-2.428" transform="translate(-56.44 -225.652)" fill="#61aa9d"/>
              <path id="Trazado_1048098" data-name="Trazado 1048098" d="M156.323,265.661a6.079,6.079,0,0,0,.518,2.205c2.686-.724,3.2-2.888-.518-2.205" transform="translate(-80.517 -218.152)" fill="#61aa9d"/>
              <g id="Grupo_1184517" data-name="Grupo 1184517" transform="translate(41.769 48.539)">
                <path id="Trazado_1048099" data-name="Trazado 1048099" d="M96.2,281.582a8.752,8.752,0,0,0,15.472-7.591c-.014-.072-.036-.145-.058-.217a8.522,8.522,0,0,0-1.287-2.559,8.742,8.742,0,0,0-6.919-3.572,8.109,8.109,0,0,0-1.62.116A8.775,8.775,0,0,0,96.2,281.582Z" transform="translate(-94.496 -267.639)" fill="#fcfcfc"/>
              </g>
              <g id="Grupo_1184518" data-name="Grupo 1184518" transform="translate(72.13 40.158)">
                <path id="Trazado_1048100" data-name="Trazado 1048100" d="M151.113,264.914c4.758,7.143,14.656,1.959,12.443-6.5a.213.213,0,0,0-.014-.065c0-.014-.021-.085-.021-.108a.866.866,0,0,0-.058-.181,7.541,7.541,0,0,0-7.2-5.64,6.9,6.9,0,0,0-.846.08C150.274,253.367,147.888,260.077,151.113,264.914Z" transform="translate(-149.646 -252.416)" fill="#fcfcfc"/>
              </g>
              <path id="Trazado_1048101" data-name="Trazado 1048101" d="M103.124,284.925c4.335,2.616,8.983-.84,9.388-3.352-3.825-.634-3.869-3.014.384-2.478a6.45,6.45,0,1,0-9.771,5.83Z" transform="translate(-55.203 -221.489)" fill="#330606"/>
              <path id="Trazado_1048102" data-name="Trazado 1048102" d="M154.314,268.311c4.335,2.616,8.983-.84,9.388-3.352-3.825-.634-3.869-3.014.384-2.478a6.45,6.45,0,1,0-9.771,5.83Z" transform="translate(-78.211 -214.022)" fill="#330606"/>
              <path id="Trazado_1048103" data-name="Trazado 1048103" d="M150.084,238.455c-1.88.319-3.121,1.151-3.161,2.118-.07,1.775,3.751,3.118,7.186,2.535,1.881-.319,3.123-1.151,3.163-2.118.069-1.784-3.763-3.116-7.188-2.535" transform="translate(-76.292 -205.921)" fill="#330606"/>
            </g>
            <g id="Grupo_1184529" data-name="Grupo 1184529" transform="translate(207.965 72.797)">
              <path id="Trazado_1048104" data-name="Trazado 1048104" d="M407.267,373.047c.665.269.992.837.809,1.112-.092.138-.176.273-.257.416a1.009,1.009,0,0,1,.656.073,25.575,25.575,0,0,1,5.958,3.419,7.1,7.1,0,0,1,.758.707c5.833,6.314,3.6,22.384-5.979,15.371-5.168-3.811-6.279-10.695-4.9-16.769a12.09,12.09,0,0,1,1.608-4.093.688.688,0,0,1,.509-.347,1.572,1.572,0,0,1,.84.111" transform="translate(-399.701 -268.729)" fill="#ffae42"/>
              <path id="Trazado_1048105" data-name="Trazado 1048105" d="M405.346,379.35a6.012,6.012,0,0,1-1.231-.237,25.032,25.032,0,0,1,.668-2.979,15.023,15.023,0,0,1,1.261-3.177.622.622,0,0,1,.3-.308.565.565,0,0,1,.743.733c-.063.111-.12.219-.177.332.35-.229,1.99.892,2.32,1.146a4.841,4.841,0,0,1,1.131,1.2,5.552,5.552,0,0,1,.612,1.567A9.718,9.718,0,0,1,405.346,379.35Z" transform="translate(-399.857 -268.588)" fill="#fcfcfc"/>
              <g id="Grupo_1184528" data-name="Grupo 1184528">
                <path id="Trazado_1048106" data-name="Trazado 1048106" d="M517.407,421.614c-.121,15.459-5.291,23.326-12.877,27.169h-30.3c-10.647-5.114-18.586-15.679-20.326-25.682-1.508-8.744,1.527-17.155,7.35-23.794a38.027,38.027,0,0,1,34.568-12.778c10.04,1.614,17,6.518,19.4,16.488a.56.56,0,0,1,.534.49A104.788,104.788,0,0,1,517.407,421.614Z" transform="translate(-422.064 -274.634)" fill="#579bfe"/>
                <path id="Trazado_1048107" data-name="Trazado 1048107" d="M507.552,446.975a19.35,19.35,0,0,1-3.011,1.767H474.206c-10.719-5.153-18.614-15.773-20.32-25.677-1.523-8.725,1.555-17.2,7.355-23.805,7.718-8.825,19.984-14.584,32.713-13.048.617.072,1.244.165,1.866.264.05.006.1.016.16.028-1.448,11.363-2.175,25.539-.606,37.409q.3,2.255.71,4.388C497.5,435.579,500.544,444.492,507.552,446.975Z" transform="translate(-422.053 -274.593)" fill="#3e82c6"/>
                <path id="Trazado_1048108" data-name="Trazado 1048108" d="M529.434,451.81a.554.554,0,0,0-.524.575,10.809,10.809,0,0,0,.42,2.918.551.551,0,0,0,.924-.428c-.337-2.4-.058-3.1-.82-3.066" transform="translate(-455.948 -304.188)" fill="#fcfcfc"/>
                <path id="Trazado_1048109" data-name="Trazado 1048109" d="M530.657,463.525a.555.555,0,0,0-.524.575c.11,1.047.275,2.088.483,3.12a.532.532,0,0,0,.266.319.552.552,0,0,0,.743-.226.587.587,0,0,0,.039-.427c-.042-.215-.084-.428-.124-.642l.012.069c-.381-2.087-.151-2.816-.895-2.789m.877,2.68c.021.114-.014-.058,0,0" transform="translate(-456.496 -309.454)" fill="#fcfcfc"/>
                <path id="Trazado_1048110" data-name="Trazado 1048110" d="M533.625,476.632a.557.557,0,0,0-.357.692,11.4,11.4,0,0,0,.769,2.007.545.545,0,0,0,.758.17c.6-.379,0-.776-.479-2.51a.559.559,0,0,0-.691-.358" transform="translate(-457.897 -315.334)" fill="#fcfcfc"/>
                <path id="Trazado_1048111" data-name="Trazado 1048111" d="M537.778,485.335c-.749.471.516,1.849,1.083,2.355a.55.55,0,0,0,.75-.8,4.639,4.639,0,0,1-1.073-1.381.552.552,0,0,0-.76-.17m1.331,1.043h0" transform="translate(-459.83 -319.22)" fill="#fcfcfc"/>
                <path id="Trazado_1048112" data-name="Trazado 1048112" d="M543.769,491.817a.555.555,0,0,0,.045.776,15.187,15.187,0,0,0,1.7,1.373.55.55,0,0,0,.731-.823c-1.609-1.121-1.953-1.915-2.472-1.326" transform="translate(-462.565 -322.08)" fill="#fcfcfc"/>
                <path id="Trazado_1048113" data-name="Trazado 1048113" d="M482.419,337.2c-5.488-.884-28.333-2.436-38.168,4.129a17.936,17.936,0,0,0-3.437,3.006c-2.984,3.352-4.467,7.784-5.04,12.369a.513.513,0,1,0,1.01.162c.108-.858.237-1.643.391-2.4.188.523.667.249,1.153.1a8.674,8.674,0,0,1,3.658-.079c1.345.217,19.335,4.392,34.893,14.7h0l0,0h0c.009.007.06.035.07.04l0,0c.014.013.063.025.047.023,13.162,8.911,29.566,30.074,33.519,13.464,1.192-4.993.032-11.548-1.266-16.516-4.572-17.433-11.138-26.475-26.83-29" transform="translate(-414.084 -252.305)" fill="#4a4a4a"/>
                <path id="Trazado_1048114" data-name="Trazado 1048114" d="M470.625,340.638c-5.883-.89-20.7-.909-28.233,3.548a16.172,16.172,0,0,0-1.51,1.021l-.17.134q-.3.306-.587.628c-3,3.352-4.494,7.833-5.058,12.372a.527.527,0,1,0,1.038.167c.107-.867.236-1.653.391-2.4.124.535.685.249,1.149.108a8.784,8.784,0,0,1,3.673-.072c1.381.222,19.423,4.4,35.061,14.722l.074.042c13.268,8.95,29.094,29.348,33.523,14.353a5.293,5.293,0,0,1-2.176.865c-6.295.791-7.5-8.9-8.457-14.657-.192-1.152-.4-2.169-.344-1.877-.1-.477-.215-.951-.329-1.424a46.106,46.106,0,0,0-3.523-10.283h0a30.838,30.838,0,0,0-10.61-11.992h0a34.044,34.044,0,0,0-13.911-5.253" transform="translate(-413.766 -254.009)" fill="#3b3b3b"/>
                <path id="Trazado_1048115" data-name="Trazado 1048115" d="M482.069,338.991h0" transform="translate(-434.894 -253.48)" fill="#9e0d23"/>
                <path id="Trazado_1048116" data-name="Trazado 1048116" d="M543.369,416.769a.544.544,0,0,0-.2.75,9.687,9.687,0,0,0,1.229,1.434.551.551,0,0,0,.774-.783,8.984,8.984,0,0,1-.865-.946c-.171-.226-.291-.477-.571-.522a.565.565,0,0,0-.364.067" transform="translate(-462.32 -288.406)" fill="#4a4a4a"/>
                <path id="Trazado_1048117" data-name="Trazado 1048117" d="M548.894,421.775a.547.547,0,0,0,0,.778c.221.258.835.913,1.176.916a.552.552,0,0,0,.391-.942,5.413,5.413,0,0,1-.792-.756.548.548,0,0,0-.779,0" transform="translate(-464.858 -290.615)" fill="#4a4a4a"/>
                <path id="Trazado_1048118" data-name="Trazado 1048118" d="M554.356,425.642c-.349.612.511,1,1.535,1.453a.551.551,0,0,0,.545-.957,10.767,10.767,0,0,1-1.33-.7.555.555,0,0,0-.751.205" transform="translate(-467.35 -292.301)" fill="#4a4a4a"/>
                <path id="Trazado_1048119" data-name="Trazado 1048119" d="M562.965,426.107c-.923.465-1.078.4-1.173.753a.551.551,0,0,0,.388.674c.279.076,1.058-.333,1.332-.473a.55.55,0,0,0-.547-.955" transform="translate(-470.719 -292.602)" fill="#4a4a4a"/>
                <path id="Trazado_1048120" data-name="Trazado 1048120" d="M436.714,183.763c-4.983-.8-10.389,3.54-10.113,7.976l-.085-.044,0,0a13.633,13.633,0,0,1-2.727-1.921l.036.042c-1.738-1.569-8.467-9.513-16.783-3.876-9.233,6.284-6.371,21.819.347,26.9-5.144,3.08-6.333,10.446-5.356,16.32,2.882,17.489,26.586,25.158,38.17,29.941,6.366,2.613,11.239,2.8,13.8,5.981a.562.562,0,0,0,.5.247.555.555,0,0,0,.265.143c5.6,1.268,12.881-2.023,14.279-8.005,9.579-1.873,16.539-10.806,12.284-20.881,3.306-1.754,5.469-5.568,6.018-9.285a10.745,10.745,0,0,0-1.832-8.216,8.6,8.6,0,0,0-1-1.083,8.965,8.965,0,0,0-1.407-1.026c.363-.092.733-.182,1.1-.272.223-.055.446-.108.668-.166a25.91,25.91,0,0,0,2.856-.881c2.464-.95,3.647-2.156,3.62-3.686a3.715,3.715,0,0,0-.409-1.468,3.382,3.382,0,0,0-.867-1.112,3.776,3.776,0,0,0-1.281-.679,3.866,3.866,0,0,0-.6-.143,6.657,6.657,0,0,0-.816-.075,8.012,8.012,0,0,0-1.476.1,14.576,14.576,0,0,0-1.613.347,25.378,25.378,0,0,0-3.961,1.519,23.685,23.685,0,0,0,1.142-4.251,5.635,5.635,0,0,0-.174-2.854c-.684-1.63-3.461-3.106-5.434,1.39-1.169,2.665-.576,2.788-1.17,1.788a10.1,10.1,0,0,0-4.355-3.652c-4.238-2.085-9.347-2.768-12.439-4.284l.052.036c-7.331-3.718-13.809-13.675-21.235-14.872" transform="translate(-398.536 -183.667)" fill="#491010"/>
                <path id="Trazado_1048121" data-name="Trazado 1048121" d="M424.442,225.453a8.681,8.681,0,0,0-5.293,1.206c5.419.973.816-5.442,0,0l-.026.013a17.708,17.708,0,0,0-3.222,2.362l0,0a20.389,20.389,0,0,0-3.37,4.21l.018-.029a26.506,26.506,0,0,0-3.91,13.633v-.008a42.209,42.209,0,0,0,1.186,10.555,38.868,38.868,0,0,0,10.859,9.574,116.922,116.922,0,0,0,7.807-18.27c0,.013-.008.023-.012.035,3.448-11.438,2.04-21.472-3.331-23.126h0a4.859,4.859,0,0,0-.709-.156m-15.8,21.359c0,.026,0,.05,0,0" transform="translate(-401.886 -201.994)" fill="#491010"/>
                <path id="Trazado_1048122" data-name="Trazado 1048122" d="M427.724,228.473l.007,0v0l-.007.005" transform="translate(-410.468 -203.803)" fill="#cb222a"/>
                <path id="Trazado_1048123" data-name="Trazado 1048123" d="M421.83,232.789s0,0,0,0Z" transform="translate(-407.819 -205.745)" fill="#cb222a"/>
                <path id="Trazado_1048124" data-name="Trazado 1048124" d="M464.551,331.42c-3.7-.6-6.8,1.343-8.753,4.631a.552.552,0,0,0-1.064.257,15.232,15.232,0,0,1-2.208,9.776.554.554,0,0,0,.074.783,5.068,5.068,0,0,0,.666,2.622c2.656,4.479,13.479,1.708,15.8-2.927a.559.559,0,0,0-.415-.78,18.108,18.108,0,0,1-.289-3.763l-.013.124a19.516,19.516,0,0,1,1.118-5.922.557.557,0,0,0-.234-.716c-.281-2.282-2.382-3.712-4.687-4.083" transform="translate(-421.559 -250.029)" fill="#ff9d85"/>
                <path id="Trazado_1048125" data-name="Trazado 1048125" d="M465.309,331.317c-3.444-.17-6.126,1.763-7.886,4.726a.512.512,0,0,0-.566-.36.568.568,0,0,0-.5.625,15.091,15.091,0,0,1-.323,5.258l.147.035a17.6,17.6,0,0,0,13.487-2.164c.938-.6.551-.178,1.029-1.919a1.8,1.8,0,0,0,.105-.368c.264-.829.6-1.356.073-1.657a3.765,3.765,0,0,0-.394-1.311,6.033,6.033,0,0,0-5.173-2.865" transform="translate(-423.193 -250.026)" fill="#491010" opacity="0.25"/>
                <path id="Trazado_1048126" data-name="Trazado 1048126" d="M406.343,266.878c-4.954-.8-7.639,5.4-7.082,10.7a11.258,11.258,0,0,0,1.3,4.263,8.459,8.459,0,0,0,1.282,1.752,7.68,7.68,0,0,0,1.726,1.352A8.563,8.563,0,0,0,407.86,286a.557.557,0,0,0,.3-.981.6.6,0,0,0-.415-.124,8.525,8.525,0,0,1-1.278-.108,8.973,8.973,0,0,0,3.933-5.713c.946-3.6.375-8.456-2.222-11.119a.552.552,0,0,0-.309-.62,7.476,7.476,0,0,0-.812-.29.545.545,0,0,0-.17-.058.5.5,0,0,0-.058,0c-.163-.038-.321-.073-.482-.1" transform="translate(-397.642 -221.036)" fill="#f28b77"/>
                <path id="Trazado_1048127" data-name="Trazado 1048127" d="M405.854,270.961a.254.254,0,0,0-.251.249c0,.292.308.24.6.28a4.007,4.007,0,0,1,1.654.722,10.136,10.136,0,0,1,2.719,4,11.123,11.123,0,0,1,.532,1.561.571.571,0,0,0,1.1-.3c-.791-3.108-3.138-6.388-6.353-6.513m2.017,1.262c.05.036.055.041,0,0" transform="translate(-400.525 -222.903)" fill="#330023"/>
                <path id="Trazado_1048128" data-name="Trazado 1048128" d="M452.785,222.465c-6.567-1.058-15.125-.549-21.963-.695l.142.04c-2.126-.091-3.771-.215-5.172-.4a.593.593,0,0,0-.416.1.513.513,0,0,0-.516-.069c-9.8,3.558-13.973,13.219-15.293,23.562-.715,5.637-.56,7.879-2.1,14.257-.757,3.155-1.541,6.417-1.039,9.7.634,4.191,3.774,9.786,9.95,14.007,16.252,11.116,40.781,6.967,49.089-5.064,4.46,1.238,10.266-.206,13.127-4.578,4.846-7.438-2.661-18-13.015-11.818.367-.631,6.634-14.122,3.611-25.976-2.061-8.081-8.172-11.738-16.4-13.064" transform="translate(-400.824 -200.629)" fill="#ff9d85"/>
                <path id="Trazado_1048129" data-name="Trazado 1048129" d="M513.4,292.383c-.014.012,0,0,0,0" transform="translate(-448.973 -232.531)" fill="#e69565"/>
                <path id="Trazado_1048130" data-name="Trazado 1048130" d="M446.62,243.02h0" transform="translate(-418.96 -210.344)" fill="#e69565"/>
                <path id="Trazado_1048131" data-name="Trazado 1048131" d="M424.495,239.006h0" transform="translate(-409.017 -208.54)" fill="#e69565"/>
                <path id="Trazado_1048132" data-name="Trazado 1048132" d="M519.137,296.385a.565.565,0,0,0-.126.783,6.383,6.383,0,0,1,.672.965c1.608,3.024.451,7.111-1.854,9.315-.69.632-1.174.724-.9,1.1a.328.328,0,0,0,.452.073,8.9,8.9,0,0,0,2.347-2.32c3.717-5.288.63-10.775-.589-9.915" transform="translate(-450.527 -234.289)" fill="#330023"/>
                <path id="Trazado_1048133" data-name="Trazado 1048133" d="M520.62,296.122a.446.446,0,0,0,.621.059h0a4.273,4.273,0,0,1,2.106-.644,8.353,8.353,0,0,1,3.959.963c.017.016.065.029.032.018a4.977,4.977,0,0,1,1.355,1.037.148.148,0,0,0,.228-.188,8.781,8.781,0,0,0-3.792-2.371C522.024,294.04,520.049,295.437,520.62,296.122Zm1.567-.387-.037.011Zm5.152.781c-.055-.028-.032-.014,0,0" transform="translate(-452.178 -233.56)" fill="#330023"/>
                <path id="Trazado_1048134" data-name="Trazado 1048134" d="M427.987,483.736H396.381a19.814,19.814,0,0,1,.925-5.792c1.4-4.729,2.995-9.772,5.621-13.923a.546.546,0,0,1,.9.617c4.261.319,8.186,1.971,11.77,3.413a62.628,62.628,0,0,1,6.469,2.846c3.512,1.921,5.753,4.377,5.9,9.166C428,481.181,428.048,482.458,427.987,483.736Z" transform="translate(-396.38 -309.586)" fill="#ba3a3a"/>
                <path id="Trazado_1048135" data-name="Trazado 1048135" d="M452.283,474.9c.039,0,.088.005.143.005h.044a.741.741,0,0,1,.1.011c-.121-.006-.226-.011-.292-.016s-.11-.006-.11-.006m19.516,13.312a.564.564,0,0,0,.055-.209c.457-.622-.562-1-4.151-7.972l.022.061c-.617-1.228-1.167-2.389-1.679-3.557a.6.6,0,0,0-.286-.314.424.424,0,0,0-.149-.044.52.52,0,0,0-.275.022.6.6,0,0,0-.33.319,19.5,19.5,0,0,0-6.518-2.142c-5.494-.886-12.816-.98-18.393,1a17.625,17.625,0,0,0-2.637,1.167c-.06-.424-.116-.82-.539-.886a.543.543,0,0,0-.507.193c-.325.38.974,6.045,2.885,12.365" transform="translate(-414.301 -314.059)" fill="#ed4545"/>
                <path id="Trazado_1048136" data-name="Trazado 1048136" d="M452.509,348.323c.158.081.079.02,0,0" transform="translate(-421.608 -257.674)" fill="#333"/>
                <path id="Trazado_1048137" data-name="Trazado 1048137" d="M431.738,353.121c-5.721-.145-10.237,3.859-10.75,3.914l0,0a36.282,36.282,0,0,0-6.862,6.338c-3.489,4.189-5.734,8.074-5.883,15.762-.165,8.412,3.807,18.42,4.622,18.606a26.62,26.62,0,0,0,3.439,8.541.557.557,0,0,0,.836-.721c-7.657-11.868-4.931-37.474,10.344-48.817,4.964-3.7,6.875-3.552,4.252-3.62" transform="translate(-401.711 -259.829)" fill="#491010"/>
                <path id="Trazado_1048138" data-name="Trazado 1048138" d="M441.47,354.813h0" transform="translate(-416.646 -260.589)" fill="#333"/>
                <path id="Trazado_1048139" data-name="Trazado 1048139" d="M453.939,353.807c.4-.158-.248.2.679-.3l-.123-.041-.556.339" transform="translate(-422.251 -259.987)" fill="#333"/>
                <path id="Trazado_1048140" data-name="Trazado 1048140" d="M440.709,362.228c.181-.137.21-.182,0,0" transform="translate(-416.304 -263.87)" fill="#333"/>
                <path id="Trazado_1048141" data-name="Trazado 1048141" d="M446.854,354.488a.547.547,0,0,0-.3.136c-3.33,3.083-12.14,6.931-14.7,2.526l.024.069-.025-.072-.037-.054,0,0c-1.066-2.307-.11-3.576-1.052-3.727a70.56,70.56,0,0,0-7.1,3.149c-15.5,15.746-14.113,25.748-18.168,38.52-4.607,14.378-4.565,20.757,9.83,26.633a62.922,62.922,0,0,0,13.642,3.806c5.549.894,16.541,1.649,21.883-1.662,8.106-5.027,5.773-18.77,4.347-31.528-2.317-20.586,1.349-30.058-6.032-36.649a3.9,3.9,0,0,0-1.768-.877.542.542,0,0,0-.54-.271" transform="translate(-399.255 -259.942)" fill="#ffae42"/>
                <path id="Trazado_1048142" data-name="Trazado 1048142" d="M457.063,365.074a28.847,28.847,0,0,0-2.278,3.126l.018-.03a25.378,25.378,0,0,0-2.793,6.153c.006-.009,0-.023,0,.015l0-.009a36.909,36.909,0,0,0-.742,15.513c.7,5.03,2.019,9.977,2.8,14.758.971,6.019,1.5,13.687-2.6,18.21-2.734,3.027-6.832,4.1-10.865,4.435q-1.33.109-2.666.123a52.766,52.766,0,0,1-18.694-2.912,62.568,62.568,0,0,0,17.124,5.353c4.813.775,16.339,1.774,21.893-1.667,8.106-5.022,5.779-18.753,4.349-31.539-2.144-19.094.63-26.657-3.62-33.625-.669.671-1.312,1.368-1.918,2.094" transform="translate(-406.653 -264.262)" fill="#ea942d"/>
                <path id="Trazado_1048143" data-name="Trazado 1048143" d="M484.1,355.954a22.059,22.059,0,0,0-3.442-.291,6.56,6.56,0,0,1-1.224.667c-.691,3.45-1.728,6.219-2.138,10.247-1.363,13.313,8.215,16.739,12.423,19.368l-.118-.088c4.676,3,8.774,6.178,13.342,6.914,5.637.908,14.117-2.683,9.492-14.349-4.86-12.271-18.49-20.883-28.334-22.468" transform="translate(-432.689 -260.973)" fill="#ffae42"/>
                <path id="Trazado_1048144" data-name="Trazado 1048144" d="M483.912,355.693c-.429-.028-.875-.045-1.359-.049a.559.559,0,0,0-.432.274c-.132-.15-.568-.106-.748.238,11.762.422,23.137,8.791,28.633,17.187a18.531,18.531,0,0,1,1.444,2.359,26.786,26.786,0,0,1,2.466,14.08c7.543-8.919-10.321-32.655-30-34.089" transform="translate(-434.582 -260.965)" fill="#ea942d"/>
                <path id="Trazado_1048145" data-name="Trazado 1048145" d="M468.662,354.014c-3.436,2.571-10.88,4.606-13.666,1.843a4.969,4.969,0,0,1-1.1-2.85,6.028,6.028,0,0,1-.051-1.091,17.222,17.222,0,0,0-1.732,1.247c.1,7.949,11.35,7.111,17.682,2.41a.963.963,0,0,0-1.129-1.56" transform="translate(-421.428 -259.289)" fill="#fcfcfc"/>
                <path id="Trazado_1048146" data-name="Trazado 1048146" d="M483.594,354.264c.178-.019.074-.024,0,0" transform="translate(-435.58 -260.337)" fill="#333"/>
                <path id="Trazado_1048147" data-name="Trazado 1048147" d="M476.689,354.748c.012,0,0,0-.017,0l-.009,0h0a5.636,5.636,0,0,0-1.295.076c-6.93,5.912-11.113,19.024-8,29.912,3.427,11.943,15.831,20.16,16.654,20.293a.513.513,0,0,0,.254-.026l.038.043a27.374,27.374,0,0,0,7.279,5.312.556.556,0,0,0,.463-1.011,27.547,27.547,0,0,1-7.755-5.9c-8.9-9.522-13.984-25.286-10.381-37.468l.017-.076h.007a23.5,23.5,0,0,1,2.466-5.477l-.008.01a21.672,21.672,0,0,1,3.477-4.226v0c.221-.2.443-.358.426-.659l-.291-.1a14.608,14.608,0,0,0-3.328-.708" transform="translate(-427.818 -260.558)" fill="#491010"/>
                <path id="Trazado_1048148" data-name="Trazado 1048148" d="M485.107,354.752h0Z" transform="translate(-436.26 -260.564)" fill="#333"/>
                <path id="Trazado_1048149" data-name="Trazado 1048149" d="M471.967,390.1a21.7,21.7,0,1,0,17.975,24.877A21.727,21.727,0,0,0,471.967,390.1" transform="translate(-419.047 -276.329)" fill="#491010"/>
                <path id="Trazado_1048150" data-name="Trazado 1048150" d="M475.016,390.746c4.614,4.689,8.049,11.213,10.132,17.431.05.149.1.3.148.445l5.766-1.836a15.109,15.109,0,0,1,3.26-12.514,21.7,21.7,0,0,0-19.306-3.527" transform="translate(-431.724 -276.338)" fill="#de5f26"/>
                <path id="Trazado_1048151" data-name="Trazado 1048151" d="M494.436,424.854a55.63,55.63,0,0,1,2.225,22.226,21.727,21.727,0,0,0,13.8-13.638c-.135-.037-.268-.078-.4-.121a15.173,15.173,0,0,1-9.951-10.273l-5.672,1.807" transform="translate(-440.453 -291.26)" fill="#e06b19"/>
                <path id="Trazado_1048152" data-name="Trazado 1048152" d="M449.7,404.543a15.127,15.127,0,0,1,11.543,4.122,15.6,15.6,0,0,1,3.1,4.143l3.117-.992,5.155-1.642c-2.11-6.412-5.65-13.2-10.425-17.8A21.75,21.75,0,0,0,449.7,404.543" transform="translate(-420.344 -277.472)" fill="#de5f26"/>
                <path id="Trazado_1048153" data-name="Trazado 1048153" d="M477.778,428.182l-4.671,1.488a14.957,14.957,0,0,1,1.061,5.681,15.147,15.147,0,0,1-6.217,12.144,21.735,21.735,0,0,0,15.367,1.82c.368-2.765.387-5.456.366-4.533a56.354,56.354,0,0,0-1.626-14.66c.01.043.019.084.03.127q-.391-1.593-.865-3.163l-3.446,1.1" transform="translate(-428.549 -293.075)" fill="#de5f26"/>
                <path id="Trazado_1048154" data-name="Trazado 1048154" d="M508.267,401.008a13.758,13.758,0,0,0-1.867,9.677l8.956-2.851a21.834,21.834,0,0,0-5.956-8.374,14.947,14.947,0,0,0-1.133,1.548" transform="translate(-445.736 -280.659)" fill="#e06b19"/>
                <path id="Trazado_1048155" data-name="Trazado 1048155" d="M507.12,419.921a13.839,13.839,0,0,0,9.255,9.454s.073.023.185.052a21.654,21.654,0,0,0-.317-12.41l-9.123,2.9" transform="translate(-446.154 -288.55)" fill="#e06b19"/>
                <path id="Trazado_1048156" data-name="Trazado 1048156" d="M507.225,408.183c.055-.163.073-.246,0,0" transform="translate(-446.201 -284.51)" fill="#e06b19"/>
                <path id="Trazado_1048157" data-name="Trazado 1048157" d="M523.872,439.445c-.141-.047-.173-.048,0,0" transform="translate(-453.63 -298.615)" fill="#e06b19"/>
                <path id="Trazado_1048158" data-name="Trazado 1048158" d="M449.912,416.9a14.891,14.891,0,0,0-2.023.1,21.713,21.713,0,0,0-.451,11.8q7.141-2.275,14.283-4.548c-.023-.045-.047-.089-.07-.134l-.01-.019,0,.005-.01-.021a13.914,13.914,0,0,0-4.743-5.058,13.853,13.853,0,0,0-6.976-2.127" transform="translate(-419.055 -288.499)" fill="#de5f26"/>
                <path id="Trazado_1048159" data-name="Trazado 1048159" d="M452.421,416.9h0Z" transform="translate(-421.568 -288.498)" fill="#e06b19"/>
                <path id="Trazado_1048160" data-name="Trazado 1048160" d="M473.723,429.966c0,.01.008.015,0,0" transform="translate(-431.143 -294.37)" fill="#e06b19"/>
                <path id="Trazado_1048161" data-name="Trazado 1048161" d="M448.6,437.158a21.8,21.8,0,0,0,9.33,12.036,13.794,13.794,0,0,0,6.169-11.059,15.059,15.059,0,0,0-.378-3.669l0-.014,0,.014a.092.092,0,0,0,0-.02.067.067,0,0,0-.005-.02.143.143,0,0,1,0-.016,14.826,14.826,0,0,0-.613-1.867l-14.5,4.616" transform="translate(-419.851 -295.528)" fill="#de5f26"/>
                <path id="Trazado_1048162" data-name="Trazado 1048162" d="M469.95,424.768l-.035-.039.035.039" transform="translate(-429.431 -292.016)" fill="#e06b19"/>
                <path id="Trazado_1048163" data-name="Trazado 1048163" d="M473.682,429.894c.052.1-.112-.206,0,0" transform="translate(-431.107 -294.305)" fill="#e06b19"/>
                <path id="Trazado_1048164" data-name="Trazado 1048164" d="M476.038,435.918l0,.01a.248.248,0,0,0-.006-.031c0,.007,0,.014,0,.021" transform="translate(-432.182 -297.036)" fill="#e06b19"/>
                <path id="Trazado_1048165" data-name="Trazado 1048165" d="M472.92,455.169l.069-.106c-.023.033-.046.071-.069.106" transform="translate(-430.782 -305.65)" fill="#e06b19"/>
                <path id="Trazado_1048166" data-name="Trazado 1048166" d="M516.24,417h0l0,0-9.121,2.9a13.8,13.8,0,0,0,9.2,9.455,2.285,2.285,0,0,0,.241.072,19.694,19.694,0,0,0,.492-2.234,21.426,21.426,0,0,0-.8-10.191s-.009-.008-.011-.008" transform="translate(-446.152 -288.541)" fill="#de5f26"/>
                <path id="Trazado_1048167" data-name="Trazado 1048167" d="M509.391,399.441h0a16.463,16.463,0,0,0-1.139,1.553,13.758,13.758,0,0,0-1.869,9.685c3.373-1.058,8.995-2.851,8.97-2.844a21.759,21.759,0,0,0-5.953-8.393l-.006,0" transform="translate(-445.727 -280.65)" fill="#de5f26"/>
                <path id="Trazado_1048168" data-name="Trazado 1048168" d="M500.107,394.329a16.769,16.769,0,0,1,1.686,6.244c.1,1.382-.151.592.8-1.631a15.472,15.472,0,0,1,2.321-3.779,21.577,21.577,0,0,0-6.347-3.349,16.962,16.962,0,0,1,1.537,2.516" transform="translate(-442.311 -277.222)" fill="#df6317"/>
                <path id="Trazado_1048169" data-name="Trazado 1048169" d="M503,418.414q-.132.478-.286.95l.8-.254c-.394-2.215-.023-2.48-.512-.7" transform="translate(-444.175 -288.651)" fill="#df6317"/>
                <path id="Trazado_1048170" data-name="Trazado 1048170" d="M494.707,446.251c-1.129-.08-2.144-.136-3.282-.108a6.538,6.538,0,0,0-1.765.26,1.381,1.381,0,0,0-.947.828c-.286.729.4,1.413,1.028,1.872a7.656,7.656,0,0,0,2.587,1.113l-.342.1a15.135,15.135,0,0,0-4.864,2.22c-1.217,1.075-1.009,3.42,2.331,2.918,1.617-.234.988-.482.165.6a2.023,2.023,0,0,0-.473,1.157c-.049.672.587,2.3,3.453,1.636,2.847-.66.871-.9,1.222.9.488,2.416,7.194,1.654,12.509-5.975a.4.4,0,0,0,.145-.018c1.635-.437-1.865-6.782-7.8-7.2l-.687-.046c-.568-.04-2.025-.159-2.018-.158-.421-.034-.843-.068-1.263-.1" transform="translate(-436.86 -301.638)" fill="#ff9d85"/>
                <path id="Trazado_1048171" data-name="Trazado 1048171" d="M505.676,461.884a.354.354,0,0,0-.215.1c-.325.3-.645.594-.976.881a11.139,11.139,0,0,1-2.329,1.581,7.808,7.808,0,0,1-1.359.523.152.152,0,0,0-.095.194.157.157,0,0,0,.193.1,10.658,10.658,0,0,0,1.38-.459,13.177,13.177,0,0,0,3.654-2.4.315.315,0,0,0-.187-.522.3.3,0,0,0-.067,0" transform="translate(-443.266 -308.716)" fill="#d0855a"/>
                <path id="Trazado_1048172" data-name="Trazado 1048172" d="M498.478,456.719a15.675,15.675,0,0,1-4.268,2.717.232.232,0,0,0,.149.44,15.7,15.7,0,0,0,3.407-1.869,9.706,9.706,0,0,0,1.067-.878.271.271,0,0,0,.023-.331.264.264,0,0,0-.182-.118.268.268,0,0,0-.2.039m-3.533,2.389-.019.01Z" transform="translate(-440.28 -306.375)" fill="#d0855a"/>
                <path id="Trazado_1048173" data-name="Trazado 1048173" d="M515.417,389c-6.2-1-11.247.873-11.682,1.307a.554.554,0,0,0-.479.618.48.48,0,0,0,.18.343,12.056,12.056,0,0,1,3.632,4.411l-.019-.067c3.239,6.97.721,18.791-5.02,24.407a.516.516,0,0,0-.137.449,4.285,4.285,0,0,0,.543,1.769,7.535,7.535,0,0,0,.882,1.32c3.452,4.235,9.419,5.314,10.149,4.611,12.407-11.861,14.083-26.9,9.456-36.242-.268-.546-3.618-2.3-7.507-2.926" transform="translate(-443.801 -275.826)" fill="#ffae42"/>
                <path id="Trazado_1048174" data-name="Trazado 1048174" d="M528.49,393.485c5.062,12.154-.288,28.658-10.828,36.163a7.133,7.133,0,0,0,2.54.2c.963.064,16.613-15.223,10.945-33.565a19.052,19.052,0,0,0-1.122-2.8,9.582,9.582,0,0,0-2.136-1.309q.323.65.6,1.319" transform="translate(-450.892 -277.38)" fill="#ea942d"/>
                <path id="Trazado_1048175" data-name="Trazado 1048175" d="M503.554,393.417a.2.2,0,0,0-.161.363c3.237,2.749,4.348,6.88,4.362,11.11l.024-.122c-.075,5.642-1.643,13.244-5.74,16.916a.651.651,0,1,0,.8,1.024c4.844-4.606,9.718-20.929,1.262-28.837-.151-.142-.308-.28-.467-.415a.175.175,0,0,0-.084-.04" transform="translate(-443.758 -277.941)" fill="#eaab28"/>
                <path id="Trazado_1048176" data-name="Trazado 1048176" d="M501.485,444.16l.03-.021a4.427,4.427,0,0,0-.856.737,3.466,3.466,0,0,0-.21.283q.137.482.322.95c1.726,4.346,6.663,7.546,11.04,8.059A14.187,14.187,0,0,0,513,452.953v0c.751-.871.291.05-2.748-.789a14.521,14.521,0,0,1-3.2-1.406,12.131,12.131,0,0,1-4.327-4.362,8.739,8.739,0,0,1-.876-2.47c-.123.073-.245.15-.363.231" transform="translate(-443.155 -300.646)" fill="#fcfcfc"/>
                <path id="Trazado_1048177" data-name="Trazado 1048177" d="M523.236,460.336c.006,0,.015-.016,0,0" transform="translate(-453.398 -308.017)" fill="#26445e"/>
                <path id="Trazado_1048178" data-name="Trazado 1048178" d="M409.577,394.992h0" transform="translate(-402.303 -278.65)" fill="#d0855a"/>
                <path id="Trazado_1048179" data-name="Trazado 1048179" d="M452.038,208.518a54.766,54.766,0,0,0-12.75-.38c-11.421.953-23.3,5.609-23.28,17.167a.554.554,0,0,0,.4.582c.416.243.633.031.9-.329l-.049.046a17.547,17.547,0,0,1,2.933-2.941l0,0a16.906,16.906,0,0,1,7.582-3.352c7.215,9.062,23.381,13.682,34.4,10.78-.78,3.777.3,10,5.175,11.106a5.265,5.265,0,0,0,.831.121,14.629,14.629,0,0,0-2.784,5.1c-3.027,9,1.276,16.072,6.866,9.815a14.193,14.193,0,0,0,2.9-4.9.453.453,0,0,0,.122-.2,55.613,55.613,0,0,0,1.793-16.727c-.63-12.93-10.369-23.525-25.039-25.888" transform="translate(-405.202 -194.575)" fill="#491010"/>
                <path id="Trazado_1048180" data-name="Trazado 1048180" d="M418.981,240.3h0" transform="translate(-406.507 -209.124)" fill="#dd4e39"/>
                <path id="Trazado_1048181" data-name="Trazado 1048181" d="M438.227,214.059a.848.848,0,0,0-.693,1.39c5.5,9.264,23.5,17.557,38.811,12.469a.138.138,0,1,0-.118-.25,26.171,26.171,0,0,1-6.21,1.115c-10.341.611-22.943-4.292-30.19-13.165-1.079-1.311-1.1-1.525-1.6-1.559m23.551,14.147c.059.01-.159-.033,0,0" transform="translate(-414.795 -197.326)" fill="#330606"/>
                <path id="Trazado_1048182" data-name="Trazado 1048182" d="M410.047,200.821a.793.793,0,0,0-.635.932,16.952,16.952,0,0,0,15.355,12.379.306.306,0,0,0,.321-.281c.03-.426-.448-.3-1.4-.476a17.408,17.408,0,0,1-10.833-7.475c-2.33-3.714-1.484-5.33-2.807-5.078m2.81,5.085c.09.139.107.168,0,0m10.762,7.456c.062.01.083.016,0,0" transform="translate(-402.227 -191.366)" fill="#330606"/>
                <path id="Trazado_1048183" data-name="Trazado 1048183" d="M416.266,192.631a.644.644,0,0,0-.678.766,12.721,12.721,0,0,0,4.368,8.17c.149.143.326-.065.209-.177-1.981-1.873-3.521-4.64-3.394-7.317.034-.69.219-.895-.059-1.215a.654.654,0,0,0-.446-.227m2.047,6.54h0" transform="translate(-405.009 -187.695)" fill="#330606"/>
                <path id="Trazado_1048184" data-name="Trazado 1048184" d="M487.319,204.184c.047.061.061.081,0,0m.081.11h0m7.306,5.548c.137.061.117.054,0,0m12.819,5.519h0" transform="translate(-437.254 -192.889)" fill="#330606"/>
                <path id="Trazado_1048185" data-name="Trazado 1048185" d="M506.76,244.811c-.99,3.789-.476,6.594.466,8.243a.493.493,0,0,0,.864-.474,9.807,9.807,0,0,1-.805-7.608.274.274,0,1,0-.525-.161" transform="translate(-445.751 -211.061)" fill="#330606"/>
                <path id="Trazado_1048186" data-name="Trazado 1048186" d="M511.425,281.712c0,.021-.01.044-.015.066Zm-.025.1c0,.006,0,0,0,0m-.339,3.175c0-.056,0-.053,0,0" transform="translate(-447.924 -227.735)" fill="#cb222a"/>
                <path id="Trazado_1048187" data-name="Trazado 1048187" d="M536.038,252.329h0" transform="translate(-459.15 -214.528)" fill="#cb222a"/>
                <path id="Trazado_1048188" data-name="Trazado 1048188" d="M467.572,195.408a.815.815,0,0,0-.5,1.029c2.892,7.084,11.591,13.8,20.443,15.005a.339.339,0,0,0,.393-.263c.124-.622-.654-.192-3.7-1.219.552.217-5.728-1.526-11.6-7.757-4.451-4.95-3.583-7.295-5.032-6.8m10.577,11.547h0" transform="translate(-428.131 -188.914)" fill="#330606"/>
                <path id="Trazado_1048189" data-name="Trazado 1048189" d="M467.13,294.218a8.8,8.8,0,1,0-3-12.073,8.485,8.485,0,0,0-.784,1.7A8.783,8.783,0,0,0,467.13,294.218Z" transform="translate(-426.26 -226.015)" fill="#fcfcfc"/>
                <path id="Trazado_1048190" data-name="Trazado 1048190" d="M477.1,303.96a6.3,6.3,0,0,0,1.053-.32A6.569,6.569,0,0,1,477.1,303.96Z" transform="translate(-432.66 -237.591)" fill="#370e10"/>
                <path id="Trazado_1048191" data-name="Trazado 1048191" d="M415.642,282.221c3.346,2.237,7.724.982,9.786-2.809,2.766-5.113-.181-11.6-5.436-12.024C412.5,266.806,409.276,277.959,415.642,282.221Z" transform="translate(-403.51 -221.287)" fill="#fcfcfc"/>
                <path id="Trazado_1048192" data-name="Trazado 1048192" d="M471.93,293.913c4.335,2.616,8.983-.84,9.388-3.352-3.825-.634-3.869-3.014.384-2.479a6.45,6.45,0,1,0-9.771,5.831Z" transform="translate(-428.934 -227.838)" fill="#330023"/>
                <path id="Trazado_1048193" data-name="Trazado 1048193" d="M421.973,282.7a5.4,5.4,0,0,0,5.341-3.919c-2.736-.488-3.482-2.518.333-2.255-.263-5.779-6.953-7.617-9.657-2.644C415.964,277.629,418.128,282.411,421.973,282.7Z" transform="translate(-405.745 -222.921)" fill="#330023"/>
                <path id="Trazado_1048194" data-name="Trazado 1048194" d="M480.9,255.824a11.242,11.242,0,0,1,6.845,3.222c1.93,2.16.742,3.871-2.375,3.63-4.115-.318-8.542-3.649-7.668-5.718.352-.837,1.548-1.261,3.2-1.133" transform="translate(-432.88 -216.089)" fill="#330023"/>
                <path id="Trazado_1048195" data-name="Trazado 1048195" d="M426.465,247.4c5.2.4,4.08,4.221-1.479,4.956-6.96.9-7.377-4.006-.645-4.892a10.4,10.4,0,0,1,2.125-.064" transform="translate(-406.781 -212.301)" fill="#330023"/>
                <g id="Grupo_1184523" data-name="Grupo 1184523" transform="translate(18.858 64.94)">
                  <g id="Grupo_1184522" data-name="Grupo 1184522">
                    <path id="Trazado_1048196" data-name="Trazado 1048196" d="M445.279,303.4a3.045,3.045,0,0,0-2.658-1.671,8.78,8.78,0,0,0-2.672.44,8.834,8.834,0,0,1-2.672.442,17.858,17.858,0,0,1-3.376-.869,2.527,2.527,0,0,0-2.69.673,2.963,2.963,0,0,0-.563,1.594c-.323,4.225,4.917,6.91,8.534,6.625a7.487,7.487,0,0,0,5.417-2.942,5.128,5.128,0,0,0,.993-2.363A3.375,3.375,0,0,0,445.279,303.4Z" transform="translate(-430.634 -301.625)" fill="#330023"/>
                    <g id="Grupo_1184520" data-name="Grupo 1184520" clip-path="url(#clip-path-2)">
                      <path id="Trazado_1048197" data-name="Trazado 1048197" d="M439.732,301.78s-5.209,1.993-6.209,5.483l3.528,3.765,9.092-1.834,3.154-6.959-4.735-5.316Z" transform="translate(-431.933 -299.51)" fill="#f93030"/>
                    </g>
                    <g id="Grupo_1184521" data-name="Grupo 1184521" clip-path="url(#clip-path-2)">
                      <path id="Trazado_1048199" data-name="Trazado 1048199" d="M432.256,299.063s-.576,3.59,4.6,4.447,8.415-2.157,8.969-3.937l-1.907-2.465-5.264-.739Z" transform="translate(-431.355 -299.263)" fill="#fff"/>
                    </g>
                  </g>
                </g>
                <g id="Grupo_1184527" data-name="Grupo 1184527" transform="translate(22.402 57.108)">
                  <g id="Grupo_1184526" data-name="Grupo 1184526">
                    <g id="Grupo_1184524" data-name="Grupo 1184524">
                      <path id="Trazado_1048201" data-name="Trazado 1048201" d="M438.28,294.3a.3.3,0,0,1-.139-.076,3.622,3.622,0,0,1-.942-3.511,6.89,6.89,0,0,1,2.75-3.255.3.3,0,0,1,.362.476,6.2,6.2,0,0,0-2.537,2.944,3.008,3.008,0,0,0,.782,2.917.3.3,0,0,1-.276.505Z" transform="translate(-437.072 -287.399)" fill="#330023"/>
                    </g>
                    <g id="Grupo_1184525" data-name="Grupo 1184525" transform="translate(2.956 5.784)">
                      <path id="Trazado_1048202" data-name="Trazado 1048202" d="M444.281,299.468l-.013,0a.3.3,0,0,1-.206-.37.508.508,0,0,0-.336-.562.8.8,0,0,0-.776.216.3.3,0,0,1-.42-.427,1.406,1.406,0,0,1,1.388-.357,1.1,1.1,0,0,1,.72,1.294A.3.3,0,0,1,444.281,299.468Z" transform="translate(-442.441 -297.905)" fill="#330023"/>
                    </g>
                  </g>
                </g>
              </g>
              <path id="Trazado_1048203" data-name="Trazado 1048203" d="M417.576,357.028a2.628,2.628,0,0,1,.932,1.893c-.02.035-.042.068-.066.1l-.006.007v0a2.02,2.02,0,0,1-.3.313c.01-.008.018-.016.028-.021a2.686,2.686,0,0,1-.568.348l.034-.014a3.4,3.4,0,0,1-.789.24,3.494,3.494,0,0,1-.773.029.136.136,0,0,0-.133.141.134.134,0,0,0,.1.129c.119.03.233.067.347.105a.01.01,0,0,1-.009,0,2.409,2.409,0,0,1,.5.261s0,0,0,0,0,0,0,0l0,0,.009.006,0,0,.012.007,0,0a1.82,1.82,0,0,1,.242.232,1.41,1.41,0,0,1,.148.233,1.428,1.428,0,0,1,.089.295,1.606,1.606,0,0,1,.01.357,2.223,2.223,0,0,1-.138.531l-.009.022a7.2,7.2,0,0,1-3.06,2.383l.084.061a1.72,1.72,0,0,1,.45.788,1.545,1.545,0,0,1,.006.793,2.346,2.346,0,0,1-.284.652,4.633,4.633,0,0,1-.535.686,8.672,8.672,0,0,1-1.251,1.093,12.863,12.863,0,0,1-1.235.821,9.15,9.15,0,0,1-1.685.762,3.41,3.41,0,0,1-1.486.2c-.085-.012-.168-.024-.25-.043a1.767,1.767,0,0,1-.927-.533,2.363,2.363,0,0,1-.539-1.322,6.224,6.224,0,0,1,.092-1.949,2.777,2.777,0,0,1,.357-.9,2.313,2.313,0,0,1,.4-.477,1.668,1.668,0,0,1-.127-.272,2.341,2.341,0,0,1-.141-.747,2.484,2.484,0,0,1,.1-.756,3.556,3.556,0,0,1,.342-.8,4.532,4.532,0,0,1,1.095-1.249,4.444,4.444,0,0,1,1.015-.622,4.408,4.408,0,0,1,1.376-2.993,6.016,6.016,0,0,1,1.551-1.123,5.525,5.525,0,0,1,1.787-.552,4.142,4.142,0,0,1,1.522.077c.1.023.209.054.312.085.129.039.255.083.375.132a3.777,3.777,0,0,1,1,.585" transform="translate(-400.922 -261.176)" fill="#ff9d85"/>
              <path id="Trazado_1048204" data-name="Trazado 1048204" d="M428.212,361.383l0,0,0,0" transform="translate(-410.687 -263.542)" fill="#ff9d85"/>
              <path id="Trazado_1048205" data-name="Trazado 1048205" d="M428.192,361.412v0h0l0,0" transform="translate(-410.678 -263.557)" fill="#ff9d85"/>
              <path id="Trazado_1048206" data-name="Trazado 1048206" d="M425.375,364.2l-.006,0v0a.028.028,0,0,0,.007.005" transform="translate(-409.409 -264.809)" fill="#ff9d85"/>
              <path id="Trazado_1048207" data-name="Trazado 1048207" d="M425.381,364.206" transform="translate(-409.415 -264.813)" fill="#ff9d85"/>
              <path id="Trazado_1048208" data-name="Trazado 1048208" d="M425.382,364.207h0" transform="translate(-409.415 -264.814)" fill="#ff9d85"/>
              <path id="Trazado_1048209" data-name="Trazado 1048209" d="M425.389,364.212c-.009-.008-.012-.008,0,0" transform="translate(-409.415 -264.814)" fill="#ff9d85"/>
              <path id="Trazado_1048210" data-name="Trazado 1048210" d="M422.647,357.24a3.525,3.525,0,0,0-.916-.548l-.126-.048a4.368,4.368,0,0,0-1.344-.259,4.614,4.614,0,0,0-.8.04,6.081,6.081,0,0,0-.836.184.55.55,0,0,0-.318.707.537.537,0,0,0,.293.307.576.576,0,0,0,.413.01q.093-.028.186-.052a4.7,4.7,0,0,1,.98-.109,3.935,3.935,0,0,1,.807.119,3.368,3.368,0,0,1,.686.3,3.02,3.02,0,0,1,.43.339,2.263,2.263,0,0,1,.252.339,1.739,1.739,0,0,1,.092.237,1.347,1.347,0,0,1,.018.157c0,.041-.011.083-.019.123s-.026.065-.041.1a1.386,1.386,0,0,1-.089.113,1.827,1.827,0,0,1-.187.133,2.366,2.366,0,0,1-.414.154,4.554,4.554,0,0,1-.947.086l-.111,0a.591.591,0,0,0-.407.1.544.544,0,0,0-.117.765.522.522,0,0,0,.358.216,3.316,3.316,0,0,0,2.679-.762,1.648,1.648,0,0,0,.188-1.85,2.809,2.809,0,0,0-.3-.469,3.125,3.125,0,0,0-.415-.42m-1.91,2.423h0" transform="translate(-406.223 -261.297)" fill="#ff9d85"/>
              <path id="Trazado_1048211" data-name="Trazado 1048211" d="M424.73,357.274a3.247,3.247,0,0,0-1.1-.729,3.477,3.477,0,0,0-.644-.189.547.547,0,1,0-.166,1.081c.066.013.132.027.2.045a2.268,2.268,0,0,1,.988.6,2.986,2.986,0,0,1,.361.487,2.512,2.512,0,0,1,.168.428,1.991,1.991,0,0,1,.036.3,1.615,1.615,0,0,1-.03.193c-.016.041-.034.082-.053.122a1.011,1.011,0,0,1-.077.1,1.249,1.249,0,0,1-.141.1,1.708,1.708,0,0,1-.229.085,2.831,2.831,0,0,1-.549.048l-.066,0a.588.588,0,0,0-.408.1.554.554,0,0,0-.218.357c-.177,1.173,3.288.815,2.834-1.489a2.889,2.889,0,0,0-.287-.82,3.576,3.576,0,0,0-.614-.824m-.781.753.032.034-.032-.034m-.368,1.93-.047,0,.047,0" transform="translate(-408.054 -261.281)" fill="#ff9d85"/>
              <path id="Trazado_1048212" data-name="Trazado 1048212" d="M422.406,362.994a2.385,2.385,0,0,1,.6,1.818,2.845,2.845,0,0,1-.769,1.556,8.05,8.05,0,0,1-3.1,1.948.548.548,0,0,1-.391-1.023,7.367,7.367,0,0,0,2.5-1.466,2.3,2.3,0,0,0,.638-.957,1.161,1.161,0,0,0,.014-.554,1.729,1.729,0,0,0-.375-.677.551.551,0,0,1,.117-.765.534.534,0,0,1,.523-.064.6.6,0,0,1,.244.182" transform="translate(-406.275 -264.168)" fill="#ff9d85"/>
              <path id="Trazado_1048213" data-name="Trazado 1048213" d="M415.161,370.474a.274.274,0,0,1-.254.486c-.074-.031-.145-.063-.22-.091a4.106,4.106,0,0,0-.939-.209,6.665,6.665,0,0,0-1.625.092,16.171,16.171,0,0,0-2.61.772.4.4,0,0,1-.242-.772c1.984-.639,4.086-1.085,5.889-.28" transform="translate(-402.047 -267.435)" fill="#491010"/>
              <path id="Trazado_1048214" data-name="Trazado 1048214" d="M419.662,362.483a.2.2,0,0,0-.133-.23l-.015-.005a10.366,10.366,0,0,0-1.69-.4,9.086,9.086,0,0,0-1.64-.1,8.315,8.315,0,0,0-1.661.241,6.193,6.193,0,0,0-1.565.614.435.435,0,0,0,.368.781c.485-.192.966-.393,1.463-.551a10.972,10.972,0,0,1,1.364-.344l-.029.006a8.757,8.757,0,0,1,1.128-.131,7.989,7.989,0,0,1,.994.021l-.014,0,.03,0,.03,0-.02,0c.19.021.379.045.566.084s.393.094.588.154a.2.2,0,0,0,.236-.148m-1.414-.093.025,0h-.025" transform="translate(-403.743 -263.708)" fill="#491010"/>
            </g>
          </g>
          <g id="Grupo_1184537" data-name="Grupo 1184537" transform="translate(0 35.06)">
            <g id="Grupo_1184533" data-name="Grupo 1184533">
              <g id="Grupo_1184532" data-name="Grupo 1184532">
                <g id="Grupo_1184531" data-name="Grupo 1184531">
                  <path id="Trazado_1048215" data-name="Trazado 1048215" d="M17.347,45.94c-.012.052-.029.11-.046.173h-.006c-.352,1.23-1.472,5.053-3.055,9.649-1.19,3.442-2.633,7.322-4.215,10.879a.31.31,0,0,1-.531.058A160.46,160.46,0,0,1,0,52.188V48.152A102.135,102.135,0,0,0,17.347,45.94Z" transform="translate(0 -19.412)" fill="#4caade"/>
                  <path id="Trazado_1048216" data-name="Trazado 1048216" d="M49.281,35.523a176.877,176.877,0,0,1-3.2,21.708.313.313,0,0,1-.513.163A177.072,177.072,0,0,1,30.449,41.487,106.466,106.466,0,0,0,46.437,36.68Q47.883,36.116,49.281,35.523Z" transform="translate(-12.866 -15.01)" fill="#8b509e"/>
                  <path id="Trazado_1048217" data-name="Trazado 1048217" d="M82.2,40.371a.313.313,0,0,1-.466.271A176.339,176.339,0,0,1,63.543,28.465,101.286,101.286,0,0,0,80.649,19.1,175.006,175.006,0,0,1,82.2,40.371Z" transform="translate(-26.85 -8.072)" fill="#de5f26"/>
                  <path id="Trazado_1048218" data-name="Trazado 1048218" d="M114.063,19.209a.318.318,0,0,1-.422.343,174.437,174.437,0,0,1-19.175-8.887c-.057-.028-.113-.056-.163-.084A103.061,103.061,0,0,0,107.242,0h2.471A167.955,167.955,0,0,1,114.063,19.209Z" transform="translate(-39.847)" fill="#4caade"/>
                </g>
                <path id="Trazado_1048219" data-name="Trazado 1048219" d="M67.158,0A101.892,101.892,0,0,1,33.509,21.522,104.187,104.187,0,0,1,0,28.59v.318q4.149-.165,8.413-.7c2.98-.37,5.948-.872,8.881-1.507H17.3q.2-.035.4-.087H17.7a104.555,104.555,0,0,0,15.926-4.793c.941-.37,1.865-.739,2.766-1.132.15-.058.294-.121.439-.179h.006a101.331,101.331,0,0,0,16.983-9.3c.266-.179.531-.358.791-.543A102.353,102.353,0,0,0,67.62,0Z" fill="#391622"/>
              </g>
            </g>
            <g id="Grupo_1184536" data-name="Grupo 1184536" transform="translate(230.675)">
              <g id="Grupo_1184535" data-name="Grupo 1184535" transform="translate(0)">
                <g id="Grupo_1184534" data-name="Grupo 1184534">
                  <path id="Trazado_1048220" data-name="Trazado 1048220" d="M1009.96,45.94c.011.052.029.11.046.173h.006c.352,1.23,1.472,5.053,3.055,9.649,1.19,3.442,2.633,7.322,4.216,10.879a.31.31,0,0,0,.531.058,160.489,160.489,0,0,0,9.493-14.511V48.152A102.135,102.135,0,0,1,1009.96,45.94Z" transform="translate(-953.087 -19.412)" fill="#4caade"/>
                  <path id="Trazado_1048221" data-name="Trazado 1048221" d="M976.938,35.523a176.9,176.9,0,0,0,3.2,21.708.313.313,0,0,0,.513.163A177.008,177.008,0,0,0,995.77,41.488a106.463,106.463,0,0,1-15.989-4.808Q978.336,36.115,976.938,35.523Z" transform="translate(-939.134 -15.01)" fill="#8b509e"/>
                  <path id="Trazado_1048222" data-name="Trazado 1048222" d="M944.155,40.371a.313.313,0,0,0,.466.271,176.315,176.315,0,0,0,18.186-12.177A101.278,101.278,0,0,1,945.7,19.1,174.956,174.956,0,0,0,944.155,40.371Z" transform="translate(-925.281 -8.072)" fill="#de5f26"/>
                  <path id="Trazado_1048223" data-name="Trazado 1048223" d="M911.474,19.209a.318.318,0,0,0,.422.343,174.431,174.431,0,0,0,19.175-8.887c.056-.028.113-.056.164-.084A103.057,103.057,0,0,1,918.3,0h-2.471A168.109,168.109,0,0,0,911.474,19.209Z" transform="translate(-911.471)" fill="#4caade"/>
                </g>
                <path id="Trazado_1048224" data-name="Trazado 1048224" d="M922.9,0a102.347,102.347,0,0,0,13,10.666c.26.185.526.364.791.543a101.33,101.33,0,0,0,16.983,9.3h.006c.144.058.289.121.439.179.9.393,1.825.762,2.766,1.132a104.554,104.554,0,0,0,15.926,4.793h.006q.2.052.4.087h.006c2.933.635,5.9,1.138,8.881,1.507q4.261.528,8.413.7V28.59a104.186,104.186,0,0,1-33.509-7.068A101.894,101.894,0,0,1,923.362,0Z" transform="translate(-916.3)" fill="#391622"/>
              </g>
            </g>
          </g>
        </g>
      </g>
    </g>
  </g>
</svg>
