<svg xmlns="http://www.w3.org/2000/svg" xmlns:xlink="http://www.w3.org/1999/xlink" width="108" height="108" viewBox="0 0 108 108">
  <defs>
    <filter id="Trazado_904820" x="0" y="0" width="108" height="108" filterUnits="userSpaceOnUse">
      <feOffset dy="3" input="SourceAlpha"/>
      <feGaussianBlur stdDeviation="3" result="blur"/>
      <feFlood flood-opacity="0.161"/>
      <feComposite operator="in" in2="blur"/>
      <feComposite in="SourceGraphic"/>
    </filter>
  </defs>
  <g id="Grupo_1185659" data-name="Grupo 1185659" transform="translate(-199.999 -913.5)">
    <g id="Grupo_1183820" data-name="Grupo 1183820" transform="translate(-0.228 134.83)">
      <g id="Grupo_1179560" data-name="Grupo 1179560" transform="translate(-0.227 23)">
        <g id="Grupo_1173787" data-name="Grupo 1173787" transform="translate(209.455 761.67)">
          <g id="Grupo_1171910" data-name="Grupo 1171910" transform="translate(0)">
            <g id="Grupo_1167341" data-name="Grupo 1167341">
              <g id="Grupo_1166792" data-name="Grupo 1166792">
                <g transform="matrix(1, 0, 0, 1, -9, -6)" filter="url(#Trazado_904820)">
                  <g id="Trazado_904820-2" data-name="Trazado 904820" transform="translate(9 6)" fill="#effbfe">
                    <path d="M 44.99999618530273 88.50003051757812 C 39.12687301635742 88.50003051757812 33.43022155761719 87.35010528564453 28.06829643249512 85.08219909667969 C 22.88852119445801 82.89134216308594 18.23629570007324 79.75461578369141 14.24084663391113 75.75916290283203 C 10.24540901184082 71.76371765136719 7.108683586120605 67.11150360107422 4.917821407318115 61.93172836303711 C 2.649921178817749 56.56978988647461 1.499996185302734 50.87313842773438 1.499996185302734 45.00001525878906 C 1.499996185302734 39.12689208984375 2.649921178817749 33.43024063110352 4.917821407318115 28.06831550598145 C 7.108683586120605 22.88854026794434 10.24540901184082 18.23631477355957 14.24084663391113 14.24086570739746 C 18.23629570007324 10.24541568756104 22.88852119445801 7.10869026184082 28.06829643249512 4.917840480804443 C 33.43022155761719 2.649927854537964 39.12687301635742 1.50000274181366 44.99999618530273 1.50000274181366 C 50.87311935424805 1.50000274181366 56.56977081298828 2.649927854537964 61.93169784545898 4.917840480804443 C 67.11147308349609 7.10869026184082 71.76369476318359 10.24541568756104 75.75914764404297 14.24086570739746 C 79.75458526611328 18.23631477355957 82.89131164550781 22.88854026794434 85.08216857910156 28.06831550598145 C 87.35007476806641 33.43024063110352 88.5 39.12689208984375 88.5 45.00001525878906 C 88.5 50.87313842773438 87.35007476806641 56.56978988647461 85.08216857910156 61.93172836303711 C 82.89131164550781 67.11150360107422 79.75458526611328 71.76371765136719 75.75914764404297 75.75916290283203 C 71.76369476318359 79.75461578369141 67.11147308349609 82.89134216308594 61.93169784545898 85.08219909667969 C 56.56977081298828 87.35010528564453 50.87311935424805 88.50003051757812 44.99999618530273 88.50003051757812 Z" stroke="none"/>
                    <path d="M 44.99999618530273 3 C 39.32870864868164 3 33.82865142822266 4.110061645507812 28.65262603759766 6.299346923828125 C 23.65165710449219 8.414573669433594 19.15968322753906 11.44334411621094 15.301513671875 15.301513671875 C 11.44333648681641 19.15968322753906 8.414566040039062 23.65165710449219 6.299339294433594 28.65262985229492 C 4.110054016113281 33.82867050170898 2.999992370605469 39.32872772216797 2.999992370605469 45.00001525878906 C 2.999992370605469 50.67130279541016 4.110054016113281 56.17136001586914 6.299339294433594 61.34738922119141 C 8.414566040039062 66.34837341308594 11.44333648681641 70.84033203125 15.301513671875 74.69850158691406 C 19.15968322753906 78.55668640136719 23.65165710449219 81.58545684814453 28.65262603759766 83.70068359375 C 33.82865142822266 85.88996887207031 39.32870864868164 87.00003051757812 44.99999618530273 87.00003051757812 C 50.67128372192383 87.00003051757812 56.17134094238281 85.88996887207031 61.34736633300781 83.70068359375 C 66.34834289550781 81.58545684814453 70.84030914306641 78.55668640136719 74.69847869873047 74.69850158691406 C 78.55665588378906 70.84033203125 81.58542633056641 66.34837341308594 83.70065307617188 61.34738922119141 C 85.88993835449219 56.17136001586914 87 50.67130279541016 87 45.00001525878906 C 87 39.32872772216797 85.88993835449219 33.82867050170898 83.70065307617188 28.65262985229492 C 81.58542633056641 23.65165710449219 78.55665588378906 19.15968322753906 74.69847869873047 15.301513671875 C 70.84030914306641 11.44334411621094 66.34834289550781 8.414573669433594 61.34736633300781 6.299346923828125 C 56.17134094238281 4.110061645507812 50.67128372192383 3 44.99999618530273 3 M 44.99999618530273 0 C 69.85281372070312 0 90 20.14718627929688 90 45.00001525878906 C 90 69.85282897949219 69.85281372070312 90.00003051757812 44.99999618530273 90.00003051757812 C 20.14717864990234 90.00003051757812 -7.62939453125e-06 69.85282897949219 -7.62939453125e-06 45.00001525878906 C -7.62939453125e-06 20.14718627929688 20.14717864990234 0 44.99999618530273 0 Z" stroke="none" fill="#397b86"/>
                  </g>
                </g>
              </g>
            </g>
          </g>
        </g>
      </g>
    </g>
    <g id="resolucion-de-problemas_2_" data-name="resolucion-de-problemas (2)" transform="translate(197.459 932.721)">
      <path id="Trazado_1051739" data-name="Trazado 1051739" d="M342.542,132h-5.99A10.175,10.175,0,0,1,332,135.96v6.582a.753.753,0,0,0,.753.753h9.79a.753.753,0,0,0,.753-.753v-9.79A.753.753,0,0,0,342.542,132Z" transform="translate(-266.024 -115.613)" fill="#cb97e7"/>
      <g id="Grupo_1185646" data-name="Grupo 1185646" transform="translate(65.974 17.227)">
        <path id="Trazado_1051740" data-name="Trazado 1051740" d="M335.971,148.475v-9.7a10.166,10.166,0,0,1-3.972,3.12v6.582a.753.753,0,0,0,.753.753h3.972A.753.753,0,0,1,335.971,148.475Z" transform="translate(-331.999 -138.772)" fill="#bd80e1"/>
      </g>
      <g id="Grupo_1185657" data-name="Grupo 1185657" transform="translate(29.201 0.931)">
        <path id="Trazado_1051741" data-name="Trazado 1051741" d="M108.748,273.8l2.128-5.789a14.539,14.539,0,0,1-13.818,0l2.128,5.789Z" transform="translate(-89.449 -235.674)" fill="#fff0ad"/>
        <path id="Trazado_1051742" data-name="Trazado 1051742" d="M104.415,273.8l-1.5-4.081a14.427,14.427,0,0,1-5.857-1.708l2.128,5.789Z" transform="translate(-89.45 -235.674)" fill="#ffe177"/>
        <path id="Trazado_1051743" data-name="Trazado 1051743" d="M126,393.588v1.937a1.862,1.862,0,0,0,1.862,1.862h2.909a1.862,1.862,0,0,0,1.862-1.862v-1.937Z" transform="translate(-114.799 -345.66)" fill="#02c7dd"/>
        <path id="Trazado_1051744" data-name="Trazado 1051744" d="M129.1,395.525v-1.937H126v1.937a1.862,1.862,0,0,0,1.862,1.862h2.909c.033,0,.065,0,.1,0A1.86,1.86,0,0,1,129.1,395.525Z" transform="translate(-114.799 -345.66)" fill="#07b2cd"/>
        <path id="Trazado_1051745" data-name="Trazado 1051745" d="M113.43,362.995v3.3a.621.621,0,0,0,.621.621h8.512a.621.621,0,0,0,.621-.621v-3.3Z" transform="translate(-103.789 -318.864)" fill="#a6e7f0"/>
        <path id="Trazado_1051746" data-name="Trazado 1051746" d="M116.534,366.3V363h-3.1v3.3a.621.621,0,0,0,.621.621h3.1A.621.621,0,0,1,116.534,366.3Z" transform="translate(-103.789 -318.864)" fill="#6bd9e7"/>
        <path id="Trazado_1051747" data-name="Trazado 1051747" d="M58.334,53.277a10.155,10.155,0,0,1,.3-2.446,14.518,14.518,0,1,0,6.171,11.9A10.137,10.137,0,0,1,58.334,53.277Z" transform="translate(-35.77 -43.141)" fill="#ffe177"/>
        <g id="Grupo_1185647" data-name="Grupo 1185647" transform="translate(0 5.052)">
          <path id="Trazado_1051748" data-name="Trazado 1051748" d="M42.018,62.711A14.522,14.522,0,0,1,53.411,48.532a14.517,14.517,0,1,0,0,28.358A14.522,14.522,0,0,1,42.018,62.711Z" transform="translate(-35.769 -48.194)" fill="#ffd15b"/>
        </g>
        <g id="Grupo_1185648" data-name="Grupo 1185648" transform="translate(7.779 38.129)">
          <path id="Trazado_1051749" data-name="Trazado 1051749" d="M110.665,320.776H99.67a1.241,1.241,0,0,1-1.241-1.241v-3.643a1.241,1.241,0,0,1,1.241-1.241h10.995a1.241,1.241,0,0,1,1.241,1.241v3.643A1.241,1.241,0,0,1,110.665,320.776Z" transform="translate(-98.429 -314.651)" fill="#eaf9fa"/>
        </g>
        <path id="Trazado_1051750" data-name="Trazado 1051750" d="M102.6,319.535v-3.643a1.241,1.241,0,0,1,1.241-1.241H99.671a1.241,1.241,0,0,0-1.241,1.241v3.643a1.241,1.241,0,0,0,1.241,1.241h4.167A1.241,1.241,0,0,1,102.6,319.535Z" transform="translate(-90.651 -276.522)" fill="#d4f2f6"/>
        <g id="Grupo_1185649" data-name="Grupo 1185649" transform="translate(26.237 33.255)">
          <path id="Trazado_1051751" data-name="Trazado 1051751" d="M271.49,290.253a4.359,4.359,0,0,1-2.778-.756.373.373,0,0,0-.589.3v5.969a.621.621,0,0,1-.621.621h-5.969a.373.373,0,0,0-.3.589,4.376,4.376,0,1,1-7.211-.011.371.371,0,0,0-.31-.578h-5.969a.621.621,0,0,1-.621-.621V291.08a.617.617,0,0,1,.668-.619,4.472,4.472,0,0,0,.7.012,4.376,4.376,0,0,0-.271-8.743q-.206,0-.408.019a.623.623,0,0,1-.686-.617v-5.126a.621.621,0,0,1,.621-.621h4.888a.618.618,0,0,1,.62.635c0,.044,0,.087,0,.131a4.376,4.376,0,1,0,8.751,0q0-.066,0-.131a.618.618,0,0,1,.62-.635H267.5a.621.621,0,0,1,.621.621v5.969a.371.371,0,0,0,.578.31,4.376,4.376,0,1,1,2.788,7.967Z" transform="translate(-247.12 -275.386)" fill="#fe9738"/>
        </g>
        <g id="Grupo_1185650" data-name="Grupo 1185650" transform="translate(26.237 33.255)">
          <path id="Trazado_1051752" data-name="Trazado 1051752" d="M271.49,290.253a4.359,4.359,0,0,1-2.778-.756.373.373,0,0,0-.589.3v5.969a.621.621,0,0,1-.621.621h-5.969a.373.373,0,0,0-.3.589,4.376,4.376,0,1,1-7.211-.011.371.371,0,0,0-.31-.578h-5.969a.621.621,0,0,1-.621-.621V291.08a.617.617,0,0,1,.668-.619,4.472,4.472,0,0,0,.7.012,4.376,4.376,0,0,0-.271-8.743q-.206,0-.408.019a.623.623,0,0,1-.686-.617v-5.126a.621.621,0,0,1,.621-.621h4.888a.618.618,0,0,1,.62.635c0,.044,0,.087,0,.131a4.376,4.376,0,1,0,8.751,0q0-.066,0-.131a.618.618,0,0,1,.62-.635H267.5a.621.621,0,0,1,.621.621v5.969a.371.371,0,0,0,.578.31,4.376,4.376,0,1,1,2.788,7.967Z" transform="translate(-247.12 -275.386)" fill="#fe9738"/>
        </g>
        <g id="Grupo_1185653" data-name="Grupo 1185653" transform="translate(26.237 33.255)">
          <g id="Grupo_1185651" data-name="Grupo 1185651" transform="translate(0)">
            <path id="Trazado_1051753" data-name="Trazado 1051753" d="M247.8,281.751q.2-.019.408-.019a4.366,4.366,0,0,1,3.347,1.557v-7.281a.621.621,0,0,1,.621-.621h-4.44a.621.621,0,0,0-.621.621v5.126A.623.623,0,0,0,247.8,281.751Z" transform="translate(-247.118 -275.388)" fill="#fe860a"/>
          </g>
          <g id="Grupo_1185652" data-name="Grupo 1185652" transform="translate(0 13.532)">
            <path id="Trazado_1051754" data-name="Trazado 1051754" d="M251.558,391.248V384.4a4.372,4.372,0,0,1-3.075,1.555,4.453,4.453,0,0,1-.7-.012.617.617,0,0,0-.668.619v4.688a.621.621,0,0,0,.621.621h4.44A.621.621,0,0,1,251.558,391.248Z" transform="translate(-247.118 -384.398)" fill="#fe860a"/>
          </g>
        </g>
        <g id="Grupo_1185656" data-name="Grupo 1185656" transform="translate(22.564)">
          <g id="Grupo_1185654" data-name="Grupo 1185654">
            <circle id="Elipse_12622" data-name="Elipse 12622" cx="10.135" cy="10.135" r="10.135" fill="#05e39c"/>
          </g>
          <g id="Grupo_1185655" data-name="Grupo 1185655" transform="translate(0 0)">
            <path id="Trazado_1051755" data-name="Trazado 1051755" d="M222.771,17.635a10.139,10.139,0,0,1,7.518-9.792,10.135,10.135,0,1,0,0,19.585A10.138,10.138,0,0,1,222.771,17.635Z" transform="translate(-217.536 -7.5)" fill="#0ed290"/>
          </g>
        </g>
      </g>
      <g id="Grupo_1185658" data-name="Grupo 1185658" transform="translate(28.27 0)">
        <path id="Trazado_1051756" data-name="Trazado 1051756" d="M268.5,275.7a5.311,5.311,0,0,0-6.012-1.24v-5.02a1.553,1.553,0,0,0-1.552-1.552h-4.888a1.561,1.561,0,0,0-1.115.472,1.532,1.532,0,0,0-.435,1.122c0,.034,0,.068,0,.1a3.445,3.445,0,1,1-6.889,0c0-.034,0-.069,0-.1a1.532,1.532,0,0,0-.435-1.122,1.561,1.561,0,0,0-1.115-.472h-4.888a1.553,1.553,0,0,0-1.552,1.552v5.126a1.55,1.55,0,0,0,.5,1.143,1.568,1.568,0,0,0,1.2.4c.106-.01.215-.015.322-.015a3.445,3.445,0,0,1,.215,6.883,3.549,3.549,0,0,1-.551-.01,1.537,1.537,0,0,0-1.178.393,1.56,1.56,0,0,0-.51,1.153V289.2a1.553,1.553,0,0,0,1.552,1.552h5.02a5.308,5.308,0,0,0,4.855,7.439c.126,0,.252,0,.379-.013a5.31,5.31,0,0,0,4.488-7.426h5.019a1.553,1.553,0,0,0,1.552-1.552v-5.019A5.307,5.307,0,0,0,268.5,275.7Zm-.444,3.866a3.447,3.447,0,0,1-3.195,3.191h0a3.416,3.416,0,0,1-2.187-.595,1.3,1.3,0,0,0-2.048,1.07v5.659h-5.659a1.3,1.3,0,0,0-1.07,2.048,3.445,3.445,0,1,1-5.678-.009,1.3,1.3,0,0,0-1.076-2.039h-5.659v-4.048c.163,0,.327,0,.49-.007a5.307,5.307,0,0,0-.49-10.6v-4.485h4.266a5.307,5.307,0,0,0,10.608,0h4.266v5.659a1.3,1.3,0,0,0,2.039,1.076,3.444,3.444,0,0,1,5.391,3.082Z" transform="translate(-213.382 -234.632)"/>
        <path id="Trazado_1051757" data-name="Trazado 1051757" d="M49.8,38.212l1.578-4.293a15.492,15.492,0,0,0,4.4-3.766.931.931,0,1,0-1.453-1.165,13.535,13.535,0,0,1-7.471,4.733v-7.7H48.68a3.688,3.688,0,1,0-3.687-3.688v1.825H42.444V22.338a3.687,3.687,0,1,0-3.687,3.688h1.825v7.7A13.586,13.586,0,1,1,51.019,9.048,11.068,11.068,0,0,0,57.29,21.126a13.493,13.493,0,0,1-.92,4.336.931.931,0,0,0,1.733.68,15.327,15.327,0,0,0,1.01-4.365,11.081,11.081,0,0,0,5.929-.1V26.93a1.686,1.686,0,0,0,1.684,1.684h9.79A1.686,1.686,0,0,0,78.2,26.93V23.959a.931.931,0,0,0-1.862,0v2.793H66.905V20.934a11.146,11.146,0,0,0,4.122-3.617H76.34v2.3a.931.931,0,1,0,1.862,0V17.139a1.686,1.686,0,0,0-1.684-1.684H72.059A11.066,11.066,0,1,0,51.538,7.183,15.444,15.444,0,1,0,36.051,33.908l1.582,4.3A2.175,2.175,0,0,0,36.048,40.3v3.643a2.174,2.174,0,0,0,1.862,2.148v2.271a1.553,1.553,0,0,0,1.552,1.552h.009V50.8a2.8,2.8,0,0,0,2.793,2.793h2.909A2.8,2.8,0,0,0,47.966,50.8v-.882h.009a1.553,1.553,0,0,0,1.552-1.552V46.092a2.174,2.174,0,0,0,1.862-2.148V40.3a2.175,2.175,0,0,0-1.585-2.09ZM46.855,22.338a1.825,1.825,0,1,1,1.825,1.825H46.855ZM61.9,1.862a9.2,9.2,0,1,1-9.2,9.2A9.215,9.215,0,0,1,61.9,1.862ZM46.855,35.63a15.361,15.361,0,0,0,2.136-.6l-1.14,3.1h-1Zm-4.411-9.6h2.548v8c-.421.039-.846.06-1.274.06s-.855-.021-1.274-.06v-8Zm0,9.87c.42.035.845.053,1.274.053s.853-.018,1.274-.052v2.233H42.444ZM38.757,24.163a1.825,1.825,0,1,1,1.825-1.825v1.825Zm1.825,11.465v2.5h-1l-1.142-3.108A15.313,15.313,0,0,0,40.582,35.628ZM46.1,50.8a.932.932,0,0,1-.931.931H42.264a.932.932,0,0,1-.931-.931v-.882H46.1Zm3.423-6.852a.311.311,0,0,1-.31.31H46.361a.931.931,0,0,0,0,1.862h1.3v1.936H39.773V46.117h2.243a.931.931,0,0,0,0-1.862H38.221a.311.311,0,0,1-.31-.31V40.3a.311.311,0,0,1,.31-.31H49.216a.311.311,0,0,1,.31.31Z" transform="translate(-28.27 0)"/>
        <path id="Trazado_1051758" data-name="Trazado 1051758" d="M254.721,67.288a.931.931,0,0,0,.7.331h.012a.931.931,0,0,0,.7-.313l6.1-6.881a.931.931,0,0,0-1.393-1.235l-5.385,6.074-3.471-4.123a.931.931,0,0,0-1.424,1.2Z" transform="translate(-222.77 -51.567)"/>
      </g>
    </g>
  </g>
</svg>
