<svg xmlns="http://www.w3.org/2000/svg" xmlns:xlink="http://www.w3.org/1999/xlink" width="108" height="108" viewBox="0 0 108 108">
  <defs>
    <filter id="Trazado_904820" x="0" y="0" width="108" height="108" filterUnits="userSpaceOnUse">
      <feOffset dy="3" input="SourceAlpha"/>
      <feGaussianBlur stdDeviation="3" result="blur"/>
      <feFlood flood-opacity="0.161"/>
      <feComposite operator="in" in2="blur"/>
      <feComposite in="SourceGraphic"/>
    </filter>
  </defs>
  <g id="Grupo_1184959" data-name="Grupo 1184959" transform="translate(-192.402 -878)">
    <g id="Grupo_1184540" data-name="Grupo 1184540" transform="translate(-0.598 6)">
      <g id="Grupo_1183432" data-name="Grupo 1183432" transform="translate(-0.227 -2974)">
        <g id="Grupo_1179600" data-name="Grupo 1179600" transform="translate(-7.227 3090.33)">
          <g id="Grupo_1173787" data-name="Grupo 1173787" transform="translate(209.455 761.67)">
            <g id="Grupo_1171910" data-name="Grupo 1171910" transform="translate(0)">
              <g id="Grupo_1167341" data-name="Grupo 1167341">
                <g id="Grupo_1166792" data-name="Grupo 1166792">
                  <g transform="matrix(1, 0, 0, 1, -9, -6)" filter="url(#Trazado_904820)">
                    <g id="Trazado_904820-2" data-name="Trazado 904820" transform="translate(9 6)" fill="#edf3fc">
                      <path d="M 44.99999618530273 88.50003051757812 C 39.12687301635742 88.50003051757812 33.43022155761719 87.35010528564453 28.06829643249512 85.08219909667969 C 22.88852119445801 82.89134216308594 18.23629570007324 79.75461578369141 14.24084663391113 75.75916290283203 C 10.24540901184082 71.76371765136719 7.108683586120605 67.11150360107422 4.917821407318115 61.93172836303711 C 2.649921178817749 56.56978988647461 1.499996185302734 50.87313842773438 1.499996185302734 45.00001525878906 C 1.499996185302734 39.12689208984375 2.649921178817749 33.43024063110352 4.917821407318115 28.06831550598145 C 7.108683586120605 22.88854026794434 10.24540901184082 18.23631477355957 14.24084663391113 14.24086570739746 C 18.23629570007324 10.24541568756104 22.88852119445801 7.10869026184082 28.06829643249512 4.917840480804443 C 33.43022155761719 2.649927854537964 39.12687301635742 1.50000274181366 44.99999618530273 1.50000274181366 C 50.87311935424805 1.50000274181366 56.56977081298828 2.649927854537964 61.93169784545898 4.917840480804443 C 67.11147308349609 7.10869026184082 71.76369476318359 10.24541568756104 75.75914764404297 14.24086570739746 C 79.75458526611328 18.23631477355957 82.89131164550781 22.88854026794434 85.08216857910156 28.06831550598145 C 87.35007476806641 33.43024063110352 88.5 39.12689208984375 88.5 45.00001525878906 C 88.5 50.87313842773438 87.35007476806641 56.56978988647461 85.08216857910156 61.93172836303711 C 82.89131164550781 67.11150360107422 79.75458526611328 71.76371765136719 75.75914764404297 75.75916290283203 C 71.76369476318359 79.75461578369141 67.11147308349609 82.89134216308594 61.93169784545898 85.08219909667969 C 56.56977081298828 87.35010528564453 50.87311935424805 88.50003051757812 44.99999618530273 88.50003051757812 Z" stroke="none"/>
                      <path d="M 44.99999618530273 3 C 39.32870864868164 3 33.82865142822266 4.110061645507812 28.65262603759766 6.299346923828125 C 23.65165710449219 8.414573669433594 19.15968322753906 11.44334411621094 15.301513671875 15.301513671875 C 11.44333648681641 19.15968322753906 8.414566040039062 23.65165710449219 6.299339294433594 28.65262985229492 C 4.110054016113281 33.82867050170898 2.999992370605469 39.32872772216797 2.999992370605469 45.00001525878906 C 2.999992370605469 50.67130279541016 4.110054016113281 56.17136001586914 6.299339294433594 61.34738922119141 C 8.414566040039062 66.34837341308594 11.44333648681641 70.84033203125 15.301513671875 74.69850158691406 C 19.15968322753906 78.55668640136719 23.65165710449219 81.58545684814453 28.65262603759766 83.70068359375 C 33.82865142822266 85.88996887207031 39.32870864868164 87.00003051757812 44.99999618530273 87.00003051757812 C 50.67128372192383 87.00003051757812 56.17134094238281 85.88996887207031 61.34736633300781 83.70068359375 C 66.34834289550781 81.58545684814453 70.84030914306641 78.55668640136719 74.69847869873047 74.69850158691406 C 78.55665588378906 70.84033203125 81.58542633056641 66.34837341308594 83.70065307617188 61.34738922119141 C 85.88993835449219 56.17136001586914 87 50.67130279541016 87 45.00001525878906 C 87 39.32872772216797 85.88993835449219 33.82867050170898 83.70065307617188 28.65262985229492 C 81.58542633056641 23.65165710449219 78.55665588378906 19.15968322753906 74.69847869873047 15.301513671875 C 70.84030914306641 11.44334411621094 66.34834289550781 8.414573669433594 61.34736633300781 6.299346923828125 C 56.17134094238281 4.110061645507812 50.67128372192383 3 44.99999618530273 3 M 44.99999618530273 0 C 69.85281372070312 0 90 20.14718627929688 90 45.00001525878906 C 90 69.85282897949219 69.85281372070312 90.00003051757812 44.99999618530273 90.00003051757812 C 20.14717864990234 90.00003051757812 -7.62939453125e-06 69.85282897949219 -7.62939453125e-06 45.00001525878906 C -7.62939453125e-06 20.14718627929688 20.14717864990234 0 44.99999618530273 0 Z" stroke="none" fill="#5692e8"/>
                    </g>
                  </g>
                </g>
              </g>
            </g>
          </g>
        </g>
      </g>
    </g>
    <g id="impresion-de-la-mano_2_" data-name="impresion-de-la-mano (2)" transform="translate(217.753 897.681)">
      <path id="Trazado_1049001" data-name="Trazado 1049001" d="M45.558,240.07c-5.922,4.417-14.145,3.3-20.875-3.433-5.537-5.537-8.549-10.417-7.626-15.366.765-4.105,4.264-5.336,7.351-6.383,3.938-1.336,3.642-5.405,7.982-6.606,4.321-1.2,9.254,1.074,14.414,6.234C56.771,224.482,52.154,235.15,45.558,240.07Z" transform="translate(-14.905 -182.302)" fill="#00ce8e"/>
      <path id="Trazado_1049002" data-name="Trazado 1049002" d="M45.559,241.062a18.1,18.1,0,0,0,1.582-1.33c-18.684.55-18.54-21.495-13.952-30.638q-.4.071-.8.18c-4.34,1.2-4.045,5.27-7.982,6.606-3.087,1.047-6.586,2.278-7.351,6.383-.923,4.95,2.089,9.83,7.626,15.366C31.414,244.359,39.638,245.479,45.559,241.062Z" transform="translate(-14.906 -183.294)" fill="#00c172"/>
      <path id="Trazado_1049003" data-name="Trazado 1049003" d="M183.01,19.772l5.041-8.731a4.343,4.343,0,0,1,7.523,4.343l-5.041,8.731a4.343,4.343,0,0,1-7.523-4.343Z" transform="translate(-160.965 -6.626)" fill="#ffbbd5"/>
      <path id="Trazado_1049004" data-name="Trazado 1049004" d="M356.8,219.262a4.343,4.343,0,0,1,1.59-5.933l8.757-5.056a4.343,4.343,0,1,1,4.343,7.523l-8.757,5.056A4.343,4.343,0,0,1,356.8,219.262Z" transform="translate(-314.311 -182.056)" fill="#827cd1"/>
      <path id="Trazado_1049005" data-name="Trazado 1049005" d="M364.532,225.483l-6.141,3.545a4.343,4.343,0,0,0,4.343,7.523l4.741-2.737C363.734,232.482,363.986,227.726,364.532,225.483Z" transform="translate(-314.31 -197.755)" fill="#625ac4"/>
      <path id="Trazado_1049006" data-name="Trazado 1049006" d="M369.2,372.8a4.344,4.344,0,0,1,3.948-4.705l6.1-.534a4.343,4.343,0,1,1,.757,8.654l-6.1.534A4.344,4.344,0,0,1,369.2,372.8Z" transform="translate(-325.75 -323.1)" fill="#ffb25a"/>
      <path id="Trazado_1049007" data-name="Trazado 1049007" d="M283.676,90.948a4.343,4.343,0,0,1,0-6.142l9.08-9.08a4.343,4.343,0,0,1,6.142,6.142l-9.08,9.08A4.343,4.343,0,0,1,283.676,90.948Z" transform="translate(-249.18 -64.495)" fill="#ff6e80"/>
      <path id="Trazado_1049008" data-name="Trazado 1049008" d="M7.5,90.716V84.277a4.343,4.343,0,0,1,8.686,0v6.438a4.343,4.343,0,0,1-8.686,0Z" transform="translate(-6.618 -69.33)" fill="#59d5ff"/>
      <g id="Grupo_1184958" data-name="Grupo 1184958" transform="translate(9.146 34.153)">
        <g id="Grupo_1184957" data-name="Grupo 1184957" transform="translate(0)">
          <ellipse id="Elipse_12596" data-name="Elipse 12596" cx="2.709" cy="3.402" rx="2.709" ry="3.402" transform="translate(0 3.831) rotate(-45)" fill="#fff"/>
          <ellipse id="Elipse_12597" data-name="Elipse 12597" cx="2.709" cy="3.402" rx="2.709" ry="3.402" transform="translate(13.038 16.872) rotate(-45)" fill="#fff"/>
        </g>
      </g>
      <path id="Trazado_1049009" data-name="Trazado 1049009" d="M187.873,29.957l-4.863,8.422a4.343,4.343,0,0,0,7.523,4.343l2.211-3.829C188.573,37.7,187.037,33.027,187.873,29.957Z" transform="translate(-160.965 -25.233)" fill="#ff96c0"/>
      <path id="Trazado_1049010" data-name="Trazado 1049010" d="M11.843,105.168a4.343,4.343,0,0,0,4.343-4.343v-2.41A7.079,7.079,0,0,1,8.7,91.391a4.328,4.328,0,0,0-1.2,3v6.438A4.343,4.343,0,0,0,11.843,105.168Z" transform="translate(-6.618 -79.439)" fill="#00c4fc"/>
      <path id="Trazado_1049011" data-name="Trazado 1049011" d="M290.747,102.348l-7.07,7.07a4.343,4.343,0,0,0,6.142,6.142l4.2-4.2C290.351,110.347,289.744,105.244,290.747,102.348Z" transform="translate(-249.179 -89.107)" fill="#f8475e"/>
      <path id="Trazado_1049012" data-name="Trazado 1049012" d="M378.441,378.566c-4.215-2.317-3.383-6.69-2.376-8.512l-2.916.255a4.343,4.343,0,1,0,.757,8.654Z" transform="translate(-325.75 -325.317)" fill="#ff8b43"/>
      <path id="Trazado_1049013" data-name="Trazado 1049013" d="M33.873,27.078a5.223,5.223,0,0,0,7.39,0L50.343,18A5.226,5.226,0,0,0,46.7,9.077h-.008a.882.882,0,0,0-.008,1.765,3.461,3.461,0,0,1,2.415,5.908l-9.08,9.08a3.461,3.461,0,0,1-4.894-4.894l8.458-8.458a.882.882,0,0,0-1.248-1.248l-8.458,8.458a5.232,5.232,0,0,0,0,7.39ZM23.193,19.844a5.222,5.222,0,0,0,7.138-1.913L35.372,9.2a5.226,5.226,0,1,0-9.051-5.226l-5.041,8.731a5.223,5.223,0,0,0,1.913,7.138Zm-.384-6.256L27.85,4.857a3.461,3.461,0,1,1,5.994,3.461L28.8,17.049a3.461,3.461,0,0,1-5.994-3.461ZM5.225,26.611h0a5.231,5.231,0,0,0,5.226-5.226V14.947A5.222,5.222,0,0,0,5.226,9.722h0A5.231,5.231,0,0,0,0,14.947v6.438a5.222,5.222,0,0,0,5.225,5.226Zm-3.46-5.226V14.947a3.461,3.461,0,0,1,6.922,0v6.438a3.461,3.461,0,0,1-6.922,0Zm51.66,22.193-6.1.534a5.226,5.226,0,1,0,.911,10.412l6.1-.534a5.226,5.226,0,0,0-.911-10.412Zm.757,8.653-6.1.534a3.461,3.461,0,1,1-.6-6.9l6.1-.534a3.461,3.461,0,0,1,.6,6.9Zm-36.7-14.96a.737.737,0,0,1,0,1.042.882.882,0,1,0,1.248,1.248,2.5,2.5,0,1,0-3.538-3.538.882.882,0,1,0,1.248,1.248.736.736,0,0,1,1.042,0Zm42.055-9.907A5.222,5.222,0,0,0,52.4,25.453L43.64,30.509a5.231,5.231,0,0,0-1.913,7.138h0a5.223,5.223,0,0,0,7.138,1.913L57.623,34.5a5.223,5.223,0,0,0,1.913-7.138Zm-2.8,5.61-8.757,5.056a3.459,3.459,0,0,1-4.728-1.267h0a3.459,3.459,0,0,1,1.267-4.728l8.757-5.056a3.461,3.461,0,1,1,3.461,5.994ZM27.717,49.8a.883.883,0,0,0,1.248,0,2.5,2.5,0,0,0-3.538-3.538.882.882,0,1,0,1.248,1.248.737.737,0,0,1,1.042,1.042A.883.883,0,0,0,27.717,49.8Zm-8.132-7.644a.884.884,0,0,0-.941.82,3.159,3.159,0,0,0,3.37,3.37.882.882,0,1,0-.121-1.761A1.394,1.394,0,0,1,20.4,43.1a.883.883,0,0,0-.82-.941ZM17.25,25.129a8.247,8.247,0,0,0-4.735,3.743,6.542,6.542,0,0,1-3.3,2.878c-2.982,1.011-7.066,2.4-7.935,7.057-.9,4.828,1.527,9.81,7.87,16.152a25.27,25.27,0,0,0,3.615,3.014.882.882,0,0,0,.994-1.459,23.48,23.48,0,0,1-3.361-2.8C4.514,47.823,2.237,43.326,3.019,39.13c.679-3.644,3.913-4.741,6.767-5.709A8.255,8.255,0,0,0,13.948,29.9c.975-1.358,1.818-2.531,3.772-3.071,4.875-1.348,9.969,2.421,13.555,6.008,3.9,3.9,5.8,8.3,5.481,12.708a16.213,16.213,0,0,1-6.631,11.515A12.762,12.762,0,0,1,17.26,58.406a.882.882,0,0,0-.664,1.635,14.66,14.66,0,0,0,14.585-1.565,18,18,0,0,0,7.335-12.8c.357-4.935-1.715-9.805-5.993-14.084-4.107-4.106-9.681-8.008-15.274-6.461Z" transform="translate(0)"/>
    </g>
  </g>
</svg>
