<svg xmlns="http://www.w3.org/2000/svg" xmlns:xlink="http://www.w3.org/1999/xlink" width="187" height="194" viewBox="0 0 187 194">
  <defs>
    <clipPath id="clip-path">
      <rect id="Rectángulo_416034" data-name="Rectángulo 416034" width="187" height="194" transform="translate(810.482 5481.39)" fill="#fff" stroke="#707070" stroke-width="1"/>
    </clipPath>
  </defs>
  <g id="Enmascarar_grupo_1098829" data-name="Enmascarar grupo 1098829" transform="translate(-810.482 -5481.39)" clip-path="url(#clip-path)">
    <g id="Grupo_1183108" data-name="Grupo 1183108" transform="translate(810 5500.169)">
      <path id="Trazado_1044284" data-name="Trazado 1044284" d="M1110.163,260.213c-7.759,0-8.2-11.194-6.442-16.244,0,0-10.1-6.587-3.952-19.1s15.369-.659,16.686,2.2,13.393-10.758,20.2-10.1,7.026,7.9,8.563,7.9,11.6-2.635,17.438,1.317,1.655,7.9,2.867,9.88,10.214,4.171,3.627,10.978c0,0,10.978-1.1,12.076,4.391s-2.634,7.685-2.2,9.661,9.88,13.388-9.88,17.123c0,0-.576,30.082-25.427,18.226S1110.163,260.213,1110.163,260.213Z" transform="translate(-1025.29 -216.941)" fill="#a56a42"/>
      <path id="Trazado_1044285" data-name="Trazado 1044285" d="M1031.265,480.653l5.644,56.289h33.716c-3.705-9.793-14.107-37.137-17.336-44.131-3.952-8.563-11.636-9.221-11.636-9.221A44.94,44.94,0,0,0,1031.265,480.653Z" transform="translate(-889.011 -380.592)" fill="#3bad96"/>
      <path id="Trazado_1044286" data-name="Trazado 1044286" d="M1264.434,537.54H1307.8V481.617a78.484,78.484,0,0,0-8.522,2.388,24.079,24.079,0,0,0-12.776,10.283C1282.961,500.357,1270.178,525.977,1264.434,537.54Z" transform="translate(-1214.658 -381.191)" fill="#3bad96"/>
      <path id="Trazado_1044287" data-name="Trazado 1044287" d="M1107.621,532.982h71.548V479.629a44.929,44.929,0,0,0-10.388-2.937,183.017,183.017,0,0,0-20.826-2.333,107.847,107.847,0,0,0-28.286,2.7,78.511,78.511,0,0,0-8.521,2.388l-2.022,30.66-.544,8.321Z" transform="translate(-1026.527 -376.633)" fill="#3bad96"/>
      <path id="Trazado_1044288" data-name="Trazado 1044288" d="M1392.35,485.879l.083,3.723,1.12,49.629H1417.7c-2.713-8.083-12.95-38.811-15.625-50.571a14.835,14.835,0,0,1-.613-4.318Z" transform="translate(-1373.091 -382.882)" fill="#ffaf82"/>
      <path id="Trazado_1044290" data-name="Trazado 1044290" d="M1058.285,605.735c-9.365.206-16.512,11.025-6.966,23.955a1.774,1.774,0,0,0,3.186-.922,10.16,10.16,0,0,0-.172-2.834s2.415,2.744,3.952-.11c0,0,.988,2.415,3.733.329,0,0,1.1,3.074,4.281,1.208s6.258-12.3,3.074-17.455S1058.285,605.735,1058.285,605.735Z" transform="translate(-894.997 -458.169)" fill="#ffaf82"/>
      <path id="Trazado_1044291" data-name="Trazado 1044291" d="M1060.493,641.823a.686.686,0,0,0,.58-.319c2.92-4.605,3.171-10.733,3.18-10.991a.686.686,0,0,0-1.371-.049c0,.06-.25,6.02-2.967,10.306a.685.685,0,0,0,.212.947A.669.669,0,0,0,1060.493,641.823Z" transform="translate(-893.471 -473.152)" fill="#fe976a"/>
      <path id="Trazado_1044292" data-name="Trazado 1044292" d="M1076.542,638.8a.686.686,0,0,0,.672-.552,40.3,40.3,0,0,0,.48-12.2.686.686,0,0,0-1.359.19,39.65,39.65,0,0,1-.466,11.736.686.686,0,0,0,.538.807A.7.7,0,0,0,1076.542,638.8Z" transform="translate(-913.252 -470.456)" fill="#fe976a"/>
      <path id="Trazado_1044293" data-name="Trazado 1044293" d="M1089.941,639.448a.686.686,0,0,0,.613-.993c-1.749-3.5-.713-11.269-.7-11.347a.686.686,0,0,0-1.36-.186c-.046.336-1.1,8.269.834,12.146A.681.681,0,0,0,1089.941,639.448Z" transform="translate(-930.602 -470.996)" fill="#fe976a"/>
      <g id="Grupo_1183101" data-name="Grupo 1183101" transform="translate(82.054 133.474)">
        <path id="Trazado_1044294" data-name="Trazado 1044294" d="M1107.623,577.036a209.939,209.939,0,0,0,46.473,5.375,162.321,162.321,0,0,0,24.114-1.693v-8.366c-10.932,1.725-36.679,4.126-70.043-3.636Z" transform="translate(-1107.623 -568.716)" fill="#0091cc"/>
      </g>
      <path id="Trazado_1044295" data-name="Trazado 1044295" d="M1160.859,399.605v30.834s1.395,8.563,11.055,7.9a11.565,11.565,0,0,0,10.978-9.441v-29.3h-22.033Z" transform="translate(-1050.451 -330.297)" fill="#ffaf82"/>
      <path id="Trazado_1044296" data-name="Trazado 1044296" d="M1160.86,399.605v28.607c13.2-.558,18.827-11.477,22.033-21.791v-6.816Z" transform="translate(-1050.452 -330.297)" fill="#fe976a"/>
      <path id="Trazado_1044297" data-name="Trazado 1044297" d="M1157.164,274.309c-9.88,17.29-13.832,60.763,13.832,60.763s35.569-22.724,29.146-48.906S1157.164,274.309,1157.164,274.309Z" transform="translate(-1065.588 -250.115)" fill="#ffaf82"/>
      <path id="Trazado_1044298" data-name="Trazado 1044298" d="M1117.835,372.854c2.828,8.726,18.329,6.182,19.265-3.615.908-9.5-9.91-13.56-17.016-7.306S1117.835,372.854,1117.835,372.854Z" transform="translate(-987.772 -305.059)" fill="#ffaf82"/>
      <path id="Trazado_1044299" data-name="Trazado 1044299" d="M1136.132,379.645a.687.687,0,0,0,.552-1.094c-.028-.038-2.8-3.872-1.3-6.741a.686.686,0,1,0-1.218-.633c-1.889,3.631,1.281,8,1.417,8.189A.681.681,0,0,0,1136.132,379.645Z" transform="translate(-994.019 -312.426)" fill="#fe976a"/>
      <path id="Trazado_1044300" data-name="Trazado 1044300" d="M1142.09,382.407a9.305,9.305,0,0,0,2.956-.427.686.686,0,1,0-.443-1.3,12.257,12.257,0,0,1-5.707-.016.686.686,0,0,0-.332,1.331A16.078,16.078,0,0,0,1142.09,382.407Z" transform="translate(-1004.412 -318.53)" fill="#fe976a"/>
      <path id="Trazado_1044301" data-name="Trazado 1044301" d="M1229.5,402.641a14.114,14.114,0,0,0,6.9-2.079.686.686,0,0,0-.759-1.143c-.307.2-7.557,4.888-12.308-1.349a.686.686,0,1,0-1.092.831A8.788,8.788,0,0,0,1229.5,402.641Z" transform="translate(-1127.503 -329.176)" fill="#6a2810"/>
      <path id="Trazado_1044302" data-name="Trazado 1044302" d="M1189.254,374.563a4.333,4.333,0,0,0,2-.507,3.226,3.226,0,0,0,1.865-2.782,3.655,3.655,0,0,0-1.568-3.139,1.965,1.965,0,0,0-2.011-.124.686.686,0,0,0,.646,1.211.579.579,0,0,1,.635.075,2.287,2.287,0,0,1,.928,1.921,1.861,1.861,0,0,1-1.127,1.62,2.6,2.6,0,0,1-3.212-.445,3.937,3.937,0,0,1-.473-4.662,3.616,3.616,0,0,1,3.5-2.124,3.383,3.383,0,0,1,2.947,2.241.686.686,0,1,0,1.294-.455,4.754,4.754,0,0,0-4.139-3.155,4.993,4.993,0,0,0-4.813,2.849,5.3,5.3,0,0,0,.711,6.272A3.935,3.935,0,0,0,1189.254,374.563Z" transform="translate(-1071.439 -308.341)" fill="#fe976a"/>
      <path id="Trazado_1044303" data-name="Trazado 1044303" d="M1266.746,363.33a4.33,4.33,0,0,0,2-.507,3.225,3.225,0,0,0,1.865-2.782,3.656,3.656,0,0,0-1.569-3.139,1.965,1.965,0,0,0-2.01-.124.686.686,0,1,0,.645,1.211.578.578,0,0,1,.635.075,2.288,2.288,0,0,1,.927,1.921,1.859,1.859,0,0,1-1.126,1.62,2.6,2.6,0,0,1-3.212-.445,3.938,3.938,0,0,1-.473-4.663,3.617,3.617,0,0,1,3.5-2.123,3.382,3.382,0,0,1,2.946,2.241.686.686,0,0,0,1.3-.455,4.755,4.755,0,0,0-4.138-3.155,4.989,4.989,0,0,0-4.813,2.849,5.3,5.3,0,0,0,.711,6.272A3.931,3.931,0,0,0,1266.746,363.33Z" transform="translate(-1178.334 -301.371)" fill="#fe976a"/>
      <path id="Trazado_1044304" data-name="Trazado 1044304" d="M1247.874,362.119a.686.686,0,0,0,.39-1.251l-5.422-3.733,5.6-8.107a.686.686,0,0,0-1.13-.779l-5.988,8.673a.686.686,0,0,0,.176.955l5.988,4.123A.692.692,0,0,0,1247.874,362.119Z" transform="translate(-1146.602 -298.242)" fill="#6a2810"/>
      <path id="Trazado_1044305" data-name="Trazado 1044305" d="M1197.782,341.359c0,1.845.743,2.883,1.658,2.883s1.658-1.039,1.658-2.883-.743-2.835-1.658-2.835S1197.782,339.513,1197.782,341.359Z" transform="translate(-1082.665 -292.391)" fill="#6a2810"/>
      <path id="Trazado_1044306" data-name="Trazado 1044306" d="M1256.861,333.823c0,1.845.742,2.883,1.658,2.883s1.658-1.039,1.658-2.883-.742-2.835-1.658-2.835S1256.861,331.977,1256.861,333.823Z" transform="translate(-1164.161 -287.715)" fill="#6a2810"/>
      <path id="Trazado_1044307" data-name="Trazado 1044307" d="M1135.621,272.107c5.362-7.057,8.748-3.952,11.142,0s5.469.843,8.982-2.1,9.992-2.068,9.277,2.323,3.07,6.147,8.314,2.854,11.39,3.952,8.317,7.465-3.494,9.815,3.412,11.055,8.462-5.018,7.794-14.294-3.045-26.4-27-27.938-28.851,8.782-30.243,12.515S1135.621,272.107,1135.621,272.107Z" transform="translate(-1050.748 -238.271)" fill="#a56a42"/>
      <path id="Trazado_1044308" data-name="Trazado 1044308" d="M1142.517,272.589c2.072-2.324,3.813-3,5.293-2.712,1.758.344,3.156,2.037,4.3,3.944.962,1.584,2.037,1.976,3.208,1.689h0c1.611-.4,3.4-2.072,5.337-3.691a7.386,7.386,0,0,1,5.279-1.606c2.194.209,3.927,1.5,3.548,3.817-.479,2.942,1.167,4.64,3.922,4.3a10.086,10.086,0,0,0,3.992-1.58,4.961,4.961,0,0,1,3.347-.753c3.809.509,6.843,5.258,4.566,7.857-2.925,3.343-3.325,9.341,3.247,10.521a7.88,7.88,0,0,0,2.172.118c4.728-.426,5.8-5.963,5.245-13.72-.635-8.827-2.9-25.124-25.69-26.587q-2.062-.13-3.939-.144h-.065c-18.23.27-22.252,8.8-23.47,12.053A12.544,12.544,0,0,0,1142.517,272.589Z" transform="translate(-1056.605 -239.962)" fill="#fe976a"/>
      <path id="Trazado_1044309" data-name="Trazado 1044309" d="M1138.927,270.82c.161.8.316,1.295.316,1.295,2.008-2.644,3.741-3.861,5.246-4.144,2.516-.467,4.4,1.674,5.9,4.144a3.6,3.6,0,0,0,2,1.775h0c2.022.572,4.382-1.7,6.98-3.879a7.7,7.7,0,0,1,4.176-1.688c2.891-.265,5.571,1.1,5.1,4.011-.416,2.566.7,4.231,2.749,4.515a8.713,8.713,0,0,0,5.567-1.66,5.379,5.379,0,0,1,2.145-.791c4.588-.613,8.829,5.219,6.171,8.256-3.074,3.513-3.495,9.816,3.412,11.056.316.055.618.1.91.124,4.968-.448,6.1-6.267,5.512-14.417-.668-9.276-3.047-26.4-27-27.939q-2.167-.137-4.139-.151h-.069c-19.156.283-23.383,9.244-24.664,12.666A13.249,13.249,0,0,0,1138.927,270.82Z" transform="translate(-1054.373 -238.279)" fill="#a56a42"/>
      <path id="Trazado_1044310" data-name="Trazado 1044310" d="M1424.887,444.754c2.2,4.062,8.9,6.367,11.641,6.587s6.66,1.532,6.7,3.184l.083,3.723,9.642-.942a14.839,14.839,0,0,1-.613-4.318,18.514,18.514,0,0,1,2.964-8.343c2.855-4.611.329-8.892-1.866-6.916s-2.2,6.148-4.721,6.477-7.465-1.537-11.637-4.83-7.245-7.794-9.112-4.281c0,0-4.061-.549-2.853,4.062C1425.107,439.155,1422.686,440.692,1424.887,444.754Z" transform="translate(-1423.963 -351.527)" fill="#ffaf82"/>
      <path id="Trazado_1044311" data-name="Trazado 1044311" d="M1480.3,446.626a.686.686,0,0,0,.195-1.344c-9.459-2.806-10.485-9.254-10.494-9.319a.686.686,0,0,0-1.359.194c.043.3,1.169,7.387,11.462,10.441A.708.708,0,0,0,1480.3,446.626Z" transform="translate(-1465.319 -352.493)" fill="#fe976a"/>
      <path id="Trazado_1044312" data-name="Trazado 1044312" d="M1489.26,455.026a.686.686,0,0,0,.083-1.367c-6.651-.818-9.528-7.109-9.556-7.172a.686.686,0,0,0-1.255.556c.128.288,3.207,7.063,10.643,7.978A.76.76,0,0,0,1489.26,455.026Z" transform="translate(-1478.015 -359.138)" fill="#fe976a"/>
      <path id="Trazado_1044313" data-name="Trazado 1044313" d="M1106.5,580.63a.686.686,0,0,0,.686-.686v-29.31a.686.686,0,0,0-1.372,0v29.31A.685.685,0,0,0,1106.5,580.63Z" transform="translate(-953.856 -423.596)" fill="#6a2810"/>
      <path id="Trazado_1044314" data-name="Trazado 1044314" d="M1289.293,574.119a.687.687,0,0,0,.684-.641l2.192-33.291a.686.686,0,0,0-1.37-.091l-2.192,33.291a.687.687,0,0,0,.64.73Z" transform="translate(-1208.199 -417.084)" fill="#6a2810"/>
    </g>
  </g>
</svg>
