<svg xmlns="http://www.w3.org/2000/svg" xmlns:xlink="http://www.w3.org/1999/xlink" width="110" height="110" viewBox="0 0 110 110">
  <defs>
    <filter id="Trazado_982547" x="0" y="0" width="110" height="110" filterUnits="userSpaceOnUse">
      <feOffset dy="3" input="SourceAlpha"/>
      <feGaussianBlur stdDeviation="3" result="blur"/>
      <feFlood flood-opacity="0.161"/>
      <feComposite operator="in" in2="blur"/>
      <feComposite in="SourceGraphic"/>
    </filter>
  </defs>
  <g id="Grupo_1185481" data-name="Grupo 1185481" transform="translate(-378.989 -8648.584)">
    <g id="Grupo_1183658" data-name="Grupo 1183658" transform="translate(387.989 8654.584)">
      <g id="Grupo_1179602" data-name="Grupo 1179602" transform="translate(0 0)">
        <g id="Grupo_1171898" data-name="Grupo 1171898" transform="translate(0 0)">
          <g id="Grupo_1164700" data-name="Grupo 1164700">
            <g id="Grupo_1160931" data-name="Grupo 1160931" transform="translate(0 0)">
              <g id="Grupo_1160749" data-name="Grupo 1160749">
                <g id="Grupo_1158891" data-name="Grupo 1158891">
                  <g id="Grupo_1157406" data-name="Grupo 1157406">
                    <g id="Grupo_1155793" data-name="Grupo 1155793">
                      <g id="Grupo_1154704" data-name="Grupo 1154704">
                        <g id="Grupo_1150790" data-name="Grupo 1150790">
                          <g id="Grupo_1154214" data-name="Grupo 1154214">
                            <g id="Grupo_1152583" data-name="Grupo 1152583">
                              <g id="Grupo_1146973" data-name="Grupo 1146973">
                                <g id="Grupo_1146954" data-name="Grupo 1146954">
                                  <g transform="matrix(1, 0, 0, 1, -9, -6)" filter="url(#Trazado_982547)">
                                    <g id="Trazado_982547-2" data-name="Trazado 982547" transform="translate(9 6)" fill="#effbfe">
                                      <path d="M 46.00000381469727 90.49986267089844 C 39.99188232421875 90.49986267089844 34.16428375244141 89.32350158691406 28.67905807495117 87.00344848632812 C 23.38021659851074 84.76223754882812 18.62104415893555 81.55341339111328 14.53376388549805 77.46613311767578 C 10.44647026062012 73.37885284423828 7.237643718719482 68.61968994140625 4.996417045593262 63.32085037231445 C 2.676363706588745 57.83565139770508 1.500003814697266 52.00805282592773 1.500003814697266 45.99993133544922 C 1.500003814697266 39.99182510375977 2.676363706588745 34.16422653198242 4.996417045593262 28.67901039123535 C 7.237643718719482 23.38017082214355 10.44647026062012 18.62101173400879 14.53376388549805 14.53373146057129 C 18.62104415893555 10.44645118713379 23.38021659851074 7.237624645233154 28.67905807495117 4.996411323547363 C 34.16428375244141 2.676357984542847 39.99188232421875 1.499997973442078 46.00000381469727 1.499997973442078 C 52.00812530517578 1.499997973442078 57.83573532104492 2.676357984542847 63.32094955444336 4.996411323547363 C 68.61980438232422 7.237624645233154 73.37896728515625 10.44645118713379 77.46625518798828 14.53373146057129 C 81.55353546142578 18.62101173400879 84.76236724853516 23.38017082214355 87.00359344482422 28.67901039123535 C 89.32364654541016 34.16422653198242 90.5 39.99182510375977 90.5 45.99993133544922 C 90.5 52.00805282592773 89.32364654541016 57.83565139770508 87.00359344482422 63.32085037231445 C 84.76236724853516 68.61968994140625 81.55353546142578 73.37885284423828 77.46625518798828 77.46613311767578 C 73.37896728515625 81.55341339111328 68.61980438232422 84.76223754882812 63.32094955444336 87.00344848632812 C 57.83573532104492 89.32350158691406 52.00812530517578 90.49986267089844 46.00000381469727 90.49986267089844 Z" stroke="none"/>
                                      <path d="M 46.00000381469727 3 C 40.19371795654297 3 34.56270217895508 4.136505126953125 29.26338958740234 6.377914428710938 C 24.14333343505859 8.54351806640625 19.54443359375 11.64438629150391 15.59442138671875 15.59439086914062 C 11.64440155029297 19.54440307617188 8.543533325195312 24.14330291748047 6.3779296875 29.26334381103516 C 4.136505126953125 34.56266021728516 3.000007629394531 40.19366073608398 3.000007629394531 45.99993133544922 C 3.000007629394531 51.80620193481445 4.136505126953125 57.43720245361328 6.3779296875 62.73651885986328 C 8.543533325195312 67.85655975341797 11.64440155029297 72.45545959472656 15.59442138671875 76.40547180175781 C 19.54443359375 80.35547637939453 24.14333343505859 83.45634460449219 29.26338958740234 85.6219482421875 C 34.56270217895508 87.86335754394531 40.19371795654297 88.99986267089844 46.00000381469727 88.99986267089844 C 51.80628967285156 88.99986267089844 57.43730545043945 87.86335754394531 62.73663330078125 85.6219482421875 C 67.85667419433594 83.45634460449219 72.45558929443359 80.35547637939453 76.40560150146484 76.40547180175781 C 80.35560607910156 72.45545959472656 83.45648956298828 67.85655975341797 85.62208557128906 62.73651885986328 C 87.86350250244141 57.43720245361328 89 51.80620193481445 89 45.99993133544922 C 89 40.19366073608398 87.86350250244141 34.56266021728516 85.62208557128906 29.26334381103516 C 83.45648956298828 24.14330291748047 80.35560607910156 19.54440307617188 76.40560150146484 15.59439086914062 C 72.45558929443359 11.64438629150391 67.85667419433594 8.54351806640625 62.73663330078125 6.377914428710938 C 57.43730545043945 4.136505126953125 51.80628967285156 3 46.00000381469727 3 M 46.00000381469727 0 C 71.40510559082031 0 92 20.59487152099609 92 45.99993133544922 C 92 71.40499114990234 71.40510559082031 91.99986267089844 46.00000381469727 91.99986267089844 C 20.59491729736328 91.99986267089844 7.62939453125e-06 71.40499114990234 7.62939453125e-06 45.99993133544922 C 7.62939453125e-06 20.59487152099609 20.59491729736328 0 46.00000381469727 0 Z" stroke="none" fill="#397b86"/>
                                    </g>
                                  </g>
                                </g>
                              </g>
                            </g>
                          </g>
                        </g>
                      </g>
                    </g>
                  </g>
                </g>
              </g>
            </g>
          </g>
        </g>
      </g>
    </g>
    <g id="arcilla" transform="translate(401.002 8672.238)">
      <g id="Grupo_1185479" data-name="Grupo 1185479" transform="translate(6.051 0.831)">
        <path id="Trazado_1050066" data-name="Trazado 1050066" d="M111.228,24.1a6.744,6.744,0,0,0-4.312-6.291,1.135,1.135,0,0,1-.653-1.423A6.743,6.743,0,0,0,95.917,8.78a1.12,1.12,0,0,1-1.316.012,6.744,6.744,0,0,0-7.935,0,1.12,1.12,0,0,1-1.316-.012,6.744,6.744,0,0,0-10.346,7.606,1.135,1.135,0,0,1-.653,1.423,6.745,6.745,0,0,0,0,12.581,1.135,1.135,0,0,1,.653,1.423A6.743,6.743,0,0,0,85.351,39.42a1.12,1.12,0,0,1,1.316-.012,6.744,6.744,0,0,0,7.935,0,1.12,1.12,0,0,1,1.316.012,6.744,6.744,0,0,0,10.346-7.606,1.135,1.135,0,0,1,.653-1.423A6.744,6.744,0,0,0,111.228,24.1Z" transform="translate(-63.697 -7.501)" fill="#d07d62"/>
        <path id="Trazado_1050067" data-name="Trazado 1050067" d="M340.28,24.1a6.744,6.744,0,0,1-4.312,6.291,1.135,1.135,0,0,0-.653,1.423,6.746,6.746,0,0,1-7.724,8.754,6.767,6.767,0,0,0,5.4-6.224,11.954,11.954,0,0,0-.19-3.365,1.137,1.137,0,0,1,.653-1.423c2.523-.975,4.165-2.588,4.165-5.455s-2-4.526-4.521-5.5a1.134,1.134,0,0,1-.653-1.423A11.653,11.653,0,0,0,333,13.86a6.766,6.766,0,0,0-5.4-6.223,6.746,6.746,0,0,1,7.724,8.753,1.135,1.135,0,0,0,.653,1.423A6.744,6.744,0,0,1,340.28,24.1Z" transform="translate(-292.749 -7.505)" fill="#be6a4f"/>
        <path id="Trazado_1050068" data-name="Trazado 1050068" d="M299.26,143.042a1.549,1.549,0,0,0-1.595.8l-.076-.055.5-3.391a1.656,1.656,0,0,0-3.276-.493l-.289,1.9.469-3.082a1.949,1.949,0,1,0-3.855-.58l-.257,1.729h0a1.79,1.79,0,0,0-3.506-.7l-2.863,11.359a7.073,7.073,0,0,0-.2,1.3l-.247,4.065-5.525-6.031a1.569,1.569,0,0,0-2.627,1.609l3.313,8.867a4.641,4.641,0,0,0,.69,1.232l3.347,4.284a4.638,4.638,0,0,1,.961,2.4l.894,8.984h11.391L294.9,169.9a4.639,4.639,0,0,1,.753-3.691l2.833-3.973a5.187,5.187,0,0,0,.948-2.616l1.142-14.933A1.548,1.548,0,0,0,299.26,143.042Z" transform="translate(-246.704 -122.206)" fill="#ffcfc0"/>
        <path id="Trazado_1050069" data-name="Trazado 1050069" d="M434.395,197.308l-1.142,14.934a5.188,5.188,0,0,1-.948,2.616l-2.833,3.973a4.642,4.642,0,0,0-.752,3.691l1.614,7.331h-2.177l-1.759-7.793a4.639,4.639,0,0,1,.752-3.69l2.833-3.974a5.18,5.18,0,0,0,.948-2.616l1.287-14.471a1.538,1.538,0,0,0-.455-1.217,1.547,1.547,0,0,1,2.631,1.217Z" transform="translate(-380.526 -174.824)" fill="#ffb29f"/>
        <path id="Trazado_1050070" data-name="Trazado 1050070" d="M36.574,149.5a1.569,1.569,0,0,0-1.818.363l-5.525,6.031-.247-4.065a7.074,7.074,0,0,0-.2-1.3L25.92,139.167a1.79,1.79,0,0,0-3.506.7v0l-.258-1.732a1.949,1.949,0,1,0-3.855.58l.179,1.179a1.656,1.656,0,0,0-3.276.494l.566,3.8a1.548,1.548,0,0,0-3.044.5l1.142,14.933a5.186,5.186,0,0,0,.948,2.616l2.833,3.973A4.639,4.639,0,0,1,18.4,169.9l-1.615,7.331H28.178l.894-8.984a4.639,4.639,0,0,1,.961-2.4l3.347-4.284a4.638,4.638,0,0,0,.69-1.232l3.313-8.867A1.569,1.569,0,0,0,36.574,149.5Z" transform="translate(-12.722 -122.205)" fill="#ffcfc0"/>
        <path id="Trazado_1050071" data-name="Trazado 1050071" d="M140.279,254.938l-3.313,8.867a4.655,4.655,0,0,1-.689,1.233l-3.347,4.283a4.634,4.634,0,0,0-.96,2.4l-.894,8.985h-2.654l.91-9.142a4.726,4.726,0,0,1,.977-2.44l3.406-4.359a4.744,4.744,0,0,0,.7-1.255l3.372-9.023a1.588,1.588,0,0,0-.053-1.238,1.569,1.569,0,0,1,2.544,1.692Z" transform="translate(-115.618 -225.674)" fill="#ffb29f"/>
      </g>
      <g id="Grupo_1185480" data-name="Grupo 1185480" transform="translate(5.221 0.001)">
        <path id="Trazado_1050072" data-name="Trazado 1050072" d="M290.007,66.814a.823.823,0,0,0,.438.447.831.831,0,1,0-.486-.927A.862.862,0,0,0,290.007,66.814Z" transform="translate(-258.438 -58.402)"/>
        <path id="Trazado_1050073" data-name="Trazado 1050073" d="M44.86,58.542a.829.829,0,0,0-1.008.6L43.058,62.3a7.928,7.928,0,0,0-.225,1.453L42.7,65.861l-4.2-4.589a2.4,2.4,0,0,0-4.016,2.46l.867,2.321a5.927,5.927,0,0,1-4.731,0l.867-2.321a2.4,2.4,0,0,0-4.016-2.46l-4.2,4.589-.128-2.112a7.931,7.931,0,0,0-.225-1.453L20.053,50.937A2.632,2.632,0,0,0,17.073,49a2.583,2.583,0,0,0-.94.359A2.792,2.792,0,0,0,14.1,47.673,5.918,5.918,0,0,1,17,45.26,1.96,1.96,0,0,0,18.146,42.8a6.1,6.1,0,0,1,.15-4.151.83.83,0,0,0-1.531-.642,7.474,7.474,0,0,0-.572,2.481,7.572,7.572,0,0,0,.379,2.839.307.307,0,0,1-.165.385,7.578,7.578,0,0,0-4.339,4.344,2.813,2.813,0,0,0-1.207,1.676,2.489,2.489,0,0,0-3.149,2.757L7.967,54.2a2.377,2.377,0,0,0-2.739,2.53L6.369,71.659a6.016,6.016,0,0,0,1.1,3.034L10.3,78.667A3.816,3.816,0,0,1,10.92,81.7L9.306,89.028a.83.83,0,0,0,.632.989.839.839,0,0,0,.989-.632l1.615-7.331a5.478,5.478,0,0,0-.888-4.351L8.821,73.73a4.356,4.356,0,0,1-.8-2.2L6.883,56.6a.718.718,0,0,1,1.4-.263l1.458,9.788a.83.83,0,1,0,1.642-.244L9.354,52.244a.829.829,0,0,1,.688-.938.849.849,0,0,1,.947.692L12.833,64.12a.83.83,0,1,0,1.641-.25l-2.024-13.3a1.124,1.124,0,0,1,.922-1.273,1.138,1.138,0,0,1,1.292.94l2.128,14.276a.83.83,0,0,0,1.642-.245l-1.87-12.547a.96.96,0,0,1,1.88-.376L21.307,62.7a6.251,6.251,0,0,1,.178,1.148l.247,4.065a.83.83,0,0,0,1.44.51L28.7,62.394a.739.739,0,0,1,1.237.758l-1.12,3-.012.031-2.181,5.838a3.8,3.8,0,0,1-.567,1.012l-3.347,4.284a5.462,5.462,0,0,0-1.133,2.826l-.894,8.984a.83.83,0,0,0,.744.908.84.84,0,0,0,.908-.744l.894-8.984a3.8,3.8,0,0,1,.789-1.968l3.347-4.284a5.46,5.46,0,0,0,.813-1.453l1.865-4.99a7.587,7.587,0,0,0,5.894,0L37.8,72.6a5.465,5.465,0,0,0,.813,1.453l3.347,4.284a3.8,3.8,0,0,1,.789,1.968l.894,8.984a.83.83,0,1,0,1.652-.164L44.4,80.14a5.461,5.461,0,0,0-1.133-2.826L39.92,73.03a3.8,3.8,0,0,1-.567-1.012l-2.179-5.831c0-.014-.01-.028-.016-.042L36.04,63.152a.739.739,0,0,1,1.237-.758L42.8,68.425a.83.83,0,0,0,1.44-.51l.247-4.065a6.259,6.259,0,0,1,.178-1.148l.795-3.153A.83.83,0,0,0,44.86,58.542Z" transform="translate(-5.221 -33.349)"/>
        <path id="Trazado_1050074" data-name="Trazado 1050074" d="M169.914,20.847a2.366,2.366,0,0,0-.724,0l.254-1.708a2.489,2.489,0,0,0-3.149-2.757,2.813,2.813,0,0,0-1.206-1.676,7.578,7.578,0,0,0-4.339-4.344.307.307,0,0,1-.165-.385,7.573,7.573,0,0,0-11.619-8.542.29.29,0,0,1-.34.013,7.574,7.574,0,0,0-8.912,0,.289.289,0,0,1-.34-.013,7.557,7.557,0,0,0-8.785-.059.83.83,0,0,0,.956,1.357,5.857,5.857,0,0,1,6.855.046,1.945,1.945,0,0,0,2.292.01,5.915,5.915,0,0,1,6.957,0,1.944,1.944,0,0,0,2.292-.01,5.855,5.855,0,0,1,3.746-1.114,5.916,5.916,0,0,1,5.325,7.785,1.96,1.96,0,0,0,1.141,2.461,5.919,5.919,0,0,1,2.9,2.412,2.793,2.793,0,0,0-2.031,1.681,2.582,2.582,0,0,0-.94-.359,2.633,2.633,0,0,0-2.98,1.942l-1.135,4.5a.83.83,0,1,0,1.609.406l1.135-4.5a.96.96,0,0,1,1.88.376l-1.87,12.547a.83.83,0,1,0,1.642.245l2.128-14.276a1.12,1.12,0,1,1,2.214.333l-2.024,13.3a.83.83,0,1,0,1.641.25l1.844-12.122a.827.827,0,0,1,1.635.246l-2.031,13.637a.83.83,0,1,0,1.642.244l1.458-9.788a.718.718,0,0,1,1.4.263l-1.142,14.933a4.357,4.357,0,0,1-.8,2.2L165.5,44.356a5.477,5.477,0,0,0-.888,4.351l1.615,7.331a.83.83,0,1,0,1.621-.357l-1.615-7.331a3.816,3.816,0,0,1,.618-3.031l2.833-3.973a6.016,6.016,0,0,0,1.1-3.034l1.142-14.933a2.386,2.386,0,0,0-2.015-2.532Z" transform="translate(-116.403 -0.001)"/>
        <path id="Trazado_1050075" data-name="Trazado 1050075" d="M312.281,98.461a.823.823,0,0,0,.438.447.831.831,0,1,0-.486-.927A.861.861,0,0,0,312.281,98.461Z" transform="translate(-278.247 -86.547)"/>
        <path id="Trazado_1050076" data-name="Trazado 1050076" d="M241.331,169.406a.823.823,0,0,0,.438.447.831.831,0,1,0-.486-.927A.861.861,0,0,0,241.331,169.406Z" transform="translate(-215.148 -149.642)"/>
        <path id="Trazado_1050077" data-name="Trazado 1050077" d="M199.731,141.877a.823.823,0,0,0,.438.447.831.831,0,1,0-.486-.927A.861.861,0,0,0,199.731,141.877Z" transform="translate(-178.151 -125.159)"/>
        <path id="Trazado_1050078" data-name="Trazado 1050078" d="M206.841,203.892a.823.823,0,0,0,.438.447.831.831,0,1,0-.486-.927A.861.861,0,0,0,206.841,203.892Z" transform="translate(-184.474 -180.312)"/>
      </g>
    </g>
  </g>
</svg>
