<svg xmlns="http://www.w3.org/2000/svg" xmlns:xlink="http://www.w3.org/1999/xlink" width="93.934" height="93.934" viewBox="0 0 93.934 93.934">
  <defs>
    <filter id="Trazado_982547" x="0" y="0" width="93.934" height="93.934" filterUnits="userSpaceOnUse">
      <feOffset dy="3" input="SourceAlpha"/>
      <feGaussianBlur stdDeviation="3" result="blur"/>
      <feFlood flood-opacity="0.161"/>
      <feComposite operator="in" in2="blur"/>
      <feComposite in="SourceGraphic"/>
    </filter>
  </defs>
  <g id="Grupo_1185504" data-name="Grupo 1185504" transform="translate(-188.402 -9479.568)">
    <g id="Grupo_1183665" data-name="Grupo 1183665" transform="translate(-0.598 8175.569)">
      <g id="Grupo_1181743" data-name="Grupo 1181743" transform="translate(0 569)">
        <g id="Grupo_1175133" data-name="Grupo 1175133" transform="translate(-0.033 -1251)">
          <g id="Grupo_1167337" data-name="Grupo 1167337" transform="translate(198.033 1992)">
            <g id="Grupo_1166720" data-name="Grupo 1166720">
              <g id="Grupo_1164305" data-name="Grupo 1164305">
                <g id="Grupo_1163948" data-name="Grupo 1163948">
                  <g id="Grupo_1158168" data-name="Grupo 1158168">
                    <g id="Grupo_1152576" data-name="Grupo 1152576">
                      <g id="Grupo_1148633" data-name="Grupo 1148633">
                        <g id="Grupo_1148525" data-name="Grupo 1148525">
                          <g transform="matrix(1, 0, 0, 1, -9, -6)" filter="url(#Trazado_982547)">
                            <g id="Trazado_982547-2" data-name="Trazado 982547" transform="translate(9 6)" fill="#fdfbec">
                              <path d="M 37.966796875 74.43359375 C 33.04315185546875 74.43359375 28.26757431030273 73.46962738037109 23.77274131774902 71.56847381591797 C 19.43047523498535 69.73184967041016 15.53040790557861 67.10224914550781 12.18087482452393 63.75271987915039 C 8.831341743469238 60.4031867980957 6.201741218566895 56.50312042236328 4.365118980407715 52.16086196899414 C 2.463963508605957 47.66601943969727 1.499996900558472 42.89044189453125 1.499996900558472 37.966796875 C 1.499996900558472 33.04315185546875 2.463963508605957 28.26757431030273 4.365118980407715 23.77274131774902 C 6.201741218566895 19.43047523498535 8.831341743469238 15.53040790557861 12.18087482452393 12.18087482452393 C 15.53040790557861 8.831341743469238 19.43047523498535 6.201741218566895 23.77274131774902 4.365118980407715 C 28.26757431030273 2.463963508605957 33.04315185546875 1.499996900558472 37.966796875 1.499996900558472 C 42.89044189453125 1.499996900558472 47.66601943969727 2.463963508605957 52.16086196899414 4.365118980407715 C 56.50312042236328 6.201741218566895 60.4031867980957 8.831341743469238 63.75271987915039 12.18087482452393 C 67.10224914550781 15.53040790557861 69.73184967041016 19.43047523498535 71.56847381591797 23.77274131774902 C 73.46962738037109 28.26757431030273 74.43359375 33.04315185546875 74.43359375 37.966796875 C 74.43359375 42.89044189453125 73.46962738037109 47.66601943969727 71.56847381591797 52.16086196899414 C 69.73184967041016 56.50313186645508 67.10224914550781 60.4031867980957 63.75271987915039 63.75271987915039 C 60.4031867980957 67.10224914550781 56.50313186645508 69.73184967041016 52.16086196899414 71.56847381591797 C 47.66601943969727 73.46962738037109 42.89044189453125 74.43359375 37.966796875 74.43359375 Z" stroke="none"/>
                              <path d="M 37.966796875 3 C 33.2449836730957 3 28.66600799560547 3.924095153808594 24.35705947875977 5.746635437011719 C 20.19359588623047 7.507637023925781 16.45379638671875 10.02928161621094 13.24153518676758 13.24153518676758 C 10.02927398681641 16.45379638671875 7.507621765136719 20.19359588623047 5.746635437011719 24.35705947875977 C 3.924095153808594 28.66600799560547 3 33.2449836730957 3 37.966796875 C 3 42.6886100769043 3.924095153808594 47.26758575439453 5.746635437011719 51.57653427124023 C 7.507621765136719 55.73999786376953 10.02927398681641 59.47979736328125 13.24153518676758 62.69205856323242 C 16.45379638671875 65.90431976318359 20.19359588623047 68.42597198486328 24.35705947875977 70.18695831298828 C 28.66600799560547 72.00949859619141 33.2449836730957 72.93359375 37.966796875 72.93359375 C 42.6886100769043 72.93359375 47.26758575439453 72.00949859619141 51.57653427124023 70.18695831298828 C 55.73999786376953 68.42597198486328 59.47979736328125 65.90431976318359 62.69205856323242 62.69205856323242 C 65.90431976318359 59.47979736328125 68.42597198486328 55.73999786376953 70.18695831298828 51.57653427124023 C 72.00949859619141 47.26758575439453 72.93359375 42.6886100769043 72.93359375 37.966796875 C 72.93359375 33.2449836730957 72.00949859619141 28.66600799560547 70.18695831298828 24.35705947875977 C 68.42597198486328 20.19359588623047 65.90431976318359 16.45379638671875 62.69205856323242 13.24153518676758 C 59.47979736328125 10.02928161621094 55.73999786376953 7.507637023925781 51.57653427124023 5.746635437011719 C 47.26758575439453 3.924095153808594 42.6886100769043 3 37.966796875 3 M 37.966796875 0 C 58.93528366088867 0 75.93359375 16.99832153320312 75.93359375 37.966796875 C 75.93359375 58.93528366088867 58.93528366088867 75.93359375 37.966796875 75.93359375 C 16.99831008911133 75.93359375 0 58.93528366088867 0 37.966796875 C 0 16.99832153320312 16.99831008911133 0 37.966796875 0 Z" stroke="none" fill="#84792b"/>
                            </g>
                          </g>
                        </g>
                      </g>
                    </g>
                  </g>
                </g>
              </g>
            </g>
          </g>
        </g>
      </g>
    </g>
    <g id="pintura-rupestre_1_" data-name="pintura-rupestre (1)" transform="translate(210.215 9470.635)">
      <g id="Grupo_1185501" data-name="Grupo 1185501" transform="translate(0.737 31.504)">
        <path id="Trazado_1050130" data-name="Trazado 1050130" d="M20.14,78.208l-1.307-1.9a7.806,7.806,0,0,0-2.962-2.57l-4.035-2A7.806,7.806,0,0,1,7.5,64.741V56.09A7.806,7.806,0,0,1,10.425,50l9.02-7.229a7.806,7.806,0,0,1,3.514-1.594l15.767-2.805a7.806,7.806,0,0,1,7.267,2.574l8.434,9.734a7.807,7.807,0,0,1,1.906,5.112v7.882a7.807,7.807,0,0,1-2.421,5.652l-3.339,3.182a7.807,7.807,0,0,0-2.062,3.31l-.016.05a6.531,6.531,0,0,1-6,4.568l-16.744.6a6.531,6.531,0,0,1-5.616-2.827Z" transform="translate(-7.5 -38.25)" fill="#f2b88f"/>
      </g>
      <g id="Grupo_1185502" data-name="Grupo 1185502" transform="translate(0.737 33.504)">
        <path id="Trazado_1050131" data-name="Trazado 1050131" d="M39.917,94.655c-1.806-1.33-10.938-.978-14.675-2.584s-8.193-16.633-6.59-19.354S24.765,60.562,28.167,58.6l-5.208.926a7.806,7.806,0,0,0-3.514,1.594l-9.02,7.229A7.807,7.807,0,0,0,7.5,74.44v8.651a7.806,7.806,0,0,0,4.335,6.992l4.035,2a7.806,7.806,0,0,1,2.962,2.57l1.307,1.9a6.531,6.531,0,0,0,5.616,2.827l16.744-.6A8.767,8.767,0,0,0,39.917,94.655Z" transform="translate(-7.5 -58.599)" fill="#e3a67b"/>
      </g>
      <g id="Grupo_1185503" data-name="Grupo 1185503" transform="translate(0 30.769)">
        <path id="Trazado_1050132" data-name="Trazado 1050132" d="M28.061,73.226l-4.719.169.669-1.789a1.229,1.229,0,0,1,.845-.759l8.311-2.129a2.708,2.708,0,0,0,1.847-1.636L36.2,64.033A.737.737,0,1,0,34.83,63.5l-1.189,3.05a1.231,1.231,0,0,1-.839.743L24.49,69.42a2.7,2.7,0,0,0-1.86,1.671l-.884,2.362-2.781.1a5.77,5.77,0,0,1-4.982-2.508l-1.307-1.9a8.562,8.562,0,0,0-3.241-2.812l-4.035-2A7.028,7.028,0,0,1,1.474,58V53.721l4.947-4a2.691,2.691,0,0,0,1-2.1V45.929a.737.737,0,1,0-1.474,0v1.694a1.223,1.223,0,0,1-.456.955L1.474,51.826V49.345a7.036,7.036,0,0,1,2.649-5.517l9.02-7.229a7.089,7.089,0,0,1,3.183-1.444l1.546-.275L19.182,36.7a2.708,2.708,0,0,0,2.194,1.125H33.623a.737.737,0,0,0,0-1.474H21.377a1.231,1.231,0,0,1-1-.511l-.9-1.25,12.611-2.244a7.1,7.1,0,0,1,6.581,2.331L41.549,38a.737.737,0,0,0,1.114-.965l-2.876-3.319A8.583,8.583,0,0,0,31.834,30.9L16.067,33.7a8.567,8.567,0,0,0-3.846,1.745L3.2,42.678A8.5,8.5,0,0,0,0,49.345V58a8.493,8.493,0,0,0,4.745,7.652l4.035,2a7.085,7.085,0,0,1,2.682,2.327l1.307,1.9a7.231,7.231,0,0,0,5.984,3.151c.088,0,.177,0,.266,0l9.095-.326a.737.737,0,0,0-.053-1.473Z" transform="translate(0 -30.769)"/>
        <path id="Trazado_1050133" data-name="Trazado 1050133" d="M327.692,126.791v-2.326a8.546,8.546,0,0,0-2.086-5.594l-3.647-4.209a.737.737,0,1,0-1.114.965l3.647,4.209a7.071,7.071,0,0,1,1.727,4.629v1.81l-.637.212a1.232,1.232,0,0,1-1.454-.556l-1.86-3.255a.737.737,0,0,0-1.28.731l1.86,3.255a2.711,2.711,0,0,0,2.351,1.361,2.683,2.683,0,0,0,.849-.138l.171-.057v4.519a7.1,7.1,0,0,1-2.193,5.118l-3.339,3.182a8.567,8.567,0,0,0-2.256,3.622l-.016.05a5.8,5.8,0,0,1-5.32,4.052l-4.774.171a.737.737,0,0,0,.026,1.473h.027l4.774-.171a7.28,7.28,0,0,0,6.673-5.083l.016-.05a7.089,7.089,0,0,1,1.867-3l3.339-3.182a8.581,8.581,0,0,0,2.65-6.185v-5.556Z" transform="translate(-277.384 -106.189)"/>
        <path id="Trazado_1050134" data-name="Trazado 1050134" d="M81.875,126.693a.876.876,0,0,0-.56-.074l-1.751.47a.737.737,0,1,0,.382,1.424l.01,0-7.334,12.452a.737.737,0,1,0,1.27.748l1.524-2.588,1.1,1.048a2.709,2.709,0,0,0,3.563.138l1.569-1.274v4.553l-2.6,2.66a1.236,1.236,0,0,1-1.363.271L74.46,145.13a.737.737,0,1,0-.581,1.354l3.233,1.388a2.681,2.681,0,0,0,1.058.216,2.716,2.716,0,0,0,1.941-.812l2.394-2.452,3.612,2.233a1.22,1.22,0,0,1,.549.759l1.123,4.694a.737.737,0,0,0,1.433-.343L88.1,147.473a2.685,2.685,0,0,0-1.207-1.67l-3.765-2.328v-4.353l1.608,1.423a2.719,2.719,0,0,0,1.8.677,2.676,2.676,0,0,0,.781-.116l2.861-.873a.737.737,0,1,0-.43-1.41l-2.861.873a1.235,1.235,0,0,1-1.172-.255l-2.029-1.8a2.7,2.7,0,1,0-2.627-.025l-1.9,1.543a1.231,1.231,0,0,1-1.62-.063l-1.351-1.282,5.065-8.6.014.054a.737.737,0,1,0,1.424-.382l-.47-1.75A.8.8,0,0,0,81.875,126.693Zm.515,7.352a1.228,1.228,0,1,1-1.228,1.228A1.23,1.23,0,0,1,82.39,134.045Z" transform="translate(-65.395 -117.187)"/>
        <path id="Trazado_1050135" data-name="Trazado 1050135" d="M273.513,117.914a.729.729,0,0,0-.523.216l-1.3,1.237a.737.737,0,1,0,1.017,1.067l.008-.007-.478,14.444a.737.737,0,0,0,.712.761h.025a.737.737,0,0,0,.736-.713l.231-6.978,1.976.51a2.714,2.714,0,0,0,2.378-.518l2.139-1.737v4.517l-3.22,2.8a2.7,2.7,0,0,0-.9,1.643l-.8,5.424a.737.737,0,1,0,1.458.216l.8-5.424a1.229,1.229,0,0,1,.409-.747l3.064-2.664,3.653,2.258a1.22,1.22,0,0,1,.549.759l1.123,4.694a.737.737,0,1,0,1.433-.343l-1.123-4.694a2.685,2.685,0,0,0-1.207-1.67l-3.765-2.327v-4.787l2.642,1.345a1.229,1.229,0,0,1,.58.63l.886,2.168a.737.737,0,0,0,1.364-.558l-.886-2.168a2.7,2.7,0,0,0-1.275-1.386l-2.469-1.257a2.7,2.7,0,1,0-2.914.157l-2.47,2.005a1.233,1.233,0,0,1-1.081.236l-2.294-.592.2-6,.039.04a.737.737,0,0,0,1.067-1.017l-1.2-1.254a.991.991,0,0,0-.588-.286Zm7.66,3.294a1.228,1.228,0,1,1-1.228,1.228A1.23,1.23,0,0,1,281.173,121.208Z" transform="translate(-244.79 -109.351)"/>
      </g>
    </g>
  </g>
</svg>
