<svg xmlns="http://www.w3.org/2000/svg" xmlns:xlink="http://www.w3.org/1999/xlink" width="93.934" height="93.934" viewBox="0 0 93.934 93.934">
  <defs>
    <filter id="Trazado_982547" x="0" y="0" width="93.934" height="93.934" filterUnits="userSpaceOnUse">
      <feOffset dy="3" input="SourceAlpha"/>
      <feGaussianBlur stdDeviation="3" result="blur"/>
      <feFlood flood-opacity="0.161"/>
      <feComposite operator="in" in2="blur"/>
      <feComposite in="SourceGraphic"/>
    </filter>
  </defs>
  <g id="Grupo_1185507" data-name="Grupo 1185507" transform="translate(-608.402 -9479.568)">
    <g id="Grupo_1183666" data-name="Grupo 1183666" transform="translate(-0.598 8175.569)">
      <g id="Grupo_1181744" data-name="Grupo 1181744" transform="translate(0 569)">
        <g id="Grupo_1175134" data-name="Grupo 1175134" transform="translate(419.967 -1251)">
          <g id="Grupo_1167337" data-name="Grupo 1167337" transform="translate(198.033 1992)">
            <g id="Grupo_1166720" data-name="Grupo 1166720">
              <g id="Grupo_1164305" data-name="Grupo 1164305">
                <g id="Grupo_1163948" data-name="Grupo 1163948">
                  <g id="Grupo_1158168" data-name="Grupo 1158168">
                    <g id="Grupo_1152576" data-name="Grupo 1152576">
                      <g id="Grupo_1148633" data-name="Grupo 1148633">
                        <g id="Grupo_1148525" data-name="Grupo 1148525">
                          <g transform="matrix(1, 0, 0, 1, -9, -6)" filter="url(#Trazado_982547)">
                            <g id="Trazado_982547-2" data-name="Trazado 982547" transform="translate(9 6)" fill="#fdfbec">
                              <path d="M 37.966796875 74.43359375 C 33.04315185546875 74.43359375 28.26757431030273 73.46962738037109 23.77274131774902 71.56847381591797 C 19.43047523498535 69.73184967041016 15.53040790557861 67.10224914550781 12.18087482452393 63.75271987915039 C 8.831341743469238 60.4031867980957 6.201741218566895 56.50312042236328 4.365118980407715 52.16086196899414 C 2.463963508605957 47.66601943969727 1.499996900558472 42.89044189453125 1.499996900558472 37.966796875 C 1.499996900558472 33.04315185546875 2.463963508605957 28.26757431030273 4.365118980407715 23.77274131774902 C 6.201741218566895 19.43047523498535 8.831341743469238 15.53040790557861 12.18087482452393 12.18087482452393 C 15.53040790557861 8.831341743469238 19.43047523498535 6.201741218566895 23.77274131774902 4.365118980407715 C 28.26757431030273 2.463963508605957 33.04315185546875 1.499996900558472 37.966796875 1.499996900558472 C 42.89044189453125 1.499996900558472 47.66601943969727 2.463963508605957 52.16086196899414 4.365118980407715 C 56.50312042236328 6.201741218566895 60.4031867980957 8.831341743469238 63.75271987915039 12.18087482452393 C 67.10224914550781 15.53040790557861 69.73184967041016 19.43047523498535 71.56847381591797 23.77274131774902 C 73.46962738037109 28.26757431030273 74.43359375 33.04315185546875 74.43359375 37.966796875 C 74.43359375 42.89044189453125 73.46962738037109 47.66601943969727 71.56847381591797 52.16086196899414 C 69.73184967041016 56.50313186645508 67.10224914550781 60.4031867980957 63.75271987915039 63.75271987915039 C 60.4031867980957 67.10224914550781 56.50313186645508 69.73184967041016 52.16086196899414 71.56847381591797 C 47.66601943969727 73.46962738037109 42.89044189453125 74.43359375 37.966796875 74.43359375 Z" stroke="none"/>
                              <path d="M 37.966796875 3 C 33.2449836730957 3 28.66600799560547 3.924095153808594 24.35705947875977 5.746635437011719 C 20.19359588623047 7.507637023925781 16.45379638671875 10.02928161621094 13.24153518676758 13.24153518676758 C 10.02927398681641 16.45379638671875 7.507621765136719 20.19359588623047 5.746635437011719 24.35705947875977 C 3.924095153808594 28.66600799560547 3 33.2449836730957 3 37.966796875 C 3 42.6886100769043 3.924095153808594 47.26758575439453 5.746635437011719 51.57653427124023 C 7.507621765136719 55.73999786376953 10.02927398681641 59.47979736328125 13.24153518676758 62.69205856323242 C 16.45379638671875 65.90431976318359 20.19359588623047 68.42597198486328 24.35705947875977 70.18695831298828 C 28.66600799560547 72.00949859619141 33.2449836730957 72.93359375 37.966796875 72.93359375 C 42.6886100769043 72.93359375 47.26758575439453 72.00949859619141 51.57653427124023 70.18695831298828 C 55.73999786376953 68.42597198486328 59.47979736328125 65.90431976318359 62.69205856323242 62.69205856323242 C 65.90431976318359 59.47979736328125 68.42597198486328 55.73999786376953 70.18695831298828 51.57653427124023 C 72.00949859619141 47.26758575439453 72.93359375 42.6886100769043 72.93359375 37.966796875 C 72.93359375 33.2449836730957 72.00949859619141 28.66600799560547 70.18695831298828 24.35705947875977 C 68.42597198486328 20.19359588623047 65.90431976318359 16.45379638671875 62.69205856323242 13.24153518676758 C 59.47979736328125 10.02928161621094 55.73999786376953 7.507637023925781 51.57653427124023 5.746635437011719 C 47.26758575439453 3.924095153808594 42.6886100769043 3 37.966796875 3 M 37.966796875 0 C 58.93528366088867 0 75.93359375 16.99832153320312 75.93359375 37.966796875 C 75.93359375 58.93528366088867 58.93528366088867 75.93359375 37.966796875 75.93359375 C 16.99831008911133 75.93359375 0 58.93528366088867 0 37.966796875 C 0 16.99832153320312 16.99831008911133 0 37.966796875 0 Z" stroke="none" fill="#84792b"/>
                            </g>
                          </g>
                        </g>
                      </g>
                    </g>
                  </g>
                </g>
              </g>
            </g>
          </g>
        </g>
      </g>
    </g>
    <g id="Icons" transform="translate(617.389 9495.877)">
      <g id="Grupo_1185506" data-name="Grupo 1185506" transform="translate(16.4 3.6)">
        <path id="Trazado_1050136" data-name="Trazado 1050136" d="M69.154,12.906a4.5,4.5,0,0,0,.077-.715,3.846,3.846,0,0,0-3.848-3.848,3.754,3.754,0,0,0-1.953.541.908.908,0,0,1-1.18-.232A4.736,4.736,0,0,0,58.461,6.8,3.726,3.726,0,0,0,58,6.815a11.789,11.789,0,0,1-4.331-.5A6.038,6.038,0,0,0,52.08,6.1a5.7,5.7,0,0,0-2.552.6,9.711,9.711,0,0,1-4.834.986h-.232a4.536,4.536,0,0,0-4.351,3.268,4.732,4.732,0,0,1-1.779,2.456,4.6,4.6,0,0,0-1.74,2.958A13.27,13.27,0,0,1,35.644,20a7.679,7.679,0,0,0,.851,7.425,2.757,2.757,0,0,1-.1,3.307,4.506,4.506,0,0,0,.657,6.246,2.835,2.835,0,0,1,1.005,1.876,2.791,2.791,0,0,0,2.668,2.359,2.753,2.753,0,0,0,2.823-2.765,2.7,2.7,0,0,0-.522-1.6,4.539,4.539,0,0,0,1.45-3.326,4.491,4.491,0,0,0-1.064-2.9,7.7,7.7,0,0,0,3.074-14.386,4.537,4.537,0,0,0,1.122-.793,5.747,5.747,0,0,0,8.663.348,4.76,4.76,0,0,0,5.994-1.354l.174.232a4.5,4.5,0,0,0-.077.715,3.846,3.846,0,1,0,6.787-2.475Z" transform="translate(-31.448 -5.617)" fill="#afafaf"/>
        <path id="Trazado_1050137" data-name="Trazado 1050137" d="M20.6,140.6H62.463v-6.265l-9.92-.715a6.844,6.844,0,0,1-6.362-6.826V114.4H29.031v11.447A17.141,17.141,0,0,1,20.6,140.6Z" transform="translate(-19.788 -92.975)" fill="#efefef"/>
        <path id="Trazado_1050138" data-name="Trazado 1050138" d="M81.593,129.266H78.866a11.343,11.343,0,0,1-10.809-7.909,3.787,3.787,0,0,1-.677,1.334,3.323,3.323,0,0,1-3.481,4.486c.039-.464.058-.947.058-1.431V114.3H81.109v12.395A7,7,0,0,0,81.593,129.266Z" transform="translate(-54.715 -92.895)" fill="#afafaf"/>
        <path id="Trazado_1050139" data-name="Trazado 1050139" d="M56.956,122.244a2.836,2.836,0,0,0-.387-1.392,2.589,2.589,0,1,0-4.718-1.47,2.667,2.667,0,0,0,.309,1.238,2.678,2.678,0,0,0-.561,1.644,2.648,2.648,0,0,0,1.315,2.3,1.986,1.986,0,0,0,1.218,3.326,1.973,1.973,0,0,0,2.2-1.972,1.947,1.947,0,0,0-.213-.889.861.861,0,0,1,.155-.967A2.924,2.924,0,0,0,56.956,122.244Z" transform="translate(-44.794 -94.903)" fill="#afafaf"/>
        <path id="Trazado_1050140" data-name="Trazado 1050140" d="M89.656,58.254,89,51.1H68.889v7.309h-.715a4.273,4.273,0,0,0,0,8.547h.715a9.977,9.977,0,0,0,9.978,9.978h5.492a.985.985,0,0,0,.986-.87l.986-7.715h1.856a1,1,0,0,0,.986-1.16l-1.18-7.038a.678.678,0,0,1,.657-.793A1.021,1.021,0,0,0,89.656,58.254Z" transform="translate(-54.715 -41.915)" fill="#efefef"/>
        <path id="Trazado_1050141" data-name="Trazado 1050141" d="M110.242,53.942a4.922,4.922,0,0,1-4.138-.193,5.72,5.72,0,0,1-.986.947,4.573,4.573,0,0,0-.619.522,5.545,5.545,0,0,1-4.061,1.837A5.56,5.56,0,0,1,97.248,59.7a1.524,1.524,0,0,0-1.006.967l-1.2,3.867A5.37,5.37,0,0,1,90,68.309L89.9,51.1h20.11Z" transform="translate(-75.688 -41.915)" fill="#afafaf"/>
        <path id="Trazado_1050142" data-name="Trazado 1050142" d="M83.65,58.325A4.027,4.027,0,0,0,87.5,55.5l1.2-3.867a2.806,2.806,0,0,1,1.895-1.856,4.2,4.2,0,0,0,2.746-2.8,4.171,4.171,0,0,0,3.925-1.3,5.808,5.808,0,0,1,.812-.715,4.272,4.272,0,0,0,1.025-1.1.68.68,0,0,1,.986-.193,3.618,3.618,0,0,0,5.685-3.268L82.2,42.237v7.541h1.45Z" transform="translate(-69.477 -33.284)" fill="#afafaf"/>
        <path id="Trazado_1050143" data-name="Trazado 1050143" d="M210.879,91.278c-.715-.232-1.276-.387-1.663-2.011a.519.519,0,0,0-1.005,0c-.367,1.586-.889,1.76-1.663,2.011a.523.523,0,0,0,0,.986c1.3.425,1.431,1.064,1.663,2.011a.519.519,0,0,0,1.005,0c.367-1.586.909-1.76,1.663-2.011A.523.523,0,0,0,210.879,91.278Z" transform="translate(-169.499 -72.386)"/>
        <path id="Trazado_1050144" data-name="Trazado 1050144" d="M216.666,100.189a2.341,2.341,0,0,0-.754.851,2.4,2.4,0,0,0-.812-.851,2.773,2.773,0,0,0,.793-.889A2.756,2.756,0,0,0,216.666,100.189Z" transform="translate(-176.678 -80.795)" fill="#ffc000"/>
        <path id="Trazado_1050145" data-name="Trazado 1050145" d="M21.079,15.678c-.715-.232-1.276-.387-1.663-2.011a.519.519,0,0,0-1.005,0c-.367,1.586-.889,1.76-1.663,2.011a.523.523,0,0,0,0,.986c1.3.425,1.431,1.064,1.663,2.011a.519.519,0,0,0,1.005,0c.367-1.586.909-1.76,1.663-2.011A.523.523,0,0,0,21.079,15.678Z" transform="translate(-16.4 -11.404)"/>
        <path id="Trazado_1050146" data-name="Trazado 1050146" d="M26.866,24.589a2.341,2.341,0,0,0-.754.851,2.4,2.4,0,0,0-.812-.851,2.772,2.772,0,0,0,.793-.889A2.756,2.756,0,0,0,26.866,24.589Z" transform="translate(-23.579 -19.813)" fill="#ffc000"/>
        <g id="Grupo_1185505" data-name="Grupo 1185505" transform="translate(5.504 2.31)">
          <path id="Trazado_1050147" data-name="Trazado 1050147" d="M45.163,28.821a.468.468,0,0,1-.251-.638c.077-.174.135-.348.213-.522a.483.483,0,0,1,.909.329c-.077.193-.135.367-.213.561A.529.529,0,0,1,45.163,28.821Zm.851-2.378a.472.472,0,0,1-.348-.58c.135-.541.232-1.122.329-1.682a3.1,3.1,0,0,1,1.18-2.011,6.25,6.25,0,0,0,2.282-3.21,3.069,3.069,0,0,1,2.958-2.224h.174a11.091,11.091,0,0,0,5.53-1.141.489.489,0,0,1,.445.87A12.245,12.245,0,0,1,52.55,17.7h-.135a2.129,2.129,0,0,0-2.03,1.528,7.166,7.166,0,0,1-2.63,3.713,2.078,2.078,0,0,0-.812,1.373,13.771,13.771,0,0,1-.348,1.779A.458.458,0,0,1,46.014,26.443Z" transform="translate(-44.867 -15.546)" fill="#fff"/>
          <path id="Trazado_1050148" data-name="Trazado 1050148" d="M46.141,198.76a.485.485,0,0,1-.039-.677c.135-.135.251-.29.367-.425a.48.48,0,0,1,.735.619l-.387.445A.485.485,0,0,1,46.141,198.76Zm1.624-1.934a.489.489,0,0,1-.116-.677,19.15,19.15,0,0,0,3.036-7.309.482.482,0,0,1,.947.174,19.983,19.983,0,0,1-3.191,7.7A.5.5,0,0,1,47.765,196.826Z" transform="translate(-45.767 -155.01)" fill="#fff"/>
          <path id="Trazado_1050149" data-name="Trazado 1050149" d="M112.614,151.579h-.58a.483.483,0,0,1,0-.967h.58a.483.483,0,0,1,0,.967Zm-2.514,0h-2.166a8.569,8.569,0,0,1-7.967-5.492.478.478,0,0,1,.889-.348,7.626,7.626,0,0,0,7.077,4.873H110.1a.483.483,0,0,1,0,.967Z" transform="translate(-89.288 -120.32)" fill="#fff"/>
        </g>
        <path id="Trazado_1050150" data-name="Trazado 1050150" d="M150.883,101.867h2.475a.483.483,0,1,0,0-.967h-2.475a.483.483,0,0,0,0,.967Z" transform="translate(-124.489 -82.086)"/>
        <path id="Trazado_1050151" data-name="Trazado 1050151" d="M150.883,85.247h2.108a1.428,1.428,0,0,1,1.3.831l.29.619a.48.48,0,0,0,.87-.406l-.29-.619a2.4,2.4,0,0,0-2.166-1.373h-2.108a.479.479,0,0,0-.483.483A.463.463,0,0,0,150.883,85.247Z" transform="translate(-124.489 -68.695)"/>
        <path id="Trazado_1050152" data-name="Trazado 1050152" d="M35.276,14.409a4.08,4.08,0,0,1,1.547-2.63,5.41,5.41,0,0,0,1.953-2.707,4.061,4.061,0,0,1,3.887-2.92h.213a10.3,10.3,0,0,0,5.066-1.044,5.192,5.192,0,0,1,2.34-.541,6.226,6.226,0,0,1,1.45.193c.425.116.812.213,1.3.309a.482.482,0,1,0,.174-.947c-.522-.1-.87-.213-1.218-.29a6.442,6.442,0,0,0-1.7-.232,6.235,6.235,0,0,0-2.765.638,9.049,9.049,0,0,1-4.583.928h-.251a5.035,5.035,0,0,0-4.815,3.616,4.2,4.2,0,0,1-1.6,2.2,5.023,5.023,0,0,0-1.914,3.268,15.062,15.062,0,0,1-.947,3.539,8.222,8.222,0,0,0,.889,7.889,2.265,2.265,0,0,1-.077,2.726,4.99,4.99,0,0,0,.715,6.922,2.45,2.45,0,0,1,.851,1.586,3.271,3.271,0,0,0,2.34,2.649,12.966,12.966,0,0,1-.483,1.895.477.477,0,1,0,.909.29,16.986,16.986,0,0,0,.793-4.718,2.469,2.469,0,0,0,2.3-2.456,2.382,2.382,0,0,0-.271-1.1.4.4,0,0,1,.077-.425,3.159,3.159,0,0,0,.812-2.108,3.316,3.316,0,0,0-.309-1.373,3.084,3.084,0,0,0,.232-.522,4.676,4.676,0,0,0,.909.077h.232A10.478,10.478,0,0,0,53.781,39.1h1.953a7.316,7.316,0,0,0,6.613,5.627l.986.077a.5.5,0,0,0,.522-.445.48.48,0,0,0-.445-.522l-.986-.077a6.347,6.347,0,0,1-5.685-4.66h2.552a1.482,1.482,0,0,0,1.47-1.3l.928-7.29H63.12a1.5,1.5,0,0,0,1.47-1.74l-1.218-7.038a.179.179,0,0,1,.193-.213,1.476,1.476,0,0,0,1.47-1.624l-.193-2.2H64.9a4.369,4.369,0,0,0,3.79-3.713,4.311,4.311,0,0,0-.851-3.21c.019-.193.039-.387.039-.58a4.337,4.337,0,0,0-4.331-4.331,4.439,4.439,0,0,0-2.2.6.389.389,0,0,1-.541-.116,5.26,5.26,0,0,0-3.829-2.03.464.464,0,0,0-.5.445.48.48,0,0,0,.445.522,4.227,4.227,0,0,1,3.113,1.663,1.361,1.361,0,0,0,1.8.348,3.312,3.312,0,0,1,1.7-.464,3.367,3.367,0,0,1,3.365,3.365,3.56,3.56,0,0,1-.058.638.53.53,0,0,0,.116.406,3.323,3.323,0,0,1,.773,2.63,3.385,3.385,0,0,1-2.939,2.881h-.039l-.213-2.32a4.158,4.158,0,0,0,.87-.773.48.48,0,1,0-.735-.619,3.156,3.156,0,0,1-2.34,1.122h-.019a3.188,3.188,0,0,1-1.8-.561,1.178,1.178,0,0,0-1.682.329,3.687,3.687,0,0,1-.909.986,5.545,5.545,0,0,0-.889.773,3.633,3.633,0,0,1-3.481,1.141.48.48,0,0,0-.561.329,3.689,3.689,0,0,1-2.417,2.475,3.285,3.285,0,0,0-2.2,2.185l-1.2,3.867a3.52,3.52,0,0,1-2.9,2.456V20.113a.479.479,0,0,0-.483-.483h-.619a4.835,4.835,0,0,0-4.853,4.679,4.749,4.749,0,0,0,2.92,4.467,3.217,3.217,0,0,1-.251.522.468.468,0,0,0-.019.522,2.179,2.179,0,0,1-.232,2.61,1.324,1.324,0,0,0-.213,1.508,1.581,1.581,0,0,1,.155.677A1.5,1.5,0,0,1,39.008,36.1a.5.5,0,0,0-.638.483,18.581,18.581,0,0,1-.135,2.069,2.3,2.3,0,0,1-1.528-1.837,3.3,3.3,0,0,0-1.18-2.185,4.02,4.02,0,0,1-.58-5.588,3.222,3.222,0,0,0,.116-3.887A7.284,7.284,0,0,1,34.27,18.2a16.516,16.516,0,0,0,1.005-3.79ZM48.1,25.953l1.2-3.867a2.406,2.406,0,0,1,1.566-1.547,4.692,4.692,0,0,0,2.92-2.726A4.727,4.727,0,0,0,57.745,16.3a4.054,4.054,0,0,1,.735-.638,4.339,4.339,0,0,0,1.141-1.238.2.2,0,0,1,.309-.058,4.089,4.089,0,0,0,2.34.735h.019a4.229,4.229,0,0,0,1.3-.213l.464,5.066a.525.525,0,0,1-.522.58,1.158,1.158,0,0,0-1.141,1.354l1.18,7.038a.515.515,0,0,1-.5.6h-3a.686.686,0,1,1,0-1.373h.1a.483.483,0,0,0,0-.967h-.077a1.663,1.663,0,0,0,0,3.326h.6l-.29,2.3H57.551a.483.483,0,0,0,0,.967h2.726l-.5,3.906a.523.523,0,0,1-.522.445H53.761a9.53,9.53,0,0,1-9.494-9.049A4.438,4.438,0,0,0,48.1,25.953Zm-8.817-1.644a3.87,3.87,0,0,1,3.887-3.732H43.3v7.58h-.232a3.8,3.8,0,0,1-3.79-3.848Z" transform="translate(-29.61 -3.6)"/>
        <path id="Trazado_1050153" data-name="Trazado 1050153" d="M145.683,8.467A.475.475,0,0,0,146.167,8a.484.484,0,1,0-.967-.039A.509.509,0,0,0,145.683,8.467Z" transform="translate(-120.295 -6.746)"/>
        <path id="Trazado_1050154" data-name="Trazado 1050154" d="M18.2,222.771a.477.477,0,0,0,.657.174,17.783,17.783,0,0,0,6.246-6.265.481.481,0,0,0-.831-.483,16.783,16.783,0,0,1-5.9,5.917.461.461,0,0,0-.174.657Z" transform="translate(-17.797 -174.894)"/>
        <path id="Trazado_1050155" data-name="Trazado 1050155" d="M55,207.7a.474.474,0,0,0-.251-.638.508.508,0,0,0-.638.251.474.474,0,0,0,.251.638A.5.5,0,0,0,55,207.7Z" transform="translate(-46.783 -167.688)"/>
        <path id="Trazado_1050156" data-name="Trazado 1050156" d="M198.817,212.394a.48.48,0,0,0-.522.445.485.485,0,0,0,.967.077A.468.468,0,0,0,198.817,212.394Z" transform="translate(-163.121 -172.02)"/>
        <path id="Trazado_1050157" data-name="Trazado 1050157" d="M213.905,214.429a.5.5,0,0,0,.522-.445.48.48,0,0,0-.445-.522l-5.066-.367a.485.485,0,1,0-.077.967Z" transform="translate(-171.268 -172.585)"/>
        <path id="Trazado_1050158" data-name="Trazado 1050158" d="M89.083,197.7a.479.479,0,0,0-.483.483v1.953a4.49,4.49,0,0,0,1.315,3.191l2.3,2.3a.479.479,0,0,0,.677-.677l-2.282-2.32a3.481,3.481,0,0,1-1.044-2.494v-1.953A.479.479,0,0,0,89.083,197.7Z" transform="translate(-74.639 -160.168)"/>
        <path id="Trazado_1050159" data-name="Trazado 1050159" d="M127.828,198.183a.483.483,0,0,0-.967,0v1.528a7.343,7.343,0,0,1-2.166,5.221.479.479,0,1,0,.677.677,8.292,8.292,0,0,0,2.456-5.917Z" transform="translate(-103.638 -160.168)"/>
      </g>
    </g>
  </g>
</svg>
