<svg xmlns="http://www.w3.org/2000/svg" xmlns:xlink="http://www.w3.org/1999/xlink" width="108" height="108" viewBox="0 0 108 108">
  <defs>
    <filter id="Trazado_978624" x="0" y="0" width="108" height="108" filterUnits="userSpaceOnUse">
      <feOffset dy="3" input="SourceAlpha"/>
      <feGaussianBlur stdDeviation="3" result="blur"/>
      <feFlood flood-opacity="0.161"/>
      <feComposite operator="in" in2="blur"/>
      <feComposite in="SourceGraphic"/>
    </filter>
  </defs>
  <g id="Grupo_1185517" data-name="Grupo 1185517" transform="translate(-615.516 -10718.568)">
    <g id="Grupo_1183714" data-name="Grupo 1183714" transform="translate(-0.484 4545.569)">
      <g id="Grupo_1179608" data-name="Grupo 1179608" transform="translate(0 4921)">
        <g id="Grupo_1172348" data-name="Grupo 1172348" transform="translate(0 806.5)">
          <g id="Grupo_1171897" data-name="Grupo 1171897" transform="translate(625 451.5)">
            <g id="Grupo_1171052" data-name="Grupo 1171052" transform="translate(0)">
              <g id="Grupo_1164581" data-name="Grupo 1164581">
                <g id="Grupo_1144123" data-name="Grupo 1144123">
                  <g transform="matrix(1, 0, 0, 1, -9, -6)" filter="url(#Trazado_978624)">
                    <g id="Trazado_978624-2" data-name="Trazado 978624" transform="translate(9 6)" fill="#ebe9f0">
                      <path d="M 45 88.5 C 39.12687683105469 88.5 33.43022537231445 87.35007476806641 28.06830024719238 85.08217620849609 C 22.88852500915527 82.89131164550781 18.23629951477051 79.75458526611328 14.2408504486084 75.75914764404297 C 10.24541282653809 71.76370239257812 7.108687400817871 67.11147308349609 4.917825222015381 61.93170166015625 C 2.649924993515015 56.56977462768555 1.5 50.87312316894531 1.5 45 C 1.5 39.12687683105469 2.649924993515015 33.43022537231445 4.917825222015381 28.06830024719238 C 7.108687400817871 22.88852500915527 10.24541282653809 18.23629951477051 14.2408504486084 14.2408504486084 C 18.23629951477051 10.24541282653809 22.88852500915527 7.108687400817871 28.06830024719238 4.917825222015381 C 33.43022537231445 2.649924993515015 39.12687683105469 1.5 45 1.5 C 50.87312316894531 1.5 56.56977462768555 2.649924993515015 61.93170166015625 4.917825222015381 C 67.11147308349609 7.108687400817871 71.76370239257812 10.24541282653809 75.75914764404297 14.2408504486084 C 79.75458526611328 18.23629951477051 82.89131164550781 22.88852500915527 85.08217620849609 28.06830024719238 C 87.35007476806641 33.43022537231445 88.5 39.12687683105469 88.5 45 C 88.5 50.87312316894531 87.35007476806641 56.56977462768555 85.08217620849609 61.93170166015625 C 82.89131164550781 67.11147308349609 79.75458526611328 71.76370239257812 75.75914764404297 75.75914764404297 C 71.76370239257812 79.75458526611328 67.11147308349609 82.89131164550781 61.93170166015625 85.08217620849609 C 56.56977462768555 87.35007476806641 50.87312316894531 88.5 45 88.5 Z" stroke="none"/>
                      <path d="M 45 3 C 39.32871246337891 3 33.82865524291992 4.110054016113281 28.65262985229492 6.299339294433594 C 23.65165710449219 8.414573669433594 19.15968322753906 11.44334411621094 15.301513671875 15.301513671875 C 11.44334411621094 19.15968322753906 8.414573669433594 23.65165710449219 6.299339294433594 28.65262985229492 C 4.110054016113281 33.82865524291992 3 39.32871246337891 3 45 C 3 50.67128753662109 4.110054016113281 56.17134475708008 6.299339294433594 61.34737396240234 C 8.414573669433594 66.34834289550781 11.44334411621094 70.84031677246094 15.301513671875 74.698486328125 C 19.15968322753906 78.55665588378906 23.65165710449219 81.58542633056641 28.65262985229492 83.70066070556641 C 33.82865524291992 85.88994598388672 39.32871246337891 87 45 87 C 50.67128753662109 87 56.17134475708008 85.88994598388672 61.34737396240234 83.70066070556641 C 66.34834289550781 81.58542633056641 70.84031677246094 78.55665588378906 74.698486328125 74.698486328125 C 78.55665588378906 70.84031677246094 81.58542633056641 66.34834289550781 83.70066070556641 61.34737396240234 C 85.88994598388672 56.17134475708008 87 50.67128753662109 87 45 C 87 39.32871246337891 85.88994598388672 33.82865524291992 83.70066070556641 28.65262985229492 C 81.58542633056641 23.65165710449219 78.55665588378906 19.15968322753906 74.698486328125 15.301513671875 C 70.84031677246094 11.44334411621094 66.34834289550781 8.414573669433594 61.34737396240234 6.299339294433594 C 56.17134475708008 4.110054016113281 50.67128753662109 3 45 3 M 45 0 C 69.85281372070312 0 90 20.14718627929688 90 45 C 90 69.85281372070312 69.85281372070312 90 45 90 C 20.14718627929688 90 0 69.85281372070312 0 45 C 0 20.14718627929688 20.14718627929688 0 45 0 Z" stroke="none" fill="#453179"/>
                    </g>
                  </g>
                </g>
              </g>
            </g>
          </g>
        </g>
      </g>
    </g>
    <g id="collage" transform="translate(644.325 10744.377)">
      <path id="Trazado_1050176" data-name="Trazado 1050176" d="M55.183,56.407H8.724A1.223,1.223,0,0,1,7.5,55.184V22.678a1.222,1.222,0,0,1,.358-.865L21.828,7.858a1.224,1.224,0,0,1,.865-.358H55.183a1.223,1.223,0,0,1,1.224,1.223V55.184A1.223,1.223,0,0,1,55.183,56.407Z" transform="translate(-6.762 -6.762)" fill="#e2ebf7"/>
      <path id="Trazado_1050177" data-name="Trazado 1050177" d="M469.342,8.723V55.184a1.223,1.223,0,0,1-1.224,1.223h-2.613a1.223,1.223,0,0,0,1.224-1.223V8.723A1.223,1.223,0,0,0,465.505,7.5h2.613A1.223,1.223,0,0,1,469.342,8.723Z" transform="translate(-419.698 -6.762)" fill="#d1dede"/>
      <path id="Trazado_1050178" data-name="Trazado 1050178" d="M112.93,114.289H79.156a.492.492,0,0,1-.492-.492V80.549a.984.984,0,0,1,.984-.984H112.93a.492.492,0,0,1,.492.492V113.8A.492.492,0,0,1,112.93,114.289Z" transform="translate(-70.923 -71.736)" fill="#f5f5ff"/>
      <path id="Trazado_1050179" data-name="Trazado 1050179" d="M21.012,23.192H7.661a1.223,1.223,0,0,1,.247-.358L21.877,8.878a1.222,1.222,0,0,1,.358-.247V21.969A1.223,1.223,0,0,1,21.012,23.192Z" transform="translate(-6.907 -7.782)" fill="#c0cfcc"/>
      <path id="Trazado_1050180" data-name="Trazado 1050180" d="M114.393,256.971V273.76a.478.478,0,0,1-.478.478h-33.8a.478.478,0,0,1-.478-.478V256.971Z" transform="translate(-71.8 -231.684)" fill="#ffd366"/>
      <path id="Trazado_1050181" data-name="Trazado 1050181" d="M149.227,80.043v33.768a.478.478,0,0,1-.478.478h-16.9V79.565h16.9A.478.478,0,0,1,149.227,80.043Zm-21.872,20.9h-8.605a.478.478,0,0,0-.478.478v8.6a.478.478,0,0,0,.478.478h8.605a.478.478,0,0,0,.478-.478v-8.6A.478.478,0,0,0,127.354,100.939Z" transform="translate(-106.633 -71.736)" fill="#ff8254"/>
      <path id="Trazado_1050182" data-name="Trazado 1050182" d="M303.694,124.875a4.781,4.781,0,1,1-4.781-4.776A4.778,4.778,0,0,1,303.694,124.875Z" transform="translate(-265.189 -108.281)" fill="#ffd366"/>
      <path id="Trazado_1050183" data-name="Trazado 1050183" d="M273.144,274.237h-16.9V256.971h17.379V273.76A.478.478,0,0,1,273.144,274.237Z" transform="translate(-231.028 -231.684)" fill="#a7c763"/>
      <path id="Trazado_1050184" data-name="Trazado 1050184" d="M299.579,308.392h-9.893a.405.405,0,0,1-.344-.62l4.947-7.9a.406.406,0,0,1,.688,0l4.947,7.9A.405.405,0,0,1,299.579,308.392Z" transform="translate(-260.813 -270.191)" fill="#778f45"/>
      <path id="Trazado_1050185" data-name="Trazado 1050185" d="M50.383,9.144V48.422a1.963,1.963,0,0,1-1.961,1.961H1.961A1.963,1.963,0,0,1,0,48.422V42.735a.738.738,0,0,1,1.476,0v5.687a.485.485,0,0,0,.485.485H48.422a.485.485,0,0,0,.485-.485V9.144a.738.738,0,0,1,1.476,0Zm-39.4,29.119V29.7a1.231,1.231,0,0,1,1.23-1.23h8.568a1.231,1.231,0,0,1,1.23,1.23v8.568a1.231,1.231,0,0,1-1.23,1.23H12.215A1.232,1.232,0,0,1,10.985,38.263Zm1.476-.246h8.076V29.941H12.461ZM50.383,1.961V6.183a.738.738,0,1,1-1.476,0V1.961a.485.485,0,0,0-.485-.485H16.148V7.091H42.075a1.217,1.217,0,0,1,1.216,1.216V42.076a1.217,1.217,0,0,1-1.216,1.216H8.307a1.217,1.217,0,0,1-1.216-1.216V16.148H1.476V40.092a.738.738,0,0,1-1.476,0V15.916A1.948,1.948,0,0,1,.574,14.53L14.53.574A1.948,1.948,0,0,1,15.916,0H48.422A1.963,1.963,0,0,1,50.383,1.961Zm-36.2,12.711a.485.485,0,0,0,.485-.485V2.52L2.52,14.672ZM24.549,26.025H8.567v15.79H24.549V26.025Zm1.476-1.476h15.79V8.567H26.025Zm0,17.266h15.79V26.025H26.025ZM16.148,8.567v5.62a1.963,1.963,0,0,1-1.961,1.961H8.567v8.4H24.549V8.567ZM39.3,16.594a5.514,5.514,0,1,1-5.514-5.514A5.52,5.52,0,0,1,39.3,16.594Zm-1.476,0a4.038,4.038,0,1,0-4.038,4.038A4.043,4.043,0,0,0,37.826,16.594ZM18.982,23.111a.738.738,0,0,0,.738-.738v-.1a.738.738,0,1,0-1.476,0v.1A.738.738,0,0,0,18.982,23.111Zm-3.6-.833v.1a.738.738,0,0,0,1.476,0v-.1a.738.738,0,1,0-1.476,0ZM39.793,37.19a1.143,1.143,0,0,1-.969,1.749H28.94a1.143,1.143,0,0,1-.969-1.749l4.942-7.9a1.143,1.143,0,0,1,1.939,0Zm-1.57.273-4.341-6.941-4.341,6.941ZM21.848,23.111a.738.738,0,0,0,.738-.738v-.1a.738.738,0,1,0-1.476,0v.1A.738.738,0,0,0,21.848,23.111Z"/>
    </g>
  </g>
</svg>
