<svg xmlns="http://www.w3.org/2000/svg" xmlns:xlink="http://www.w3.org/1999/xlink" width="113" height="113" viewBox="0 0 113 113">
  <defs>
    <filter id="Trazado_982547" x="0" y="0" width="113" height="113" filterUnits="userSpaceOnUse">
      <feOffset dy="3" input="SourceAlpha"/>
      <feGaussianBlur stdDeviation="3" result="blur"/>
      <feFlood flood-opacity="0.161"/>
      <feComposite operator="in" in2="blur"/>
      <feComposite in="SourceGraphic"/>
    </filter>
  </defs>
  <g id="Grupo_1185643" data-name="Grupo 1185643" transform="translate(-323.402 -12556.743)">
    <g id="Grupo_1174764" data-name="Grupo 1174764" transform="translate(-0.598 10594.568)">
      <g id="Grupo_1173868" data-name="Grupo 1173868" transform="translate(333 1968.175)">
        <g id="Grupo_1172010" data-name="Grupo 1172010">
          <g id="Grupo_1171046" data-name="Grupo 1171046">
            <g id="Grupo_1148525" data-name="Grupo 1148525">
              <g transform="matrix(1, 0, 0, 1, -9, -6)" filter="url(#Trazado_982547)">
                <g id="Trazado_982547-2" data-name="Trazado 982547" transform="translate(9 6)" fill="#f4fdfe">
                  <path d="M 47.5 93.5 C 41.28937149047852 93.5 35.26533508300781 92.28397369384766 29.59518623352051 89.88570404052734 C 24.11771965026855 87.56893157958984 19.19813346862793 84.25196075439453 14.97309303283691 80.02691650390625 C 10.74804019927979 75.80186462402344 7.431066513061523 70.88229370117188 5.114293098449707 65.40481567382812 C 2.716026782989502 59.73468017578125 1.5 53.71062850952148 1.5 47.5 C 1.5 41.28937149047852 2.716026782989502 35.26533508300781 5.114293098449707 29.59518623352051 C 7.431066513061523 24.11771965026855 10.74804019927979 19.19813346862793 14.97309303283691 14.97309303283691 C 19.19813346862793 10.74804019927979 24.11771965026855 7.431066513061523 29.59518623352051 5.114293098449707 C 35.26533508300781 2.716026782989502 41.28937149047852 1.5 47.5 1.5 C 53.71062850952148 1.5 59.73468017578125 2.716026782989502 65.40481567382812 5.114293098449707 C 70.88229370117188 7.431066513061523 75.80186462402344 10.74804019927979 80.02691650390625 14.97309303283691 C 84.25196075439453 19.19813346862793 87.56893157958984 24.11771965026855 89.88570404052734 29.59518623352051 C 92.28397369384766 35.26533508300781 93.5 41.28937149047852 93.5 47.5 C 93.5 53.71062850952148 92.28397369384766 59.73468017578125 89.88570404052734 65.40481567382812 C 87.56893157958984 70.88229370117188 84.25196075439453 75.80186462402344 80.02691650390625 80.02691650390625 C 75.80186462402344 84.25196075439453 70.88229370117188 87.56893157958984 65.40481567382812 89.88570404052734 C 59.73468017578125 92.28397369384766 53.71062850952148 93.5 47.5 93.5 Z" stroke="none"/>
                  <path d="M 47.5 3 C 41.49121475219727 3 35.66376876831055 4.176155090332031 30.17950439453125 6.495796203613281 C 24.88084411621094 8.736953735351562 20.12152099609375 11.94598388671875 16.03375244140625 16.03375244140625 C 11.94598388671875 20.12152099609375 8.736953735351562 24.88084411621094 6.495796203613281 30.17950439453125 C 4.176155090332031 35.66376876831055 3 41.49121475219727 3 47.5 C 3 53.50878524780273 4.176155090332031 59.33623123168945 6.495796203613281 64.82049560546875 C 8.736953735351562 70.11915588378906 11.94598388671875 74.87847900390625 16.03375244140625 78.96624755859375 C 20.12152099609375 83.05401611328125 24.88084411621094 86.26304626464844 30.17950439453125 88.50419616699219 C 35.66376876831055 90.82384490966797 41.49121475219727 92 47.5 92 C 53.50878524780273 92 59.33623123168945 90.82384490966797 64.82049560546875 88.50419616699219 C 70.11915588378906 86.26304626464844 74.87847900390625 83.05401611328125 78.96624755859375 78.96624755859375 C 83.05401611328125 74.87847900390625 86.26304626464844 70.11915588378906 88.50419616699219 64.82049560546875 C 90.82384490966797 59.33623123168945 92 53.50878524780273 92 47.5 C 92 41.49121475219727 90.82384490966797 35.66376876831055 88.50419616699219 30.17950439453125 C 86.26304626464844 24.88084411621094 83.05401611328125 20.12152099609375 78.96624755859375 16.03375244140625 C 74.87847900390625 11.94598388671875 70.11915588378906 8.736953735351562 64.82049560546875 6.495796203613281 C 59.33623123168945 4.176155090332031 53.50878524780273 3 47.5 3 M 47.5 0 C 73.7335205078125 0 95 21.2664794921875 95 47.5 C 95 73.7335205078125 73.7335205078125 95 47.5 95 C 21.2664794921875 95 0 73.7335205078125 0 47.5 C 0 21.2664794921875 21.2664794921875 0 47.5 0 Z" stroke="none" fill="#56838a"/>
                </g>
              </g>
            </g>
          </g>
        </g>
      </g>
    </g>
    <g id="imaginacion" transform="translate(349.342 12579.683)">
      <path id="Trazado_1051715" data-name="Trazado 1051715" d="M20.411,120.062a4.636,4.636,0,0,0-8.4-1.809,1.855,1.855,0,0,0-2.652,1.674q0,.079.007.156a2.782,2.782,0,0,0,.92,5.406h9.27a2.782,2.782,0,0,0,.86-5.427Z" transform="translate(-6.605 -102.344)" fill="#c8effe"/>
      <path id="Trazado_1051716" data-name="Trazado 1051716" d="M29.627,241.167H28.083a7.163,7.163,0,0,1-7.024-5.758l-.97-4.852a4.694,4.694,0,0,1,6.087-5.373l3.451,1.15v14.833Z" transform="translate(-17.608 -198.085)" fill="#ffbd86"/>
      <path id="Trazado_1051717" data-name="Trazado 1051717" d="M411.312,241.167h1.544a7.163,7.163,0,0,0,7.024-5.758l.97-4.852a4.694,4.694,0,0,0-6.087-5.373l-3.451,1.15v14.833Z" transform="translate(-362.211 -198.085)" fill="#f6a96c"/>
      <path id="Trazado_1051718" data-name="Trazado 1051718" d="M156.577,54.094c-7.211,0-13.222,7.661-13.478,14.833l2.353,1.854,1.358-1.854a9.78,9.78,0,0,1,19.533,0l1.358,1.854,2.353-1.854C169.8,61.754,163.788,54.094,156.577,54.094Z" transform="translate(-126.016 -47.636)" fill="#46cc8d"/>
      <path id="Trazado_1051719" data-name="Trazado 1051719" d="M334.672,160.732l1.358,1.854,2.353-1.854a14.46,14.46,0,0,0-.29-2.388h-3.847A9.566,9.566,0,0,1,334.672,160.732Z" transform="translate(-294.346 -139.441)" fill="#00c27a"/>
      <path id="Trazado_1051720" data-name="Trazado 1051720" d="M143.39,158.344a14.45,14.45,0,0,0-.29,2.388l2.353,1.854,1.358-1.854a9.565,9.565,0,0,1,.425-2.388Z" transform="translate(-126.017 -139.441)" fill="#00c27a"/>
      <path id="Trazado_1051721" data-name="Trazado 1051721" d="M129.21,23.031c-9.238,0-16.931,9.332-17.188,18.541l2.355,1.854,1.355-1.854a13.487,13.487,0,0,1,26.955,0l1.355,1.854,2.355-1.854C146.14,32.363,138.448,23.031,129.21,23.031Z" transform="translate(-98.649 -20.282)" fill="#fee903"/>
      <g id="Grupo_1185642" data-name="Grupo 1185642" transform="translate(13.373 8.191)">
        <path id="Trazado_1051722" data-name="Trazado 1051722" d="M352.822,72.974a21.021,21.021,0,0,0-3.142-4.363,2.781,2.781,0,0,0,2.288,4.363h.854Z" transform="translate(-320.875 -68.611)" fill="#f4d902"/>
        <path id="Trazado_1051723" data-name="Trazado 1051723" d="M366.658,160.732l1.355,1.854,2.355-1.854a17.846,17.846,0,0,0-.23-2.388h-3.784A13.222,13.222,0,0,1,366.658,160.732Z" transform="translate(-335.993 -147.632)" fill="#f4d902"/>
        <path id="Trazado_1051724" data-name="Trazado 1051724" d="M112.252,158.344a17.864,17.864,0,0,0-.23,2.388l2.355,1.854,1.355-1.854a13.222,13.222,0,0,1,.3-2.388Z" transform="translate(-112.022 -147.632)" fill="#f4d902"/>
      </g>
      <path id="Trazado_1051725" data-name="Trazado 1051725" d="M101.846,11.208a17.283,17.283,0,0,1,17.188,16.687l1.353,1.854,2.356-1.854a20.9,20.9,0,0,0-41.794,0l2.356,1.854,1.353-1.854a17.283,17.283,0,0,1,17.188-16.687Z" transform="translate(-71.286 -6.605)" fill="#e53950"/>
      <path id="Trazado_1051726" data-name="Trazado 1051726" d="M350.462,51.494a17.483,17.483,0,0,1,3.193,3.691h4.282a21.017,21.017,0,0,0-5.323-6.774,1.847,1.847,0,0,0-.451,1.212c0,.053,0,.1.006.156A2.788,2.788,0,0,0,350.462,51.494Z" transform="translate(-308.625 -42.632)" fill="#ca2e43"/>
      <path id="Trazado_1051727" data-name="Trazado 1051727" d="M398.232,160.732l1.353,1.854,2.356-1.854a20.9,20.9,0,0,0-.192-2.388h-3.754A16.928,16.928,0,0,1,398.232,160.732Z" transform="translate(-350.483 -139.441)" fill="#ca2e43"/>
      <path id="Trazado_1051728" data-name="Trazado 1051728" d="M81.142,158.344a20.89,20.89,0,0,0-.192,2.388l2.356,1.854,1.353-1.854a16.888,16.888,0,0,1,.237-2.388Z" transform="translate(-71.286 -139.441)" fill="#ca2e43"/>
      <path id="Trazado_1051729" data-name="Trazado 1051729" d="M52.719,10.752A9.521,9.521,0,0,0,49.469,14a9.54,9.54,0,0,0-3.252-3.25A9.577,9.577,0,0,0,49.469,7.5,9.556,9.556,0,0,0,52.719,10.752Z" transform="translate(-40.7 -6.605)" fill="#fee903"/>
      <path id="Trazado_1051730" data-name="Trazado 1051730" d="M463.469,119a8.144,8.144,0,0,0-2.78,2.78,8.163,8.163,0,0,0-2.782-2.78,8.192,8.192,0,0,0,2.782-2.782A8.176,8.176,0,0,0,463.469,119Z" transform="translate(-403.243 -102.345)" fill="#fee903"/>
      <path id="Trazado_1051731" data-name="Trazado 1051731" d="M80.908,178.344q-.021.9.036,1.811l1.164,18.62a19.736,19.736,0,0,0,39.394,0l1.164-18.62q.057-.913.036-1.811Z" transform="translate(-71.245 -157.054)" fill="#fed2a4"/>
      <path id="Trazado_1051732" data-name="Trazado 1051732" d="M194.839,178.344h-4.847l-1.128,18.043a19.747,19.747,0,0,1-26.046,17.46,19.737,19.737,0,0,0,30.821-15.072l1.164-18.62Q194.86,179.242,194.839,178.344Z" transform="translate(-143.381 -157.054)" fill="#ffbd86"/>
      <path id="Trazado_1051733" data-name="Trazado 1051733" d="M362.1,11.344a4.636,4.636,0,0,0-8.4-1.809,1.855,1.855,0,0,0-2.652,1.674q0,.079.007.156a2.782,2.782,0,0,0,.921,5.406h9.27a2.782,2.782,0,0,0,.859-5.427Z" transform="translate(-307.503 -6.605)" fill="#c8effe"/>
      <path id="Trazado_1051734" data-name="Trazado 1051734" d="M244.78,288.77a3.884,3.884,0,0,0,3.88-3.88v-4.432a.9.9,0,0,0-1.791,0v4.432a2.092,2.092,0,0,1-2.089,2.089h-1.447a.9.9,0,0,0,0,1.791Z" transform="translate(-213.496 -246.19)"/>
      <path id="Trazado_1051735" data-name="Trazado 1051735" d="M182.868,392.313a.9.9,0,0,0,0,1.266,12.02,12.02,0,0,0,17,0,.9.9,0,0,0-1.266-1.266,10.229,10.229,0,0,1-14.466,0A.9.9,0,0,0,182.868,392.313Z" transform="translate(-160.807 -345.248)"/>
      <path id="Trazado_1051736" data-name="Trazado 1051736" d="M39.152,4.915A8.668,8.668,0,0,1,42.1,7.86a.9.9,0,0,0,1.534,0,8.645,8.645,0,0,1,2.944-2.945.9.9,0,0,0,0-1.534A8.684,8.684,0,0,1,43.633.434a.9.9,0,0,0-1.534,0,8.708,8.708,0,0,1-2.948,2.948.9.9,0,0,0,0,1.534Zm3.713-2.454a10.52,10.52,0,0,0,1.684,1.685,10.474,10.474,0,0,0-1.684,1.685A10.489,10.489,0,0,0,41.18,4.147,10.544,10.544,0,0,0,42.865,2.461Z" transform="translate(-34.096 0)"/>
      <path id="Trazado_1051737" data-name="Trazado 1051737" d="M457.326,111.63a7.3,7.3,0,0,1-2.476-2.477.9.9,0,0,0-1.534,0,7.319,7.319,0,0,1-2.478,2.478.9.9,0,0,0,0,1.534,7.286,7.286,0,0,1,2.476,2.475.9.9,0,0,0,1.534,0,7.264,7.264,0,0,1,2.474-2.474.9.9,0,0,0,0-1.534Zm-3.243,2a9.1,9.1,0,0,0-1.236-1.236,9.145,9.145,0,0,0,1.236-1.236,9.126,9.126,0,0,0,1.235,1.236A9.08,9.08,0,0,0,454.083,113.631Z" transform="translate(-396.638 -95.74)"/>
      <path id="Trazado_1051738" data-name="Trazado 1051738" d="M57.736,27.362A5.534,5.534,0,0,0,52.27,26.25l-.151.05.2-3.143c.039-.617.051-1.242.038-1.857,0-.01,0-.02,0-.03a21.664,21.664,0,0,0-2.819-10.209h4.2A3.677,3.677,0,0,0,55.37,4.089a5.532,5.532,0,0,0-9.508-2.2,2.755,2.755,0,0,0-3.08,1.85,21.817,21.817,0,0,0-24.583.1.9.9,0,1,0,1.017,1.474A20.028,20.028,0,0,1,41.587,5.1a3.68,3.68,0,0,0-.771,1.844A17.936,17.936,0,0,0,30.561,3.708,18.213,18.213,0,0,0,12.524,20.395H10.6A19.929,19.929,0,0,1,16.139,7.931.9.9,0,0,0,14.848,6.69a21.827,21.827,0,0,0-4.3,6.445,5.541,5.541,0,0,0-5.479,1.737A2.754,2.754,0,0,0,1.888,17.15,3.677,3.677,0,0,0,3.676,24.04H8.861L9,26.3l-.151-.05a5.589,5.589,0,0,0-7.248,6.4l.97,4.852a8.081,8.081,0,0,0,7.65,6.474,20.509,20.509,0,0,0,1.313,4.511.9.9,0,1,0,1.651-.694,18.8,18.8,0,0,1-1.431-6.125c-1.176-18.823-1.182-18.632-1.2-19.48H50.564c-.012.614.075-.9-1.2,19.48a18.842,18.842,0,0,1-34.212,9.67.9.9,0,1,0-1.464,1.032A20.634,20.634,0,0,0,50.9,43.974a8.067,8.067,0,0,0,1.731-.243A.9.9,0,1,0,52.188,42a6.256,6.256,0,0,1-1.065.174c.024-.288-.028.509.626-9.949l2.259-.753a.324.324,0,0,1,.04-.011.145.145,0,0,1,.068.049.172.172,0,0,1,.013.019.147.147,0,0,1,0,.046l-.643,3.214a.9.9,0,1,0,1.756.351l.643-3.213a1.836,1.836,0,0,0-.38-1.552,1.849,1.849,0,0,0-2.059-.6l-1.573.524L52,28.228l.838-.279A3.8,3.8,0,0,1,57.762,32.3l-.97,4.852a6.262,6.262,0,0,1-1.523,3,.9.9,0,1,0,1.32,1.21A8.052,8.052,0,0,0,58.547,37.5l.97-4.852a5.534,5.534,0,0,0-1.782-5.286Zm-7.215-6.967H48.6a17.9,17.9,0,0,0-3.523-9.334h2.37A19.875,19.875,0,0,1,50.521,20.395ZM44.438,4.685a.96.96,0,0,1,.955-1.04.948.948,0,0,1,.412.093.9.9,0,0,0,1.127-.3,3.741,3.741,0,0,1,6.782,1.458.9.9,0,0,0,.606.7,1.886,1.886,0,0,1-.583,3.68h-9.27A1.886,1.886,0,0,1,43.842,5.6a.9.9,0,0,0,.6-.92ZM30.561,5.5a16.411,16.411,0,0,1,16.24,14.9H44.876a14.388,14.388,0,0,0-28.631,0H14.32A16.411,16.411,0,0,1,30.561,5.5Zm10.584,14.9a10.681,10.681,0,0,0-21.168,0H18.046a12.593,12.593,0,0,1,25.029,0Zm-1.81,0H21.787a8.885,8.885,0,0,1,17.547,0ZM1.791,20.363a1.889,1.889,0,0,1,1.261-1.78.9.9,0,0,0,.6-.92.96.96,0,0,1,.955-1.04.949.949,0,0,1,.412.093.9.9,0,0,0,1.127-.3A3.75,3.75,0,0,1,9.9,14.827a21.7,21.7,0,0,0-1.132,6.443c0,.011,0,.021,0,.032-.007.314-.007.631,0,.948H3.676a1.888,1.888,0,0,1-1.886-1.886ZM4.33,37.149,3.36,32.3a3.8,3.8,0,0,1,4.926-4.348l.838.279.129,2.064-1.573-.524a1.849,1.849,0,0,0-2.059.6,1.836,1.836,0,0,0-.38,1.551l.643,3.214a.9.9,0,1,0,1.756-.351L7,31.57a.18.18,0,0,1,0-.045A.108.108,0,0,1,7,31.5a.165.165,0,0,1,.064-.049.181.181,0,0,1,.044.011l2.26.753c.653,10.443.6,9.663.626,9.949a6.286,6.286,0,0,1-5.668-5.02Z" transform="translate(0 0)"/>
    </g>
  </g>
</svg>
