<svg xmlns="http://www.w3.org/2000/svg" xmlns:xlink="http://www.w3.org/1999/xlink" width="190" height="201" viewBox="0 0 190 201">
  <defs>
    <clipPath id="clip-path">
      <rect id="Rectángulo_416179" data-name="Rectángulo 416179" width="190" height="201" transform="translate(1229.749 2156)" fill="#fff" stroke="#707070" stroke-width="1" opacity="0.42"/>
    </clipPath>
  </defs>
  <g id="Enmascarar_grupo_1098842" data-name="Enmascarar grupo 1098842" transform="translate(-1229.749 -2156)" clip-path="url(#clip-path)">
    <g id="Grupo_1183814" data-name="Grupo 1183814" transform="translate(-4905.829 -92.569)">
      <path id="Trazado_1047343" data-name="Trazado 1047343" d="M1991.311,1139.429c19.738-8.66,25.356,7.022,24.888,40.259s-2.107,62.831,17.087,46.513c0,0-2.341,12.237-16.618,13.174,0,0,8.894,6.788,16.618,1.4,0,0,3.043,19.9-18.725,30.429s-55.707,4.447-60.622-19.428,13.13-98.511,13.13-98.511Z" transform="translate(4265.807 1117.478)" fill="#6a2810"/>
      <path id="Trazado_1047344" data-name="Trazado 1047344" d="M2033.45,1142.733c5.793-8.251,14.044-3.686,16.5,5.091s-6.778,17.906-6.778,17.906Z" transform="translate(4217.953 1116.689)" fill="#3cac96"/>
      <path id="Trazado_1047345" data-name="Trazado 1047345" d="M1957.369,1397.616l-.736,29.677-.985,39.839-.01.483-.424-.015-.044-.468h-67.922c-3.486-12.8-.59-25.376,5.287-38.333a78.489,78.489,0,0,0,6.787-33.291,25.585,25.585,0,0,1,6.16-1.4,112.54,112.54,0,0,1,21.485-.473,213.086,213.086,0,0,1,21.832,2.233A76.608,76.608,0,0,1,1957.369,1397.616Z" transform="translate(4305.914 964.857)" fill="#955027"/>
      <path id="Trazado_1047346" data-name="Trazado 1047346" d="M2084.151,1470.817h-35.675l-.01.483-.424-.015-.044-.468-2.8-31.335-3.575-39.927a77.368,77.368,0,0,1,8.573,1.746s11.7,0,16.15,10.533C2070.318,1421.23,2081.733,1462.1,2084.151,1470.817Z" transform="translate(4213.085 961.173)" fill="#955027"/>
      <path id="Trazado_1047347" data-name="Trazado 1047347" d="M1857.4,1395.2l-11.323,73.023h-41.073c6.456-11.747,23.889-43.594,30.322-56.644,7.958-16.15,15.916-14.98,15.916-14.98A25.512,25.512,0,0,1,1857.4,1395.2Z" transform="translate(4353.993 963.766)" fill="#955027"/>
      <path id="Trazado_1047348" data-name="Trazado 1047348" d="M2047.448,1477.24l-.985,39.84-.01.482-.424-.014-.044-.468h-7.524a73.159,73.159,0,0,1,4.725-31.335A44.972,44.972,0,0,1,2047.448,1477.24Z" transform="translate(4215.098 914.911)" fill="#703316"/>
      <path id="Trazado_1047349" data-name="Trazado 1047349" d="M1973.639,1382.823c0,7.659-12.853,18.257-28.709,18.257s-28.709-10.6-28.709-18.257,12.853-9.479,28.709-9.479S1973.639,1375.162,1973.639,1382.823Z" transform="translate(4287.763 976.781)" fill="#703316"/>
      <path id="Trazado_1047350" data-name="Trazado 1047350" d="M1973.639,1379.2c0,7.659-12.853,18.257-28.709,18.257s-28.709-10.6-28.709-18.257,12.853-9.48,28.709-9.48S1973.639,1371.547,1973.639,1379.2Z" transform="translate(4287.763 978.937)" fill="#955027"/>
      <path id="Trazado_1047351" data-name="Trazado 1047351" d="M1977.137,1390.086c0,5.688-21.319,13.557-21.319,13.557s-21.32-7.87-21.32-13.557,9.545-7.04,21.32-7.04S1977.137,1384.4,1977.137,1390.086Z" transform="translate(4276.878 971.003)" fill="#703316"/>
      <path id="Trazado_1047352" data-name="Trazado 1047352" d="M1982.636,1340.944c-.214,8.163-13.985,15.009-13.985,15.009-12.912-7.134-12.6-16.37-12.6-16.37,1.41-.966,2.233-4.92,2.716-9.226.677-6.061.677-12.8.677-12.8l22.236-12.147c-.263,3.584-.463,6.807-.6,9.7C1979.918,1339.225,1982.636,1340.944,1982.636,1340.944Z" transform="translate(4264.042 1017.233)" fill="#ffaf82"/>
      <path id="Trazado_1047353" data-name="Trazado 1047353" d="M1985.686,1305.41c-.264,3.584-.463,6.807-.6,9.7-4.652,8.261-12.181,17.253-22.309,15.239.678-6.062.678-12.8.678-12.8Z" transform="translate(4260.041 1017.236)" fill="#fe976a"/>
      <path id="Trazado_1047354" data-name="Trazado 1047354" d="M2087.516,1554.06c-9.984.22-17.6,11.754-7.427,25.538a1.892,1.892,0,0,0,3.4-.983,10.861,10.861,0,0,0-.183-3.022s2.575,2.926,4.213-.117c0,0,1.054,2.575,3.979.351,0,0,1.17,3.277,4.564,1.288s6.671-13.108,3.277-18.608S2087.516,1554.06,2087.516,1554.06Z" transform="translate(4193.046 869.213)" fill="#ffaf82"/>
      <path id="Trazado_1047355" data-name="Trazado 1047355" d="M2114.3,1590.932a.732.732,0,0,1-.618-1.123c2.9-4.569,3.162-10.923,3.164-10.987a.724.724,0,0,1,.758-.7.732.732,0,0,1,.7.757c-.011.276-.278,6.808-3.391,11.718A.728.728,0,0,1,2114.3,1590.932Z" transform="translate(4170.24 854.839)" fill="#fe976a"/>
      <path id="Trazado_1047356" data-name="Trazado 1047356" d="M2104.462,1588a.7.7,0,0,1-.144-.014.731.731,0,0,1-.573-.861,42.176,42.176,0,0,0,.5-12.512.731.731,0,0,1,1.449-.2,42.991,42.991,0,0,1-.51,13A.732.732,0,0,1,2104.462,1588Z" transform="translate(4176.101 857.418)" fill="#fe976a"/>
      <path id="Trazado_1047357" data-name="Trazado 1047357" d="M2092.339,1588.63a.731.731,0,0,1-.654-.4c-2.067-4.134-.938-12.591-.89-12.949a.732.732,0,0,1,1.449.2c-.011.083-1.117,8.366.749,12.1a.732.732,0,0,1-.654,1.059Z" transform="translate(4184.014 856.907)" fill="#fe976a"/>
      <path id="Trazado_1047358" data-name="Trazado 1047358" d="M1831.412,1554.061c9.984.22,17.6,11.754,7.426,25.538a1.892,1.892,0,0,1-3.4-.982,10.846,10.846,0,0,1,.182-3.022s-2.575,2.927-4.213-.117c0,0-1.053,2.575-3.979.351,0,0-1.171,3.277-4.565,1.288s-6.671-13.108-3.277-18.608S1831.412,1554.061,1831.412,1554.061Z" transform="translate(4346.158 869.212)" fill="#ffaf82"/>
      <path id="Trazado_1047359" data-name="Trazado 1047359" d="M1835.178,1590.934a.731.731,0,0,1-.619-.34c-3.113-4.91-3.379-11.441-3.39-11.717a.731.731,0,0,1,1.461-.052c0,.063.267,6.418,3.164,10.987a.731.731,0,0,1-.226,1.009A.705.705,0,0,1,1835.178,1590.934Z" transform="translate(4338.412 854.837)" fill="#fe976a"/>
      <path id="Trazado_1047360" data-name="Trazado 1047360" d="M1848.714,1588a.732.732,0,0,1-.717-.588,42.944,42.944,0,0,1-.511-13,.731.731,0,1,1,1.448.2,42.309,42.309,0,0,0,.5,12.512.731.731,0,0,1-.574.861A1.034,1.034,0,0,1,1848.714,1588Z" transform="translate(4328.857 857.418)" fill="#fe976a"/>
      <path id="Trazado_1047361" data-name="Trazado 1047361" d="M1860.254,1588.63a.731.731,0,0,1-.654-1.058c1.865-3.731.76-12.013.749-12.1a.731.731,0,1,1,1.449-.2c.049.358,1.177,8.815-.89,12.949A.719.719,0,0,1,1860.254,1588.63Z" transform="translate(4321.528 856.907)" fill="#fe976a"/>
      <circle id="Elipse_12558" data-name="Elipse 12558" cx="1.857" cy="1.857" r="1.857" transform="translate(6245.488 2368.593)" fill="#703316"/>
      <circle id="Elipse_12559" data-name="Elipse 12559" cx="1.857" cy="1.857" r="1.857" transform="translate(6216.931 2369.256)" fill="#703316"/>
      <path id="Trazado_1047362" data-name="Trazado 1047362" d="M1951.175,1459.293a1.219,1.219,0,0,1-1.219-1.219v-33a1.219,1.219,0,1,1,2.439,0v33A1.222,1.222,0,0,1,1951.175,1459.293Z" transform="translate(4267.673 946.704)" fill="#3cac96"/>
      <path id="Trazado_1047363" data-name="Trazado 1047363" d="M1951.969,1505.593c0,1.454-.812,2.633-1.814,2.633s-1.814-1.179-1.814-2.633.812-2.633,1.814-2.633S1951.969,1504.141,1951.969,1505.593Z" transform="translate(4268.635 899.595)" fill="#fff"/>
      <path id="Trazado_1047364" data-name="Trazado 1047364" d="M2021.665,1457.652a1.219,1.219,0,0,1-1.219-1.219v-33a1.219,1.219,0,1,1,2.438,0v33A1.221,1.221,0,0,1,2021.665,1457.652Z" transform="translate(4225.696 947.681)" fill="#3cac96"/>
      <path id="Trazado_1047365" data-name="Trazado 1047365" d="M2022.459,1503.953c0,1.454-.812,2.633-1.814,2.633s-1.815-1.179-1.815-2.633.813-2.634,1.815-2.634S2022.459,1502.5,2022.459,1503.953Z" transform="translate(4226.659 900.571)" fill="#fff"/>
      <path id="Trazado_1047366" data-name="Trazado 1047366" d="M1891.761,1177.7c-8.017-9.1-5.326-21.032,0-28.991s15.39-7.256,15.39-7.256,10.767-14.746,33.7-7.725c22.153,6.781,25.273,42.614,11.927,58.75S1891.761,1177.7,1891.761,1177.7Z" transform="translate(4305.339 1120.599)" fill="#6a2810"/>
      <path id="Trazado_1047367" data-name="Trazado 1047367" d="M1953.12,1215.624c-1.424,17.668-11.735,30.429-33.137,30.429-20.461,0-24.7-22.3-21.855-42.122,1.25-8.747,3.882-17.011,7.106-22.656,0,0,38.974-15.27,45.818,12.642A68.855,68.855,0,0,1,1953.12,1215.624Z" transform="translate(4299.009 1093.641)" fill="#ffaf82"/>
      <path id="Trazado_1047368" data-name="Trazado 1047368" d="M2015.758,1280.484c3.015,9.3,19.539,6.591,20.537-3.854.968-10.132-10.565-14.456-18.14-7.789S2015.758,1280.484,2015.758,1280.484Z" transform="translate(4229.517 1040.916)" fill="#ffaf82"/>
      <path id="Trazado_1047369" data-name="Trazado 1047369" d="M2046.03,1286.94a.729.729,0,0,1-.589-.3c-.145-.2-3.524-4.858-1.51-8.73a.731.731,0,0,1,1.3.676c-1.592,3.059,1.361,7.146,1.391,7.187a.732.732,0,0,1-.589,1.165Z" transform="translate(4212.093 1033.845)" fill="#fe976a"/>
      <path id="Trazado_1047370" data-name="Trazado 1047370" d="M2032.021,1289.233a17.158,17.158,0,0,1-3.758-.438.731.731,0,0,1,.354-1.42c.036.008,3.577.871,6.084.017a.732.732,0,1,1,.472,1.385A9.92,9.92,0,0,1,2032.021,1289.233Z" transform="translate(4221.372 1027.989)" fill="#fe976a"/>
      <path id="Trazado_1047371" data-name="Trazado 1047371" d="M1932.72,1309.671a9.365,9.365,0,0,1-7.737-3.987.731.731,0,1,1,1.164-.886c5.066,6.649,12.794,1.654,13.122,1.439a.731.731,0,0,1,.809,1.219A15.043,15.043,0,0,1,1932.72,1309.671Z" transform="translate(4282.633 1017.773)" fill="#6a2810"/>
      <path id="Trazado_1047372" data-name="Trazado 1047372" d="M1979.376,1281.954a4.191,4.191,0,0,1-3.006-1.284,5.651,5.651,0,0,1-.757-6.685,5.322,5.322,0,0,1,5.13-3.037,5.068,5.068,0,0,1,4.412,3.364.731.731,0,0,1-1.38.484,3.606,3.606,0,0,0-3.141-2.389,3.859,3.859,0,0,0-3.729,2.264,4.2,4.2,0,0,0,.5,4.97,2.769,2.769,0,0,0,3.424.474,1.983,1.983,0,0,0,1.2-1.727,2.437,2.437,0,0,0-.989-2.048.617.617,0,0,0-.677-.08.732.732,0,0,1-.688-1.291,2.1,2.1,0,0,1,2.144.133,3.9,3.9,0,0,1,1.672,3.347,3.439,3.439,0,0,1-1.988,2.965A4.607,4.607,0,0,1,1979.376,1281.954Z" transform="translate(4252.841 1037.768)" fill="#fe976a"/>
      <path id="Trazado_1047373" data-name="Trazado 1047373" d="M1901.886,1270.724a4.19,4.19,0,0,1-3.006-1.284,5.651,5.651,0,0,1-.757-6.686,5.324,5.324,0,0,1,5.13-3.037,5.07,5.07,0,0,1,4.412,3.363.732.732,0,1,1-1.381.484,3.605,3.605,0,0,0-3.141-2.389,3.863,3.863,0,0,0-3.728,2.264,4.2,4.2,0,0,0,.5,4.971,2.77,2.77,0,0,0,3.424.474,1.981,1.981,0,0,0,1.2-1.727,2.441,2.441,0,0,0-.989-2.048.615.615,0,0,0-.678-.08.731.731,0,1,1-.688-1.291,2.1,2.1,0,0,1,2.145.133,3.9,3.9,0,0,1,1.672,3.346,3.441,3.441,0,0,1-1.988,2.966A4.611,4.611,0,0,1,1901.886,1270.724Z" transform="translate(4298.986 1044.455)" fill="#fe976a"/>
      <path id="Trazado_1047374" data-name="Trazado 1047374" d="M1931.957,1269.763a.724.724,0,0,1-.413-.129l-6.384-4.395a.733.733,0,0,1-.187-1.018l6.384-9.246a.731.731,0,0,1,1.2.831l-5.967,8.643,5.78,3.98a.731.731,0,0,1-.416,1.334Z" transform="translate(4282.629 1047.458)" fill="#6a2810"/>
      <path id="Trazado_1047375" data-name="Trazado 1047375" d="M1978.91,1248.251c0,1.967.791,3.074,1.767,3.074s1.767-1.107,1.767-3.074-.791-3.022-1.767-3.022S1978.91,1246.286,1978.91,1248.251Z" transform="translate(4250.431 1053.074)" fill="#6a2810"/>
      <path id="Trazado_1047376" data-name="Trazado 1047376" d="M1954.29,1215.624c-16.465.61-23.263-26.61-23.263-26.61s-20.758,20.351-31.73,14.917c1.251-8.747,3.882-17.011,7.107-22.656,0,0,38.974-15.27,45.818,12.642A68.856,68.856,0,0,1,1954.29,1215.624Z" transform="translate(4297.841 1093.641)" fill="#fe976a"/>
      <path id="Trazado_1047377" data-name="Trazado 1047377" d="M1897.311,1194.812c10.87,6.1,32.1-14.723,32.1-14.723s6.966,27.879,23.862,26.579c0,0,7.433-6.216.754-26.579s-45.82-15.8-51.529-6.671S1897.311,1194.812,1897.311,1194.812Z" transform="translate(4299.032 1100.445)" fill="#6a2810"/>
      <path id="Trazado_1047378" data-name="Trazado 1047378" d="M1886.177,1518.952a.732.732,0,0,1-.705-.539c-3.145-11.543-1.454-23.881,5.325-38.827a.731.731,0,1,1,1.333.6c-6.631,14.619-8.3,26.643-5.247,37.838a.732.732,0,0,1-.513.9A.687.687,0,0,1,1886.177,1518.952Z" transform="translate(4306.983 913.769)" fill="#6a2810"/>
      <path id="Trazado_1047379" data-name="Trazado 1047379" d="M1919.83,1240.721c0,1.967.791,3.074,1.767,3.074s1.767-1.107,1.767-3.074-.791-3.022-1.767-3.022S1919.83,1238.755,1919.83,1240.721Z" transform="translate(4285.613 1057.558)" fill="#6a2810"/>
    </g>
  </g>
</svg>
