<svg xmlns="http://www.w3.org/2000/svg" xmlns:xlink="http://www.w3.org/1999/xlink" width="103" height="103" viewBox="0 0 103 103">
  <defs>
    <filter id="Trazado_978624" x="0" y="0" width="103" height="103" filterUnits="userSpaceOnUse">
      <feOffset dy="3" input="SourceAlpha"/>
      <feGaussianBlur stdDeviation="3" result="blur"/>
      <feFlood flood-opacity="0.161"/>
      <feComposite operator="in" in2="blur"/>
      <feComposite in="SourceGraphic"/>
    </filter>
  </defs>
  <g id="Grupo_1185692" data-name="Grupo 1185692" transform="translate(-160 -3230)">
    <g id="Grupo_1183826" data-name="Grupo 1183826" transform="translate(-11 -401)">
      <g id="Grupo_1164359" data-name="Grupo 1164359" transform="translate(180 3637)">
        <g id="Grupo_1144531" data-name="Grupo 1144531">
          <g transform="matrix(1, 0, 0, 1, -9, -6)" filter="url(#Trazado_978624)">
            <g id="Trazado_978624-2" data-name="Trazado 978624" transform="translate(9 6)" fill="#fdfbec">
              <path d="M 42.5 83.5 C 36.96437835693359 83.5 31.59512901306152 82.41617584228516 26.54141235351562 80.27863311767578 C 21.65934181213379 78.21369171142578 17.27447128295898 75.25723266601562 13.50862312316895 71.49137878417969 C 9.742764472961426 67.72553253173828 6.786305904388428 63.34066009521484 4.721364498138428 58.45858764648438 C 2.583823442459106 53.40486907958984 1.5 48.03562164306641 1.5 42.5 C 1.5 36.96437835693359 2.583823442459106 31.59512901306152 4.721364498138428 26.54141235351562 C 6.786305904388428 21.65934181213379 9.742764472961426 17.27447128295898 13.50862312316895 13.50862312316895 C 17.27447128295898 9.742764472961426 21.65934181213379 6.786305904388428 26.54141235351562 4.721364498138428 C 31.59512901306152 2.583823442459106 36.96437835693359 1.5 42.5 1.5 C 48.03562164306641 1.5 53.40486907958984 2.583823442459106 58.45858764648438 4.721364498138428 C 63.34066009521484 6.786305904388428 67.72553253173828 9.742764472961426 71.49137878417969 13.50862312316895 C 75.25723266601562 17.27447128295898 78.21369171142578 21.65934181213379 80.27863311767578 26.54141235351562 C 82.41617584228516 31.59512901306152 83.5 36.96437835693359 83.5 42.5 C 83.5 48.03562164306641 82.41617584228516 53.40486907958984 80.27863311767578 58.45858764648438 C 78.21369171142578 63.34066009521484 75.25723266601562 67.72553253173828 71.49137878417969 71.49137878417969 C 67.72553253173828 75.25723266601562 63.34066009521484 78.21369171142578 58.45858764648438 80.27863311767578 C 53.40486907958984 82.41617584228516 48.03562164306641 83.5 42.5 83.5 Z" stroke="none"/>
              <path d="M 42.5 3 C 37.16621398925781 3 31.99356079101562 4.043960571289062 27.125732421875 6.102882385253906 C 22.42246627807617 8.092185974121094 18.19785308837891 10.94070434570312 14.56928253173828 14.56928253173828 C 10.94070434570312 18.19785308837891 8.092185974121094 22.42246627807617 6.102882385253906 27.125732421875 C 4.043960571289062 31.99356079101562 3 37.16621398925781 3 42.5 C 3 47.83378601074219 4.043960571289062 53.00643920898438 6.102882385253906 57.87425231933594 C 8.092185974121094 62.57753372192383 10.94070434570312 66.80213165283203 14.56928253173828 70.43071746826172 C 18.19786834716797 74.05929565429688 22.42246627807617 76.90781402587891 27.125732421875 78.89711761474609 C 31.99356079101562 80.95603942871094 37.16621398925781 82 42.5 82 C 47.83378601074219 82 53.00642395019531 80.95603942871094 57.87425231933594 78.89711761474609 C 62.57753372192383 76.90781402587891 66.80213165283203 74.05929565429688 70.43071746826172 70.43071746826172 C 74.05929565429688 66.80213165283203 76.90781402587891 62.57753372192383 78.89711761474609 57.87425231933594 C 80.95603942871094 53.00642395019531 82 47.83378601074219 82 42.5 C 82 37.16621398925781 80.95603942871094 31.99356079101562 78.89711761474609 27.125732421875 C 76.90781402587891 22.42246627807617 74.05929565429688 18.19786834716797 70.43071746826172 14.56928253173828 C 66.80213165283203 10.94070434570312 62.57753372192383 8.092185974121094 57.87425231933594 6.102882385253906 C 53.00643920898438 4.043960571289062 47.83378601074219 3 42.5 3 M 42.5 0 C 65.97209167480469 0 85 19.02789306640625 85 42.5 C 85 65.97209167480469 65.97209167480469 85 42.5 85 C 19.02789306640625 85 0 65.97209167480469 0 42.5 C 0 19.02789306640625 19.02789306640625 0 42.5 0 Z" stroke="none" fill="#84792b"/>
            </g>
          </g>
        </g>
      </g>
    </g>
    <g id="mejor-amiga_2_" data-name="mejor-amiga (2)" transform="translate(181.78 3193.941)">
      <g id="Grupo_1185664" data-name="Grupo 1185664" transform="translate(28.25 62.911)">
        <path id="Trazado_1051759" data-name="Trazado 1051759" d="M257.667,71.419a14.36,14.36,0,0,1,3.4.407,2.881,2.881,0,0,1,2.6-2.287c1.528,0,2.766,1.547,2.766,3.456,0,.14-.007.278-.02.414a2.962,2.962,0,0,1,3.731.059c1.08,1.08.862,3.05-.488,4.4l-.014.014a14.259,14.259,0,0,1,2.352,7.867v2.708H243.339V85.747A14.328,14.328,0,0,1,257.667,71.419Z" transform="translate(-243.339 -69.539)" fill="#f2b88f"/>
      </g>
      <g id="Grupo_1185665" data-name="Grupo 1185665" transform="translate(28.25 62.911)">
        <path id="Trazado_1051760" data-name="Trazado 1051760" d="M257.667,71.419a14.36,14.36,0,0,1,3.4.407,2.881,2.881,0,0,1,2.6-2.287c1.528,0,2.766,1.547,2.766,3.456,0,.14-.007.278-.02.414a2.962,2.962,0,0,1,3.731.059c1.08,1.08.862,3.05-.488,4.4l-.014.014a14.259,14.259,0,0,1,2.352,7.867v2.708H243.339V85.747A14.328,14.328,0,0,1,257.667,71.419Z" transform="translate(-243.339 -69.539)" fill="#f2b88f"/>
      </g>
      <g id="Grupo_1185666" data-name="Grupo 1185666" transform="translate(28.25 64.792)">
        <path id="Trazado_1051761" data-name="Trazado 1051761" d="M243.339,100.065v2.708h5.738v-2.159c0-5.628,2.931-13.715,8.59-14.877A14.328,14.328,0,0,0,243.339,100.065Z" transform="translate(-243.339 -85.737)" fill="#e3a67b"/>
      </g>
      <g id="Grupo_1185667" data-name="Grupo 1185667" transform="translate(20.37 91.273)">
        <path id="Trazado_1051762" data-name="Trazado 1051762" d="M210.064,325.909c-1.171-6.668-6.358-11.693-12.579-11.693a11.554,11.554,0,0,0-5.73,1.53,12.413,12.413,0,0,0-6.907-1.909c-5.183,0-9.385,2.645-9.385,5.907v2.017l7,7,25.52.008A2.333,2.333,0,0,0,210.064,325.909Z" transform="translate(-175.463 -313.836)" fill="#a4e7ff"/>
      </g>
      <g id="Grupo_1185668" data-name="Grupo 1185668" transform="translate(20.37 91.281)">
        <path id="Trazado_1051763" data-name="Trazado 1051763" d="M190.264,325.981c1-5.683,4.913-10.172,9.9-11.374a11.412,11.412,0,0,0-2.679-.319,11.554,11.554,0,0,0-5.73,1.53,12.414,12.414,0,0,0-6.907-1.909c-5.183,0-9.385,2.645-9.385,5.907v2.017l7,7,9.882.008A2.333,2.333,0,0,1,190.264,325.981Z" transform="translate(-175.463 -313.908)" fill="#5ad6ff"/>
      </g>
      <g id="Grupo_1185669" data-name="Grupo 1185669" transform="translate(38.909 91.819)">
        <circle id="Elipse_12624" data-name="Elipse 12624" cx="3.483" cy="3.483" r="3.483" transform="translate(0 0)" fill="#ffcdbe"/>
      </g>
      <g id="Grupo_1185670" data-name="Grupo 1185670" transform="translate(52.275 80.318)">
        <circle id="Elipse_12625" data-name="Elipse 12625" cx="3.147" cy="3.147" r="3.147" transform="translate(0 0)" fill="#ffdecf"/>
      </g>
      <g id="Grupo_1185671" data-name="Grupo 1185671" transform="translate(29.745 72.261)">
        <path id="Trazado_1051764" data-name="Trazado 1051764" d="M276.544,157.09a13.55,13.55,0,0,1-7.512-7.018,13.549,13.549,0,0,1-7.512,7.018,15.246,15.246,0,0,1-5.065,1.139,12.647,12.647,0,1,0,24.808-.035,15.117,15.117,0,0,1-4.718-1.1Z" transform="translate(-256.215 -150.072)" fill="#ffeee5"/>
      </g>
      <g id="Grupo_1185672" data-name="Grupo 1185672" transform="translate(29.745 79.669)">
        <path id="Trazado_1051765" data-name="Trazado 1051765" d="M260.433,214.812c0-.311.01-.62.025-.927a15.021,15.021,0,0,1-4,.749,12.652,12.652,0,0,0,11.279,15.056A18.779,18.779,0,0,1,260.433,214.812Z" transform="translate(-256.214 -213.885)" fill="#ffdecf"/>
      </g>
      <g id="Grupo_1185676" data-name="Grupo 1185676" transform="translate(35.136 82.023)">
        <g id="Grupo_1185673" data-name="Grupo 1185673" transform="translate(0 0)">
          <path id="Trazado_1051766" data-name="Trazado 1051766" d="M303.524,237.128a.871.871,0,0,1-.871-.871v-1.227a.871.871,0,1,1,1.741,0v1.227A.871.871,0,0,1,303.524,237.128Z" transform="translate(-302.653 -234.16)"/>
        </g>
        <g id="Grupo_1185674" data-name="Grupo 1185674" transform="translate(12.77 0)">
          <path id="Trazado_1051767" data-name="Trazado 1051767" d="M413.524,237.128a.871.871,0,0,1-.871-.871v-1.227a.871.871,0,1,1,1.741,0v1.227A.871.871,0,0,1,413.524,237.128Z" transform="translate(-412.653 -234.16)"/>
        </g>
        <g id="Grupo_1185675" data-name="Grupo 1185675" transform="translate(4.702 1.19)">
          <path id="Trazado_1051768" data-name="Trazado 1051768" d="M345.706,246.923a3.1,3.1,0,0,1-2.34-1.065.871.871,0,1,1,1.313-1.144,1.36,1.36,0,0,0,2.054,0,.871.871,0,1,1,1.313,1.144A3.1,3.1,0,0,1,345.706,246.923Z" transform="translate(-343.152 -244.414)"/>
        </g>
      </g>
      <g id="Grupo_1185677" data-name="Grupo 1185677" transform="translate(4.153 91.669)">
        <path id="Trazado_1051769" data-name="Trazado 1051769" d="M60.943,328.927c-1.17-6.66-6.351-11.68-12.565-11.68s-11.4,5.019-12.565,11.68a2.33,2.33,0,0,0,2.079,2.857H58.865A2.33,2.33,0,0,0,60.943,328.927Z" transform="translate(-35.773 -317.247)" fill="#fad989"/>
      </g>
      <g id="Grupo_1185678" data-name="Grupo 1185678" transform="translate(4.153 91.669)">
        <path id="Trazado_1051770" data-name="Trazado 1051770" d="M41.165,328.927c1-5.677,4.908-10.16,9.888-11.361a11.4,11.4,0,0,0-2.676-.319c-6.214,0-11.4,5.019-12.565,11.68a2.33,2.33,0,0,0,2.079,2.857h5.353a2.33,2.33,0,0,1-2.079-2.857Z" transform="translate(-35.772 -317.247)" fill="#f6ca56"/>
      </g>
      <g id="Grupo_1185679" data-name="Grupo 1185679" transform="translate(13.276 91.803)">
        <circle id="Elipse_12626" data-name="Elipse 12626" cx="3.483" cy="3.483" r="3.483" fill="#d69a8a"/>
      </g>
      <g id="Grupo_1185680" data-name="Grupo 1185680" transform="translate(0.871 63.647)">
        <path id="Trazado_1051771" data-name="Trazado 1051771" d="M38.672,93.7a3.887,3.887,0,0,0-1.092-5.33,3.887,3.887,0,0,0-2.806-5.885c.013-.129.02-.259.02-.391a3.888,3.888,0,0,0-5.109-3.69A3.887,3.887,0,0,0,23.4,76.914a3.887,3.887,0,0,0-6.288,1.492A3.888,3.888,0,0,0,12,82.1c0,.132.007.262.02.391a3.887,3.887,0,0,0-2.806,5.885A3.887,3.887,0,0,0,8.121,93.7Z" transform="translate(-7.5 -75.875)" fill="#6b7d8e"/>
      </g>
      <g id="Grupo_1185681" data-name="Grupo 1185681" transform="translate(0.871 65.981)">
        <path id="Trazado_1051772" data-name="Trazado 1051772" d="M15.887,95.98A3.887,3.887,0,0,0,12,99.867c0,.132.007.262.02.391a3.887,3.887,0,0,0-2.806,5.885,3.888,3.888,0,0,0-1.092,5.33h7.006c.052-1.716.114-3.029.188-3.462a5.154,5.154,0,0,1,.945-2.437,3.308,3.308,0,0,1-1.3-3.314,3.606,3.606,0,0,1,2.608-2.89,3.7,3.7,0,0,1-.457-3.192,3.885,3.885,0,0,0-1.222-.2Z" transform="translate(-7.5 -95.98)" fill="#5f7080"/>
      </g>
      <g id="Grupo_1185684" data-name="Grupo 1185684" transform="translate(0.954 80.075)">
        <g id="Grupo_1185682" data-name="Grupo 1185682" transform="translate(25.317 0)">
          <circle id="Elipse_12627" data-name="Elipse 12627" cx="3.147" cy="3.147" r="3.147" fill="#e1ac9a"/>
        </g>
        <g id="Grupo_1185683" data-name="Grupo 1185683" transform="translate(0 0)">
          <circle id="Elipse_12628" data-name="Elipse 12628" cx="3.147" cy="3.147" r="3.147" fill="#d69a8a"/>
        </g>
      </g>
      <g id="Grupo_1185685" data-name="Grupo 1185685" transform="translate(4.118 77.29)">
        <path id="Trazado_1051773" data-name="Trazado 1051773" d="M48,195.609a23.536,23.536,0,0,1-10.02-2,1.163,1.163,0,0,0-1.59.609,12.649,12.649,0,1,0,23.415-.106,1.163,1.163,0,0,0-1.6-.594A23.28,23.28,0,0,1,48,195.609Z" transform="translate(-35.469 -193.395)" fill="#e7beaf"/>
      </g>
      <g id="Grupo_1185686" data-name="Grupo 1185686" transform="translate(4.109 77.389)">
        <path id="Trazado_1051774" data-name="Trazado 1051774" d="M39.52,198.968a19.19,19.19,0,0,1,.38-3.8h0a16.118,16.118,0,0,1-1.993-.8,1.163,1.163,0,0,0-1.59.609,12.655,12.655,0,0,0,8.211,16.893A19.042,19.042,0,0,1,39.52,198.968Z" transform="translate(-35.396 -194.242)" fill="#e1ac9a"/>
      </g>
      <g id="Grupo_1185690" data-name="Grupo 1185690" transform="translate(9.511 82.007)">
        <g id="Grupo_1185687" data-name="Grupo 1185687">
          <path id="Trazado_1051775" data-name="Trazado 1051775" d="M82.8,236.988a.871.871,0,0,1-.871-.871v-1.227a.871.871,0,0,1,1.741,0v1.227A.871.871,0,0,1,82.8,236.988Z" transform="translate(-81.928 -234.02)"/>
        </g>
        <g id="Grupo_1185688" data-name="Grupo 1185688" transform="translate(12.77)">
          <path id="Trazado_1051776" data-name="Trazado 1051776" d="M192.8,236.988a.871.871,0,0,1-.871-.871v-1.227a.871.871,0,1,1,1.741,0v1.227A.871.871,0,0,1,192.8,236.988Z" transform="translate(-191.928 -234.02)"/>
        </g>
        <g id="Grupo_1185689" data-name="Grupo 1185689" transform="translate(4.702 1.191)">
          <path id="Trazado_1051777" data-name="Trazado 1051777" d="M124.982,246.783a3.1,3.1,0,0,1-2.34-1.066.871.871,0,1,1,1.313-1.144,1.36,1.36,0,0,0,2.054,0,.871.871,0,0,1,1.313,1.144A3.1,3.1,0,0,1,124.982,246.783Z" transform="translate(-122.428 -244.275)"/>
        </g>
      </g>
      <g id="Grupo_1185691" data-name="Grupo 1185691" transform="translate(6.538 91.258)">
        <circle id="Elipse_12629" data-name="Elipse 12629" cx="4.063" cy="4.063" r="4.063" transform="translate(0 0)" fill="#ffdecf"/>
      </g>
      <path id="Trazado_1051778" data-name="Trazado 1051778" d="M55.106,87.469c.1.008.21.013.316.013a4.016,4.016,0,0,0,2.354-7.27V79.12a15.136,15.136,0,0,0-2.141-7.78,4.659,4.659,0,0,0,.953-2.305,3.358,3.358,0,0,0-.917-2.81,3.525,3.525,0,0,0-3.537-.772,3.856,3.856,0,0,0-3.555-3.412,3.576,3.576,0,0,0-3.146,2.15,15.233,15.233,0,0,0-10.585,1.84.871.871,0,0,0,.887,1.5A13.491,13.491,0,0,1,45.77,66.045a.871.871,0,0,0,1.043-.605,2.035,2.035,0,0,1,1.767-1.657c1.027,0,1.9,1.184,1.9,2.585,0,.107-.005.215-.016.331a.871.871,0,0,0,1.346.81,2.11,2.11,0,0,1,2.636-.052,1.654,1.654,0,0,1,.417,1.387,3.039,3.039,0,0,1-.9,1.774l-.017.017a.871.871,0,0,0-.115,1.1,13.4,13.4,0,0,1,2.209,7.388v.374a4,4,0,0,0-1.292.012A14.219,14.219,0,0,1,50.4,78.474a12.782,12.782,0,0,1-7.037-6.544.871.871,0,0,0-1.611,0,12.783,12.783,0,0,1-7.037,6.544c-.4.163-.8.306-1.208.434a4.753,4.753,0,0,0-1.468-3,4.748,4.748,0,0,0-.5-4.5,13.564,13.564,0,0,1,1.632-1.923.871.871,0,1,0-1.216-1.246,15.293,15.293,0,0,0-1.67,1.928,4.723,4.723,0,0,0-1.269-.608,4.759,4.759,0,0,0-5.486-4.394,4.758,4.758,0,0,0-6.772-1.589A4.758,4.758,0,0,0,10,65.168a4.759,4.759,0,0,0-5.486,4.394,4.759,4.759,0,0,0-3.018,6.346,4.749,4.749,0,0,0-1,5.563,4.016,4.016,0,0,0,3.47,5.765,13.443,13.443,0,0,0,2.924,4.842A4.921,4.921,0,0,0,5.9,96.825,16.394,16.394,0,0,0,3.336,103.2a3.442,3.442,0,0,0,.733,2.821,2.887,2.887,0,0,0,2.2,1.057H18.5a.871.871,0,1,0,0-1.741H6.273A1.153,1.153,0,0,1,5.4,104.9a1.729,1.729,0,0,1-.352-1.4,14.768,14.768,0,0,1,1.82-4.954,4.923,4.923,0,0,0,7.264.215,4.352,4.352,0,0,0,6.959-3.085,13.33,13.33,0,0,0,2.149-.943,13.877,13.877,0,0,1,5.223,8.768,1.729,1.729,0,0,1-.352,1.4,1.153,1.153,0,0,1-.869.436H21.983a.871.871,0,1,0,0,1.741H52.89a2.889,2.889,0,0,0,2.2-1.058,3.445,3.445,0,0,0,.734-2.823,15.755,15.755,0,0,0-5.383-9.467,13.583,13.583,0,0,0,4.66-6.258Zm.5-1.738a13.555,13.555,0,0,0,.2-4.508,2.274,2.274,0,0,1-.2,4.508ZM16.6,94.639c-.373,0-.748-.03-1.119-.07A4.933,4.933,0,0,0,8.25,90.984,11.752,11.752,0,0,1,5.837,78.444a.292.292,0,0,1,.4-.154,24.313,24.313,0,0,0,10.4,2.086,24,24,0,0,0,10.6-2.182.284.284,0,0,1,.233-.014.3.3,0,0,1,.171.165A11.782,11.782,0,0,1,16.6,94.639Zm12.961-7.4h.036a13.4,13.4,0,0,0,1.621,3.242q-.721-.067-1.461-.067a15.752,15.752,0,0,0-1.85.11,13.343,13.343,0,0,0,1.654-3.283Zm.481-1.825a13.682,13.682,0,0,0,.121-4.342,2.273,2.273,0,0,1-.121,4.342ZM3.071,76.866a.871.871,0,0,0,.254-1.177A3.016,3.016,0,0,1,5.5,71.123a.871.871,0,0,0,.754-.95c-.01-.1-.015-.2-.015-.3A3.017,3.017,0,0,1,10.205,67a.871.871,0,0,0,1.089-.523,3.016,3.016,0,0,1,4.88-1.158.871.871,0,0,0,1.185,0,3.016,3.016,0,0,1,4.88,1.158A.871.871,0,0,0,23.329,67a3.017,3.017,0,0,1,3.965,2.864c0,.1-.005.2-.015.3a.871.871,0,0,0,.754.95,3.016,3.016,0,0,1,2.177,4.566.871.871,0,0,0,.254,1.177,3.008,3.008,0,0,1,1.274,3.073,3.993,3.993,0,0,0-1.954-.718,13.478,13.478,0,0,0-.535-1.545,2.034,2.034,0,0,0-2.8-1.036,22.581,22.581,0,0,1-9.808,1.993A22.893,22.893,0,0,1,7,76.725,2.033,2.033,0,0,0,4.223,77.79a13.479,13.479,0,0,0-.488,1.433,3.993,3.993,0,0,0-1.938.717,3.006,3.006,0,0,1,1.274-3.073ZM1.833,83.222a2.278,2.278,0,0,1,1.522-2.145,13.668,13.668,0,0,0,.124,4.331,2.279,2.279,0,0,1-1.646-2.186ZM10.6,98.513a3.193,3.193,0,1,1,3.193-3.193A3.2,3.2,0,0,1,10.6,98.513Zm6.157-.615a2.6,2.6,0,0,1-1.645-.584,4.892,4.892,0,0,0,.321-1c.379.037.759.06,1.139.065h.186a13.674,13.674,0,0,0,2.46-.223A2.616,2.616,0,0,1,16.759,97.9Zm37.355,5.6a1.732,1.732,0,0,1-.352,1.4,1.155,1.155,0,0,1-.871.437h-23a3.494,3.494,0,0,0,.291-2.137A15.739,15.739,0,0,0,24.8,93.735a13.687,13.687,0,0,0,1.278-1.076,13.182,13.182,0,0,1,3.68-.507,13.427,13.427,0,0,1,3.181.374,13.633,13.633,0,0,0,5.12,3.151,4.352,4.352,0,0,0,8.672.006,13.452,13.452,0,0,0,2.167-.957A13.894,13.894,0,0,1,54.114,103.5ZM39.927,96.164a13.41,13.41,0,0,0,4.929.005,2.611,2.611,0,0,1-4.929-.005Zm2.465-1.51a11.818,11.818,0,0,1-11.111-7.87,4.014,4.014,0,0,0,1.76-5.313,4.741,4.741,0,0,0,.279-.7,16.8,16.8,0,0,0,2.059-.689,14.963,14.963,0,0,0,7.182-5.9,14.962,14.962,0,0,0,7.182,5.9,16.03,16.03,0,0,0,4.3,1.106A11.783,11.783,0,0,1,42.392,94.654Z" transform="translate(0 0)"/>
    </g>
  </g>
</svg>
